<?xml version="1.0" encoding="UTF-8"?>
<!DOCTYPE svg PUBLIC "-//W3C//DTD SVG 1.1//EN" "http://www.w3.org/Graphics/SVG/1.1/DTD/svg11.dtd">
<!-- Creator: CorelDRAW X7 -->
<svg xmlns="http://www.w3.org/2000/svg" xml:space="preserve" width="145mm" height="36.2882mm" version="1.1" style="shape-rendering:geometricPrecision; text-rendering:geometricPrecision; image-rendering:optimizeQuality; fill-rule:evenodd; clip-rule:evenodd"
viewBox="0 0 14500 3629"
 xmlns:xlink="http://www.w3.org/1999/xlink">
 <defs>
  <style type="text/css">
   <![CDATA[
    .str1 {stroke:#2B2A29;stroke-width:50}
    .str0 {stroke:#2B2A29;stroke-width:25}
    .str2 {stroke:#2B2A29;stroke-width:20}
    .fil1 {fill:none}
    .fil2 {fill:#FEFEFE}
    .fil0 {fill:#2B2A29;fill-rule:nonzero}
   ]]>
  </style>
 </defs>
 <g id="Layer_x0020_1">
  <metadata id="CorelCorpID_0Corel-Layer"/>
  <g id="_853903069904">
   <path class="fil0" d="M844 572l0 -252 82 0c31,0 51,1 61,3 14,4 26,13 36,25 10,13 15,29 15,49 0,16 -3,29 -9,40 -6,10 -13,18 -21,24 -9,6 -18,10 -27,12 -12,3 -29,4 -52,4l-34 0 0 95 -51 0zm51 -210l0 72 28 0c20,0 34,-1 40,-4 7,-2 12,-6 16,-12 4,-6 6,-12 6,-20 0,-9 -3,-17 -8,-23 -5,-6 -12,-9 -21,-11 -6,-1 -18,-2 -36,-2l-25 0zm230 210l-48 0 0 -183 45 0 0 26c8,-12 15,-20 21,-24 6,-4 13,-6 21,-6 11,0 21,3 32,9l-15 43c-9,-6 -16,-8 -23,-8 -7,0 -13,2 -17,5 -5,4 -9,11 -12,21 -2,9 -4,30 -4,61l0 56zm127 -126l-43 -8c5,-18 13,-31 25,-40 12,-8 30,-13 54,-13 22,0 38,3 48,8 11,5 18,12 23,19 4,8 6,23 6,44l-1 56c0,16 1,28 3,36 1,7 4,16 8,24l-48 0c-1,-3 -3,-8 -4,-14 -1,-3 -2,-5 -2,-5 -8,8 -17,14 -27,18 -9,4 -19,6 -30,6 -18,0 -33,-5 -44,-15 -11,-11 -16,-24 -16,-39 0,-10 2,-20 7,-28 5,-8 12,-14 21,-18 9,-5 22,-8 38,-12 23,-4 39,-8 47,-12l0 -4c0,-10 -2,-17 -7,-21 -4,-4 -13,-6 -26,-6 -8,0 -15,2 -20,6 -5,3 -9,9 -12,18zm65 39c-6,2 -16,4 -29,7 -14,3 -22,6 -26,9 -7,4 -10,10 -10,17 0,7 3,12 8,17 5,5 11,8 19,8 9,0 17,-3 25,-9 6,-4 10,-10 11,-16 2,-4 2,-12 2,-24l0 -9zm255 -41l-48 8c-1,-9 -5,-17 -10,-21 -6,-5 -13,-8 -23,-8 -12,0 -21,5 -28,13 -8,8 -11,22 -11,42 0,22 3,37 11,46 7,9 17,13 29,13 9,0 17,-2 23,-7 5,-6 10,-15 12,-28l48 9c-5,21 -15,38 -29,49 -14,11 -33,17 -56,17 -27,0 -48,-9 -64,-25 -16,-17 -24,-41 -24,-71 0,-30 8,-53 24,-70 16,-17 38,-26 65,-26 22,0 40,5 53,15 13,9 22,24 28,44zm26 35c0,-17 4,-32 11,-47 8,-15 20,-27 34,-35 15,-8 31,-12 49,-12 27,0 50,9 68,27 17,18 26,41 26,69 0,27 -9,50 -26,69 -18,18 -41,27 -68,27 -17,0 -33,-4 -48,-11 -15,-8 -27,-19 -35,-34 -7,-15 -11,-32 -11,-53zm49 2c0,18 5,32 13,42 9,10 19,14 32,14 13,0 23,-4 32,-14 8,-10 13,-24 13,-42 0,-18 -5,-32 -13,-42 -9,-9 -19,-14 -32,-14 -13,0 -23,5 -32,14 -8,10 -13,24 -13,42zm228 91l-74 -183 51 0 34 94 10 31c3,-8 4,-13 5,-16 2,-5 3,-10 5,-15l35 -94 50 0 -73 183 -43 0zm312 0l-48 0 0 -93c0,-20 -1,-32 -3,-38 -2,-6 -6,-11 -11,-14 -4,-3 -10,-5 -16,-5 -9,0 -17,3 -23,7 -7,5 -12,11 -14,18 -3,8 -4,22 -4,43l0 82 -48 0 0 -183 45 0 0 27c16,-20 36,-31 60,-31 11,0 21,2 30,6 9,4 15,9 20,15 4,6 8,13 9,20 2,8 3,19 3,33l0 113zm49 0l0 -183 48 0 0 183 -48 0zm-8 -206l24 -52 54 0 -48 52 -30 0zm240 80l-44 -8c5,-18 14,-31 26,-40 12,-8 30,-13 54,-13 21,0 37,3 48,8 10,5 18,12 22,19 4,8 7,23 7,44l-1 56c0,16 1,28 2,36 2,7 5,16 9,24l-48 0c-1,-3 -3,-8 -5,-14 -1,-3 -1,-5 -2,-5 -8,8 -17,14 -26,18 -9,4 -19,6 -30,6 -19,0 -34,-5 -44,-15 -11,-11 -17,-24 -17,-39 0,-10 3,-20 8,-28 5,-8 12,-14 21,-18 8,-5 21,-8 38,-12 23,-4 38,-8 47,-12l0 -4c0,-10 -2,-17 -7,-21 -5,-4 -13,-6 -26,-6 -9,0 -15,2 -20,6 -5,3 -9,9 -12,18zm65 39c-6,2 -16,4 -29,7 -14,3 -23,6 -27,9 -6,4 -9,10 -9,17 0,7 2,12 7,17 5,5 12,8 20,8 8,0 17,-3 25,-9 5,-4 9,-10 11,-16 1,-4 2,-12 2,-24l0 -9zm263 87l-45 0 0 -27c-7,11 -16,19 -26,24 -10,5 -21,8 -31,8 -21,0 -39,-9 -54,-26 -15,-17 -23,-40 -23,-71 0,-31 8,-54 22,-70 15,-17 33,-25 56,-25 20,0 38,9 53,26l0 -91 48 0 0 252zm-129 -95c0,20 3,34 8,43 8,12 19,19 33,19 11,0 20,-5 28,-14 8,-10 12,-24 12,-43 0,-21 -4,-36 -11,-46 -8,-9 -18,-14 -30,-14 -11,0 -21,5 -28,14 -8,9 -12,23 -12,41zm223 95l-48 0 0 -183 44 0 0 26c8,-12 15,-20 21,-24 6,-4 13,-6 21,-6 11,0 22,3 32,9l-15 43c-8,-6 -16,-8 -23,-8 -6,0 -12,2 -17,5 -5,4 -8,11 -11,21 -3,9 -4,30 -4,61l0 56zm197 -58l48 9c-6,17 -16,31 -29,40 -14,9 -30,14 -50,14 -32,0 -56,-10 -71,-31 -12,-17 -18,-38 -18,-64 0,-30 8,-54 24,-71 16,-17 36,-26 60,-26 27,0 48,9 64,27 16,18 23,46 23,83l-121 0c0,14 4,26 11,34 8,8 17,12 28,12 8,0 14,-2 19,-7 5,-4 9,-10 12,-20zm3 -49c-1,-14 -4,-24 -11,-32 -7,-7 -15,-11 -25,-11 -11,0 -19,4 -26,12 -7,8 -11,18 -10,31l72 0zm70 56l49 -8c2,10 6,17 12,22 7,5 15,7 27,7 12,0 22,-2 28,-7 4,-3 6,-7 6,-13 0,-4 -1,-7 -3,-9 -3,-2 -8,-4 -16,-6 -39,-9 -64,-17 -75,-24 -14,-10 -21,-24 -21,-41 0,-16 6,-30 18,-40 13,-11 32,-17 59,-17 25,0 43,4 56,13 12,8 20,20 25,36l-46 9c-2,-8 -6,-13 -11,-17 -5,-4 -13,-6 -23,-6 -13,0 -22,2 -28,6 -4,2 -6,5 -6,9 0,4 2,7 5,9 5,3 20,8 46,14 26,6 44,13 54,21 10,9 15,21 15,37 0,16 -7,31 -21,43 -14,12 -35,18 -62,18 -25,0 -45,-5 -60,-15 -14,-10 -24,-24 -28,-41zm249 -75l-43 -8c5,-18 13,-31 25,-40 12,-8 30,-13 54,-13 22,0 38,3 48,8 11,5 18,12 22,19 5,8 7,23 7,44l-1 56c0,16 1,28 3,36 1,7 4,16 8,24l-48 0c-1,-3 -3,-8 -4,-14 -1,-3 -2,-5 -2,-5 -8,8 -17,14 -27,18 -9,4 -19,6 -30,6 -18,0 -33,-5 -44,-15 -11,-11 -16,-24 -16,-39 0,-10 2,-20 7,-28 5,-8 12,-14 21,-18 9,-5 22,-8 38,-12 23,-4 39,-8 47,-12l0 -4c0,-10 -2,-17 -7,-21 -4,-4 -13,-6 -26,-6 -8,0 -15,2 -20,6 -5,3 -9,9 -12,18zm65 39c-6,2 -16,4 -29,7 -14,3 -22,6 -26,9 -7,4 -10,10 -10,17 0,7 3,12 8,17 5,5 11,8 19,8 9,0 17,-3 25,-9 6,-4 10,-10 11,-16 2,-4 2,-12 2,-24l0 -9zm-59 -119l24 -52 54 0 -48 52 -30 0zm201 206l-48 0 0 -183 44 0 0 26c8,-12 15,-20 21,-24 6,-4 13,-6 21,-6 11,0 22,3 32,9l-15 43c-8,-6 -16,-8 -23,-8 -7,0 -12,2 -17,5 -5,4 -8,11 -11,21 -3,9 -4,30 -4,61l0 56zm-51 -257l39 0 19 26 20 -26 38 0 -35 51 -45 0 -36 -51z"/>
   <polyline class="fil1 str0" points="13,900 13,875 13,13 13,0 "/>
   <polyline class="fil1 str0" points="4488,900 4488,875 4488,13 4488,0 "/>
   <polyline class="fil1 str0" points="0,13 13,13 4488,13 4500,13 "/>
   <polyline class="fil1 str1" points="0,875 13,875 4488,875 4500,875 "/>
   <path class="fil0" d="M6813 572l0 -252 51 0 0 252 -51 0zm266 0l-48 0 0 -93c0,-20 -1,-32 -3,-38 -2,-6 -6,-11 -10,-14 -5,-3 -11,-5 -17,-5 -9,0 -16,3 -23,7 -7,5 -11,11 -14,18 -2,8 -4,22 -4,43l0 82 -48 0 0 -183 45 0 0 27c16,-20 36,-31 60,-31 11,0 21,2 30,6 9,4 15,9 20,15 5,6 8,13 10,20 1,8 2,19 2,33l0 113zm217 0l-45 0 0 -27c-7,11 -16,19 -26,24 -10,5 -21,8 -31,8 -21,0 -39,-9 -54,-26 -15,-17 -23,-40 -23,-71 0,-31 8,-54 22,-70 15,-17 33,-25 56,-25 20,0 38,9 53,26l0 -91 48 0 0 252zm-129 -95c0,20 3,34 8,43 8,12 19,19 33,19 11,0 20,-5 28,-14 8,-10 12,-24 12,-43 0,-21 -4,-36 -12,-46 -7,-9 -17,-14 -29,-14 -11,0 -21,5 -28,14 -8,9 -12,23 -12,41zm283 37l48 9c-6,17 -16,31 -29,40 -14,9 -31,14 -51,14 -32,0 -55,-10 -70,-31 -12,-17 -18,-38 -18,-64 0,-30 8,-54 23,-71 16,-17 36,-26 60,-26 28,0 49,9 65,27 16,18 23,46 22,83l-121 0c1,14 5,26 12,34 7,8 17,12 28,12 7,0 14,-2 19,-7 5,-4 9,-10 12,-20zm2 -49c0,-14 -4,-24 -10,-32 -7,-7 -16,-11 -26,-11 -10,0 -19,4 -26,12 -7,8 -10,18 -10,31l72 0zm64 107l66 -94 -63 -89 59 0 33 51 34 -51 57 0 -62 87 67 96 -59 0 -37 -56 -38 56 -57 0z"/>
   <polyline class="fil1 str0" points="5013,900 5013,875 5013,13 5013,0 "/>
   <polyline class="fil1 str0" points="9488,900 9488,875 9488,13 9488,0 "/>
   <polyline class="fil1 str0" points="5000,13 5013,13 9488,13 9500,13 "/>
   <polyline class="fil1 str1" points="5000,875 5013,875 9488,875 9500,875 "/>
   <path class="fil0" d="M11776 572l0 -252 51 0 0 99 100 0 0 -99 51 0 0 252 -51 0 0 -110 -100 0 0 110 -51 0zm255 0l0 -252 187 0 0 42 -136 0 0 57 126 0 0 42 -126 0 0 69 141 0 0 42 -192 0zm463 0l-56 0 -21 -57 -102 0 -21 57 -54 0 98 -252 54 0 102 252zm-94 -100l-35 -93 -34 93 69 0zm121 -152l93 0c21,0 37,1 48,5 15,4 27,12 38,23 10,11 18,25 24,41 5,16 8,36 8,59 0,21 -2,39 -8,54 -6,19 -15,33 -27,45 -8,8 -20,15 -35,20 -12,4 -27,5 -45,5l-96 0 0 -252zm51 42l0 168 38 0c14,0 24,-1 31,-3 8,-2 15,-5 20,-10 6,-5 10,-13 13,-25 4,-11 6,-26 6,-46 0,-19 -2,-34 -6,-45 -3,-10 -8,-18 -14,-24 -6,-6 -14,-10 -24,-12 -7,-2 -21,-3 -41,-3l-23 0z"/>
   <polyline class="fil1 str0" points="10013,900 10013,875 10013,13 10013,0 "/>
   <polyline class="fil1 str0" points="14488,900 14488,875 14488,13 14488,0 "/>
   <polyline class="fil1 str0" points="10000,13 10013,13 14488,13 14500,13 "/>
   <polyline class="fil1 str1" points="10000,875 10013,875 14488,875 14500,875 "/>
   <path class="fil0" d="M678 1810l0 -227 100 0c21,0 36,2 47,6 10,4 19,11 25,21 6,11 9,22 9,35 0,16 -5,29 -15,41 -11,11 -27,18 -49,21 8,3 14,7 18,11 9,8 18,18 25,30l40 62 -38 0 -30 -47c-9,-14 -16,-24 -22,-32 -5,-7 -10,-12 -15,-15 -4,-3 -9,-5 -14,-6 -3,0 -9,-1 -16,-1l-35 0 0 101 -30 0zm30 -127l64 0c14,0 25,-1 33,-4 7,-3 13,-8 17,-14 4,-6 6,-13 6,-20 0,-11 -4,-20 -11,-27 -8,-7 -21,-10 -37,-10l-72 0 0 75zm199 127l0 -227 164 0 0 26 -134 0 0 70 126 0 0 27 -126 0 0 77 139 0 0 27 -169 0zm186 0l87 -227 33 0 93 227 -34 0 -27 -69 -95 0 -25 69 -32 0zm66 -93l77 0 -24 -63c-7,-19 -12,-35 -16,-48 -3,15 -7,30 -13,44l-24 67zm171 93l0 -227 78 0c18,0 31,1 41,3 13,3 24,8 33,16 12,10 21,23 27,39 6,16 9,34 9,54 0,17 -2,33 -6,46 -4,13 -9,24 -16,33 -6,9 -13,16 -20,21 -8,5 -17,9 -28,11 -10,3 -22,4 -36,4l-82 0zm30 -27l48 0c15,0 27,-1 36,-4 8,-3 15,-6 20,-12 7,-7 13,-16 17,-28 4,-12 6,-27 6,-44 0,-24 -4,-42 -12,-55 -8,-13 -17,-22 -28,-26 -8,-3 -21,-5 -39,-5l-48 0 0 174zm199 27l0 -227 45 0 53 161c5,15 9,26 11,33 3,-8 7,-20 12,-36l55 -158 40 0 0 227 -29 0 0 -190 -66 190 -27 0 -66 -194 0 194 -28 0zm265 0l0 -227 164 0 0 26 -134 0 0 70 126 0 0 27 -126 0 0 77 140 0 0 27 -170 0zm216 0l0 -32 32 0 0 32 -32 0zm141 -25l4 25c-8,1 -15,2 -21,2 -11,0 -18,-1 -24,-4 -6,-4 -9,-8 -12,-13 -2,-5 -3,-16 -3,-33l0 -95 -21 0 0 -22 21 0 0 -40 28 -17 0 57 28 0 0 22 -28 0 0 96c0,8 0,14 1,16 1,2 3,4 5,5 2,2 5,2 10,2 3,0 7,0 12,-1zm8 25l60 -85 -55 -80 34 0 26 39c5,8 9,13 11,18 5,-7 9,-13 13,-18l27 -39 35 0 -56 80 59 85 -34 0 -34 -51 -8 -12 -44 63 -34 0zm239 -25l4 25c-8,1 -15,2 -21,2 -11,0 -18,-1 -24,-4 -6,-4 -10,-8 -12,-13 -2,-5 -3,-16 -3,-33l0 -95 -21 0 0 -22 21 0 0 -40 28 -17 0 57 28 0 0 22 -28 0 0 96c0,8 0,14 1,16 1,2 3,4 5,5 2,2 5,2 10,2 3,0 7,0 12,-1zm169 92c-16,-20 -29,-42 -39,-68 -11,-26 -16,-53 -16,-81 0,-25 4,-48 12,-71 9,-26 23,-52 43,-78l20 0c-13,21 -21,37 -25,46 -6,14 -11,29 -15,45 -4,19 -7,38 -7,58 0,50 16,99 47,149l-20 0zm1184 0l-20 0c31,-50 46,-99 46,-149 0,-20 -2,-39 -6,-58 -4,-15 -9,-30 -15,-45 -4,-9 -12,-24 -25,-46l20 0c19,26 34,52 43,78 8,23 12,46 12,71 0,28 -5,55 -16,81 -11,26 -24,48 -39,68zm-1106 -67l-24 -146 24 0 12 80c2,9 3,23 6,43 4,-10 10,-22 18,-35l49 -88 26 0 -84 146 -27 0zm212 -50l24 3c-4,12 -12,23 -24,34 -13,11 -28,16 -45,16 -11,0 -21,-2 -30,-7 -9,-5 -16,-13 -21,-22 -5,-10 -7,-21 -7,-33 0,-16 4,-31 11,-46 8,-15 17,-26 29,-34 12,-7 24,-10 38,-10 18,0 32,5 42,16 11,11 16,25 16,44 0,7 -1,14 -2,22l-108 0c-1,3 -1,5 -1,8 0,13 3,24 10,31 6,7 14,11 23,11 8,0 17,-3 25,-8 8,-6 15,-14 20,-25zm-73 -36l82 0c0,-3 0,-5 0,-6 0,-12 -3,-22 -9,-28 -6,-7 -14,-10 -24,-10 -11,0 -21,3 -30,11 -8,7 -15,18 -19,33zm122 86l30 -146 23 0 -7 30c8,-12 15,-20 23,-25 7,-6 14,-8 22,-8 5,0 11,1 18,5l-10 23c-4,-3 -9,-5 -14,-5 -9,0 -18,5 -27,15 -10,10 -17,27 -22,52l-12 59 -24 0zm90 0l4 -19 79 -89c5,-6 12,-12 18,-19 -11,1 -20,2 -25,2l-55 0 5 -21 113 0 -3 15 -80 90c-4,5 -11,12 -20,20 14,0 24,-1 29,-1l57 0 -4 22 -118 0zm253 -50l24 3c-4,12 -12,23 -24,34 -13,11 -28,16 -45,16 -11,0 -21,-2 -30,-7 -9,-5 -16,-13 -21,-22 -5,-10 -7,-21 -7,-33 0,-16 4,-31 11,-46 8,-15 17,-26 29,-34 12,-7 25,-10 38,-10 18,0 32,5 42,16 11,11 16,25 16,44 0,7 -1,14 -2,22l-108 0c-1,3 -1,5 -1,8 0,13 3,24 10,31 6,7 14,11 23,11 8,0 17,-3 25,-8 9,-6 15,-14 20,-25zm-73 -36l82 0c0,-3 0,-5 0,-6 0,-12 -3,-22 -9,-28 -6,-7 -14,-10 -24,-10 -11,0 -21,3 -29,11 -9,7 -16,18 -20,33zm194 86l6 -28 28 0 -5 24c-3,15 -8,26 -15,33 -6,7 -14,11 -23,12l2 -11c11,-3 18,-13 22,-30l-15 0zm44 0l6 -28 29 0 -5 24c-4,15 -8,26 -15,33 -6,7 -14,11 -23,12l2 -11c11,-3 18,-13 22,-30l-16 0zm115 0l32 -152c-14,10 -33,19 -58,26l4 -23c13,-5 25,-11 37,-19 12,-8 21,-15 27,-21 4,-4 7,-8 11,-14l14 0 -42 203 -25 0zm197 -165l-6 29 -29 0 6 -25c3,-15 8,-26 14,-33 7,-6 14,-10 23,-11l-2 11c-11,2 -18,12 -22,29l16 0zm-44 0l-6 29 -29 0 6 -25c3,-15 8,-26 14,-33 7,-6 14,-10 23,-11l-2 11c-11,2 -18,12 -22,29l16 0z"/>
   <polygon class="fil1 str2" points="10,1010 4490,1010 4490,2390 10,2390 "/>
   <path class="fil0" d="M5678 1810l0 -227 100 0c21,0 36,2 47,6 10,4 19,11 25,21 6,11 9,22 9,35 0,16 -5,29 -15,41 -11,11 -27,18 -49,21 8,3 14,7 18,11 9,8 18,18 25,30l40 62 -38 0 -30 -47c-9,-14 -16,-24 -22,-32 -5,-7 -10,-12 -15,-15 -4,-3 -9,-5 -14,-6 -3,0 -9,-1 -16,-1l-35 0 0 101 -30 0zm30 -127l64 0c14,0 25,-1 33,-4 7,-3 13,-8 17,-14 4,-6 6,-13 6,-20 0,-11 -4,-20 -11,-27 -8,-7 -21,-10 -37,-10l-72 0 0 75zm199 127l0 -227 164 0 0 26 -134 0 0 70 126 0 0 27 -126 0 0 77 139 0 0 27 -169 0zm186 0l87 -227 33 0 93 227 -34 0 -27 -69 -95 0 -25 69 -32 0zm66 -93l77 0 -24 -63c-7,-19 -12,-35 -16,-48 -3,15 -7,30 -13,44l-24 67zm171 93l0 -227 78 0c18,0 31,1 41,3 13,3 24,8 33,16 12,10 21,23 27,39 6,16 9,34 9,54 0,17 -2,33 -6,46 -4,13 -9,24 -16,33 -6,9 -13,16 -20,21 -8,5 -17,9 -28,11 -10,3 -22,4 -36,4l-82 0zm30 -27l48 0c15,0 27,-1 36,-4 8,-3 15,-6 20,-12 7,-7 13,-16 17,-28 4,-12 6,-27 6,-44 0,-24 -4,-42 -12,-55 -8,-13 -17,-22 -28,-26 -8,-3 -21,-5 -39,-5l-48 0 0 174zm199 27l0 -227 45 0 53 161c5,15 9,26 11,33 3,-8 7,-20 12,-36l55 -158 40 0 0 227 -29 0 0 -190 -66 190 -27 0 -66 -194 0 194 -28 0zm265 0l0 -227 164 0 0 26 -134 0 0 70 126 0 0 27 -126 0 0 77 140 0 0 27 -170 0zm216 0l0 -32 32 0 0 32 -32 0zm141 -25l4 25c-8,1 -15,2 -21,2 -11,0 -18,-1 -24,-4 -6,-4 -9,-8 -12,-13 -2,-5 -3,-16 -3,-33l0 -95 -21 0 0 -22 21 0 0 -40 28 -17 0 57 28 0 0 22 -28 0 0 96c0,8 0,14 1,16 1,2 3,4 5,5 2,2 5,2 10,2 3,0 7,0 12,-1zm8 25l60 -85 -55 -80 34 0 26 39c5,8 9,13 11,18 5,-7 9,-13 13,-18l27 -39 35 0 -56 80 59 85 -34 0 -34 -51 -8 -12 -44 63 -34 0zm239 -25l4 25c-8,1 -15,2 -21,2 -11,0 -18,-1 -24,-4 -6,-4 -10,-8 -12,-13 -2,-5 -3,-16 -3,-33l0 -95 -21 0 0 -22 21 0 0 -40 28 -17 0 57 28 0 0 22 -28 0 0 96c0,8 0,14 1,16 1,2 3,4 5,5 2,2 5,2 10,2 3,0 7,0 12,-1zm169 92c-16,-20 -29,-42 -39,-68 -11,-26 -16,-53 -16,-81 0,-25 4,-48 12,-71 9,-26 23,-52 43,-78l20 0c-13,21 -21,37 -25,46 -6,14 -11,29 -15,45 -4,19 -7,38 -7,58 0,50 16,99 47,149l-20 0zm1184 0l-20 0c31,-50 46,-99 46,-149 0,-20 -2,-39 -6,-58 -4,-15 -9,-30 -15,-45 -4,-9 -12,-24 -25,-46l20 0c19,26 34,52 43,78 8,23 12,46 12,71 0,28 -5,55 -16,81 -11,26 -24,48 -39,68zm-1106 -67l-24 -146 24 0 12 80c2,9 3,23 6,43 4,-10 10,-22 18,-35l49 -88 26 0 -84 146 -27 0zm212 -50l24 3c-4,12 -12,23 -24,34 -13,11 -28,16 -45,16 -11,0 -21,-2 -30,-7 -9,-5 -16,-13 -21,-22 -5,-10 -7,-21 -7,-33 0,-16 4,-31 11,-46 8,-15 17,-26 29,-34 12,-7 24,-10 38,-10 18,0 32,5 42,16 11,11 16,25 16,44 0,7 -1,14 -2,22l-108 0c-1,3 -1,5 -1,8 0,13 3,24 10,31 6,7 14,11 23,11 8,0 17,-3 25,-8 8,-6 15,-14 20,-25zm-73 -36l82 0c0,-3 0,-5 0,-6 0,-12 -3,-22 -9,-28 -6,-7 -14,-10 -24,-10 -11,0 -21,3 -30,11 -8,7 -15,18 -19,33zm122 86l30 -146 23 0 -7 30c8,-12 15,-20 23,-25 7,-6 14,-8 22,-8 5,0 11,1 18,5l-10 23c-4,-3 -9,-5 -14,-5 -9,0 -18,5 -27,15 -10,10 -17,27 -22,52l-12 59 -24 0zm90 0l4 -19 79 -89c5,-6 12,-12 18,-19 -11,1 -20,2 -25,2l-55 0 5 -21 113 0 -3 15 -80 90c-4,5 -11,12 -20,20 14,0 24,-1 29,-1l57 0 -4 22 -118 0zm253 -50l24 3c-4,12 -12,23 -24,34 -13,11 -28,16 -45,16 -11,0 -21,-2 -30,-7 -9,-5 -16,-13 -21,-22 -5,-10 -7,-21 -7,-33 0,-16 4,-31 11,-46 8,-15 17,-26 29,-34 12,-7 25,-10 38,-10 18,0 32,5 42,16 11,11 16,25 16,44 0,7 -1,14 -2,22l-108 0c-1,3 -1,5 -1,8 0,13 3,24 10,31 6,7 14,11 23,11 8,0 17,-3 25,-8 9,-6 15,-14 20,-25zm-73 -36l82 0c0,-3 0,-5 0,-6 0,-12 -3,-22 -9,-28 -6,-7 -14,-10 -24,-10 -11,0 -21,3 -29,11 -9,7 -16,18 -20,33zm194 86l6 -28 28 0 -5 24c-3,15 -8,26 -15,33 -6,7 -14,11 -23,12l2 -11c11,-3 18,-13 22,-30l-15 0zm44 0l6 -28 29 0 -5 24c-4,15 -8,26 -15,33 -6,7 -14,11 -23,12l2 -11c11,-3 18,-13 22,-30l-16 0zm115 0l32 -152c-14,10 -33,19 -58,26l4 -23c13,-5 25,-11 37,-19 12,-8 21,-15 27,-21 4,-4 7,-8 11,-14l14 0 -42 203 -25 0zm197 -165l-6 29 -29 0 6 -25c3,-15 8,-26 14,-33 7,-6 14,-10 23,-11l-2 11c-11,2 -18,12 -22,29l16 0zm-44 0l-6 29 -29 0 6 -25c3,-15 8,-26 14,-33 7,-6 14,-10 23,-11l-2 11c-11,2 -18,12 -22,29l16 0z"/>
   <polygon class="fil1 str2" points="5010,1010 9490,1010 9490,2390 5010,2390 "/>
   <path class="fil0" d="M10678 1810l0 -227 100 0c21,0 36,2 47,6 10,4 19,11 25,21 6,11 9,22 9,35 0,16 -5,29 -15,41 -11,11 -27,18 -49,21 8,3 14,7 18,11 9,8 18,18 25,30l40 62 -38 0 -30 -47c-9,-14 -16,-24 -22,-32 -5,-7 -10,-12 -15,-15 -4,-3 -9,-5 -14,-6 -3,0 -9,-1 -16,-1l-35 0 0 101 -30 0zm30 -127l64 0c14,0 25,-1 33,-4 7,-3 13,-8 17,-14 4,-6 6,-13 6,-20 0,-11 -4,-20 -11,-27 -8,-7 -21,-10 -37,-10l-72 0 0 75zm199 127l0 -227 164 0 0 26 -134 0 0 70 126 0 0 27 -126 0 0 77 139 0 0 27 -169 0zm186 0l87 -227 33 0 93 227 -34 0 -27 -69 -95 0 -25 69 -32 0zm66 -93l77 0 -24 -63c-7,-19 -12,-35 -16,-48 -3,15 -7,30 -13,44l-24 67zm171 93l0 -227 78 0c18,0 31,1 41,3 13,3 24,8 33,16 12,10 21,23 27,39 6,16 9,34 9,54 0,17 -2,33 -6,46 -4,13 -9,24 -16,33 -6,9 -13,16 -20,21 -8,5 -17,9 -28,11 -10,3 -22,4 -36,4l-82 0zm30 -27l48 0c15,0 27,-1 36,-4 8,-3 15,-6 20,-12 7,-7 13,-16 17,-28 4,-12 6,-27 6,-44 0,-24 -4,-42 -12,-55 -8,-13 -17,-22 -28,-26 -8,-3 -21,-5 -39,-5l-48 0 0 174zm199 27l0 -227 45 0 53 161c5,15 9,26 11,33 3,-8 7,-20 12,-36l55 -158 40 0 0 227 -29 0 0 -190 -66 190 -27 0 -66 -194 0 194 -28 0zm265 0l0 -227 164 0 0 26 -134 0 0 70 126 0 0 27 -126 0 0 77 140 0 0 27 -170 0zm216 0l0 -32 32 0 0 32 -32 0zm141 -25l4 25c-8,1 -15,2 -21,2 -11,0 -18,-1 -24,-4 -6,-4 -9,-8 -12,-13 -2,-5 -3,-16 -3,-33l0 -95 -21 0 0 -22 21 0 0 -40 28 -17 0 57 28 0 0 22 -28 0 0 96c0,8 0,14 1,16 1,2 3,4 5,5 2,2 5,2 10,2 3,0 7,0 12,-1zm8 25l60 -85 -55 -80 34 0 26 39c5,8 9,13 11,18 5,-7 9,-13 13,-18l27 -39 35 0 -56 80 59 85 -34 0 -34 -51 -8 -12 -44 63 -34 0zm239 -25l4 25c-8,1 -15,2 -21,2 -11,0 -18,-1 -24,-4 -6,-4 -10,-8 -12,-13 -2,-5 -3,-16 -3,-33l0 -95 -21 0 0 -22 21 0 0 -40 28 -17 0 57 28 0 0 22 -28 0 0 96c0,8 0,14 1,16 1,2 3,4 5,5 2,2 5,2 10,2 3,0 7,0 12,-1zm169 92c-16,-20 -29,-42 -39,-68 -11,-26 -16,-53 -16,-81 0,-25 4,-48 12,-71 9,-26 23,-52 43,-78l20 0c-13,21 -21,37 -25,46 -6,14 -11,29 -15,45 -4,19 -7,38 -7,58 0,50 16,99 47,149l-20 0zm1184 0l-20 0c31,-50 46,-99 46,-149 0,-20 -2,-39 -6,-58 -4,-15 -9,-30 -15,-45 -4,-9 -12,-24 -25,-46l20 0c19,26 34,52 43,78 8,23 12,46 12,71 0,28 -5,55 -16,81 -11,26 -24,48 -39,68zm-1106 -67l-24 -146 24 0 12 80c2,9 3,23 6,43 4,-10 10,-22 18,-35l49 -88 26 0 -84 146 -27 0zm212 -50l24 3c-4,12 -12,23 -24,34 -13,11 -28,16 -45,16 -11,0 -21,-2 -30,-7 -9,-5 -16,-13 -21,-22 -5,-10 -7,-21 -7,-33 0,-16 4,-31 11,-46 8,-15 17,-26 29,-34 12,-7 24,-10 38,-10 18,0 32,5 42,16 11,11 16,25 16,44 0,7 -1,14 -2,22l-108 0c-1,3 -1,5 -1,8 0,13 3,24 10,31 6,7 14,11 23,11 8,0 17,-3 25,-8 8,-6 15,-14 20,-25zm-73 -36l82 0c0,-3 0,-5 0,-6 0,-12 -3,-22 -9,-28 -6,-7 -14,-10 -24,-10 -11,0 -21,3 -30,11 -8,7 -15,18 -19,33zm122 86l30 -146 23 0 -7 30c8,-12 15,-20 23,-25 7,-6 14,-8 22,-8 5,0 11,1 18,5l-10 23c-4,-3 -9,-5 -14,-5 -9,0 -18,5 -27,15 -10,10 -17,27 -22,52l-12 59 -24 0zm90 0l4 -19 79 -89c5,-6 12,-12 18,-19 -11,1 -20,2 -25,2l-55 0 5 -21 113 0 -3 15 -80 90c-4,5 -11,12 -20,20 14,0 24,-1 29,-1l57 0 -4 22 -118 0zm253 -50l24 3c-4,12 -12,23 -24,34 -13,11 -28,16 -45,16 -11,0 -21,-2 -30,-7 -9,-5 -16,-13 -21,-22 -5,-10 -7,-21 -7,-33 0,-16 4,-31 11,-46 8,-15 17,-26 29,-34 12,-7 25,-10 38,-10 18,0 32,5 42,16 11,11 16,25 16,44 0,7 -1,14 -2,22l-108 0c-1,3 -1,5 -1,8 0,13 3,24 10,31 6,7 14,11 23,11 8,0 17,-3 25,-8 9,-6 15,-14 20,-25zm-73 -36l82 0c0,-3 0,-5 0,-6 0,-12 -3,-22 -9,-28 -6,-7 -14,-10 -24,-10 -11,0 -21,3 -29,11 -9,7 -16,18 -20,33zm194 86l6 -28 28 0 -5 24c-3,15 -8,26 -15,33 -6,7 -14,11 -23,12l2 -11c11,-3 18,-13 22,-30l-15 0zm44 0l6 -28 29 0 -5 24c-4,15 -8,26 -15,33 -6,7 -14,11 -23,12l2 -11c11,-3 18,-13 22,-30l-16 0zm115 0l32 -152c-14,10 -33,19 -58,26l4 -23c13,-5 25,-11 37,-19 12,-8 21,-15 27,-21 4,-4 7,-8 11,-14l14 0 -42 203 -25 0zm197 -165l-6 29 -29 0 6 -25c3,-15 8,-26 14,-33 7,-6 14,-10 23,-11l-2 11c-11,2 -18,12 -22,29l16 0zm-44 0l-6 29 -29 0 6 -25c3,-15 8,-26 14,-33 7,-6 14,-10 23,-11l-2 11c-11,2 -18,12 -22,29l16 0z"/>
   <polygon class="fil1 str2" points="10010,1010 14490,1010 14490,2390 10010,2390 "/>
  </g>
  <polygon class="fil2 str2" points="578,2200 13922,2200 13922,3619 578,3619 "/>
  <g id="_853903073808">
   <path class="fil0" d="M1225 2498l42 -202 85 0c16,0 29,1 38,4 8,3 15,8 20,16 5,8 7,17 7,29 0,17 -5,30 -16,41 -11,11 -28,18 -52,21 7,6 13,11 17,16 8,12 15,24 20,37l16 38 -31 0 -14 -38c-6,-13 -11,-25 -18,-35 -5,-7 -9,-11 -14,-13 -5,-3 -13,-4 -23,-4l-32 0 -19 90 -26 0zm50 -112l37 0c17,0 29,0 34,0 10,-1 19,-4 25,-7 7,-4 12,-9 15,-15 4,-6 6,-12 6,-19 0,-6 -2,-11 -4,-16 -3,-4 -7,-7 -11,-8 -4,-2 -12,-3 -22,-3l-66 0 -14 68zm152 112l42 -202 147 0 -5 23 -120 0 -13 63 117 0 -4 23 -118 0 -14 70 127 0 -4 23 -155 0zm170 0l115 -202 32 0 33 202 -26 0 -10 -58 -82 0 -32 58 -30 0zm74 -79l67 0 -8 -51c-3,-20 -5,-37 -6,-50 -4,12 -11,25 -20,41l-33 60zm133 79l42 -202 61 0c15,0 26,1 33,3 11,3 21,8 29,15 8,8 13,17 17,28 4,11 6,23 6,37 0,16 -2,31 -7,44 -5,13 -11,25 -19,35 -8,10 -17,18 -25,24 -9,6 -19,10 -31,13 -9,2 -20,3 -33,3l-73 0zm31 -23l32 0c15,0 28,-1 39,-4 7,-1 13,-4 18,-7 7,-4 12,-10 18,-16 7,-10 12,-20 17,-31 4,-12 6,-25 6,-40 0,-16 -3,-29 -9,-37 -5,-9 -13,-15 -22,-18 -6,-2 -16,-3 -30,-3l-36 0 -33 156zm174 23l43 -202 33 0 19 131c2,17 4,34 5,49 5,-13 15,-31 28,-55l71 -125 33 0 -42 202 -27 0 22 -98c4,-23 11,-48 20,-77 -6,13 -13,28 -21,43l-75 132 -26 0 -19 -130c-2,-12 -3,-25 -4,-41 -2,18 -4,32 -6,43l-27 128 -27 0zm233 0l43 -202 146 0 -4 23 -120 0 -14 63 118 0 -5 23 -117 0 -15 70 128 0 -5 23 -155 0zm193 0l6 -28 28 0 -6 28 -28 0zm130 -20l-5 20c-6,2 -11,3 -17,3 -10,0 -18,-3 -24,-8 -4,-3 -6,-8 -6,-15 0,-3 1,-10 3,-22l18 -85 -20 0 4 -19 20 0 8 -36 28 -17 -11 53 24 0 -4 19 -24 0 -17 81c-2,10 -3,16 -3,18 0,3 1,6 2,7 2,2 5,2 9,2 5,0 10,0 15,-1zm10 20l64 -74 -37 -72 28 0 12 26c5,9 9,18 13,27l42 -53 30 0 -61 74 37 72 -28 0 -14 -30c-4,-6 -7,-14 -11,-23l-44 53 -31 0zm209 -20l-4 20c-6,2 -12,3 -17,3 -10,0 -18,-3 -24,-8 -4,-3 -7,-8 -7,-15 0,-3 1,-10 4,-22l18 -85 -20 0 4 -19 20 0 7 -36 29 -17 -12 53 25 0 -4 19 -25 0 -16 81c-3,10 -4,16 -4,18 0,3 1,6 3,7 2,2 4,2 8,2 6,0 11,0 15,-1zm102 -41l6 -24 75 0 -5 24 -76 0zm171 11l26 -2c0,8 1,14 3,19 2,5 6,9 12,12 6,3 13,5 21,5 11,0 19,-2 24,-7 6,-4 8,-9 8,-15 0,-5 -1,-9 -4,-12 -4,-4 -12,-9 -25,-15 -13,-5 -22,-9 -25,-12 -6,-3 -11,-8 -14,-13 -3,-5 -5,-11 -5,-17 0,-12 5,-22 14,-30 9,-8 22,-13 38,-13 19,0 33,5 42,13 10,9 15,20 15,34l-24 1c-1,-8 -4,-15 -10,-21 -5,-5 -14,-7 -24,-7 -9,0 -16,2 -20,6 -5,4 -8,8 -8,12 0,5 3,9 7,13 2,2 9,6 21,11 19,8 31,14 36,19 8,8 12,17 12,28 0,7 -3,14 -7,21 -5,7 -11,13 -20,17 -10,4 -20,6 -33,6 -17,0 -31,-4 -43,-12 -11,-9 -17,-22 -17,-41zm144 -6c0,-28 8,-52 25,-70 14,-16 32,-24 54,-24 18,0 32,6 43,17 11,11 16,26 16,45 0,16 -3,32 -10,46 -7,15 -17,26 -29,34 -13,7 -26,11 -40,11 -11,0 -21,-2 -31,-7 -9,-5 -16,-12 -21,-21 -5,-9 -7,-19 -7,-31zm24 -2c0,14 4,24 10,31 7,7 15,11 26,11 5,0 10,-1 16,-3 5,-2 10,-6 14,-10 5,-5 9,-10 12,-15 3,-6 6,-12 8,-18 2,-10 4,-18 4,-27 0,-13 -3,-23 -10,-30 -7,-8 -15,-11 -25,-11 -8,0 -15,2 -22,5 -6,4 -12,9 -17,17 -6,7 -10,15 -12,25 -2,9 -4,18 -4,25zm228 32c-18,19 -36,29 -54,29 -11,0 -20,-3 -27,-9 -7,-7 -11,-15 -11,-24 0,-6 2,-17 5,-32l20 -84 25 0 -22 94c-1,8 -2,14 -2,19 0,5 1,9 5,12 3,2 8,4 15,4 7,0 14,-2 21,-5 6,-4 12,-8 17,-14 5,-6 9,-12 12,-20 2,-5 5,-14 7,-27l14 -63 25 0 -32 146 -23 0 5 -26zm57 26l43 -202 24 0 -15 72c8,-7 15,-12 21,-15 6,-3 13,-5 20,-5 13,0 24,6 33,16 9,10 13,25 13,44 0,13 -2,25 -5,36 -4,10 -8,19 -14,27 -5,7 -10,13 -16,17 -6,5 -11,8 -17,10 -6,2 -12,3 -17,3 -10,0 -18,-2 -25,-7 -7,-5 -13,-13 -17,-23l-6 27 -22 0zm37 -60l0 5c0,12 3,22 9,28 5,7 13,10 21,10 9,0 16,-3 24,-9 7,-6 12,-16 17,-29 5,-13 7,-25 7,-36 0,-12 -3,-21 -9,-28 -6,-7 -13,-10 -21,-10 -9,0 -17,3 -24,10 -7,7 -14,18 -18,32 -4,11 -6,20 -6,27zm124 4c0,-28 9,-52 26,-70 14,-16 32,-24 54,-24 18,0 32,6 43,17 11,11 16,26 16,45 0,16 -3,32 -10,46 -7,15 -17,26 -29,34 -13,7 -26,11 -40,11 -11,0 -22,-2 -31,-7 -9,-5 -16,-12 -21,-21 -5,-9 -8,-19 -8,-31zm25 -2c0,14 4,24 10,31 7,7 15,11 26,11 5,0 10,-1 15,-3 6,-2 11,-6 15,-10 5,-5 9,-10 12,-15 3,-6 6,-12 7,-18 3,-10 5,-18 5,-27 0,-13 -4,-23 -10,-30 -7,-8 -15,-11 -26,-11 -7,0 -15,2 -21,5 -7,4 -12,9 -18,17 -5,7 -9,15 -11,25 -3,9 -4,18 -4,25zm128 58l31 -146 22 0 -6 30c7,-12 15,-20 22,-25 7,-6 14,-9 22,-9 5,0 11,2 18,6l-10 23c-4,-3 -9,-5 -14,-5 -9,0 -18,5 -27,15 -9,10 -17,27 -22,52l-12 59 -24 0zm209 0l-24 -146 25 0 12 80c1,9 3,23 5,43 5,-10 11,-22 19,-35l48 -88 27 0 -84 146 -28 0zm171 56l43 -202 23 0 -5 20c9,-9 17,-15 23,-18 7,-4 14,-6 22,-6 14,0 25,6 35,16 9,10 13,24 13,43 0,15 -2,29 -7,42 -5,12 -12,22 -19,30 -7,8 -15,13 -22,17 -8,3 -16,5 -24,5 -17,0 -31,-9 -40,-27l-17 80 -25 0zm49 -116c0,11 1,19 3,23 2,6 6,11 11,14 5,4 11,6 18,6 15,0 26,-8 35,-24 9,-16 13,-33 13,-50 0,-12 -2,-22 -8,-28 -6,-7 -14,-10 -23,-10 -6,0 -12,1 -17,5 -6,3 -11,8 -16,15 -4,6 -8,14 -11,24 -3,10 -5,18 -5,25zm120 60l31 -146 22 0 -7 30c8,-12 15,-20 23,-25 7,-6 14,-9 22,-9 5,0 11,2 18,6l-10 23c-4,-3 -9,-5 -14,-5 -9,0 -18,5 -27,15 -9,10 -17,27 -22,52l-12 59 -24 0zm192 -18c-8,7 -16,13 -24,16 -8,3 -17,5 -26,5 -14,0 -24,-4 -33,-12 -8,-8 -12,-18 -12,-30 0,-8 2,-16 5,-22 4,-6 9,-11 15,-15 6,-4 14,-6 23,-8 5,-1 16,-2 32,-3 16,0 27,-2 34,-5 2,-7 3,-12 3,-17 0,-5 -3,-10 -7,-13 -6,-5 -14,-7 -25,-7 -11,0 -19,2 -26,7 -7,4 -12,11 -15,20l-25 -3c5,-14 13,-25 25,-33 11,-8 25,-12 42,-12 18,0 32,5 43,13 8,7 12,15 12,25 0,8 -1,17 -4,28l-8 36c-2,12 -3,21 -3,28 0,5 1,11 3,20l-26 0c-1,-5 -2,-11 -3,-18zm10 -56c-4,1 -7,2 -11,3 -4,1 -11,2 -21,2 -14,2 -24,3 -30,5 -6,2 -11,5 -14,10 -3,4 -4,9 -4,14 0,7 2,13 7,17 5,5 12,7 21,7 8,0 16,-2 23,-7 8,-4 14,-10 18,-18 5,-8 8,-19 11,-33zm150 21l25 2c-6,19 -15,32 -27,41 -11,9 -25,13 -39,13 -16,0 -29,-5 -39,-15 -10,-11 -15,-25 -15,-43 0,-16 3,-32 10,-47 6,-16 15,-27 27,-35 12,-9 25,-13 40,-13 16,0 29,5 38,14 9,9 14,20 14,35l-25 2c0,-10 -3,-17 -8,-22 -5,-5 -12,-8 -21,-8 -10,0 -19,3 -26,10 -7,6 -13,15 -17,28 -5,13 -7,26 -7,38 0,12 3,21 9,28 5,6 12,9 20,9 8,0 16,-3 23,-9 8,-6 13,-16 18,-28zm44 -3c0,-28 9,-52 26,-70 13,-16 32,-24 54,-24 18,0 32,6 43,17 10,11 16,26 16,45 0,16 -4,32 -10,46 -7,15 -17,26 -29,34 -13,7 -26,11 -40,11 -11,0 -22,-2 -31,-7 -9,-5 -16,-12 -21,-21 -5,-9 -8,-19 -8,-31zm25 -2c0,14 3,24 10,31 7,7 15,11 25,11 6,0 11,-1 16,-3 6,-2 11,-6 15,-10 5,-5 8,-10 12,-15 3,-6 5,-12 7,-18 3,-10 5,-18 5,-27 0,-13 -4,-23 -10,-30 -7,-8 -16,-11 -26,-11 -8,0 -15,2 -21,5 -7,4 -12,9 -18,17 -5,7 -9,15 -11,25 -3,9 -4,18 -4,25zm165 58l-24 -146 24 0 13 80c1,9 3,23 5,43 4,-10 11,-22 18,-35l49 -88 26 0 -83 146 -28 0zm104 0l31 -146 22 0 -5 25c10,-10 19,-17 28,-22 9,-4 17,-7 26,-7 12,0 22,4 29,10 6,7 10,15 10,26 0,5 -1,14 -4,26l-20 88 -25 0 21 -93c2,-9 3,-15 3,-20 0,-4 -2,-8 -5,-11 -4,-3 -8,-5 -15,-5 -13,0 -25,5 -35,14 -10,9 -17,25 -22,47l-14 68 -25 0zm166 0l30 -146 25 0 -31 146 -24 0zm23 -164l26 -38 32 0 -37 38 -21 0zm46 164l31 -146 25 0 -5 24c9,-11 17,-18 24,-22 8,-4 16,-6 24,-6 9,0 17,3 23,8 6,5 10,11 12,20 8,-9 16,-16 24,-21 8,-4 17,-7 26,-7 12,0 21,3 27,9 6,6 9,14 9,24 0,5 -1,12 -3,23l-20 94 -25 0 21 -97c1,-7 2,-13 2,-16 0,-5 -1,-9 -4,-12 -3,-3 -8,-4 -13,-4 -8,0 -15,2 -23,7 -8,4 -14,10 -18,17 -4,8 -8,19 -11,34l-15 71 -25 0 21 -99c1,-6 2,-11 2,-14 0,-5 -2,-9 -5,-11 -3,-3 -6,-5 -11,-5 -7,0 -15,2 -22,7 -8,4 -15,11 -20,19 -4,8 -8,19 -11,34l-15 69 -25 0zm413 -18c-9,7 -17,13 -25,16 -8,3 -17,5 -26,5 -14,0 -24,-4 -33,-12 -8,-8 -12,-18 -12,-30 0,-8 2,-16 5,-22 4,-6 9,-11 15,-15 6,-4 14,-6 23,-8 5,-1 16,-2 32,-3 16,0 27,-2 34,-5 2,-7 3,-12 3,-17 0,-5 -3,-10 -7,-13 -6,-5 -14,-7 -25,-7 -11,0 -19,2 -26,7 -7,4 -12,11 -15,20l-25 -3c5,-14 13,-25 25,-33 11,-8 25,-12 42,-12 18,0 32,5 43,13 8,7 12,15 12,25 0,8 -1,17 -4,28l-8 36c-2,12 -3,21 -3,28 0,5 1,11 3,20l-26 0c-1,-5 -2,-11 -2,-18zm9 -56c-4,1 -7,2 -11,3 -4,1 -11,2 -21,2 -14,2 -24,3 -30,5 -6,2 -11,5 -14,10 -3,4 -4,9 -4,14 0,7 2,13 7,17 5,5 12,7 21,7 8,0 16,-2 23,-7 8,-4 14,-10 18,-18 5,-8 8,-19 11,-33zm147 53c-14,16 -29,24 -44,24 -14,0 -26,-5 -35,-15 -9,-10 -14,-25 -14,-45 0,-17 4,-34 11,-48 8,-15 17,-26 28,-34 11,-7 22,-11 33,-11 18,0 32,9 41,27l16 -79 25 0 -42 202 -23 0 4 -21zm-68 -40c0,10 1,18 3,24 2,6 6,10 11,14 4,4 10,6 17,6 11,0 22,-6 31,-17 12,-16 18,-35 18,-58 0,-12 -3,-21 -9,-27 -6,-7 -13,-10 -23,-10 -6,0 -11,1 -16,4 -5,3 -10,7 -15,14 -4,6 -9,14 -12,24 -3,10 -5,18 -5,26zm127 61l30 -146 23 0 -7 30c8,-12 15,-20 23,-25 7,-6 14,-9 22,-9 5,0 11,2 18,6l-10 23c-4,-3 -9,-5 -14,-5 -9,0 -18,5 -27,15 -10,10 -17,27 -22,52l-12 59 -24 0zm202 -50l24 3c-4,12 -12,23 -24,34 -13,11 -28,16 -45,16 -11,0 -21,-2 -30,-7 -9,-5 -16,-13 -21,-22 -5,-10 -7,-21 -7,-33 0,-16 4,-31 11,-46 8,-15 17,-26 29,-34 12,-7 24,-11 38,-11 18,0 32,6 42,17 11,10 16,25 16,44 0,7 -1,14 -2,22l-108 0c-1,3 -1,5 -1,8 0,13 3,24 10,31 6,7 14,11 23,11 8,0 17,-3 25,-9 8,-5 15,-13 20,-24zm-73 -36l82 0c0,-3 0,-5 0,-6 0,-12 -3,-22 -9,-28 -6,-7 -14,-10 -24,-10 -11,0 -21,3 -30,11 -8,7 -15,18 -19,33zm124 36l25 -2c0,8 1,14 4,19 2,5 6,9 12,12 6,3 12,5 20,5 11,0 19,-2 25,-7 5,-4 8,-9 8,-15 0,-5 -2,-9 -5,-12 -3,-4 -11,-9 -24,-15 -14,-5 -22,-9 -26,-12 -6,-3 -10,-8 -14,-13 -3,-5 -4,-11 -4,-17 0,-12 4,-22 13,-30 10,-8 22,-13 39,-13 18,0 32,5 42,13 9,9 14,20 15,34l-25 1c0,-8 -3,-15 -9,-21 -6,-5 -14,-7 -25,-7 -8,0 -15,2 -20,6 -4,4 -7,8 -7,12 0,5 2,9 6,13 3,2 10,6 21,11 19,8 31,14 36,19 8,8 12,17 12,28 0,7 -2,14 -6,21 -5,7 -12,13 -21,17 -9,4 -20,6 -32,6 -17,0 -31,-4 -43,-12 -12,-9 -17,-22 -17,-41zm237 32c-8,7 -17,13 -24,16 -8,3 -17,5 -26,5 -14,0 -25,-4 -33,-12 -8,-8 -12,-18 -12,-30 0,-8 2,-16 5,-22 4,-6 9,-11 15,-15 6,-4 14,-6 23,-8 5,-1 16,-2 32,-3 16,0 27,-2 34,-5 2,-7 3,-12 3,-17 0,-5 -3,-10 -7,-13 -6,-5 -14,-7 -25,-7 -11,0 -19,2 -26,7 -7,4 -12,11 -15,20l-25 -3c5,-14 13,-25 25,-33 11,-8 25,-12 42,-12 18,0 32,5 43,13 8,7 12,15 12,25 0,8 -1,17 -4,28l-8 36c-2,12 -3,21 -3,28 0,5 1,11 3,20l-26 0c-1,-5 -2,-11 -3,-18zm10 -56c-4,1 -7,2 -11,3 -4,1 -11,2 -21,2 -14,2 -24,3 -30,5 -6,2 -11,5 -14,10 -3,4 -4,9 -4,14 0,7 2,13 7,17 5,5 12,7 20,7 9,0 17,-2 24,-7 8,-4 14,-10 18,-18 5,-8 8,-19 11,-33zm-39 -90l26 -38 32 0 -37 38 -21 0zm88 164l30 -146 23 0 -7 30c8,-12 15,-20 23,-25 7,-6 14,-9 22,-9 5,0 11,2 18,6l-10 23c-4,-3 -9,-5 -14,-5 -9,0 -18,5 -27,15 -10,10 -17,27 -22,52l-12 59 -24 0zm118 -202l-36 38 -28 0 -17 -38 22 0 10 24 24 -24 25 0zm12 28l6 -28 24 0 -5 28 -25 0zm-37 174l31 -146 25 0 -31 146 -25 0zm178 -174l6 -28 25 0 -6 28 -25 0zm-79 229l5 -21c6,1 11,2 15,2 5,0 10,-2 13,-5 3,-4 6,-13 10,-30l31 -147 24 0 -31 152c-4,19 -9,32 -14,39 -7,9 -17,14 -29,14 -6,0 -14,-1 -24,-4zm213 -105l25 3c-4,12 -12,23 -25,34 -12,11 -27,16 -44,16 -11,0 -21,-2 -30,-7 -9,-5 -16,-13 -21,-22 -5,-10 -7,-21 -7,-33 0,-16 4,-31 11,-46 7,-15 17,-26 29,-34 12,-7 24,-11 38,-11 17,0 31,6 42,17 10,10 16,25 16,44 0,7 -1,14 -2,22l-109 0c0,3 0,5 0,8 0,13 3,24 9,31 7,7 14,11 24,11 8,0 17,-3 25,-9 8,-5 15,-13 19,-24zm-73 -36l83 0c0,-3 0,-5 0,-6 0,-12 -3,-22 -9,-28 -7,-7 -15,-10 -24,-10 -11,0 -21,3 -30,11 -9,7 -15,18 -20,33zm238 86l-24 -146 24 0 13 80c1,9 3,23 5,43 5,-10 11,-22 18,-35l49 -88 26 0 -83 146 -28 0z"/>
   <path class="fil0" d="M7257 2448l24 3c-3,12 -11,23 -24,34 -13,11 -28,16 -45,16 -11,0 -21,-2 -30,-7 -9,-5 -16,-13 -21,-22 -4,-10 -7,-21 -7,-33 0,-16 4,-31 11,-46 8,-15 17,-26 29,-34 12,-7 25,-11 38,-11 18,0 32,6 42,17 11,10 16,25 16,44 0,7 -1,14 -2,22l-108 0c0,3 -1,5 -1,8 0,13 4,24 10,31 6,7 14,11 23,11 9,0 17,-3 25,-9 9,-5 15,-13 20,-24zm-73 -36l82 0c1,-3 1,-5 1,-6 0,-12 -4,-22 -10,-28 -6,-7 -14,-10 -24,-10 -11,0 -20,3 -29,11 -9,7 -16,18 -20,33zm203 36l25 -2c0,8 1,14 3,19 2,5 6,9 12,12 6,3 13,5 21,5 11,0 19,-2 25,-7 5,-4 8,-9 8,-15 0,-5 -2,-9 -5,-12 -3,-4 -12,-9 -25,-15 -13,-5 -21,-9 -25,-12 -6,-3 -11,-8 -14,-13 -3,-5 -5,-11 -5,-17 0,-12 5,-22 14,-30 9,-8 22,-13 39,-13 18,0 32,5 41,13 10,9 15,20 15,34l-24 1c0,-8 -3,-15 -9,-21 -6,-5 -14,-7 -25,-7 -9,0 -15,2 -20,6 -5,4 -7,8 -7,12 0,5 2,9 6,13 3,2 10,6 21,11 19,8 31,14 36,19 8,8 12,17 12,28 0,7 -2,14 -7,21 -4,7 -11,13 -20,17 -9,4 -20,6 -32,6 -17,0 -31,-4 -43,-12 -12,-9 -18,-22 -17,-41zm197 30l-4 20c-6,2 -12,3 -18,3 -10,0 -18,-3 -23,-8 -5,-3 -7,-8 -7,-15 0,-3 1,-10 4,-22l17 -85 -19 0 4 -19 19 0 8 -36 28 -17 -11 53 25 0 -5 19 -24 0 -17 81c-2,10 -3,16 -3,18 0,3 1,6 3,7 1,2 4,2 8,2 5,0 10,0 15,-1zm128 -30l24 3c-4,12 -12,23 -24,34 -13,11 -28,16 -45,16 -11,0 -21,-2 -30,-7 -9,-5 -16,-13 -21,-22 -4,-10 -7,-21 -7,-33 0,-16 4,-31 11,-46 8,-15 17,-26 29,-34 12,-7 25,-11 38,-11 18,0 32,6 42,17 11,10 16,25 16,44 0,7 -1,14 -2,22l-108 0c-1,3 -1,5 -1,8 0,13 3,24 10,31 6,7 14,11 23,11 9,0 17,-3 25,-9 9,-5 15,-13 20,-24zm-73 -36l82 0c0,-3 1,-5 1,-6 0,-12 -4,-22 -10,-28 -6,-7 -14,-10 -24,-10 -11,0 -21,3 -29,11 -9,7 -16,18 -20,33zm158 -88l6 -28 25 0 -6 28 -25 0zm-79 229l5 -21c6,1 11,2 15,2 5,0 10,-2 13,-5 3,-4 6,-13 10,-30l31 -147 25 0 -32 152c-4,19 -9,32 -14,39 -7,9 -17,14 -29,14 -6,0 -14,-1 -24,-4zm105 -55l31 -146 23 0 -5 25c10,-10 19,-17 27,-22 9,-4 18,-7 27,-7 12,0 21,4 28,10 7,7 10,15 10,26 0,5 -1,14 -3,26l-20 88 -25 0 21 -93c2,-9 3,-15 3,-20 0,-4 -2,-8 -5,-11 -4,-3 -9,-5 -15,-5 -13,0 -25,5 -35,14 -10,9 -18,25 -23,47l-14 68 -25 0zm265 -50l25 3c-4,12 -12,23 -25,34 -12,11 -27,16 -44,16 -11,0 -21,-2 -30,-7 -9,-5 -16,-13 -21,-22 -5,-10 -7,-21 -7,-33 0,-16 4,-31 11,-46 7,-15 17,-26 29,-34 11,-7 24,-11 38,-11 17,0 31,6 42,17 10,10 16,25 16,44 0,7 -1,14 -2,22l-109 0c0,3 0,5 0,8 0,13 3,24 9,31 7,7 14,11 24,11 8,0 17,-3 25,-9 8,-5 15,-13 19,-24zm-73 -36l83 0c0,-3 0,-5 0,-6 0,-12 -3,-22 -9,-28 -7,-7 -15,-10 -25,-10 -10,0 -20,3 -29,11 -9,7 -15,18 -20,33zm35 -78l26 -38 31 0 -37 38 -20 0zm203 164l-24 -146 24 0 13 80c1,9 3,23 5,43 5,-10 11,-22 18,-35l49 -88 26 0 -83 146 -28 0zm212 -50l24 3c-3,12 -11,23 -24,34 -13,11 -28,16 -45,16 -11,0 -21,-2 -30,-7 -9,-5 -16,-13 -21,-22 -4,-10 -7,-21 -7,-33 0,-16 4,-31 11,-46 8,-15 17,-26 29,-34 12,-7 25,-11 38,-11 18,0 32,6 42,17 11,10 16,25 16,44 0,7 -1,14 -2,22l-108 0c0,3 -1,5 -1,8 0,13 4,24 10,31 6,7 14,11 23,11 9,0 17,-3 25,-9 9,-5 15,-13 20,-24zm-73 -36l82 0c1,-3 1,-5 1,-6 0,-12 -4,-22 -10,-28 -6,-7 -14,-10 -24,-10 -11,0 -20,3 -29,11 -9,7 -16,18 -20,33zm122 86l31 -146 22 0 -6 30c7,-12 15,-20 22,-25 7,-6 14,-9 22,-9 5,0 11,2 18,6l-10 23c-4,-3 -9,-5 -14,-5 -9,0 -18,5 -27,15 -9,10 -17,27 -22,52l-12 59 -24 0zm90 0l4 -19 79 -89c5,-6 12,-12 19,-19 -12,1 -21,1 -26,1l-54 0 4 -20 113 0 -3 15 -79 90c-5,5 -12,12 -20,20 14,-1 23,-1 28,-1l58 0 -5 22 -118 0zm181 -174l6 -28 25 0 -6 28 -25 0zm-36 174l30 -146 25 0 -31 146 -24 0zm69 0l6 -28 28 0 -5 24c-3,15 -8,26 -15,33 -6,7 -14,11 -23,12l2 -11c11,-3 18,-13 22,-30l-15 0zm187 -174l6 -28 25 0 -6 28 -25 0zm-79 229l5 -21c5,1 10,2 15,2 5,0 9,-2 13,-5 3,-4 6,-13 9,-30l31 -147 25 0 -32 152c-4,19 -8,32 -13,39 -7,9 -17,14 -29,14 -7,0 -15,-1 -24,-4zm204 -73c-9,7 -17,13 -25,16 -8,3 -17,5 -26,5 -13,0 -24,-4 -32,-12 -9,-8 -13,-18 -13,-30 0,-8 2,-16 6,-22 4,-6 9,-11 15,-15 6,-4 13,-6 22,-8 6,-1 17,-2 32,-3 16,0 27,-2 34,-5 2,-7 3,-12 3,-17 0,-5 -2,-10 -6,-13 -6,-5 -15,-7 -26,-7 -10,0 -19,2 -26,7 -6,4 -11,11 -14,20l-25 -3c5,-14 13,-25 24,-33 11,-8 25,-12 42,-12 18,0 33,5 43,13 8,7 12,15 12,25 0,8 -1,17 -3,28l-8 36c-3,12 -4,21 -4,28 0,5 1,11 3,20l-25 0c-1,-5 -2,-11 -3,-18zm9 -56c-3,1 -7,2 -11,3 -4,1 -11,2 -20,2 -15,2 -25,3 -31,5 -6,2 -10,5 -13,10 -3,4 -5,9 -5,14 0,7 3,13 7,17 5,5 12,7 21,7 8,0 16,-2 24,-7 7,-4 13,-10 18,-18 4,-8 8,-19 10,-33zm49 74l42 -202 25 0 -26 126 73 -70 33 0 -62 54 37 92 -27 0 -29 -75 -31 26 -10 49 -25 0zm240 -18c-9,7 -17,13 -25,16 -8,3 -16,5 -26,5 -13,0 -24,-4 -32,-12 -8,-8 -13,-18 -13,-30 0,-8 2,-16 6,-22 4,-6 9,-11 15,-15 6,-4 13,-6 22,-8 6,-1 17,-2 32,-3 16,0 27,-2 34,-5 2,-7 3,-12 3,-17 0,-5 -2,-10 -6,-13 -6,-5 -15,-7 -26,-7 -10,0 -19,2 -26,7 -6,4 -11,11 -14,20l-25 -3c5,-14 13,-25 24,-33 11,-8 25,-12 42,-12 18,0 33,5 43,13 8,7 12,15 12,25 0,8 -1,17 -3,28l-8 36c-3,12 -4,21 -4,28 0,5 1,11 3,20l-25 0c-1,-5 -2,-11 -3,-18zm9 -56c-3,1 -7,2 -11,3 -4,1 -11,2 -20,2 -15,2 -25,3 -31,5 -6,2 -10,5 -13,10 -3,4 -5,9 -5,14 0,7 3,13 7,17 5,5 12,7 21,7 8,0 16,-2 24,-7 8,-4 14,-10 18,-18 4,-8 8,-19 10,-33zm-38 -90l26 -38 31 0 -36 38 -21 0zm202 -10l6 -28 25 0 -6 28 -25 0zm-79 229l5 -21c5,1 11,2 15,2 5,0 10,-2 13,-5 3,-4 6,-13 10,-30l31 -147 24 0 -32 152c-3,19 -8,32 -13,39 -7,9 -17,14 -29,14 -7,0 -14,-1 -24,-4zm213 -105l25 3c-4,12 -12,23 -25,34 -12,11 -27,16 -45,16 -10,0 -20,-2 -29,-7 -10,-5 -16,-13 -21,-22 -5,-10 -7,-21 -7,-33 0,-16 3,-31 11,-46 7,-15 17,-26 29,-34 11,-7 24,-11 38,-11 17,0 31,6 42,17 10,10 15,25 15,44 0,7 0,14 -1,22l-109 0c0,3 0,5 0,8 0,13 3,24 9,31 7,7 14,11 23,11 9,0 18,-3 26,-9 8,-5 15,-13 19,-24zm-73 -36l83 0c0,-3 0,-5 0,-6 0,-12 -3,-22 -9,-28 -7,-7 -15,-10 -25,-10 -10,0 -20,3 -29,11 -9,7 -15,18 -20,33zm301 60c-18,19 -36,29 -54,29 -11,0 -21,-3 -28,-9 -7,-7 -10,-15 -10,-24 0,-6 2,-17 5,-32l19 -84 25 0 -21 94c-2,8 -3,14 -3,19 0,5 2,9 6,12 3,2 8,4 15,4 7,0 14,-2 20,-5 7,-4 13,-8 18,-14 5,-6 9,-12 12,-20 2,-5 4,-14 7,-27l14 -63 25 0 -33 146 -23 0 6 -26zm55 26l42 -202 25 0 -42 202 -25 0zm69 -56c0,-28 8,-52 25,-70 14,-16 32,-24 55,-24 17,0 31,6 42,17 11,11 16,26 16,45 0,16 -3,32 -10,46 -7,15 -16,26 -29,34 -12,7 -25,11 -39,11 -12,0 -22,-2 -31,-7 -10,-5 -17,-12 -22,-21 -5,-9 -7,-19 -7,-31zm25 -2c0,14 3,24 10,31 6,7 15,11 25,11 5,0 11,-1 16,-3 5,-2 10,-6 15,-10 4,-5 8,-10 11,-15 3,-6 6,-12 8,-18 3,-10 4,-18 4,-27 0,-13 -3,-23 -10,-30 -7,-8 -15,-11 -25,-11 -8,0 -15,2 -22,5 -6,4 -12,9 -17,17 -5,7 -9,15 -12,25 -2,9 -3,18 -3,25zm124 58l4 -19 78 -89c6,-6 12,-12 19,-19 -12,1 -20,1 -25,1l-55 0 5 -20 113 0 -4 15 -79 90c-5,5 -11,12 -20,20 14,-1 23,-1 29,-1l57 0 -4 22 -118 0zm132 -202l-37 38 -28 0 -17 -38 22 0 11 24 23 -24 26 0zm120 152l25 3c-4,12 -12,23 -25,34 -12,11 -27,16 -44,16 -11,0 -21,-2 -30,-7 -9,-5 -16,-13 -21,-22 -5,-10 -7,-21 -7,-33 0,-16 4,-31 11,-46 7,-15 17,-26 29,-34 11,-7 24,-11 38,-11 17,0 31,6 42,17 10,10 16,25 16,44 0,7 -1,14 -2,22l-109 0c0,3 0,5 0,8 0,13 3,24 9,31 7,7 14,11 24,11 8,0 17,-3 25,-9 8,-5 15,-13 19,-24zm-73 -36l83 0c0,-3 0,-5 0,-6 0,-12 -3,-22 -9,-28 -7,-7 -15,-10 -25,-10 -10,0 -20,3 -29,11 -9,7 -15,18 -20,33zm122 86l31 -146 23 0 -5 25c9,-10 19,-17 27,-22 9,-4 18,-7 27,-7 12,0 21,4 28,10 7,7 10,15 10,26 0,5 -1,14 -3,26l-20 88 -25 0 21 -93c2,-9 3,-15 3,-20 0,-4 -2,-8 -6,-11 -3,-3 -8,-5 -14,-5 -13,0 -25,5 -35,14 -10,9 -18,25 -23,47l-14 68 -25 0zm256 -18c-9,7 -17,13 -25,16 -8,3 -16,5 -25,5 -14,0 -25,-4 -33,-12 -8,-8 -13,-18 -13,-30 0,-8 2,-16 6,-22 4,-6 9,-11 15,-15 6,-4 14,-6 22,-8 6,-1 17,-2 32,-3 16,0 27,-2 34,-5 2,-7 3,-12 3,-17 0,-5 -2,-10 -6,-13 -6,-5 -14,-7 -26,-7 -10,0 -19,2 -25,7 -7,4 -12,11 -15,20l-25 -3c5,-14 13,-25 24,-33 11,-8 25,-12 42,-12 19,0 33,5 43,13 8,7 12,15 12,25 0,8 -1,17 -3,28l-8 36c-2,12 -4,21 -4,28 0,5 1,11 3,20l-25 0c-1,-5 -2,-11 -3,-18zm9 -56c-3,1 -7,2 -11,3 -4,1 -11,2 -20,2 -14,2 -25,3 -31,5 -6,2 -10,5 -13,10 -3,4 -5,9 -5,14 0,7 3,13 8,17 4,5 11,7 20,7 8,0 16,-2 24,-7 8,-4 14,-10 18,-18 5,-8 8,-19 10,-33zm165 74l-24 -146 24 0 13 80c1,9 3,23 5,43 4,-10 11,-22 18,-35l49 -88 26 0 -84 146 -27 0zm185 0l42 -202 27 0 -17 84 105 0 17 -84 27 0 -42 202 -27 0 20 -95 -105 0 -20 95 -27 0zm204 0l42 -202 147 0 -5 23 -120 0 -13 63 117 0 -4 23 -118 0 -15 70 128 0 -4 23 -155 0zm170 0l114 -202 33 0 33 202 -26 0 -10 -58 -82 0 -32 58 -30 0zm74 -79l67 0 -8 -51c-3,-20 -5,-37 -6,-50 -4,12 -11,25 -20,41l-33 60zm133 79l42 -202 61 0c14,0 26,1 33,3 11,3 21,8 29,15 7,8 13,17 17,28 4,11 6,23 6,37 0,16 -2,31 -7,44 -5,13 -12,25 -20,35 -7,10 -16,18 -24,24 -9,6 -19,10 -31,13 -9,2 -20,3 -34,3l-72 0zm31 -23l32 0c15,0 28,-1 39,-4 7,-1 13,-4 18,-7 6,-4 12,-10 18,-16 7,-10 12,-20 16,-31 5,-12 7,-25 7,-40 0,-16 -3,-29 -9,-37 -6,-9 -13,-15 -22,-18 -6,-2 -16,-3 -30,-3l-36 0 -33 156zm347 5c-9,7 -17,13 -25,16 -8,3 -17,5 -26,5 -14,0 -24,-4 -33,-12 -8,-8 -12,-18 -12,-30 0,-8 2,-16 5,-22 4,-6 9,-11 15,-15 6,-4 14,-6 23,-8 5,-1 16,-2 32,-3 16,0 27,-2 34,-5 2,-7 3,-12 3,-17 0,-5 -3,-10 -7,-13 -6,-5 -14,-7 -25,-7 -11,0 -19,2 -26,7 -7,4 -12,11 -15,20l-25 -3c5,-14 14,-25 25,-33 11,-8 25,-12 42,-12 18,0 32,5 43,13 8,7 12,15 12,25 0,8 -1,17 -4,28l-8 36c-2,12 -3,21 -3,28 0,5 1,11 3,20l-26 0c-1,-5 -2,-11 -2,-18zm9 -56c-4,1 -7,2 -11,3 -4,1 -11,2 -21,2 -14,2 -24,3 -30,5 -6,2 -11,5 -14,10 -3,4 -4,9 -4,14 0,7 2,13 7,17 5,5 12,7 21,7 8,0 16,-2 23,-7 8,-4 14,-10 18,-18 5,-8 8,-19 11,-33zm164 74l-24 -146 24 0 13 80c1,9 3,23 5,43 5,-10 11,-22 18,-35l49 -88 27 0 -84 146 -28 0zm219 -174l6 -28 24 0 -5 28 -25 0zm-37 174l31 -146 25 0 -31 146 -25 0zm63 0l31 -146 23 0 -5 25c9,-10 19,-17 27,-22 9,-4 18,-7 27,-7 12,0 21,4 28,10 7,7 10,15 10,26 0,5 -1,14 -4,26l-19 88 -25 0 20 -93c2,-9 4,-15 4,-20 0,-4 -2,-8 -6,-11 -3,-3 -8,-5 -14,-5 -14,0 -25,5 -35,14 -10,9 -18,25 -23,47l-14 68 -25 0zm256 -21c-14,16 -29,24 -45,24 -13,0 -25,-5 -34,-15 -9,-10 -14,-25 -14,-45 0,-17 4,-34 11,-48 7,-15 16,-26 27,-34 11,-7 22,-11 33,-11 18,0 32,9 41,27l17 -79 25 0 -42 202 -23 0 4 -21zm-68 -40c0,10 1,18 3,24 2,6 5,10 10,14 5,4 11,6 18,6 11,0 21,-6 30,-17 13,-16 19,-35 19,-58 0,-12 -3,-21 -9,-27 -6,-7 -14,-10 -23,-10 -6,0 -11,1 -16,4 -5,3 -10,7 -15,14 -5,6 -9,14 -12,24 -4,10 -5,18 -5,26zm234 11l24 3c-3,12 -11,23 -24,34 -12,11 -27,16 -45,16 -11,0 -21,-2 -30,-7 -9,-5 -16,-13 -20,-22 -5,-10 -7,-21 -7,-33 0,-16 3,-31 11,-46 7,-15 17,-26 29,-34 11,-7 24,-11 38,-11 17,0 31,6 42,17 10,10 15,25 15,44 0,7 0,14 -2,22l-108 0c0,3 0,5 0,8 0,13 3,24 9,31 7,7 14,11 23,11 9,0 17,-3 26,-9 8,-5 15,-13 19,-24zm-73 -36l83 0c0,-3 0,-5 0,-6 0,-12 -3,-22 -9,-28 -7,-7 -15,-10 -25,-10 -10,0 -20,3 -29,11 -9,7 -15,18 -20,33zm113 86l63 -74 -36 -72 27 0 13 26c5,9 9,18 12,27l42 -53 31 0 -61 74 37 72 -28 0 -15 -30c-3,-6 -6,-14 -10,-23l-44 53 -31 0zm250 -26c-17,19 -35,29 -54,29 -11,0 -20,-3 -27,-9 -7,-7 -10,-15 -10,-24 0,-6 1,-17 5,-32l19 -84 25 0 -21 94c-2,8 -3,14 -3,19 0,5 2,9 5,12 4,2 9,4 15,4 7,0 14,-2 21,-5 7,-4 13,-8 18,-14 4,-6 8,-12 12,-20 2,-5 4,-14 7,-27l14 -63 24 0 -32 146 -23 0 5 -26zm-8693 250l77 0 -8 38 -77 0 8 -38zm194 -55l38 0 -4 17c15,-14 30,-21 46,-21 11,0 20,3 26,7 6,5 10,11 11,19 5,-7 13,-13 22,-18 10,-5 19,-8 30,-8 11,0 20,3 27,10 6,6 10,14 10,25 0,5 -2,14 -4,26l-20 89 -39 0 19 -89c2,-11 3,-18 4,-19 0,-4 -2,-8 -4,-10 -3,-2 -6,-4 -11,-4 -10,0 -19,6 -27,16 -6,8 -10,21 -14,40l-14 66 -40 0 19 -88c2,-11 3,-17 3,-20 0,-4 -1,-7 -4,-10 -3,-2 -6,-4 -11,-4 -4,0 -9,2 -13,4 -5,3 -9,6 -12,11 -4,5 -7,10 -9,17 -1,4 -3,11 -6,23l-14 67 -39 0 30 -146z"/>
   <path class="fil0" d="M4996 2667l39 0 -19 87c-3,10 -4,17 -4,19 0,5 2,8 4,11 3,3 7,5 11,5 3,0 6,-1 10,-2 3,-2 6,-4 9,-7 3,-2 6,-6 9,-9 2,-4 5,-9 7,-15 2,-4 3,-10 5,-19l16 -70 40 0 -34 146 -36 0 3 -18c-14,15 -31,22 -48,22 -11,0 -20,-3 -26,-10 -7,-7 -10,-17 -10,-28 0,-5 2,-15 5,-30l19 -82zm135 106l38 -7c4,9 8,14 13,18 5,3 12,5 21,5 9,0 16,-2 21,-6 4,-3 6,-7 6,-10 0,-3 -1,-6 -3,-8 -2,-2 -8,-4 -16,-7 -24,-8 -39,-14 -45,-19 -9,-7 -13,-17 -13,-28 0,-12 4,-22 13,-30 12,-12 30,-18 53,-18 19,0 33,4 43,11 10,7 16,16 18,28l-36 6c-2,-5 -5,-9 -9,-12 -6,-4 -13,-5 -22,-5 -8,0 -14,1 -17,4 -4,2 -6,6 -6,9 0,4 2,7 6,9 2,2 9,4 22,8 19,6 32,11 38,17 10,7 14,17 14,27 0,14 -6,26 -17,37 -12,10 -28,15 -50,15 -21,0 -37,-4 -49,-12 -11,-7 -19,-18 -23,-32zm193 -106l39 0 -30 146 -40 0 31 -146zm25 -61l42 0 -44 42 -27 0 29 -42zm100 207l42 -202 40 0 -15 67c7,-5 14,-9 21,-11 6,-3 13,-4 20,-4 16,0 28,5 38,16 9,10 13,25 13,45 0,13 -2,26 -6,39 -4,13 -10,23 -18,31 -7,8 -15,13 -23,17 -8,4 -16,6 -25,6 -21,0 -37,-9 -46,-27l-6 23 -35 0zm53 -59c0,10 3,18 8,24 6,6 12,9 20,9 7,0 13,-2 19,-7 6,-5 11,-12 15,-23 4,-10 6,-21 6,-32 0,-10 -3,-19 -8,-25 -5,-6 -12,-9 -20,-9 -10,0 -18,5 -25,14 -10,13 -15,29 -15,49zm132 -87l40 0 10 73c2,19 4,32 4,39 5,-15 12,-30 21,-47l35 -65 42 0 -90 161c-8,13 -14,22 -18,28 -4,5 -9,9 -15,12 -6,3 -13,5 -22,5 -8,0 -18,-2 -28,-5l3 -29c5,1 10,2 14,2 12,0 22,-9 30,-28l-26 -146zm82 -61l42 0 -45 42 -26 0 29 -42zm73 90l6 -29 20 0 5 -23 44 -27 -10 50 24 0 -6 29 -24 0 -13 62c-2,11 -3,17 -3,19 0,3 1,5 3,7 1,2 5,3 10,3 2,0 6,-1 13,-1l-6 29c-7,1 -14,2 -21,2 -14,0 -24,-3 -30,-8 -7,-6 -10,-13 -10,-23 0,-4 2,-15 5,-31l13 -59 -20 0zm194 -29l38 0 -4 19c9,-8 18,-14 26,-18 8,-3 17,-5 26,-5 12,0 22,4 29,11 7,7 10,16 10,28 0,5 -2,14 -5,29l-18 82 -39 0 18 -83c2,-12 4,-19 4,-22 0,-5 -2,-9 -5,-12 -3,-3 -7,-5 -12,-5 -6,0 -13,3 -20,8 -7,5 -12,11 -17,19 -3,6 -6,18 -10,35l-12 60 -40 0 31 -146zm284 85l-100 0c0,2 0,3 0,4 0,10 3,18 8,24 6,6 13,9 21,9 13,0 24,-7 31,-21l35 6c-7,15 -16,25 -27,32 -12,7 -25,11 -39,11 -20,0 -36,-6 -48,-19 -13,-12 -19,-29 -19,-49 0,-20 6,-38 17,-54 15,-21 37,-32 65,-32 18,0 32,6 42,17 11,11 16,27 16,47 0,9 -1,18 -2,25zm-34 -24c0,-1 0,-3 0,-4 0,-11 -2,-19 -7,-24 -5,-6 -11,-9 -20,-9 -8,0 -15,4 -22,10 -6,6 -10,15 -13,27l62 0zm41 85l6 -26 80 -89 -65 0 6 -31 115 0 -5 24 -81 90 71 0 -7 32 -120 0zm178 -146l37 0 -3 17c14,-14 29,-21 45,-21 12,0 20,3 26,7 6,5 10,11 11,19 6,-7 13,-13 22,-18 10,-5 20,-8 30,-8 12,0 21,3 27,10 7,6 10,14 10,25 0,5 -1,14 -4,26l-19 89 -40 0 19 -89c3,-11 4,-18 4,-19 0,-4 -1,-8 -4,-10 -2,-2 -6,-4 -11,-4 -10,0 -19,6 -27,16 -5,8 -10,21 -14,40l-14 66 -39 0 18 -88c2,-11 3,-17 3,-20 0,-4 -1,-7 -4,-10 -2,-2 -6,-4 -11,-4 -4,0 -8,2 -13,4 -4,3 -9,6 -12,11 -3,5 -6,10 -9,17 -1,4 -3,11 -6,23l-14 67 -39 0 31 -146zm364 85l-100 0c0,2 0,3 0,4 0,10 3,18 8,24 6,6 13,9 21,9 13,0 24,-7 31,-21l35 6c-7,15 -16,25 -27,32 -12,7 -25,11 -39,11 -20,0 -36,-6 -48,-19 -13,-12 -19,-29 -19,-49 0,-20 6,-38 17,-54 15,-21 37,-32 65,-32 18,0 32,6 42,17 11,11 16,27 16,47 0,9 -1,18 -2,25zm-34 -24c0,-1 0,-3 0,-4 0,-11 -2,-19 -7,-24 -5,-6 -11,-9 -20,-9 -8,0 -15,4 -22,10 -6,6 -10,15 -13,27l62 0zm-20 -97l24 -25 32 0 -41 42 -37 0 -16 -42 27 0 11 25zm99 36l38 0 -4 19c10,-8 18,-14 27,-18 8,-3 16,-5 25,-5 13,0 22,4 29,11 7,7 11,16 11,28 0,5 -2,14 -6,29l-17 82 -40 0 18 -83c3,-12 4,-19 4,-22 0,-5 -1,-9 -4,-12 -3,-3 -7,-5 -13,-5 -6,0 -12,3 -19,8 -8,5 -13,11 -17,19 -3,6 -7,18 -11,35l-12 60 -39 0 30 -146zm284 85l-99 0c-1,2 -1,3 -1,4 0,10 3,18 9,24 5,6 12,9 20,9 14,0 24,-7 31,-21l36 6c-7,15 -16,25 -28,32 -12,7 -25,11 -39,11 -20,0 -36,-6 -48,-19 -12,-12 -19,-29 -19,-49 0,-20 6,-38 17,-54 15,-21 37,-32 65,-32 18,0 32,6 43,17 10,11 16,27 16,47 0,9 -1,18 -3,25zm-33 -24c0,-1 0,-3 0,-4 0,-11 -3,-19 -8,-24 -4,-6 -11,-9 -19,-9 -8,0 -16,4 -22,10 -7,6 -11,15 -13,27l62 0zm-21 -97l24 -25 33 0 -41 42 -37 0 -17 -42 27 0 11 25zm100 36l37 0 -3 19c9,-8 18,-14 26,-18 8,-3 17,-5 26,-5 12,0 21,4 28,11 7,7 11,16 11,28 0,5 -2,14 -5,29l-18 82 -39 0 18 -83c2,-12 3,-19 4,-22 0,-5 -2,-9 -5,-12 -3,-3 -7,-5 -12,-5 -6,0 -13,3 -20,8 -7,5 -13,11 -17,19 -3,6 -6,18 -10,35l-13 60 -39 0 31 -146zm153 0l39 0 10 73c3,19 4,32 5,39 5,-15 12,-30 21,-47l35 -65 41 0 -90 161c-7,13 -13,22 -17,28 -5,5 -10,9 -16,12 -6,3 -13,5 -21,5 -9,0 -18,-2 -29,-5l4 -29c5,1 9,2 14,2 12,0 22,-9 30,-28l-26 -146zm81 -61l42 0 -44 42 -27 0 29 -42zm137 167l38 -7c4,9 8,14 13,18 5,3 12,5 21,5 9,0 16,-2 21,-6 4,-3 6,-7 6,-10 0,-3 -1,-6 -3,-8 -2,-2 -8,-4 -16,-7 -24,-8 -39,-14 -45,-19 -9,-7 -13,-17 -13,-28 0,-12 4,-22 13,-30 12,-12 30,-18 53,-18 19,0 33,4 43,11 10,7 16,16 18,28l-36 6c-2,-5 -5,-9 -9,-12 -6,-4 -13,-5 -22,-5 -8,0 -14,1 -17,4 -4,2 -6,6 -6,9 0,4 2,7 6,9 2,2 9,4 22,8 19,6 32,11 38,17 10,7 14,17 14,27 0,14 -6,26 -17,37 -12,10 -28,15 -50,15 -21,0 -37,-4 -49,-12 -11,-7 -19,-18 -23,-32zm162 40l42 -202 40 0 -43 202 -39 0zm221 -61l-99 0c0,2 -1,3 -1,4 0,10 3,18 9,24 5,6 12,9 20,9 14,0 24,-7 31,-21l36 6c-7,15 -16,25 -28,32 -12,7 -24,11 -39,11 -20,0 -36,-6 -48,-19 -12,-12 -18,-29 -18,-49 0,-20 5,-38 16,-54 15,-21 37,-32 65,-32 18,0 32,6 43,17 11,11 16,27 16,47 0,9 -1,18 -3,25zm-33 -24c0,-1 0,-3 0,-4 0,-11 -3,-19 -8,-24 -4,-6 -11,-9 -19,-9 -8,0 -16,4 -22,10 -7,6 -11,15 -13,27l62 0zm183 85l-38 0 3 -15c-7,7 -14,12 -21,15 -7,3 -15,4 -23,4 -15,0 -28,-5 -37,-16 -10,-10 -14,-25 -14,-46 0,-23 6,-44 20,-63 13,-19 31,-29 53,-29 20,0 35,8 45,24l16 -76 40 0 -44 202zm-92 -59c0,10 3,19 8,25 6,5 12,8 20,8 7,0 14,-2 20,-7 6,-5 11,-13 15,-23 4,-10 6,-20 6,-29 0,-10 -3,-19 -9,-26 -6,-6 -12,-9 -20,-9 -11,0 -21,6 -29,19 -7,13 -11,27 -11,42zm135 -1c0,-28 7,-49 23,-66 15,-16 35,-24 60,-24 21,0 38,6 50,18 12,12 19,28 19,48 0,24 -8,45 -23,62 -15,17 -36,26 -61,26 -14,0 -26,-3 -37,-8 -10,-6 -18,-14 -23,-24 -6,-10 -8,-21 -8,-32zm112 -29c0,-9 -2,-17 -8,-23 -5,-5 -12,-8 -21,-8 -8,0 -16,3 -23,8 -6,5 -11,13 -15,23 -4,10 -5,20 -5,28 0,11 2,19 8,25 6,6 13,10 21,10 11,0 20,-5 28,-15 10,-13 15,-29 15,-48zm127 89l-34 0 -29 -146 39 0 10 64c3,17 5,29 5,34 1,-1 4,-7 10,-17 6,-11 9,-17 11,-19l36 -62 42 0 -90 146zm140 -105l-39 -3c5,-13 12,-24 24,-31 11,-7 25,-11 43,-11 19,0 33,4 42,12 9,7 14,16 14,27 0,5 -1,10 -2,14 0,5 -3,19 -8,40 -4,17 -6,29 -6,37 0,6 1,13 4,20l-39 0c-1,-5 -2,-11 -3,-16 -6,6 -12,11 -20,15 -7,3 -15,5 -23,5 -12,0 -22,-4 -30,-12 -7,-8 -11,-18 -11,-31 0,-14 4,-25 13,-33 8,-9 24,-14 46,-16 19,-1 32,-3 38,-5 2,-6 2,-10 2,-14 0,-4 -1,-7 -5,-10 -3,-3 -8,-5 -15,-5 -7,0 -13,2 -17,5 -4,3 -7,7 -8,12zm38 37c-3,0 -6,1 -10,2 -20,2 -33,6 -39,10 -4,4 -6,8 -6,14 0,4 1,8 5,12 3,3 7,4 13,4 6,0 11,-1 17,-4 5,-3 9,-7 12,-11 2,-5 5,-12 7,-22l1 -5zm94 -78l38 0 -4 19c10,-8 19,-14 27,-18 8,-3 17,-5 26,-5 12,0 21,4 28,11 7,7 11,16 11,28 0,5 -2,14 -5,29l-18 82 -40 0 18 -83c3,-12 4,-19 4,-22 0,-5 -1,-9 -4,-12 -3,-3 -7,-5 -13,-5 -6,0 -12,3 -19,8 -7,5 -13,11 -17,19 -3,6 -7,18 -10,35l-13 60 -39 0 30 -146zm154 0l39 0 10 73c2,19 4,32 4,39 5,-15 13,-30 22,-47l34 -65 42 0 -90 161c-8,13 -13,22 -18,28 -4,5 -9,9 -15,12 -6,3 -13,5 -22,5 -8,0 -17,-2 -28,-5l4 -29c4,1 9,2 13,2 13,0 23,-9 30,-28l-25 -146zm81 -61l42 0 -45 42 -26 0 29 -42zm137 167l38 -7c4,9 8,14 13,18 5,3 12,5 20,5 9,0 17,-2 22,-6 4,-3 6,-7 6,-10 0,-3 -1,-6 -3,-8 -2,-2 -8,-4 -17,-7 -23,-8 -38,-14 -44,-19 -9,-7 -13,-17 -13,-28 0,-12 4,-22 13,-30 12,-12 30,-18 53,-18 19,0 33,4 43,11 9,7 15,16 18,28l-36 6c-2,-5 -5,-9 -10,-12 -6,-4 -13,-5 -21,-5 -8,0 -14,1 -18,4 -3,2 -5,6 -5,9 0,4 2,7 6,9 2,2 9,4 22,8 19,6 32,11 38,17 9,7 14,17 14,27 0,14 -6,26 -18,37 -11,10 -28,15 -49,15 -21,0 -37,-4 -49,-12 -11,-7 -19,-18 -23,-32zm168 -20c0,-28 7,-49 23,-66 15,-16 35,-24 60,-24 21,0 38,6 50,18 13,12 19,28 19,48 0,24 -8,45 -23,62 -15,17 -36,26 -61,26 -14,0 -26,-3 -37,-8 -10,-6 -18,-14 -23,-24 -6,-10 -8,-21 -8,-32zm112 -29c0,-9 -2,-17 -8,-23 -5,-5 -12,-8 -21,-8 -8,0 -16,3 -23,8 -6,5 -11,13 -15,23 -4,10 -5,20 -5,28 0,11 2,19 8,25 6,6 13,10 22,10 10,0 19,-5 27,-15 10,-13 15,-29 15,-48zm86 -57l40 0 -20 87c-2,10 -3,17 -3,19 0,5 1,8 4,11 3,3 6,5 11,5 3,0 6,-1 9,-2 3,-2 6,-4 10,-7 3,-2 6,-6 8,-9 3,-4 5,-9 8,-15 1,-4 3,-10 5,-19l16 -70 39 0 -33 146 -37 0 4 -18c-15,15 -31,22 -49,22 -11,0 -19,-3 -26,-10 -6,-7 -9,-17 -9,-28 0,-5 1,-15 5,-30l18 -82zm139 146l43 -202 39 0 -14 67c7,-5 14,-9 20,-11 7,-3 14,-4 21,-4 15,0 28,5 37,16 10,10 14,25 14,45 0,13 -2,26 -6,39 -5,13 -11,23 -18,31 -7,8 -15,13 -23,17 -8,4 -17,6 -25,6 -21,0 -37,-9 -47,-27l-5 23 -36 0zm54 -59c0,10 2,18 8,24 6,6 12,9 20,9 6,0 13,-2 19,-7 6,-5 11,-12 15,-23 4,-10 6,-21 6,-32 0,-10 -3,-19 -8,-25 -6,-6 -12,-9 -20,-9 -10,0 -18,5 -26,14 -10,13 -14,29 -14,49zm126 -1c0,-28 8,-49 23,-66 15,-16 35,-24 60,-24 22,0 38,6 51,18 12,12 18,28 18,48 0,24 -8,45 -23,62 -15,17 -35,26 -61,26 -14,0 -26,-3 -36,-8 -11,-6 -19,-14 -24,-24 -5,-10 -8,-21 -8,-32zm113 -29c0,-9 -3,-17 -9,-23 -5,-5 -12,-8 -21,-8 -8,0 -16,3 -22,8 -7,5 -12,13 -16,23 -3,10 -5,20 -5,28 0,11 3,19 8,25 6,6 13,10 22,10 10,0 20,-5 27,-15 10,-13 16,-29 16,-48zm82 -57l37 0 -6 27c14,-20 29,-31 45,-31 5,0 11,2 18,4l-15 33c-4,-1 -8,-2 -12,-2 -7,0 -14,3 -21,8 -7,5 -12,12 -16,20 -4,9 -8,23 -12,41l-9 46 -40 0 31 -146zm-7969 462l-24 -147 24 0 13 81c1,9 3,23 5,43 4,-10 11,-22 18,-36l49 -88 26 0 -84 147 -27 0zm106 -51l25 -1c0,7 2,13 4,18 2,5 6,9 12,13 6,3 13,5 20,5 11,0 20,-3 25,-7 6,-4 8,-10 8,-16 0,-4 -1,-8 -5,-12 -3,-4 -11,-9 -24,-14 -13,-6 -22,-10 -25,-12 -7,-4 -11,-8 -14,-13 -4,-5 -5,-11 -5,-18 0,-11 5,-21 14,-30 9,-8 22,-12 38,-12 18,0 32,4 42,13 10,8 15,19 15,33l-24 2c-1,-9 -4,-16 -10,-21 -6,-5 -14,-8 -24,-8 -9,0 -16,2 -21,6 -4,4 -7,8 -7,13 0,5 2,9 7,12 2,3 9,6 21,11 19,8 31,15 36,20 7,7 11,17 11,27 0,8 -2,15 -6,22 -5,7 -11,12 -21,16 -9,5 -19,7 -32,7 -17,0 -31,-4 -43,-13 -12,-8 -17,-22 -17,-41zm131 -151l-37 37 -27 0 -17 -37 21 0 11 24 23 -24 26 0zm116 152l24 2c-3,12 -11,24 -24,35 -13,10 -28,16 -45,16 -11,0 -21,-3 -30,-8 -9,-5 -16,-12 -21,-22 -4,-9 -7,-20 -7,-32 0,-16 4,-32 11,-47 8,-15 17,-26 29,-33 12,-7 25,-11 38,-11 18,0 32,5 42,16 11,11 16,26 16,44 0,8 -1,15 -2,22l-108 0c0,3 -1,6 -1,8 0,14 4,24 10,32 6,7 14,10 23,10 9,0 17,-2 25,-8 9,-6 15,-14 20,-24zm-73 -37l82 0c1,-2 1,-4 1,-5 0,-13 -4,-22 -10,-29 -6,-6 -14,-10 -24,-10 -11,0 -20,4 -29,11 -9,8 -16,19 -20,33zm223 33l25 3c-6,18 -15,32 -27,40 -11,9 -24,14 -39,14 -16,0 -29,-5 -39,-16 -10,-10 -15,-24 -15,-43 0,-16 4,-31 10,-47 6,-15 15,-27 27,-35 12,-8 25,-12 41,-12 15,0 28,4 37,13 9,9 14,21 14,36l-25 1c0,-9 -3,-16 -8,-21 -5,-6 -12,-8 -21,-8 -10,0 -19,3 -26,9 -7,6 -13,16 -17,29 -4,13 -7,25 -7,37 0,13 3,22 9,28 5,6 12,10 20,10 8,0 16,-4 23,-10 8,-6 14,-15 18,-28zm40 54l43 -202 24 0 -16 77c9,-9 18,-15 26,-19 8,-4 16,-6 24,-6 12,0 21,3 28,10 6,6 10,14 10,25 0,5 -2,14 -5,28l-19 87 -25 0 20 -89c2,-13 4,-21 4,-24 0,-5 -2,-9 -5,-12 -3,-3 -8,-4 -14,-4 -9,0 -17,2 -25,7 -8,4 -15,11 -19,19 -5,8 -9,22 -13,40l-13 63 -25 0z"/>
   <path class="fil0" d="M2632 3129l31 -147 22 0 -5 26c10,-10 19,-18 28,-22 9,-5 17,-7 26,-7 12,0 22,3 29,10 6,6 10,15 10,26 0,5 -1,14 -4,25l-20 89 -24 0 20 -93c2,-9 3,-16 3,-20 0,-5 -2,-9 -5,-12 -3,-3 -8,-4 -15,-4 -13,0 -24,4 -35,13 -10,10 -17,25 -22,48l-14 68 -25 0zm148 56l1 -24c5,2 10,3 15,3 5,0 9,-2 12,-4 4,-3 9,-9 14,-17l8 -14 -25 -147 25 0 11 74c2,14 4,29 5,43l66 -117 26 0 -93 166c-9,16 -17,27 -24,32 -7,5 -15,8 -24,8 -6,0 -12,-1 -17,-3zm231 -107l25 -1c0,7 1,13 3,18 3,5 7,9 12,13 6,3 13,5 21,5 11,0 19,-3 25,-7 5,-4 8,-10 8,-16 0,-4 -2,-8 -5,-12 -3,-4 -12,-9 -25,-14 -13,-6 -21,-10 -25,-12 -6,-4 -11,-8 -14,-13 -3,-5 -4,-11 -4,-18 0,-11 4,-21 13,-30 9,-8 22,-12 39,-12 18,0 32,4 42,13 9,8 14,19 14,33l-24 2c0,-9 -3,-16 -9,-21 -6,-5 -14,-8 -25,-8 -8,0 -15,2 -20,6 -5,4 -7,8 -7,13 0,5 2,9 6,12 3,3 10,6 21,11 19,8 31,15 36,20 8,7 12,17 12,27 0,8 -2,15 -7,22 -4,7 -11,12 -20,16 -9,5 -20,7 -32,7 -17,0 -31,-4 -43,-13 -12,-8 -18,-22 -17,-41zm143 -5c0,-29 8,-52 25,-71 14,-15 32,-23 55,-23 17,0 32,6 42,17 11,11 17,25 17,44 0,17 -4,33 -11,47 -6,14 -16,25 -29,33 -12,8 -25,12 -39,12 -12,0 -22,-3 -31,-8 -10,-4 -17,-11 -22,-20 -5,-9 -7,-19 -7,-31zm25 -2c0,13 3,24 10,31 6,7 15,11 25,11 6,0 11,-2 16,-4 5,-2 10,-5 15,-10 4,-4 8,-9 11,-15 4,-5 6,-11 8,-18 3,-9 4,-18 4,-26 0,-13 -3,-24 -10,-31 -6,-7 -15,-11 -25,-11 -8,0 -15,2 -21,6 -7,4 -13,9 -18,16 -5,7 -9,16 -11,25 -3,10 -4,18 -4,26zm228 31c-18,20 -36,30 -54,30 -12,0 -21,-3 -28,-10 -7,-6 -10,-14 -10,-24 0,-6 2,-16 5,-31l19 -85 25 0 -21 95c-2,8 -3,14 -3,18 0,5 2,9 5,12 4,3 9,4 15,4 7,0 14,-1 21,-5 7,-3 13,-8 18,-13 5,-6 9,-13 12,-21 2,-5 4,-14 7,-26l14 -64 24 0 -32 147 -23 0 6 -27zm57 27l42 -202 25 0 -15 72c7,-7 14,-13 20,-15 7,-3 13,-5 20,-5 13,0 24,5 33,15 9,10 14,25 14,45 0,13 -2,25 -6,35 -3,11 -8,20 -13,27 -5,8 -11,13 -16,18 -6,4 -12,7 -18,9 -6,3 -11,4 -17,4 -9,0 -18,-3 -25,-8 -7,-5 -12,-13 -16,-23l-6 28 -22 0zm37 -60l-1 4c0,13 3,22 9,29 6,6 13,9 22,9 8,0 16,-3 23,-9 7,-6 13,-15 17,-28 5,-13 7,-25 7,-36 0,-12 -3,-22 -8,-29 -6,-7 -13,-10 -22,-10 -8,0 -16,4 -24,10 -7,7 -13,18 -18,33 -4,10 -5,19 -5,27zm124 4c0,-29 8,-52 25,-71 14,-15 32,-23 55,-23 17,0 31,6 42,17 11,11 16,25 16,44 0,17 -3,33 -10,47 -6,14 -16,25 -29,33 -12,8 -25,12 -39,12 -12,0 -22,-3 -31,-8 -10,-4 -17,-11 -22,-20 -5,-9 -7,-19 -7,-31zm25 -2c0,13 3,24 10,31 6,7 15,11 25,11 5,0 11,-2 16,-4 5,-2 10,-5 15,-10 4,-4 8,-9 11,-15 3,-5 6,-11 8,-18 3,-9 4,-18 4,-26 0,-13 -3,-24 -10,-31 -7,-7 -15,-11 -25,-11 -8,0 -15,2 -22,6 -6,4 -12,9 -17,16 -5,7 -9,16 -12,25 -2,10 -3,18 -3,26zm128 58l30 -147 22 0 -6 30c8,-11 15,-19 22,-25 8,-5 15,-8 22,-8 5,0 11,2 19,5l-10 24c-5,-4 -10,-5 -15,-5 -8,0 -17,5 -27,14 -9,10 -16,28 -21,53l-13 59 -23 0zm84 56l1 -24c6,2 11,3 15,3 6,0 10,-2 13,-4 4,-3 8,-9 13,-17l8 -14 -24 -147 24 0 11 74c2,14 4,29 6,43l65 -117 26 0 -93 166c-9,16 -17,27 -24,32 -7,5 -15,8 -24,8 -6,0 -11,-1 -17,-3zm266 -56l-24 -147 24 0 13 81c1,9 3,23 5,43 5,-10 11,-22 18,-36l49 -88 26 0 -83 147 -28 0zm171 56l42 -203 23 0 -4 21c8,-9 16,-15 23,-19 7,-3 14,-5 21,-5 14,0 26,5 35,15 9,10 14,25 14,44 0,15 -3,29 -8,41 -5,13 -11,23 -18,31 -8,7 -15,13 -23,16 -7,4 -15,6 -23,6 -18,0 -31,-9 -41,-27l-16 80 -25 0zm49 -116c0,11 1,18 2,23 3,5 6,10 12,14 5,4 11,5 18,5 14,0 26,-8 35,-24 9,-16 13,-32 13,-49 0,-12 -3,-22 -9,-29 -6,-7 -13,-10 -22,-10 -6,0 -12,2 -18,5 -5,3 -10,8 -15,15 -5,7 -8,15 -11,25 -3,9 -5,18 -5,25zm120 60l30 -147 22 0 -6 30c8,-11 15,-19 22,-25 8,-5 15,-8 22,-8 5,0 11,2 19,5l-10 24c-5,-4 -10,-5 -15,-5 -8,0 -17,5 -27,14 -9,10 -16,28 -21,53l-13 59 -23 0zm192 -19c-9,8 -17,13 -25,17 -8,3 -16,5 -26,5 -13,0 -24,-4 -32,-12 -8,-8 -13,-18 -13,-31 0,-8 2,-15 6,-21 4,-7 9,-12 15,-15 6,-4 13,-7 22,-9 6,-1 17,-2 32,-2 16,-1 27,-3 34,-5 2,-7 3,-13 3,-17 0,-6 -2,-10 -6,-14 -6,-4 -14,-7 -26,-7 -10,0 -19,3 -25,7 -7,5 -12,12 -15,20l-25 -2c5,-15 13,-26 24,-33 11,-8 25,-12 42,-12 18,0 33,4 43,13 8,6 12,15 12,25 0,8 -1,17 -3,27l-8 37c-3,11 -4,21 -4,28 0,4 1,11 3,20l-25 0c-1,-5 -2,-11 -3,-19zm9 -56c-3,2 -7,3 -11,4 -4,0 -11,1 -20,2 -14,1 -25,3 -31,5 -6,2 -10,5 -13,9 -3,5 -5,9 -5,15 0,7 3,12 8,17 4,4 11,7 20,7 8,0 16,-3 24,-7 8,-4 14,-10 18,-18 4,-8 8,-19 10,-34zm150 21l25 3c-6,18 -15,32 -26,40 -12,9 -25,14 -40,14 -16,0 -28,-5 -38,-16 -10,-10 -15,-24 -15,-43 0,-16 3,-31 9,-47 7,-15 16,-27 28,-35 11,-8 25,-12 40,-12 16,0 28,4 37,13 10,9 14,21 14,36l-24 1c0,-9 -3,-16 -8,-21 -6,-6 -13,-8 -21,-8 -10,0 -19,3 -26,9 -8,6 -14,16 -18,29 -4,13 -6,25 -6,37 0,13 3,22 8,28 6,6 12,10 21,10 8,0 15,-4 23,-10 7,-6 13,-15 17,-28zm45 -2c0,-29 8,-52 25,-71 14,-15 32,-23 55,-23 17,0 31,6 42,17 11,11 16,25 16,44 0,17 -3,33 -10,47 -6,14 -16,25 -29,33 -12,8 -25,12 -39,12 -12,0 -22,-3 -31,-8 -10,-4 -17,-11 -22,-20 -5,-9 -7,-19 -7,-31zm25 -2c0,13 3,24 10,31 6,7 15,11 25,11 5,0 11,-2 16,-4 5,-2 10,-5 15,-10 4,-4 8,-9 11,-15 3,-5 6,-11 8,-18 3,-9 4,-18 4,-26 0,-13 -3,-24 -10,-31 -7,-7 -15,-11 -25,-11 -8,0 -15,2 -22,6 -6,4 -12,9 -17,16 -5,7 -9,16 -12,25 -2,10 -3,18 -3,26zm164 58l-24 -147 25 0 12 81c2,9 3,23 5,43 5,-10 11,-22 19,-36l49 -88 26 0 -84 147 -28 0zm104 0l31 -147 23 0 -5 26c10,-10 19,-18 27,-22 9,-5 18,-7 27,-7 12,0 21,3 28,10 7,6 10,15 10,26 0,5 -1,14 -3,25l-20 89 -25 0 21 -93c2,-9 3,-16 3,-20 0,-5 -2,-9 -5,-12 -4,-3 -9,-4 -15,-4 -13,0 -25,4 -35,13 -10,10 -18,25 -23,48l-14 68 -25 0zm166 0l31 -147 24 0 -30 147 -25 0zm24 -165l26 -37 31 0 -37 37 -20 0zm46 165l31 -147 24 0 -5 24c9,-10 18,-17 25,-21 7,-4 15,-6 24,-6 9,0 17,2 23,7 6,5 10,12 12,20 7,-9 15,-16 23,-20 9,-5 17,-7 26,-7 13,0 22,3 28,9 6,5 9,14 9,24 0,5 -1,12 -3,22l-20 95 -25 0 20 -97c2,-8 3,-14 3,-17 0,-5 -2,-8 -5,-11 -3,-3 -7,-4 -13,-4 -7,0 -15,2 -22,6 -8,5 -14,11 -18,18 -5,7 -8,19 -12,34l-15 71 -24 0 20 -99c2,-7 3,-12 3,-14 0,-5 -2,-9 -5,-12 -3,-3 -7,-4 -12,-4 -7,0 -14,2 -22,6 -8,5 -14,11 -19,19 -5,8 -9,20 -12,34l-14 70 -25 0zm412 -19c-9,8 -17,13 -25,17 -8,3 -16,5 -25,5 -14,0 -25,-4 -33,-12 -8,-8 -13,-18 -13,-31 0,-8 2,-15 6,-21 4,-7 9,-12 15,-15 6,-4 13,-7 22,-9 6,-1 17,-2 32,-2 16,-1 27,-3 34,-5 2,-7 3,-13 3,-17 0,-6 -2,-10 -6,-14 -6,-4 -14,-7 -26,-7 -10,0 -19,3 -25,7 -7,5 -12,12 -15,20l-25 -2c5,-15 13,-26 24,-33 11,-8 25,-12 42,-12 19,0 33,4 43,13 8,6 12,15 12,25 0,8 -1,17 -3,27l-8 37c-2,11 -4,21 -4,28 0,4 1,11 3,20l-25 0c-1,-5 -2,-11 -3,-19zm9 -56c-3,2 -7,3 -11,4 -4,0 -11,1 -20,2 -14,1 -25,3 -31,5 -6,2 -10,5 -13,9 -3,5 -5,9 -5,15 0,7 3,12 8,17 4,4 11,7 20,7 8,0 16,-3 24,-7 8,-4 14,-10 18,-18 5,-8 8,-19 10,-34zm148 53c-14,17 -29,25 -45,25 -13,0 -25,-5 -34,-16 -9,-10 -14,-25 -14,-44 0,-18 4,-34 11,-49 7,-15 16,-26 27,-33 11,-7 22,-11 33,-11 18,0 32,9 41,26l17 -78 25 0 -42 202 -23 0 4 -22zm-68 -40c0,10 1,18 3,24 2,6 5,11 10,15 5,4 11,6 18,6 11,0 21,-6 30,-18 13,-15 19,-35 19,-58 0,-11 -3,-20 -9,-27 -6,-6 -14,-9 -23,-9 -6,0 -11,1 -16,4 -5,2 -10,7 -15,13 -5,6 -9,15 -12,24 -4,10 -5,19 -5,26zm127 62l30 -147 22 0 -6 30c8,-11 15,-19 22,-25 7,-5 15,-8 22,-8 5,0 11,2 19,5l-11 24c-4,-4 -9,-5 -14,-5 -8,0 -17,5 -27,14 -9,10 -16,28 -22,53l-12 59 -23 0zm201 -50l24 2c-3,12 -11,24 -24,35 -12,10 -27,16 -45,16 -11,0 -21,-3 -30,-8 -9,-5 -16,-12 -20,-22 -5,-9 -7,-20 -7,-32 0,-16 3,-32 11,-47 7,-15 17,-26 28,-33 12,-7 25,-11 39,-11 17,0 31,5 42,16 10,11 15,26 15,44 0,8 0,15 -2,22l-108 0c0,3 0,6 0,8 0,14 3,24 9,32 7,7 14,10 23,10 9,0 17,-2 26,-8 8,-6 15,-14 19,-24zm-73 -37l83 0c0,-2 0,-4 0,-5 0,-13 -3,-22 -9,-29 -7,-6 -15,-10 -25,-10 -10,0 -20,4 -29,11 -9,8 -15,19 -20,33zm125 36l25 -1c0,7 1,13 3,18 2,5 6,9 12,13 6,3 13,5 21,5 11,0 19,-3 24,-7 6,-4 9,-10 9,-16 0,-4 -2,-8 -5,-12 -4,-4 -12,-9 -25,-14 -13,-6 -21,-10 -25,-12 -6,-4 -11,-8 -14,-13 -3,-5 -5,-11 -5,-18 0,-11 5,-21 14,-30 9,-8 22,-12 39,-12 18,0 32,4 41,13 10,8 15,19 15,33l-24 2c0,-9 -3,-16 -9,-21 -6,-5 -14,-8 -25,-8 -9,0 -15,2 -20,6 -5,4 -7,8 -7,13 0,5 2,9 6,12 3,3 10,6 21,11 19,8 31,15 36,20 8,7 12,17 12,27 0,8 -2,15 -7,22 -4,7 -11,12 -20,16 -9,5 -20,7 -32,7 -17,0 -32,-4 -43,-13 -12,-8 -18,-22 -17,-41zm237 32c-9,8 -17,13 -25,17 -8,3 -16,5 -26,5 -13,0 -24,-4 -32,-12 -8,-8 -13,-18 -13,-31 0,-8 2,-15 6,-21 4,-7 9,-12 15,-15 6,-4 13,-7 22,-9 6,-1 17,-2 32,-2 16,-1 27,-3 34,-5 2,-7 3,-13 3,-17 0,-6 -2,-10 -6,-14 -6,-4 -14,-7 -26,-7 -10,0 -19,3 -25,7 -7,5 -12,12 -15,20l-25 -2c5,-15 13,-26 24,-33 11,-8 25,-12 42,-12 18,0 33,4 43,13 8,6 12,15 12,25 0,8 -1,17 -3,27l-8 37c-3,11 -4,21 -4,28 0,4 1,11 3,20l-25 0c-1,-5 -2,-11 -3,-19zm9 -56c-3,2 -7,3 -11,4 -4,0 -11,1 -20,2 -15,1 -25,3 -31,5 -6,2 -10,5 -13,9 -3,5 -5,9 -5,15 0,7 3,12 7,17 5,4 12,7 21,7 8,0 16,-3 24,-7 8,-4 14,-10 18,-18 4,-8 8,-19 10,-34zm-38 -90l26 -37 31 0 -36 37 -21 0zm88 165l30 -147 22 0 -6 30c8,-11 15,-19 22,-25 7,-5 15,-8 22,-8 5,0 11,2 19,5l-11 24c-4,-4 -9,-5 -14,-5 -8,0 -17,5 -27,14 -9,10 -16,28 -22,53l-12 59 -23 0zm118 -202l-37 37 -27 0 -17 -37 22 0 10 24 23 -24 26 0zm11 28l6 -28 25 0 -6 28 -25 0zm-36 174l31 -147 24 0 -30 147 -25 0zm178 -174l6 -28 25 0 -6 28 -25 0zm-79 229l4 -22c6,2 11,3 16,3 5,0 9,-2 12,-6 4,-3 7,-13 10,-29l31 -148 25 0 -32 153c-4,19 -8,32 -13,38 -7,10 -17,14 -29,14 -7,0 -15,-1 -24,-3zm108 -106l25 -1c0,7 1,13 3,18 2,5 6,9 12,13 6,3 13,5 21,5 11,0 19,-3 24,-7 6,-4 9,-10 9,-16 0,-4 -2,-8 -5,-12 -4,-4 -12,-9 -25,-14 -13,-6 -21,-10 -25,-12 -6,-4 -11,-8 -14,-13 -3,-5 -5,-11 -5,-18 0,-11 5,-21 14,-30 9,-8 22,-12 38,-12 19,0 33,4 42,13 10,8 15,19 15,33l-24 2c-1,-9 -4,-16 -9,-21 -6,-5 -15,-8 -25,-8 -9,0 -16,2 -20,6 -5,4 -7,8 -7,13 0,5 2,9 6,12 3,3 10,6 21,11 19,8 31,15 36,20 8,7 12,17 12,27 0,8 -3,15 -7,22 -4,7 -11,12 -20,16 -9,5 -20,7 -33,7 -16,0 -31,-4 -43,-13 -11,-8 -17,-22 -16,-41zm143 -5c0,-29 8,-52 25,-71 14,-15 32,-23 54,-23 18,0 32,6 43,17 11,11 16,25 16,44 0,17 -3,33 -10,47 -7,14 -16,25 -29,33 -12,8 -26,12 -40,12 -11,0 -21,-3 -31,-8 -9,-4 -16,-11 -21,-20 -5,-9 -7,-19 -7,-31zm25 -2c0,13 3,24 9,31 7,7 16,11 26,11 5,0 11,-2 16,-4 5,-2 10,-5 14,-10 5,-4 9,-9 12,-15 3,-5 6,-11 8,-18 3,-9 4,-18 4,-26 0,-13 -3,-24 -10,-31 -7,-7 -15,-11 -25,-11 -8,0 -15,2 -22,6 -6,4 -12,9 -17,16 -6,7 -9,16 -12,25 -2,10 -3,18 -3,26zm227 31c-17,20 -35,30 -54,30 -11,0 -20,-3 -27,-10 -7,-6 -11,-14 -11,-24 0,-6 2,-16 6,-31l19 -85 25 0 -21 95c-2,8 -3,14 -3,18 0,5 2,9 5,12 3,3 8,4 15,4 7,0 14,-1 21,-5 7,-3 12,-8 17,-13 5,-6 9,-13 12,-21 2,-5 5,-14 7,-26l14 -64 25 0 -32 147 -23 0 5 -27zm173 27l-25 -147 25 0 12 81c2,9 3,23 5,43 5,-10 11,-22 19,-36l49 -88 26 0 -84 147 -27 0z"/>
   <path class="fil0" d="M7650 3079l24 2c-4,12 -12,24 -24,35 -13,10 -28,16 -45,16 -11,0 -21,-3 -30,-8 -9,-5 -16,-12 -21,-22 -5,-9 -7,-20 -7,-32 0,-16 4,-32 11,-47 8,-15 17,-26 29,-33 12,-7 24,-11 38,-11 18,0 32,5 42,16 10,11 16,26 16,44 0,8 -1,15 -2,22l-108 0c-1,3 -1,6 -1,8 0,14 3,24 10,32 6,7 14,10 23,10 8,0 17,-2 25,-8 8,-6 15,-14 20,-24zm-73 -37l82 0c0,-2 0,-4 0,-5 0,-13 -3,-22 -9,-29 -6,-6 -14,-10 -24,-10 -11,0 -21,4 -30,11 -8,8 -15,19 -19,33zm203 36l25 -1c0,7 1,13 3,18 2,5 6,9 12,13 6,3 13,5 21,5 11,0 19,-3 24,-7 6,-4 8,-10 8,-16 0,-4 -1,-8 -4,-12 -4,-4 -12,-9 -25,-14 -13,-6 -21,-10 -25,-12 -6,-4 -11,-8 -14,-13 -3,-5 -5,-11 -5,-18 0,-11 5,-21 14,-30 9,-8 22,-12 38,-12 19,0 33,4 42,13 10,8 15,19 15,33l-24 2c-1,-9 -4,-16 -10,-21 -5,-5 -14,-8 -24,-8 -9,0 -16,2 -20,6 -5,4 -7,8 -7,13 0,5 2,9 6,12 2,3 9,6 21,11 19,8 31,15 36,20 8,7 12,17 12,27 0,8 -3,15 -7,22 -4,7 -11,12 -20,16 -10,5 -20,7 -33,7 -16,0 -31,-4 -43,-13 -11,-8 -17,-22 -16,-41zm196 30l-4 21c-6,1 -11,2 -17,2 -10,0 -18,-2 -24,-7 -4,-4 -6,-9 -6,-15 0,-3 1,-11 3,-22l18 -86 -20 0 4 -19 20 0 8 -36 28 -17 -11 53 24 0 -4 19 -24 0 -17 81c-2,11 -3,17 -3,19 0,3 1,5 2,7 2,1 5,2 9,2 5,0 10,-1 14,-2zm128 -29l25 2c-4,12 -12,24 -24,35 -13,10 -28,16 -45,16 -11,0 -21,-3 -30,-8 -9,-5 -16,-12 -21,-22 -5,-9 -7,-20 -7,-32 0,-16 4,-32 11,-47 7,-15 17,-26 29,-33 12,-7 24,-11 38,-11 18,0 32,5 42,16 10,11 16,26 16,44 0,8 -1,15 -2,22l-108 0c-1,3 -1,6 -1,8 0,14 3,24 9,32 7,7 15,10 24,10 8,0 17,-2 25,-8 8,-6 15,-14 19,-24zm-72 -37l82 0c0,-2 0,-4 0,-5 0,-13 -3,-22 -9,-29 -7,-6 -15,-10 -24,-10 -11,0 -21,4 -30,11 -9,8 -15,19 -19,33zm158 -87l6 -28 25 0 -6 28 -25 0zm-79 229l5 -22c5,2 10,3 15,3 5,0 9,-2 13,-6 3,-3 6,-13 9,-29l31 -148 25 0 -32 153c-4,19 -8,32 -13,38 -7,10 -17,14 -29,14 -7,0 -15,-1 -24,-3zm105 -55l31 -147 23 0 -6 26c10,-10 20,-18 28,-22 9,-5 18,-7 27,-7 12,0 21,3 28,10 7,6 10,15 10,26 0,5 -1,14 -4,25l-19 89 -25 0 20 -93c2,-9 3,-16 3,-20 0,-5 -1,-9 -5,-12 -3,-3 -8,-4 -15,-4 -13,0 -24,4 -34,13 -11,10 -18,25 -23,48l-14 68 -25 0zm265 -50l24 2c-3,12 -11,24 -24,35 -12,10 -27,16 -45,16 -11,0 -21,-3 -30,-8 -9,-5 -16,-12 -20,-22 -5,-9 -8,-20 -8,-32 0,-16 4,-32 12,-47 7,-15 17,-26 28,-33 12,-7 25,-11 39,-11 17,0 31,5 42,16 10,11 15,26 15,44 0,8 0,15 -2,22l-108 0c0,3 0,6 0,8 0,14 3,24 9,32 6,7 14,10 23,10 9,0 17,-2 26,-8 8,-6 14,-14 19,-24zm-73 -37l83 0c0,-2 0,-4 0,-5 0,-13 -3,-22 -10,-29 -6,-6 -14,-10 -24,-10 -11,0 -20,4 -29,11 -9,8 -15,19 -20,33zm35 -78l26 -37 31 0 -37 37 -20 0zm203 165l-25 -147 25 0 12 81c2,9 3,23 5,43 5,-10 11,-22 19,-36l49 -88 26 0 -84 147 -27 0zm212 -50l24 2c-4,12 -12,24 -24,35 -13,10 -28,16 -45,16 -11,0 -21,-3 -30,-8 -9,-5 -16,-12 -21,-22 -5,-9 -7,-20 -7,-32 0,-16 4,-32 11,-47 7,-15 17,-26 29,-33 12,-7 24,-11 38,-11 18,0 32,5 42,16 10,11 16,26 16,44 0,8 -1,15 -2,22l-108 0c-1,3 -1,6 -1,8 0,14 3,24 10,32 6,7 14,10 23,10 8,0 17,-2 25,-8 8,-6 15,-14 20,-24zm-73 -37l82 0c0,-2 0,-4 0,-5 0,-13 -3,-22 -9,-29 -6,-6 -14,-10 -24,-10 -11,0 -21,4 -30,11 -8,8 -15,19 -19,33zm122 87l30 -147 23 0 -7 30c8,-11 15,-19 23,-25 7,-5 14,-8 22,-8 5,0 11,2 18,5l-10 24c-5,-4 -9,-5 -14,-5 -9,0 -18,5 -27,14 -10,10 -17,28 -22,53l-12 59 -24 0zm90 0l4 -20 79 -88c5,-6 11,-13 18,-20 -12,1 -20,2 -25,2l-55 0 5 -21 113 0 -3 16 -80 89c-4,5 -11,12 -20,21 14,-1 24,-1 29,-1l57 0 -4 22 -118 0zm181 -174l6 -28 24 0 -5 28 -25 0zm-37 174l31 -147 25 0 -31 147 -25 0zm69 0l6 -29 28 0 -5 25c-3,15 -8,26 -14,32 -7,7 -14,11 -23,12l2 -11c11,-3 18,-13 22,-29l-16 0zm188 -174l6 -28 25 0 -6 28 -25 0zm-79 229l4 -22c6,2 11,3 15,3 6,0 10,-2 13,-6 3,-3 7,-13 10,-29l31 -148 25 0 -32 153c-4,19 -8,32 -14,38 -7,10 -16,14 -28,14 -7,0 -15,-1 -24,-3zm204 -74c-9,8 -17,13 -25,17 -8,3 -17,5 -26,5 -13,0 -24,-4 -33,-12 -8,-8 -12,-18 -12,-31 0,-8 2,-15 6,-21 3,-7 8,-12 14,-15 7,-4 14,-7 23,-9 6,-1 16,-2 32,-2 16,-1 27,-3 34,-5 2,-7 3,-13 3,-17 0,-6 -2,-10 -7,-14 -5,-4 -14,-7 -25,-7 -11,0 -19,3 -26,7 -7,5 -11,12 -15,20l-25 -2c5,-15 14,-26 25,-33 11,-8 25,-12 42,-12 18,0 32,4 43,13 8,6 12,15 12,25 0,8 -1,17 -3,27l-8 37c-3,11 -4,21 -4,28 0,4 1,11 3,20l-25 0c-2,-5 -3,-11 -3,-19zm9 -56c-4,2 -7,3 -11,4 -4,0 -11,1 -20,2 -15,1 -25,3 -31,5 -6,2 -11,5 -14,9 -3,5 -4,9 -4,15 0,7 2,12 7,17 5,4 12,7 21,7 8,0 16,-3 24,-7 7,-4 13,-10 18,-18 4,-8 8,-19 10,-34zm49 75l42 -202 25 0 -26 125 73 -70 33 0 -63 55 38 92 -27 0 -30 -76 -30 27 -10 49 -25 0zm240 -19c-9,8 -17,13 -25,17 -8,3 -17,5 -26,5 -13,0 -24,-4 -33,-12 -8,-8 -12,-18 -12,-31 0,-8 2,-15 6,-21 3,-7 8,-12 14,-15 7,-4 14,-7 23,-9 6,-1 16,-2 32,-2 16,-1 27,-3 34,-5 2,-7 3,-13 3,-17 0,-6 -2,-10 -7,-14 -5,-4 -14,-7 -25,-7 -11,0 -19,3 -26,7 -7,5 -11,12 -14,20l-26 -2c6,-15 14,-26 25,-33 11,-8 25,-12 42,-12 18,0 32,4 43,13 8,6 12,15 12,25 0,8 -1,17 -3,27l-8 37c-3,11 -4,21 -4,28 0,4 1,11 3,20l-25 0c-2,-5 -3,-11 -3,-19zm9 -56c-3,2 -7,3 -11,4 -4,0 -11,1 -20,2 -15,1 -25,3 -31,5 -6,2 -11,5 -14,9 -3,5 -4,9 -4,15 0,7 2,12 7,17 5,4 12,7 21,7 8,0 16,-3 24,-7 7,-4 13,-10 18,-18 4,-8 8,-19 10,-34zm-38 -90l26 -37 31 0 -37 37 -20 0zm202 -9l6 -28 25 0 -6 28 -25 0zm-79 229l4 -22c6,2 11,3 16,3 5,0 9,-2 12,-6 4,-3 7,-13 10,-29l31 -148 25 0 -32 153c-4,19 -8,32 -13,38 -7,10 -17,14 -29,14 -7,0 -15,-1 -24,-3zm213 -105l24 2c-3,12 -11,24 -24,35 -13,10 -28,16 -45,16 -11,0 -21,-3 -30,-8 -9,-5 -16,-12 -21,-22 -4,-9 -7,-20 -7,-32 0,-16 4,-32 11,-47 8,-15 17,-26 29,-33 12,-7 25,-11 39,-11 17,0 31,5 41,16 11,11 16,26 16,44 0,8 -1,15 -2,22l-108 0c0,3 -1,6 -1,8 0,14 4,24 10,32 6,7 14,10 23,10 9,0 17,-2 26,-8 8,-6 14,-14 19,-24zm-73 -37l83 0c0,-2 0,-4 0,-5 0,-13 -3,-22 -10,-29 -6,-6 -14,-10 -24,-10 -11,0 -20,4 -29,11 -9,8 -16,19 -20,33zm237 87l-24 -147 25 0 12 81c2,9 3,23 5,43 5,-10 11,-22 19,-36l49 -88 26 0 -84 147 -28 0zm186 0l42 -202 27 0 -18 84 105 0 18 -84 27 0 -42 202 -27 0 20 -95 -106 0 -19 95 -27 0zm204 0l42 -202 147 0 -5 22 -120 0 -13 64 117 0 -5 22 -117 0 -15 71 128 0 -5 23 -154 0zm170 0l114 -202 32 0 34 202 -27 0 -9 -59 -82 0 -32 59 -30 0zm74 -79l67 0 -8 -51c-3,-20 -5,-37 -6,-50 -5,11 -12,25 -20,41l-33 60zm132 79l43 -202 61 0c14,0 25,1 33,3 11,3 20,8 28,15 8,7 14,16 18,27 4,11 6,24 6,37 0,16 -3,31 -8,45 -4,13 -11,25 -19,35 -8,10 -16,18 -25,24 -9,5 -19,10 -31,12 -9,3 -20,4 -33,4l-73 0zm32 -23l32 0c14,0 27,-2 39,-4 7,-2 13,-4 18,-8 6,-4 12,-9 17,-16 7,-9 13,-19 17,-31 4,-11 6,-24 6,-39 0,-17 -2,-29 -8,-38 -6,-9 -13,-15 -22,-17 -7,-3 -17,-4 -31,-4l-35 0 -33 157zm346 4c-8,8 -17,13 -25,17 -8,3 -16,5 -25,5 -14,0 -25,-4 -33,-12 -8,-8 -12,-18 -12,-31 0,-8 1,-15 5,-21 4,-7 9,-12 15,-15 6,-4 14,-7 23,-9 5,-1 16,-2 32,-2 15,-1 27,-3 33,-5 2,-7 3,-13 3,-17 0,-6 -2,-10 -6,-14 -6,-4 -14,-7 -26,-7 -10,0 -19,3 -25,7 -7,5 -12,12 -15,20l-25 -2c5,-15 13,-26 24,-33 11,-8 26,-12 43,-12 18,0 32,4 42,13 8,6 13,15 13,25 0,8 -2,17 -4,27l-8 37c-2,11 -4,21 -4,28 0,4 1,11 3,20l-25 0c-1,-5 -2,-11 -3,-19zm10 -56c-4,2 -8,3 -12,4 -4,0 -11,1 -20,2 -14,1 -25,3 -31,5 -6,2 -10,5 -13,9 -3,5 -5,9 -5,15 0,7 3,12 8,17 4,4 11,7 20,7 8,0 16,-3 24,-7 8,-4 14,-10 18,-18 5,-8 8,-19 11,-34zm164 75l-24 -147 24 0 13 81c1,9 3,23 5,43 5,-10 11,-22 18,-36l49 -88 26 0 -83 147 -28 0zm218 -174l6 -28 25 0 -6 28 -25 0zm-36 174l31 -147 24 0 -30 147 -25 0zm63 0l31 -147 22 0 -5 26c10,-10 19,-18 28,-22 9,-5 17,-7 26,-7 12,0 22,3 29,10 7,6 10,15 10,26 0,5 -1,14 -4,25l-20 89 -24 0 20 -93c2,-9 3,-16 3,-20 0,-5 -2,-9 -5,-12 -3,-3 -8,-4 -15,-4 -13,0 -24,4 -35,13 -10,10 -17,25 -22,48l-14 68 -25 0zm256 -22c-15,17 -29,25 -45,25 -14,0 -25,-5 -35,-16 -9,-10 -13,-25 -13,-44 0,-18 3,-34 11,-49 7,-15 16,-26 27,-33 11,-7 22,-11 33,-11 18,0 32,9 41,26l17 -78 24 0 -42 202 -23 0 5 -22zm-69 -40c0,10 1,18 3,24 3,6 6,11 11,15 5,4 11,6 17,6 12,0 22,-6 31,-18 12,-15 19,-35 19,-58 0,-11 -3,-20 -9,-27 -7,-6 -14,-9 -23,-9 -6,0 -12,1 -17,4 -5,2 -10,7 -14,13 -5,6 -9,15 -13,24 -3,10 -5,19 -5,26zm235 12l24 2c-3,12 -11,24 -24,35 -13,10 -28,16 -45,16 -11,0 -21,-3 -30,-8 -9,-5 -16,-12 -21,-22 -4,-9 -7,-20 -7,-32 0,-16 4,-32 11,-47 8,-15 17,-26 29,-33 12,-7 25,-11 38,-11 18,0 32,5 42,16 11,11 16,26 16,44 0,8 -1,15 -2,22l-108 0c0,3 -1,6 -1,8 0,14 4,24 10,32 6,7 14,10 23,10 9,0 17,-2 25,-8 9,-6 15,-14 20,-24zm-73 -37l82 0c1,-2 1,-4 1,-5 0,-13 -4,-22 -10,-29 -6,-6 -14,-10 -24,-10 -11,0 -20,4 -29,11 -9,8 -16,19 -20,33zm112 87l64 -75 -37 -72 28 0 13 26c4,10 8,19 12,28l42 -54 30 0 -61 74 37 73 -27 0 -15 -30c-3,-6 -7,-14 -11,-23l-43 53 -32 0zm251 -27c-18,20 -36,30 -54,30 -11,0 -20,-3 -27,-10 -7,-6 -11,-14 -11,-24 0,-6 2,-16 5,-31l20 -85 25 0 -22 95c-1,8 -2,14 -2,18 0,5 1,9 5,12 3,3 8,4 15,4 7,0 14,-1 21,-5 6,-3 12,-8 17,-13 5,-6 9,-13 12,-21 2,-5 5,-14 7,-26l14 -64 25 0 -32 147 -23 0 5 -27zm-7000 250l77 0 -8 38 -77 0 8 -38zm194 -55l37 0 -3 15c8,-6 16,-11 23,-14 7,-3 14,-4 22,-4 16,0 28,5 37,16 10,10 14,26 14,47 0,27 -8,49 -24,67 -14,16 -30,24 -49,24 -20,0 -34,-8 -44,-24l-16 76 -39 0 42 -203zm23 84c0,12 3,21 9,27 6,7 12,10 20,10 6,0 13,-2 19,-7 6,-5 11,-13 15,-24 4,-11 6,-21 6,-31 0,-11 -3,-19 -8,-25 -5,-6 -12,-9 -20,-9 -8,0 -15,3 -21,8 -6,5 -11,13 -14,24 -4,10 -6,20 -6,27zm148 -84l38 0 -6 28c14,-21 28,-31 44,-31 6,0 12,1 19,4l-16 32c-3,-1 -7,-2 -11,-2 -7,0 -14,3 -21,8 -7,5 -13,12 -16,21 -4,9 -8,22 -12,41l-10 46 -39 0 30 -147zm138 41l-39 -3c5,-13 12,-23 23,-30 11,-8 26,-11 44,-11 19,0 33,4 42,11 9,8 13,17 13,28 0,4 0,9 -1,14 -1,5 -3,18 -8,39 -4,18 -6,30 -6,37 0,6 1,13 3,21l-38 0c-2,-5 -3,-11 -3,-17 -6,7 -13,12 -20,15 -8,4 -15,6 -23,6 -12,0 -22,-4 -30,-12 -8,-8 -12,-19 -12,-31 0,-14 5,-25 13,-34 9,-8 25,-13 47,-15 19,-2 31,-4 38,-6 1,-5 2,-10 2,-13 0,-4 -1,-8 -5,-11 -3,-3 -8,-4 -15,-4 -7,0 -13,1 -17,4 -4,3 -7,7 -8,12zm37 37c-2,1 -5,2 -9,2 -20,3 -33,6 -39,11 -4,3 -6,8 -6,13 0,5 1,9 5,12 3,3 7,5 13,5 6,0 11,-2 16,-4 6,-3 10,-7 12,-12 3,-4 5,-12 7,-21l1 -6zm163 14l38 6c-6,17 -15,30 -28,39 -12,9 -27,14 -43,14 -18,0 -33,-6 -44,-17 -11,-11 -17,-27 -17,-46 0,-16 4,-31 10,-45 7,-15 17,-26 30,-34 14,-8 28,-12 44,-12 17,0 31,4 41,13 11,9 16,21 18,36l-38 4c-1,-8 -3,-14 -7,-18 -4,-4 -10,-6 -16,-6 -8,0 -15,3 -22,9 -6,5 -11,14 -15,25 -3,12 -5,22 -5,32 0,9 2,16 6,20 4,5 10,8 16,8 6,0 12,-3 18,-7 6,-5 11,-12 14,-21zm64 -6c0,-27 7,-49 23,-65 15,-16 35,-24 60,-24 21,0 38,6 50,18 12,12 19,28 19,48 0,24 -8,44 -23,62 -15,17 -36,26 -61,26 -14,0 -26,-3 -37,-9 -10,-5 -18,-13 -23,-23 -6,-10 -8,-21 -8,-33zm112 -28c0,-10 -2,-17 -8,-23 -5,-6 -12,-9 -21,-9 -8,0 -16,3 -23,8 -6,6 -11,13 -15,24 -4,10 -5,19 -5,28 0,10 2,19 8,25 6,6 13,9 21,9 11,0 20,-5 28,-14 10,-13 15,-29 15,-48zm127 89l-34 0 -29 -147 39 0 10 64c3,18 5,29 5,35 1,-2 4,-8 10,-18 6,-10 9,-16 11,-19l36 -62 42 0 -90 147zm115 -147l38 0 -4 20c10,-9 19,-14 27,-18 8,-3 17,-5 26,-5 12,0 21,3 28,10 7,7 11,17 11,28 0,5 -2,15 -5,29l-18 83 -40 0 18 -83c3,-12 4,-20 4,-22 0,-6 -1,-10 -4,-13 -3,-3 -7,-4 -13,-4 -6,0 -12,2 -19,7 -7,5 -13,12 -17,20 -3,5 -6,17 -10,35l-13 60 -39 0 30 -147zm172 0l40 0 -31 147 -39 0 30 -147zm26 -60l42 0 -45 42 -26 0 29 -42z"/>
   <path class="fil0" d="M7042 3338l-38 -3c4,-13 12,-23 23,-30 11,-8 25,-11 43,-11 19,0 33,4 42,11 9,8 14,17 14,28 0,4 -1,9 -1,14 -1,5 -4,18 -9,39 -4,18 -5,30 -5,37 0,6 1,13 3,21l-39 0c-1,-5 -2,-11 -3,-17 -5,7 -12,12 -20,15 -7,4 -15,6 -22,6 -12,0 -22,-4 -30,-12 -8,-8 -12,-19 -12,-31 0,-14 4,-25 13,-34 9,-8 24,-13 46,-15 19,-2 32,-4 38,-6 2,-5 3,-10 3,-13 0,-4 -2,-8 -5,-11 -4,-3 -9,-4 -16,-4 -7,0 -12,1 -16,4 -4,3 -7,7 -9,12zm38 37c-2,1 -6,2 -10,2 -19,3 -32,6 -38,11 -5,3 -7,8 -7,13 0,5 2,9 5,12 3,3 8,5 13,5 6,0 12,-2 17,-4 5,-3 9,-7 12,-12 2,-4 5,-12 7,-21l1 -6zm198 69l-37 0 3 -16c-7,7 -14,12 -21,15 -7,3 -15,5 -23,5 -16,0 -28,-6 -37,-16 -10,-10 -14,-26 -14,-46 0,-24 6,-45 20,-64 13,-19 31,-28 53,-28 20,0 35,8 45,23l16 -75 40 0 -45 202zm-91 -60c0,11 3,19 8,25 5,6 12,9 20,9 7,0 14,-3 20,-7 6,-5 11,-13 15,-23 4,-10 6,-20 6,-29 0,-11 -3,-20 -9,-26 -6,-7 -12,-10 -20,-10 -11,0 -21,7 -29,19 -7,13 -11,27 -11,42zm157 -87l37 0 -5 28c13,-21 28,-31 44,-31 6,0 12,1 18,4l-15 32c-4,-1 -7,-2 -12,-2 -6,0 -13,3 -20,8 -7,5 -13,12 -17,21 -4,9 -8,22 -12,41l-9 46 -40 0 31 -147zm224 86l-99 0c0,1 0,3 0,4 0,9 2,17 8,23 6,6 12,9 21,9 13,0 23,-6 31,-20l35 6c-7,14 -16,25 -28,32 -11,7 -24,11 -39,11 -19,0 -36,-7 -48,-19 -12,-13 -18,-29 -18,-50 0,-20 5,-38 16,-53 15,-22 37,-32 65,-32 18,0 32,5 43,16 11,12 16,27 16,47 0,10 -1,18 -3,26zm-33 -24c0,-2 0,-3 0,-4 0,-11 -3,-19 -7,-25 -5,-5 -12,-8 -20,-8 -8,0 -16,3 -22,9 -7,7 -11,16 -13,28l62 0zm42 44l39 -6c3,8 7,14 12,17 5,4 12,5 21,5 9,0 16,-2 22,-6 3,-3 5,-6 5,-10 0,-3 -1,-5 -3,-7 -2,-2 -7,-5 -16,-8 -24,-8 -39,-14 -44,-18 -9,-8 -14,-17 -14,-29 0,-11 5,-21 13,-30 12,-11 30,-17 54,-17 19,0 33,3 42,10 10,7 16,16 19,28l-37 7c-2,-6 -5,-10 -9,-12 -6,-4 -13,-6 -21,-6 -8,0 -14,2 -18,4 -4,3 -5,6 -5,10 0,4 2,7 5,9 2,1 10,4 22,8 19,5 32,11 39,16 9,8 14,17 14,28 0,14 -6,26 -18,36 -12,10 -28,16 -49,16 -21,0 -38,-4 -49,-12 -12,-8 -19,-19 -24,-33zm218 -65l-38 -3c4,-13 12,-23 23,-30 11,-8 25,-11 44,-11 18,0 32,4 41,11 9,8 14,17 14,28 0,4 0,9 -1,14 -1,5 -4,18 -9,39 -3,18 -5,30 -5,37 0,6 1,13 3,21l-39 0c-1,-5 -2,-11 -2,-17 -6,7 -13,12 -20,15 -8,4 -16,6 -23,6 -12,0 -22,-4 -30,-12 -8,-8 -12,-19 -12,-31 0,-14 4,-25 13,-34 9,-8 24,-13 46,-15 19,-2 32,-4 38,-6 2,-5 3,-10 3,-13 0,-4 -2,-8 -5,-11 -4,-3 -9,-4 -16,-4 -7,0 -12,1 -16,4 -4,3 -7,7 -9,12zm38 37c-2,1 -6,2 -9,2 -20,3 -33,6 -39,11 -5,3 -7,8 -7,13 0,5 2,9 5,12 3,3 8,5 13,5 6,0 12,-2 17,-4 5,-3 9,-7 12,-12 3,-4 5,-12 7,-21l1 -6zm0 -138l42 0 -45 42 -26 0 29 -42zm92 60l37 0 -6 28c14,-21 29,-31 45,-31 5,0 11,1 18,4l-15 32c-4,-1 -8,-2 -12,-2 -7,0 -14,3 -21,8 -7,5 -12,12 -16,21 -4,9 -8,22 -12,41l-9 46 -40 0 31 -147zm50 -35l24 -25 33 0 -41 42 -37 0 -17 -42 27 0 11 25zm152 -20l40 0 -8 36 -39 0 7 -36zm-11 55l39 0 -26 126c-8,34 -15,56 -20,63 -8,12 -22,17 -40,17 -12,0 -22,-1 -32,-4l7 -33c7,2 13,3 18,3 6,0 10,-2 14,-6 4,-5 8,-19 14,-44l26 -122zm190 86l-100 0c0,1 0,3 0,4 0,9 3,17 9,23 5,6 12,9 20,9 13,0 24,-6 31,-20l35 6c-7,14 -16,25 -27,32 -12,7 -25,11 -39,11 -20,0 -36,-7 -48,-19 -13,-13 -19,-29 -19,-50 0,-20 6,-38 17,-53 15,-22 37,-32 65,-32 18,0 32,5 43,16 10,12 15,27 15,47 0,10 -1,18 -2,26zm-34 -24c0,-2 0,-3 0,-4 0,-11 -2,-19 -7,-25 -5,-5 -11,-8 -20,-8 -8,0 -15,3 -22,9 -6,7 -10,16 -13,28l62 0zm226 30l38 6c-6,17 -16,30 -28,39 -13,9 -27,14 -43,14 -19,0 -34,-6 -45,-17 -10,-11 -16,-27 -16,-46 0,-16 3,-31 10,-45 7,-15 17,-26 30,-34 13,-8 28,-12 44,-12 17,0 31,4 41,13 10,9 16,21 17,36l-37 4c-1,-8 -4,-14 -8,-18 -4,-4 -9,-6 -16,-6 -7,0 -15,3 -21,9 -7,5 -12,14 -15,25 -4,12 -6,22 -6,32 0,9 2,16 7,20 4,5 9,8 15,8 7,0 13,-3 19,-7 6,-5 10,-12 14,-21zm-4 -127l24 -25 33 0 -41 42 -37 0 -17 -42 27 0 11 25zm104 -20l39 0 -7 36 -40 0 8 -36zm-12 55l40 0 -31 147 -40 0 31 -147zm43 106l38 -6c4,8 8,14 13,17 5,4 12,5 20,5 9,0 17,-2 22,-6 4,-3 6,-6 6,-10 0,-3 -1,-5 -3,-7 -2,-2 -8,-5 -17,-8 -24,-8 -38,-14 -44,-18 -9,-8 -13,-17 -13,-29 0,-11 4,-21 13,-30 12,-11 30,-17 53,-17 19,0 33,3 43,10 9,7 15,16 18,28l-36 7c-2,-6 -5,-10 -10,-12 -6,-4 -13,-6 -21,-6 -8,0 -14,2 -18,4 -3,3 -5,6 -5,10 0,4 2,7 6,9 2,1 9,4 22,8 19,5 32,11 38,16 9,8 14,17 14,28 0,14 -6,26 -18,36 -11,10 -28,16 -49,16 -21,0 -37,-4 -49,-12 -11,-8 -19,-19 -23,-33zm172 -76l6 -30 19 0 5 -22 45 -28 -10 50 24 0 -6 30 -24 0 -13 62c-3,11 -4,17 -4,19 0,3 1,5 3,7 2,1 5,2 10,2 2,0 7,0 14,-1l-7 30c-6,1 -13,2 -21,2 -13,0 -24,-3 -30,-9 -6,-5 -9,-12 -9,-22 0,-5 1,-15 5,-31l13 -59 -20 0zm96 -30l39 0 10 73c3,19 4,32 5,40 5,-15 12,-31 21,-47l35 -66 42 0 -91 161c-7,14 -13,23 -17,28 -5,6 -10,10 -16,13 -6,3 -13,4 -21,4 -9,0 -18,-1 -29,-4l4 -30c5,2 9,3 14,3 12,0 22,-10 30,-28l-26 -147zm81 -60l42 0 -44 42 -27 0 29 -42zm-7767 -713l1584 0 0 13 -1584 0 0 -13z"/>
  </g>
 </g>
</svg>
