<?xml version="1.0" encoding="UTF-8"?>
<!DOCTYPE svg PUBLIC "-//W3C//DTD SVG 1.0//EN" "http://www.w3.org/TR/2001/REC-SVG-20010904/DTD/svg10.dtd">
<!-- Creator: CorelDRAW X7 -->
<svg xmlns="http://www.w3.org/2000/svg" xml:space="preserve" width="145mm" height="24mm" version="1.0" style="shape-rendering:geometricPrecision; text-rendering:geometricPrecision; image-rendering:optimizeQuality; fill-rule:evenodd; clip-rule:evenodd"
viewBox="0 0 14500 2400"
 xmlns:xlink="http://www.w3.org/1999/xlink">
 <defs>
  <style type="text/css">
   <![CDATA[
    .str1 {stroke:#2B2A29;stroke-width:50}
    .str0 {stroke:#2B2A29;stroke-width:25}
    .str2 {stroke:#2B2A29;stroke-width:20}
    .fil1 {fill:none}
    .fil0 {fill:#2B2A29;fill-rule:nonzero}
   ]]>
  </style>
 </defs>
 <g id="Layer_x0020_1">
  <metadata id="CorelCorpID_0Corel-Layer"/>
  <g id="_696498016096">
   <path class="fil0" d="M844 572l0 -252 82 0c31,0 51,1 61,3 14,4 26,13 36,25 10,13 15,29 15,49 0,16 -3,29 -9,40 -6,10 -13,18 -21,24 -9,6 -18,10 -27,12 -12,3 -29,4 -52,4l-34 0 0 95 -51 0zm51 -210l0 72 28 0c20,0 34,-1 40,-4 7,-2 12,-6 16,-12 4,-6 6,-12 6,-20 0,-9 -3,-17 -8,-23 -5,-6 -12,-9 -21,-11 -6,-1 -18,-2 -36,-2l-25 0zm230 210l-48 0 0 -183 45 0 0 26c8,-12 15,-20 21,-24 6,-4 13,-6 21,-6 11,0 21,3 32,9l-15 43c-9,-6 -16,-8 -23,-8 -7,0 -13,2 -17,5 -5,4 -9,11 -12,21 -2,9 -4,30 -4,61l0 56zm127 -126l-43 -8c5,-18 13,-31 25,-40 12,-8 30,-13 54,-13 22,0 38,3 48,8 11,5 18,12 23,19 4,8 6,23 6,44l-1 56c0,16 1,28 3,36 1,7 4,16 8,24l-48 0c-1,-3 -3,-8 -4,-14 -1,-3 -2,-5 -2,-5 -8,8 -17,14 -27,18 -9,4 -19,6 -30,6 -18,0 -33,-5 -44,-15 -11,-11 -16,-24 -16,-39 0,-10 2,-20 7,-28 5,-8 12,-14 21,-18 9,-5 22,-8 38,-12 23,-4 39,-8 47,-12l0 -4c0,-10 -2,-17 -7,-21 -4,-4 -13,-6 -26,-6 -8,0 -15,2 -20,6 -5,3 -9,9 -12,18zm65 39c-6,2 -16,4 -29,7 -14,3 -22,6 -26,9 -7,4 -10,10 -10,17 0,7 3,12 8,17 5,5 11,8 19,8 9,0 17,-3 25,-9 6,-4 10,-10 11,-16 2,-4 2,-12 2,-24l0 -9zm255 -41l-48 8c-1,-9 -5,-17 -10,-21 -6,-5 -13,-8 -23,-8 -12,0 -21,5 -28,13 -8,8 -11,22 -11,42 0,22 3,37 11,46 7,9 17,13 29,13 9,0 17,-2 23,-7 5,-6 10,-15 12,-28l48 9c-5,21 -15,38 -29,49 -14,11 -33,17 -56,17 -27,0 -48,-9 -64,-25 -16,-17 -24,-41 -24,-71 0,-30 8,-53 24,-70 16,-17 38,-26 65,-26 22,0 40,5 53,15 13,9 22,24 28,44zm26 35c0,-17 4,-32 11,-47 8,-15 20,-27 34,-35 15,-8 31,-12 49,-12 27,0 50,9 68,27 17,18 26,41 26,69 0,27 -9,50 -26,69 -18,18 -41,27 -68,27 -17,0 -33,-4 -48,-11 -15,-8 -27,-19 -35,-34 -7,-15 -11,-32 -11,-53zm49 2c0,18 5,32 13,42 9,10 19,14 32,14 13,0 23,-4 32,-14 8,-10 13,-24 13,-42 0,-18 -5,-32 -13,-42 -9,-9 -19,-14 -32,-14 -13,0 -23,5 -32,14 -8,10 -13,24 -13,42zm228 91l-74 -183 51 0 34 94 10 31c3,-8 4,-13 5,-16 2,-5 3,-10 5,-15l35 -94 50 0 -73 183 -43 0zm312 0l-48 0 0 -93c0,-20 -1,-32 -3,-38 -2,-6 -6,-11 -11,-14 -4,-3 -10,-5 -16,-5 -9,0 -17,3 -23,7 -7,5 -12,11 -14,18 -3,8 -4,22 -4,43l0 82 -48 0 0 -183 45 0 0 27c16,-20 36,-31 60,-31 11,0 21,2 30,6 9,4 15,9 20,15 4,6 8,13 9,20 2,8 3,19 3,33l0 113zm49 0l0 -183 48 0 0 183 -48 0zm-8 -206l24 -52 54 0 -48 52 -30 0zm240 80l-44 -8c5,-18 14,-31 26,-40 12,-8 30,-13 54,-13 21,0 37,3 48,8 10,5 18,12 22,19 4,8 7,23 7,44l-1 56c0,16 1,28 2,36 2,7 5,16 9,24l-48 0c-1,-3 -3,-8 -5,-14 -1,-3 -1,-5 -2,-5 -8,8 -17,14 -26,18 -9,4 -19,6 -30,6 -19,0 -34,-5 -44,-15 -11,-11 -17,-24 -17,-39 0,-10 3,-20 8,-28 5,-8 12,-14 21,-18 8,-5 21,-8 38,-12 23,-4 38,-8 47,-12l0 -4c0,-10 -2,-17 -7,-21 -5,-4 -13,-6 -26,-6 -9,0 -15,2 -20,6 -5,3 -9,9 -12,18zm65 39c-6,2 -16,4 -29,7 -14,3 -23,6 -27,9 -6,4 -9,10 -9,17 0,7 2,12 7,17 5,5 12,8 20,8 8,0 17,-3 25,-9 5,-4 9,-10 11,-16 1,-4 2,-12 2,-24l0 -9zm263 87l-45 0 0 -27c-7,11 -16,19 -26,24 -10,5 -21,8 -31,8 -21,0 -39,-9 -54,-26 -15,-17 -23,-40 -23,-71 0,-31 8,-54 22,-70 15,-17 33,-25 56,-25 20,0 38,9 53,26l0 -91 48 0 0 252zm-129 -95c0,20 3,34 8,43 8,12 19,19 33,19 11,0 20,-5 28,-14 8,-10 12,-24 12,-43 0,-21 -4,-36 -11,-46 -8,-9 -18,-14 -30,-14 -11,0 -21,5 -28,14 -8,9 -12,23 -12,41zm223 95l-48 0 0 -183 44 0 0 26c8,-12 15,-20 21,-24 6,-4 13,-6 21,-6 11,0 22,3 32,9l-15 43c-8,-6 -16,-8 -23,-8 -6,0 -12,2 -17,5 -5,4 -8,11 -11,21 -3,9 -4,30 -4,61l0 56zm197 -58l48 9c-6,17 -16,31 -29,40 -14,9 -30,14 -50,14 -32,0 -56,-10 -71,-31 -12,-17 -18,-38 -18,-64 0,-30 8,-54 24,-71 16,-17 36,-26 60,-26 27,0 48,9 64,27 16,18 23,46 23,83l-121 0c0,14 4,26 11,34 8,8 17,12 28,12 8,0 14,-2 19,-7 5,-4 9,-10 12,-20zm3 -49c-1,-14 -4,-24 -11,-32 -7,-7 -15,-11 -25,-11 -11,0 -19,4 -26,12 -7,8 -11,18 -10,31l72 0zm70 56l49 -8c2,10 6,17 12,22 7,5 15,7 27,7 12,0 22,-2 28,-7 4,-3 6,-7 6,-13 0,-4 -1,-7 -3,-9 -3,-2 -8,-4 -16,-6 -39,-9 -64,-17 -75,-24 -14,-10 -21,-24 -21,-41 0,-16 6,-30 18,-40 13,-11 32,-17 59,-17 25,0 43,4 56,13 12,8 20,20 25,36l-46 9c-2,-8 -6,-13 -11,-17 -5,-4 -13,-6 -23,-6 -13,0 -22,2 -28,6 -4,2 -6,5 -6,9 0,4 2,7 5,9 5,3 20,8 46,14 26,6 44,13 54,21 10,9 15,21 15,37 0,16 -7,31 -21,43 -14,12 -35,18 -62,18 -25,0 -45,-5 -60,-15 -14,-10 -24,-24 -28,-41zm249 -75l-43 -8c5,-18 13,-31 25,-40 12,-8 30,-13 54,-13 22,0 38,3 48,8 11,5 18,12 22,19 5,8 7,23 7,44l-1 56c0,16 1,28 3,36 1,7 4,16 8,24l-48 0c-1,-3 -3,-8 -4,-14 -1,-3 -2,-5 -2,-5 -8,8 -17,14 -27,18 -9,4 -19,6 -30,6 -18,0 -33,-5 -44,-15 -11,-11 -16,-24 -16,-39 0,-10 2,-20 7,-28 5,-8 12,-14 21,-18 9,-5 22,-8 38,-12 23,-4 39,-8 47,-12l0 -4c0,-10 -2,-17 -7,-21 -4,-4 -13,-6 -26,-6 -8,0 -15,2 -20,6 -5,3 -9,9 -12,18zm65 39c-6,2 -16,4 -29,7 -14,3 -22,6 -26,9 -7,4 -10,10 -10,17 0,7 3,12 8,17 5,5 11,8 19,8 9,0 17,-3 25,-9 6,-4 10,-10 11,-16 2,-4 2,-12 2,-24l0 -9zm-59 -119l24 -52 54 0 -48 52 -30 0zm201 206l-48 0 0 -183 44 0 0 26c8,-12 15,-20 21,-24 6,-4 13,-6 21,-6 11,0 22,3 32,9l-15 43c-8,-6 -16,-8 -23,-8 -7,0 -12,2 -17,5 -5,4 -8,11 -11,21 -3,9 -4,30 -4,61l0 56zm-51 -257l39 0 19 26 20 -26 38 0 -35 51 -45 0 -36 -51z"/>
   <polyline class="fil1 str0" points="13,900 13,875 13,13 13,0 "/>
   <polyline class="fil1 str0" points="4488,900 4488,875 4488,13 4488,0 "/>
   <polyline class="fil1 str0" points="0,13 13,13 4488,13 4500,13 "/>
   <polyline class="fil1 str1" points="0,875 13,875 4488,875 4500,875 "/>
   <path class="fil0" d="M6813 572l0 -252 51 0 0 252 -51 0zm266 0l-48 0 0 -93c0,-20 -1,-32 -3,-38 -2,-6 -6,-11 -10,-14 -5,-3 -11,-5 -17,-5 -9,0 -16,3 -23,7 -7,5 -11,11 -14,18 -2,8 -4,22 -4,43l0 82 -48 0 0 -183 45 0 0 27c16,-20 36,-31 60,-31 11,0 21,2 30,6 9,4 15,9 20,15 5,6 8,13 10,20 1,8 2,19 2,33l0 113zm217 0l-45 0 0 -27c-7,11 -16,19 -26,24 -10,5 -21,8 -31,8 -21,0 -39,-9 -54,-26 -15,-17 -23,-40 -23,-71 0,-31 8,-54 22,-70 15,-17 33,-25 56,-25 20,0 38,9 53,26l0 -91 48 0 0 252zm-129 -95c0,20 3,34 8,43 8,12 19,19 33,19 11,0 20,-5 28,-14 8,-10 12,-24 12,-43 0,-21 -4,-36 -12,-46 -7,-9 -17,-14 -29,-14 -11,0 -21,5 -28,14 -8,9 -12,23 -12,41zm283 37l48 9c-6,17 -16,31 -29,40 -14,9 -31,14 -51,14 -32,0 -55,-10 -70,-31 -12,-17 -18,-38 -18,-64 0,-30 8,-54 23,-71 16,-17 36,-26 60,-26 28,0 49,9 65,27 16,18 23,46 22,83l-121 0c1,14 5,26 12,34 7,8 17,12 28,12 7,0 14,-2 19,-7 5,-4 9,-10 12,-20zm2 -49c0,-14 -4,-24 -10,-32 -7,-7 -16,-11 -26,-11 -10,0 -19,4 -26,12 -7,8 -10,18 -10,31l72 0zm64 107l66 -94 -63 -89 59 0 33 51 34 -51 57 0 -62 87 67 96 -59 0 -37 -56 -38 56 -57 0z"/>
   <polyline class="fil1 str0" points="5013,900 5013,875 5013,13 5013,0 "/>
   <polyline class="fil1 str0" points="9488,900 9488,875 9488,13 9488,0 "/>
   <polyline class="fil1 str0" points="5000,13 5013,13 9488,13 9500,13 "/>
   <polyline class="fil1 str1" points="5000,875 5013,875 9488,875 9500,875 "/>
   <path class="fil0" d="M11776 572l0 -252 51 0 0 99 100 0 0 -99 51 0 0 252 -51 0 0 -110 -100 0 0 110 -51 0zm255 0l0 -252 187 0 0 42 -136 0 0 57 126 0 0 42 -126 0 0 69 141 0 0 42 -192 0zm463 0l-56 0 -21 -57 -102 0 -21 57 -54 0 98 -252 54 0 102 252zm-94 -100l-35 -93 -34 93 69 0zm121 -152l93 0c21,0 37,1 48,5 15,4 27,12 38,23 10,11 18,25 24,41 5,16 8,36 8,59 0,21 -2,39 -8,54 -6,19 -15,33 -27,45 -8,8 -20,15 -35,20 -12,4 -27,5 -45,5l-96 0 0 -252zm51 42l0 168 38 0c14,0 24,-1 31,-3 8,-2 15,-5 20,-10 6,-5 10,-13 13,-25 4,-11 6,-26 6,-46 0,-19 -2,-34 -6,-45 -3,-10 -8,-18 -14,-24 -6,-6 -14,-10 -24,-12 -7,-2 -21,-3 -41,-3l-23 0z"/>
   <polyline class="fil1 str0" points="10013,900 10013,875 10013,13 10013,0 "/>
   <polyline class="fil1 str0" points="14488,900 14488,875 14488,13 14488,0 "/>
   <polyline class="fil1 str0" points="10000,13 10013,13 14488,13 14500,13 "/>
   <polyline class="fil1 str1" points="10000,875 10013,875 14488,875 14500,875 "/>
   <path class="fil0" d="M1706 1696l0 -228 26 0 0 22c6,-9 12,-15 20,-19 7,-4 17,-7 27,-7 14,0 27,4 38,11 10,8 18,18 24,31 5,13 8,27 8,43 0,17 -3,32 -9,46 -6,13 -15,23 -26,30 -12,8 -24,11 -37,11 -9,0 -17,-2 -25,-6 -7,-4 -13,-8 -18,-14l0 80 -28 0zm26 -145c0,21 4,37 12,47 9,10 19,15 32,15 12,0 22,-5 31,-15 9,-11 13,-27 13,-49 0,-21 -4,-37 -12,-47 -9,-10 -19,-16 -31,-16 -12,0 -23,6 -32,17 -9,11 -13,27 -13,48zm150 82l0 -165 26 0 0 25c6,-11 12,-19 17,-23 6,-4 12,-6 18,-6 10,0 19,3 29,9l-10 26c-7,-4 -14,-6 -20,-6 -6,0 -12,2 -17,6 -4,4 -8,9 -10,15 -3,10 -5,21 -5,33l0 86 -28 0zm214 -21c-10,9 -20,15 -30,19 -9,3 -20,5 -31,5 -18,0 -32,-4 -41,-13 -10,-9 -15,-20 -15,-34 0,-8 2,-15 5,-22 4,-6 9,-12 15,-16 6,-4 13,-7 20,-9 6,-1 14,-3 25,-4 22,-3 39,-6 50,-10 0,-4 0,-6 0,-7 0,-11 -3,-19 -8,-24 -7,-6 -18,-9 -32,-9 -13,0 -23,2 -29,7 -6,4 -11,12 -14,24l-27 -4c2,-11 6,-21 12,-28 6,-7 14,-13 25,-17 11,-4 23,-6 37,-6 14,0 26,2 35,5 8,4 15,8 19,13 4,5 7,11 9,19 1,5 1,13 1,26l0 37c0,26 1,42 2,49 1,7 3,13 7,20l-29 0c-3,-6 -5,-13 -6,-21zm-2 -62c-10,4 -25,8 -46,11 -11,1 -19,3 -24,5 -5,2 -9,5 -11,9 -3,4 -4,9 -4,13 0,8 3,14 8,19 6,5 14,7 25,7 11,0 20,-2 29,-7 8,-4 14,-11 18,-19 3,-6 5,-15 5,-28l0 -10zm-59 -102l20 -44 37 0 -34 44 -23 0zm115 185l0 -23 105 -120c-12,0 -23,1 -32,1l-66 0 0 -23 134 0 0 18 -89 105 -17 19c12,-1 24,-1 35,-1l76 0 0 24 -146 0zm280 0l0 -21c-10,16 -26,24 -46,24 -13,0 -25,-3 -36,-11 -11,-7 -20,-17 -26,-30 -6,-13 -9,-28 -9,-44 0,-17 3,-32 9,-45 5,-13 13,-24 24,-31 11,-7 23,-11 37,-11 10,0 19,3 26,7 8,4 14,9 19,16l0 -82 28 0 0 228 -26 0zm-88 -82c0,21 4,36 13,47 9,10 20,15 32,15 12,0 22,-5 31,-15 9,-9 13,-25 13,-45 0,-23 -5,-39 -13,-50 -9,-10 -20,-15 -32,-15 -13,0 -23,5 -32,15 -8,10 -12,26 -12,48zm158 82l0 -165 25 0 0 23c13,-18 30,-27 53,-27 10,0 19,2 27,6 8,3 15,8 19,14 4,6 7,12 9,20 1,6 1,15 1,28l0 101 -28 0 0 -100c0,-12 -1,-20 -3,-26 -2,-5 -6,-10 -12,-13 -5,-4 -12,-5 -19,-5 -12,0 -22,3 -31,11 -8,7 -13,22 -13,43l0 90 -28 0zm176 63l-3 -26c6,2 11,3 16,3 6,0 11,-1 14,-3 4,-2 7,-5 10,-9 1,-3 4,-10 8,-21 1,-1 1,-4 3,-7l-63 -165 30 0 34 95c5,12 9,25 12,38 4,-12 7,-25 12,-37l35 -96 28 0 -62 168c-7,18 -12,30 -16,37 -5,9 -11,16 -17,20 -7,4 -14,6 -23,6 -6,0 -12,-1 -18,-3zm44 -248l20 -44 37 0 -34 44 -23 0zm-1455 606c-15,-19 -28,-42 -39,-68 -10,-26 -15,-53 -15,-81 0,-25 3,-48 11,-71 10,-26 24,-52 43,-78l20 0c-12,22 -20,37 -24,46 -7,15 -12,29 -15,45 -5,19 -7,39 -7,58 0,50 16,100 46,149l-20 0zm38 -67l0 -22 104 -121c-11,1 -22,1 -31,1l-67 0 0 -22 135 0 0 18 -90 104 -17 20c13,-1 25,-2 36,-2l76 0 0 24 -146 0zm77 -202l18 -26 31 0 -35 43 -29 0 -34 -43 32 0 17 26zm204 182c-10,9 -20,15 -30,18 -9,4 -20,6 -31,6 -18,0 -32,-4 -41,-13 -10,-9 -15,-20 -15,-34 0,-8 2,-15 6,-22 3,-7 8,-12 14,-16 6,-4 13,-7 20,-9 6,-2 14,-3 25,-4 23,-3 39,-6 50,-10 0,-4 0,-6 0,-7 0,-12 -3,-20 -8,-24 -7,-7 -18,-10 -32,-10 -13,0 -23,3 -29,7 -6,5 -11,13 -14,25l-27 -4c2,-12 6,-21 12,-28 6,-8 14,-13 25,-17 11,-4 23,-6 37,-6 14,0 26,2 35,5 9,3 15,8 19,13 4,5 7,11 9,19 1,4 1,13 1,25l0 37c0,26 1,43 2,50 1,6 3,13 7,19l-29 0c-3,-5 -5,-12 -6,-20zm-2 -62c-10,4 -25,8 -46,10 -11,2 -19,4 -24,6 -5,2 -9,5 -11,9 -3,4 -4,8 -4,13 0,8 3,14 8,19 6,5 14,7 25,7 11,0 20,-2 29,-7 8,-5 14,-11 18,-19 3,-6 5,-16 5,-28l0 -10zm-59 -103l21 -43 36 0 -34 43 -23 0zm237 185l0 -20c-11,16 -26,24 -47,24 -13,0 -25,-4 -36,-11 -11,-7 -19,-17 -25,-30 -6,-13 -9,-28 -9,-45 0,-16 2,-31 8,-44 5,-14 14,-24 25,-31 10,-7 23,-11 36,-11 10,0 19,2 27,6 7,5 14,10 19,17l0 -82 28 0 0 227 -26 0zm-89 -82c0,21 5,37 14,47 9,11 19,16 31,16 12,0 23,-5 31,-15 9,-10 13,-25 13,-45 0,-23 -4,-39 -13,-50 -9,-10 -19,-16 -32,-16 -13,0 -23,5 -31,15 -9,11 -13,27 -13,48zm159 82l0 -164 25 0 0 23c12,-18 29,-27 52,-27 10,0 19,2 28,6 8,3 14,8 18,14 4,5 7,12 9,20 1,5 1,14 1,27l0 101 -28 0 0 -100c0,-11 -1,-20 -3,-25 -2,-6 -6,-10 -11,-14 -6,-3 -12,-5 -20,-5 -12,0 -22,4 -30,12 -9,7 -13,21 -13,43l0 89 -28 0zm175 64l-3 -26c6,2 11,2 16,2 6,0 11,-1 15,-3 4,-2 7,-5 9,-8 2,-3 5,-10 9,-21 0,-2 1,-4 2,-7l-63 -165 30 0 35 95c4,12 8,25 12,38 3,-13 7,-25 11,-37l35 -96 28 0 -62 167c-7,18 -12,31 -16,38 -5,9 -10,15 -17,20 -6,4 -14,6 -23,6 -5,0 -11,-1 -18,-3zm44 -249l20 -43 37 0 -34 43 -23 0zm193 136l28 -4c1,11 6,19 13,25 7,6 17,9 30,9 12,0 22,-3 28,-8 6,-5 9,-11 9,-18 0,-6 -2,-11 -8,-15 -4,-2 -13,-6 -28,-9 -21,-6 -35,-10 -43,-14 -8,-4 -14,-9 -18,-15 -4,-7 -6,-14 -6,-22 0,-8 2,-15 5,-21 3,-6 8,-11 14,-15 4,-4 10,-6 17,-8 8,-3 16,-4 24,-4 13,0 25,2 34,6 10,3 17,9 22,15 5,6 8,15 10,26l-28 3c-1,-8 -4,-15 -10,-20 -6,-5 -15,-7 -26,-7 -12,0 -21,2 -27,6 -5,5 -8,10 -8,15 0,4 1,7 3,10 3,3 6,5 11,7 3,2 11,4 25,8 19,5 33,9 41,13 8,3 14,8 18,14 5,7 7,14 7,24 0,9 -3,18 -8,26 -6,8 -13,15 -24,19 -10,5 -21,7 -34,7 -22,0 -38,-5 -49,-13 -12,-9 -19,-22 -22,-40zm160 -33c0,-30 8,-53 25,-68 14,-12 31,-18 52,-18 22,0 41,8 55,22 15,15 22,36 22,62 0,21 -3,38 -10,50 -6,12 -15,21 -27,28 -13,7 -26,10 -40,10 -23,0 -42,-7 -56,-22 -14,-15 -21,-36 -21,-64zm28 0c0,21 5,37 14,47 9,11 21,16 35,16 14,0 25,-5 34,-16 10,-10 14,-26 14,-48 0,-20 -4,-36 -14,-46 -9,-10 -20,-16 -34,-16 -14,0 -26,6 -35,16 -9,10 -14,26 -14,47zm266 82l0 -24c-13,19 -30,28 -52,28 -10,0 -19,-2 -27,-6 -8,-3 -15,-8 -19,-14 -4,-5 -7,-12 -8,-20 -1,-6 -2,-15 -2,-26l0 -102 28 0 0 91c0,14 1,24 2,29 1,8 5,13 11,18 5,4 12,6 21,6 8,0 16,-2 23,-7 8,-4 13,-10 16,-17 3,-7 4,-18 4,-32l0 -88 28 0 0 164 -25 0zm95 0l-26 0 0 -227 28 0 0 81c12,-14 27,-22 45,-22 10,0 20,2 29,6 9,4 16,10 22,17 6,8 11,17 14,27 3,11 5,22 5,34 0,28 -7,50 -21,65 -14,15 -31,23 -50,23 -20,0 -35,-8 -46,-24l0 20zm0 -83c0,20 2,34 8,43 8,14 20,21 35,21 12,0 23,-5 32,-16 9,-10 13,-26 13,-47 0,-22 -4,-37 -13,-48 -8,-10 -18,-15 -30,-15 -13,0 -23,5 -32,16 -9,10 -13,26 -13,46zm140 1c0,-30 9,-53 26,-68 14,-12 31,-18 52,-18 22,0 41,8 55,22 14,15 22,36 22,62 0,21 -4,38 -10,50 -6,12 -16,21 -28,28 -12,7 -25,10 -39,10 -24,0 -42,-7 -56,-22 -15,-15 -22,-36 -22,-64zm29 0c0,21 4,37 14,47 9,11 21,16 35,16 13,0 25,-5 34,-16 9,-10 14,-26 14,-48 0,-20 -5,-36 -14,-46 -9,-10 -21,-16 -34,-16 -14,0 -26,6 -35,16 -10,10 -14,26 -14,47zm158 82l0 -164 25 0 0 25c7,-12 12,-20 18,-23 5,-4 11,-6 18,-6 9,0 19,3 29,9l-10 26c-7,-4 -14,-6 -21,-6 -6,0 -11,2 -16,6 -5,3 -8,8 -10,15 -3,10 -5,21 -5,32l0 86 -28 0zm125 67l-20 0c30,-49 46,-99 46,-149 0,-19 -2,-38 -7,-58 -3,-15 -8,-30 -15,-44 -4,-9 -12,-25 -24,-47l20 0c19,26 33,52 43,78 7,23 11,46 11,71 0,28 -5,55 -16,81 -10,26 -23,49 -38,68z"/>
   <polygon class="fil1 str2" points="10,1010 4490,1010 4490,2390 10,2390 "/>
   <path class="fil0" d="M6706 1696l0 -228 26 0 0 22c6,-9 12,-15 20,-19 7,-4 17,-7 27,-7 14,0 27,4 38,11 10,8 18,18 24,31 5,13 8,27 8,43 0,17 -3,32 -9,46 -6,13 -15,23 -26,30 -12,8 -24,11 -37,11 -9,0 -17,-2 -25,-6 -7,-4 -13,-8 -18,-14l0 80 -28 0zm26 -145c0,21 4,37 12,47 9,10 19,15 32,15 12,0 22,-5 31,-15 9,-11 13,-27 13,-49 0,-21 -4,-37 -12,-47 -9,-10 -19,-16 -31,-16 -12,0 -23,6 -32,17 -9,11 -13,27 -13,48zm150 82l0 -165 26 0 0 25c6,-11 12,-19 17,-23 6,-4 12,-6 18,-6 10,0 19,3 29,9l-10 26c-7,-4 -14,-6 -20,-6 -6,0 -12,2 -17,6 -4,4 -8,9 -10,15 -3,10 -5,21 -5,33l0 86 -28 0zm214 -21c-10,9 -20,15 -30,19 -9,3 -20,5 -31,5 -18,0 -32,-4 -41,-13 -10,-9 -15,-20 -15,-34 0,-8 2,-15 5,-22 4,-6 9,-12 15,-16 6,-4 13,-7 20,-9 6,-1 14,-3 25,-4 22,-3 39,-6 50,-10 0,-4 0,-6 0,-7 0,-11 -3,-19 -8,-24 -7,-6 -18,-9 -32,-9 -13,0 -23,2 -29,7 -6,4 -11,12 -14,24l-27 -4c2,-11 6,-21 12,-28 6,-7 14,-13 25,-17 11,-4 23,-6 37,-6 14,0 26,2 35,5 8,4 15,8 19,13 4,5 7,11 9,19 1,5 1,13 1,26l0 37c0,26 1,42 2,49 1,7 3,13 7,20l-29 0c-3,-6 -5,-13 -6,-21zm-2 -62c-10,4 -25,8 -46,11 -11,1 -19,3 -24,5 -5,2 -9,5 -11,9 -3,4 -4,9 -4,13 0,8 3,14 8,19 6,5 14,7 25,7 11,0 20,-2 29,-7 8,-4 14,-11 18,-19 3,-6 5,-15 5,-28l0 -10zm-59 -102l20 -44 37 0 -34 44 -23 0zm115 185l0 -23 105 -120c-12,0 -23,1 -32,1l-66 0 0 -23 134 0 0 18 -89 105 -17 19c12,-1 24,-1 35,-1l76 0 0 24 -146 0zm280 0l0 -21c-10,16 -26,24 -46,24 -13,0 -25,-3 -36,-11 -11,-7 -20,-17 -26,-30 -6,-13 -9,-28 -9,-44 0,-17 3,-32 9,-45 5,-13 13,-24 24,-31 11,-7 23,-11 37,-11 10,0 19,3 26,7 8,4 14,9 19,16l0 -82 28 0 0 228 -26 0zm-88 -82c0,21 4,36 13,47 9,10 20,15 32,15 12,0 22,-5 31,-15 9,-9 13,-25 13,-45 0,-23 -5,-39 -13,-50 -9,-10 -20,-15 -32,-15 -13,0 -23,5 -32,15 -8,10 -12,26 -12,48zm158 82l0 -165 25 0 0 23c13,-18 30,-27 53,-27 10,0 19,2 27,6 8,3 15,8 19,14 4,6 7,12 9,20 1,6 1,15 1,28l0 101 -28 0 0 -100c0,-12 -1,-20 -3,-26 -2,-5 -6,-10 -12,-13 -5,-4 -12,-5 -19,-5 -12,0 -22,3 -31,11 -8,7 -13,22 -13,43l0 90 -28 0zm176 63l-3 -26c6,2 11,3 16,3 6,0 11,-1 14,-3 4,-2 7,-5 10,-9 1,-3 4,-10 8,-21 1,-1 1,-4 3,-7l-63 -165 30 0 34 95c5,12 9,25 12,38 4,-12 7,-25 12,-37l35 -96 28 0 -62 168c-7,18 -12,30 -16,37 -5,9 -11,16 -17,20 -7,4 -14,6 -23,6 -6,0 -12,-1 -18,-3zm44 -248l20 -44 37 0 -34 44 -23 0zm-1455 606c-15,-19 -28,-42 -39,-68 -10,-26 -15,-53 -15,-81 0,-25 3,-48 11,-71 10,-26 24,-52 43,-78l20 0c-12,22 -20,37 -24,46 -7,15 -12,29 -15,45 -5,19 -7,39 -7,58 0,50 16,100 46,149l-20 0zm38 -67l0 -22 104 -121c-11,1 -22,1 -31,1l-67 0 0 -22 135 0 0 18 -90 104 -17 20c13,-1 25,-2 36,-2l76 0 0 24 -146 0zm77 -202l18 -26 31 0 -35 43 -29 0 -34 -43 32 0 17 26zm204 182c-10,9 -20,15 -30,18 -9,4 -20,6 -31,6 -18,0 -32,-4 -41,-13 -10,-9 -15,-20 -15,-34 0,-8 2,-15 6,-22 3,-7 8,-12 14,-16 6,-4 13,-7 20,-9 6,-2 14,-3 25,-4 23,-3 39,-6 50,-10 0,-4 0,-6 0,-7 0,-12 -3,-20 -8,-24 -7,-7 -18,-10 -32,-10 -13,0 -23,3 -29,7 -6,5 -11,13 -14,25l-27 -4c2,-12 6,-21 12,-28 6,-8 14,-13 25,-17 11,-4 23,-6 37,-6 14,0 26,2 35,5 9,3 15,8 19,13 4,5 7,11 9,19 1,4 1,13 1,25l0 37c0,26 1,43 2,50 1,6 3,13 7,19l-29 0c-3,-5 -5,-12 -6,-20zm-2 -62c-10,4 -25,8 -46,10 -11,2 -19,4 -24,6 -5,2 -9,5 -11,9 -3,4 -4,8 -4,13 0,8 3,14 8,19 6,5 14,7 25,7 11,0 20,-2 29,-7 8,-5 14,-11 18,-19 3,-6 5,-16 5,-28l0 -10zm-59 -103l21 -43 36 0 -34 43 -23 0zm237 185l0 -20c-11,16 -26,24 -47,24 -13,0 -25,-4 -36,-11 -11,-7 -19,-17 -25,-30 -6,-13 -9,-28 -9,-45 0,-16 2,-31 8,-44 5,-14 14,-24 25,-31 10,-7 23,-11 36,-11 10,0 19,2 27,6 7,5 14,10 19,17l0 -82 28 0 0 227 -26 0zm-89 -82c0,21 5,37 14,47 9,11 19,16 31,16 12,0 23,-5 31,-15 9,-10 13,-25 13,-45 0,-23 -4,-39 -13,-50 -9,-10 -19,-16 -32,-16 -13,0 -23,5 -31,15 -9,11 -13,27 -13,48zm159 82l0 -164 25 0 0 23c12,-18 29,-27 52,-27 10,0 19,2 28,6 8,3 14,8 18,14 4,5 7,12 9,20 1,5 1,14 1,27l0 101 -28 0 0 -100c0,-11 -1,-20 -3,-25 -2,-6 -6,-10 -11,-14 -6,-3 -12,-5 -20,-5 -12,0 -22,4 -30,12 -9,7 -13,21 -13,43l0 89 -28 0zm175 64l-3 -26c6,2 11,2 16,2 6,0 11,-1 15,-3 4,-2 7,-5 9,-8 2,-3 5,-10 9,-21 0,-2 1,-4 2,-7l-63 -165 30 0 35 95c4,12 8,25 12,38 3,-13 7,-25 11,-37l35 -96 28 0 -62 167c-7,18 -12,31 -16,38 -5,9 -10,15 -17,20 -6,4 -14,6 -23,6 -5,0 -11,-1 -18,-3zm44 -249l20 -43 37 0 -34 43 -23 0zm193 136l28 -4c1,11 6,19 13,25 7,6 17,9 30,9 12,0 22,-3 28,-8 6,-5 9,-11 9,-18 0,-6 -2,-11 -8,-15 -4,-2 -13,-6 -28,-9 -21,-6 -35,-10 -43,-14 -8,-4 -14,-9 -18,-15 -4,-7 -6,-14 -6,-22 0,-8 2,-15 5,-21 3,-6 8,-11 14,-15 4,-4 10,-6 17,-8 8,-3 16,-4 24,-4 13,0 25,2 34,6 10,3 17,9 22,15 5,6 8,15 10,26l-28 3c-1,-8 -4,-15 -10,-20 -6,-5 -15,-7 -26,-7 -12,0 -21,2 -27,6 -5,5 -8,10 -8,15 0,4 1,7 3,10 3,3 6,5 11,7 3,2 11,4 25,8 19,5 33,9 41,13 8,3 14,8 18,14 5,7 7,14 7,24 0,9 -3,18 -8,26 -6,8 -13,15 -24,19 -10,5 -21,7 -34,7 -22,0 -38,-5 -49,-13 -12,-9 -19,-22 -22,-40zm160 -33c0,-30 8,-53 25,-68 14,-12 31,-18 52,-18 22,0 41,8 55,22 15,15 22,36 22,62 0,21 -3,38 -10,50 -6,12 -15,21 -27,28 -13,7 -26,10 -40,10 -23,0 -42,-7 -56,-22 -14,-15 -21,-36 -21,-64zm28 0c0,21 5,37 14,47 9,11 21,16 35,16 14,0 25,-5 34,-16 10,-10 14,-26 14,-48 0,-20 -4,-36 -14,-46 -9,-10 -20,-16 -34,-16 -14,0 -26,6 -35,16 -9,10 -14,26 -14,47zm266 82l0 -24c-13,19 -30,28 -52,28 -10,0 -19,-2 -27,-6 -8,-3 -15,-8 -19,-14 -4,-5 -7,-12 -8,-20 -1,-6 -2,-15 -2,-26l0 -102 28 0 0 91c0,14 1,24 2,29 1,8 5,13 11,18 5,4 12,6 21,6 8,0 16,-2 23,-7 8,-4 13,-10 16,-17 3,-7 4,-18 4,-32l0 -88 28 0 0 164 -25 0zm95 0l-26 0 0 -227 28 0 0 81c12,-14 27,-22 45,-22 10,0 20,2 29,6 9,4 16,10 22,17 6,8 11,17 14,27 3,11 5,22 5,34 0,28 -7,50 -21,65 -14,15 -31,23 -50,23 -20,0 -35,-8 -46,-24l0 20zm0 -83c0,20 2,34 8,43 8,14 20,21 35,21 12,0 23,-5 32,-16 9,-10 13,-26 13,-47 0,-22 -4,-37 -13,-48 -8,-10 -18,-15 -30,-15 -13,0 -23,5 -32,16 -9,10 -13,26 -13,46zm140 1c0,-30 9,-53 26,-68 14,-12 31,-18 52,-18 22,0 41,8 55,22 14,15 22,36 22,62 0,21 -4,38 -10,50 -6,12 -16,21 -28,28 -12,7 -25,10 -39,10 -24,0 -42,-7 -56,-22 -15,-15 -22,-36 -22,-64zm29 0c0,21 4,37 14,47 9,11 21,16 35,16 13,0 25,-5 34,-16 9,-10 14,-26 14,-48 0,-20 -5,-36 -14,-46 -9,-10 -21,-16 -34,-16 -14,0 -26,6 -35,16 -10,10 -14,26 -14,47zm158 82l0 -164 25 0 0 25c7,-12 12,-20 18,-23 5,-4 11,-6 18,-6 9,0 19,3 29,9l-10 26c-7,-4 -14,-6 -21,-6 -6,0 -11,2 -16,6 -5,3 -8,8 -10,15 -3,10 -5,21 -5,32l0 86 -28 0zm125 67l-20 0c30,-49 46,-99 46,-149 0,-19 -2,-38 -7,-58 -3,-15 -8,-30 -15,-44 -4,-9 -12,-25 -24,-47l20 0c19,26 33,52 43,78 7,23 11,46 11,71 0,28 -5,55 -16,81 -10,26 -23,49 -38,68z"/>
   <polygon class="fil1 str2" points="5010,1010 9490,1010 9490,2390 5010,2390 "/>
   <path class="fil0" d="M11706 1696l0 -228 26 0 0 22c6,-9 12,-15 20,-19 7,-4 17,-7 27,-7 14,0 27,4 38,11 10,8 18,18 24,31 5,13 8,27 8,43 0,17 -3,32 -9,46 -6,13 -15,23 -26,30 -12,8 -24,11 -37,11 -9,0 -17,-2 -25,-6 -7,-4 -13,-8 -18,-14l0 80 -28 0zm26 -145c0,21 4,37 12,47 9,10 19,15 32,15 12,0 22,-5 31,-15 9,-11 13,-27 13,-49 0,-21 -4,-37 -12,-47 -9,-10 -19,-16 -31,-16 -12,0 -23,6 -32,17 -9,11 -13,27 -13,48zm150 82l0 -165 26 0 0 25c6,-11 12,-19 17,-23 6,-4 12,-6 18,-6 10,0 19,3 29,9l-10 26c-7,-4 -14,-6 -20,-6 -6,0 -12,2 -17,6 -4,4 -8,9 -10,15 -3,10 -5,21 -5,33l0 86 -28 0zm214 -21c-10,9 -20,15 -30,19 -9,3 -20,5 -31,5 -18,0 -32,-4 -41,-13 -10,-9 -15,-20 -15,-34 0,-8 2,-15 5,-22 4,-6 9,-12 15,-16 6,-4 13,-7 20,-9 6,-1 14,-3 25,-4 22,-3 39,-6 50,-10 0,-4 0,-6 0,-7 0,-11 -3,-19 -8,-24 -7,-6 -18,-9 -32,-9 -13,0 -23,2 -29,7 -6,4 -11,12 -14,24l-27 -4c2,-11 6,-21 12,-28 6,-7 14,-13 25,-17 11,-4 23,-6 37,-6 14,0 26,2 35,5 8,4 15,8 19,13 4,5 7,11 9,19 1,5 1,13 1,26l0 37c0,26 1,42 2,49 1,7 3,13 7,20l-29 0c-3,-6 -5,-13 -6,-21zm-2 -62c-10,4 -25,8 -46,11 -11,1 -19,3 -24,5 -5,2 -9,5 -11,9 -3,4 -4,9 -4,13 0,8 3,14 8,19 6,5 14,7 25,7 11,0 20,-2 29,-7 8,-4 14,-11 18,-19 3,-6 5,-15 5,-28l0 -10zm-59 -102l20 -44 37 0 -34 44 -23 0zm115 185l0 -23 105 -120c-12,0 -23,1 -32,1l-66 0 0 -23 134 0 0 18 -89 105 -17 19c12,-1 24,-1 35,-1l76 0 0 24 -146 0zm280 0l0 -21c-10,16 -26,24 -46,24 -13,0 -25,-3 -36,-11 -11,-7 -20,-17 -26,-30 -6,-13 -9,-28 -9,-44 0,-17 3,-32 9,-45 5,-13 13,-24 24,-31 11,-7 23,-11 37,-11 10,0 19,3 26,7 8,4 14,9 19,16l0 -82 28 0 0 228 -26 0zm-88 -82c0,21 4,36 13,47 9,10 20,15 32,15 12,0 22,-5 31,-15 9,-9 13,-25 13,-45 0,-23 -5,-39 -13,-50 -9,-10 -20,-15 -32,-15 -13,0 -23,5 -32,15 -8,10 -12,26 -12,48zm158 82l0 -165 25 0 0 23c13,-18 30,-27 53,-27 10,0 19,2 27,6 8,3 15,8 19,14 4,6 7,12 9,20 1,6 1,15 1,28l0 101 -28 0 0 -100c0,-12 -1,-20 -3,-26 -2,-5 -6,-10 -12,-13 -5,-4 -12,-5 -19,-5 -12,0 -22,3 -31,11 -8,7 -13,22 -13,43l0 90 -28 0zm176 63l-3 -26c6,2 11,3 16,3 6,0 11,-1 14,-3 4,-2 7,-5 10,-9 1,-3 4,-10 8,-21 1,-1 1,-4 3,-7l-63 -165 30 0 34 95c5,12 9,25 12,38 4,-12 7,-25 12,-37l35 -96 28 0 -62 168c-7,18 -12,30 -16,37 -5,9 -11,16 -17,20 -7,4 -14,6 -23,6 -6,0 -12,-1 -18,-3zm44 -248l20 -44 37 0 -34 44 -23 0zm-1481 606c-15,-19 -28,-42 -39,-68 -10,-26 -16,-53 -16,-81 0,-25 4,-48 12,-71 10,-26 24,-52 43,-78l20 0c-12,22 -20,37 -24,46 -7,15 -12,29 -15,45 -5,19 -7,39 -7,58 0,50 15,100 46,149l-20 0zm38 -67l0 -22 104 -121c-12,1 -22,1 -31,1l-67 0 0 -22 135 0 0 18 -90 104 -17 20c13,-1 24,-2 35,-2l77 0 0 24 -146 0zm77 -202l18 -26 31 0 -35 43 -30 0 -33 -43 32 0 17 26zm204 182c-10,9 -20,15 -30,18 -9,4 -20,6 -31,6 -18,0 -32,-4 -41,-13 -10,-9 -15,-20 -15,-34 0,-8 2,-15 5,-22 4,-7 9,-12 15,-16 6,-4 13,-7 20,-9 6,-2 14,-3 25,-4 22,-3 39,-6 50,-10 0,-4 0,-6 0,-7 0,-12 -3,-20 -8,-24 -7,-7 -18,-10 -32,-10 -13,0 -23,3 -29,7 -6,5 -11,13 -14,25l-27 -4c2,-12 6,-21 12,-28 6,-8 14,-13 25,-17 10,-4 23,-6 37,-6 14,0 26,2 35,5 8,3 15,8 19,13 4,5 7,11 9,19 1,4 1,13 1,25l0 37c0,26 1,43 2,50 1,6 3,13 7,19l-29 0c-3,-5 -5,-12 -6,-20zm-2 -62c-10,4 -26,8 -46,10 -11,2 -20,4 -24,6 -5,2 -9,5 -11,9 -3,4 -4,8 -4,13 0,8 3,14 8,19 6,5 14,7 25,7 11,0 20,-2 29,-7 8,-5 14,-11 18,-19 3,-6 5,-16 5,-28l0 -10zm-59 -103l20 -43 37 0 -34 43 -23 0zm236 185l0 -20c-10,16 -25,24 -46,24 -13,0 -25,-4 -36,-11 -11,-7 -19,-17 -25,-30 -6,-13 -9,-28 -9,-45 0,-16 2,-31 8,-44 5,-14 13,-24 24,-31 11,-7 24,-11 37,-11 10,0 19,2 27,6 7,5 14,10 19,17l0 -82 27 0 0 227 -26 0zm-88 -82c0,21 5,37 14,47 8,11 19,16 31,16 12,0 23,-5 31,-15 9,-10 13,-25 13,-45 0,-23 -4,-39 -13,-50 -9,-10 -19,-16 -32,-16 -13,0 -23,5 -31,15 -9,11 -13,27 -13,48zm159 82l0 -164 25 0 0 23c12,-18 29,-27 52,-27 10,0 19,2 27,6 9,3 15,8 19,14 4,5 7,12 9,20 1,5 1,14 1,27l0 101 -28 0 0 -100c0,-11 -1,-20 -3,-25 -2,-6 -6,-10 -11,-14 -6,-3 -12,-5 -20,-5 -12,0 -22,4 -31,12 -8,7 -12,21 -12,43l0 89 -28 0zm175 64l-3 -26c6,2 11,2 16,2 6,0 11,-1 15,-3 3,-2 6,-5 9,-8 2,-3 4,-10 8,-21 1,-2 2,-4 3,-7l-63 -165 30 0 35 95c4,12 8,25 12,38 3,-13 7,-25 11,-37l35 -96 28 0 -62 167c-7,18 -12,31 -16,38 -5,9 -11,15 -17,20 -6,4 -14,6 -23,6 -5,0 -11,-1 -18,-3zm44 -249l20 -43 37 0 -34 43 -23 0zm312 125l27 4c-3,19 -11,33 -23,44 -12,11 -27,16 -45,16 -23,0 -41,-7 -55,-22 -13,-15 -20,-36 -20,-63 0,-18 3,-34 9,-47 6,-13 15,-23 27,-30 12,-6 25,-10 39,-10 18,0 32,5 44,14 11,9 18,22 22,38l-27 4c-3,-11 -8,-19 -14,-25 -7,-5 -15,-8 -24,-8 -14,0 -25,5 -34,15 -9,10 -14,26 -14,48 0,22 5,38 13,48 9,10 20,15 33,15 11,0 21,-3 28,-10 7,-7 12,-17 14,-31zm40 -22c0,-30 9,-53 26,-68 14,-12 31,-18 52,-18 22,0 41,8 55,22 15,15 22,36 22,62 0,21 -3,38 -10,50 -6,12 -15,21 -28,28 -12,7 -25,10 -39,10 -23,0 -42,-7 -56,-22 -14,-15 -22,-36 -22,-64zm29 0c0,21 5,37 14,47 9,11 21,16 35,16 14,0 25,-5 34,-16 10,-10 14,-26 14,-48 0,-20 -4,-36 -14,-46 -9,-10 -21,-16 -34,-16 -14,0 -26,6 -35,16 -9,10 -14,26 -14,47zm159 82l0 -164 25 0 0 23c5,-8 12,-15 20,-19 9,-5 18,-8 29,-8 13,0 23,3 30,8 8,5 14,12 17,21 13,-19 30,-29 51,-29 16,0 29,5 38,14 9,9 13,23 13,41l0 113 -28 0 0 -103c0,-11 -1,-19 -3,-24 -1,-5 -5,-9 -10,-12 -4,-3 -10,-5 -16,-5 -12,0 -22,4 -29,12 -8,8 -12,20 -12,37l0 95 -28 0 0 -106c0,-13 -2,-22 -7,-28 -4,-7 -12,-10 -22,-10 -8,0 -15,2 -22,6 -6,5 -11,11 -14,19 -3,8 -5,19 -5,34l0 85 -27 0zm264 0l0 -164 25 0 0 23c5,-8 12,-15 21,-19 8,-5 18,-8 29,-8 12,0 22,3 30,8 8,5 13,12 16,21 13,-19 30,-29 51,-29 17,0 29,5 38,14 9,9 14,23 14,41l0 113 -28 0 0 -103c0,-11 -1,-19 -3,-24 -2,-5 -5,-9 -10,-12 -5,-3 -10,-5 -17,-5 -12,0 -21,4 -29,12 -7,8 -11,20 -11,37l0 95 -28 0 0 -106c0,-13 -3,-22 -7,-28 -5,-7 -12,-10 -22,-10 -8,0 -15,2 -22,6 -7,5 -12,11 -15,19 -3,8 -4,19 -4,34l0 85 -28 0zm264 -195l0 -32 28 0 0 32 -28 0zm0 195l0 -164 28 0 0 164 -28 0zm132 -24l3 24c-7,2 -14,3 -21,3 -10,0 -17,-2 -23,-5 -6,-3 -10,-8 -12,-13 -2,-5 -3,-16 -3,-33l0 -95 -21 0 0 -21 21 0 0 -41 28 -17 0 58 28 0 0 21 -28 0 0 97c0,8 0,13 1,15 1,2 3,4 5,6 2,1 5,2 9,2 4,0 8,-1 13,-1zm46 91l-20 0c31,-49 46,-99 46,-149 0,-19 -2,-38 -7,-58 -3,-15 -8,-30 -14,-44 -4,-9 -13,-25 -25,-47l20 0c19,26 33,52 43,78 8,23 12,46 12,71 0,28 -6,55 -16,81 -11,26 -24,49 -39,68z"/>
   <polygon class="fil1 str2" points="10010,1010 14490,1010 14490,2390 10010,2390 "/>
  </g>
 </g>
</svg>
