<?xml version="1.0" encoding="UTF-8"?>
<!DOCTYPE svg PUBLIC "-//W3C//DTD SVG 1.1//EN" "http://www.w3.org/Graphics/SVG/1.1/DTD/svg11.dtd">
<!-- Creator: CorelDRAW X7 -->
<svg xmlns="http://www.w3.org/2000/svg" xml:space="preserve" width="145mm" height="29.91mm" version="1.1" style="shape-rendering:geometricPrecision; text-rendering:geometricPrecision; image-rendering:optimizeQuality; fill-rule:evenodd; clip-rule:evenodd"
viewBox="0 0 14500 2991"
 xmlns:xlink="http://www.w3.org/1999/xlink">
 <defs>
  <style type="text/css">
   <![CDATA[
    .str1 {stroke:#2B2A29;stroke-width:50}
    .str0 {stroke:#2B2A29;stroke-width:25}
    .str2 {stroke:#2B2A29;stroke-width:20}
    .fil1 {fill:none}
    .fil2 {fill:#FEFEFE}
    .fil0 {fill:#2B2A29;fill-rule:nonzero}
    .fil3 {fill:#2B2A29;fill-rule:nonzero}
   ]]>
  </style>
 </defs>
 <g id="Layer_x0020_1">
  <metadata id="CorelCorpID_0Corel-Layer"/>
  <g id="_407259324000">
   <path class="fil0" d="M844 572l0 -252 82 0c31,0 51,1 61,3 14,4 26,13 36,25 10,13 15,29 15,49 0,16 -3,29 -9,40 -6,10 -13,18 -21,24 -9,6 -18,10 -27,12 -12,3 -29,4 -52,4l-34 0 0 95 -51 0zm51 -210l0 72 28 0c20,0 34,-1 40,-4 7,-2 12,-6 16,-12 4,-6 6,-12 6,-20 0,-9 -3,-17 -8,-23 -5,-6 -12,-9 -21,-11 -6,-1 -18,-2 -36,-2l-25 0zm230 210l-48 0 0 -183 45 0 0 26c8,-12 15,-20 21,-24 6,-4 13,-6 21,-6 11,0 21,3 32,9l-15 43c-9,-6 -16,-8 -23,-8 -7,0 -13,2 -17,5 -5,4 -9,11 -12,21 -2,9 -4,30 -4,61l0 56zm127 -126l-43 -8c5,-18 13,-31 25,-40 12,-8 30,-13 54,-13 22,0 38,3 48,8 11,5 18,12 23,19 4,8 6,23 6,44l-1 56c0,16 1,28 3,36 1,7 4,16 8,24l-48 0c-1,-3 -3,-8 -4,-14 -1,-3 -2,-5 -2,-5 -8,8 -17,14 -27,18 -9,4 -19,6 -30,6 -18,0 -33,-5 -44,-15 -11,-11 -16,-24 -16,-39 0,-10 2,-20 7,-28 5,-8 12,-14 21,-18 9,-5 22,-8 38,-12 23,-4 39,-8 47,-12l0 -4c0,-10 -2,-17 -7,-21 -4,-4 -13,-6 -26,-6 -8,0 -15,2 -20,6 -5,3 -9,9 -12,18zm65 39c-6,2 -16,4 -29,7 -14,3 -22,6 -26,9 -7,4 -10,10 -10,17 0,7 3,12 8,17 5,5 11,8 19,8 9,0 17,-3 25,-9 6,-4 10,-10 11,-16 2,-4 2,-12 2,-24l0 -9zm255 -41l-48 8c-1,-9 -5,-17 -10,-21 -6,-5 -13,-8 -23,-8 -12,0 -21,5 -28,13 -8,8 -11,22 -11,42 0,22 3,37 11,46 7,9 17,13 29,13 9,0 17,-2 23,-7 5,-6 10,-15 12,-28l48 9c-5,21 -15,38 -29,49 -14,11 -33,17 -56,17 -27,0 -48,-9 -64,-25 -16,-17 -24,-41 -24,-71 0,-30 8,-53 24,-70 16,-17 38,-26 65,-26 22,0 40,5 53,15 13,9 22,24 28,44zm26 35c0,-17 4,-32 11,-47 8,-15 20,-27 34,-35 15,-8 31,-12 49,-12 27,0 50,9 68,27 17,18 26,41 26,69 0,27 -9,50 -26,69 -18,18 -41,27 -68,27 -17,0 -33,-4 -48,-11 -15,-8 -27,-19 -35,-34 -7,-15 -11,-32 -11,-53zm49 2c0,18 5,32 13,42 9,10 19,14 32,14 13,0 23,-4 32,-14 8,-10 13,-24 13,-42 0,-18 -5,-32 -13,-42 -9,-9 -19,-14 -32,-14 -13,0 -23,5 -32,14 -8,10 -13,24 -13,42zm228 91l-74 -183 51 0 34 94 10 31c3,-8 4,-13 5,-16 2,-5 3,-10 5,-15l35 -94 50 0 -73 183 -43 0zm312 0l-48 0 0 -93c0,-20 -1,-32 -3,-38 -2,-6 -6,-11 -11,-14 -4,-3 -10,-5 -16,-5 -9,0 -17,3 -23,7 -7,5 -12,11 -14,18 -3,8 -4,22 -4,43l0 82 -48 0 0 -183 45 0 0 27c16,-20 36,-31 60,-31 11,0 21,2 30,6 9,4 15,9 20,15 4,6 8,13 9,20 2,8 3,19 3,33l0 113zm49 0l0 -183 48 0 0 183 -48 0zm-8 -206l24 -52 54 0 -48 52 -30 0zm240 80l-44 -8c5,-18 14,-31 26,-40 12,-8 30,-13 54,-13 21,0 37,3 48,8 10,5 18,12 22,19 4,8 7,23 7,44l-1 56c0,16 1,28 2,36 2,7 5,16 9,24l-48 0c-1,-3 -3,-8 -5,-14 -1,-3 -1,-5 -2,-5 -8,8 -17,14 -26,18 -9,4 -19,6 -30,6 -19,0 -34,-5 -44,-15 -11,-11 -17,-24 -17,-39 0,-10 3,-20 8,-28 5,-8 12,-14 21,-18 8,-5 21,-8 38,-12 23,-4 38,-8 47,-12l0 -4c0,-10 -2,-17 -7,-21 -5,-4 -13,-6 -26,-6 -9,0 -15,2 -20,6 -5,3 -9,9 -12,18zm65 39c-6,2 -16,4 -29,7 -14,3 -23,6 -27,9 -6,4 -9,10 -9,17 0,7 2,12 7,17 5,5 12,8 20,8 8,0 17,-3 25,-9 5,-4 9,-10 11,-16 1,-4 2,-12 2,-24l0 -9zm263 87l-45 0 0 -27c-7,11 -16,19 -26,24 -10,5 -21,8 -31,8 -21,0 -39,-9 -54,-26 -15,-17 -23,-40 -23,-71 0,-31 8,-54 22,-70 15,-17 33,-25 56,-25 20,0 38,9 53,26l0 -91 48 0 0 252zm-129 -95c0,20 3,34 8,43 8,12 19,19 33,19 11,0 20,-5 28,-14 8,-10 12,-24 12,-43 0,-21 -4,-36 -11,-46 -8,-9 -18,-14 -30,-14 -11,0 -21,5 -28,14 -8,9 -12,23 -12,41zm223 95l-48 0 0 -183 44 0 0 26c8,-12 15,-20 21,-24 6,-4 13,-6 21,-6 11,0 22,3 32,9l-15 43c-8,-6 -16,-8 -23,-8 -6,0 -12,2 -17,5 -5,4 -8,11 -11,21 -3,9 -4,30 -4,61l0 56zm197 -58l48 9c-6,17 -16,31 -29,40 -14,9 -30,14 -50,14 -32,0 -56,-10 -71,-31 -12,-17 -18,-38 -18,-64 0,-30 8,-54 24,-71 16,-17 36,-26 60,-26 27,0 48,9 64,27 16,18 23,46 23,83l-121 0c0,14 4,26 11,34 8,8 17,12 28,12 8,0 14,-2 19,-7 5,-4 9,-10 12,-20zm3 -49c-1,-14 -4,-24 -11,-32 -7,-7 -15,-11 -25,-11 -11,0 -19,4 -26,12 -7,8 -11,18 -10,31l72 0zm70 56l49 -8c2,10 6,17 12,22 7,5 15,7 27,7 12,0 22,-2 28,-7 4,-3 6,-7 6,-13 0,-4 -1,-7 -3,-9 -3,-2 -8,-4 -16,-6 -39,-9 -64,-17 -75,-24 -14,-10 -21,-24 -21,-41 0,-16 6,-30 18,-40 13,-11 32,-17 59,-17 25,0 43,4 56,13 12,8 20,20 25,36l-46 9c-2,-8 -6,-13 -11,-17 -5,-4 -13,-6 -23,-6 -13,0 -22,2 -28,6 -4,2 -6,5 -6,9 0,4 2,7 5,9 5,3 20,8 46,14 26,6 44,13 54,21 10,9 15,21 15,37 0,16 -7,31 -21,43 -14,12 -35,18 -62,18 -25,0 -45,-5 -60,-15 -14,-10 -24,-24 -28,-41zm249 -75l-43 -8c5,-18 13,-31 25,-40 12,-8 30,-13 54,-13 22,0 38,3 48,8 11,5 18,12 22,19 5,8 7,23 7,44l-1 56c0,16 1,28 3,36 1,7 4,16 8,24l-48 0c-1,-3 -3,-8 -4,-14 -1,-3 -2,-5 -2,-5 -8,8 -17,14 -27,18 -9,4 -19,6 -30,6 -18,0 -33,-5 -44,-15 -11,-11 -16,-24 -16,-39 0,-10 2,-20 7,-28 5,-8 12,-14 21,-18 9,-5 22,-8 38,-12 23,-4 39,-8 47,-12l0 -4c0,-10 -2,-17 -7,-21 -4,-4 -13,-6 -26,-6 -8,0 -15,2 -20,6 -5,3 -9,9 -12,18zm65 39c-6,2 -16,4 -29,7 -14,3 -22,6 -26,9 -7,4 -10,10 -10,17 0,7 3,12 8,17 5,5 11,8 19,8 9,0 17,-3 25,-9 6,-4 10,-10 11,-16 2,-4 2,-12 2,-24l0 -9zm-59 -119l24 -52 54 0 -48 52 -30 0zm201 206l-48 0 0 -183 44 0 0 26c8,-12 15,-20 21,-24 6,-4 13,-6 21,-6 11,0 22,3 32,9l-15 43c-8,-6 -16,-8 -23,-8 -7,0 -12,2 -17,5 -5,4 -8,11 -11,21 -3,9 -4,30 -4,61l0 56zm-51 -257l39 0 19 26 20 -26 38 0 -35 51 -45 0 -36 -51z"/>
   <polyline class="fil1 str0" points="13,900 13,875 13,13 13,0 "/>
   <polyline class="fil1 str0" points="4488,900 4488,875 4488,13 4488,0 "/>
   <polyline class="fil1 str0" points="0,13 13,13 4488,13 4500,13 "/>
   <polyline class="fil1 str1" points="0,875 13,875 4488,875 4500,875 "/>
   <path class="fil0" d="M6813 572l0 -252 51 0 0 252 -51 0zm266 0l-48 0 0 -93c0,-20 -1,-32 -3,-38 -2,-6 -6,-11 -10,-14 -5,-3 -11,-5 -17,-5 -9,0 -16,3 -23,7 -7,5 -11,11 -14,18 -2,8 -4,22 -4,43l0 82 -48 0 0 -183 45 0 0 27c16,-20 36,-31 60,-31 11,0 21,2 30,6 9,4 15,9 20,15 5,6 8,13 10,20 1,8 2,19 2,33l0 113zm217 0l-45 0 0 -27c-7,11 -16,19 -26,24 -10,5 -21,8 -31,8 -21,0 -39,-9 -54,-26 -15,-17 -23,-40 -23,-71 0,-31 8,-54 22,-70 15,-17 33,-25 56,-25 20,0 38,9 53,26l0 -91 48 0 0 252zm-129 -95c0,20 3,34 8,43 8,12 19,19 33,19 11,0 20,-5 28,-14 8,-10 12,-24 12,-43 0,-21 -4,-36 -12,-46 -7,-9 -17,-14 -29,-14 -11,0 -21,5 -28,14 -8,9 -12,23 -12,41zm283 37l48 9c-6,17 -16,31 -29,40 -14,9 -31,14 -51,14 -32,0 -55,-10 -70,-31 -12,-17 -18,-38 -18,-64 0,-30 8,-54 23,-71 16,-17 36,-26 60,-26 28,0 49,9 65,27 16,18 23,46 22,83l-121 0c1,14 5,26 12,34 7,8 17,12 28,12 7,0 14,-2 19,-7 5,-4 9,-10 12,-20zm2 -49c0,-14 -4,-24 -10,-32 -7,-7 -16,-11 -26,-11 -10,0 -19,4 -26,12 -7,8 -10,18 -10,31l72 0zm64 107l66 -94 -63 -89 59 0 33 51 34 -51 57 0 -62 87 67 96 -59 0 -37 -56 -38 56 -57 0z"/>
   <polyline class="fil1 str0" points="5013,900 5013,875 5013,13 5013,0 "/>
   <polyline class="fil1 str0" points="9488,900 9488,875 9488,13 9488,0 "/>
   <polyline class="fil1 str0" points="5000,13 5013,13 9488,13 9500,13 "/>
   <polyline class="fil1 str1" points="5000,875 5013,875 9488,875 9500,875 "/>
   <path class="fil0" d="M11776 572l0 -252 51 0 0 99 100 0 0 -99 51 0 0 252 -51 0 0 -110 -100 0 0 110 -51 0zm255 0l0 -252 187 0 0 42 -136 0 0 57 126 0 0 42 -126 0 0 69 141 0 0 42 -192 0zm463 0l-56 0 -21 -57 -102 0 -21 57 -54 0 98 -252 54 0 102 252zm-94 -100l-35 -93 -34 93 69 0zm121 -152l93 0c21,0 37,1 48,5 15,4 27,12 38,23 10,11 18,25 24,41 5,16 8,36 8,59 0,21 -2,39 -8,54 -6,19 -15,33 -27,45 -8,8 -20,15 -35,20 -12,4 -27,5 -45,5l-96 0 0 -252zm51 42l0 168 38 0c14,0 24,-1 31,-3 8,-2 15,-5 20,-10 6,-5 10,-13 13,-25 4,-11 6,-26 6,-46 0,-19 -2,-34 -6,-45 -3,-10 -8,-18 -14,-24 -6,-6 -14,-10 -24,-12 -7,-2 -21,-3 -41,-3l-23 0z"/>
   <polyline class="fil1 str0" points="10013,900 10013,875 10013,13 10013,0 "/>
   <polyline class="fil1 str0" points="14488,900 14488,875 14488,13 14488,0 "/>
   <polyline class="fil1 str0" points="10000,13 10013,13 14488,13 14500,13 "/>
   <polyline class="fil1 str1" points="10000,875 10013,875 14488,875 14500,875 "/>
   <path class="fil0" d="M678 1810l0 -227 100 0c21,0 36,2 47,6 10,4 19,11 25,21 6,11 9,22 9,35 0,16 -5,29 -15,41 -11,11 -27,18 -49,21 8,3 14,7 18,11 9,8 18,18 25,30l40 62 -38 0 -30 -47c-9,-14 -16,-24 -22,-32 -5,-7 -10,-12 -15,-15 -4,-3 -9,-5 -14,-6 -3,0 -9,-1 -16,-1l-35 0 0 101 -30 0zm30 -127l64 0c14,0 25,-1 33,-4 7,-3 13,-8 17,-14 4,-6 6,-13 6,-20 0,-11 -4,-20 -11,-27 -8,-7 -21,-10 -37,-10l-72 0 0 75zm199 127l0 -227 164 0 0 26 -134 0 0 70 126 0 0 27 -126 0 0 77 139 0 0 27 -169 0zm186 0l87 -227 33 0 93 227 -34 0 -27 -69 -95 0 -25 69 -32 0zm66 -93l77 0 -24 -63c-7,-19 -12,-35 -16,-48 -3,15 -7,30 -13,44l-24 67zm171 93l0 -227 78 0c18,0 31,1 41,3 13,3 24,8 33,16 12,10 21,23 27,39 6,16 9,34 9,54 0,17 -2,33 -6,46 -4,13 -9,24 -16,33 -6,9 -13,16 -20,21 -8,5 -17,9 -28,11 -10,3 -22,4 -36,4l-82 0zm30 -27l48 0c15,0 27,-1 36,-4 8,-3 15,-6 20,-12 7,-7 13,-16 17,-28 4,-12 6,-27 6,-44 0,-24 -4,-42 -12,-55 -8,-13 -17,-22 -28,-26 -8,-3 -21,-5 -39,-5l-48 0 0 174zm199 27l0 -227 45 0 53 161c5,15 9,26 11,33 3,-8 7,-20 12,-36l55 -158 40 0 0 227 -29 0 0 -190 -66 190 -27 0 -66 -194 0 194 -28 0zm265 0l0 -227 164 0 0 26 -134 0 0 70 126 0 0 27 -126 0 0 77 140 0 0 27 -170 0zm216 0l0 -32 32 0 0 32 -32 0zm141 -25l4 25c-8,1 -15,2 -21,2 -11,0 -18,-1 -24,-4 -6,-4 -9,-8 -12,-13 -2,-5 -3,-16 -3,-33l0 -95 -21 0 0 -22 21 0 0 -40 28 -17 0 57 28 0 0 22 -28 0 0 96c0,8 0,14 1,16 1,2 3,4 5,5 2,2 5,2 10,2 3,0 7,0 12,-1zm8 25l60 -85 -55 -80 34 0 26 39c5,8 9,13 11,18 5,-7 9,-13 13,-18l27 -39 35 0 -56 80 59 85 -34 0 -34 -51 -8 -12 -44 63 -34 0zm239 -25l4 25c-8,1 -15,2 -21,2 -11,0 -18,-1 -24,-4 -6,-4 -10,-8 -12,-13 -2,-5 -3,-16 -3,-33l0 -95 -21 0 0 -22 21 0 0 -40 28 -17 0 57 28 0 0 22 -28 0 0 96c0,8 0,14 1,16 1,2 3,4 5,5 2,2 5,2 10,2 3,0 7,0 12,-1zm169 92c-16,-20 -29,-42 -39,-68 -11,-26 -16,-53 -16,-81 0,-25 4,-48 12,-71 9,-26 23,-52 43,-78l20 0c-13,21 -21,37 -25,46 -6,14 -11,29 -15,45 -4,19 -7,38 -7,58 0,50 16,99 47,149l-20 0zm1184 0l-20 0c31,-50 46,-99 46,-149 0,-20 -2,-39 -6,-58 -4,-15 -9,-30 -15,-45 -4,-9 -12,-24 -25,-46l20 0c19,26 34,52 43,78 8,23 12,46 12,71 0,28 -5,55 -16,81 -11,26 -24,48 -39,68zm-1106 -67l-24 -146 24 0 12 80c2,9 3,23 6,43 4,-10 10,-22 18,-35l49 -88 26 0 -84 146 -27 0zm212 -50l24 3c-4,12 -12,23 -24,34 -13,11 -28,16 -45,16 -11,0 -21,-2 -30,-7 -9,-5 -16,-13 -21,-22 -5,-10 -7,-21 -7,-33 0,-16 4,-31 11,-46 8,-15 17,-26 29,-34 12,-7 24,-10 38,-10 18,0 32,5 42,16 11,11 16,25 16,44 0,7 -1,14 -2,22l-108 0c-1,3 -1,5 -1,8 0,13 3,24 10,31 6,7 14,11 23,11 8,0 17,-3 25,-8 8,-6 15,-14 20,-25zm-73 -36l82 0c0,-3 0,-5 0,-6 0,-12 -3,-22 -9,-28 -6,-7 -14,-10 -24,-10 -11,0 -21,3 -30,11 -8,7 -15,18 -19,33zm122 86l30 -146 23 0 -7 30c8,-12 15,-20 23,-25 7,-6 14,-8 22,-8 5,0 11,1 18,5l-10 23c-4,-3 -9,-5 -14,-5 -9,0 -18,5 -27,15 -10,10 -17,27 -22,52l-12 59 -24 0zm90 0l4 -19 79 -89c5,-6 12,-12 18,-19 -11,1 -20,2 -25,2l-55 0 5 -21 113 0 -3 15 -80 90c-4,5 -11,12 -20,20 14,0 24,-1 29,-1l57 0 -4 22 -118 0zm253 -50l24 3c-4,12 -12,23 -24,34 -13,11 -28,16 -45,16 -11,0 -21,-2 -30,-7 -9,-5 -16,-13 -21,-22 -5,-10 -7,-21 -7,-33 0,-16 4,-31 11,-46 8,-15 17,-26 29,-34 12,-7 25,-10 38,-10 18,0 32,5 42,16 11,11 16,25 16,44 0,7 -1,14 -2,22l-108 0c-1,3 -1,5 -1,8 0,13 3,24 10,31 6,7 14,11 23,11 8,0 17,-3 25,-8 9,-6 15,-14 20,-25zm-73 -36l82 0c0,-3 0,-5 0,-6 0,-12 -3,-22 -9,-28 -6,-7 -14,-10 -24,-10 -11,0 -21,3 -29,11 -9,7 -16,18 -20,33zm194 86l6 -28 28 0 -5 24c-3,15 -8,26 -15,33 -6,7 -14,11 -23,12l2 -11c11,-3 18,-13 22,-30l-15 0zm44 0l6 -28 29 0 -5 24c-4,15 -8,26 -15,33 -6,7 -14,11 -23,12l2 -11c11,-3 18,-13 22,-30l-16 0zm115 0l32 -152c-14,10 -33,19 -58,26l4 -23c13,-5 25,-11 37,-19 12,-8 21,-15 27,-21 4,-4 7,-8 11,-14l14 0 -42 203 -25 0zm197 -165l-6 29 -29 0 6 -25c3,-15 8,-26 14,-33 7,-6 14,-10 23,-11l-2 11c-11,2 -18,12 -22,29l16 0zm-44 0l-6 29 -29 0 6 -25c3,-15 8,-26 14,-33 7,-6 14,-10 23,-11l-2 11c-11,2 -18,12 -22,29l16 0z"/>
   <polygon class="fil1 str2" points="10,1010 4490,1010 4490,2390 10,2390 "/>
   <path class="fil0" d="M5678 1810l0 -227 100 0c21,0 36,2 47,6 10,4 19,11 25,21 6,11 9,22 9,35 0,16 -5,29 -15,41 -11,11 -27,18 -49,21 8,3 14,7 18,11 9,8 18,18 25,30l40 62 -38 0 -30 -47c-9,-14 -16,-24 -22,-32 -5,-7 -10,-12 -15,-15 -4,-3 -9,-5 -14,-6 -3,0 -9,-1 -16,-1l-35 0 0 101 -30 0zm30 -127l64 0c14,0 25,-1 33,-4 7,-3 13,-8 17,-14 4,-6 6,-13 6,-20 0,-11 -4,-20 -11,-27 -8,-7 -21,-10 -37,-10l-72 0 0 75zm199 127l0 -227 164 0 0 26 -134 0 0 70 126 0 0 27 -126 0 0 77 139 0 0 27 -169 0zm186 0l87 -227 33 0 93 227 -34 0 -27 -69 -95 0 -25 69 -32 0zm66 -93l77 0 -24 -63c-7,-19 -12,-35 -16,-48 -3,15 -7,30 -13,44l-24 67zm171 93l0 -227 78 0c18,0 31,1 41,3 13,3 24,8 33,16 12,10 21,23 27,39 6,16 9,34 9,54 0,17 -2,33 -6,46 -4,13 -9,24 -16,33 -6,9 -13,16 -20,21 -8,5 -17,9 -28,11 -10,3 -22,4 -36,4l-82 0zm30 -27l48 0c15,0 27,-1 36,-4 8,-3 15,-6 20,-12 7,-7 13,-16 17,-28 4,-12 6,-27 6,-44 0,-24 -4,-42 -12,-55 -8,-13 -17,-22 -28,-26 -8,-3 -21,-5 -39,-5l-48 0 0 174zm199 27l0 -227 45 0 53 161c5,15 9,26 11,33 3,-8 7,-20 12,-36l55 -158 40 0 0 227 -29 0 0 -190 -66 190 -27 0 -66 -194 0 194 -28 0zm265 0l0 -227 164 0 0 26 -134 0 0 70 126 0 0 27 -126 0 0 77 140 0 0 27 -170 0zm216 0l0 -32 32 0 0 32 -32 0zm141 -25l4 25c-8,1 -15,2 -21,2 -11,0 -18,-1 -24,-4 -6,-4 -9,-8 -12,-13 -2,-5 -3,-16 -3,-33l0 -95 -21 0 0 -22 21 0 0 -40 28 -17 0 57 28 0 0 22 -28 0 0 96c0,8 0,14 1,16 1,2 3,4 5,5 2,2 5,2 10,2 3,0 7,0 12,-1zm8 25l60 -85 -55 -80 34 0 26 39c5,8 9,13 11,18 5,-7 9,-13 13,-18l27 -39 35 0 -56 80 59 85 -34 0 -34 -51 -8 -12 -44 63 -34 0zm239 -25l4 25c-8,1 -15,2 -21,2 -11,0 -18,-1 -24,-4 -6,-4 -10,-8 -12,-13 -2,-5 -3,-16 -3,-33l0 -95 -21 0 0 -22 21 0 0 -40 28 -17 0 57 28 0 0 22 -28 0 0 96c0,8 0,14 1,16 1,2 3,4 5,5 2,2 5,2 10,2 3,0 7,0 12,-1zm169 92c-16,-20 -29,-42 -39,-68 -11,-26 -16,-53 -16,-81 0,-25 4,-48 12,-71 9,-26 23,-52 43,-78l20 0c-13,21 -21,37 -25,46 -6,14 -11,29 -15,45 -4,19 -7,38 -7,58 0,50 16,99 47,149l-20 0zm1184 0l-20 0c31,-50 46,-99 46,-149 0,-20 -2,-39 -6,-58 -4,-15 -9,-30 -15,-45 -4,-9 -12,-24 -25,-46l20 0c19,26 34,52 43,78 8,23 12,46 12,71 0,28 -5,55 -16,81 -11,26 -24,48 -39,68zm-1106 -67l-24 -146 24 0 12 80c2,9 3,23 6,43 4,-10 10,-22 18,-35l49 -88 26 0 -84 146 -27 0zm212 -50l24 3c-4,12 -12,23 -24,34 -13,11 -28,16 -45,16 -11,0 -21,-2 -30,-7 -9,-5 -16,-13 -21,-22 -5,-10 -7,-21 -7,-33 0,-16 4,-31 11,-46 8,-15 17,-26 29,-34 12,-7 24,-10 38,-10 18,0 32,5 42,16 11,11 16,25 16,44 0,7 -1,14 -2,22l-108 0c-1,3 -1,5 -1,8 0,13 3,24 10,31 6,7 14,11 23,11 8,0 17,-3 25,-8 8,-6 15,-14 20,-25zm-73 -36l82 0c0,-3 0,-5 0,-6 0,-12 -3,-22 -9,-28 -6,-7 -14,-10 -24,-10 -11,0 -21,3 -30,11 -8,7 -15,18 -19,33zm122 86l30 -146 23 0 -7 30c8,-12 15,-20 23,-25 7,-6 14,-8 22,-8 5,0 11,1 18,5l-10 23c-4,-3 -9,-5 -14,-5 -9,0 -18,5 -27,15 -10,10 -17,27 -22,52l-12 59 -24 0zm90 0l4 -19 79 -89c5,-6 12,-12 18,-19 -11,1 -20,2 -25,2l-55 0 5 -21 113 0 -3 15 -80 90c-4,5 -11,12 -20,20 14,0 24,-1 29,-1l57 0 -4 22 -118 0zm253 -50l24 3c-4,12 -12,23 -24,34 -13,11 -28,16 -45,16 -11,0 -21,-2 -30,-7 -9,-5 -16,-13 -21,-22 -5,-10 -7,-21 -7,-33 0,-16 4,-31 11,-46 8,-15 17,-26 29,-34 12,-7 25,-10 38,-10 18,0 32,5 42,16 11,11 16,25 16,44 0,7 -1,14 -2,22l-108 0c-1,3 -1,5 -1,8 0,13 3,24 10,31 6,7 14,11 23,11 8,0 17,-3 25,-8 9,-6 15,-14 20,-25zm-73 -36l82 0c0,-3 0,-5 0,-6 0,-12 -3,-22 -9,-28 -6,-7 -14,-10 -24,-10 -11,0 -21,3 -29,11 -9,7 -16,18 -20,33zm194 86l6 -28 28 0 -5 24c-3,15 -8,26 -15,33 -6,7 -14,11 -23,12l2 -11c11,-3 18,-13 22,-30l-15 0zm44 0l6 -28 29 0 -5 24c-4,15 -8,26 -15,33 -6,7 -14,11 -23,12l2 -11c11,-3 18,-13 22,-30l-16 0zm115 0l32 -152c-14,10 -33,19 -58,26l4 -23c13,-5 25,-11 37,-19 12,-8 21,-15 27,-21 4,-4 7,-8 11,-14l14 0 -42 203 -25 0zm197 -165l-6 29 -29 0 6 -25c3,-15 8,-26 14,-33 7,-6 14,-10 23,-11l-2 11c-11,2 -18,12 -22,29l16 0zm-44 0l-6 29 -29 0 6 -25c3,-15 8,-26 14,-33 7,-6 14,-10 23,-11l-2 11c-11,2 -18,12 -22,29l16 0z"/>
   <polygon class="fil1 str2" points="5010,1010 9490,1010 9490,2390 5010,2390 "/>
   <path class="fil0" d="M11706 1696l0 -228 26 0 0 22c6,-9 12,-15 20,-19 7,-4 17,-7 27,-7 14,0 27,4 38,11 10,8 18,18 24,31 5,13 8,27 8,43 0,17 -3,32 -9,46 -6,13 -15,23 -26,30 -12,8 -24,11 -37,11 -9,0 -17,-2 -25,-6 -7,-4 -13,-8 -18,-14l0 80 -28 0zm26 -145c0,21 4,37 12,47 9,10 19,15 32,15 12,0 22,-5 31,-15 9,-11 13,-27 13,-49 0,-21 -4,-37 -12,-47 -9,-10 -19,-16 -31,-16 -12,0 -23,6 -32,17 -9,11 -13,27 -13,48zm150 82l0 -165 26 0 0 25c6,-11 12,-19 17,-23 6,-4 12,-6 18,-6 10,0 19,3 29,9l-10 26c-7,-4 -14,-6 -20,-6 -6,0 -12,2 -17,6 -4,4 -8,9 -10,15 -3,10 -5,21 -5,33l0 86 -28 0zm214 -21c-10,9 -20,15 -30,19 -9,3 -20,5 -31,5 -18,0 -32,-4 -41,-13 -10,-9 -15,-20 -15,-34 0,-8 2,-15 5,-22 4,-6 9,-12 15,-16 6,-4 13,-7 20,-9 6,-1 14,-3 25,-4 22,-3 39,-6 50,-10 0,-4 0,-6 0,-7 0,-11 -3,-19 -8,-24 -7,-6 -18,-9 -32,-9 -13,0 -23,2 -29,7 -6,4 -11,12 -14,24l-27 -4c2,-11 6,-21 12,-28 6,-7 14,-13 25,-17 11,-4 23,-6 37,-6 14,0 26,2 35,5 8,4 15,8 19,13 4,5 7,11 9,19 1,5 1,13 1,26l0 37c0,26 1,42 2,49 1,7 3,13 7,20l-29 0c-3,-6 -5,-13 -6,-21zm-2 -62c-10,4 -25,8 -46,11 -11,1 -19,3 -24,5 -5,2 -9,5 -11,9 -3,4 -4,9 -4,13 0,8 3,14 8,19 6,5 14,7 25,7 11,0 20,-2 29,-7 8,-4 14,-11 18,-19 3,-6 5,-15 5,-28l0 -10zm-59 -102l20 -44 37 0 -34 44 -23 0zm115 185l0 -23 105 -120c-12,0 -23,1 -32,1l-66 0 0 -23 134 0 0 18 -89 105 -17 19c12,-1 24,-1 35,-1l76 0 0 24 -146 0zm280 0l0 -21c-10,16 -26,24 -46,24 -13,0 -25,-3 -36,-11 -11,-7 -20,-17 -26,-30 -6,-13 -9,-28 -9,-44 0,-17 3,-32 9,-45 5,-13 13,-24 24,-31 11,-7 23,-11 37,-11 10,0 19,3 26,7 8,4 14,9 19,16l0 -82 28 0 0 228 -26 0zm-88 -82c0,21 4,36 13,47 9,10 20,15 32,15 12,0 22,-5 31,-15 9,-9 13,-25 13,-45 0,-23 -5,-39 -13,-50 -9,-10 -20,-15 -32,-15 -13,0 -23,5 -32,15 -8,10 -12,26 -12,48zm158 82l0 -165 25 0 0 23c13,-18 30,-27 53,-27 10,0 19,2 27,6 8,3 15,8 19,14 4,6 7,12 9,20 1,6 1,15 1,28l0 101 -28 0 0 -100c0,-12 -1,-20 -3,-26 -2,-5 -6,-10 -12,-13 -5,-4 -12,-5 -19,-5 -12,0 -22,3 -31,11 -8,7 -13,22 -13,43l0 90 -28 0zm176 63l-3 -26c6,2 11,3 16,3 6,0 11,-1 14,-3 4,-2 7,-5 10,-9 1,-3 4,-10 8,-21 1,-1 1,-4 3,-7l-63 -165 30 0 34 95c5,12 9,25 12,38 4,-12 7,-25 12,-37l35 -96 28 0 -62 168c-7,18 -12,30 -16,37 -5,9 -11,16 -17,20 -7,4 -14,6 -23,6 -6,0 -12,-1 -18,-3zm44 -248l20 -44 37 0 -34 44 -23 0zm-1481 606c-15,-19 -28,-42 -39,-68 -10,-26 -16,-53 -16,-81 0,-25 4,-48 12,-71 10,-26 24,-52 43,-78l20 0c-12,22 -20,37 -24,46 -7,15 -12,29 -15,45 -5,19 -7,39 -7,58 0,50 15,100 46,149l-20 0zm38 -67l0 -22 104 -121c-12,1 -22,1 -31,1l-67 0 0 -22 135 0 0 18 -90 104 -17 20c13,-1 24,-2 35,-2l77 0 0 24 -146 0zm77 -202l18 -26 31 0 -35 43 -30 0 -33 -43 32 0 17 26zm204 182c-10,9 -20,15 -30,18 -9,4 -20,6 -31,6 -18,0 -32,-4 -41,-13 -10,-9 -15,-20 -15,-34 0,-8 2,-15 5,-22 4,-7 9,-12 15,-16 6,-4 13,-7 20,-9 6,-2 14,-3 25,-4 22,-3 39,-6 50,-10 0,-4 0,-6 0,-7 0,-12 -3,-20 -8,-24 -7,-7 -18,-10 -32,-10 -13,0 -23,3 -29,7 -6,5 -11,13 -14,25l-27 -4c2,-12 6,-21 12,-28 6,-8 14,-13 25,-17 10,-4 23,-6 37,-6 14,0 26,2 35,5 8,3 15,8 19,13 4,5 7,11 9,19 1,4 1,13 1,25l0 37c0,26 1,43 2,50 1,6 3,13 7,19l-29 0c-3,-5 -5,-12 -6,-20zm-2 -62c-10,4 -26,8 -46,10 -11,2 -20,4 -24,6 -5,2 -9,5 -11,9 -3,4 -4,8 -4,13 0,8 3,14 8,19 6,5 14,7 25,7 11,0 20,-2 29,-7 8,-5 14,-11 18,-19 3,-6 5,-16 5,-28l0 -10zm-59 -103l20 -43 37 0 -34 43 -23 0zm236 185l0 -20c-10,16 -25,24 -46,24 -13,0 -25,-4 -36,-11 -11,-7 -19,-17 -25,-30 -6,-13 -9,-28 -9,-45 0,-16 2,-31 8,-44 5,-14 13,-24 24,-31 11,-7 24,-11 37,-11 10,0 19,2 27,6 7,5 14,10 19,17l0 -82 27 0 0 227 -26 0zm-88 -82c0,21 5,37 14,47 8,11 19,16 31,16 12,0 23,-5 31,-15 9,-10 13,-25 13,-45 0,-23 -4,-39 -13,-50 -9,-10 -19,-16 -32,-16 -13,0 -23,5 -31,15 -9,11 -13,27 -13,48zm159 82l0 -164 25 0 0 23c12,-18 29,-27 52,-27 10,0 19,2 27,6 9,3 15,8 19,14 4,5 7,12 9,20 1,5 1,14 1,27l0 101 -28 0 0 -100c0,-11 -1,-20 -3,-25 -2,-6 -6,-10 -11,-14 -6,-3 -12,-5 -20,-5 -12,0 -22,4 -31,12 -8,7 -12,21 -12,43l0 89 -28 0zm175 64l-3 -26c6,2 11,2 16,2 6,0 11,-1 15,-3 3,-2 6,-5 9,-8 2,-3 4,-10 8,-21 1,-2 2,-4 3,-7l-63 -165 30 0 35 95c4,12 8,25 12,38 3,-13 7,-25 11,-37l35 -96 28 0 -62 167c-7,18 -12,31 -16,38 -5,9 -11,15 -17,20 -6,4 -14,6 -23,6 -5,0 -11,-1 -18,-3zm44 -249l20 -43 37 0 -34 43 -23 0zm312 125l27 4c-3,19 -11,33 -23,44 -12,11 -27,16 -45,16 -23,0 -41,-7 -55,-22 -13,-15 -20,-36 -20,-63 0,-18 3,-34 9,-47 6,-13 15,-23 27,-30 12,-6 25,-10 39,-10 18,0 32,5 44,14 11,9 18,22 22,38l-27 4c-3,-11 -8,-19 -14,-25 -7,-5 -15,-8 -24,-8 -14,0 -25,5 -34,15 -9,10 -14,26 -14,48 0,22 5,38 13,48 9,10 20,15 33,15 11,0 21,-3 28,-10 7,-7 12,-17 14,-31zm40 -22c0,-30 9,-53 26,-68 14,-12 31,-18 52,-18 22,0 41,8 55,22 15,15 22,36 22,62 0,21 -3,38 -10,50 -6,12 -15,21 -28,28 -12,7 -25,10 -39,10 -23,0 -42,-7 -56,-22 -14,-15 -22,-36 -22,-64zm29 0c0,21 5,37 14,47 9,11 21,16 35,16 14,0 25,-5 34,-16 10,-10 14,-26 14,-48 0,-20 -4,-36 -14,-46 -9,-10 -21,-16 -34,-16 -14,0 -26,6 -35,16 -9,10 -14,26 -14,47zm159 82l0 -164 25 0 0 23c5,-8 12,-15 20,-19 9,-5 18,-8 29,-8 13,0 23,3 30,8 8,5 14,12 17,21 13,-19 30,-29 51,-29 16,0 29,5 38,14 9,9 13,23 13,41l0 113 -28 0 0 -103c0,-11 -1,-19 -3,-24 -1,-5 -5,-9 -10,-12 -4,-3 -10,-5 -16,-5 -12,0 -22,4 -29,12 -8,8 -12,20 -12,37l0 95 -28 0 0 -106c0,-13 -2,-22 -7,-28 -4,-7 -12,-10 -22,-10 -8,0 -15,2 -22,6 -6,5 -11,11 -14,19 -3,8 -5,19 -5,34l0 85 -27 0zm264 0l0 -164 25 0 0 23c5,-8 12,-15 21,-19 8,-5 18,-8 29,-8 12,0 22,3 30,8 8,5 13,12 16,21 13,-19 30,-29 51,-29 17,0 29,5 38,14 9,9 14,23 14,41l0 113 -28 0 0 -103c0,-11 -1,-19 -3,-24 -2,-5 -5,-9 -10,-12 -5,-3 -10,-5 -17,-5 -12,0 -21,4 -29,12 -7,8 -11,20 -11,37l0 95 -28 0 0 -106c0,-13 -3,-22 -7,-28 -5,-7 -12,-10 -22,-10 -8,0 -15,2 -22,6 -7,5 -12,11 -15,19 -3,8 -4,19 -4,34l0 85 -28 0zm264 -195l0 -32 28 0 0 32 -28 0zm0 195l0 -164 28 0 0 164 -28 0zm132 -24l3 24c-7,2 -14,3 -21,3 -10,0 -17,-2 -23,-5 -6,-3 -10,-8 -12,-13 -2,-5 -3,-16 -3,-33l0 -95 -21 0 0 -21 21 0 0 -41 28 -17 0 58 28 0 0 21 -28 0 0 97c0,8 0,13 1,15 1,2 3,4 5,6 2,1 5,2 9,2 4,0 8,-1 13,-1zm46 91l-20 0c31,-49 46,-99 46,-149 0,-19 -2,-38 -7,-58 -3,-15 -8,-30 -14,-44 -4,-9 -13,-25 -25,-47l20 0c19,26 33,52 43,78 8,23 12,46 12,71 0,28 -6,55 -16,81 -11,26 -24,49 -39,68z"/>
   <polygon class="fil1 str2" points="10010,1010 14490,1010 14490,2390 10010,2390 "/>
  </g>
  <polygon class="fil2 str2" points="1016,2200 13484,2200 13484,2981 1016,2981 "/>
  <g id="_407251828512">
   <path class="fil3" d="M1358 2479l42 -202 85 0c17,0 29,1 38,4 9,3 15,8 20,16 5,8 8,17 8,29 0,16 -6,30 -16,41 -11,11 -28,18 -52,21 7,5 12,11 16,16 9,12 15,24 20,37l16 38 -30 0 -15 -38c-5,-13 -11,-25 -18,-35 -4,-7 -9,-11 -14,-14 -4,-2 -12,-3 -23,-3l-31 0 -19 90 -27 0zm50 -112l38 0c17,0 28,0 33,0 11,-1 19,-4 25,-7 7,-4 12,-9 16,-15 3,-6 5,-12 5,-19 0,-6 -1,-11 -4,-16 -3,-4 -6,-7 -10,-8 -5,-2 -12,-3 -23,-3l-66 0 -14 68zm152 112l43 -202 146 0 -4 23 -120 0 -14 63 118 0 -5 23 -117 0 -15 70 128 0 -5 23 -155 0zm171 0l114 -202 32 0 34 202 -27 0 -9 -58 -82 0 -33 58 -29 0zm74 -79l67 0 -8 -51c-4,-20 -6,-37 -6,-50 -5,11 -12,25 -21,41l-32 60zm132 79l42 -202 61 0c15,0 26,1 34,3 11,3 20,8 28,15 8,8 14,17 18,28 4,11 6,23 6,36 0,17 -3,32 -8,45 -5,13 -11,25 -19,35 -8,10 -16,18 -25,24 -9,6 -19,10 -31,13 -9,2 -20,3 -33,3l-73 0zm32 -23l32 0c14,0 27,-1 38,-4 7,-2 13,-4 18,-7 7,-4 13,-10 18,-17 7,-9 13,-19 17,-30 4,-12 6,-25 6,-40 0,-16 -3,-29 -8,-38 -6,-8 -13,-14 -22,-17 -7,-2 -17,-3 -31,-3l-36 0 -32 156zm174 23l42 -202 34 0 18 131c3,17 4,34 5,49 6,-13 15,-31 28,-55l71 -125 34 0 -43 202 -27 0 22 -98c5,-23 12,-48 21,-77 -6,13 -14,27 -22,43l-75 132 -26 0 -18 -130c-2,-12 -3,-25 -4,-41 -3,18 -5,32 -7,42l-27 129 -26 0zm233 0l42 -202 147 0 -5 23 -120 0 -13 63 117 0 -5 23 -117 0 -15 70 128 0 -5 23 -154 0zm192 0l6 -28 28 0 -6 28 -28 0zm130 -20l-4 20c-6,2 -12,2 -18,2 -10,0 -17,-2 -23,-7 -5,-4 -7,-9 -7,-15 0,-3 1,-11 4,-22l18 -85 -20 0 4 -20 19 0 8 -35 29 -18 -12 53 25 0 -4 20 -25 0 -17 81c-2,10 -3,16 -3,18 0,3 1,5 3,7 2,2 4,2 8,2 6,0 11,0 15,-1zm10 20l64 -74 -37 -73 28 0 13 26c4,10 9,19 12,28l42 -54 31 0 -61 74 37 73 -28 0 -15 -30c-3,-6 -7,-14 -10,-23l-44 53 -32 0zm209 -20l-4 20c-6,2 -11,2 -17,2 -10,0 -18,-2 -24,-7 -4,-4 -6,-9 -6,-15 0,-3 1,-11 3,-22l18 -85 -20 0 4 -20 20 0 8 -35 28 -18 -11 53 24 0 -4 20 -24 0 -17 81c-2,10 -3,16 -3,18 0,3 1,5 2,7 2,2 5,2 9,2 5,0 10,0 14,-1zm103 -41l5 -25 76 0 -5 25 -76 0zm171 11l25 -2c0,7 1,14 3,19 2,5 6,9 12,12 6,3 13,5 21,5 11,0 19,-2 25,-7 5,-4 8,-9 8,-15 0,-5 -2,-9 -5,-13 -3,-3 -12,-8 -25,-14 -13,-5 -21,-9 -25,-12 -6,-3 -11,-8 -14,-13 -3,-5 -5,-11 -5,-18 0,-11 5,-21 14,-29 9,-9 22,-13 39,-13 18,0 32,5 41,13 10,9 15,20 15,34l-24 1c0,-9 -3,-16 -9,-21 -6,-5 -14,-7 -25,-7 -9,0 -15,2 -20,5 -5,4 -7,9 -7,13 0,5 2,9 6,12 3,3 10,7 21,12 19,8 31,14 36,19 8,8 12,17 12,28 0,7 -2,14 -7,21 -4,7 -11,13 -20,17 -9,4 -20,6 -32,6 -17,0 -31,-4 -43,-13 -12,-8 -18,-21 -17,-40zm143 -6c0,-28 8,-52 25,-71 14,-15 32,-23 55,-23 17,0 32,6 42,17 11,11 17,26 17,44 0,17 -4,33 -11,47 -6,15 -16,26 -29,33 -12,8 -25,12 -39,12 -12,0 -22,-2 -31,-7 -10,-5 -17,-12 -22,-21 -5,-9 -7,-19 -7,-31zm25 -2c0,14 3,24 10,31 6,7 15,11 25,11 5,0 11,-1 16,-3 5,-3 10,-6 15,-10 4,-5 8,-10 11,-15 3,-6 6,-12 8,-19 3,-9 4,-17 4,-26 0,-13 -3,-23 -10,-30 -7,-8 -15,-11 -25,-11 -8,0 -15,1 -22,5 -6,4 -12,9 -17,16 -5,8 -9,16 -12,25 -2,10 -3,18 -3,26zm227 31c-17,20 -35,30 -54,30 -11,0 -20,-3 -27,-10 -7,-6 -10,-14 -10,-23 0,-6 1,-17 5,-32l19 -85 25 0 -21 95c-2,8 -3,14 -3,19 0,5 2,9 5,11 4,3 9,5 15,5 7,0 14,-2 21,-5 7,-4 13,-8 18,-14 4,-6 8,-13 12,-20 2,-5 4,-14 7,-27l14 -64 24 0 -32 147 -23 0 5 -27zm58 27l42 -202 25 0 -16 72c8,-7 15,-12 21,-15 7,-3 13,-5 20,-5 13,0 24,5 33,16 9,10 13,25 13,44 0,13 -1,25 -5,36 -3,10 -8,19 -13,27 -5,7 -11,13 -17,17 -5,4 -11,8 -17,10 -6,2 -11,3 -17,3 -9,0 -18,-2 -25,-7 -7,-6 -13,-13 -17,-24l-5 28 -22 0zm36 -60l0 5c0,12 3,22 9,28 6,6 13,10 22,10 8,0 16,-3 23,-9 7,-7 13,-16 17,-29 5,-13 7,-25 7,-36 0,-12 -3,-22 -8,-28 -6,-7 -13,-11 -22,-11 -8,0 -17,4 -24,11 -7,7 -13,17 -18,32 -4,11 -6,20 -6,27zm125 4c0,-28 8,-52 25,-71 14,-15 32,-23 55,-23 17,0 31,6 42,17 11,11 16,26 16,44 0,17 -3,33 -10,47 -7,15 -16,26 -29,33 -12,8 -26,12 -39,12 -12,0 -22,-2 -31,-7 -10,-5 -17,-12 -22,-21 -5,-9 -7,-19 -7,-31zm25 -2c0,14 3,24 10,31 6,7 15,11 25,11 5,0 11,-1 16,-3 5,-3 10,-6 15,-10 4,-5 8,-10 11,-15 3,-6 6,-12 8,-19 3,-9 4,-17 4,-26 0,-13 -3,-23 -10,-30 -7,-8 -15,-11 -25,-11 -8,0 -15,1 -22,5 -6,4 -12,9 -17,16 -5,8 -9,16 -12,25 -2,10 -3,18 -3,26zm128 58l30 -147 22 0 -6 30c8,-11 15,-19 22,-25 7,-5 15,-8 22,-8 5,0 11,2 19,6l-11 23c-4,-3 -9,-5 -14,-5 -8,0 -17,5 -27,15 -9,9 -16,27 -22,52l-12 59 -23 0zm84 0l6 -28 28 0 -5 24c-3,15 -8,26 -15,33 -6,7 -14,11 -23,12l2 -11c11,-3 18,-13 22,-30l-15 0zm150 0l43 -202 25 0 -27 126 74 -71 33 0 -63 55 38 92 -27 0 -30 -75 -30 26 -11 49 -25 0zm200 -20l-4 20c-6,2 -12,2 -18,2 -9,0 -17,-2 -23,-7 -5,-4 -7,-9 -7,-15 0,-3 1,-11 4,-22l18 -85 -20 0 4 -20 19 0 8 -35 29 -18 -12 53 25 0 -4 20 -25 0 -17 81c-2,10 -3,16 -3,18 0,3 1,5 3,7 2,2 4,2 8,2 6,0 11,0 15,-1zm128 -30l24 3c-3,12 -11,23 -24,34 -13,11 -28,16 -45,16 -11,0 -21,-2 -30,-7 -9,-5 -16,-13 -21,-22 -4,-10 -7,-21 -7,-33 0,-16 4,-31 11,-46 8,-15 17,-26 29,-34 12,-7 25,-11 39,-11 17,0 31,6 41,17 11,10 16,25 16,44 0,7 -1,14 -2,22l-108 0c0,3 -1,5 -1,7 0,14 4,25 10,32 6,7 14,11 23,11 9,0 17,-3 26,-9 8,-5 14,-13 19,-24zm-73 -36l83 0c0,-3 0,-5 0,-6 0,-12 -3,-22 -10,-29 -6,-6 -14,-9 -24,-9 -11,0 -20,3 -29,11 -9,7 -16,18 -20,33zm122 86l31 -147 22 0 -6 30c7,-11 15,-19 22,-25 7,-5 15,-8 22,-8 5,0 11,2 18,6l-10 23c-4,-3 -9,-5 -14,-5 -9,0 -18,5 -27,15 -9,9 -16,27 -22,52l-12 59 -24 0zm85 56l1 -23c5,1 10,2 15,2 5,0 9,-1 12,-4 4,-3 9,-8 14,-17l8 -14 -25 -147 25 0 11 74c2,15 4,29 6,44l65 -118 26 0 -93 166c-9,16 -17,27 -24,32 -7,6 -15,8 -24,8 -6,0 -12,-1 -17,-3zm74 -220l26 -38 32 0 -37 38 -21 0zm191 -10l6 -28 25 0 -6 28 -25 0zm-79 229l5 -21c5,1 10,2 15,2 5,0 9,-2 13,-5 3,-4 6,-14 9,-30l31 -148 25 0 -32 153c-4,19 -8,32 -13,39 -7,9 -17,14 -29,14 -7,0 -15,-2 -24,-4zm213 -105l24 3c-3,12 -11,23 -24,34 -12,11 -27,16 -45,16 -11,0 -21,-2 -30,-7 -9,-5 -16,-13 -20,-22 -5,-10 -7,-21 -7,-33 0,-16 3,-31 11,-46 7,-15 17,-26 28,-34 12,-7 25,-11 39,-11 17,0 31,6 42,17 10,10 15,25 15,44 0,7 0,14 -2,22l-108 0c0,3 0,5 0,7 0,14 3,25 9,32 6,7 14,11 23,11 9,0 17,-3 26,-9 8,-5 14,-13 19,-24zm-73 -36l83 0c0,-3 0,-5 0,-6 0,-12 -3,-22 -10,-29 -6,-6 -14,-9 -24,-9 -11,0 -20,3 -29,11 -9,7 -15,18 -20,33zm238 86l-24 -147 24 0 12 81c2,9 3,23 5,43 5,-10 11,-22 19,-35l49 -89 26 0 -84 147 -27 0zm212 -50l24 3c-4,12 -12,23 -24,34 -13,11 -28,16 -45,16 -11,0 -21,-2 -30,-7 -9,-5 -16,-13 -21,-22 -5,-10 -7,-21 -7,-33 0,-16 4,-31 11,-46 8,-15 17,-26 29,-34 12,-7 24,-11 38,-11 18,0 32,6 42,17 11,10 16,25 16,44 0,7 -1,14 -2,22l-108 0c-1,3 -1,5 -1,7 0,14 3,25 10,32 6,7 14,11 23,11 8,0 17,-3 25,-9 8,-5 15,-13 20,-24zm-73 -36l82 0c0,-3 0,-5 0,-6 0,-12 -3,-22 -9,-29 -6,-6 -14,-9 -24,-9 -11,0 -21,3 -30,11 -8,7 -15,18 -19,33zm203 36l25 -2c0,7 1,14 3,19 2,5 6,9 12,12 6,3 13,5 21,5 11,0 19,-2 24,-7 6,-4 9,-9 9,-15 0,-5 -2,-9 -5,-13 -4,-3 -12,-8 -25,-14 -13,-5 -21,-9 -25,-12 -6,-3 -11,-8 -14,-13 -3,-5 -5,-11 -5,-18 0,-11 5,-21 14,-29 9,-9 22,-13 38,-13 19,0 33,5 42,13 10,9 15,20 15,34l-24 1c-1,-9 -4,-16 -9,-21 -6,-5 -15,-7 -25,-7 -9,0 -16,2 -20,5 -5,4 -7,9 -7,13 0,5 2,9 6,12 2,3 10,7 21,12 19,8 31,14 36,19 8,8 12,17 12,28 0,7 -3,14 -7,21 -4,7 -11,13 -20,17 -9,4 -20,6 -33,6 -16,0 -31,-4 -43,-13 -11,-8 -17,-21 -16,-40zm196 30l-4 20c-6,2 -11,2 -17,2 -10,0 -18,-2 -24,-7 -4,-4 -6,-9 -6,-15 0,-3 1,-11 3,-22l18 -85 -20 0 4 -20 20 0 8 -35 28 -18 -11 53 24 0 -4 20 -24 0 -17 81c-2,10 -3,16 -3,18 0,3 1,5 2,7 2,2 5,2 9,2 5,0 10,0 14,-1zm128 -30l25 3c-4,12 -12,23 -24,34 -13,11 -28,16 -45,16 -11,0 -21,-2 -30,-7 -9,-5 -16,-13 -21,-22 -5,-10 -7,-21 -7,-33 0,-16 4,-31 11,-46 7,-15 17,-26 29,-34 12,-7 24,-11 38,-11 18,0 32,6 42,17 10,10 16,25 16,44 0,7 -1,14 -2,22l-108 0c-1,3 -1,5 -1,7 0,14 3,25 10,32 6,7 14,11 23,11 8,0 17,-3 25,-9 8,-5 15,-13 19,-24zm-72 -36l82 0c0,-3 0,-5 0,-6 0,-12 -3,-22 -9,-29 -6,-6 -15,-9 -24,-9 -11,0 -21,3 -30,11 -9,7 -15,18 -19,33zm158 -88l6 -28 25 0 -6 28 -25 0zm-79 229l5 -21c5,1 10,2 15,2 5,0 9,-2 13,-5 3,-4 6,-14 9,-30l31 -148 25 0 -32 153c-4,19 -8,32 -13,39 -7,9 -17,14 -29,14 -7,0 -15,-2 -24,-4zm105 -55l31 -147 23 0 -6 26c10,-10 20,-17 28,-22 9,-4 18,-7 27,-7 12,0 21,4 28,10 7,6 10,15 10,26 0,5 -1,14 -4,26l-19 88 -25 0 20 -93c2,-9 3,-15 3,-20 0,-5 -1,-8 -5,-11 -3,-4 -8,-5 -15,-5 -13,0 -24,5 -34,14 -11,9 -18,25 -23,47l-14 68 -25 0zm265 -50l24 3c-3,12 -11,23 -24,34 -12,11 -27,16 -45,16 -11,0 -21,-2 -30,-7 -9,-5 -16,-13 -20,-22 -5,-10 -7,-21 -7,-33 0,-16 3,-31 11,-46 7,-15 17,-26 28,-34 12,-7 25,-11 39,-11 17,0 31,6 42,17 10,10 15,25 15,44 0,7 0,14 -2,22l-108 0c0,3 0,5 0,7 0,14 3,25 9,32 6,7 14,11 23,11 9,0 17,-3 26,-9 8,-5 14,-13 19,-24zm-73 -36l83 0c0,-3 0,-5 0,-6 0,-12 -3,-22 -10,-29 -6,-6 -14,-9 -24,-9 -11,0 -20,3 -29,11 -9,7 -15,18 -20,33zm35 -78l26 -38 31 0 -37 38 -20 0zm203 164l-24 -147 24 0 12 81c2,9 3,23 5,43 5,-10 11,-22 19,-35l49 -89 26 0 -84 147 -27 0zm212 -50l24 3c-4,12 -12,23 -24,34 -13,11 -28,16 -45,16 -11,0 -21,-2 -30,-7 -9,-5 -16,-13 -21,-22 -5,-10 -7,-21 -7,-33 0,-16 4,-31 11,-46 8,-15 17,-26 29,-34 12,-7 24,-11 38,-11 18,0 32,6 42,17 11,10 16,25 16,44 0,7 -1,14 -2,22l-108 0c-1,3 -1,5 -1,7 0,14 3,25 10,32 6,7 14,11 23,11 8,0 17,-3 25,-9 8,-5 15,-13 20,-24zm-73 -36l82 0c0,-3 0,-5 0,-6 0,-12 -3,-22 -9,-29 -6,-6 -14,-9 -24,-9 -11,0 -21,3 -30,11 -8,7 -15,18 -19,33zm122 86l30 -147 23 0 -7 30c8,-11 15,-19 23,-25 7,-5 14,-8 22,-8 5,0 11,2 18,6l-10 23c-5,-3 -9,-5 -14,-5 -9,0 -18,5 -27,15 -10,9 -17,27 -22,52l-12 59 -24 0zm90 0l4 -20 79 -88c5,-6 11,-13 18,-19 -11,1 -20,1 -25,1l-55 0 5 -21 113 0 -3 16 -80 90c-4,5 -11,11 -20,20 14,-1 24,-1 29,-1l57 0 -4 22 -118 0zm181 -174l6 -28 25 0 -6 28 -25 0zm-37 174l31 -147 25 0 -31 147 -25 0zm179 0l-24 -147 24 0 13 81c1,9 3,23 5,43 5,-10 11,-22 18,-35l49 -89 26 0 -83 147 -28 0zm171 56l42 -203 23 0 -4 21c8,-9 16,-15 23,-19 7,-3 14,-5 21,-5 14,0 26,5 35,16 9,10 14,24 14,43 0,15 -3,29 -8,42 -5,12 -11,22 -18,30 -8,8 -15,13 -23,17 -7,3 -15,5 -23,5 -18,0 -31,-9 -41,-27l-16 80 -25 0zm49 -116c0,11 1,19 2,23 3,6 6,11 12,14 5,4 11,6 18,6 14,0 26,-8 35,-24 9,-17 13,-33 13,-50 0,-12 -3,-22 -9,-28 -6,-7 -13,-11 -22,-11 -6,0 -12,2 -18,5 -5,4 -10,9 -15,15 -5,7 -8,15 -12,25 -3,10 -4,18 -4,25zm120 60l30 -147 22 0 -6 30c8,-11 15,-19 22,-25 7,-5 15,-8 22,-8 5,0 11,2 19,6l-11 23c-4,-3 -9,-5 -14,-5 -8,0 -17,5 -27,15 -9,9 -16,27 -22,52l-12 59 -23 0zm192 -18c-9,7 -17,13 -25,16 -8,3 -16,5 -26,5 -13,0 -24,-4 -32,-12 -8,-8 -13,-18 -13,-30 0,-8 2,-16 6,-22 4,-6 9,-11 15,-15 6,-4 13,-7 22,-8 6,-1 17,-2 32,-3 16,-1 27,-2 34,-5 2,-7 3,-12 3,-17 0,-6 -2,-10 -6,-13 -6,-5 -15,-7 -26,-7 -10,0 -19,2 -26,7 -6,4 -11,11 -14,19l-25 -2c5,-14 13,-25 24,-33 11,-8 25,-12 42,-12 18,0 33,5 43,13 8,7 12,15 12,25 0,8 -1,17 -3,28l-8 36c-3,11 -4,21 -4,28 0,5 1,11 3,20l-25 0c-1,-5 -2,-11 -3,-18zm9 -56c-3,1 -7,2 -11,3 -4,1 -11,1 -20,2 -15,1 -25,3 -31,5 -6,2 -10,5 -13,10 -3,4 -5,9 -5,14 0,7 3,13 7,17 5,5 12,7 21,7 8,0 16,-2 24,-7 8,-4 14,-10 18,-18 4,-8 8,-19 10,-33zm150 21l25 2c-6,18 -15,32 -26,41 -12,9 -25,13 -40,13 -16,0 -29,-5 -38,-15 -10,-11 -15,-25 -15,-43 0,-16 3,-32 9,-47 7,-16 16,-28 27,-36 12,-8 26,-12 41,-12 16,0 28,5 37,14 10,9 14,20 14,35l-24 2c-1,-10 -3,-17 -9,-22 -5,-5 -12,-8 -20,-8 -10,0 -19,3 -27,9 -7,7 -13,16 -17,29 -4,13 -6,26 -6,37 0,13 3,22 8,28 6,7 12,10 21,10 8,0 15,-3 23,-9 7,-6 13,-16 17,-28z"/>
   <path class="fil3" d="M7836 2423c0,-28 8,-52 25,-71 14,-15 32,-23 55,-23 17,0 31,6 42,17 11,11 16,26 16,44 0,17 -3,33 -10,47 -7,15 -16,26 -29,33 -12,8 -25,12 -39,12 -12,0 -22,-2 -31,-7 -10,-5 -17,-12 -22,-21 -5,-9 -7,-19 -7,-31zm25 -2c0,14 3,24 10,31 6,7 15,11 25,11 5,0 11,-1 16,-3 5,-3 10,-6 15,-10 4,-5 8,-10 11,-15 3,-6 6,-12 8,-19 3,-9 4,-17 4,-26 0,-13 -3,-23 -10,-30 -7,-8 -15,-11 -25,-11 -8,0 -15,1 -22,5 -6,4 -12,9 -17,16 -5,8 -9,16 -12,25 -2,10 -3,18 -3,26zm164 58l-24 -147 25 0 12 81c2,9 3,23 5,43 5,-10 11,-22 19,-35l48 -89 27 0 -84 147 -28 0zm104 0l31 -147 23 0 -5 26c9,-10 19,-17 27,-22 9,-4 18,-7 27,-7 12,0 21,4 28,10 7,6 10,15 10,26 0,5 -1,14 -3,26l-20 88 -25 0 21 -93c2,-9 3,-15 3,-20 0,-5 -2,-8 -6,-11 -3,-4 -8,-5 -14,-5 -13,0 -25,5 -35,14 -10,9 -18,25 -23,47l-14 68 -25 0zm166 0l31 -147 24 0 -30 147 -25 0zm24 -164l26 -38 31 0 -37 38 -20 0zm46 164l30 -147 25 0 -5 25c9,-11 18,-18 25,-22 7,-4 15,-6 24,-6 9,0 17,3 23,8 6,4 10,11 12,20 7,-9 15,-16 23,-21 9,-4 17,-7 26,-7 13,0 22,3 28,9 6,6 9,14 9,24 0,5 -1,12 -3,23l-20 94 -25 0 20 -97c2,-8 3,-13 3,-17 0,-4 -2,-8 -5,-11 -3,-3 -7,-4 -13,-4 -7,0 -15,2 -22,7 -8,4 -14,10 -18,17 -5,8 -9,19 -12,34l-15 71 -24 0 20 -99c2,-6 2,-11 2,-14 0,-5 -1,-9 -4,-12 -3,-3 -7,-4 -12,-4 -7,0 -14,2 -22,7 -8,4 -14,10 -19,18 -5,8 -9,20 -12,35l-14 69 -25 0zm412 -18c-9,7 -17,13 -25,16 -8,3 -16,5 -26,5 -13,0 -24,-4 -32,-12 -8,-8 -13,-18 -13,-30 0,-8 2,-16 6,-22 4,-6 9,-11 15,-15 6,-4 13,-7 22,-8 6,-1 17,-2 32,-3 16,-1 27,-2 34,-5 2,-7 3,-12 3,-17 0,-6 -2,-10 -6,-13 -6,-5 -15,-7 -26,-7 -10,0 -19,2 -26,7 -6,4 -11,11 -14,19l-25 -2c5,-14 13,-25 24,-33 11,-8 25,-12 42,-12 18,0 33,5 43,13 8,7 12,15 12,25 0,8 -1,17 -3,28l-8 36c-3,11 -4,21 -4,28 0,5 1,11 3,20l-25 0c-1,-5 -2,-11 -3,-18zm9 -56c-3,1 -7,2 -11,3 -4,1 -11,1 -20,2 -15,1 -25,3 -31,5 -6,2 -10,5 -13,10 -3,4 -5,9 -5,14 0,7 3,13 7,17 5,5 12,7 21,7 8,0 16,-2 24,-7 8,-4 14,-10 18,-18 4,-8 8,-19 10,-33zm148 53c-14,16 -29,24 -45,24 -14,0 -25,-5 -34,-15 -10,-11 -14,-25 -14,-45 0,-18 4,-34 11,-49 7,-14 16,-25 27,-33 11,-7 22,-11 33,-11 18,0 32,9 41,27l17 -79 25 0 -42 202 -24 0 5 -21zm-68 -40c0,10 1,18 3,24 2,5 5,10 10,14 5,4 11,6 18,6 11,0 21,-6 30,-18 13,-15 19,-34 19,-57 0,-12 -3,-21 -9,-27 -6,-7 -14,-10 -23,-10 -6,0 -12,1 -16,4 -5,3 -10,7 -15,13 -5,7 -9,15 -12,25 -4,10 -5,18 -5,26zm126 61l31 -147 22 0 -6 30c8,-11 15,-19 22,-25 7,-5 15,-8 22,-8 5,0 11,2 19,6l-11 23c-4,-3 -9,-5 -14,-5 -9,0 -18,5 -27,15 -9,9 -16,27 -22,52l-12 59 -24 0zm202 -50l24 3c-3,12 -11,23 -24,34 -12,11 -27,16 -45,16 -11,0 -21,-2 -30,-7 -9,-5 -16,-13 -20,-22 -5,-10 -7,-21 -7,-33 0,-16 3,-31 11,-46 7,-15 17,-26 28,-34 12,-7 25,-11 39,-11 17,0 31,6 42,17 10,10 15,25 15,44 0,7 0,14 -2,22l-108 0c0,3 0,5 0,7 0,14 3,25 9,32 6,7 14,11 23,11 9,0 17,-3 26,-9 8,-5 14,-13 19,-24zm-73 -36l83 0c0,-3 0,-5 0,-6 0,-12 -3,-22 -10,-29 -6,-6 -14,-9 -24,-9 -11,0 -20,3 -29,11 -9,7 -15,18 -20,33zm125 36l25 -2c0,7 1,14 3,19 2,5 6,9 12,12 6,3 13,5 21,5 11,0 19,-2 24,-7 6,-4 9,-9 9,-15 0,-5 -2,-9 -5,-13 -4,-3 -12,-8 -25,-14 -13,-5 -21,-9 -25,-12 -6,-3 -11,-8 -14,-13 -3,-5 -5,-11 -5,-18 0,-11 5,-21 14,-29 9,-9 22,-13 38,-13 19,0 33,5 42,13 10,9 15,20 15,34l-24 1c0,-9 -4,-16 -9,-21 -6,-5 -14,-7 -25,-7 -9,0 -15,2 -20,5 -5,4 -7,9 -7,13 0,5 2,9 6,12 3,3 10,7 21,12 19,8 31,14 36,19 8,8 12,17 12,28 0,7 -2,14 -7,21 -4,7 -11,13 -20,17 -9,4 -20,6 -32,6 -17,0 -32,-4 -43,-13 -12,-8 -18,-21 -17,-40zm237 32c-9,7 -17,13 -25,16 -8,3 -16,5 -26,5 -13,0 -24,-4 -32,-12 -9,-8 -13,-18 -13,-30 0,-8 2,-16 6,-22 4,-6 9,-11 15,-15 6,-4 13,-7 22,-8 6,-1 17,-2 32,-3 16,-1 27,-2 34,-5 2,-7 3,-12 3,-17 0,-6 -2,-10 -6,-13 -6,-5 -15,-7 -26,-7 -10,0 -19,2 -26,7 -6,4 -11,11 -14,19l-25 -2c5,-14 13,-25 24,-33 11,-8 25,-12 42,-12 18,0 33,5 43,13 8,7 12,15 12,25 0,8 -1,17 -3,28l-8 36c-3,11 -4,21 -4,28 0,5 1,11 3,20l-25 0c-1,-5 -2,-11 -3,-18zm9 -56c-3,1 -7,2 -11,3 -4,1 -11,1 -20,2 -15,1 -25,3 -31,5 -6,2 -10,5 -13,10 -3,4 -5,9 -5,14 0,7 3,13 7,17 5,5 12,7 21,7 8,0 16,-2 24,-7 7,-4 14,-10 18,-18 4,-8 8,-19 10,-33zm-38 -90l26 -38 31 0 -36 38 -21 0zm87 164l31 -147 22 0 -6 30c8,-11 15,-19 22,-25 7,-5 15,-8 22,-8 5,0 11,2 19,6l-11 23c-4,-3 -9,-5 -14,-5 -9,0 -18,5 -27,15 -9,9 -16,27 -22,52l-12 59 -24 0zm119 -202l-37 38 -27 0 -17 -38 21 0 11 24 23 -24 26 0zm11 28l6 -28 25 0 -6 28 -25 0zm-36 174l31 -147 24 0 -30 147 -25 0zm240 -18c-9,7 -17,13 -25,16 -8,3 -16,5 -26,5 -13,0 -24,-4 -32,-12 -8,-8 -13,-18 -13,-30 0,-8 2,-16 6,-22 4,-6 9,-11 15,-15 6,-4 13,-7 22,-8 6,-1 17,-2 32,-3 16,-1 27,-2 34,-5 2,-7 3,-12 3,-17 0,-6 -2,-10 -6,-13 -6,-5 -14,-7 -26,-7 -10,0 -19,2 -26,7 -6,4 -11,11 -14,19l-25 -2c5,-14 13,-25 24,-33 11,-8 25,-12 42,-12 18,0 33,5 43,13 8,7 12,15 12,25 0,8 -1,17 -3,28l-8 36c-3,11 -4,21 -4,28 0,5 1,11 3,20l-25 0c-1,-5 -2,-11 -3,-18zm9 -56c-3,1 -7,2 -11,3 -4,1 -11,1 -20,2 -15,1 -25,3 -31,5 -6,2 -10,5 -13,10 -3,4 -5,9 -5,14 0,7 3,13 7,17 5,5 12,7 21,7 8,0 16,-2 24,-7 8,-4 14,-10 18,-18 4,-8 8,-19 10,-33zm164 -100l6 -28 24 0 -5 28 -25 0zm-37 174l31 -147 25 0 -31 147 -25 0zm63 0l31 -147 23 0 -5 26c9,-10 19,-17 27,-22 9,-4 18,-7 27,-7 12,0 21,4 28,10 7,6 10,15 10,26 0,5 -1,14 -3,26l-20 88 -25 0 20 -93c3,-9 4,-15 4,-20 0,-5 -2,-8 -6,-11 -3,-4 -8,-5 -14,-5 -13,0 -25,5 -35,14 -10,9 -18,25 -23,47l-14 68 -25 0zm256 -21c-14,16 -29,24 -45,24 -13,0 -25,-5 -34,-15 -9,-11 -14,-25 -14,-45 0,-18 4,-34 11,-49 7,-14 16,-25 27,-33 11,-7 22,-11 33,-11 18,0 32,9 41,27l17 -79 25 0 -42 202 -23 0 4 -21zm-68 -40c0,10 1,18 3,24 2,5 5,10 10,14 5,4 11,6 18,6 11,0 21,-6 30,-18 13,-15 19,-34 19,-57 0,-12 -3,-21 -9,-27 -6,-7 -14,-10 -23,-10 -6,0 -11,1 -16,4 -5,3 -10,7 -15,13 -5,7 -9,15 -12,25 -4,10 -5,18 -5,26zm234 11l24 3c-3,12 -11,23 -24,34 -12,11 -27,16 -45,16 -11,0 -20,-2 -30,-7 -9,-5 -16,-13 -20,-22 -5,-10 -7,-21 -7,-33 0,-16 3,-31 11,-46 7,-15 17,-26 29,-34 11,-7 24,-11 38,-11 17,0 31,6 42,17 10,10 15,25 15,44 0,7 0,14 -2,22l-108 0c0,3 0,5 0,7 0,14 3,25 9,32 7,7 14,11 23,11 9,0 17,-3 26,-9 8,-5 15,-13 19,-24zm-73 -36l83 0c0,-3 0,-5 0,-6 0,-12 -3,-22 -9,-29 -7,-6 -15,-9 -25,-9 -10,0 -20,3 -29,11 -9,7 -15,18 -20,33zm113 86l63 -74 -36 -73 27 0 13 26c5,10 9,19 12,28l42 -54 31 0 -61 74 37 73 -28 0 -15 -30c-3,-6 -6,-14 -10,-23l-44 53 -31 0zm250 -27c-17,20 -35,30 -54,30 -11,0 -20,-3 -27,-10 -7,-6 -10,-14 -10,-23 0,-6 1,-17 5,-32l19 -85 25 0 -21 95c-2,8 -3,14 -3,19 0,5 2,9 5,11 4,3 9,5 15,5 7,0 14,-2 21,-5 7,-4 13,-8 18,-14 4,-6 8,-13 12,-20 2,-5 4,-14 7,-27l14 -64 24 0 -32 147 -23 0 5 -27zm63 27l6 -28 28 0 -5 24c-3,15 -8,26 -14,33 -7,7 -14,11 -23,12l2 -11c11,-3 18,-13 22,-30l-16 0zm250 -18c-9,7 -17,13 -25,16 -8,3 -17,5 -26,5 -13,0 -24,-4 -32,-12 -9,-8 -13,-18 -13,-30 0,-8 2,-16 6,-22 4,-6 8,-11 15,-15 6,-4 13,-7 22,-8 6,-1 17,-2 32,-3 16,-1 27,-2 34,-5 2,-7 3,-12 3,-17 0,-6 -2,-10 -6,-13 -6,-5 -15,-7 -26,-7 -10,0 -19,2 -26,7 -6,4 -11,11 -14,19l-25 -2c5,-14 13,-25 24,-33 11,-8 25,-12 42,-12 18,0 33,5 43,13 8,7 12,15 12,25 0,8 -1,17 -3,28l-8 36c-3,11 -4,21 -4,28 0,5 1,11 3,20l-25 0c-2,-5 -3,-11 -3,-18zm9 -56c-3,1 -7,2 -11,3 -4,1 -11,1 -20,2 -15,1 -25,3 -31,5 -6,2 -10,5 -13,10 -3,4 -5,9 -5,14 0,7 2,13 7,17 5,5 12,7 21,7 8,0 16,-2 24,-7 7,-4 13,-10 18,-18 4,-8 8,-19 10,-33zm48 74l42 -202 25 0 -43 202 -24 0zm172 -50l24 3c-4,12 -12,23 -24,34 -13,11 -28,16 -45,16 -11,0 -21,-2 -30,-7 -9,-5 -16,-13 -21,-22 -4,-10 -7,-21 -7,-33 0,-16 4,-31 11,-46 8,-15 17,-26 29,-34 12,-7 25,-11 38,-11 18,0 32,6 42,17 11,10 16,25 16,44 0,7 -1,14 -2,22l-108 0c-1,3 -1,5 -1,7 0,14 3,25 10,32 6,7 14,11 23,11 9,0 17,-3 25,-9 9,-5 15,-13 20,-24zm-73 -36l82 0c0,-3 0,-5 0,-6 0,-12 -3,-22 -9,-29 -6,-6 -14,-9 -24,-9 -11,0 -21,3 -29,11 -9,7 -16,18 -20,33zm200 86l31 -147 23 0 -6 26c10,-10 20,-17 28,-22 9,-4 18,-7 27,-7 12,0 21,4 28,10 7,6 10,15 10,26 0,5 -1,14 -4,26l-19 88 -25 0 20 -93c2,-9 3,-15 3,-20 0,-5 -1,-8 -5,-11 -3,-4 -8,-5 -15,-5 -13,0 -24,5 -34,14 -11,9 -18,25 -23,47l-14 68 -25 0zm265 -50l24 3c-3,12 -11,23 -24,34 -12,11 -27,16 -45,16 -11,0 -21,-2 -30,-7 -9,-5 -16,-13 -20,-22 -5,-10 -8,-21 -8,-33 0,-16 4,-31 12,-46 7,-15 17,-26 28,-34 12,-7 25,-11 39,-11 17,0 31,6 42,17 10,10 15,25 15,44 0,7 0,14 -2,22l-108 0c0,3 0,5 0,7 0,14 3,25 9,32 6,7 14,11 23,11 9,0 17,-3 26,-9 8,-5 14,-13 19,-24zm-73 -36l83 0c0,-3 0,-5 0,-6 0,-12 -3,-22 -10,-29 -6,-6 -14,-9 -24,-9 -11,0 -20,3 -29,11 -9,7 -15,18 -20,33zm122 86l31 -147 23 0 -6 26c10,-10 19,-17 28,-22 9,-4 18,-7 27,-7 12,0 21,4 28,10 7,6 10,15 10,26 0,5 -1,14 -4,26l-20 88 -24 0 20 -93c2,-9 3,-15 3,-20 0,-5 -1,-8 -5,-11 -3,-4 -8,-5 -15,-5 -13,0 -24,5 -35,14 -10,9 -17,25 -22,47l-14 68 -25 0zm166 0l30 -147 25 0 -30 147 -25 0zm23 -164l26 -38 32 0 -37 38 -21 0zm162 164l-24 -147 24 0 13 81c1,9 3,23 5,43 5,-10 11,-22 18,-35l49 -89 26 0 -83 147 -28 0zm264 0l42 -202 27 0 -18 84 105 0 18 -84 27 0 -42 202 -27 0 20 -95 -106 0 -20 95 -26 0zm203 0l43 -202 147 0 -5 23 -120 0 -13 63 117 0 -5 23 -117 0 -15 70 128 0 -5 23 -155 0zm171 0l114 -202 32 0 34 202 -27 0 -9 -58 -82 0 -32 58 -30 0zm74 -79l67 0 -8 -51c-3,-20 -5,-37 -6,-50 -5,11 -12,25 -21,41l-32 60zm132 79l43 -202 60 0c15,0 26,1 34,3 11,3 20,8 28,15 8,8 14,17 18,28 4,11 6,23 6,36 0,17 -3,32 -8,45 -5,13 -11,25 -19,35 -8,10 -16,18 -25,24 -9,6 -19,10 -31,13 -9,2 -20,3 -33,3l-73 0zm32 -23l32 0c14,0 27,-1 38,-4 7,-2 13,-4 18,-7 7,-4 13,-10 18,-17 7,-9 13,-19 17,-30 4,-12 6,-25 6,-40 0,-16 -3,-29 -8,-38 -6,-8 -13,-14 -22,-17 -7,-2 -17,-3 -31,-3l-35 0 -33 156zm-10353 246l76 0 -7 39 -77 0 8 -39zm194 -54l37 0 -3 17c15,-14 30,-21 46,-21 11,0 19,2 25,7 6,5 10,11 12,19 5,-7 12,-14 22,-18 9,-5 19,-8 29,-8 12,0 21,3 28,10 6,6 9,14 9,25 0,5 -1,14 -4,26l-19 89 -39 0 19 -89c2,-11 3,-18 3,-19 0,-4 -1,-8 -3,-10 -3,-2 -7,-4 -12,-4 -9,0 -18,6 -26,16 -6,7 -11,21 -15,40l-14 66 -39 0 18 -89c3,-10 4,-16 4,-19 0,-4 -2,-7 -4,-10 -3,-2 -7,-4 -11,-4 -4,0 -9,2 -14,4 -4,3 -8,6 -12,11 -3,4 -6,10 -9,17 -1,4 -3,11 -5,23l-14 67 -40 0 31 -146zm253 0l40 0 -20 87c-2,10 -3,17 -3,19 0,4 1,8 4,11 3,3 6,5 11,5 3,0 6,-1 9,-2 3,-2 6,-4 10,-7 3,-3 6,-6 8,-9 3,-4 5,-9 8,-15 1,-4 3,-11 5,-19l16 -70 39 0 -33 146 -37 0 4 -19c-15,15 -31,23 -48,23 -11,0 -20,-4 -27,-11 -6,-6 -9,-16 -9,-27 0,-5 2,-16 5,-31l18 -81zm136 105l38 -6c3,9 8,14 13,18 5,3 12,5 20,5 9,0 16,-2 22,-6 4,-3 5,-7 5,-11 0,-2 0,-5 -2,-7 -2,-2 -8,-4 -17,-7 -24,-8 -38,-15 -44,-19 -9,-7 -13,-17 -13,-28 0,-12 4,-22 13,-30 12,-12 29,-18 53,-18 19,0 33,4 43,10 9,7 15,17 18,29l-36 6c-2,-5 -5,-9 -10,-12 -6,-4 -13,-6 -21,-6 -8,0 -14,2 -18,5 -3,2 -5,6 -5,9 0,4 2,7 5,9 3,2 10,4 23,8 19,6 32,11 38,17 9,7 14,17 14,27 0,14 -6,26 -18,37 -11,10 -28,15 -49,15 -21,0 -37,-4 -49,-12 -11,-8 -19,-18 -23,-33zm192 -105l40 0 -31 146 -39 0 30 -146zm26 -61l42 0 -45 42 -26 0 29 -42zm99 207l43 -202 39 0 -14 67c7,-5 14,-9 20,-11 7,-3 13,-4 21,-4 15,0 28,5 37,16 9,10 14,25 14,45 0,13 -2,26 -6,39 -5,12 -11,23 -18,31 -7,7 -15,13 -23,17 -8,4 -17,6 -25,6 -21,0 -37,-9 -47,-27l-5 23 -36 0zm53 -59c0,10 3,18 9,24 5,6 12,9 20,9 6,0 13,-2 19,-7 6,-5 11,-13 15,-23 4,-11 6,-21 6,-32 0,-11 -3,-19 -8,-25 -6,-6 -12,-9 -20,-9 -10,0 -19,5 -26,14 -10,13 -15,29 -15,49z"/>
   <path class="fil3" d="M3729 2648l39 0 10 73c3,19 4,32 5,39 5,-15 12,-31 21,-47l35 -65 42 0 -91 161c-7,13 -13,22 -17,28 -4,5 -10,9 -16,12 -6,3 -13,5 -21,5 -9,0 -18,-2 -28,-5l3 -29c5,1 9,2 14,2 12,0 22,-9 30,-28l-26 -146zm81 -61l42 0 -44 42 -26 0 28 -42zm74 90l6 -29 19 0 5 -23 45 -27 -10 50 24 0 -6 29 -24 0 -13 62c-2,11 -4,17 -4,19 0,3 1,5 3,7 2,2 6,2 11,2 1,0 6,0 13,0l-7 29c-6,1 -13,2 -20,2 -14,0 -24,-3 -31,-8 -6,-6 -9,-13 -9,-23 0,-4 2,-15 5,-31l13 -59 -20 0zm194 -29l37 0 -4 19c10,-8 19,-14 27,-18 8,-3 17,-5 26,-5 12,0 21,4 28,11 7,7 11,16 11,27 0,6 -2,15 -5,29l-18 83 -39 0 18 -83c2,-12 3,-20 4,-22 0,-5 -2,-9 -5,-12 -3,-3 -7,-5 -13,-5 -5,0 -12,3 -19,8 -7,5 -13,11 -17,19 -3,6 -6,17 -10,35l-13 60 -39 0 31 -146zm147 85c0,-27 7,-48 22,-65 16,-16 36,-24 61,-24 21,0 38,6 50,18 12,12 18,28 18,48 0,24 -7,45 -22,62 -15,17 -36,26 -61,26 -14,0 -26,-3 -37,-8 -10,-6 -18,-14 -24,-24 -5,-10 -7,-21 -7,-33zm112 -28c0,-9 -3,-17 -8,-23 -5,-5 -12,-8 -21,-8 -9,0 -16,2 -23,8 -6,5 -11,13 -15,23 -4,10 -6,19 -6,28 0,11 3,19 9,25 6,6 13,9 21,9 11,0 20,-4 28,-14 10,-13 15,-29 15,-48zm127 89l-34 0 -29 -146 39 0 10 64c3,17 5,28 5,34 1,-1 4,-7 10,-18 6,-10 9,-16 10,-18l37 -62 42 0 -90 146zm96 -146l40 0 9 73c3,19 4,32 5,39 5,-15 12,-31 21,-47l35 -65 42 0 -91 161c-7,13 -13,22 -17,28 -4,5 -10,9 -15,12 -7,3 -14,5 -22,5 -8,0 -18,-2 -28,-5l3 -29c5,1 9,2 14,2 12,0 22,-9 30,-28l-26 -146zm81 -61l42 0 -44 42 -26 0 28 -42zm137 166l39 -6c3,9 7,14 12,18 5,3 12,5 21,5 9,0 16,-2 21,-6 4,-3 6,-7 6,-11 0,-2 -1,-5 -3,-7 -2,-2 -7,-4 -16,-7 -24,-8 -39,-15 -44,-19 -9,-7 -14,-17 -14,-28 0,-12 5,-22 13,-30 12,-12 30,-18 54,-18 19,0 33,4 42,10 10,7 16,17 19,29l-37 6c-2,-5 -5,-9 -9,-12 -6,-4 -13,-6 -21,-6 -8,0 -14,2 -18,5 -4,2 -5,6 -5,9 0,4 1,7 5,9 2,2 10,4 22,8 19,6 32,11 39,17 9,7 13,17 13,27 0,14 -5,26 -17,37 -12,10 -28,15 -49,15 -21,0 -38,-4 -49,-12 -12,-8 -20,-18 -24,-33zm162 41l42 -202 40 0 -42 202 -40 0zm221 -61l-99 0c0,2 0,3 0,4 0,10 3,18 8,24 6,6 13,9 21,9 13,0 23,-7 31,-21l35 6c-7,14 -16,25 -28,32 -11,7 -24,11 -39,11 -19,0 -35,-6 -48,-19 -12,-12 -18,-29 -18,-49 0,-21 5,-38 17,-54 15,-21 36,-32 64,-32 18,0 33,6 43,17 11,11 16,26 16,46 0,10 -1,19 -3,26zm-33 -24c0,-2 0,-3 0,-4 0,-11 -2,-19 -7,-24 -5,-6 -12,-9 -20,-9 -8,0 -15,3 -22,10 -6,6 -11,15 -13,27l62 0zm183 85l-38 0 4 -15c-7,6 -15,11 -22,14 -6,3 -14,5 -23,5 -15,0 -27,-5 -37,-16 -9,-10 -14,-25 -14,-46 0,-23 7,-44 20,-63 14,-19 31,-29 53,-29 20,0 35,8 45,24l17 -76 39 0 -44 202zm-92 -59c0,10 3,18 8,24 6,6 12,9 20,9 7,0 14,-2 20,-7 7,-5 12,-13 16,-23 3,-10 5,-20 5,-29 0,-11 -3,-19 -8,-26 -6,-6 -13,-10 -20,-10 -12,0 -22,7 -29,20 -8,13 -12,27 -12,42zm135 -2c0,-27 8,-48 23,-65 15,-16 35,-24 60,-24 22,0 39,6 51,18 12,12 18,28 18,48 0,24 -8,45 -23,62 -15,17 -35,26 -61,26 -13,0 -26,-3 -36,-8 -11,-6 -19,-14 -24,-24 -5,-10 -8,-21 -8,-33zm113 -28c0,-9 -3,-17 -9,-23 -5,-5 -12,-8 -21,-8 -8,0 -16,2 -22,8 -7,5 -12,13 -16,23 -3,10 -5,19 -5,28 0,11 3,19 8,25 6,6 13,9 22,9 11,0 20,-4 27,-14 10,-13 16,-29 16,-48zm127 89l-34 0 -30 -146 39 0 10 64c3,17 5,28 6,34 1,-1 4,-7 9,-18 6,-10 10,-16 11,-18l36 -62 43 0 -90 146zm139 -105l-38 -4c4,-13 12,-23 23,-30 11,-7 25,-11 44,-11 18,0 32,4 41,11 9,8 14,17 14,28 0,5 -1,9 -1,14 -1,5 -4,18 -9,40 -3,17 -5,29 -5,36 0,7 1,14 3,21l-39 0c-1,-5 -2,-11 -2,-16 -6,6 -13,11 -20,15 -8,3 -16,5 -23,5 -12,0 -22,-4 -30,-12 -8,-8 -12,-18 -12,-31 0,-14 4,-25 13,-34 9,-8 24,-13 46,-15 19,-1 32,-3 38,-5 2,-6 3,-10 3,-14 0,-4 -2,-8 -5,-10 -4,-3 -9,-5 -16,-5 -7,0 -12,2 -16,5 -4,2 -7,6 -9,12zm38 37c-2,0 -6,1 -9,1 -20,3 -33,6 -39,11 -5,3 -7,8 -7,14 0,4 2,8 5,11 3,4 8,5 13,5 6,0 12,-1 17,-4 5,-3 9,-7 12,-11 3,-5 5,-12 7,-22l1 -5zm95 -78l37 0 -3 19c9,-8 18,-14 26,-18 8,-3 17,-5 26,-5 12,0 22,4 29,11 7,7 10,16 10,27 0,6 -2,15 -5,29l-18 83 -39 0 18 -83c2,-12 4,-20 4,-22 0,-5 -2,-9 -5,-12 -3,-3 -7,-5 -12,-5 -6,0 -13,3 -20,8 -7,5 -13,11 -17,19 -3,6 -6,17 -10,35l-13 60 -39 0 31 -146zm153 0l39 0 10 73c3,19 4,32 5,39 5,-15 12,-31 21,-47l35 -65 42 0 -91 161c-7,13 -13,22 -17,28 -5,5 -10,9 -16,12 -6,3 -13,5 -21,5 -9,0 -18,-2 -29,-5l4 -29c5,1 9,2 14,2 12,0 22,-9 30,-28l-26 -146zm81 -61l42 0 -44 42 -27 0 29 -42zm137 166l38 -6c4,9 8,14 13,18 5,3 12,5 21,5 9,0 16,-2 21,-6 4,-3 6,-7 6,-11 0,-2 -1,-5 -3,-7 -2,-2 -7,-4 -16,-7 -24,-8 -39,-15 -45,-19 -8,-7 -13,-17 -13,-28 0,-12 4,-22 13,-30 12,-12 30,-18 53,-18 19,0 33,4 43,10 10,7 16,17 18,29l-36 6c-2,-5 -5,-9 -9,-12 -6,-4 -13,-6 -21,-6 -9,0 -15,2 -18,5 -4,2 -6,6 -6,9 0,4 2,7 6,9 2,2 10,4 22,8 19,6 32,11 38,17 10,7 14,17 14,27 0,14 -6,26 -17,37 -12,10 -28,15 -50,15 -21,0 -37,-4 -48,-12 -12,-8 -20,-18 -24,-33zm168 -20c0,-27 8,-48 23,-65 15,-16 35,-24 60,-24 22,0 39,6 51,18 12,12 18,28 18,48 0,24 -8,45 -23,62 -15,17 -35,26 -61,26 -13,0 -26,-3 -36,-8 -11,-6 -19,-14 -24,-24 -5,-10 -8,-21 -8,-33zm113 -28c0,-9 -3,-17 -9,-23 -5,-5 -12,-8 -21,-8 -8,0 -16,2 -22,8 -7,5 -12,13 -16,23 -3,10 -5,19 -5,28 0,11 3,19 8,25 6,6 13,9 22,9 11,0 20,-4 27,-14 10,-13 16,-29 16,-48zm86 -57l39 0 -19 87c-3,10 -4,17 -4,19 0,4 1,8 4,11 3,3 7,5 11,5 3,0 6,-1 9,-2 3,-2 7,-4 10,-7 3,-3 6,-6 9,-9 2,-4 5,-9 7,-15 1,-4 3,-11 5,-19l16 -70 40 0 -34 146 -37 0 4 -19c-15,15 -31,23 -48,23 -11,0 -20,-4 -26,-11 -7,-6 -10,-16 -10,-27 0,-5 2,-16 5,-31l19 -81zm139 146l42 -202 40 0 -15 67c7,-5 14,-9 21,-11 6,-3 13,-4 20,-4 16,0 28,5 38,16 9,10 14,25 14,45 0,13 -3,26 -7,39 -4,12 -10,23 -18,31 -7,7 -15,13 -23,17 -8,4 -16,6 -25,6 -21,0 -37,-9 -46,-27l-5 23 -36 0zm53 -59c0,10 3,18 8,24 6,6 12,9 20,9 7,0 13,-2 19,-7 6,-5 11,-13 15,-23 4,-11 6,-21 6,-32 0,-11 -3,-19 -8,-25 -5,-6 -12,-9 -20,-9 -10,0 -18,5 -25,14 -10,13 -15,29 -15,49zm126 -2c0,-27 8,-48 23,-65 15,-16 36,-24 60,-24 22,0 39,6 51,18 12,12 18,28 18,48 0,24 -8,45 -23,62 -15,17 -35,26 -60,26 -14,0 -26,-3 -37,-8 -11,-6 -19,-14 -24,-24 -5,-10 -8,-21 -8,-33zm113 -28c0,-9 -3,-17 -8,-23 -6,-5 -13,-8 -21,-8 -9,0 -17,2 -23,8 -7,5 -12,13 -15,23 -4,10 -6,19 -6,28 0,11 3,19 9,25 5,6 12,9 21,9 11,0 20,-4 27,-14 11,-13 16,-29 16,-48zm82 -57l37 0 -5 27c13,-21 28,-31 44,-31 6,0 12,1 18,4l-15 33c-4,-2 -7,-2 -12,-2 -6,0 -13,2 -20,8 -7,5 -13,12 -17,20 -4,9 -8,23 -12,41l-9 46 -40 0 31 -146zm75 108l39 0 -6 32c-4,18 -10,31 -18,38 -9,8 -19,12 -33,12l4 -18c7,-2 12,-4 16,-8 3,-4 6,-10 8,-18l-18 0 8 -38zm147 38l43 -202 39 0 -22 105 51 -49 52 0 -59 53 31 93 -39 0 -20 -68 -27 24 -9 44 -40 0zm168 -117l6 -29 19 0 5 -23 45 -27 -10 50 24 0 -6 29 -24 0 -13 62c-3,11 -4,17 -4,19 0,3 1,5 3,7 2,2 5,2 10,2 2,0 7,0 13,0l-6 29c-7,1 -13,2 -21,2 -13,0 -24,-3 -30,-8 -6,-6 -9,-13 -9,-23 0,-4 1,-15 5,-31l12 -59 -19 0zm226 56l-99 0c0,2 0,3 0,4 0,10 3,18 8,24 6,6 13,9 21,9 13,0 23,-7 31,-21l35 6c-7,14 -16,25 -28,32 -11,7 -24,11 -39,11 -19,0 -35,-6 -48,-19 -12,-12 -18,-29 -18,-49 0,-21 5,-38 16,-54 16,-21 37,-32 65,-32 18,0 33,6 43,17 11,11 16,26 16,46 0,10 -1,19 -3,26zm-33 -24c0,-2 0,-3 0,-4 0,-11 -2,-19 -7,-24 -5,-6 -12,-9 -20,-9 -8,0 -15,3 -22,10 -6,6 -11,15 -13,27l62 0zm76 -61l37 0 -5 27c13,-21 28,-31 44,-31 6,0 12,1 18,4l-15 33c-4,-2 -8,-2 -12,-2 -6,0 -13,2 -20,8 -7,5 -13,12 -17,20 -4,9 -8,23 -12,41l-9 46 -40 0 31 -146zm94 0l39 0 10 73c2,19 4,32 4,39 5,-15 13,-31 22,-47l34 -65 42 0 -90 161c-8,13 -13,22 -18,28 -4,5 -9,9 -15,12 -6,3 -13,5 -22,5 -8,0 -17,-2 -28,-5l4 -29c4,1 9,2 13,2 13,0 23,-9 30,-28l-25 -146zm81 -61l42 0 -45 42 -26 0 29 -42zm174 61l39 0 -19 87c-3,10 -4,17 -4,19 0,4 2,8 5,11 2,3 6,5 10,5 4,0 7,-1 10,-2 3,-2 6,-4 9,-7 3,-3 6,-6 9,-9 3,-4 5,-9 7,-15 2,-4 4,-11 6,-19l15 -70 40 0 -33 146 -37 0 4 -19c-15,15 -31,23 -49,23 -11,0 -20,-4 -26,-11 -6,-6 -10,-16 -10,-27 0,-5 2,-16 6,-31l18 -81zm134 146l5 -27 81 -88 -66 0 7 -31 114 0 -4 23 -81 91 70 0 -7 32 -119 0zm87 -182l24 -25 33 0 -41 42 -37 0 -17 -42 28 0 10 25zm103 -20l39 0 -7 36 -40 0 8 -36zm-12 56l40 0 -31 146 -40 0 31 -146zm121 146l-34 0 -29 -146 39 0 10 64c2,17 4,28 5,34 1,-1 4,-7 10,-18 5,-10 9,-16 10,-18l36 -62 43 0 -90 146zm140 -105l-39 -4c4,-13 12,-23 23,-30 11,-7 26,-11 44,-11 19,0 33,4 42,11 9,8 13,17 13,28 0,5 0,9 -1,14 -1,5 -4,18 -8,40 -4,17 -6,29 -6,36 0,7 1,14 3,21l-38 0c-2,-5 -3,-11 -3,-16 -6,6 -13,11 -20,15 -8,3 -15,5 -23,5 -12,0 -22,-4 -30,-12 -8,-8 -12,-18 -12,-31 0,-14 4,-25 13,-34 9,-8 24,-13 47,-15 19,-1 31,-3 38,-5 1,-6 2,-10 2,-14 0,-4 -2,-8 -5,-10 -3,-3 -9,-5 -15,-5 -7,0 -13,2 -17,5 -4,2 -7,6 -8,12zm37 37c-2,0 -5,1 -9,1 -20,3 -33,6 -39,11 -4,3 -7,8 -7,14 0,4 2,8 5,11 4,4 8,5 13,5 6,0 12,-1 17,-4 6,-3 10,-7 12,-11 3,-5 5,-12 7,-22l1 -5zm74 -49l6 -29 19 0 5 -23 45 -27 -10 50 23 0 -5 29 -24 0 -13 62c-3,11 -4,17 -4,19 0,3 1,5 3,7 2,2 5,2 10,2 2,0 6,0 13,0l-6 29c-7,1 -14,2 -21,2 -14,0 -24,-3 -30,-8 -6,-6 -9,-13 -9,-23 0,-4 1,-15 5,-31l12 -59 -19 0zm226 56l-99 0c0,2 0,3 0,4 0,10 3,18 8,24 6,6 13,9 21,9 13,0 23,-7 31,-21l35 6c-7,14 -16,25 -28,32 -11,7 -24,11 -39,11 -19,0 -35,-6 -48,-19 -12,-12 -18,-29 -18,-49 0,-21 5,-38 16,-54 16,-21 37,-32 65,-32 18,0 33,6 43,17 11,11 16,26 16,46 0,10 -1,19 -3,26zm-33 -24c0,-2 0,-3 0,-4 0,-11 -2,-19 -7,-24 -5,-6 -12,-9 -20,-9 -8,0 -15,3 -22,10 -6,6 -11,15 -13,27l62 0zm47 85l43 -202 39 0 -42 202 -40 0zm187 -146l37 0 -3 15c8,-7 16,-12 23,-15 7,-3 14,-4 22,-4 15,0 28,5 37,16 10,11 14,26 14,47 0,27 -8,49 -24,68 -14,15 -30,23 -49,23 -20,0 -35,-8 -44,-24l-16 76 -40 0 43 -202zm23 84c0,11 3,20 9,27 5,6 12,9 20,9 6,0 12,-2 19,-7 6,-5 11,-13 15,-24 4,-11 6,-21 6,-31 0,-11 -3,-19 -8,-25 -5,-6 -12,-9 -20,-9 -8,0 -15,3 -21,8 -6,6 -11,14 -15,24 -3,11 -5,20 -5,28zm120 62l42 -202 39 0 -42 202 -39 0zm134 -105l-39 -4c5,-13 13,-23 24,-30 11,-7 25,-11 43,-11 19,0 33,4 42,11 9,8 14,17 14,28 0,5 -1,9 -1,14 -1,5 -4,18 -9,40 -4,17 -6,29 -6,36 0,7 2,14 4,21l-39 0c-1,-5 -2,-11 -3,-16 -5,6 -12,11 -20,15 -7,3 -15,5 -22,5 -13,0 -23,-4 -30,-12 -8,-8 -12,-18 -12,-31 0,-14 4,-25 13,-34 8,-8 24,-13 46,-15 19,-1 32,-3 38,-5 2,-6 3,-10 3,-14 0,-4 -2,-8 -6,-10 -3,-3 -8,-5 -15,-5 -7,0 -12,2 -16,5 -5,2 -7,6 -9,12zm38 37c-3,0 -6,1 -10,1 -20,3 -33,6 -39,11 -4,3 -6,8 -6,14 0,4 2,8 5,11 3,4 8,5 13,5 6,0 12,-1 17,-4 5,-3 9,-7 12,-11 2,-5 5,-12 7,-22l1 -5zm-1 -139l42 0 -44 42 -26 0 28 -42zm95 61l38 0 -4 19c10,-8 19,-14 27,-18 8,-3 17,-5 26,-5 12,0 21,4 28,11 7,7 11,16 11,27 0,6 -2,15 -5,29l-18 83 -40 0 18 -83c3,-12 4,-20 5,-22 0,-5 -2,-9 -5,-12 -3,-3 -7,-5 -13,-5 -5,0 -12,3 -19,8 -7,5 -13,11 -17,19 -3,6 -6,17 -10,35l-13 60 -39 0 30 -146zm174 0l39 0 -19 87c-3,10 -4,17 -4,19 0,4 1,8 4,11 3,3 7,5 11,5 3,0 6,-1 10,-2 3,-2 6,-4 9,-7 3,-3 6,-6 9,-9 2,-4 5,-9 7,-15 2,-4 3,-11 5,-19l16 -70 40 0 -34 146 -36 0 3 -19c-14,15 -31,23 -48,23 -11,0 -20,-4 -26,-11 -7,-6 -10,-16 -10,-27 0,-5 2,-16 5,-31l19 -81zm183 -56l39 0 -7 36 -40 0 8 -36zm-12 56l39 0 -26 125c-8,35 -14,56 -20,63 -8,12 -21,18 -40,18 -11,0 -22,-2 -31,-5l6 -32c7,1 13,2 18,2 6,0 11,-2 14,-6 4,-4 9,-19 15,-44l25 -121zm190 85l-99 0c-1,2 -1,3 -1,4 0,10 3,18 9,24 5,6 12,9 20,9 14,0 24,-7 31,-21l36 6c-7,14 -16,25 -28,32 -12,7 -25,11 -39,11 -20,0 -36,-6 -48,-19 -12,-12 -19,-29 -19,-49 0,-21 6,-38 17,-54 15,-21 37,-32 65,-32 18,0 32,6 43,17 10,11 16,26 16,46 0,10 -1,19 -3,26zm-33 -24c0,-2 0,-3 0,-4 0,-11 -3,-19 -8,-24 -4,-6 -11,-9 -19,-9 -8,0 -16,3 -22,10 -7,6 -11,15 -13,27l62 0z"/>
   <path class="fil3" d="M10372 2739l38 6c-6,18 -15,31 -28,39 -12,9 -27,14 -43,14 -19,0 -33,-6 -44,-17 -11,-11 -17,-26 -17,-46 0,-16 4,-31 10,-45 7,-14 17,-26 30,-34 14,-8 28,-12 44,-12 17,0 31,5 41,14 11,9 16,21 18,35l-38 4c-1,-8 -3,-14 -7,-18 -4,-4 -10,-6 -16,-6 -8,0 -15,3 -22,9 -6,6 -12,14 -15,26 -4,11 -5,22 -5,32 0,8 2,15 6,20 4,4 9,7 16,7 6,0 12,-2 18,-7 6,-5 11,-12 14,-21zm64 -6c0,-27 7,-48 23,-65 15,-16 35,-24 60,-24 21,0 38,6 50,18 12,12 19,28 19,48 0,24 -8,45 -23,62 -15,17 -36,26 -61,26 -14,0 -26,-3 -37,-8 -10,-6 -18,-14 -23,-24 -6,-10 -8,-21 -8,-33zm112 -28c0,-9 -2,-17 -8,-23 -5,-5 -12,-8 -21,-8 -8,0 -16,2 -23,8 -6,5 -11,13 -15,23 -4,10 -6,19 -6,28 0,11 3,19 9,25 6,6 13,9 21,9 11,0 20,-4 28,-14 10,-13 15,-29 15,-48zm84 -57l37 0 -3 17c14,-14 30,-21 46,-21 11,0 19,2 25,7 6,5 10,11 12,19 5,-7 12,-14 21,-18 10,-5 20,-8 30,-8 12,0 21,3 27,10 7,6 10,14 10,25 0,5 -1,14 -4,26l-19 89 -40 0 19 -89c3,-11 4,-18 4,-19 0,-4 -1,-8 -4,-10 -2,-2 -6,-4 -11,-4 -10,0 -19,6 -26,16 -6,7 -11,21 -15,40l-14 66 -39 0 18 -89c2,-10 3,-16 3,-19 0,-4 -1,-7 -4,-10 -2,-2 -6,-4 -10,-4 -5,0 -9,2 -14,4 -4,3 -8,6 -12,11 -3,4 -6,10 -9,17 -1,4 -3,11 -5,23l-14 67 -40 0 31 -146zm251 0l37 0 -3 17c14,-14 29,-21 45,-21 12,0 20,2 26,7 6,5 10,11 11,19 6,-7 13,-14 22,-18 10,-5 20,-8 30,-8 12,0 21,3 27,10 7,6 10,14 10,25 0,5 -1,14 -4,26l-19 89 -40 0 19 -89c3,-11 4,-18 4,-19 0,-4 -1,-8 -4,-10 -2,-2 -6,-4 -11,-4 -10,0 -19,6 -26,16 -6,7 -11,21 -15,40l-14 66 -39 0 18 -89c2,-10 3,-16 3,-19 0,-4 -1,-7 -4,-10 -2,-2 -6,-4 -10,-4 -5,0 -9,2 -14,4 -4,3 -9,6 -12,11 -3,4 -6,10 -9,17 -1,4 -3,11 -6,23l-14 67 -39 0 31 -146zm263 -56l40 0 -8 36 -39 0 7 -36zm-11 56l39 0 -30 146 -40 0 31 -146zm58 29l6 -29 19 0 5 -23 44 -27 -10 50 24 0 -6 29 -24 0 -13 62c-2,11 -3,17 -3,19 0,3 1,5 3,7 2,2 5,2 10,2 2,0 6,0 13,0l-6 29c-7,1 -14,2 -21,2 -14,0 -24,-3 -30,-8 -7,-6 -10,-13 -10,-23 0,-4 2,-15 6,-31l12 -59 -19 0zm115 -29l37 0 -3 19c9,-8 18,-14 26,-18 8,-3 17,-5 26,-5 12,0 22,4 29,11 7,7 10,16 10,27 0,6 -2,15 -5,29l-18 83 -39 0 18 -83c2,-12 4,-20 4,-22 0,-5 -2,-9 -5,-12 -3,-3 -7,-5 -12,-5 -6,0 -13,3 -20,8 -7,5 -13,11 -17,19 -3,6 -6,17 -10,35l-13 60 -39 0 31 -146zm147 85c0,-27 7,-48 23,-65 15,-16 35,-24 60,-24 21,0 38,6 50,18 12,12 19,28 19,48 0,24 -8,45 -23,62 -15,17 -36,26 -61,26 -14,0 -26,-3 -37,-8 -10,-6 -18,-14 -23,-24 -6,-10 -8,-21 -8,-33zm112 -28c0,-9 -2,-17 -8,-23 -5,-5 -12,-8 -21,-8 -8,0 -16,2 -23,8 -6,5 -11,13 -15,23 -4,10 -5,19 -5,28 0,11 2,19 8,25 6,6 13,9 21,9 11,0 20,-4 28,-14 10,-13 15,-29 15,-48zm86 -57l40 0 -20 87c-2,10 -3,17 -3,19 0,4 1,8 4,11 3,3 6,5 11,5 3,0 6,-1 9,-2 3,-2 6,-4 10,-7 3,-3 6,-6 8,-9 3,-4 5,-9 8,-15 1,-4 3,-11 5,-19l16 -70 39 0 -33 146 -37 0 4 -19c-15,15 -31,23 -49,23 -11,0 -19,-4 -26,-11 -6,-6 -9,-16 -9,-27 0,-5 1,-16 5,-31l18 -81zm151 29l6 -29 19 0 5 -23 45 -27 -11 50 24 0 -6 29 -24 0 -12 62c-3,11 -4,17 -4,19 0,3 1,5 3,7 2,2 5,2 10,2 2,0 6,0 13,0l-6 29c-7,1 -14,2 -21,2 -14,0 -24,-3 -30,-8 -6,-6 -10,-13 -10,-23 0,-4 2,-15 6,-31l12 -59 -19 0zm-10460 -172l1584 0 0 12 -1584 0 0 -12z"/>
  </g>
 </g>
</svg>
