<?xml version="1.0" encoding="UTF-8"?>
<!DOCTYPE svg PUBLIC "-//W3C//DTD SVG 1.1//EN" "http://www.w3.org/Graphics/SVG/1.1/DTD/svg11.dtd">
<!-- Creator: CorelDRAW X7 -->
<svg xmlns="http://www.w3.org/2000/svg" xml:space="preserve" width="101.078mm" height="58.6459mm" version="1.1" style="shape-rendering:geometricPrecision; text-rendering:geometricPrecision; image-rendering:optimizeQuality; fill-rule:evenodd; clip-rule:evenodd"
viewBox="0 0 10108 5865"
 xmlns:xlink="http://www.w3.org/1999/xlink">
 <defs>
  <style type="text/css">
   <![CDATA[
    .str2 {stroke:#FEFEFE;stroke-width:20}
    .str1 {stroke:#5B5B5B;stroke-width:10}
    .str0 {stroke:#434242;stroke-width:25;stroke-linecap:square}
    .fil3 {fill:none}
    .fil4 {fill:#FEFEFE}
    .fil0 {fill:#EBECEC}
    .fil2 {fill:#434242}
    .fil1 {fill:#2B2A29}
    .fil7 {fill:#EF7F1A}
    .fil6 {fill:#E31E24}
    .fil8 {fill:#009846}
    .fil10 {fill:green}
    .fil11 {fill:gray}
    .fil9 {fill:red}
    .fil5 {fill:#2B2A29;fill-rule:nonzero}
    .fil12 {fill:gray;fill-rule:nonzero}
   ]]>
  </style>
 </defs>
 <g id="Layer_x0020_1">
  <metadata id="CorelCorpID_0Corel-Layer"/>
  <path class="fil0" d="M115 45l9878 0c38,0 70,32 70,70l0 535 -10018 0 0 -535c0,-38 31,-70 70,-70z"/>
  <g>
   <path class="fil1" d="M554 914l9000 0 30 0 0 30 0 4500 0 30 -30 0 -9000 0 -30 0 0 -30 0 -4500 0 -30 30 0zm0 30l9000 0 0 4500 -9000 0 0 -4500z"/>
  </g>
  <g>
   <path class="fil2" d="M115 0l9878 0c31,0 60,13 81,34l0 0c21,21 34,49 34,81l0 5635c0,31 -13,60 -34,81l0 0c-21,21 -50,34 -81,34l-9878 0c-32,0 -60,-13 -81,-34l0 0c-21,-21 -34,-50 -34,-81l0 -5635c0,-32 13,-60 34,-81l0 0c21,-21 49,-34 81,-34zm0 45l9878 0c38,0 70,32 70,70l0 5635c0,38 -32,70 -70,70l-9878 0c-39,0 -70,-32 -70,-70l0 -5635c0,-38 31,-70 70,-70z"/>
  </g>
  <line class="fil3 str0" x1="45" y1="650" x2="10063" y2= "650" />
  <rect class="fil4 str1" x="1540" y="173" width="7027" height="350" rx="65" ry="38"/>
  <path class="fil5" d="M2684 428l20 -95 -16 0 2 -15 17 0 3 -15c1,-8 3,-13 4,-16 2,-4 5,-7 8,-9 4,-3 10,-4 17,-4 6,0 12,1 19,3l-3 16c-7,-2 -12,-3 -16,-3 -2,0 -4,1 -6,2 -1,1 -3,3 -4,5 0,1 -1,5 -2,10l-2 11 20 0 -3 15 -20 0 -20 95 -18 0zm78 -129l5 -22 18 0 -5 22 -18 0zm-26 129l22 -110 18 0 -22 110 -18 0z"/>
  <polygon id="1" class="fil5" points="2792,428 2823,277 2841,277 2810,428 "/>
  <path id="2" class="fil5" d="M2928 391l18 2c-3,9 -9,17 -18,25 -9,9 -20,13 -32,13 -8,0 -15,-2 -22,-6 -6,-4 -11,-9 -15,-16 -3,-8 -5,-16 -5,-25 0,-12 3,-23 8,-35 6,-11 12,-19 21,-25 9,-5 18,-8 28,-8 12,0 22,4 30,12 8,8 11,19 11,33 0,6 0,11 -1,17l-78 0c-1,2 -1,4 -1,6 0,10 3,18 7,23 5,6 10,8 17,8 6,0 12,-2 18,-6 6,-4 11,-10 14,-18zm-52 -28l59 0c0,-1 0,-3 0,-4 0,-9 -2,-16 -6,-21 -5,-5 -11,-8 -18,-8 -8,0 -15,3 -21,9 -7,5 -11,13 -14,24z"/>
  <path id="3" class="fil5" d="M2998 340l4 -22 20 0 -4 22 -20 0zm-18 88l4 -21 21 0 -5 21 -20 0z"/>
  <polygon id="4" class="fil5" points="3026,431 3105,274 3120,274 3042,431 "/>
  <polygon id="5" class="fil5" points="3094,431 3173,274 3188,274 3110,431 "/>
  <polygon id="6" class="fil5" points="3162,431 3241,274 3256,274 3178,431 "/>
  <path id="7" class="fil5" d="M3281 277l20 0 -19 93c-2,8 -2,13 -2,17 0,8 3,15 9,20 6,5 14,7 23,7 8,0 15,-2 21,-5 6,-4 11,-9 15,-16 4,-7 7,-18 10,-33l17 -83 19 0 -18 89c-3,15 -7,27 -12,35 -5,9 -11,16 -20,22 -9,5 -19,8 -31,8 -11,0 -20,-2 -28,-6 -9,-4 -15,-9 -19,-16 -4,-6 -6,-14 -6,-22 0,-6 2,-15 4,-28l17 -82z"/>
  <path id="8" class="fil5" d="M3408 391l18 -2c0,6 1,10 2,14 2,4 5,7 9,10 4,2 9,3 15,3 8,0 14,-1 18,-5 4,-3 6,-7 6,-11 0,-4 -1,-7 -4,-10 -2,-3 -8,-6 -18,-10 -9,-5 -15,-8 -18,-9 -4,-3 -8,-6 -10,-10 -2,-4 -3,-8 -3,-13 0,-9 3,-16 10,-23 6,-6 16,-9 28,-9 13,0 23,3 30,10 7,6 10,14 11,25l-18 1c0,-7 -3,-12 -7,-16 -4,-4 -10,-6 -18,-6 -6,0 -11,2 -14,5 -4,3 -5,6 -5,10 0,3 1,6 4,9 2,1 7,4 15,8 14,6 23,11 26,15 6,5 9,12 9,20 0,6 -2,11 -5,16 -3,6 -8,10 -15,13 -6,3 -14,5 -23,5 -12,0 -22,-4 -31,-10 -8,-6 -13,-16 -12,-30z"/>
  <path id="9" class="fil5" d="M3597 391l18 2c-3,9 -8,17 -17,25 -10,9 -20,13 -33,13 -8,0 -15,-2 -22,-6 -6,-4 -11,-9 -15,-16 -3,-8 -5,-16 -5,-25 0,-12 3,-23 8,-35 6,-11 13,-19 21,-25 9,-5 18,-8 28,-8 12,0 23,4 30,12 8,8 11,19 11,33 0,6 0,11 -1,17l-78 0c0,2 -1,4 -1,6 0,10 3,18 7,23 5,6 11,8 17,8 6,0 12,-2 18,-6 6,-4 11,-10 14,-18zm-52 -28l59 0c1,-1 1,-3 1,-4 0,-9 -3,-16 -7,-21 -5,-5 -11,-8 -18,-8 -8,0 -15,3 -21,9 -6,5 -11,13 -14,24z"/>
  <path id="10" class="fil5" d="M3644 428l23 -110 16 0 -5 23c6,-9 11,-15 16,-19 5,-4 11,-6 16,-6 4,0 8,1 13,4l-7 17c-3,-2 -7,-3 -10,-3 -7,0 -13,3 -20,11 -6,7 -12,20 -16,39l-8 44 -18 0z"/>
  <path id="11" class="fil5" d="M3725 391l19 -2c0,6 0,10 2,14 2,4 4,7 9,10 4,2 9,3 15,3 8,0 13,-1 17,-5 4,-3 6,-7 6,-11 0,-4 -1,-7 -3,-10 -3,-3 -9,-6 -18,-10 -9,-5 -15,-8 -18,-9 -5,-3 -8,-6 -10,-10 -3,-4 -4,-8 -4,-13 0,-9 4,-16 10,-23 7,-6 16,-9 28,-9 13,0 23,3 30,10 7,6 11,14 11,25l-17 1c-1,-7 -3,-12 -7,-16 -4,-4 -10,-6 -18,-6 -6,0 -11,2 -15,5 -3,3 -5,6 -5,10 0,3 2,6 5,9 2,1 7,4 15,8 14,6 22,11 26,15 6,5 9,12 9,20 0,6 -2,11 -5,16 -3,6 -8,10 -15,13 -7,3 -14,5 -23,5 -12,0 -23,-4 -31,-10 -9,-6 -13,-16 -13,-30z"/>
  <polygon id="12" class="fil5" points="3820,431 3898,274 3914,274 3836,431 "/>
  <path id="13" class="fil5" d="M3905 428l31 -151 18 0 -11 54c5,-6 10,-9 15,-12 4,-2 9,-3 14,-3 10,0 18,4 24,12 6,7 10,18 10,33 0,10 -2,18 -4,26 -3,8 -6,15 -10,21 -4,5 -8,10 -12,13 -4,3 -8,6 -12,7 -4,2 -9,3 -13,3 -6,0 -12,-2 -18,-6 -5,-4 -9,-10 -12,-17l-4 20 -16 0zm27 -45l0 4c0,9 2,16 6,21 4,5 9,7 16,7 6,0 11,-2 17,-7 5,-4 9,-11 12,-21 3,-10 5,-19 5,-27 0,-9 -2,-16 -6,-21 -4,-5 -9,-8 -16,-8 -6,0 -12,3 -17,8 -5,5 -10,13 -13,24 -3,8 -4,15 -4,20z"/>
  <path id="14" class="fil5" d="M4033 387c0,-22 6,-40 18,-54 10,-11 24,-17 40,-17 13,0 23,4 31,12 7,9 11,20 11,34 0,12 -2,24 -7,35 -5,11 -12,19 -21,25 -9,6 -19,9 -29,9 -8,0 -15,-2 -22,-6 -7,-4 -12,-9 -16,-15 -3,-7 -5,-15 -5,-23zm18 -2c0,10 3,18 7,23 5,5 11,8 19,8 4,0 7,-1 11,-2 4,-2 7,-4 11,-8 3,-3 6,-7 8,-11 2,-4 4,-9 6,-14 2,-6 3,-13 3,-19 0,-10 -3,-18 -7,-23 -5,-6 -11,-9 -19,-9 -5,0 -11,2 -15,5 -5,2 -9,6 -13,12 -4,5 -6,11 -8,19 -2,7 -3,13 -3,19z"/>
  <path id="15" class="fil5" d="M4155 428l31 -151 17 0 -11 54c6,-6 11,-9 16,-12 4,-2 9,-3 14,-3 9,0 17,4 24,12 6,7 9,18 9,33 0,10 -1,18 -4,26 -2,8 -5,15 -9,21 -4,5 -8,10 -12,13 -4,3 -8,6 -13,7 -4,2 -8,3 -12,3 -7,0 -13,-2 -18,-6 -5,-4 -9,-10 -12,-17l-4 20 -16 0zm27 -45l-1 4c0,9 2,16 7,21 4,5 9,7 15,7 6,0 12,-2 17,-7 5,-4 10,-11 13,-21 3,-10 5,-19 5,-27 0,-9 -2,-16 -6,-21 -5,-5 -10,-8 -16,-8 -6,0 -12,3 -17,8 -6,5 -10,13 -13,24 -3,8 -4,15 -4,20z"/>
  <polygon id="16" class="fil5" points="4262,431 4341,274 4357,274 4278,431 "/>
  <path id="17" class="fil5" d="M4350 428l30 -151 45 0c10,0 18,0 24,2 8,2 15,6 20,11 6,6 10,13 13,21 3,8 4,17 4,28 0,12 -2,23 -5,33 -4,10 -8,19 -14,26 -6,8 -12,14 -18,18 -6,5 -14,8 -22,10 -7,1 -15,2 -24,2l-53 0zm23 -17l23 0c10,0 20,-1 28,-3 5,-1 9,-3 13,-5 5,-3 9,-8 13,-13 5,-6 9,-14 12,-23 3,-8 4,-18 4,-29 0,-13 -2,-22 -6,-29 -4,-6 -9,-11 -16,-13 -4,-1 -12,-2 -22,-2l-26 0 -23 117z"/>
  <path id="18" class="fil5" d="M4584 391l18 2c-3,9 -8,17 -17,25 -10,9 -20,13 -33,13 -8,0 -15,-2 -22,-6 -6,-4 -11,-9 -15,-16 -3,-8 -5,-16 -5,-25 0,-12 3,-23 8,-35 6,-11 13,-19 21,-25 9,-5 18,-8 28,-8 12,0 23,4 30,12 8,8 11,19 11,33 0,6 0,11 -1,17l-78 0c0,2 -1,4 -1,6 0,10 3,18 7,23 5,6 10,8 17,8 6,0 12,-2 18,-6 6,-4 11,-10 14,-18zm-52 -28l59 0c0,-1 0,-3 0,-4 0,-9 -2,-16 -6,-21 -5,-5 -11,-8 -18,-8 -8,0 -15,3 -21,9 -6,5 -11,13 -14,24z"/>
  <path id="19" class="fil5" d="M4633 391l18 -2c0,6 1,10 3,14 1,4 4,7 8,10 5,2 10,3 15,3 8,0 14,-1 18,-5 4,-3 6,-7 6,-11 0,-4 -1,-7 -4,-10 -2,-3 -8,-6 -17,-10 -10,-5 -16,-8 -18,-9 -5,-3 -8,-6 -11,-10 -2,-4 -3,-8 -3,-13 0,-9 3,-16 10,-23 7,-6 16,-9 28,-9 13,0 23,3 30,10 7,6 10,14 11,25l-18 1c0,-7 -2,-12 -7,-16 -4,-4 -10,-6 -17,-6 -7,0 -12,2 -15,5 -3,3 -5,6 -5,10 0,3 1,6 4,9 2,1 7,4 16,8 13,6 22,11 26,15 5,5 8,12 8,20 0,6 -1,11 -5,16 -3,6 -8,10 -14,13 -7,3 -15,5 -24,5 -12,0 -22,-4 -31,-10 -8,-6 -12,-16 -12,-30z"/>
  <polygon id="20" class="fil5" points="4745,428 4775,277 4793,277 4774,371 4827,318 4851,318 4806,359 4833,428 4813,428 4792,372 4770,391 4763,428 "/>
  <path id="21" class="fil5" d="M4900 413l-3 15c-4,2 -8,2 -12,2 -8,0 -13,-2 -17,-5 -4,-3 -5,-7 -5,-12 0,-2 1,-8 2,-16l13 -64 -14 0 3 -15 14 0 6 -27 20 -12 -8 39 18 0 -3 15 -18 0 -12 61c-2,7 -2,12 -2,13 0,3 0,4 1,6 2,1 4,1 7,1 3,0 7,0 10,-1z"/>
  <path id="22" class="fil5" d="M4929 387c0,-22 6,-40 19,-54 10,-11 23,-17 39,-17 13,0 23,4 31,12 8,9 12,20 12,34 0,12 -3,24 -8,35 -5,11 -12,19 -21,25 -9,6 -18,9 -28,9 -9,0 -16,-2 -23,-6 -7,-4 -12,-9 -15,-15 -4,-7 -6,-15 -6,-23zm18 -2c0,10 3,18 7,23 5,5 11,8 19,8 4,0 8,-1 11,-2 4,-2 8,-4 11,-8 3,-3 6,-7 8,-11 3,-4 4,-9 6,-14 2,-6 3,-13 3,-19 0,-10 -2,-18 -7,-23 -5,-6 -11,-9 -19,-9 -5,0 -10,2 -15,5 -5,2 -9,6 -13,12 -4,5 -6,11 -8,19 -2,7 -3,13 -3,19z"/>
  <path id="23" class="fil5" d="M5043 470l30 -152 17 0 -3 16c6,-7 11,-12 16,-14 5,-3 10,-4 16,-4 10,0 18,4 25,11 7,8 10,19 10,33 0,12 -2,22 -6,31 -3,10 -8,17 -13,23 -5,6 -11,10 -16,13 -6,2 -11,4 -17,4 -13,0 -23,-7 -30,-21l-12 60 -17 0zm35 -87c0,9 1,14 2,17 1,5 4,8 8,11 4,3 8,4 13,4 11,0 19,-6 25,-18 7,-12 10,-24 10,-37 0,-9 -2,-16 -6,-21 -5,-5 -10,-8 -16,-8 -5,0 -9,1 -13,4 -4,2 -8,6 -11,11 -4,5 -6,11 -9,19 -2,7 -3,13 -3,18z"/>
  <polygon id="24" class="fil5" points="5159,431 5237,274 5253,274 5174,431 "/>
  <path id="25" class="fil5" d="M5244 428l31 -151 18 0 -12 54c6,-6 11,-9 16,-12 4,-2 9,-3 14,-3 9,0 17,4 24,12 6,7 9,18 9,33 0,10 -1,18 -3,26 -3,8 -6,15 -10,21 -4,5 -8,10 -12,13 -4,3 -8,6 -12,7 -5,2 -9,3 -13,3 -7,0 -13,-2 -18,-6 -5,-4 -9,-10 -12,-17l-4 20 -16 0zm27 -45l-1 4c0,9 3,16 7,21 4,5 9,7 15,7 7,0 12,-2 17,-7 5,-4 10,-11 13,-21 3,-10 5,-19 5,-27 0,-9 -2,-16 -6,-21 -4,-5 -10,-8 -16,-8 -6,0 -12,3 -17,8 -5,5 -10,13 -13,24 -3,8 -4,15 -4,20z"/>
  <path id="26" class="fil5" d="M5372 387c0,-22 6,-40 18,-54 10,-11 23,-17 40,-17 12,0 23,4 30,12 8,9 12,20 12,34 0,12 -2,24 -7,35 -5,11 -12,19 -21,25 -9,6 -19,9 -29,9 -8,0 -16,-2 -22,-6 -7,-4 -12,-9 -16,-15 -3,-7 -5,-15 -5,-23zm18 -2c0,10 2,18 7,23 5,5 11,8 18,8 4,0 8,-1 12,-2 4,-2 7,-4 11,-8 3,-3 6,-7 8,-11 2,-4 4,-9 6,-14 2,-6 3,-13 3,-19 0,-10 -3,-18 -8,-23 -5,-6 -11,-9 -18,-9 -6,0 -11,2 -15,5 -5,2 -9,6 -13,12 -4,5 -7,11 -8,19 -2,7 -3,13 -3,19z"/>
  <path id="27" class="fil5" d="M5494 428l30 -151 18 0 -11 54c6,-6 11,-9 15,-12 5,-2 10,-3 14,-3 10,0 18,4 25,12 6,7 9,18 9,33 0,10 -1,18 -4,26 -2,8 -6,15 -9,21 -4,5 -8,10 -12,13 -4,3 -8,6 -13,7 -4,2 -8,3 -12,3 -7,0 -13,-2 -18,-6 -5,-4 -9,-10 -12,-17l-4 20 -16 0zm26 -45l0 4c0,9 2,16 6,21 5,5 10,7 16,7 6,0 12,-2 17,-7 5,-4 9,-11 13,-21 3,-10 5,-19 5,-27 0,-9 -2,-16 -7,-21 -4,-5 -9,-8 -15,-8 -6,0 -12,3 -17,8 -6,5 -10,13 -14,24 -2,8 -4,15 -4,20z"/>
  <path id="28" class="fil5" d="M5695 369l4 -18 64 0 -13 62c-8,5 -17,10 -27,13 -11,3 -21,5 -31,5 -21,0 -37,-7 -47,-20 -9,-11 -14,-26 -14,-43 0,-19 4,-35 12,-50 8,-15 18,-26 29,-33 12,-7 25,-11 40,-11 10,0 19,2 28,6 8,4 14,9 18,16 5,6 8,15 10,25l-19 2c-2,-10 -6,-18 -13,-24 -6,-5 -15,-8 -25,-8 -10,0 -20,3 -30,9 -9,6 -16,15 -22,27 -5,12 -8,25 -8,41 0,15 4,27 11,34 7,8 17,12 30,12 13,0 27,-4 41,-13l7 -32 -45 0z"/>
  <path id="29" class="fil5" d="M5815 298l4 -21 18 0 -4 21 -18 0zm-27 130l22 -110 18 0 -22 110 -18 0z"/>
  <path id="30" class="fil5" d="M5887 413l-3 15c-4,2 -8,2 -12,2 -7,0 -13,-2 -17,-5 -3,-3 -5,-7 -5,-12 0,-2 1,-8 3,-16l12 -64 -14 0 3 -15 14 0 6 -27 20 -12 -8 39 18 0 -3 15 -18 0 -12 61c-1,7 -2,12 -2,13 0,3 0,4 2,6 1,1 3,1 6,1 4,0 7,0 10,-1z"/>
  <path id="31" class="fil5" d="M5921 379l19 -2 0 6c0,6 1,11 4,16 2,5 6,8 12,11 6,3 14,4 22,4 11,0 20,-3 26,-8 7,-5 10,-11 10,-18 0,-5 -2,-9 -5,-13 -4,-4 -13,-9 -27,-16 -12,-5 -20,-9 -24,-12 -6,-4 -11,-9 -14,-14 -4,-6 -5,-12 -5,-18 0,-8 2,-15 6,-22 4,-6 10,-11 18,-14 8,-3 17,-5 27,-5 12,0 22,2 30,6 8,4 14,10 18,17 4,7 5,13 5,20 0,0 0,1 0,3l-19 1c0,-4 0,-7 -1,-10 -1,-4 -3,-8 -6,-11 -3,-2 -6,-5 -11,-6 -5,-2 -11,-3 -17,-3 -10,0 -18,2 -24,7 -5,4 -7,9 -7,15 0,4 1,8 3,10 2,3 5,6 10,9 3,2 11,6 24,12 11,5 18,9 22,11 5,4 9,8 12,14 3,5 4,11 4,17 0,9 -2,16 -7,23 -5,7 -11,12 -20,16 -8,4 -18,6 -29,6 -17,0 -30,-4 -40,-11 -11,-8 -16,-21 -16,-41z"/>
  <path id="32" class="fil5" d="M6061 428l22 -110 16 0 -3 20c7,-8 13,-13 20,-17 6,-3 12,-5 19,-5 8,0 15,2 20,7 5,5 8,12 8,20 0,4 -1,10 -3,19l-14 66 -18 0 15 -69c1,-7 2,-12 2,-15 0,-4 -2,-7 -4,-9 -2,-2 -6,-3 -11,-3 -9,0 -18,3 -25,10 -7,7 -13,18 -16,35l-10 51 -18 0z"/>
  <path id="33" class="fil5" d="M6257 415c-6,5 -12,9 -18,12 -6,2 -12,4 -19,4 -9,0 -17,-3 -23,-9 -6,-6 -9,-14 -9,-23 0,-6 1,-12 4,-16 3,-5 6,-9 11,-12 4,-3 9,-5 16,-6 4,-1 12,-1 23,-2 11,0 20,-2 25,-4 1,-5 2,-9 2,-12 0,-5 -2,-8 -5,-11 -4,-3 -10,-5 -18,-5 -8,0 -14,2 -19,6 -5,3 -8,8 -11,14l-18 -1c4,-11 10,-19 18,-25 8,-6 18,-9 30,-9 13,0 24,3 31,10 6,5 9,11 9,19 0,5 -1,12 -2,20l-6 27c-2,9 -3,16 -3,21 0,4 1,9 2,15l-18 0c-1,-3 -2,-8 -2,-13zm7 -42c-3,1 -6,1 -8,2 -3,0 -8,1 -15,2 -10,1 -18,2 -22,3 -5,2 -8,4 -10,7 -2,4 -3,7 -3,11 0,5 1,10 5,13 3,3 8,5 15,5 6,0 12,-1 17,-5 6,-3 10,-8 13,-13 3,-6 6,-15 8,-25z"/>
  <polygon id="34" class="fil5" points="6310,428 6341,277 6359,277 6340,371 6393,318 6417,318 6372,359 6399,428 6379,428 6358,372 6336,391 6328,428 "/>
  <path id="35" class="fil5" d="M6502 391l17 2c-2,9 -8,17 -17,25 -9,9 -20,13 -33,13 -7,0 -15,-2 -21,-6 -7,-4 -12,-9 -15,-16 -4,-8 -5,-16 -5,-25 0,-12 2,-23 8,-35 5,-11 12,-19 21,-25 8,-5 17,-8 27,-8 13,0 23,4 31,12 7,8 11,19 11,33 0,6 -1,11 -2,17l-78 0c0,2 0,4 0,6 0,10 2,18 7,23 4,6 10,8 16,8 7,0 13,-2 19,-6 6,-4 10,-10 14,-18zm-53 -28l60 0c0,-1 0,-3 0,-4 0,-9 -2,-16 -7,-21 -4,-5 -10,-8 -17,-8 -8,0 -15,3 -22,9 -6,5 -11,13 -14,24z"/>
  <polygon id="36" class="fil5" points="6531,431 6610,274 6626,274 6547,431 "/>
  <path id="37" class="fil5" d="M6608 470l31 -152 17 0 -3 16c6,-7 11,-12 16,-14 5,-3 10,-4 16,-4 10,0 18,4 25,11 6,8 10,19 10,33 0,12 -2,22 -6,31 -3,10 -8,17 -13,23 -6,6 -11,10 -16,13 -6,2 -11,4 -17,4 -13,0 -23,-7 -30,-21l-12 60 -18 0zm36 -87c0,9 0,14 2,17 1,5 4,8 8,11 4,3 8,4 13,4 10,0 19,-6 25,-18 7,-12 10,-24 10,-37 0,-9 -2,-16 -7,-21 -4,-5 -9,-8 -16,-8 -4,0 -9,1 -13,4 -3,2 -7,6 -10,11 -4,5 -7,11 -9,19 -2,7 -3,13 -3,18z"/>
  <polygon id="38" class="fil5" points="6740,428 6771,277 6789,277 6758,428 "/>
  <path id="39" class="fil5" d="M6870 415c-7,5 -13,9 -18,12 -6,2 -12,4 -19,4 -10,0 -18,-3 -24,-9 -6,-6 -9,-14 -9,-23 0,-6 2,-12 5,-16 2,-5 6,-9 10,-12 5,-3 10,-5 17,-6 4,-1 11,-1 23,-2 11,0 19,-2 24,-4 2,-5 2,-9 2,-12 0,-5 -1,-8 -4,-11 -5,-3 -11,-5 -19,-5 -7,0 -14,2 -18,6 -5,3 -9,8 -11,14l-18 -1c4,-11 9,-19 18,-25 8,-6 18,-9 30,-9 13,0 23,3 31,10 6,5 9,11 9,19 0,5 -1,12 -3,20l-5 27c-2,9 -3,16 -3,21 0,4 1,9 2,15l-18 0c-1,-3 -2,-8 -2,-13zm6 -42c-2,1 -5,1 -8,2 -3,0 -8,1 -14,2 -11,1 -18,2 -22,3 -5,2 -8,4 -10,7 -2,4 -4,7 -4,11 0,5 2,10 6,13 3,3 8,5 15,5 6,0 11,-1 17,-5 5,-3 10,-8 13,-13 3,-6 6,-15 7,-25z"/>
  <path id="40" class="fil5" d="M6916 470l1 -17c4,1 8,1 11,1 4,0 7,0 9,-2 3,-2 6,-7 10,-13l6 -11 -18 -110 18 0 8 56c1,11 3,21 4,32l47 -88 19 0 -68 125c-6,12 -12,20 -17,24 -5,4 -11,6 -17,6 -5,0 -9,-1 -13,-3z"/>
  <polygon id="41" class="fil5" points="7026,428 7031,407 7051,407 7047,428 "/>
  <path id="42" class="fil5" d="M7090 428l30 -151 18 0 -12 58c7,-7 13,-12 19,-15 6,-3 11,-4 17,-4 9,0 16,2 21,7 4,5 7,11 7,19 0,4 -1,11 -4,21l-14 65 -17 0 14 -66c2,-10 3,-16 3,-18 0,-4 -2,-7 -4,-9 -2,-2 -6,-3 -10,-3 -6,0 -13,1 -18,5 -6,3 -11,8 -14,14 -3,7 -6,16 -9,30l-9 47 -18 0z"/>
  <path id="43" class="fil5" d="M7256 413l-3 15c-4,2 -8,2 -12,2 -7,0 -13,-2 -17,-5 -3,-3 -5,-7 -5,-12 0,-2 1,-8 3,-16l12 -64 -14 0 3 -15 14 0 6 -27 20 -12 -8 39 18 0 -3 15 -18 0 -12 61c-1,7 -2,12 -2,13 0,3 1,4 2,6 1,1 3,1 6,1 4,0 7,0 10,-1z"/>
  <path id="44" class="fil5" d="M7282 428l22 -110 18 0 -3 19c6,-8 12,-14 18,-17 5,-2 11,-4 17,-4 7,0 12,2 16,5 5,4 8,9 9,16 6,-7 11,-12 17,-16 6,-3 12,-5 19,-5 9,0 16,2 20,7 4,4 7,10 7,18 0,3 -1,9 -3,17l-14 70 -18 0 14 -72c2,-6 2,-10 2,-13 0,-4 -1,-6 -3,-8 -2,-2 -5,-3 -9,-3 -6,0 -11,1 -17,5 -5,3 -10,7 -13,13 -3,5 -6,14 -8,25l-11 53 -18 0 15 -74c1,-5 2,-8 2,-11 0,-3 -1,-6 -3,-8 -2,-2 -5,-3 -9,-3 -5,0 -10,1 -16,5 -6,3 -10,8 -14,14 -3,6 -6,14 -8,25l-11 52 -18 0z"/>
  <circle class="fil6" cx="285" cy="267" r="100"/>
  <circle class="fil7" cx="535" cy="267" r="100"/>
  <circle class="fil8" cx="785" cy="267" r="100"/>
  <rect class="fil9 str2" x="2644" y="3954" width="300" height="300"/>
  <rect class="fil9 str2" x="2344" y="3954" width="300" height="300"/>
  <rect class="fil9 str2" x="2944" y="3954" width="300" height="300"/>
  <rect class="fil9 str2" x="3244" y="3954" width="300" height="300"/>
  <rect class="fil9 str2" x="3544" y="3954" width="300" height="300"/>
  <rect class="fil9 str2" x="3844" y="3954" width="300" height="300"/>
  <rect class="fil9 str2" x="4144" y="3954" width="300" height="300"/>
  <rect class="fil9 str2" x="4444" y="3954" width="300" height="300"/>
  <rect class="fil9 str2" x="4744" y="3954" width="300" height="300"/>
  <rect class="fil9 str2" x="5044" y="3954" width="300" height="300"/>
  <rect class="fil9 str2" x="5344" y="3954" width="300" height="300"/>
  <rect class="fil9 str2" x="5644" y="3954" width="300" height="300"/>
  <rect class="fil9 str2" x="5944" y="3954" width="300" height="300"/>
  <rect class="fil9 str2" x="6244" y="3954" width="300" height="300"/>
  <rect class="fil9 str2" x="6244" y="4254" width="300" height="300"/>
  <rect class="fil9 str2" x="6244" y="4554" width="300" height="300"/>
  <rect class="fil9 str2" x="6544" y="4554" width="300" height="300"/>
  <rect class="fil9 str2" x="6844" y="4554" width="300" height="300"/>
  <rect class="fil9 str2" x="7144" y="4554" width="300" height="300"/>
  <rect class="fil9 str2" x="7444" y="4554" width="300" height="300"/>
  <rect class="fil9 str2" x="7744" y="4554" width="300" height="300"/>
  <rect class="fil9 str2" x="8044" y="4554" width="300" height="300"/>
  <rect class="fil9 str2" x="8344" y="4554" width="300" height="300"/>
  <rect class="fil9 str2" x="8644" y="4554" width="300" height="300"/>
  <rect class="fil9 str2" x="8644" y="4254" width="300" height="300"/>
  <rect class="fil9 str2" x="8644" y="3954" width="300" height="300"/>
  <rect class="fil9 str2" x="8644" y="3654" width="300" height="300"/>
  <rect class="fil9 str2" x="8644" y="3354" width="300" height="300"/>
  <rect class="fil9 str2" x="8644" y="3054" width="300" height="300"/>
  <rect class="fil9 str2" x="8644" y="2754" width="300" height="300"/>
  <rect class="fil9 str2" x="8644" y="2454" width="300" height="300"/>
  <rect class="fil9 str2" x="8644" y="2154" width="300" height="300"/>
  <rect class="fil9 str2" x="8644" y="1854" width="300" height="300"/>
  <rect class="fil9 str2" x="8644" y="1554" width="300" height="300"/>
  <rect class="fil9 str2" x="8644" y="1254" width="300" height="300"/>
  <rect class="fil9 str2" x="8344" y="1254" width="300" height="300"/>
  <rect class="fil9 str2" x="8044" y="1254" width="300" height="300"/>
  <rect class="fil9 str2" x="7744" y="1254" width="300" height="300"/>
  <rect class="fil9 str2" x="7444" y="1254" width="300" height="300"/>
  <rect class="fil9 str2" x="7444" y="1254" width="300" height="300"/>
  <rect class="fil9 str2" x="7444" y="1554" width="300" height="300"/>
  <rect class="fil9 str2" x="7444" y="1854" width="300" height="300"/>
  <rect class="fil9 str2" x="7144" y="1854" width="300" height="300"/>
  <rect class="fil9 str2" x="6844" y="1854" width="300" height="300"/>
  <rect class="fil9 str2" x="6544" y="1854" width="300" height="300"/>
  <rect class="fil9 str2" x="6244" y="1854" width="300" height="300"/>
  <rect class="fil9 str2" x="6244" y="2154" width="300" height="300"/>
  <rect class="fil9 str2" x="6244" y="2454" width="300" height="300"/>
  <rect class="fil9 str2" x="6244" y="2754" width="300" height="300"/>
  <rect class="fil9 str2" x="6244" y="3054" width="300" height="300"/>
  <rect class="fil9 str2" x="5944" y="3054" width="300" height="300"/>
  <rect class="fil9 str2" x="5644" y="3054" width="300" height="300"/>
  <rect class="fil10 str2" x="5344" y="3054" width="300" height="300"/>
  <rect class="fil11 str2" x="3844" y="3054" width="300" height="300"/>
  <path class="fil12" d="M890 5091l19 -2c1,8 3,14 6,19 4,5 9,9 16,12 7,4 15,5 24,5 8,0 14,-1 20,-3 6,-3 11,-6 14,-10 3,-4 4,-9 4,-13 0,-5 -1,-9 -4,-13 -3,-4 -7,-7 -14,-9 -4,-2 -13,-4 -28,-8 -14,-3 -24,-6 -29,-9 -8,-4 -13,-9 -17,-15 -4,-6 -5,-12 -5,-19 0,-8 2,-15 6,-22 5,-7 11,-12 20,-16 8,-3 18,-5 28,-5 12,0 22,2 31,6 8,3 15,9 20,16 4,7 7,15 7,24l-19 2c-1,-10 -5,-17 -11,-22 -6,-5 -15,-8 -27,-8 -12,0 -21,3 -27,7 -6,5 -9,10 -9,17 0,5 2,10 6,13 4,4 15,8 31,11 17,4 28,7 35,10 9,4 15,10 19,16 5,6 7,14 7,22 0,8 -2,16 -7,23 -5,7 -12,13 -20,17 -9,4 -19,6 -30,6 -14,0 -26,-2 -35,-6 -10,-4 -17,-10 -23,-18 -5,-9 -8,-18 -8,-28z"/>
  <polygon id="1" class="fil12" points="1038,5141 1038,4986 1058,4986 1058,5074 1103,5028 1127,5028 1084,5070 1131,5141 1108,5141 1071,5083 1058,5096 1058,5141 "/>
  <path id="2" class="fil12" d="M1139 5084c0,-20 6,-36 18,-46 9,-8 21,-12 35,-12 15,0 28,5 38,15 10,10 15,24 15,42 0,14 -3,26 -7,34 -4,8 -11,15 -19,19 -8,5 -17,7 -27,7 -16,0 -28,-5 -38,-15 -10,-10 -15,-25 -15,-44zm20 1c0,14 3,25 9,32 7,7 15,10 24,10 10,0 17,-3 24,-10 6,-7 9,-18 9,-33 0,-14 -3,-24 -9,-32 -7,-7 -15,-10 -24,-10 -9,0 -17,3 -24,10 -6,8 -9,18 -9,33zm17 -70l14 -30 25 0 -23 30 -16 0z"/>
  <path id="3" class="fil12" d="M1267 5141l0 -113 17 0 0 18c4,-8 8,-14 12,-16 4,-3 8,-4 12,-4 7,0 13,2 20,6l-7 18c-5,-3 -9,-4 -14,-4 -4,0 -8,1 -11,3 -3,3 -6,6 -7,11 -2,7 -3,14 -3,22l0 59 -19 0z"/>
  <path id="4" class="fil12" d="M1416 5104l19 3c-3,11 -9,20 -17,27 -8,6 -19,9 -32,9 -16,0 -29,-5 -39,-15 -10,-10 -14,-24 -14,-43 0,-18 5,-33 14,-43 10,-11 22,-16 38,-16 15,0 27,5 37,15 9,10 14,25 14,43 0,1 0,3 0,5l-84 0c1,13 4,22 11,29 6,6 14,9 23,9 7,0 13,-1 18,-5 5,-4 9,-10 12,-18zm-63 -30l63 0c-1,-10 -3,-17 -7,-21 -6,-8 -14,-11 -24,-11 -9,0 -16,2 -22,8 -6,6 -9,14 -10,24z"/>
  <path id="5" class="fil12" d="M1464 5050l0 -22 22 0 0 22 -22 0zm0 91l0 -22 22 0 0 22 -22 0z"/>
  <path id="6" class="fil12" d="M1574 5100l20 -2c2,10 5,17 10,22 6,5 12,8 20,8 9,0 17,-4 23,-11 7,-7 10,-16 10,-27 0,-11 -3,-20 -9,-26 -6,-6 -14,-9 -24,-9 -6,0 -12,1 -17,4 -5,3 -8,6 -11,11l-18 -3 15 -79 76 0 0 18 -61 0 -8 42c9,-7 19,-10 29,-10 13,0 25,5 34,14 9,9 14,21 14,36 0,14 -4,26 -12,36 -10,13 -24,19 -41,19 -14,0 -26,-4 -34,-12 -9,-8 -14,-18 -16,-31z"/>
  <path id="7" class="fil12" d="M1695 5064c0,-18 1,-33 5,-44 4,-11 10,-20 17,-26 7,-6 17,-9 28,-9 8,0 16,2 22,5 6,3 11,8 15,15 4,6 8,14 10,23 2,9 3,21 3,36 0,18 -1,33 -5,44 -4,11 -9,20 -17,26 -7,6 -17,9 -28,9 -15,0 -27,-5 -35,-16 -10,-13 -15,-34 -15,-63zm19 0c0,26 3,43 9,51 6,8 13,13 22,13 9,0 16,-5 22,-13 6,-8 9,-25 9,-51 0,-25 -3,-42 -9,-51 -6,-8 -13,-12 -22,-12 -9,0 -16,4 -21,11 -7,9 -10,27 -10,52z"/>
 </g>
</svg>
