<?xml version="1.0" encoding="UTF-8" standalone="no"?>
<svg id="svg2" xmlns:rdf="http://www.w3.org/1999/02/22-rdf-syntax-ns#" xmlns="http://www.w3.org/2000/svg" height="41.247mm" viewBox="0 0 482.75002 146.15" width="136.24mm" version="1.1" xmlns:cc="http://creativecommons.org/ns#" xmlns:dc="http://purl.org/dc/elements/1.1/">
 <defs id="defs4">
  <clipPath id="clipPath3380" clipPathUnits="userSpaceOnUse">
   <path id="path3382" clip-rule="evenodd" d="m0 0h843v596h-843v-596z"/>
  </clipPath>
  <clipPath id="clipPath3386" clipPathUnits="userSpaceOnUse">
   <path id="path3388" clip-rule="evenodd" d="m0 0h842v595h-842v-595z"/>
  </clipPath>
  <clipPath id="clipPath3400" clipPathUnits="userSpaceOnUse">
   <path id="path3402" clip-rule="evenodd" d="m0 0h843v596h-843v-596z"/>
  </clipPath>
  <clipPath id="clipPath3412" clipPathUnits="userSpaceOnUse">
   <path id="path3414" clip-rule="evenodd" d="m0 0h843v596h-843v-596z"/>
  </clipPath>
  <clipPath id="clipPath3418" clipPathUnits="userSpaceOnUse">
   <path id="path3420" clip-rule="evenodd" d="m0 0h842v595h-842v-595z"/>
  </clipPath>
  <clipPath id="clipPath3432" clipPathUnits="userSpaceOnUse">
   <path id="path3434" clip-rule="evenodd" d="m0 0h843v596h-843v-596z"/>
  </clipPath>
  <clipPath id="clipPath3444" clipPathUnits="userSpaceOnUse">
   <path id="path3446" clip-rule="evenodd" d="m0 0h843v596h-843v-596z"/>
  </clipPath>
  <clipPath id="clipPath3450" clipPathUnits="userSpaceOnUse">
   <path id="path3452" clip-rule="evenodd" d="m0 0h842v595h-842v-595z"/>
  </clipPath>
  <clipPath id="clipPath3464" clipPathUnits="userSpaceOnUse">
   <path id="path3466" clip-rule="evenodd" d="m0 0h843v596h-843v-596z"/>
  </clipPath>
  <clipPath id="clipPath3476" clipPathUnits="userSpaceOnUse">
   <path id="path3478" clip-rule="evenodd" d="m0 0h843v596h-843v-596z"/>
  </clipPath>
  <clipPath id="clipPath3482" clipPathUnits="userSpaceOnUse">
   <path id="path3484" clip-rule="evenodd" d="m0 0h842v595h-842v-595z"/>
  </clipPath>
  <clipPath id="clipPath3496" clipPathUnits="userSpaceOnUse">
   <path id="path3498" clip-rule="evenodd" d="m0 0h843v596h-843v-596z"/>
  </clipPath>
  <clipPath id="clipPath3508" clipPathUnits="userSpaceOnUse">
   <path id="path3510" clip-rule="evenodd" d="m0 0h843v596h-843v-596z"/>
  </clipPath>
  <clipPath id="clipPath3514" clipPathUnits="userSpaceOnUse">
   <path id="path3516" clip-rule="evenodd" d="m0 0h842v595h-842v-595z"/>
  </clipPath>
  <clipPath id="clipPath3528" clipPathUnits="userSpaceOnUse">
   <path id="path3530" clip-rule="evenodd" d="m0 0h843v596h-843v-596z"/>
  </clipPath>
  <clipPath id="clipPath3540" clipPathUnits="userSpaceOnUse">
   <path id="path3542" clip-rule="evenodd" d="m0 0h843v596h-843v-596z"/>
  </clipPath>
  <clipPath id="clipPath3546" clipPathUnits="userSpaceOnUse">
   <path id="path3548" clip-rule="evenodd" d="m0 0h842v595h-842v-595z"/>
  </clipPath>
  <clipPath id="clipPath3560" clipPathUnits="userSpaceOnUse">
   <path id="path3562" clip-rule="evenodd" d="m0 0h843v596h-843v-596z"/>
  </clipPath>
  <clipPath id="clipPath3572" clipPathUnits="userSpaceOnUse">
   <path id="path3574" clip-rule="evenodd" d="m0 0h843v596h-843v-596z"/>
  </clipPath>
  <clipPath id="clipPath3578" clipPathUnits="userSpaceOnUse">
   <path id="path3580" clip-rule="evenodd" d="m0 0h842v595h-842v-595z"/>
  </clipPath>
  <clipPath id="clipPath3592" clipPathUnits="userSpaceOnUse">
   <path id="path3594" clip-rule="evenodd" d="m0 0h843v596h-843v-596z"/>
  </clipPath>
  <clipPath id="clipPath3604" clipPathUnits="userSpaceOnUse">
   <path id="path3606" clip-rule="evenodd" d="m0 0h843v596h-843v-596z"/>
  </clipPath>
  <clipPath id="clipPath3610" clipPathUnits="userSpaceOnUse">
   <path id="path3612" clip-rule="evenodd" d="m0 0h842v595h-842v-595z"/>
  </clipPath>
  <clipPath id="clipPath3624" clipPathUnits="userSpaceOnUse">
   <path id="path3626" clip-rule="evenodd" d="m0 0h843v596h-843v-596z"/>
  </clipPath>
  <clipPath id="clipPath3636" clipPathUnits="userSpaceOnUse">
   <path id="path3638" clip-rule="evenodd" d="m0 0h843v596h-843v-596z"/>
  </clipPath>
  <clipPath id="clipPath3642" clipPathUnits="userSpaceOnUse">
   <path id="path3644" clip-rule="evenodd" d="m0 0h842v595h-842v-595z"/>
  </clipPath>
  <clipPath id="clipPath3652" clipPathUnits="userSpaceOnUse">
   <path id="path3654" clip-rule="evenodd" d="m0 0h843v596h-843v-596z"/>
  </clipPath>
  <clipPath id="clipPath3658" clipPathUnits="userSpaceOnUse">
   <path id="path3660" clip-rule="evenodd" d="m0 0h842v595h-842v-595z"/>
  </clipPath>
  <clipPath id="clipPath3664" clipPathUnits="userSpaceOnUse">
   <path id="path3666" clip-rule="evenodd" d="m0 0h842v595h-842v-595z"/>
  </clipPath>
  <clipPath id="clipPath3946" clipPathUnits="userSpaceOnUse">
   <path id="path3948" clip-rule="evenodd" d="m0 0h843v596h-843v-596z"/>
  </clipPath>
  <clipPath id="clipPath3956" clipPathUnits="userSpaceOnUse">
   <path id="path3958" clip-rule="evenodd" d="m0 0h843v596h-843v-596z"/>
  </clipPath>
  <clipPath id="clipPath3962" clipPathUnits="userSpaceOnUse">
   <path id="path3964" clip-rule="evenodd" d="m0 0h842v595h-842v-595z"/>
  </clipPath>
  <clipPath id="clipPath3978" clipPathUnits="userSpaceOnUse">
   <path id="path3980" clip-rule="evenodd" d="m0 0h843v596h-843v-596z"/>
  </clipPath>
  <clipPath id="clipPath3990" clipPathUnits="userSpaceOnUse">
   <path id="path3992" clip-rule="evenodd" d="m0 0h843v596h-843v-596z"/>
  </clipPath>
  <clipPath id="clipPath3996" clipPathUnits="userSpaceOnUse">
   <path id="path3998" clip-rule="evenodd" d="m0 0h842v595h-842v-595z"/>
  </clipPath>
  <clipPath id="clipPath4006" clipPathUnits="userSpaceOnUse">
   <path id="path4008" clip-rule="evenodd" d="m0 0h843v596h-843v-596z"/>
  </clipPath>
  <clipPath id="clipPath4012" clipPathUnits="userSpaceOnUse">
   <path id="path4014" clip-rule="evenodd" d="m0 0h842v595h-842v-595z"/>
  </clipPath>
  <clipPath id="clipPath4018" clipPathUnits="userSpaceOnUse">
   <path id="path4020" clip-rule="evenodd" d="m0 0h842v595h-842v-595z"/>
  </clipPath>
  <clipPath id="clipPath4032" clipPathUnits="userSpaceOnUse">
   <path id="path4034" clip-rule="evenodd" d="m0 0h843v596h-843v-596z"/>
  </clipPath>
  <clipPath id="clipPath4042" clipPathUnits="userSpaceOnUse">
   <path id="path4044" clip-rule="evenodd" d="m0 0h843v596h-843v-596z"/>
  </clipPath>
  <clipPath id="clipPath4048" clipPathUnits="userSpaceOnUse">
   <path id="path4050" clip-rule="evenodd" d="m0 0h842v595h-842v-595z"/>
  </clipPath>
  <clipPath id="clipPath4064" clipPathUnits="userSpaceOnUse">
   <path id="path4066" clip-rule="evenodd" d="m0 0h843v596h-843v-596z"/>
  </clipPath>
 </defs>
 <g id="layer1" transform="translate(567.59 -93.987)">
  <g id="g3376" transform="matrix(1.25 0 0 1.25 -612.59 80.487)">
   <g id="g3378" clip-path="url(#clipPath3380)"></g>
  </g>
  <g id="g3396" transform="matrix(1.25 0 0 1.25 -612.59 80.487)"></g>
  <g id="g3408" transform="matrix(1.25 0 0 1.25 -612.59 80.487)">
   <g id="g3410" clip-path="url(#clipPath3412)"></g>
  </g>
  <g id="g3428" transform="matrix(1.25 0 0 1.25 -612.59 80.487)"></g>
  <g id="g3440" transform="matrix(1.25 0 0 1.25 -612.59 80.487)">
   <g id="g3442" clip-path="url(#clipPath3444)"></g>
  </g>
  <g id="g3460" transform="matrix(1.25 0 0 1.25 -612.59 80.487)"></g>
  <g id="g3472" transform="matrix(1.25 0 0 1.25 -612.59 80.487)">
   <g id="g3474" clip-path="url(#clipPath3476)"></g>
  </g>
  <g id="g3492" transform="matrix(1.25 0 0 1.25 -612.59 80.487)"></g>
  <g id="g3504" transform="matrix(1.25 0 0 1.25 -612.59 80.487)">
   <g id="g3506" clip-path="url(#clipPath3508)"></g>
  </g>
  <g id="g3524" transform="matrix(1.25 0 0 1.25 -612.59 80.487)"></g>
  <g id="g3536" transform="matrix(1.25 0 0 1.25 -612.59 80.487)">
   <g id="g3538" clip-path="url(#clipPath3540)"></g>
  </g>
  <g id="g3556" transform="matrix(1.25 0 0 1.25 -612.59 80.487)"></g>
  <g id="g3568" transform="matrix(1.25 0 0 1.25 -612.59 80.487)">
   <g id="g3570" clip-path="url(#clipPath3572)"></g>
  </g>
  <g id="g3588" transform="matrix(1.25 0 0 1.25 -612.59 80.487)"></g>
  <g id="g3600" transform="matrix(1.25 0 0 1.25 -612.59 80.487)">
   <g id="g3602" clip-path="url(#clipPath3604)"></g>
  </g>
  <g id="g3620" transform="matrix(1.25 0 0 1.25 -612.59 80.487)"></g>
  <g id="g3632" transform="matrix(1.25 0 0 1.25 -612.59 80.487)">
   <g id="g3634" clip-path="url(#clipPath3636)"></g>
  </g>
  <g id="g3648" transform="matrix(1.25 0 0 1.25 -612.59 80.487)">
   <g id="g3650" clip-path="url(#clipPath3652)">
    <g id="g3656" clip-path="url(#clipPath3658)">
     <g id="g3662" clip-path="url(#clipPath3664)">
      <g id="g3670" transform="translate(.5 .5)">
       <path id="path3672" stroke="#000" fill="none" stroke-miterlimit="10" d="m349.2 104.4h-38.62"/>
      </g>
      <g id="g3674">
       <path id="path3676" d="m307.3 104.9 5.04-2.52-1.26 2.52 1.26 2.52-5.04-2.52z"/>
      </g>
      <g id="g3678" transform="translate(.5 .5)">
       <path id="path3680" stroke="#000" fill="none" stroke-miterlimit="10" d="m306.8 104.4 5.04-2.52-1.26 2.52 1.26 2.52-5.04-2.52z"/>
      </g>
      <g id="g3686">
       <path id="path3688" fill="#fff" d="m354.02 90.5h56.16c2.3859 0 4.32 1.9341 4.32 4.32v20.16c0 2.3859-1.9341 4.32-4.32 4.32h-56.16c-2.3859 0-4.32-1.9341-4.32-4.32v-20.16c0-2.3859 1.9341-4.32 4.32-4.32z"/>
      </g>
      <g id="g3690" transform="translate(.5 .5)">
       <path id="path3692" stroke="#000" fill="none" stroke-miterlimit="10" d="m353.52 90h56.16c2.39 0 4.32 1.934 4.32 4.32v20.16c0 2.3859-1.9341 4.32-4.32 4.32h-56.16c-2.3859 0-4.32-1.9341-4.32-4.32v-20.16c0-2.3859 1.9341-4.32 4.32-4.32z"/>
      </g>
      <g id="g3700">
       <path id="path3702" d="m360.86 106.83c-0.40254-0.49043-0.60381-1.0872-0.60381-1.7903h0.9914c0.0422 0.48867 0.1336 0.84375 0.27422 1.0652 0.2461 0.39727 0.69082 0.5959 1.3342 0.5959 0.49922 0 0.9-0.13359 1.2024-0.40078 0.30234-0.26719 0.45351-0.61172 0.45351-1.0336 0-0.52031-0.15908-0.88417-0.47724-1.0916-0.31817-0.20742-0.76026-0.31113-1.3263-0.31113-0.0633 0-0.12745 0.00088-0.19248 0.003-0.065 0.002-0.13096 0.004-0.19776 0.008v-0.83848c0.0984 0.0105 0.18106 0.0176 0.24785 0.0211 0.0668 0.004 0.13887 0.005 0.21621 0.005 0.35508 0 0.64688-0.0563 0.8754-0.16875 0.40078-0.19688 0.60117-0.54844 0.60117-1.0547 0-0.37617-0.1336-0.66621-0.40078-0.87012-0.26719-0.2039-0.57833-0.30586-0.9334-0.30586-0.63282 0-1.0705 0.21094-1.3131 0.63282-0.13359 0.23203-0.20918 0.5625-0.22676 0.9914h-0.93867c0-0.5625 0.1125-1.0406 0.3375-1.4344 0.38672-0.70313 1.067-1.0547 2.0408-1.0547 0.76992 0 1.3658 0.17139 1.7877 0.51416 0.42187 0.34277 0.63281 0.83936 0.63281 1.4898 0 0.46406-0.1248 0.84023-0.37441 1.1285-0.15469 0.1793-0.35508 0.31992-0.60118 0.42188 0.39727 0.10898 0.70752 0.31904 0.93076 0.63017 0.22325 0.31114 0.33487 0.6917 0.33487 1.1417 0 0.72071-0.23731 1.3078-0.71192 1.7613-0.4746 0.45351-1.1478 0.68027-2.0197 0.68027-0.89297 0-1.5407-0.24521-1.9433-0.73564zm9.0522-4.2082c0.23555-0.23379 0.35332-0.51241 0.35332-0.83584 0-0.28125-0.1125-0.53965-0.3375-0.7752s-0.56777-0.35332-1.0283-0.35332c-0.45703 0-0.7875 0.11777-0.9914 0.35332-0.20391 0.23555-0.30586 0.51152-0.30586 0.82793 0 0.35508 0.13183 0.63281 0.3955 0.8332 0.26368 0.20039 0.57481 0.30059 0.9334 0.30059 0.41836 0 0.74532-0.1169 0.98086-0.35068zm0.17139 3.7336c0.29004-0.2373 0.43506-0.5915 0.43506-1.0626 0-0.48867-0.14942-0.85957-0.44824-1.1127-0.29883-0.25313-0.68204-0.37969-1.1496-0.37969-0.45352 0-0.82354 0.1292-1.1101 0.3876-0.28653 0.2584-0.42979 0.61611-0.42979 1.0731 0 0.39375 0.13096 0.73389 0.39287 1.0204 0.26192 0.28653 0.66709 0.42979 1.2155 0.42979 0.43945 0 0.8042-0.11866 1.0942-0.35596zm-3.0612-3.4146c-0.27774-0.28125-0.4166-0.64688-0.4166-1.0969 0-0.5625 0.2039-1.0459 0.61172-1.4502 0.40781-0.4043 0.98613-0.60645 1.735-0.60645 0.72422 0 1.292 0.19072 1.7033 0.57217 0.41133 0.38145 0.61699 0.82705 0.61699 1.3368 0 0.47109-0.11953 0.85254-0.35859 1.1443-0.1336 0.16524-0.34102 0.32696-0.62227 0.48516 0.31289 0.14414 0.55899 0.30937 0.73828 0.4957 0.33399 0.35156 0.50098 0.8086 0.50098 1.3711 0 0.66445-0.22324 1.2278-0.66973 1.6901-0.44648 0.46231-1.0775 0.69346-1.8932 0.69346-0.73477 0-1.3562-0.19951-1.8642-0.59853-0.50801-0.39903-0.76201-0.97823-0.76201-1.7376 0-0.44649 0.10898-0.83233 0.32695-1.1575 0.21797-0.3252 0.5414-0.57393 0.97031-0.74619-0.26367-0.1125-0.46933-0.24434-0.61699-0.39551zm6.107-2.9531c0.22149-0.32344 0.64863-0.48516 1.2814-0.48516 0.0598 0 0.12129 0.0018 0.18457 0.0053 0.0633 0.0035 0.13535 0.0088 0.21621 0.01582v0.86484c-0.0984-0.007-0.16963-0.0114-0.21358-0.0132-0.0439-0.002-0.0853-0.003-0.12392-0.003-0.28828 0-0.46055 0.0747-0.5168 0.22413-0.0563 0.14941-0.0844 0.52998-0.0844 1.1417h0.93867v0.74882h-0.94922v4.8727h-0.93867v-4.8727h-0.78575v-0.74882h0.78575v-0.88594c0.0141-0.39375 0.0826-0.68203 0.20566-0.86485zm2.887 2.025v-0.72773c0.68555-0.0668 1.1637-0.17842 1.4344-0.33486 0.2707-0.15645 0.47285-0.52647 0.60644-1.1101h0.74883v7.5199h-1.0125v-5.3473h-1.7772zm8.5328 2.6736v-3.4225l-2.4205 3.4225h2.4205zm0.0158 2.6736v-1.8457h-3.3117v-0.92813l3.4594-4.7988h0.80156v4.899h1.1127v0.82793h-1.1127v1.8457h-0.94921zm7.3331-6.9267c0.33223 0.43769 0.49834 0.88857 0.49834 1.3526h-0.93867c-0.0563-0.29883-0.1459-0.53262-0.26895-0.70137-0.22851-0.31641-0.5748-0.47461-1.0389-0.47461-0.53086 0-0.95274 0.24521-1.2656 0.73564-0.31289 0.49043-0.48691 1.1927-0.52207 2.1067 0.21797-0.31992 0.49219-0.55898 0.82266-0.71718 0.30234-0.14063 0.63984-0.21094 1.0125-0.21094 0.63281 0 1.1848 0.20215 1.6559 0.60644 0.47109 0.4043 0.70664 1.0072 0.70664 1.8088 0 0.68555-0.22324 1.2929-0.66973 1.822-0.44648 0.52911-1.0828 0.79366-1.909 0.79366-0.70664 0-1.3166-0.26807-1.8299-0.8042-0.51329-0.53614-0.76993-1.4388-0.76993-2.7079 0-0.93868 0.11426-1.735 0.34278-2.3889 0.43945-1.2516 1.2428-1.8773 2.41-1.8773 0.84375 0 1.4317 0.21885 1.764 0.65654zm-0.71191 5.7744c0.24785-0.33574 0.37177-0.73213 0.37177-1.1892 0-0.38672-0.11074-0.75498-0.33222-1.1048-0.22149-0.34981-0.62402-0.52471-1.2076-0.52471-0.40781 0-0.76553 0.13535-1.0731 0.40606-0.30762 0.2707-0.46143 0.67851-0.46143 1.2234 0 0.47813 0.13975 0.87979 0.41924 1.205 0.27949 0.3252 0.66709 0.4878 1.1628 0.4878 0.49922 0 0.87276-0.16787 1.1206-0.50362zm6.7082-5.7744c0.33223 0.43769 0.49834 0.88857 0.49834 1.3526h-0.93867c-0.0562-0.29883-0.1459-0.53262-0.26895-0.70137-0.22851-0.31641-0.5748-0.47461-1.0389-0.47461-0.53086 0-0.95274 0.24521-1.2656 0.73564-0.31289 0.49043-0.48691 1.1927-0.52207 2.1067 0.21797-0.31992 0.49219-0.55898 0.82266-0.71718 0.30234-0.14063 0.63984-0.21094 1.0125-0.21094 0.63281 0 1.1848 0.20215 1.6559 0.60644 0.47109 0.4043 0.70664 1.0072 0.70664 1.8088 0 0.68555-0.22324 1.2929-0.66973 1.822-0.44648 0.52911-1.0828 0.79366-1.909 0.79366-0.70664 0-1.3166-0.26807-1.8299-0.8042-0.51329-0.53614-0.76993-1.4388-0.76993-2.7079 0-0.93868 0.11426-1.735 0.34278-2.3889 0.43945-1.2516 1.2428-1.8773 2.41-1.8773 0.84375 0 1.4317 0.21885 1.764 0.65654zm-0.71191 5.7744c0.24785-0.33574 0.37177-0.73213 0.37177-1.1892 0-0.38672-0.11074-0.75498-0.33222-1.1048-0.22149-0.34981-0.62403-0.52471-1.2076-0.52471-0.40781 0-0.76553 0.13535-1.0731 0.40606-0.30762 0.2707-0.46143 0.67851-0.46143 1.2234 0 0.47813 0.13975 0.87979 0.41924 1.205 0.27949 0.3252 0.66709 0.4878 1.1628 0.4878 0.49922 0 0.87276-0.16787 1.1206-0.50362zm2.9245-6.22c0.22148-0.32344 0.64863-0.48516 1.2814-0.48516 0.0598 0 0.12128 0.0018 0.18457 0.0053 0.0633 0.0035 0.13535 0.0088 0.21621 0.01582v0.86484c-0.0984-0.007-0.16963-0.0114-0.21358-0.0132-0.0439-0.002-0.0853-0.003-0.12392-0.003-0.28828 0-0.46055 0.0747-0.5168 0.22413-0.0562 0.14941-0.0844 0.52998-0.0844 1.1417h0.93867v0.74882h-0.94922v4.8727h-0.93867v-4.8727h-0.78575v-0.74882h0.78575v-0.88594c0.0141-0.39375 0.0826-0.68203 0.20566-0.86485z"/>
      </g>
      <g id="g3712">
       <path id="path3714" fill="#fff" d="m246.02 90.5h56.16c2.3859 0 4.32 1.9341 4.32 4.32v20.16c0 2.3859-1.9341 4.32-4.32 4.32h-56.16c-2.3859 0-4.32-1.9341-4.32-4.32v-20.16c0-2.3859 1.9341-4.32 4.32-4.32z"/>
      </g>
      <g id="g3716" transform="translate(.5 .5)">
       <path id="path3718" stroke="#000" fill="none" stroke-miterlimit="10" d="m245.52 90h56.16c2.39 0 4.32 1.934 4.32 4.32v20.16c0 2.3859-1.9341 4.32-4.32 4.32h-56.16c-2.3859 0-4.32-1.9341-4.32-4.32v-20.16c0-2.3859 1.9341-4.32 4.32-4.32z"/>
      </g>
      <g id="g3726">
       <path id="path3728" d="m253.4 106.12c0.25664 0.40781 0.66796 0.61172 1.234 0.61172 0.43945 0 0.80068-0.18896 1.0837-0.56689 0.28301-0.37793 0.42451-0.92022 0.42451-1.6269 0-0.71367-0.1459-1.2419-0.43769-1.5847-0.2918-0.34277-0.65215-0.51416-1.0811-0.51416-0.47812 0-0.86572 0.18281-1.1628 0.54844-0.29707 0.36562-0.44561 0.90352-0.44561 1.6137 0 0.60469 0.12832 1.1109 0.38497 1.5188zm2.1305-4.2346c0.16875 0.10547 0.36036 0.29004 0.57481 0.55371v-2.8529h0.9123v7.773h-0.85429v-0.78574c-0.22149 0.34804-0.4834 0.59941-0.78575 0.7541-0.30234 0.15469-0.64863 0.23203-1.0389 0.23203-0.6293 0-1.1742-0.26455-1.6348-0.79365-0.46055-0.5291-0.69082-1.2331-0.69082-2.112 0-0.82266 0.21006-1.5354 0.63018-2.1384 0.42011-0.60293 1.0204-0.9044 1.8009-0.9044 0.43242 0 0.79453 0.0914 1.0863 0.27422zm3.6179 3.6492c0.0281 0.52383 0.23028 0.88594 0.60645 1.0863 0.19336 0.10547 0.41133 0.1582 0.65391 0.1582 0.45351 0 0.84023-0.18896 1.1602-0.56689 0.31992-0.37793 0.54668-1.1452 0.68027-2.3019-0.21093 0.33399-0.47197 0.56865-0.7831 0.704-0.31113 0.13536-0.646 0.20303-1.0046 0.20303-0.72773 0-1.3034-0.22675-1.727-0.68027-0.42363-0.45352-0.63545-1.0371-0.63545-1.7508 0-0.68555 0.20918-1.2885 0.62754-1.8088 0.41836-0.52031 1.0354-0.78047 1.851-0.78047 1.1004 0 1.8598 0.4957 2.2781 1.4871 0.23203 0.54492 0.34805 1.227 0.34805 2.0461 0 0.92461-0.13887 1.7438-0.4166 2.4574-0.46055 1.1883-1.241 1.7824-2.3414 1.7824-0.73828 0-1.299-0.19336-1.6822-0.58008s-0.5748-0.87188-0.5748-1.4555h0.95976zm2.4706-1.9222c0.31113-0.24785 0.4667-0.68115 0.4667-1.2999 0-0.55547-0.13975-0.96943-0.41924-1.2419s-0.63545-0.4087-1.0679-0.4087c-0.46406 0-0.83233 0.15557-1.1048 0.4667-0.27246 0.31114-0.40869 0.72686-0.40869 1.2472 0 0.49219 0.11953 0.8833 0.3586 1.1733 0.23906 0.29004 0.6205 0.43506 1.1443 0.43506 0.37617 0 0.71983-0.12393 1.031-0.37178zm2.7135-4.0263h0.92286v2.8107c0.20742-0.27071 0.45527-0.47725 0.74355-0.61963 0.28828-0.14239 0.60117-0.21358 0.93867-0.21358 0.70313 0 1.2735 0.2417 1.7112 0.7251s0.65655 1.1962 0.65655 2.1384c0 0.89297-0.21622 1.6348-0.64864 2.2254-0.43242 0.59062-1.0318 0.88594-1.7982 0.88594-0.42891 0-0.79102-0.10371-1.0863-0.31114-0.17578-0.12304-0.36386-0.31992-0.56426-0.59062v0.72246h-0.87539v-7.773zm3.6202 6.5021c0.25488-0.40781 0.38232-0.9457 0.38232-1.6137 0-0.59414-0.12744-1.0863-0.38232-1.4766-0.25488-0.39024-0.63018-0.58535-1.1259-0.58535-0.43242 0-0.81123 0.15996-1.1364 0.47988-0.32519 0.31992-0.48779 0.84726-0.48779 1.582 0 0.53086 0.0668 0.96152 0.20039 1.292 0.24961 0.62227 0.71543 0.9334 1.3975 0.9334 0.51328 0 0.89737-0.20391 1.1522-0.61172zm3.088-0.65391c0.0633 0.54141 0.31465 0.91583 0.7541 1.1232 0.225 0.10547 0.48516 0.1582 0.78047 0.1582 0.5625 0 0.9791-0.1793 1.2498-0.53789 0.27071-0.35859 0.40606-0.75586 0.40606-1.1918 0-0.52734-0.16084-0.93515-0.48252-1.2234-0.32168-0.28829-0.70752-0.43243-1.1575-0.43243-0.32695 0-0.60733 0.0633-0.84111 0.18985-0.23379 0.12656-0.43331 0.30234-0.59854 0.52734l-0.82266-0.0475 0.57481-4.0658h3.9234v0.91758h-3.2115l-0.32168 2.0988c0.17578-0.1336 0.34278-0.23379 0.50098-0.30059 0.28125-0.11602 0.60644-0.17402 0.97559-0.17402 0.69257 0 1.2797 0.22324 1.7613 0.66972 0.48164 0.44649 0.72246 1.0125 0.72246 1.698 0 0.71367-0.2206 1.343-0.66181 1.8879-0.44121 0.54492-1.1452 0.81738-2.112 0.81738-0.61524 0-1.1593-0.17314-1.6321-0.51943-0.47285-0.34629-0.7374-0.87803-0.79365-1.5952h0.98613zm10.31-5.5002v0.82793c-0.24258 0.23555-0.56514 0.64512-0.96768 1.2287-0.40254 0.58359-0.75849 1.2129-1.0679 1.8879-0.30586 0.65742-0.53789 1.2568-0.69609 1.7982-0.10195 0.34805-0.23379 0.90879-0.39551 1.6822h-1.0494c0.23906-1.4414 0.7664-2.8758 1.582-4.3031 0.48164-0.83671 0.98789-1.5592 1.5188-2.1674h-4.1766v-0.95449h5.2523zm5.2712 0.49834c0.33223 0.43769 0.49834 0.88857 0.49834 1.3526h-0.93867c-0.0563-0.29883-0.1459-0.53262-0.26895-0.70137-0.22851-0.31641-0.5748-0.47461-1.0389-0.47461-0.53086 0-0.95274 0.24521-1.2656 0.73564-0.31289 0.49043-0.48691 1.1927-0.52207 2.1067 0.21797-0.31992 0.49219-0.55898 0.82266-0.71718 0.30234-0.14063 0.63984-0.21094 1.0125-0.21094 0.63281 0 1.1848 0.20215 1.6559 0.60644 0.47109 0.4043 0.70664 1.0072 0.70664 1.8088 0 0.68555-0.22324 1.2929-0.66973 1.822-0.44648 0.52911-1.0828 0.79366-1.909 0.79366-0.70664 0-1.3166-0.26807-1.8299-0.8042-0.51328-0.53614-0.76992-1.4388-0.76992-2.7079 0-0.93868 0.11426-1.735 0.34278-2.3889 0.43945-1.2516 1.2428-1.8773 2.41-1.8773 0.84375 0 1.4317 0.21885 1.764 0.65654zm-0.71191 5.7744c0.24785-0.33574 0.37177-0.73213 0.37177-1.1892 0-0.38672-0.11074-0.75498-0.33222-1.1048-0.22149-0.34981-0.62403-0.52471-1.2076-0.52471-0.40781 0-0.76553 0.13535-1.0731 0.40606-0.30762 0.2707-0.46143 0.67851-0.46143 1.2234 0 0.47813 0.13975 0.87979 0.41924 1.205 0.27949 0.3252 0.66709 0.4878 1.1628 0.4878 0.49922 0 0.87276-0.16787 1.1206-0.50362zm2.9245-6.22c0.22148-0.32344 0.64863-0.48516 1.2814-0.48516 0.0598 0 0.12128 0.0018 0.18457 0.0053 0.0633 0.0035 0.13535 0.0088 0.21621 0.01582v0.86484c-0.0984-0.007-0.16963-0.0114-0.21358-0.0132-0.0439-0.002-0.0852-0.003-0.12392-0.003-0.28828 0-0.46055 0.0747-0.5168 0.22413-0.0562 0.14941-0.0844 0.52998-0.0844 1.1417h0.93868v0.74882h-0.94922v4.8727h-0.93867v-4.8727h-0.78575v-0.74882h0.78575v-0.88594c0.0141-0.39375 0.0826-0.68203 0.20566-0.86485zm6.2805 2.025c0.39902 0.30938 0.63896 0.842 0.71982 1.5979h-0.92285c-0.0562-0.34805-0.18457-0.63721-0.38496-0.86748-0.20039-0.23028-0.52207-0.34541-0.96504-0.34541-0.60469 0-1.0371 0.29531-1.2973 0.88593-0.16875 0.3832-0.25313 0.85606-0.25313 1.4186 0 0.56601 0.11953 1.0424 0.35859 1.4291 0.23907 0.38672 0.61524 0.58008 1.1285 0.58008 0.39375 0 0.70576-0.12041 0.93603-0.36123 0.23028-0.24082 0.38936-0.57041 0.47725-0.98877h0.92285c-0.10547 0.74882-0.36914 1.2964-0.79101 1.6427-0.42188 0.34629-0.96153 0.51944-1.619 0.51944-0.73828 0-1.3272-0.26983-1.7666-0.80948-0.43945-0.53965-0.65918-1.2138-0.65918-2.0224 0-0.99141 0.24082-1.7631 0.72246-2.315 0.48164-0.55195 1.0951-0.82793 1.8404-0.82793 0.63633 0 1.154 0.15469 1.553 0.46406z"/>
      </g>
      <g id="g3736" transform="translate(.5 .5)">
       <path id="path3738" stroke="#000" fill="none" stroke-miterlimit="10" d="m133.2 68.4h-27.82"/>
      </g>
      <g id="g3740">
       <path id="path3742" d="m102.1 68.9 5.04-2.52-1.26 2.52 1.26 2.52-5.04-2.52z"/>
      </g>
      <g id="g3744" transform="translate(.5 .5)">
       <path id="path3746" stroke="#000" fill="none" stroke-miterlimit="10" d="m101.6 68.4 5.04-2.52-1.26 2.52 1.26 2.52-5.04-2.52z"/>
      </g>
      <g id="g3752">
       <path id="path3754" fill="#fff" d="m138.02 54.5h56.16c2.3859 0 4.32 1.9341 4.32 4.32v20.16c0 2.3859-1.9341 4.32-4.32 4.32h-56.16c-2.3859 0-4.32-1.9341-4.32-4.32v-20.16c0-2.3859 1.9341-4.32 4.32-4.32z"/>
      </g>
      <g id="g3756" transform="translate(.5 .5)">
       <path id="path3758" stroke="#000" fill="none" stroke-miterlimit="10" d="m137.52 54h56.16c2.39 0 4.32 1.934 4.32 4.32v20.16c0 2.3859-1.9341 4.32-4.32 4.32h-56.16c-2.3859 0-4.32-1.9341-4.32-4.32v-20.16c0-2.3859 1.9341-4.32 4.32-4.32z"/>
      </g>
      <g id="g3766">
       <path id="path3768" d="m145.62 63.587h0.92286v2.8107c0.20742-0.2707 0.45527-0.47725 0.74355-0.61963s0.60117-0.21357 0.93867-0.21357c0.70313 0 1.2735 0.2417 1.7112 0.7251s0.65655 1.1962 0.65655 2.1384c0 0.89297-0.21621 1.6348-0.64864 2.2254-0.43242 0.59062-1.0318 0.88594-1.7982 0.88594-0.42891 0-0.79101-0.10371-1.0863-0.31113-0.17578-0.12305-0.36386-0.31992-0.56425-0.59062v0.72246h-0.8754v-7.773zm3.6202 6.5021c0.25488-0.40781 0.38232-0.9457 0.38232-1.6137 0-0.59414-0.12744-1.0863-0.38232-1.4766-0.25488-0.39023-0.63018-0.58535-1.1259-0.58535-0.43242 0-0.81123 0.15996-1.1364 0.47988-0.32519 0.31992-0.48779 0.84727-0.48779 1.582 0 0.53086 0.0668 0.96152 0.20039 1.292 0.24961 0.62226 0.71543 0.9334 1.3975 0.9334 0.51328 0 0.89737-0.20391 1.1522-0.61172zm3.088-0.65391c0.0633 0.54141 0.31465 0.91582 0.7541 1.1232 0.225 0.10547 0.48516 0.1582 0.78047 0.1582 0.5625 0 0.9791-0.1793 1.2498-0.53789 0.27071-0.35859 0.40606-0.75586 0.40606-1.1918 0-0.52734-0.16084-0.93516-0.48252-1.2234-0.32168-0.28828-0.70752-0.43242-1.1575-0.43242-0.32695 0-0.60733 0.06328-0.84111 0.18984-0.23379 0.12656-0.43331 0.30234-0.59854 0.52734l-0.82266-0.04746 0.57481-4.0658h3.9234v0.91758h-3.2115l-0.32168 2.0988c0.17578-0.13359 0.34278-0.23379 0.50098-0.30059 0.28125-0.11602 0.60645-0.17402 0.97559-0.17402 0.69257 0 1.2797 0.22324 1.7613 0.66973 0.48164 0.44648 0.72246 1.0125 0.72246 1.698 0 0.71367-0.2206 1.343-0.66181 1.8879-0.44121 0.54492-1.1452 0.81738-2.112 0.81738-0.61524 0-1.1593-0.17314-1.6321-0.51943-0.47285-0.34629-0.7374-0.87803-0.79365-1.5952h0.98613zm8.5802-2.8134c0.23555-0.23379 0.35332-0.5124 0.35332-0.83584 0-0.28125-0.1125-0.53965-0.3375-0.7752s-0.56777-0.35332-1.0283-0.35332c-0.45703 0-0.7875 0.11777-0.9914 0.35332-0.20391 0.23555-0.30586 0.51152-0.30586 0.82793 0 0.35508 0.13183 0.63281 0.3955 0.8332 0.26368 0.20039 0.57481 0.30059 0.9334 0.30059 0.41836 0 0.74532-0.1169 0.98086-0.35068zm0.17139 3.7336c0.29004-0.2373 0.43506-0.5915 0.43506-1.0626 0-0.48867-0.14942-0.85957-0.44824-1.1127-0.29883-0.25312-0.68203-0.37969-1.1496-0.37969-0.45352 0-0.82354 0.1292-1.1101 0.3876-0.28653 0.2584-0.42979 0.61611-0.42979 1.0731 0 0.39375 0.13096 0.73389 0.39287 1.0204 0.26192 0.28652 0.66709 0.42978 1.2155 0.42978 0.43945 0 0.8042-0.11865 1.0942-0.35596zm-3.0612-3.4146c-0.27774-0.28125-0.4166-0.64688-0.4166-1.0969 0-0.5625 0.2039-1.0459 0.61172-1.4502 0.40781-0.4043 0.98613-0.60644 1.735-0.60644 0.72422 0 1.292 0.19072 1.7033 0.57217 0.41133 0.38144 0.61699 0.82705 0.61699 1.3368 0 0.47109-0.11953 0.85254-0.35859 1.1443-0.1336 0.16523-0.34102 0.32695-0.62227 0.48516 0.31289 0.14414 0.55898 0.30938 0.73828 0.4957 0.33399 0.35156 0.50098 0.80859 0.50098 1.3711 0 0.66445-0.22324 1.2278-0.66973 1.6901-0.44648 0.4623-1.0775 0.69346-1.8932 0.69346-0.73477 0-1.3562-0.19951-1.8642-0.59854-0.50801-0.39902-0.76201-0.97822-0.76201-1.7376 0-0.44648 0.10898-0.83232 0.32695-1.1575 0.21797-0.3252 0.5414-0.57393 0.97031-0.74619-0.26367-0.1125-0.46934-0.24434-0.61699-0.39551zm8.8861-0.31904c0.23555-0.23379 0.35332-0.5124 0.35332-0.83584 0-0.28125-0.1125-0.53965-0.3375-0.7752s-0.56777-0.35332-1.0283-0.35332c-0.45703 0-0.7875 0.11777-0.9914 0.35332-0.20391 0.23555-0.30586 0.51152-0.30586 0.82793 0 0.35508 0.13183 0.63281 0.3955 0.8332 0.26368 0.20039 0.57481 0.30059 0.9334 0.30059 0.41836 0 0.74532-0.1169 0.98086-0.35068zm0.17139 3.7336c0.29004-0.2373 0.43506-0.5915 0.43506-1.0626 0-0.48867-0.14942-0.85957-0.44824-1.1127-0.29883-0.25312-0.68204-0.37969-1.1496-0.37969-0.45352 0-0.82354 0.1292-1.1101 0.3876-0.28653 0.2584-0.42979 0.61611-0.42979 1.0731 0 0.39375 0.13096 0.73389 0.39287 1.0204 0.26192 0.28652 0.66709 0.42978 1.2155 0.42978 0.43945 0 0.8042-0.11865 1.0942-0.35596zm-3.0612-3.4146c-0.27774-0.28125-0.4166-0.64688-0.4166-1.0969 0-0.5625 0.2039-1.0459 0.61172-1.4502 0.40781-0.4043 0.98613-0.60644 1.735-0.60644 0.72422 0 1.292 0.19072 1.7033 0.57217 0.41132 0.38144 0.61699 0.82705 0.61699 1.3368 0 0.47109-0.11953 0.85254-0.35859 1.1443-0.1336 0.16523-0.34102 0.32695-0.62227 0.48516 0.31289 0.14414 0.55898 0.30938 0.73828 0.4957 0.33399 0.35156 0.50098 0.80859 0.50098 1.3711 0 0.66445-0.22324 1.2278-0.66973 1.6901-0.44648 0.4623-1.0775 0.69346-1.8932 0.69346-0.73477 0-1.3562-0.19951-1.8642-0.59854-0.50801-0.39902-0.76201-0.97822-0.76201-1.7376 0-0.44648 0.10898-0.83232 0.32695-1.1575 0.21797-0.3252 0.5414-0.57393 0.97031-0.74619-0.26367-0.1125-0.46934-0.24434-0.61699-0.39551zm6.107-2.9531c0.22148-0.32344 0.64863-0.48516 1.2814-0.48516 0.0598 0 0.12128 0.0018 0.18457 0.0053 0.0633 0.0035 0.13535 0.0088 0.21621 0.01582v0.86484c-0.0984-0.007-0.16963-0.01143-0.21358-0.01318-0.0439-0.0018-0.0853-0.0026-0.12392-0.0026-0.28828 0-0.46055 0.07471-0.5168 0.22412-0.0563 0.14941-0.0844 0.52998-0.0844 1.1417h0.93867v0.74883h-0.94922v4.8727h-0.93867v-4.8727h-0.78575v-0.74883h0.78575v-0.88594c0.0141-0.39375 0.0826-0.68203 0.20566-0.86484zm2.9925 0c0.22149-0.32344 0.64863-0.48516 1.2814-0.48516 0.0598 0 0.12128 0.0018 0.18457 0.0053 0.0633 0.0035 0.13535 0.0088 0.21621 0.01582v0.86484c-0.0984-0.007-0.16963-0.01143-0.21358-0.01318-0.0439-0.0018-0.0853-0.0026-0.12392-0.0026-0.28828 0-0.46055 0.07471-0.5168 0.22412-0.0563 0.14941-0.0844 0.52998-0.0844 1.1417h0.93868v0.74883h-0.94922v4.8727h-0.93867v-4.8727h-0.78575v-0.74883h0.78575v-0.88594c0.0141-0.39375 0.0826-0.68203 0.20566-0.86484zm6.7762 0.44561c0.33223 0.4377 0.49834 0.88857 0.49834 1.3526h-0.93867c-0.0562-0.29883-0.1459-0.53262-0.26895-0.70137-0.22851-0.31641-0.5748-0.47461-1.0389-0.47461-0.53086 0-0.95274 0.24522-1.2656 0.73564-0.31289 0.49043-0.48691 1.1927-0.52207 2.1067 0.21797-0.31992 0.49219-0.55898 0.82266-0.71719 0.30234-0.14062 0.63984-0.21094 1.0125-0.21094 0.63281 0 1.1848 0.20215 1.6559 0.60644 0.47109 0.4043 0.70664 1.0072 0.70664 1.8088 0 0.68555-0.22324 1.2929-0.66973 1.822-0.44648 0.5291-1.0828 0.79365-1.909 0.79365-0.70664 0-1.3166-0.26807-1.8299-0.8042-0.51328-0.53613-0.76992-1.4388-0.76992-2.7079 0-0.93867 0.11426-1.735 0.34278-2.3889 0.43945-1.2516 1.2428-1.8773 2.41-1.8773 0.84375 0 1.4317 0.21885 1.764 0.65654zm-0.71191 5.7744c0.24785-0.33574 0.37177-0.73213 0.37177-1.1892 0-0.38672-0.11074-0.75498-0.33222-1.1048-0.22149-0.3498-0.62403-0.52471-1.2076-0.52471-0.40781 0-0.76553 0.13535-1.0731 0.40606-0.30762 0.2707-0.46143 0.67852-0.46143 1.2234 0 0.47812 0.13975 0.87978 0.41924 1.205 0.27949 0.3252 0.66709 0.48779 1.1628 0.48779 0.49922 0 0.87276-0.16787 1.1206-0.50361zm2.9245-6.22c0.22148-0.32344 0.64863-0.48516 1.2814-0.48516 0.0598 0 0.12128 0.0018 0.18457 0.0053 0.0633 0.0035 0.13535 0.0088 0.21621 0.01582v0.86484c-0.0984-0.007-0.16963-0.01143-0.21358-0.01318-0.0439-0.0018-0.0853-0.0026-0.12392-0.0026-0.28828 0-0.46055 0.07471-0.5168 0.22412-0.0563 0.14941-0.0844 0.52998-0.0844 1.1417h0.93868v0.74883h-0.94922v4.8727h-0.93867v-4.8727h-0.78575v-0.74883h0.78575v-0.88594c0.0141-0.39375 0.0826-0.68203 0.20566-0.86484z"/>
      </g>
      <g id="g3776" transform="translate(.5 .5)">
       <path id="path3778" stroke="#000" fill="none" stroke-miterlimit="10" d="m166 105.12v-14.12 6-9.62"/>
      </g>
      <g id="g3780">
       <path id="path3782" d="m166.5 84.1 2.52 5.04-2.52-1.26-2.52 1.26 2.52-5.04z"/>
      </g>
      <g id="g3784" transform="translate(.5 .5)">
       <path id="path3786" stroke="#000" fill="none" stroke-miterlimit="10" d="m166 83.6 2.52 5.04l-2.52-1.26-2.52 1.26 2.52-5.04z"/>
      </g>
      <g id="g3792">
       <path id="path3794" fill="#fff" d="m147.74 105.62h36.72c1.7894 0 3.24 1.4506 3.24 3.24v15.12c0 1.7894-1.4506 3.24-3.24 3.24h-36.72c-1.7894 0-3.24-1.4506-3.24-3.24v-15.12c0-1.7894 1.4506-3.24 3.24-3.24z"/>
      </g>
      <g id="g3796" transform="translate(.5 .5)">
       <path id="path3798" stroke="#000" fill="none" stroke-miterlimit="10" d="m147.24 105.12h36.72c1.7894 0 3.24 1.4506 3.24 3.24v15.12c0 1.7894-1.4506 3.24-3.24 3.24h-36.72c-1.7894 0-3.24-1.4506-3.24-3.24v-15.12c0-1.7894 1.4506-3.24 3.24-3.24z"/>
      </g>
      <g id="g3806">
       <path id="path3808" d="m151.35 118.81c0.20531 0.32625 0.53438 0.48938 0.98719 0.48938 0.35156 0 0.64054-0.15117 0.86695-0.45352 0.22641-0.30234 0.33961-0.73617 0.33961-1.3015 0-0.57094-0.11672-0.99352-0.35016-1.2677-0.23343-0.27421-0.52171-0.41132-0.86484-0.41132-0.3825 0-0.69258 0.14625-0.93023 0.43875-0.23766 0.2925-0.35649 0.72281-0.35649 1.2909 0 0.48375 0.10266 0.88875 0.30797 1.215zm1.7044-3.3876c0.135 0.0844 0.28828 0.23203 0.45984 0.44297v-2.2824h0.72984v6.2184h-0.68343v-0.6286c-0.17719 0.27844-0.38672 0.47954-0.6286 0.60329-0.24187 0.12375-0.5189 0.18562-0.83109 0.18562-0.50344 0-0.93938-0.21164-1.3078-0.63492-0.36844-0.42328-0.55266-0.98649-0.55266-1.6896 0-0.65812 0.16805-1.2284 0.50414-1.7107 0.33609-0.48235 0.81633-0.72352 1.4407-0.72352 0.34594 0 0.63563 0.0731 0.86907 0.21938zm5.1244-0.0148c0.30094 0.15047 0.53016 0.34524 0.68766 0.5843 0.15187 0.22781 0.25312 0.49359 0.30375 0.79734 0.045 0.20813 0.0675 0.54 0.0675 0.99563h-3.3117c0.0141 0.45843 0.12234 0.82617 0.32484 1.1032s0.51609 0.41555 0.94078 0.41555c0.39656 0 0.71297-0.13079 0.94922-0.39235 0.135-0.15187 0.23063-0.32765 0.28688-0.52734h0.74671c-0.0197 0.16594-0.0851 0.35086-0.19617 0.55477-0.11109 0.2039-0.23554 0.37054-0.37336 0.49992-0.23062 0.225-0.51609 0.37687-0.8564 0.45562-0.18282 0.045-0.38953 0.0675-0.62016 0.0675-0.5625 0-1.0392-0.20461-1.4302-0.61383-0.39094-0.40921-0.58641-0.98226-0.58641-1.7191 0-0.72562 0.19687-1.3148 0.59062-1.7676 0.39375-0.45282 0.90844-0.67922 1.5441-0.67922 0.32062 0 0.6314 0.0752 0.93234 0.2257zm0.27844 1.774c-0.0309-0.32907-0.10266-0.59204-0.21516-0.78891-0.20812-0.36563-0.55547-0.54844-1.042-0.54844-0.34875 0-0.64125 0.12586-0.8775 0.37758s-0.36141 0.57164-0.37547 0.95977h2.5102zm2.0826-1.8984 1.2066 3.6788 1.2614-3.6788h0.8311l-1.7044 4.5183h-0.81l-1.6664-4.5183h0.88172zm6.7627 0.12445c0.30094 0.15047 0.53016 0.34524 0.68766 0.5843 0.15187 0.22781 0.25312 0.49359 0.30375 0.79734 0.045 0.20813 0.0675 0.54 0.0675 0.99563h-3.3117c0.0141 0.45843 0.12234 0.82617 0.32484 1.1032s0.5161 0.41555 0.94078 0.41555c0.39656 0 0.71297-0.13079 0.94922-0.39235 0.135-0.15187 0.23063-0.32765 0.28688-0.52734h0.74671c-0.0197 0.16594-0.0851 0.35086-0.19617 0.55477-0.11109 0.2039-0.23554 0.37054-0.37336 0.49992-0.23062 0.225-0.51609 0.37687-0.8564 0.45562-0.18282 0.045-0.38953 0.0675-0.62016 0.0675-0.5625 0-1.0392-0.20461-1.4302-0.61383-0.39093-0.40921-0.5864-0.98226-0.5864-1.7191 0-0.72562 0.19687-1.3148 0.59062-1.7676 0.39375-0.45282 0.90844-0.67922 1.5441-0.67922 0.32062 0 0.6314 0.0752 0.93234 0.2257zm0.27844 1.774c-0.0309-0.32907-0.10266-0.59204-0.21516-0.78891-0.20812-0.36563-0.55547-0.54844-1.042-0.54844-0.34875 0-0.64125 0.12586-0.8775 0.37758s-0.36141 0.57164-0.37547 0.95977h2.5102zm1.7325-3.5775h0.75937v6.1973h-0.75937v-6.1973zm4.7201 5.1363c0.18704-0.38109 0.28055-0.80507 0.28055-1.272 0-0.42187-0.0675-0.765-0.2025-1.0294-0.21375-0.41625-0.58219-0.62438-1.1053-0.62438-0.46406 0-0.80156 0.17719-1.0125 0.53156-0.21094 0.35438-0.31641 0.78188-0.31641 1.2825 0 0.48094 0.10547 0.88172 0.31641 1.2024 0.21094 0.32062 0.54562 0.48093 1.0041 0.48093 0.50344 0 0.84867-0.19054 1.0357-0.57164zm0.4704-3.0059c0.40218 0.38813 0.60328 0.95907 0.60328 1.7128 0 0.72843-0.17719 1.3303-0.53157 1.8056-0.35437 0.47531-0.90421 0.71297-1.6495 0.71297-0.62156 0-1.1152-0.21023-1.4808-0.6307-0.36562-0.42047-0.54844-0.98508-0.54844-1.6938 0-0.75938 0.19266-1.3641 0.57797-1.8141 0.38532-0.45 0.90282-0.675 1.5525-0.675 0.58219 0 1.0744 0.19406 1.4766 0.58218zm4.2954 3.1113c0.23484-0.29672 0.35226-0.74039 0.35226-1.331 0-0.36-0.052-0.66938-0.15609-0.92813-0.19688-0.49781-0.55688-0.74672-1.08-0.74672-0.52594 0-0.88594 0.26297-1.08 0.78891-0.10406 0.28125-0.1561 0.63844-0.1561 1.0716 0 0.34875 0.052 0.64547 0.1561 0.89016 0.19687 0.46687 0.55687 0.70031 1.08 0.70031 0.35437 0 0.64898-0.14836 0.88383-0.44508zm-2.8498-3.5416h0.73828v0.59906c0.15188-0.20531 0.31781-0.36421 0.49781-0.47671 0.25594-0.16875 0.55688-0.25313 0.90282-0.25313 0.51187 0 0.9464 0.19617 1.3036 0.58852 0.35719 0.39234 0.53578 0.95273 0.53578 1.6812 0 0.98437-0.25734 1.6875-0.77203 2.1094-0.32625 0.26719-0.70594 0.40078-1.1391 0.40078-0.34031 0-0.62578-0.0745-0.85641-0.22359-0.135-0.0844-0.28547-0.22922-0.4514-0.43453v2.3077h-0.75938v-6.2986z"/>
      </g>
      <g id="g3858" transform="translate(.5 .5)">
       <path id="path3860" stroke="#000" fill="none" stroke-miterlimit="10" d="m241 104-37.98-20.8"/>
      </g>
      <g id="g3862">
       <path id="path3864" d="m200.21 81.89 5.63 0.21-2.32 1.6-0.1 2.82-3.21-4.63z"/>
      </g>
      <g id="g3866" transform="translate(.5 .5)">
       <path id="path3868" stroke="#000" fill="none" stroke-miterlimit="10" d="m199.71 81.39 5.63 0.21-2.32 1.6-0.1 2.82-3.21-4.63z"/>
      </g>
      <g id="g3872" transform="translate(.5 .5)">
       <path id="path3874" stroke="#000" fill="none" stroke-miterlimit="10" d="m382 68.4v17.02"/>
      </g>
      <g id="g3876">
       <path id="path3878" d="m382.5 89.7-2.52-5.04 2.52 1.26 2.52-1.26-2.52 5.04z"/>
      </g>
      <g id="g3880" transform="translate(.5 .5)">
       <path id="path3882" stroke="#000" fill="none" stroke-miterlimit="10" d="m382 89.2-2.52-5.04 2.52 1.26 2.52-1.26-2.52 5.04z"/>
      </g>
      <g id="g3888">
       <path id="path3890" fill="#fff" d="m345.74 47.3h72.72c1.7894 0 3.24 1.4506 3.24 3.24v15.12c0 1.7894-1.4506 3.24-3.24 3.24h-72.72c-1.7894 0-3.24-1.4506-3.24-3.24v-15.12c0-1.7894 1.4506-3.24 3.24-3.24z"/>
      </g>
      <g id="g3892" transform="translate(.5 .5)">
       <path id="path3894" stroke="#000" fill="none" stroke-miterlimit="10" d="m345.24 46.8h72.72c1.7894 0 3.24 1.4506 3.24 3.24v15.12c0 1.7894-1.4506 3.24-3.24 3.24h-72.72c-1.7894 0-3.24-1.4506-3.24-3.24v-15.12c0-1.7894 1.4506-3.24 3.24-3.24z"/>
      </g>
      <g id="g3902">
       <path id="path3904" d="m352.63 54.902c0.17719-0.25875 0.51891-0.38812 1.0252-0.38812 0.0478 0 0.097 0.0014 0.14765 0.0042 0.0506 0.0028 0.10828 0.007 0.17297 0.01266v0.69188c-0.0788-0.0056-0.1357-0.0091-0.17086-0.01055-0.0352-0.0014-0.0682-0.0021-0.0991-0.0021-0.23062 0-0.36844 0.05977-0.41344 0.1793s-0.0675 0.42398-0.0675 0.91336h0.75094v0.59906h-0.75937v3.8981h-0.75094v-3.8981h-0.6286v-0.59906h0.6286v-0.70875c0.0113-0.315 0.0661-0.54562 0.16453-0.69188zm4.8558 1.504c0.30094 0.15047 0.53016 0.34524 0.68766 0.5843 0.15187 0.22781 0.25312 0.49359 0.30375 0.79734 0.045 0.20812 0.0675 0.54 0.0675 0.99562h-3.3117c0.0141 0.45844 0.12234 0.82617 0.32484 1.1032s0.5161 0.41555 0.94078 0.41555c0.39656 0 0.71297-0.13078 0.94922-0.39234 0.135-0.15188 0.23063-0.32766 0.28688-0.52734h0.74671c-0.0197 0.16594-0.0851 0.35086-0.19617 0.55477-0.11109 0.20391-0.23554 0.37055-0.37336 0.49992-0.23062 0.225-0.51609 0.37688-0.8564 0.45562-0.18282 0.045-0.38953 0.0675-0.62016 0.0675-0.5625 0-1.0392-0.20461-1.4302-0.61383-0.39094-0.40922-0.58641-0.98227-0.58641-1.7191 0-0.72562 0.19687-1.3148 0.59062-1.7677 0.39375-0.45281 0.90844-0.67922 1.5441-0.67922 0.32062 0 0.6314 0.07523 0.93234 0.2257zm0.27844 1.774c-0.0309-0.32906-0.10266-0.59203-0.21516-0.78891-0.20812-0.36562-0.55547-0.54844-1.042-0.54844-0.34875 0-0.64125 0.12586-0.8775 0.37758s-0.36141 0.57164-0.37547 0.95977h2.5102zm2.5341 1.9364c0.16031 0.12656 0.35016 0.18984 0.56953 0.18984 0.26719 0 0.52594-0.06188 0.77625-0.18562 0.42188-0.20531 0.63281-0.54141 0.63281-1.0083v-0.61172c-0.0928 0.05906-0.21234 0.10828-0.35859 0.14766-0.14625 0.03937-0.28969 0.0675-0.43031 0.08438l-0.45985 0.05906c-0.27562 0.03656-0.48234 0.09422-0.62015 0.17297-0.23344 0.13219-0.35016 0.34312-0.35016 0.63281 0 0.21938 0.0802 0.39234 0.24047 0.51891zm1.5989-2.0545c0.17437-0.0225 0.29109-0.09562 0.35015-0.21938 0.0337-0.0675 0.0506-0.16453 0.0506-0.29109 0-0.25875-0.0921-0.44648-0.27633-0.5632-0.18422-0.11672-0.44789-0.17508-0.79102-0.17508-0.39656 0-0.67781 0.10688-0.84375 0.32062-0.0928 0.11812-0.15328 0.29391-0.1814 0.52734h-0.70875c0.0141-0.55688 0.19476-0.9443 0.54211-1.1623 0.34734-0.21797 0.75023-0.32695 1.2087-0.32695 0.53156 0 0.96328 0.10125 1.2952 0.30375 0.32907 0.2025 0.4936 0.5175 0.4936 0.945v2.603c0 0.07875 0.0162 0.14203 0.0485 0.18984 0.0324 0.04781 0.10055 0.07172 0.20461 0.07172 0.0337 0 0.0717-0.0021 0.11391-0.0063 0.0422-0.0042 0.0872-0.01055 0.135-0.01899v0.56109c-0.11813 0.03375-0.20813 0.05484-0.27 0.06328-0.0619 0.0084-0.14625 0.01266-0.25313 0.01266-0.26156 0-0.4514-0.09281-0.56953-0.27844-0.0619-0.09844-0.10547-0.23766-0.13078-0.41766-0.15469 0.2025-0.37687 0.37828-0.66656 0.52734s-0.60891 0.22359-0.95766 0.22359c-0.41906 0-0.76148-0.12726-1.0273-0.3818-0.26578-0.25453-0.39867-0.57305-0.39867-0.95555 0-0.41906 0.13078-0.74391 0.39234-0.97453s0.60469-0.37266 1.0294-0.42609l1.2108-0.15188zm2.5341-3.0417h0.76781v1.2614h0.72141v0.62016h-0.72141v2.9489c0 0.1575 0.0534 0.26297 0.16031 0.31641 0.0591 0.03094 0.1575 0.04641 0.29532 0.04641 0.0366 0 0.0759-0.000703 0.11812-0.0021 0.0422-0.0014 0.0914-0.0049 0.14766-0.01055v0.59906c-0.0872 0.02531-0.17789 0.04359-0.27211 0.05484-0.0942 0.01125-0.19617 0.01687-0.30586 0.01687-0.35438 0-0.59485-0.0907-0.72141-0.27211s-0.18984-0.41695-0.18984-0.70664v-2.9911h-0.61172v-0.62016h0.61172v-1.2614zm3.0038 1.2614v2.9995c0 0.23062 0.0366 0.41906 0.10969 0.56531 0.135 0.27 0.38671 0.405 0.75515 0.405 0.52875 0 0.88875-0.23625 1.08-0.70875 0.10406-0.25312 0.1561-0.60047 0.1561-1.042v-2.2191h0.75937v4.5183h-0.71719l0.008-0.66656c-0.0984 0.17156-0.22078 0.31641-0.36703 0.43453-0.28969 0.23625-0.64125 0.35438-1.0547 0.35438-0.64406 0-1.0828-0.21516-1.3162-0.64547-0.12612-0.23062-0.1894-0.53859-0.1894-0.92391v-3.0712h0.77625zm4.0655 0h0.7214v0.78047c0.0591-0.15188 0.20391-0.3368 0.43454-0.55477 0.23062-0.21797 0.4964-0.32695 0.79734-0.32695 0.0141 0 0.038 0.0014 0.0717 0.0042s0.0914 0.0084 0.17297 0.01688v0.80156c-0.045-0.0084-0.0865-0.01406-0.12446-0.01687-0.038-0.0028-0.0794-0.0042-0.12445-0.0042-0.3825 0-0.67641 0.12305-0.88172 0.36914s-0.30797 0.52945-0.30797 0.85008v2.5988h-0.75937v-4.5183zm5.6616 0.12445c0.30094 0.15047 0.53016 0.34524 0.68766 0.5843 0.15187 0.22781 0.25312 0.49359 0.30375 0.79734 0.045 0.20812 0.0675 0.54 0.0675 0.99562h-3.3117c0.0141 0.45844 0.12234 0.82617 0.32484 1.1032s0.51609 0.41555 0.94078 0.41555c0.39656 0 0.71297-0.13078 0.94922-0.39234 0.135-0.15188 0.23063-0.32766 0.28688-0.52734h0.74671c-0.0197 0.16594-0.0851 0.35086-0.19617 0.55477-0.11109 0.20391-0.23554 0.37055-0.37336 0.49992-0.23062 0.225-0.51609 0.37688-0.8564 0.45562-0.18282 0.045-0.38953 0.0675-0.62016 0.0675-0.5625 0-1.0392-0.20461-1.4302-0.61383-0.39093-0.40922-0.5864-0.98227-0.5864-1.7191 0-0.72562 0.19687-1.3148 0.59062-1.7677 0.39375-0.45281 0.90844-0.67922 1.5441-0.67922 0.32062 0 0.6314 0.07523 0.93234 0.2257zm0.27844 1.774c-0.0309-0.32906-0.10266-0.59203-0.21516-0.78891-0.20812-0.36562-0.55547-0.54844-1.042-0.54844-0.34875 0-0.64125 0.12586-0.8775 0.37758s-0.36141 0.57164-0.37547 0.95977h2.5102zm3.1205-3.5775h0.64125l-1.9659 6.1973h-0.64125l1.9659-6.1973zm1.8098 5.5139c0.16031 0.12656 0.35016 0.18984 0.56953 0.18984 0.26719 0 0.52594-0.06188 0.77625-0.18562 0.42188-0.20531 0.63281-0.54141 0.63281-1.0083v-0.61172c-0.0928 0.05906-0.21234 0.10828-0.35859 0.14766-0.14625 0.03937-0.28969 0.0675-0.43031 0.08438l-0.45985 0.05906c-0.27562 0.03656-0.48234 0.09422-0.62015 0.17297-0.23344 0.13219-0.35016 0.34312-0.35016 0.63281 0 0.21938 0.0802 0.39234 0.24047 0.51891zm1.5989-2.0545c0.17437-0.0225 0.29109-0.09562 0.35015-0.21938 0.0337-0.0675 0.0506-0.16453 0.0506-0.29109 0-0.25875-0.0921-0.44648-0.27633-0.5632-0.18422-0.11672-0.44789-0.17508-0.79102-0.17508-0.39656 0-0.67781 0.10688-0.84375 0.32062-0.0928 0.11812-0.15328 0.29391-0.1814 0.52734h-0.70875c0.0141-0.55688 0.19476-0.9443 0.54211-1.1623 0.34734-0.21797 0.75023-0.32695 1.2087-0.32695 0.53156 0 0.96328 0.10125 1.2952 0.30375 0.32907 0.2025 0.4936 0.5175 0.4936 0.945v2.603c0 0.07875 0.0162 0.14203 0.0485 0.18984 0.0324 0.04781 0.10055 0.07172 0.20461 0.07172 0.0337 0 0.0717-0.0021 0.11391-0.0063 0.0422-0.0042 0.0872-0.01055 0.135-0.01899v0.56109c-0.11813 0.03375-0.20813 0.05484-0.27 0.06328-0.0619 0.0084-0.14625 0.01266-0.25313 0.01266-0.26156 0-0.4514-0.09281-0.56953-0.27844-0.0619-0.09844-0.10547-0.23766-0.13078-0.41766-0.15469 0.2025-0.37687 0.37828-0.66656 0.52734s-0.60891 0.22359-0.95766 0.22359c-0.41906 0-0.76148-0.12726-1.0273-0.3818-0.26578-0.25453-0.39867-0.57305-0.39867-0.95555 0-0.41906 0.13078-0.74391 0.39234-0.97453s0.60469-0.37266 1.0294-0.42609l1.2108-0.15188zm2.3822-1.7803h0.72141v0.64125c0.21375-0.26438 0.44016-0.45422 0.67922-0.56953s0.50484-0.17297 0.79734-0.17297c0.64125 0 1.0744 0.22359 1.2994 0.67078 0.12375 0.24469 0.18562 0.59484 0.18562 1.0505v2.8983h-0.77203v-2.8477c0-0.27562-0.0408-0.49781-0.12234-0.66656-0.135-0.28125-0.37969-0.42188-0.73407-0.42188-0.18 0-0.32765 0.01828-0.44296 0.05484-0.20813 0.06188-0.39094 0.18562-0.54844 0.37125-0.12656 0.14906-0.20883 0.30305-0.2468 0.46195-0.038 0.15891-0.0569 0.38602-0.0569 0.68133v2.3667h-0.75938v-4.5183zm4.8038 0.02109h0.77203v4.4972h-0.77203v-4.4972zm0-1.7002h0.77203v0.86062h-0.77203v-0.86062zm1.9125 1.6791h0.75094v0.64125c0.18-0.22219 0.34312-0.38391 0.48938-0.48516 0.25031-0.17156 0.53437-0.25734 0.85218-0.25734 0.36 0 0.64969 0.08859 0.86906 0.26578 0.12376 0.10125 0.23625 0.25031 0.3375 0.44719 0.16875-0.24188 0.36704-0.42117 0.59485-0.53789s0.48375-0.17508 0.76781-0.17508c0.6075 0 1.0209 0.21938 1.2403 0.65812 0.11813 0.23625 0.17719 0.55406 0.17719 0.95344v3.008h-0.7889v-3.1388c0-0.30094-0.0752-0.50766-0.22571-0.62016-0.15047-0.1125-0.33398-0.16875-0.55055-0.16875-0.29812 0-0.55476 0.09984-0.76992 0.29953-0.21515 0.19969-0.32273 0.53297-0.32273 0.99984v2.6283h-0.77203v-2.9489c0-0.30656-0.0366-0.53016-0.10969-0.67078-0.11531-0.21094-0.33047-0.31641-0.64547-0.31641-0.28687 0-0.54773 0.11109-0.78258 0.33328-0.23484 0.22219-0.35226 0.62438-0.35226 1.2066v2.3962h-0.75938v-4.5183zm8.0114 3.8348c0.16031 0.12656 0.35015 0.18984 0.56953 0.18984 0.26719 0 0.52594-0.06188 0.77625-0.18562 0.42187-0.20531 0.63281-0.54141 0.63281-1.0083v-0.61172c-0.0928 0.05906-0.21234 0.10828-0.35859 0.14766-0.14625 0.03937-0.28969 0.0675-0.43031 0.08438l-0.45985 0.05906c-0.27562 0.03656-0.48234 0.09422-0.62015 0.17297-0.23344 0.13219-0.35016 0.34312-0.35016 0.63281 0 0.21938 0.0802 0.39234 0.24047 0.51891zm1.5989-2.0545c0.17437-0.0225 0.29109-0.09562 0.35015-0.21938 0.0337-0.0675 0.0506-0.16453 0.0506-0.29109 0-0.25875-0.0921-0.44648-0.27633-0.5632-0.18422-0.11672-0.44789-0.17508-0.79102-0.17508-0.39656 0-0.67781 0.10688-0.84375 0.32062-0.0928 0.11812-0.15328 0.29391-0.1814 0.52734h-0.70875c0.0141-0.55688 0.19476-0.9443 0.5421-1.1623 0.34735-0.21797 0.75024-0.32695 1.2087-0.32695 0.53156 0 0.96328 0.10125 1.2952 0.30375 0.32907 0.2025 0.4936 0.5175 0.4936 0.945v2.603c0 0.07875 0.0162 0.14203 0.0485 0.18984 0.0324 0.04781 0.10055 0.07172 0.20461 0.07172 0.0337 0 0.0717-0.0021 0.11391-0.0063 0.0422-0.0042 0.0872-0.01055 0.135-0.01899v0.56109c-0.11813 0.03375-0.20813 0.05484-0.27 0.06328-0.0619 0.0084-0.14625 0.01266-0.25313 0.01266-0.26156 0-0.4514-0.09281-0.56953-0.27844-0.0619-0.09844-0.10547-0.23766-0.13078-0.41766-0.15469 0.2025-0.37687 0.37828-0.66656 0.52734s-0.60891 0.22359-0.95766 0.22359c-0.41906 0-0.76148-0.12726-1.0273-0.3818-0.26578-0.25453-0.39867-0.57305-0.39867-0.95555 0-0.41906 0.13078-0.74391 0.39234-0.97453s0.60469-0.37266 1.0294-0.42609l1.2108-0.15188zm2.5341-3.0417h0.76781v1.2614h0.72141v0.62016h-0.72141v2.9489c0 0.1575 0.0534 0.26297 0.16031 0.31641 0.0591 0.03094 0.1575 0.04641 0.29531 0.04641 0.0366 0 0.0759-0.000703 0.11813-0.0021 0.0422-0.0014 0.0914-0.0049 0.14766-0.01055v0.59906c-0.0872 0.02531-0.1779 0.04359-0.27211 0.05484-0.0942 0.01125-0.19617 0.01687-0.30586 0.01687-0.35438 0-0.59485-0.0907-0.72141-0.27211s-0.18984-0.41695-0.18984-0.70664v-2.9911h-0.61172v-0.62016h0.61172v-1.2614zm5.0583 1.3859c0.30094 0.15047 0.53015 0.34524 0.68765 0.5843 0.15188 0.22781 0.25313 0.49359 0.30375 0.79734 0.045 0.20812 0.0675 0.54 0.0675 0.99562h-3.3117c0.0141 0.45844 0.12234 0.82617 0.32484 1.1032s0.51609 0.41555 0.94078 0.41555c0.39656 0 0.71297-0.13078 0.94922-0.39234 0.135-0.15188 0.23062-0.32766 0.28687-0.52734h0.74672c-0.0197 0.16594-0.0851 0.35086-0.19617 0.55477-0.11109 0.20391-0.23555 0.37055-0.37336 0.49992-0.23062 0.225-0.51609 0.37688-0.8564 0.45562-0.18282 0.045-0.38954 0.0675-0.62016 0.0675-0.5625 0-1.0392-0.20461-1.4302-0.61383-0.39093-0.40922-0.5864-0.98227-0.5864-1.7191 0-0.72562 0.19687-1.3148 0.59062-1.7677 0.39375-0.45281 0.90844-0.67922 1.5441-0.67922 0.32063 0 0.63141 0.07523 0.93235 0.2257zm0.27844 1.774c-0.0309-0.32906-0.10266-0.59203-0.21516-0.78891-0.20813-0.36562-0.55547-0.54844-1.042-0.54844-0.34875 0-0.64125 0.12586-0.8775 0.37758s-0.36141 0.57164-0.37547 0.95977h2.5102z"/>
      </g>
      <g id="g3914">
       <path id="path3916" fill="#fff" d="m40.82 54.5h56.16c2.3859 0 4.32 1.9341 4.32 4.32v20.16c0 2.3859-1.9341 4.32-4.32 4.32h-56.16c-2.3859 0-4.32-1.9341-4.32-4.32v-20.16c0-2.3859 1.9341-4.32 4.32-4.32z"/>
      </g>
      <g id="g3918" transform="translate(.5 .5)">
       <path id="path3920" stroke="#000" fill="none" stroke-miterlimit="10" d="m40.32 54h56.16c2.386 0 4.32 1.934 4.32 4.32v20.16c0 2.3859-1.9341 4.32-4.32 4.32h-56.16c-2.3859 0-4.32-1.9341-4.32-4.32v-20.16c0-2.386 1.934-4.32 4.32-4.32z"/>
      </g>
      <g id="g3928">
       <path id="path3930" d="m62.923 70.21h1.1021v1.1496h-1.1021v-1.1496zm2.9925 0h1.1021v1.1496h-1.1021v-1.1496zm2.9925 0h1.1021v1.1496h-1.1021v-1.1496zm2.9925 0h1.1021v1.1496h-1.1021v-1.1496z"/>
      </g>
     </g>
    </g>
   </g>
  </g>
  <g id="g3942" transform="matrix(1.25 0 0 1.25 -612.59 80.487)"></g>
  <g id="g3952" transform="matrix(1.25 0 0 1.25 -612.59 80.487)">
   <g id="g3954" clip-path="url(#clipPath3956)"></g>
  </g>
  <g id="g3974" transform="matrix(1.25 0 0 1.25 -612.59 80.487)"></g>
  <g id="g3986" transform="matrix(1.25 0 0 1.25 -612.59 80.487)">
   <g id="g3988" clip-path="url(#clipPath3990)"></g>
  </g>
  <g id="g4002" transform="matrix(1.25 0 0 1.25 -612.59 80.487)">
   <g id="g4004" clip-path="url(#clipPath4006)">
    <g id="g4010" clip-path="url(#clipPath4012)"></g>
   </g>
  </g>
  <g id="g4028" transform="matrix(1.25 0 0 1.25 -612.59 80.487)"></g>
  <g id="g4038" transform="matrix(1.25 0 0 1.25 -612.59 80.487)">
   <g id="g4040" clip-path="url(#clipPath4042)"></g>
  </g>
  <g id="g4060" transform="matrix(1.25 0 0 1.25 -612.59 80.487)"></g>
 </g>
</svg>
