<?xml version="1.0" encoding="UTF-8" standalone="no"?>
<svg id="svg12583" xmlns:rdf="http://www.w3.org/1999/02/22-rdf-syntax-ns#" xmlns="http://www.w3.org/2000/svg" height="55.725mm" width="124.81mm" version="1.1" xmlns:cc="http://creativecommons.org/ns#" xmlns:dc="http://purl.org/dc/elements/1.1/" viewBox="0 0 442.24999 197.44999">
 <defs id="defs12585">
  <clipPath id="clipPath14404" clipPathUnits="userSpaceOnUse">
   <path id="path14406" d="m0 0h843v596h-843v-596z" clip-rule="evenodd"/>
  </clipPath>
  <clipPath id="clipPath14410" clipPathUnits="userSpaceOnUse">
   <path id="path14412" d="m0 0h842v595h-842v-595z" clip-rule="evenodd"/>
  </clipPath>
  <clipPath id="clipPath14424" clipPathUnits="userSpaceOnUse">
   <path id="path14426" d="m0 0h843v596h-843v-596z" clip-rule="evenodd"/>
  </clipPath>
  <clipPath id="clipPath14436" clipPathUnits="userSpaceOnUse">
   <path id="path14438" d="m0 0h843v596h-843v-596z" clip-rule="evenodd"/>
  </clipPath>
  <clipPath id="clipPath14442" clipPathUnits="userSpaceOnUse">
   <path id="path14444" d="m0 0h842v595h-842v-595z" clip-rule="evenodd"/>
  </clipPath>
  <clipPath id="clipPath14456" clipPathUnits="userSpaceOnUse">
   <path id="path14458" d="m0 0h843v596h-843v-596z" clip-rule="evenodd"/>
  </clipPath>
  <clipPath id="clipPath14468" clipPathUnits="userSpaceOnUse">
   <path id="path14470" d="m0 0h843v596h-843v-596z" clip-rule="evenodd"/>
  </clipPath>
  <clipPath id="clipPath14474" clipPathUnits="userSpaceOnUse">
   <path id="path14476" d="m0 0h842v595h-842v-595z" clip-rule="evenodd"/>
  </clipPath>
  <clipPath id="clipPath14488" clipPathUnits="userSpaceOnUse">
   <path id="path14490" d="m0 0h843v596h-843v-596z" clip-rule="evenodd"/>
  </clipPath>
  <clipPath id="clipPath14500" clipPathUnits="userSpaceOnUse">
   <path id="path14502" d="m0 0h843v596h-843v-596z" clip-rule="evenodd"/>
  </clipPath>
  <clipPath id="clipPath14506" clipPathUnits="userSpaceOnUse">
   <path id="path14508" d="m0 0h842v595h-842v-595z" clip-rule="evenodd"/>
  </clipPath>
  <clipPath id="clipPath14520" clipPathUnits="userSpaceOnUse">
   <path id="path14522" d="m0 0h843v596h-843v-596z" clip-rule="evenodd"/>
  </clipPath>
  <clipPath id="clipPath14532" clipPathUnits="userSpaceOnUse">
   <path id="path14534" d="m0 0h843v596h-843v-596z" clip-rule="evenodd"/>
  </clipPath>
  <clipPath id="clipPath14538" clipPathUnits="userSpaceOnUse">
   <path id="path14540" d="m0 0h842v595h-842v-595z" clip-rule="evenodd"/>
  </clipPath>
  <clipPath id="clipPath14552" clipPathUnits="userSpaceOnUse">
   <path id="path14554" d="m0 0h843v596h-843v-596z" clip-rule="evenodd"/>
  </clipPath>
  <clipPath id="clipPath14564" clipPathUnits="userSpaceOnUse">
   <path id="path14566" d="m0 0h843v596h-843v-596z" clip-rule="evenodd"/>
  </clipPath>
  <clipPath id="clipPath14570" clipPathUnits="userSpaceOnUse">
   <path id="path14572" d="m0 0h842v595h-842v-595z" clip-rule="evenodd"/>
  </clipPath>
  <clipPath id="clipPath14584" clipPathUnits="userSpaceOnUse">
   <path id="path14586" d="m0 0h843v596h-843v-596z" clip-rule="evenodd"/>
  </clipPath>
  <clipPath id="clipPath14596" clipPathUnits="userSpaceOnUse">
   <path id="path14598" d="m0 0h843v596h-843v-596z" clip-rule="evenodd"/>
  </clipPath>
  <clipPath id="clipPath14602" clipPathUnits="userSpaceOnUse">
   <path id="path14604" d="m0 0h842v595h-842v-595z" clip-rule="evenodd"/>
  </clipPath>
  <clipPath id="clipPath14616" clipPathUnits="userSpaceOnUse">
   <path id="path14618" d="m0 0h843v596h-843v-596z" clip-rule="evenodd"/>
  </clipPath>
  <clipPath id="clipPath14628" clipPathUnits="userSpaceOnUse">
   <path id="path14630" d="m0 0h843v596h-843v-596z" clip-rule="evenodd"/>
  </clipPath>
  <clipPath id="clipPath14634" clipPathUnits="userSpaceOnUse">
   <path id="path14636" d="m0 0h842v595h-842v-595z" clip-rule="evenodd"/>
  </clipPath>
  <clipPath id="clipPath14648" clipPathUnits="userSpaceOnUse">
   <path id="path14650" d="m0 0h843v596h-843v-596z" clip-rule="evenodd"/>
  </clipPath>
  <clipPath id="clipPath14660" clipPathUnits="userSpaceOnUse">
   <path id="path14662" d="m0 0h843v596h-843v-596z" clip-rule="evenodd"/>
  </clipPath>
  <clipPath id="clipPath14666" clipPathUnits="userSpaceOnUse">
   <path id="path14668" d="m0 0h842v595h-842v-595z" clip-rule="evenodd"/>
  </clipPath>
  <clipPath id="clipPath14676" clipPathUnits="userSpaceOnUse">
   <path id="path14678" d="m0 0h843v596h-843v-596z" clip-rule="evenodd"/>
  </clipPath>
  <clipPath id="clipPath14682" clipPathUnits="userSpaceOnUse">
   <path id="path14684" d="m0 0h842v595h-842v-595z" clip-rule="evenodd"/>
  </clipPath>
  <clipPath id="clipPath14688" clipPathUnits="userSpaceOnUse">
   <path id="path14690" d="m0 0h842v595h-842v-595z" clip-rule="evenodd"/>
  </clipPath>
  <clipPath id="clipPath15064" clipPathUnits="userSpaceOnUse">
   <path id="path15066" d="m0 0h843v596h-843v-596z" clip-rule="evenodd"/>
  </clipPath>
  <clipPath id="clipPath15074" clipPathUnits="userSpaceOnUse">
   <path id="path15076" d="m0 0h843v596h-843v-596z" clip-rule="evenodd"/>
  </clipPath>
  <clipPath id="clipPath15080" clipPathUnits="userSpaceOnUse">
   <path id="path15082" d="m0 0h842v595h-842v-595z" clip-rule="evenodd"/>
  </clipPath>
  <clipPath id="clipPath15096" clipPathUnits="userSpaceOnUse">
   <path id="path15098" d="m0 0h843v596h-843v-596z" clip-rule="evenodd"/>
  </clipPath>
  <clipPath id="clipPath15108" clipPathUnits="userSpaceOnUse">
   <path id="path15110" d="m0 0h843v596h-843v-596z" clip-rule="evenodd"/>
  </clipPath>
  <clipPath id="clipPath15114" clipPathUnits="userSpaceOnUse">
   <path id="path15116" d="m0 0h842v595h-842v-595z" clip-rule="evenodd"/>
  </clipPath>
  <clipPath id="clipPath15124" clipPathUnits="userSpaceOnUse">
   <path id="path15126" d="m0 0h843v596h-843v-596z" clip-rule="evenodd"/>
  </clipPath>
  <clipPath id="clipPath15130" clipPathUnits="userSpaceOnUse">
   <path id="path15132" d="m0 0h842v595h-842v-595z" clip-rule="evenodd"/>
  </clipPath>
  <clipPath id="clipPath15136" clipPathUnits="userSpaceOnUse">
   <path id="path15138" d="m0 0h842v595h-842v-595z" clip-rule="evenodd"/>
  </clipPath>
  <clipPath id="clipPath15150" clipPathUnits="userSpaceOnUse">
   <path id="path15152" d="m0 0h843v596h-843v-596z" clip-rule="evenodd"/>
  </clipPath>
  <clipPath id="clipPath15160" clipPathUnits="userSpaceOnUse">
   <path id="path15162" d="m0 0h843v596h-843v-596z" clip-rule="evenodd"/>
  </clipPath>
  <clipPath id="clipPath15166" clipPathUnits="userSpaceOnUse">
   <path id="path15168" d="m0 0h842v595h-842v-595z" clip-rule="evenodd"/>
  </clipPath>
  <clipPath id="clipPath15182" clipPathUnits="userSpaceOnUse">
   <path id="path15184" d="m0 0h843v596h-843v-596z" clip-rule="evenodd"/>
  </clipPath>
 </defs>
 <g id="layer1" transform="translate(463.96 -169.53)">
  <g id="g14372" transform="matrix(1.25 0 0 1.25 -508.96 106.53)"></g>
  <g id="g14376" transform="matrix(1.25 0 0 1.25 -508.96 106.53)"></g>
  <g id="g14400" transform="matrix(1.25 0 0 1.25 -508.96 106.53)">
   <g id="g14402" clip-path="url(#clipPath14404)">
    <g id="g14408" clip-path="url(#clipPath14410)"></g>
   </g>
  </g>
  <g id="g14416" transform="matrix(1.25 0 0 1.25 -508.96 106.53)"></g>
  <g id="g14420" transform="matrix(1.25 0 0 1.25 -508.96 106.53)">
   <g id="g14422" clip-path="url(#clipPath14424)"></g>
  </g>
  <g id="g14432" transform="matrix(1.25 0 0 1.25 -508.96 106.53)">
   <g id="g14434" clip-path="url(#clipPath14436)">
    <g id="g14440" clip-path="url(#clipPath14442)"></g>
   </g>
  </g>
  <g id="g14448" transform="matrix(1.25 0 0 1.25 -508.96 106.53)"></g>
  <g id="g14452" transform="matrix(1.25 0 0 1.25 -508.96 106.53)">
   <g id="g14454" clip-path="url(#clipPath14456)"></g>
  </g>
  <g id="g14464" transform="matrix(1.25 0 0 1.25 -508.96 106.53)">
   <g id="g14466" clip-path="url(#clipPath14468)">
    <g id="g14472" clip-path="url(#clipPath14474)"></g>
   </g>
  </g>
  <g id="g14480" transform="matrix(1.25 0 0 1.25 -508.96 106.53)"></g>
  <g id="g14484" transform="matrix(1.25 0 0 1.25 -508.96 106.53)">
   <g id="g14486" clip-path="url(#clipPath14488)"></g>
  </g>
  <g id="g14496" transform="matrix(1.25 0 0 1.25 -508.96 106.53)">
   <g id="g14498" clip-path="url(#clipPath14500)">
    <g id="g14504" clip-path="url(#clipPath14506)"></g>
   </g>
  </g>
  <g id="g14512" transform="matrix(1.25 0 0 1.25 -508.96 106.53)"></g>
  <g id="g14516" transform="matrix(1.25 0 0 1.25 -508.96 106.53)">
   <g id="g14518" clip-path="url(#clipPath14520)"></g>
  </g>
  <g id="g14528" transform="matrix(1.25 0 0 1.25 -508.96 106.53)">
   <g id="g14530" clip-path="url(#clipPath14532)">
    <g id="g14536" clip-path="url(#clipPath14538)"></g>
   </g>
  </g>
  <g id="g14544" transform="matrix(1.25 0 0 1.25 -508.96 106.53)"></g>
  <g id="g14548" transform="matrix(1.25 0 0 1.25 -508.96 106.53)">
   <g id="g14550" clip-path="url(#clipPath14552)"></g>
  </g>
  <g id="g14560" transform="matrix(1.25 0 0 1.25 -508.96 106.53)">
   <g id="g14562" clip-path="url(#clipPath14564)">
    <g id="g14568" clip-path="url(#clipPath14570)"></g>
   </g>
  </g>
  <g id="g14576" transform="matrix(1.25 0 0 1.25 -508.96 106.53)"></g>
  <g id="g14580" transform="matrix(1.25 0 0 1.25 -508.96 106.53)">
   <g id="g14582" clip-path="url(#clipPath14584)"></g>
  </g>
  <g id="g14592" transform="matrix(1.25 0 0 1.25 -508.96 106.53)">
   <g id="g14594" clip-path="url(#clipPath14596)">
    <g id="g14600" clip-path="url(#clipPath14602)"></g>
   </g>
  </g>
  <g id="g14608" transform="matrix(1.25 0 0 1.25 -508.96 106.53)"></g>
  <g id="g14612" transform="matrix(1.25 0 0 1.25 -508.96 106.53)">
   <g id="g14614" clip-path="url(#clipPath14616)"></g>
  </g>
  <g id="g14624" transform="matrix(1.25 0 0 1.25 -508.96 106.53)">
   <g id="g14626" clip-path="url(#clipPath14628)">
    <g id="g14632" clip-path="url(#clipPath14634)"></g>
   </g>
  </g>
  <g id="g14640" transform="matrix(1.25 0 0 1.25 -508.96 106.53)"></g>
  <g id="g14644" transform="matrix(1.25 0 0 1.25 -508.96 106.53)">
   <g id="g14646" clip-path="url(#clipPath14648)"></g>
  </g>
  <g id="g14656" transform="matrix(1.25 0 0 1.25 -508.96 106.53)">
   <g id="g14658" clip-path="url(#clipPath14660)">
    <g id="g14664" clip-path="url(#clipPath14666)"></g>
   </g>
  </g>
  <g id="g14672" transform="matrix(1.25 0 0 1.25 -508.96 106.53)">
   <g id="g14674" clip-path="url(#clipPath14676)">
    <g id="g14680" clip-path="url(#clipPath14682)">
     <g id="g14686" clip-path="url(#clipPath14688)">
      <g id="g14694" transform="translate(.5 .5)">
       <path id="path14696" d="m353 138.96v-13.96 0.54" stroke="#000" stroke-miterlimit="10" fill="none"/>
      </g>
      <g id="g14698">
       <path id="path14700" d="m353.5 122.26 2.52 5.04-2.52-1.26-2.52 1.26 2.52-5.04z"/>
      </g>
      <g id="g14702" transform="translate(.5 .5)">
       <path id="path14704" d="m353 121.76 2.52 5.04l-2.52-1.26-2.52 1.26 2.52-5.04z" stroke="#000" stroke-miterlimit="10" fill="none"/>
      </g>
      <g id="g14710">
       <path id="path14712" d="m334.94 139.46h36.72c1.7894 0 3.24 1.4506 3.24 3.24v15.12c0 1.7894-1.4506 3.24-3.24 3.24h-36.72c-1.7894 0-3.24-1.4506-3.24-3.24v-15.12c0-1.7894 1.4506-3.24 3.24-3.24z" fill="#fff"/>
      </g>
      <g id="g14714" transform="translate(.5 .5)">
       <path id="path14716" d="m334.44 138.96h36.72c1.7894 0 3.24 1.4506 3.24 3.24v15.12c0 1.7894-1.4506 3.24-3.24 3.24h-36.72c-1.7894 0-3.24-1.4506-3.24-3.24v-15.12c0-1.7894 1.4506-3.24 3.24-3.24z" stroke="#000" stroke-miterlimit="10" fill="none"/>
      </g>
      <g id="g14720" transform="matrix(0.72 0 0 0.72 337 142)"></g>
      <g id="g14724">
       <path id="path14726" d="m338.35 151.81c0.20531 0.32625 0.53438 0.48938 0.98719 0.48938 0.35156 0 0.64054-0.15117 0.86695-0.45352 0.22641-0.30234 0.33961-0.73617 0.33961-1.3015 0-0.57094-0.11672-0.99352-0.35016-1.2677-0.23343-0.27422-0.52171-0.41133-0.86484-0.41133-0.3825 0-0.69258 0.14625-0.93023 0.43875-0.23766 0.2925-0.35649 0.72282-0.35649 1.2909 0 0.48375 0.10266 0.88875 0.30797 1.215zm1.7044-3.3876c0.135 0.0844 0.28828 0.23203 0.45984 0.44296v-2.2823h0.72984v6.2184h-0.68343v-0.6286c-0.17719 0.27844-0.38672 0.47954-0.6286 0.60329-0.24187 0.12375-0.5189 0.18562-0.83109 0.18562-0.50344 0-0.93938-0.21164-1.3078-0.63492-0.36844-0.42328-0.55266-0.98649-0.55266-1.6896 0-0.65813 0.16805-1.2284 0.50414-1.7107 0.33609-0.48235 0.81633-0.72352 1.4407-0.72352 0.34594 0 0.63563 0.0731 0.86907 0.21938zm5.1244-0.0148c0.30094 0.15047 0.53016 0.34523 0.68766 0.5843 0.15187 0.22781 0.25312 0.49359 0.30375 0.79734 0.045 0.20813 0.0675 0.54 0.0675 0.99563h-3.3117c0.0141 0.45843 0.12234 0.82617 0.32484 1.1032s0.51609 0.41555 0.94078 0.41555c0.39656 0 0.71297-0.13079 0.94922-0.39235 0.135-0.15187 0.23063-0.32765 0.28688-0.52734h0.74671c-0.0197 0.16594-0.0851 0.35086-0.19617 0.55476-0.11109 0.20391-0.23554 0.37055-0.37336 0.49993-0.23062 0.225-0.51609 0.37687-0.8564 0.45562-0.18282 0.045-0.38953 0.0675-0.62016 0.0675-0.5625 0-1.0392-0.20461-1.4302-0.61383-0.39094-0.40922-0.58641-0.98226-0.58641-1.7191 0-0.72562 0.19687-1.3148 0.59062-1.7676 0.39375-0.45282 0.90844-0.67922 1.5441-0.67922 0.32062 0 0.6314 0.0752 0.93234 0.2257zm0.27844 1.774c-0.0309-0.32906-0.10266-0.59203-0.21516-0.7889-0.20812-0.36563-0.55547-0.54844-1.042-0.54844-0.34875 0-0.64125 0.12586-0.8775 0.37758s-0.36141 0.57164-0.37547 0.95976h2.5102zm2.0826-1.8984 1.2066 3.6788 1.2614-3.6788h0.8311l-1.7044 4.5183h-0.81l-1.6664-4.5183h0.88172zm6.7627 0.12445c0.30094 0.15047 0.53016 0.34523 0.68766 0.5843 0.15187 0.22781 0.25312 0.49359 0.30375 0.79734 0.045 0.20813 0.0675 0.54 0.0675 0.99563h-3.3117c0.0141 0.45843 0.12234 0.82617 0.32484 1.1032s0.51609 0.41555 0.94078 0.41555c0.39656 0 0.71297-0.13079 0.94922-0.39235 0.135-0.15187 0.23063-0.32765 0.28688-0.52734h0.74671c-0.0197 0.16594-0.0851 0.35086-0.19617 0.55476-0.11109 0.20391-0.23554 0.37055-0.37336 0.49993-0.23062 0.225-0.51609 0.37687-0.8564 0.45562-0.18282 0.045-0.38953 0.0675-0.62016 0.0675-0.5625 0-1.0392-0.20461-1.4302-0.61383-0.39093-0.40922-0.5864-0.98226-0.5864-1.7191 0-0.72562 0.19687-1.3148 0.59062-1.7676 0.39375-0.45282 0.90844-0.67922 1.5441-0.67922 0.32062 0 0.6314 0.0752 0.93234 0.2257zm0.27844 1.774c-0.0309-0.32906-0.10266-0.59203-0.21516-0.7889-0.20812-0.36563-0.55547-0.54844-1.042-0.54844-0.34875 0-0.64125 0.12586-0.8775 0.37758s-0.36141 0.57164-0.37547 0.95976h2.5102zm1.7325-3.5775h0.75937v6.1973h-0.75937v-6.1973zm4.7201 5.1363c0.18704-0.38109 0.28055-0.80508 0.28055-1.272 0-0.42188-0.0675-0.765-0.2025-1.0294-0.21375-0.41624-0.58219-0.62437-1.1053-0.62437-0.46406 0-0.80156 0.17719-1.0125 0.53156-0.21094 0.35438-0.31641 0.78188-0.31641 1.2825 0 0.48094 0.10547 0.88172 0.31641 1.2024 0.21094 0.32062 0.54562 0.48093 1.0041 0.48093 0.50344 0 0.84867-0.19054 1.0357-0.57164zm0.4704-3.0059c0.40218 0.38813 0.60328 0.95907 0.60328 1.7128 0 0.72843-0.17719 1.3303-0.53157 1.8056-0.35437 0.47531-0.90421 0.71297-1.6495 0.71297-0.62156 0-1.1152-0.21023-1.4808-0.6307-0.36562-0.42047-0.54844-0.98508-0.54844-1.6938 0-0.75938 0.19266-1.3641 0.57797-1.8141 0.38532-0.45 0.90282-0.675 1.5525-0.675 0.58219 0 1.0744 0.19406 1.4766 0.58218zm4.2954 3.1113c0.23484-0.29672 0.35226-0.74039 0.35226-1.331 0-0.36-0.052-0.66938-0.15609-0.92813-0.19688-0.49781-0.55688-0.74672-1.08-0.74672-0.52594 0-0.88594 0.26297-1.08 0.78891-0.10406 0.28125-0.1561 0.63844-0.1561 1.0716 0 0.34875 0.052 0.64547 0.1561 0.89016 0.19687 0.46687 0.55687 0.70031 1.08 0.70031 0.35437 0 0.64898-0.14836 0.88383-0.44508zm-2.8498-3.5416h0.73828v0.59906c0.15188-0.20531 0.31781-0.36422 0.49781-0.47672 0.25594-0.16875 0.55688-0.25312 0.90282-0.25312 0.51187 0 0.9464 0.19617 1.3036 0.58852 0.35719 0.39234 0.53578 0.95273 0.53578 1.6812 0 0.98437-0.25734 1.6875-0.77203 2.1094-0.32625 0.26719-0.70594 0.40078-1.1391 0.40078-0.34031 0-0.62578-0.0745-0.85641-0.22359-0.135-0.0844-0.28547-0.22922-0.4514-0.43453v2.3076h-0.75938v-6.2986z"/>
      </g>
      <g id="g14728" transform="matrix(0.72 0 0 0.72 337 142)"></g>
      <g id="g14734" transform="translate(.5 .5)">
       <path id="path14736" d="m353 174.96v-13.96 14-9.86" stroke="#000" stroke-miterlimit="10" fill="none"/>
      </g>
      <g id="g14738">
       <path id="path14740" d="m353.5 161.86 2.52 5.04l-2.52-1.26-2.52 1.26 2.52-5.04z"/>
      </g>
      <g id="g14742" transform="translate(.5 .5)">
       <path id="path14744" d="m353 161.36 2.52 5.04l-2.52-1.26-2.52 1.26 2.52-5.04z" stroke="#000" stroke-miterlimit="10" fill="none"/>
      </g>
      <g id="g14750">
       <path id="path14752" d="m371.66 197.06h-36.72c-1.7894 0-3.24-1.4506-3.24-3.24v-15.12c0-1.7894 1.4506-3.24 3.24-3.24h36.72c1.7894 0 3.24 1.4506 3.24 3.24v15.12c0 1.7894-1.4506 3.24-3.24 3.24z" fill="#fff"/>
      </g>
      <g id="g14754" transform="matrix(-1 0 0 -1 706.1 372.02)">
       <path id="path14756" d="m334.44 174.96h36.72c1.7894 0 3.24 1.4506 3.24 3.24v15.12c0 1.7894-1.4506 3.24-3.24 3.24h-36.72c-1.7894 0-3.24-1.4506-3.24-3.24v-15.12c0-1.7894 1.4506-3.24 3.24-3.24z" stroke="#000" stroke-miterlimit="10" fill="none"/>
      </g>
      <g id="g14762" transform="matrix(0.72 0 0 0.72 340 178)"></g>
      <g id="g14766">
       <path id="path14768" d="m341.4 182.6h0.84797v2.5608h3.2231v-2.5608h0.84797v6.1973h-0.84797v-2.8983h-3.2231v2.8983h-0.84797v-6.1973zm6.2916 0h4.5183v0.75937h-3.6998v1.8816h3.4214v0.71719h-3.4214v2.1009h3.7631v0.73828h-4.5816v-6.1973zm8.8608 3.6576-0.94078-2.738-0.99984 2.738h1.9406zm-1.3795-3.6576h0.94922l2.2486 6.1973h-0.91969l-0.62859-1.8562h-2.4511l-0.67078 1.8562h-0.86063l2.333-6.1973zm6.338 5.4802c0.28406 0 0.5175-0.0295 0.70031-0.0886 0.32625-0.10969 0.59344-0.32063 0.80156-0.63281 0.16594-0.25032 0.28547-0.57094 0.3586-0.96188 0.0422-0.23344 0.0633-0.45 0.0633-0.64969 0-0.76781-0.15258-1.3641-0.45774-1.7888-0.30515-0.42468-0.79664-0.63703-1.4744-0.63703h-1.4892v4.7588h1.4977zm-2.3414-5.4802h2.5102c0.85219 0 1.5131 0.30234 1.9828 0.90703 0.41906 0.54562 0.62859 1.2445 0.62859 2.0967 0 0.65813-0.12375 1.253-0.37125 1.7845-0.43593 0.93937-1.1855 1.4091-2.2486 1.4091h-2.5017v-6.1973z"/>
      </g>
      <g id="g14770" transform="matrix(0.72 0 0 0.72 340 178)"></g>
      <g id="g14778">
       <path id="path14780" d="m40.82 92.66h56.16c2.3859 0 4.32 1.9341 4.32 4.32v20.16c0 2.3859-1.9341 4.32-4.32 4.32h-56.16c-2.3859 0-4.32-1.9341-4.32-4.32v-20.16c0-2.3859 1.9341-4.32 4.32-4.32z" fill="#fff"/>
      </g>
      <g id="g14782" transform="translate(.5 .5)">
       <path id="path14784" d="m40.32 92.16h56.16c2.3859 0 4.32 1.9341 4.32 4.32v20.16c0 2.3859-1.9341 4.32-4.32 4.32h-56.16c-2.3859 0-4.32-1.9341-4.32-4.32v-20.16c0-2.3859 1.9341-4.32 4.32-4.32z" stroke="#000" stroke-miterlimit="10" fill="none"/>
      </g>
      <g id="g14788" transform="matrix(0.72 0 0 0.72 62 100)"></g>
      <g id="g14792">
       <path id="path14794" d="m62.923 108.21h1.1021v1.1496h-1.1021v-1.1496zm2.9925 0h1.1021v1.1496h-1.1021v-1.1496zm2.9925 0h1.1021v1.1496h-1.1021v-1.1496zm2.9925 0h1.1021v1.1496h-1.1021v-1.1496z"/>
      </g>
      <g id="g14796" transform="matrix(0.72 0 0 0.72 62 100)"></g>
      <g id="g14802" transform="translate(.5 .5)">
       <path id="path14804" d="m84.96 120.96-0.21-0.21" stroke="#000" stroke-miterlimit="10" fill="none"/>
      </g>
      <g id="g14806">
       <path id="path14808" d="m85.46 121.46-0.42-0.14 0.21-0.07 0.07-0.21 0.14 0.42z"/>
      </g>
      <g id="g14816" transform="translate(.5 .5)">
       <path id="path14818" d="m129.6 106.56h-24.22" stroke="#000" stroke-miterlimit="10" fill="none"/>
      </g>
      <g id="g14820">
       <path id="path14822" d="m102.1 107.06 5.04-2.52-1.26 2.52 1.26 2.52-5.04-2.52z"/>
      </g>
      <g id="g14824" transform="translate(.5 .5)">
       <path id="path14826" d="m101.6 106.56 5.04-2.52-1.26 2.52 1.26 2.52-5.04-2.52z" stroke="#000" stroke-miterlimit="10" fill="none"/>
      </g>
      <g id="g14832">
       <path id="path14834" d="m134.42 92.66h56.16c2.3859 0 4.32 1.9341 4.32 4.32v20.16c0 2.3859-1.9341 4.32-4.32 4.32h-56.16c-2.3859 0-4.32-1.9341-4.32-4.32v-20.16c0-2.3859 1.9341-4.32 4.32-4.32z" fill="#fff"/>
      </g>
      <g id="g14836" transform="translate(.5 .5)">
       <path id="path14838" d="m133.92 92.16h56.16c2.3859 0 4.32 1.9341 4.32 4.32v20.16c0 2.3859-1.9341 4.32-4.32 4.32h-56.16c-2.3859 0-4.32-1.9341-4.32-4.32v-20.16c0-2.3859 1.9341-4.32 4.32-4.32z" stroke="#000" stroke-miterlimit="10" fill="none"/>
      </g>
      <g id="g14842" transform="matrix(0.72 0 0 0.72 138 100)"></g>
      <g id="g14846">
       <path id="path14848" d="m143.15 104.01c0.39902 0.30938 0.63896 0.842 0.71982 1.5979h-0.92285c-0.0563-0.34805-0.18457-0.63721-0.38496-0.86748-0.20039-0.23028-0.52207-0.34541-0.96504-0.34541-0.60469 0-1.0371 0.29531-1.2973 0.88593-0.16875 0.3832-0.25313 0.85606-0.25313 1.4186 0 0.56601 0.11953 1.0424 0.3586 1.4291 0.23906 0.38672 0.61523 0.58008 1.1285 0.58008 0.39375 0 0.70576-0.12041 0.93604-0.36123 0.23027-0.24082 0.38935-0.57041 0.47724-0.98877h0.92285c-0.10546 0.74882-0.36914 1.2964-0.79101 1.6427-0.42188 0.34629-0.96153 0.51944-1.619 0.51944-0.73828 0-1.3272-0.26983-1.7666-0.80948-0.43945-0.53965-0.65918-1.2138-0.65918-2.0224 0-0.99141 0.24082-1.7631 0.72246-2.315 0.48164-0.55195 1.0951-0.82793 1.8404-0.82793 0.63633 0 1.154 0.15469 1.553 0.46406zm2.0065 0v-0.72773c0.68555-0.0668 1.1637-0.17842 1.4344-0.33486 0.2707-0.15645 0.47285-0.52647 0.60644-1.1101h0.74883v7.5199h-1.0125v-5.3473h-1.7772zm10.004-0.99668c0.3375 0.62227 0.50625 1.4748 0.50625 2.5576 0 1.0266-0.15293 1.8756-0.45878 2.5471-0.44297 0.96328-1.1672 1.4449-2.1727 1.4449-0.90703 0-1.582-0.39375-2.025-1.1812-0.36914-0.65742-0.55371-1.5398-0.55371-2.6473 0-0.85782 0.11074-1.5943 0.33223-2.2096 0.41484-1.1461 1.1654-1.7191 2.2518-1.7191 0.97735 0 1.684 0.40254 2.1199 1.2076zm-0.95449 5.0309c0.2918-0.43593 0.4377-1.248 0.4377-2.4363 0-0.85782-0.10547-1.5636-0.31641-2.1173-0.21094-0.55371-0.62051-0.83057-1.2287-0.83057-0.55898 0-0.96768 0.2628-1.2261 0.78838-0.2584 0.52559-0.3876 1.2999-0.3876 2.323 0 0.76992 0.0826 1.3887 0.24785 1.8562 0.25313 0.71367 0.68555 1.0705 1.2973 1.0705 0.49218 0 0.88418-0.21797 1.176-0.65391zm6.9507-5.0309c0.33751 0.62227 0.50625 1.4748 0.50625 2.5576 0 1.0266-0.15293 1.8756-0.45878 2.5471-0.44297 0.96328-1.1672 1.4449-2.1727 1.4449-0.90703 0-1.582-0.39375-2.025-1.1812-0.36914-0.65742-0.55371-1.5398-0.55371-2.6473 0-0.85782 0.11074-1.5943 0.33222-2.2096 0.41485-1.1461 1.1654-1.7191 2.2518-1.7191 0.97735 0 1.684 0.40254 2.1199 1.2076zm-0.95449 5.0309c0.2918-0.43593 0.4377-1.248 0.4377-2.4363 0-0.85782-0.10547-1.5636-0.31641-2.1173-0.21094-0.55371-0.62051-0.83057-1.2287-0.83057-0.55898 0-0.96768 0.2628-1.2261 0.78838-0.2584 0.52559-0.3876 1.2999-0.3876 2.323 0 0.76992 0.0826 1.3887 0.24785 1.8562 0.25313 0.71367 0.68555 1.0705 1.2973 1.0705 0.49218 0 0.88418-0.21797 1.176-0.65391zm6.8321-5.6136c0.33223 0.43769 0.49834 0.88857 0.49834 1.3526h-0.93867c-0.0563-0.29883-0.1459-0.53262-0.26894-0.70137-0.22852-0.31641-0.57481-0.47461-1.0389-0.47461-0.53086 0-0.95274 0.24521-1.2656 0.73564-0.31289 0.49043-0.48691 1.1927-0.52207 2.1067 0.21797-0.31992 0.49219-0.55898 0.82266-0.71718 0.30234-0.14063 0.63984-0.21094 1.0125-0.21094 0.63281 0 1.1848 0.20215 1.6559 0.60644 0.47109 0.4043 0.70664 1.0072 0.70664 1.8088 0 0.68555-0.22324 1.2929-0.66973 1.822-0.44648 0.52911-1.0828 0.79366-1.909 0.79366-0.70664 0-1.3166-0.26807-1.8299-0.8042-0.51328-0.53614-0.76992-1.4388-0.76992-2.7079 0-0.93868 0.11426-1.735 0.34278-2.3889 0.43945-1.2516 1.2428-1.8773 2.41-1.8773 0.84375 0 1.4317 0.21884 1.764 0.65654zm-0.71191 5.7744c0.24785-0.33574 0.37177-0.73213 0.37177-1.1892 0-0.38672-0.11074-0.75498-0.33222-1.1048-0.22149-0.34981-0.62403-0.52471-1.2076-0.52471-0.40781 0-0.76553 0.13535-1.0731 0.40606-0.30762 0.2707-0.46143 0.67851-0.46143 1.2234 0 0.47813 0.13975 0.87979 0.41924 1.205 0.27949 0.3252 0.66709 0.4878 1.1628 0.4878 0.49922 0 0.87276-0.16787 1.1206-0.50362zm2.5263-0.5458c0.23378-0.48164 0.68994-0.91933 1.3684-1.3131l1.0125-0.58535c0.45352-0.26368 0.77168-0.48868 0.95449-0.675 0.28829-0.2918 0.43243-0.62579 0.43243-1.002 0-0.43945-0.13184-0.78838-0.39551-1.0468-0.26367-0.25839-0.61524-0.38759-1.0547-0.38759-0.65039 0-1.1004 0.24609-1.35 0.73828-0.13359 0.26367-0.20742 0.6293-0.22148 1.0969h-0.96504c0.0105-0.65742 0.13183-1.1936 0.36387-1.6084 0.41132-0.73124 1.1373-1.0969 2.1779-1.0969 0.86485 0 1.4968 0.23379 1.8958 0.70137 0.39902 0.46758 0.59853 0.98789 0.59853 1.5609 0 0.60469-0.21269 1.1215-0.63809 1.5504-0.24609 0.2496-0.6873 0.55195-1.3236 0.90703l-0.72246 0.40078c-0.34453 0.18984-0.61523 0.3709-0.81211 0.54316-0.35156 0.30586-0.57305 0.64512-0.66445 1.0178h4.1238v0.89648h-5.1838c0.0352-0.65039 0.16963-1.2164 0.40342-1.698zm10.903-5.727v0.82793c-0.24258 0.23555-0.56514 0.64512-0.96768 1.2287-0.40254 0.58359-0.75849 1.2129-1.0679 1.8879-0.30586 0.65742-0.53789 1.2568-0.69609 1.7982-0.10195 0.34805-0.23379 0.90879-0.39551 1.6822h-1.0494c0.23906-1.4414 0.7664-2.8758 1.582-4.3031 0.48164-0.83671 0.98789-1.5592 1.5188-2.1674h-4.1766v-0.95449h5.2523zm1.0893 5.727c0.23378-0.48164 0.68994-0.91933 1.3684-1.3131l1.0125-0.58535c0.45352-0.26368 0.77168-0.48868 0.95449-0.675 0.28829-0.2918 0.43243-0.62579 0.43243-1.002 0-0.43945-0.13184-0.78838-0.39551-1.0468-0.26367-0.25839-0.61524-0.38759-1.0547-0.38759-0.65039 0-1.1004 0.24609-1.35 0.73828-0.13359 0.26367-0.20742 0.6293-0.22148 1.0969h-0.96504c0.0105-0.65742 0.13183-1.1936 0.36387-1.6084 0.41132-0.73124 1.1373-1.0969 2.1779-1.0969 0.86485 0 1.4968 0.23379 1.8958 0.70137 0.39903 0.46758 0.59854 0.98789 0.59854 1.5609 0 0.60469-0.2127 1.1215-0.63809 1.5504-0.24609 0.2496-0.6873 0.55195-1.3236 0.90703l-0.72246 0.40078c-0.34453 0.18984-0.61523 0.3709-0.81211 0.54316-0.35156 0.30586-0.57305 0.64512-0.66445 1.0178h4.1238v0.89648h-5.1838c0.0351-0.65039 0.16963-1.2164 0.40342-1.698z"/>
      </g>
      <g id="g14850" transform="matrix(0.72 0 0 0.72 138 100)"></g>
      <g id="g14856" transform="translate(.5 .5)">
       <path id="path14858" d="m223.2 106.56h-24.22" stroke="#000" stroke-miterlimit="10" fill="none"/>
      </g>
      <g id="g14860">
       <path id="path14862" d="m195.7 107.06 5.04-2.52-1.26 2.52 1.26 2.52-5.04-2.52z"/>
      </g>
      <g id="g14864" transform="translate(.5 .5)">
       <path id="path14866" d="m195.2 106.56 5.04-2.52-1.26 2.52 1.26 2.52-5.04-2.52z" stroke="#000" stroke-miterlimit="10" fill="none"/>
      </g>
      <g id="g14872">
       <path id="path14874" d="m228.02 92.66h56.16c2.3859 0 4.32 1.9341 4.32 4.32v20.16c0 2.3859-1.9341 4.32-4.32 4.32h-56.16c-2.3859 0-4.32-1.9341-4.32-4.32v-20.16c0-2.3859 1.9341-4.32 4.32-4.32z" fill="#fff"/>
      </g>
      <g id="g14876" transform="translate(.5 .5)">
       <path id="path14878" d="m227.52 92.16h56.16c2.3859 0 4.32 1.9341 4.32 4.32v20.16c0 2.3859-1.9341 4.32-4.32 4.32h-56.16c-2.3859 0-4.32-1.9341-4.32-4.32v-20.16c0-2.3859 1.9341-4.32 4.32-4.32z" stroke="#000" stroke-miterlimit="10" fill="none"/>
      </g>
      <g id="g14882" transform="matrix(0.72 0 0 0.72 232 100)"></g>
      <g id="g14886">
       <path id="path14888" d="m237.04 103.02c0.3375 0.62227 0.50625 1.4748 0.50625 2.5576 0 1.0266-0.15293 1.8756-0.45879 2.5471-0.44297 0.96328-1.1672 1.4449-2.1727 1.4449-0.90703 0-1.582-0.39375-2.025-1.1812-0.36914-0.65742-0.55371-1.5398-0.55371-2.6473 0-0.85782 0.11074-1.5943 0.33223-2.2096 0.41484-1.1461 1.1654-1.7191 2.2518-1.7191 0.97735 0 1.684 0.40254 2.1199 1.2076zm-0.9545 5.0309c0.2918-0.43593 0.4377-1.248 0.4377-2.4363 0-0.85782-0.10547-1.5636-0.31641-2.1173-0.21094-0.55371-0.62051-0.83057-1.2287-0.83057-0.55898 0-0.96767 0.2628-1.2261 0.78838-0.2584 0.52559-0.3876 1.2999-0.3876 2.323 0 0.76992 0.0826 1.3887 0.24785 1.8562 0.25313 0.71367 0.68555 1.0705 1.2973 1.0705 0.49218 0 0.88418-0.21797 1.176-0.65391zm7.5572-6.1119v0.82793c-0.24258 0.23555-0.56514 0.64512-0.96768 1.2287-0.40253 0.58359-0.75849 1.2129-1.0679 1.8879-0.30586 0.65742-0.53789 1.2568-0.69609 1.7982-0.10195 0.34805-0.23379 0.90879-0.39551 1.6822h-1.0494c0.23906-1.4414 0.7664-2.8758 1.582-4.3031 0.48164-0.83671 0.98789-1.5592 1.5188-2.1674h-4.1766v-0.95449h5.2523zm4.5619 1.9327c0.37618 0.18809 0.6627 0.43155 0.85958 0.73037 0.18984 0.28477 0.3164 0.617 0.37968 0.99669 0.0562 0.26015 0.0844 0.675 0.0844 1.2445h-4.1396c0.0176 0.57304 0.15293 1.0327 0.40605 1.379 0.25313 0.34629 0.64512 0.51943 1.176 0.51943 0.4957 0 0.89121-0.16347 1.1865-0.49043 0.16875-0.18984 0.28829-0.40957 0.3586-0.65918h0.9334c-0.0246 0.20743-0.10635 0.43858-0.24522 0.69346s-0.29443 0.46319-0.4667 0.6249c-0.28828 0.28125-0.64512 0.4711-1.0705 0.56954-0.22851 0.0562-0.48691 0.0844-0.77519 0.0844-0.70313 0-1.299-0.25576-1.7877-0.76728-0.48867-0.51153-0.733-1.2278-0.733-2.1489 0-0.90703 0.24609-1.6436 0.73828-2.2096 0.49218-0.56602 1.1355-0.84903 1.9301-0.84903 0.40078 0 0.78925 0.0941 1.1654 0.28213zm0.34805 2.2175c-0.0387-0.41133-0.12832-0.74004-0.26894-0.98614-0.26016-0.45703-0.69434-0.68554-1.3025-0.68554-0.43594 0-0.80157 0.15732-1.0969 0.47197-0.29531 0.31465-0.45176 0.71455-0.46933 1.1997h3.1377zm5.3529-1.4634c0.23555-0.23379 0.35332-0.51241 0.35332-0.83584 0-0.28125-0.1125-0.53965-0.3375-0.7752s-0.56777-0.35332-1.0283-0.35332c-0.45703 0-0.7875 0.11777-0.9914 0.35332-0.20391 0.23555-0.30586 0.51152-0.30586 0.82793 0 0.35508 0.13183 0.63281 0.3955 0.8332 0.26368 0.20039 0.57481 0.30059 0.9334 0.30059 0.41836 0 0.74532-0.1169 0.98086-0.35068zm0.17139 3.7336c0.29004-0.2373 0.43506-0.5915 0.43506-1.0626 0-0.48867-0.14942-0.85957-0.44824-1.1127-0.29883-0.25313-0.68204-0.37969-1.1496-0.37969-0.45352 0-0.82354 0.1292-1.1101 0.3876-0.28653 0.2584-0.42979 0.61611-0.42979 1.0731 0 0.39375 0.13096 0.73389 0.39287 1.0204 0.26192 0.28653 0.66709 0.42979 1.2155 0.42979 0.43945 0 0.8042-0.11866 1.0942-0.35596zm-3.0612-3.4146c-0.27774-0.28125-0.4166-0.64688-0.4166-1.0969 0-0.5625 0.2039-1.0459 0.61172-1.4502 0.40781-0.4043 0.98613-0.60645 1.735-0.60645 0.72422 0 1.292 0.19073 1.7033 0.57217 0.41132 0.38145 0.61699 0.82705 0.61699 1.3368 0 0.47109-0.11953 0.85254-0.35859 1.1443-0.1336 0.16524-0.34102 0.32696-0.62227 0.48516 0.31289 0.14414 0.55898 0.30937 0.73828 0.4957 0.33399 0.35156 0.50098 0.8086 0.50098 1.3711 0 0.66445-0.22324 1.2278-0.66973 1.6901-0.44648 0.46231-1.0775 0.69346-1.8932 0.69346-0.73477 0-1.3562-0.19951-1.8642-0.59853-0.50801-0.39903-0.76201-0.97823-0.76201-1.7376 0-0.44649 0.10898-0.83233 0.32695-1.1575 0.21797-0.3252 0.5414-0.57393 0.97031-0.74619-0.26367-0.1125-0.46934-0.24434-0.61699-0.39551zm6.107-2.9531c0.22149-0.32343 0.64863-0.48515 1.2814-0.48515 0.0598 0 0.12128 0.002 0.18457 0.005 0.0633 0.004 0.13535 0.009 0.21621 0.0158v0.86484c-0.0984-0.007-0.16963-0.0114-0.21358-0.0132-0.0439-0.002-0.0853-0.003-0.12392-0.003-0.28828 0-0.46055 0.0747-0.5168 0.22413-0.0563 0.14941-0.0844 0.52998-0.0844 1.1417h0.93867v0.74882h-0.94922v4.8727h-0.93867v-4.8727h-0.78575v-0.74882h0.78575v-0.88594c0.0141-0.39375 0.0826-0.68203 0.20566-0.86485zm2.7156 6.8423c-0.40253-0.49043-0.6038-1.0872-0.6038-1.7903h0.9914c0.0422 0.48867 0.1336 0.84375 0.27422 1.0652 0.24609 0.39727 0.69082 0.5959 1.3342 0.5959 0.49922 0 0.9-0.13359 1.2023-0.40078 0.30235-0.26719 0.45352-0.61172 0.45352-1.0336 0-0.52031-0.15908-0.88417-0.47725-1.0916-0.31816-0.20742-0.76025-0.31113-1.3263-0.31113-0.0633 0-0.12744 0.00088-0.19248 0.003-0.065 0.002-0.13095 0.004-0.19775 0.008v-0.83848c0.0984 0.0105 0.18105 0.0176 0.24785 0.0211 0.0668 0.004 0.13887 0.005 0.21621 0.005 0.35508 0 0.64688-0.0563 0.87539-0.16875 0.40078-0.19688 0.60118-0.54844 0.60118-1.0547 0-0.37617-0.1336-0.66621-0.40079-0.87012-0.26718-0.2039-0.57832-0.30586-0.93339-0.30586-0.63282 0-1.0705 0.21094-1.3131 0.63282-0.13359 0.23203-0.20918 0.5625-0.22676 0.9914h-0.93867c0-0.5625 0.1125-1.0406 0.3375-1.4344 0.38672-0.70313 1.067-1.0547 2.0408-1.0547 0.76992 0 1.3658 0.17139 1.7877 0.51416 0.42187 0.34277 0.63281 0.83936 0.63281 1.4898 0 0.46406-0.12481 0.84023-0.37442 1.1285-0.15468 0.1793-0.35507 0.31992-0.60117 0.42188 0.39727 0.10898 0.70752 0.31904 0.93076 0.63017 0.22325 0.31114 0.33487 0.6917 0.33487 1.1417 0 0.72071-0.23731 1.3078-0.71192 1.7613-0.47461 0.45351-1.1478 0.68027-2.0197 0.68027-0.89297 0-1.5407-0.24521-1.9433-0.73564zm5.875-1.1681c0.23378-0.48164 0.68994-0.91933 1.3684-1.3131l1.0125-0.58535c0.45352-0.26368 0.77168-0.48868 0.95449-0.675 0.28829-0.2918 0.43243-0.62579 0.43243-1.002 0-0.43945-0.13184-0.78838-0.39551-1.0468-0.26367-0.25839-0.61524-0.38759-1.0547-0.38759-0.65039 0-1.1004 0.24609-1.35 0.73828-0.13359 0.26367-0.20742 0.6293-0.22148 1.0969h-0.96504c0.0105-0.65742 0.13183-1.1936 0.36387-1.6084 0.41132-0.73124 1.1373-1.0969 2.1779-1.0969 0.86485 0 1.4968 0.23379 1.8958 0.70137 0.39902 0.46758 0.59853 0.98789 0.59853 1.5609 0 0.60469-0.21269 1.1215-0.63809 1.5504-0.24609 0.2496-0.6873 0.55195-1.3236 0.90703l-0.72246 0.40078c-0.34453 0.18984-0.61523 0.3709-0.81211 0.54316-0.35156 0.30586-0.57305 0.64512-0.66445 1.0178h4.1238v0.89648h-5.1838c0.0352-0.65039 0.16963-1.2164 0.40342-1.698zm6.9797 0.84375c0.20039 0.15821 0.4377 0.23731 0.71192 0.23731 0.33398 0 0.65742-0.0773 0.97031-0.23203 0.52734-0.25665 0.79101-0.67676 0.79101-1.2604v-0.76464c-0.11601 0.0738-0.26543 0.13535-0.44824 0.18457-0.18281 0.0492-0.36211 0.0844-0.53789 0.10547l-0.5748 0.0738c-0.34454 0.0457-0.60293 0.11778-0.7752 0.21621-0.2918 0.16524-0.43769 0.42891-0.43769 0.79102 0 0.27422 0.10019 0.49043 0.30058 0.64863zm1.9986-2.5682c0.21797-0.0281 0.36387-0.11953 0.4377-0.27422 0.0422-0.0844 0.0633-0.20566 0.0633-0.36387 0-0.32343-0.11514-0.5581-0.34541-0.704s-0.55986-0.21885-0.98877-0.21885c-0.4957 0-0.84726 0.1336-1.0547 0.40078-0.11601 0.14766-0.1916 0.36739-0.22675 0.65918h-0.88594c0.0176-0.69609 0.24346-1.1804 0.67763-1.4528 0.43419-0.27246 0.9378-0.40869 1.5108-0.40869 0.66446 0 1.2041 0.12656 1.619 0.37969 0.41133 0.25312 0.61699 0.64687 0.61699 1.1812v3.2537c0 0.0984 0.0202 0.17754 0.0607 0.2373 0.0404 0.0598 0.12568 0.0896 0.25576 0.0896 0.0422 0 0.0896-0.003 0.14238-0.008 0.0527-0.005 0.10899-0.0132 0.16875-0.0237v0.70137c-0.14766 0.0422-0.26016 0.0686-0.3375 0.0791-0.0773 0.0106-0.18281 0.0158-0.31641 0.0158-0.32695 0-0.56425-0.11602-0.71191-0.34805-0.0773-0.12305-0.13184-0.29707-0.16348-0.52207-0.19336 0.25313-0.47109 0.47285-0.8332 0.65918s-0.76113 0.27949-1.1971 0.27949c-0.52383 0-0.95185-0.15908-1.2841-0.47724-0.33223-0.31817-0.49834-0.71631-0.49834-1.1944 0-0.52383 0.16348-0.92988 0.49043-1.2182 0.32695-0.28828 0.75586-0.46582 1.2867-0.53262l1.5135-0.18984z"/>
      </g>
      <g id="g14890" transform="matrix(0.72 0 0 0.72 232 100)"></g>
      <g id="g14896" transform="translate(.5 .5)">
       <path id="path14898" d="m320.4 106.56h-27.82" stroke="#000" stroke-miterlimit="10" fill="none"/>
      </g>
      <g id="g14900">
       <path id="path14902" d="m289.3 107.06 5.04-2.52-1.26 2.52 1.26 2.52-5.04-2.52z"/>
      </g>
      <g id="g14904" transform="translate(.5 .5)">
       <path id="path14906" d="m288.8 106.56 5.04-2.52-1.26 2.52 1.26 2.52-5.04-2.52z" stroke="#000" stroke-miterlimit="10" fill="none"/>
      </g>
      <g id="g14912">
       <path id="path14914" d="m325.22 92.66h56.16c2.3859 0 4.32 1.9341 4.32 4.32v20.16c0 2.3859-1.9341 4.32-4.32 4.32h-56.16c-2.3859 0-4.32-1.9341-4.32-4.32v-20.16c0-2.3859 1.9342-4.32 4.32-4.32z" fill="#fff"/>
      </g>
      <g id="g14916" transform="translate(.5 .5)">
       <path id="path14918" d="m324.72 92.16h56.16c2.3859 0 4.32 1.9341 4.32 4.32v20.16c0 2.3859-1.9341 4.32-4.32 4.32h-56.16c-2.3859 0-4.32-1.9341-4.32-4.32v-20.16c0-2.3859 1.9342-4.32 4.32-4.32z" stroke="#000" stroke-miterlimit="10" fill="none"/>
      </g>
      <g id="g14922" transform="matrix(0.72 0 0 0.72 328 100)"></g>
      <g id="g14926">
       <path id="path14928" d="m328.62 101.59h0.92285v2.8108c0.20742-0.27071 0.45527-0.47725 0.74355-0.61963 0.28828-0.14239 0.60117-0.21358 0.93867-0.21358 0.70313 0 1.2735 0.2417 1.7112 0.7251s0.65655 1.1962 0.65655 2.1384c0 0.89297-0.21621 1.6348-0.64864 2.2254-0.43242 0.59062-1.0318 0.88594-1.7982 0.88594-0.42891 0-0.79101-0.10371-1.0863-0.31114-0.17578-0.12304-0.36386-0.31992-0.56425-0.59062v0.72246h-0.87539v-7.773zm3.6202 6.5022c0.25488-0.40781 0.38232-0.9457 0.38232-1.6137 0-0.59414-0.12744-1.0863-0.38232-1.4766-0.25488-0.39024-0.63018-0.58535-1.1259-0.58535-0.43242 0-0.81123 0.15996-1.1364 0.47988-0.32519 0.31992-0.48779 0.84726-0.48779 1.582 0 0.53086 0.0668 0.96152 0.20039 1.292 0.24961 0.62227 0.71543 0.9334 1.3975 0.9334 0.51328 0 0.89737-0.20391 1.1522-0.61172zm3.4782 0.4166c0.20039 0.15821 0.4377 0.23731 0.71192 0.23731 0.33398 0 0.65742-0.0773 0.97031-0.23203 0.52734-0.25665 0.79101-0.67676 0.79101-1.2604v-0.76464c-0.11601 0.0738-0.26542 0.13535-0.44824 0.18457-0.18281 0.0492-0.36211 0.0844-0.53789 0.10547l-0.5748 0.0738c-0.34453 0.0457-0.60293 0.11778-0.7752 0.21621-0.29179 0.16524-0.43769 0.42891-0.43769 0.79102 0 0.27422 0.10019 0.49043 0.30058 0.64863zm1.9986-2.5682c0.21796-0.0281 0.36386-0.11953 0.43769-0.27422 0.0422-0.0844 0.0633-0.20566 0.0633-0.36387 0-0.32343-0.11513-0.5581-0.34541-0.704-0.23027-0.1459-0.55986-0.21885-0.98877-0.21885-0.4957 0-0.84726 0.1336-1.0547 0.40078-0.11601 0.14766-0.1916 0.36739-0.22675 0.65918h-0.88594c0.0176-0.69609 0.24346-1.1804 0.67764-1.4528 0.43418-0.27246 0.93779-0.40869 1.5108-0.40869 0.66445 0 1.2041 0.12656 1.6189 0.37969 0.41133 0.25312 0.61699 0.64687 0.61699 1.1812v3.2537c0 0.0984 0.0202 0.17754 0.0607 0.2373 0.0404 0.0598 0.12568 0.0896 0.25576 0.0896 0.0422 0 0.0897-0.003 0.14238-0.008 0.0527-0.005 0.10899-0.0132 0.16875-0.0237v0.70137c-0.14765 0.0422-0.26015 0.0686-0.3375 0.0791-0.0773 0.0106-0.18281 0.0158-0.3164 0.0158-0.32696 0-0.56426-0.11602-0.71192-0.34805-0.0773-0.12305-0.13183-0.29707-0.16347-0.52207-0.19336 0.25313-0.4711 0.47285-0.83321 0.65918s-0.76113 0.27949-1.1971 0.27949c-0.52382 0-0.95185-0.15908-1.2841-0.47724-0.33223-0.31817-0.49834-0.71631-0.49834-1.1944 0-0.52383 0.16348-0.92988 0.49043-1.2182 0.32695-0.28828 0.75586-0.46582 1.2867-0.53262l1.5135-0.18984zm7.921-4.0025v0.82793c-0.24258 0.23555-0.56514 0.64512-0.96767 1.2287-0.40254 0.58359-0.7585 1.2129-1.0679 1.8879-0.30586 0.65742-0.53789 1.2568-0.69609 1.7982-0.10195 0.34805-0.23379 0.90879-0.39551 1.6822h-1.0494c0.23906-1.4414 0.7664-2.8758 1.582-4.3031 0.48164-0.83671 0.98789-1.5592 1.5188-2.1674h-4.1766v-0.95449h5.2523zm5.3898 1.081c0.33751 0.62227 0.50625 1.4748 0.50625 2.5576 0 1.0266-0.15293 1.8756-0.45878 2.5471-0.44297 0.96328-1.1672 1.4449-2.1727 1.4449-0.90703 0-1.582-0.39375-2.025-1.1812-0.36914-0.65742-0.55371-1.5398-0.55371-2.6473 0-0.85782 0.11074-1.5943 0.33222-2.2096 0.41485-1.1461 1.1654-1.7191 2.2518-1.7191 0.97735 0 1.684 0.40254 2.1199 1.2076zm-0.95449 5.0309c0.2918-0.43593 0.4377-1.248 0.4377-2.4363 0-0.85782-0.10547-1.5636-0.31641-2.1173-0.21094-0.55371-0.62051-0.83057-1.2287-0.83057-0.55898 0-0.96768 0.2628-1.2261 0.78838-0.2584 0.52559-0.3876 1.2999-0.3876 2.323 0 0.76992 0.0826 1.3887 0.24785 1.8562 0.25313 0.71367 0.68555 1.0705 1.2973 1.0705 0.49218 0 0.88418-0.21797 1.176-0.65391zm3.2435-0.61172c0.0633 0.54141 0.31465 0.91583 0.7541 1.1232 0.225 0.10547 0.48516 0.1582 0.78047 0.1582 0.5625 0 0.9791-0.1793 1.2498-0.53789 0.27071-0.35859 0.40606-0.75586 0.40606-1.1918 0-0.52734-0.16084-0.93515-0.48252-1.2234-0.32168-0.28829-0.70752-0.43243-1.1575-0.43243-0.32695 0-0.60733 0.0633-0.84112 0.18985-0.23378 0.12656-0.4333 0.30234-0.59853 0.52734l-0.82266-0.0475 0.57481-4.0658h3.9234v0.91758h-3.2115l-0.32168 2.0988c0.17578-0.1336 0.34278-0.23379 0.50098-0.30059 0.28125-0.11602 0.60645-0.17402 0.97559-0.17402 0.69257 0 1.2797 0.22324 1.7613 0.66972 0.48164 0.44649 0.72246 1.0125 0.72246 1.698 0 0.71367-0.2206 1.343-0.66181 1.8879-0.44121 0.54492-1.1452 0.81738-2.112 0.81738-0.61524 0-1.1593-0.17314-1.6321-0.51943-0.47285-0.34629-0.73741-0.87803-0.79366-1.5952h0.98614zm6.0964 0.1002c0.0281 0.52383 0.23028 0.88594 0.60645 1.0863 0.19336 0.10547 0.41133 0.1582 0.6539 0.1582 0.45352 0 0.84024-0.18896 1.1602-0.56689 0.31992-0.37793 0.54668-1.1452 0.68027-2.3019-0.21093 0.33399-0.47197 0.56865-0.7831 0.704-0.31113 0.13536-0.646 0.20303-1.0046 0.20303-0.72774 0-1.3034-0.22675-1.727-0.68027-0.42363-0.45352-0.63545-1.0371-0.63545-1.7508 0-0.68555 0.20918-1.2885 0.62754-1.8088 0.41836-0.52031 1.0354-0.78047 1.851-0.78047 1.1004 0 1.8598 0.4957 2.2781 1.4871 0.23203 0.54492 0.34805 1.227 0.34805 2.0461 0 0.92461-0.13887 1.7438-0.4166 2.4574-0.46055 1.1883-1.241 1.7824-2.3414 1.7824-0.73828 0-1.299-0.19336-1.6822-0.58008s-0.5748-0.87188-0.5748-1.4555h0.95976zm2.4706-1.9222c0.31113-0.24785 0.4667-0.68115 0.4667-1.2999 0-0.55547-0.13975-0.96943-0.41924-1.2419s-0.63545-0.4087-1.0679-0.4087c-0.46406 0-0.83233 0.15557-1.1048 0.4667-0.27246 0.31114-0.40869 0.72686-0.40869 1.2472 0 0.49219 0.11953 0.8833 0.3586 1.1733 0.23906 0.29004 0.6205 0.43506 1.1443 0.43506 0.37617 0 0.71983-0.12393 1.031-0.37178zm3.4254 1.822c0.0633 0.54141 0.31465 0.91583 0.7541 1.1232 0.225 0.10547 0.48515 0.1582 0.78047 0.1582 0.5625 0 0.9791-0.1793 1.2498-0.53789 0.27071-0.35859 0.40606-0.75586 0.40606-1.1918 0-0.52734-0.16084-0.93515-0.48252-1.2234-0.32168-0.28829-0.70752-0.43243-1.1575-0.43243-0.32696 0-0.60733 0.0633-0.84112 0.18985-0.23378 0.12656-0.4333 0.30234-0.59853 0.52734l-0.82266-0.0475 0.57481-4.0658h3.9234v0.91758h-3.2115l-0.32168 2.0988c0.17578-0.1336 0.34278-0.23379 0.50098-0.30059 0.28125-0.11602 0.60644-0.17402 0.97558-0.17402 0.69258 0 1.2797 0.22324 1.7613 0.66972 0.48164 0.44649 0.72246 1.0125 0.72246 1.698 0 0.71367-0.2206 1.343-0.66181 1.8879-0.44121 0.54492-1.1452 0.81738-2.112 0.81738-0.61524 0-1.1593-0.17314-1.6321-0.51943-0.47285-0.34629-0.73741-0.87803-0.79366-1.5952h0.98614zm5.6957-3.4225v-0.72773c0.68555-0.0668 1.1637-0.17842 1.4344-0.33486 0.2707-0.15645 0.47285-0.52647 0.60644-1.1101h0.74883v7.5199h-1.0125v-5.3473h-1.7772z"/>
      </g>
      <g id="g14930" transform="matrix(0.72 0 0 0.72 328 100)"></g>
      <g id="g14936" transform="translate(.5 .5)">
       <path id="path14938" d="m201.6 150h-39.6v-24.46" stroke="#000" stroke-miterlimit="10" fill="none"/>
      </g>
      <g id="g14940">
       <path id="path14942" d="m162.5 122.26 2.52 5.04-2.52-1.26-2.52 1.26 2.52-5.04z"/>
      </g>
      <g id="g14944" transform="translate(.5 .5)">
       <path id="path14946" d="m162 121.76 2.52 5.04-2.52-1.26-2.52 1.26l2.52-5.04z" stroke="#000" stroke-miterlimit="10" fill="none"/>
      </g>
      <g id="g14952">
       <path id="path14954" d="m206.42 135.86h56.16c2.3859 0 4.32 1.9341 4.32 4.32v20.16c0 2.3859-1.9341 4.32-4.32 4.32h-56.16c-2.3859 0-4.32-1.9341-4.32-4.32v-20.16c0-2.3859 1.9341-4.32 4.32-4.32z" fill="#fff"/>
      </g>
      <g id="g14956" transform="translate(.5 .5)">
       <path id="path14958" d="m205.92 135.36h56.16c2.3859 0 4.32 1.9341 4.32 4.32v20.16c0 2.3859-1.9341 4.32-4.32 4.32h-56.16c-2.3859 0-4.32-1.9341-4.32-4.32v-20.16c0-2.3859 1.9341-4.32 4.32-4.32z" stroke="#000" stroke-miterlimit="10" fill="none"/>
      </g>
      <g id="g14962" transform="matrix(0.72 0 0 0.72 209 143)"></g>
      <g id="g14966">
       <path id="path14968" d="m210.03 147.01v-0.72773c0.68555-0.0668 1.1637-0.17842 1.4344-0.33486 0.2707-0.15645 0.47285-0.52647 0.60644-1.1101h0.74883v7.5199h-1.0125v-5.3473h-1.7772zm6.6871 4.493c0.20039 0.1582 0.4377 0.23731 0.71192 0.23731 0.33398 0 0.65742-0.0773 0.97031-0.23203 0.52734-0.25665 0.79101-0.67676 0.79101-1.2604v-0.76464c-0.11601 0.0738-0.26542 0.13535-0.44824 0.18457-0.18281 0.0492-0.36211 0.0844-0.53789 0.10546l-0.5748 0.0738c-0.34453 0.0457-0.60293 0.11778-0.7752 0.21621-0.29179 0.16524-0.43769 0.42891-0.43769 0.79102 0 0.27422 0.10019 0.49043 0.30058 0.64863zm1.9986-2.5682c0.21796-0.0281 0.36386-0.11953 0.43769-0.27422 0.0422-0.0844 0.0633-0.20566 0.0633-0.36387 0-0.32344-0.11513-0.5581-0.34541-0.704-0.23027-0.1459-0.55986-0.21885-0.98877-0.21885-0.4957 0-0.84726 0.13359-1.0547 0.40078-0.11602 0.14766-0.19161 0.36738-0.22676 0.65918h-0.88594c0.0176-0.69609 0.24346-1.1804 0.67764-1.4528 0.43418-0.27246 0.93779-0.40869 1.5108-0.40869 0.66445 0 1.2041 0.12656 1.6189 0.37969 0.41133 0.25312 0.61699 0.64687 0.61699 1.1812v3.2537c0 0.0984 0.0202 0.17754 0.0606 0.2373 0.0404 0.0598 0.12568 0.0897 0.25576 0.0897 0.0422 0 0.0897-0.003 0.14238-0.008 0.0527-0.005 0.10899-0.0132 0.16875-0.0237v0.70137c-0.14765 0.0422-0.26015 0.0685-0.3375 0.0791-0.0773 0.0105-0.18281 0.0158-0.3164 0.0158-0.32696 0-0.56426-0.11602-0.71192-0.34805-0.0773-0.12305-0.13183-0.29707-0.16347-0.52207-0.19336 0.25313-0.4711 0.47285-0.83321 0.65918s-0.76113 0.27949-1.1971 0.27949c-0.52383 0-0.95185-0.15908-1.2841-0.47724-0.33223-0.31817-0.49834-0.71631-0.49834-1.1944 0-0.52382 0.16348-0.92988 0.49043-1.2182 0.32695-0.28828 0.75586-0.46582 1.2867-0.53262l1.5135-0.18984zm7.3146-2.9215c0.3375 0.62227 0.50625 1.4748 0.50625 2.5576 0 1.0266-0.15292 1.8756-0.45878 2.5471-0.44297 0.96328-1.1672 1.4449-2.1727 1.4449-0.90703 0-1.582-0.39375-2.025-1.1812-0.36914-0.65742-0.55371-1.5398-0.55371-2.6473 0-0.85782 0.11074-1.5943 0.33223-2.2096 0.41484-1.1461 1.1654-1.7191 2.2518-1.7191 0.97735 0 1.684 0.40254 2.1199 1.2076zm-0.95449 5.0309c0.2918-0.43593 0.4377-1.248 0.4377-2.4363 0-0.85781-0.10547-1.5636-0.31641-2.1173-0.21094-0.55371-0.62051-0.83057-1.2287-0.83057-0.55898 0-0.96768 0.2628-1.2261 0.78838-0.2584 0.52559-0.3876 1.2999-0.3876 2.323 0 0.76992 0.0826 1.3887 0.24785 1.8562 0.25313 0.71367 0.68555 1.0705 1.2973 1.0705 0.49218 0 0.88418-0.21797 1.176-0.65391zm2.6503-0.38496c0.23379-0.48164 0.68994-0.91933 1.3684-1.3131l1.0125-0.58536c0.45352-0.26367 0.77168-0.48867 0.9545-0.675 0.28828-0.29179 0.43242-0.62578 0.43242-1.002 0-0.43945-0.13184-0.78838-0.39551-1.0468-0.26367-0.25839-0.61524-0.38759-1.0547-0.38759-0.65039 0-1.1004 0.24609-1.35 0.73828-0.13359 0.26367-0.20742 0.62929-0.22148 1.0969h-0.96504c0.0105-0.65742 0.13183-1.1936 0.36387-1.6084 0.41132-0.73126 1.1373-1.0969 2.1779-1.0969 0.86484 0 1.4968 0.23379 1.8958 0.70137 0.39902 0.46757 0.59853 0.98789 0.59853 1.5609 0 0.60469-0.21269 1.1215-0.63808 1.5504-0.2461 0.24961-0.68731 0.55196-1.3236 0.90704l-0.72246 0.40078c-0.34453 0.18984-0.61523 0.3709-0.81211 0.54316-0.35156 0.30586-0.57304 0.64512-0.66445 1.0178h4.1238v0.89649h-5.1838c0.0352-0.65039 0.16963-1.2164 0.40342-1.698zm5.8776-6.075h0.92286v2.8107c0.20742-0.2707 0.45527-0.47724 0.74355-0.61962 0.28828-0.14239 0.60117-0.21358 0.93867-0.21358 0.70313 0 1.2735 0.2417 1.7112 0.7251s0.65654 1.1962 0.65654 2.1384c0 0.89297-0.21621 1.6348-0.64863 2.2254-0.43242 0.59062-1.0318 0.88594-1.7982 0.88594-0.42891 0-0.79101-0.10372-1.0863-0.31114-0.17578-0.12304-0.36387-0.31992-0.56426-0.59062v0.72246h-0.87539v-7.773zm3.6202 6.5022c0.25488-0.40781 0.38232-0.9457 0.38232-1.6137 0-0.59414-0.12744-1.0863-0.38232-1.4766-0.25488-0.39024-0.63018-0.58536-1.1259-0.58536-0.43242 0-0.81123 0.15997-1.1364 0.47989-0.32519 0.31992-0.48779 0.84726-0.48779 1.582 0 0.53086 0.0668 0.96152 0.20039 1.292 0.24961 0.62227 0.71543 0.9334 1.3975 0.9334 0.51328 0 0.89737-0.20391 1.1522-0.61172zm2.7874-4.0764v-0.72773c0.68555-0.0668 1.1637-0.17842 1.4344-0.33486 0.2707-0.15645 0.47285-0.52647 0.60644-1.1101h0.74883v7.5199h-1.0125v-5.3473h-1.7772zm5.5849-2.4258h0.92285v2.8107c0.20743-0.2707 0.45528-0.47724 0.74356-0.61962 0.28828-0.14239 0.60117-0.21358 0.93867-0.21358 0.70313 0 1.2735 0.2417 1.7112 0.7251s0.65654 1.1962 0.65654 2.1384c0 0.89297-0.21621 1.6348-0.64863 2.2254-0.43242 0.59062-1.0318 0.88594-1.7982 0.88594-0.42891 0-0.79102-0.10372-1.0863-0.31114-0.17578-0.12304-0.36387-0.31992-0.56426-0.59062v0.72246h-0.87539v-7.773zm3.6202 6.5022c0.25488-0.40781 0.38232-0.9457 0.38232-1.6137 0-0.59414-0.12744-1.0863-0.38232-1.4766-0.25489-0.39024-0.63018-0.58536-1.1259-0.58536-0.43242 0-0.81123 0.15997-1.1364 0.47989-0.32519 0.31992-0.48779 0.84726-0.48779 1.582 0 0.53086 0.0668 0.96152 0.20039 1.292 0.24961 0.62227 0.71543 0.9334 1.3975 0.9334 0.51328 0 0.89736-0.20391 1.1522-0.61172zm3.088-0.65391c0.0633 0.54141 0.31465 0.91583 0.7541 1.1232 0.225 0.10546 0.48515 0.1582 0.78047 0.1582 0.5625 0 0.9791-0.1793 1.2498-0.53789 0.2707-0.3586 0.40606-0.75586 0.40606-1.1918 0-0.52734-0.16084-0.93515-0.48252-1.2234-0.32168-0.28828-0.70752-0.43242-1.1575-0.43242-0.32696 0-0.60733 0.0633-0.84112 0.18985-0.23378 0.12656-0.4333 0.30234-0.59853 0.52734l-0.82266-0.0475 0.57481-4.0658h3.9234v0.91758h-3.2115l-0.32168 2.0988c0.17578-0.1336 0.34278-0.23379 0.50098-0.30059 0.28125-0.11602 0.60644-0.17402 0.97558-0.17402 0.69258 0 1.2797 0.22324 1.7613 0.66972 0.48164 0.44649 0.72246 1.0125 0.72246 1.698 0 0.71367-0.2206 1.343-0.66181 1.8879-0.44121 0.54492-1.1452 0.81738-2.112 0.81738-0.61524 0-1.1593-0.17314-1.6321-0.51943-0.47286-0.34629-0.7374-0.87803-0.79366-1.5952h0.98614z"/>
      </g>
      <g id="g14970" transform="matrix(0.72 0 0 0.72 209 143)"></g>
      <g id="g14976" transform="translate(.5 .5)">
       <path id="path14978" d="m234 185.76v-14.76 8-10.26" stroke="#000" stroke-miterlimit="10" fill="none"/>
      </g>
      <g id="g14980">
       <path id="path14982" d="m234.5 165.46 2.52 5.04-2.52-1.26-2.52 1.26 2.52-5.04z"/>
      </g>
      <g id="g14984" transform="translate(.5 .5)">
       <path id="path14986" d="m234 164.96 2.52 5.04-2.52-1.26-2.52 1.26 2.52-5.04z" stroke="#000" stroke-miterlimit="10" fill="none"/>
      </g>
      <g id="g14992">
       <path id="path14994" d="m198.14 186.26h72.72c1.7894 0 3.24 1.4506 3.24 3.24v15.12c0 1.7894-1.4506 3.24-3.24 3.24h-72.72c-1.7894 0-3.24-1.4506-3.24-3.24v-15.12c0-1.7894 1.4506-3.24 3.24-3.24z" fill="#fff"/>
      </g>
      <g id="g14996" transform="translate(.5 .5)">
       <path id="path14998" d="m197.64 185.76h72.72c1.7894 0 3.24 1.4506 3.24 3.24v15.12c0 1.7894-1.4506 3.24-3.24 3.24h-72.72c-1.7894 0-3.24-1.4506-3.24-3.24v-15.12c0-1.7894 1.4506-3.24 3.24-3.24z" stroke="#000" stroke-miterlimit="10" fill="none"/>
      </g>
      <g id="g15002" transform="matrix(0.72 0 0 0.72 199 189)"></g>
      <g id="g15006">
       <path id="path15008" d="m200.63 193.9c0.17719-0.25875 0.51891-0.38813 1.0252-0.38813 0.0478 0 0.097 0.001 0.14765 0.004 0.0506 0.003 0.10828 0.007 0.17297 0.0127v0.69187c-0.0788-0.006-0.1357-0.009-0.17086-0.0106-0.0352-0.001-0.0682-0.002-0.0991-0.002-0.23062 0-0.36844 0.0598-0.41344 0.17929-0.045 0.11953-0.0675 0.42399-0.0675 0.91336h0.75094v0.59906h-0.75937v3.8981h-0.75094v-3.8981h-0.6286v-0.59906h0.6286v-0.70875c0.0112-0.315 0.0661-0.54562 0.16453-0.69187zm4.8558 1.504c0.30094 0.15047 0.53016 0.34523 0.68766 0.5843 0.15187 0.22781 0.25312 0.49359 0.30375 0.79734 0.045 0.20813 0.0675 0.54 0.0675 0.99563h-3.3117c0.0141 0.45843 0.12234 0.82617 0.32484 1.1032s0.5161 0.41555 0.94078 0.41555c0.39657 0 0.71297-0.13079 0.94922-0.39235 0.135-0.15187 0.23063-0.32765 0.28688-0.52734h0.74671c-0.0197 0.16594-0.0851 0.35086-0.19617 0.55476-0.11109 0.20391-0.23554 0.37055-0.37336 0.49993-0.23062 0.225-0.51609 0.37687-0.8564 0.45562-0.18282 0.045-0.38953 0.0675-0.62016 0.0675-0.5625 0-1.0392-0.20461-1.4302-0.61383-0.39094-0.40922-0.58641-0.98226-0.58641-1.7191 0-0.72562 0.19687-1.3148 0.59062-1.7676 0.39375-0.45282 0.90844-0.67922 1.5441-0.67922 0.32062 0 0.6314 0.0752 0.93234 0.2257zm0.27844 1.774c-0.0309-0.32906-0.10266-0.59203-0.21516-0.7889-0.20812-0.36563-0.55547-0.54844-1.042-0.54844-0.34875 0-0.64125 0.12586-0.8775 0.37758s-0.36141 0.57164-0.37547 0.95976h2.5102zm2.5341 1.9364c0.16031 0.12656 0.35016 0.18984 0.56953 0.18984 0.26719 0 0.52594-0.0619 0.77625-0.18562 0.42188-0.20531 0.63281-0.54141 0.63281-1.0083v-0.61172c-0.0928 0.0591-0.21234 0.10828-0.35859 0.14766-0.14625 0.0394-0.28969 0.0675-0.43031 0.0844l-0.45985 0.0591c-0.27562 0.0366-0.48234 0.0942-0.62015 0.17297-0.23344 0.13219-0.35016 0.34313-0.35016 0.63281 0 0.21938 0.0802 0.39235 0.24047 0.51891zm1.5989-2.0545c0.17437-0.0225 0.29109-0.0956 0.35015-0.21938 0.0337-0.0675 0.0506-0.16453 0.0506-0.29109 0-0.25875-0.0921-0.44648-0.27633-0.5632-0.18422-0.11672-0.44789-0.17508-0.79102-0.17508-0.39656 0-0.67781 0.10687-0.84375 0.32062-0.0928 0.11813-0.15328 0.29391-0.1814 0.52735h-0.70875c0.0141-0.55688 0.19476-0.9443 0.54211-1.1623 0.34734-0.21797 0.75023-0.32695 1.2087-0.32695 0.53156 0 0.96328 0.10125 1.2952 0.30375 0.32907 0.2025 0.4936 0.5175 0.4936 0.945v2.603c0 0.0787 0.0162 0.14203 0.0485 0.18984 0.0324 0.0478 0.10055 0.0717 0.20461 0.0717 0.0337 0 0.0717-0.002 0.11391-0.006 0.0422-0.004 0.0872-0.0105 0.135-0.019v0.56109c-0.11812 0.0337-0.20812 0.0549-0.27 0.0633-0.0619 0.008-0.14625 0.0127-0.25313 0.0127-0.26156 0-0.4514-0.0928-0.56953-0.27844-0.0619-0.0984-0.10547-0.23765-0.13078-0.41765-0.15469 0.2025-0.37687 0.37828-0.66656 0.52734s-0.60891 0.22359-0.95766 0.22359c-0.41906 0-0.76148-0.12726-1.0273-0.38179-0.26578-0.25453-0.39867-0.57305-0.39867-0.95555 0-0.41906 0.13078-0.74391 0.39234-0.97453 0.26156-0.23063 0.60469-0.37266 1.0294-0.4261l1.2108-0.15187zm2.5341-3.0417h0.76781v1.2614h0.72141v0.62015h-0.72141v2.9489c0 0.1575 0.0534 0.26297 0.16031 0.31641 0.0591 0.0309 0.1575 0.0464 0.29532 0.0464 0.0366 0 0.0759-0.0007 0.11812-0.002 0.0422-0.001 0.0914-0.005 0.14766-0.0105v0.59906c-0.0872 0.0253-0.17789 0.0436-0.27211 0.0548-0.0942 0.0113-0.19617 0.0169-0.30586 0.0169-0.35438 0-0.59485-0.0907-0.72141-0.27211s-0.18984-0.41696-0.18984-0.70664v-2.9911h-0.61172v-0.62015h0.61172v-1.2614zm3.0038 1.2614v2.9995c0 0.23062 0.0366 0.41906 0.10969 0.56531 0.135 0.27 0.38671 0.405 0.75515 0.405 0.52875 0 0.88875-0.23625 1.08-0.70875 0.10406-0.25312 0.1561-0.60047 0.1561-1.042v-2.2191h0.75937v4.5183h-0.71719l0.008-0.66656c-0.0984 0.17156-0.22078 0.3164-0.36703 0.43453-0.28969 0.23625-0.64125 0.35437-1.0547 0.35437-0.64406 0-1.0828-0.21515-1.3162-0.64547-0.12656-0.23062-0.18984-0.53859-0.18984-0.9239v-3.0712h0.77625zm4.0655 0h0.7214v0.78047c0.0591-0.15188 0.20391-0.3368 0.43453-0.55477 0.23063-0.21797 0.49641-0.32695 0.79735-0.32695 0.0141 0 0.038 0.001 0.0717 0.004s0.0914 0.008 0.17297 0.0169v0.80156c-0.045-0.008-0.0865-0.0141-0.12446-0.0169-0.038-0.003-0.0795-0.004-0.12445-0.004-0.3825 0-0.67641 0.12305-0.88172 0.36914s-0.30797 0.52945-0.30797 0.85008v2.5988h-0.75937v-4.5183zm5.6616 0.12445c0.30094 0.15047 0.53016 0.34523 0.68766 0.5843 0.15187 0.22781 0.25312 0.49359 0.30375 0.79734 0.045 0.20813 0.0675 0.54 0.0675 0.99563h-3.3117c0.0141 0.45843 0.12234 0.82617 0.32484 1.1032s0.51609 0.41555 0.94078 0.41555c0.39656 0 0.71297-0.13079 0.94922-0.39235 0.135-0.15187 0.23063-0.32765 0.28688-0.52734h0.74671c-0.0197 0.16594-0.0851 0.35086-0.19617 0.55476-0.11109 0.20391-0.23554 0.37055-0.37336 0.49993-0.23062 0.225-0.51609 0.37687-0.8564 0.45562-0.18282 0.045-0.38953 0.0675-0.62016 0.0675-0.5625 0-1.0392-0.20461-1.4302-0.61383-0.39093-0.40922-0.5864-0.98226-0.5864-1.7191 0-0.72562 0.19687-1.3148 0.59062-1.7676 0.39375-0.45282 0.90844-0.67922 1.5441-0.67922 0.32062 0 0.6314 0.0752 0.93234 0.2257zm0.27844 1.774c-0.0309-0.32906-0.10266-0.59203-0.21516-0.7889-0.20812-0.36563-0.55547-0.54844-1.042-0.54844-0.34875 0-0.64125 0.12586-0.8775 0.37758s-0.36141 0.57164-0.37547 0.95976h2.5102zm3.1205-3.5775h0.64125l-1.9659 6.1973h-0.64125l1.9659-6.1973zm3.51 1.8605c0.14343 0.0984 0.28968 0.24188 0.43875 0.43032v-0.56954h0.70031v4.1091c0 0.57375-0.0844 1.0266-0.25313 1.3584-0.315 0.61313-0.90984 0.91969-1.7845 0.91969-0.48656 0-0.89578-0.10898-1.2276-0.32695-0.33188-0.21797-0.5175-0.55899-0.55688-1.023h0.77203c0.0366 0.2025 0.10969 0.3586 0.21938 0.46828 0.17156 0.16875 0.44156 0.25313 0.81 0.25313 0.58218 0 0.96328-0.20531 1.1433-0.61594 0.10687-0.24187 0.15609-0.67359 0.14765-1.2952-0.15187 0.23063-0.33468 0.40219-0.54843 0.51469s-0.49641 0.16875-0.84797 0.16875c-0.48938 0-0.91758-0.17367-1.2846-0.52101-0.36703-0.34735-0.55055-0.9218-0.55055-1.7234 0-0.75657 0.18492-1.3472 0.55477-1.7719 0.36984-0.42469 0.81633-0.63703 1.3394-0.63703 0.35438 0 0.66375 0.0872 0.92813 0.26156zm0.0928 0.81422c-0.23063-0.27-0.52453-0.405-0.88172-0.405-0.53438 0-0.9 0.25031-1.0969 0.75094-0.10406 0.26719-0.15609 0.61734-0.15609 1.0505 0 0.50906 0.10336 0.89648 0.31008 1.1623 0.20672 0.26579 0.48445 0.39868 0.8332 0.39868 0.54563 0 0.92953-0.2461 1.1517-0.73829 0.12375-0.27843 0.18563-0.60328 0.18563-0.97453 0-0.55968-0.11532-0.97453-0.34594-1.2445zm3.0108 2.8392c0.16031 0.12656 0.35015 0.18984 0.56953 0.18984 0.26719 0 0.52594-0.0619 0.77625-0.18562 0.42187-0.20531 0.63281-0.54141 0.63281-1.0083v-0.61172c-0.0928 0.0591-0.21234 0.10828-0.35859 0.14766-0.14625 0.0394-0.28969 0.0675-0.43031 0.0844l-0.45985 0.0591c-0.27562 0.0366-0.48234 0.0942-0.62015 0.17297-0.23344 0.13219-0.35016 0.34313-0.35016 0.63281 0 0.21938 0.0802 0.39235 0.24047 0.51891zm1.5989-2.0545c0.17438-0.0225 0.2911-0.0956 0.35016-0.21938 0.0337-0.0675 0.0506-0.16453 0.0506-0.29109 0-0.25875-0.0921-0.44648-0.27633-0.5632-0.18422-0.11672-0.44789-0.17508-0.79102-0.17508-0.39656 0-0.67781 0.10687-0.84375 0.32062-0.0928 0.11813-0.15328 0.29391-0.1814 0.52735h-0.70875c0.0141-0.55688 0.19476-0.9443 0.54211-1.1623 0.34734-0.21797 0.75023-0.32695 1.2087-0.32695 0.53156 0 0.96328 0.10125 1.2952 0.30375 0.32907 0.2025 0.4936 0.5175 0.4936 0.945v2.603c0 0.0787 0.0162 0.14203 0.0485 0.18984 0.0324 0.0478 0.10055 0.0717 0.20461 0.0717 0.0337 0 0.0717-0.002 0.11391-0.006 0.0422-0.004 0.0872-0.0105 0.135-0.019v0.56109c-0.11813 0.0337-0.20813 0.0549-0.27 0.0633-0.0619 0.008-0.14625 0.0127-0.25313 0.0127-0.26156 0-0.4514-0.0928-0.56953-0.27844-0.0619-0.0984-0.10547-0.23765-0.13078-0.41765-0.15469 0.2025-0.37687 0.37828-0.66656 0.52734s-0.60891 0.22359-0.95766 0.22359c-0.41906 0-0.76148-0.12726-1.0273-0.38179-0.26578-0.25453-0.39868-0.57305-0.39868-0.95555 0-0.41906 0.13079-0.74391 0.39235-0.97453 0.26156-0.23063 0.60469-0.37266 1.0294-0.4261l1.2108-0.15187zm2.3822-1.7803h0.75094v0.64125c0.18-0.22219 0.34312-0.38391 0.48937-0.48516 0.25032-0.17156 0.53438-0.25734 0.85219-0.25734 0.36 0 0.64969 0.0886 0.86906 0.26578 0.12375 0.10125 0.23625 0.25031 0.3375 0.44719 0.16875-0.24188 0.36704-0.42118 0.59485-0.53789 0.22781-0.11672 0.48375-0.17508 0.76781-0.17508 0.6075 0 1.0209 0.21937 1.2403 0.65812 0.11813 0.23625 0.17719 0.55406 0.17719 0.95344v3.008h-0.78891v-3.1388c0-0.30094-0.0752-0.50766-0.2257-0.62016-0.15047-0.1125-0.33398-0.16875-0.55055-0.16875-0.29812 0-0.55476 0.0999-0.76992 0.29953-0.21515 0.19969-0.32273 0.53297-0.32273 0.99985v2.6283h-0.77203v-2.9489c0-0.30656-0.0366-0.53015-0.10969-0.67078-0.11531-0.21094-0.33047-0.31641-0.64547-0.31641-0.28687 0-0.54773 0.1111-0.78258 0.33329-0.23484 0.22218-0.35226 0.62437-0.35226 1.2066v2.3962h-0.75938v-4.5183zm10.003 0.12445c0.30094 0.15047 0.53015 0.34523 0.68765 0.5843 0.15188 0.22781 0.25313 0.49359 0.30375 0.79734 0.045 0.20813 0.0675 0.54 0.0675 0.99563h-3.3117c0.0141 0.45843 0.12234 0.82617 0.32484 1.1032s0.51609 0.41555 0.94078 0.41555c0.39656 0 0.71297-0.13079 0.94922-0.39235 0.135-0.15187 0.23063-0.32765 0.28688-0.52734h0.74671c-0.0197 0.16594-0.0851 0.35086-0.19617 0.55476-0.11109 0.20391-0.23555 0.37055-0.37336 0.49993-0.23062 0.225-0.51609 0.37687-0.8564 0.45562-0.18282 0.045-0.38954 0.0675-0.62016 0.0675-0.5625 0-1.0392-0.20461-1.4302-0.61383-0.39093-0.40922-0.5864-0.98226-0.5864-1.7191 0-0.72562 0.19687-1.3148 0.59062-1.7676 0.39375-0.45282 0.90844-0.67922 1.5441-0.67922 0.32063 0 0.63141 0.0752 0.93235 0.2257zm0.27844 1.774c-0.0309-0.32906-0.10266-0.59203-0.21516-0.7889-0.20813-0.36563-0.55547-0.54844-1.042-0.54844-0.34875 0-0.64125 0.12586-0.8775 0.37758s-0.36141 0.57164-0.37547 0.95976h2.5102zm1.5131-0.17718h2.1178v0.78047h-2.1178v-0.78047zm5.8957 1.736c0.18703-0.38109 0.28055-0.80508 0.28055-1.272 0-0.42188-0.0675-0.765-0.2025-1.0294-0.21375-0.41624-0.58219-0.62437-1.1053-0.62437-0.46406 0-0.80156 0.17719-1.0125 0.53156-0.21094 0.35438-0.31641 0.78188-0.31641 1.2825 0 0.48094 0.10547 0.88172 0.31641 1.2024 0.21094 0.32062 0.54562 0.48093 1.0041 0.48093 0.50344 0 0.84867-0.19054 1.0357-0.57164zm0.47039-3.0059c0.40219 0.38813 0.60329 0.95907 0.60329 1.7128 0 0.72843-0.17719 1.3303-0.53157 1.8056-0.35437 0.47531-0.90421 0.71297-1.6495 0.71297-0.62156 0-1.1152-0.21023-1.4808-0.6307-0.36562-0.42047-0.54844-0.98508-0.54844-1.6938 0-0.75938 0.19266-1.3641 0.57797-1.8141s0.90281-0.675 1.5525-0.675c0.58219 0 1.0744 0.19406 1.4766 0.58218zm1.8759-0.4514 1.2066 3.6788 1.2614-3.6788h0.83109l-1.7044 4.5183h-0.81l-1.6664-4.5183h0.88172zm6.7627 0.12445c0.30093 0.15047 0.53015 0.34523 0.68765 0.5843 0.15188 0.22781 0.25313 0.49359 0.30375 0.79734 0.045 0.20813 0.0675 0.54 0.0675 0.99563h-3.3117c0.0141 0.45843 0.12235 0.82617 0.32485 1.1032s0.51609 0.41555 0.94078 0.41555c0.39656 0 0.71297-0.13079 0.94922-0.39235 0.135-0.15187 0.23062-0.32765 0.28687-0.52734h0.74672c-0.0197 0.16594-0.0851 0.35086-0.19617 0.55476-0.11109 0.20391-0.23555 0.37055-0.37336 0.49993-0.23062 0.225-0.51609 0.37687-0.85641 0.45562-0.18281 0.045-0.38953 0.0675-0.62015 0.0675-0.5625 0-1.0392-0.20461-1.4302-0.61383-0.39094-0.40922-0.5864-0.98226-0.5864-1.7191 0-0.72562 0.19687-1.3148 0.59062-1.7676 0.39375-0.45282 0.90844-0.67922 1.5441-0.67922 0.32063 0 0.63141 0.0752 0.93235 0.2257zm0.27843 1.774c-0.0309-0.32906-0.10265-0.59203-0.21515-0.7889-0.20813-0.36563-0.55547-0.54844-1.042-0.54844-0.34875 0-0.64125 0.12586-0.8775 0.37758s-0.36141 0.57164-0.37547 0.95976h2.5102zm1.7325-1.8984h0.72141v0.78047c0.0591-0.15188 0.20391-0.3368 0.43453-0.55477 0.23063-0.21797 0.49641-0.32695 0.79735-0.32695 0.0141 0 0.038 0.001 0.0717 0.004s0.0914 0.008 0.17297 0.0169v0.80156c-0.045-0.008-0.0865-0.0141-0.12445-0.0169-0.038-0.003-0.0795-0.004-0.12445-0.004-0.3825 0-0.67641 0.12305-0.88172 0.36914s-0.30797 0.52945-0.30797 0.85008v2.5988h-0.75938v-4.5183z"/>
      </g>
      <g id="g15010" transform="matrix(0.72 0 0 0.72 199 189)"></g>
      <g id="g15016" transform="translate(.5 .5)">
       <path id="path15018" d="m353 72v14 1.58" stroke="#000" stroke-miterlimit="10" fill="none"/>
      </g>
      <g id="g15020">
       <path id="path15022" d="m353.5 91.86-2.52-5.04 2.52 1.26 2.52-1.26-2.52 5.04z"/>
      </g>
      <g id="g15024" transform="translate(.5 .5)">
       <path id="path15026" d="m353 91.36-2.52-5.04 2.52 1.26 2.52-1.26-2.52 5.04z" stroke="#000" stroke-miterlimit="10" fill="none"/>
      </g>
      <g id="g15032">
       <path id="path15034" d="m320.54 50.9h65.52c1.7894 0 3.24 1.4506 3.24 3.24v15.12c0 1.789-1.45 3.24-3.24 3.24h-65.52c-1.7894 0-3.24-1.4506-3.24-3.24v-15.12c0-1.7894 1.4506-3.24 3.24-3.24z" fill="#fff"/>
      </g>
      <g id="g15036" transform="translate(.5 .5)">
       <path id="path15038" d="m320.04 50.4h65.52c1.7894 0 3.24 1.4506 3.24 3.24v15.12c0 1.789-1.45 3.24-3.24 3.24h-65.52c-1.7894 0-3.24-1.4506-3.24-3.24v-15.12c0-1.7894 1.4506-3.24 3.24-3.24z" stroke="#000" stroke-miterlimit="10" fill="none"/>
      </g>
      <g id="g15042" transform="matrix(0.72 0 0 0.72 325 54)"></g>
      <g id="g15046">
       <path id="path15048" d="m325.56 58.582h0.75938v2.3119c0.18-0.22781 0.34172-0.38812 0.48516-0.48094 0.24468-0.16031 0.54984-0.24047 0.91546-0.24047 0.65532 0 1.0997 0.22922 1.3331 0.68766 0.12656 0.25031 0.18984 0.59766 0.18984 1.042v2.8983h-0.78047v-2.8477c0-0.33188-0.0422-0.57516-0.12656-0.72984-0.13781-0.2475-0.39656-0.37125-0.77625-0.37125-0.315 0-0.60047 0.10828-0.8564 0.32484-0.25594 0.21656-0.38391 0.62578-0.38391 1.2277v2.3962h-0.75938v-6.2184zm4.8248 0.02109h0.75937v6.1973h-0.75937v-6.1973zm2.7141 5.5139c0.16031 0.12656 0.35016 0.18984 0.56953 0.18984 0.26719 0 0.52594-0.06188 0.77625-0.18562 0.42188-0.20531 0.63281-0.54141 0.63281-1.0083v-0.61172c-0.0928 0.05906-0.21234 0.10828-0.35859 0.14766-0.14625 0.03937-0.28969 0.0675-0.43031 0.08438l-0.45985 0.05906c-0.27562 0.03656-0.48234 0.09422-0.62015 0.17297-0.23344 0.13219-0.35016 0.34312-0.35016 0.63281 0 0.21938 0.0802 0.39234 0.24047 0.51891zm1.5989-2.0545c0.17437-0.0225 0.29109-0.09562 0.35015-0.21938 0.0337-0.0675 0.0506-0.16453 0.0506-0.29109 0-0.25875-0.0921-0.44648-0.27633-0.5632-0.18422-0.11672-0.44789-0.17508-0.79102-0.17508-0.39656 0-0.67781 0.10688-0.84375 0.32062-0.0928 0.11812-0.15328 0.29391-0.1814 0.52734h-0.70875c0.0141-0.55688 0.19476-0.9443 0.54211-1.1623 0.34734-0.21797 0.75023-0.32695 1.2087-0.32695 0.53156 0 0.96328 0.10125 1.2952 0.30375 0.32907 0.2025 0.4936 0.5175 0.4936 0.945v2.603c0 0.07875 0.0162 0.14203 0.0485 0.18984s0.10054 0.07172 0.2046 0.07172c0.0337 0 0.0717-0.0021 0.11391-0.0063 0.0422-0.0042 0.0872-0.01055 0.135-0.01898v0.56109c-0.11813 0.03375-0.20813 0.05484-0.27 0.06328-0.0619 0.0084-0.14625 0.01266-0.25313 0.01266-0.26156 0-0.4514-0.09281-0.56953-0.27844-0.0619-0.09844-0.10547-0.23766-0.13078-0.41766-0.15469 0.2025-0.37687 0.37828-0.66656 0.52734s-0.60891 0.22359-0.95766 0.22359c-0.41906 0-0.76148-0.12727-1.0273-0.3818-0.26578-0.25453-0.39867-0.57305-0.39867-0.95555 0-0.41906 0.13078-0.74391 0.39234-0.97453s0.60469-0.37266 1.0294-0.42609l1.2108-0.15188zm2.7534-1.7803 1.2066 3.6788 1.2614-3.6788h0.8311l-1.7044 4.5183h-0.81l-1.6664-4.5183h0.88172zm3.9488 0h0.72141v0.64125c0.21375-0.26438 0.44016-0.45422 0.67922-0.56953s0.50484-0.17297 0.79734-0.17297c0.64125 0 1.0744 0.22359 1.2994 0.67078 0.12375 0.24469 0.18562 0.59484 0.18562 1.0505v2.8983h-0.77203v-2.8477c0-0.27562-0.0408-0.49781-0.12234-0.66656-0.135-0.28125-0.37969-0.42188-0.73407-0.42188-0.18 0-0.32765 0.01828-0.44296 0.05484-0.20813 0.06188-0.39094 0.18562-0.54844 0.37125-0.12656 0.14906-0.20883 0.30305-0.2468 0.46195-0.038 0.15891-0.0569 0.38602-0.0569 0.68133v2.3667h-0.75938v-4.5183zm4.8038 0.02109h0.77203v4.4972h-0.77203v-4.4972zm0-1.7002h0.77203v0.86062h-0.77203v-0.86062zm3.3216 0h0.64125l-1.9659 6.1973h-0.64125l1.9659-6.1973zm1.7761 5.2059c0.20531 0.32625 0.53437 0.48938 0.98719 0.48938 0.35156 0 0.64054-0.15117 0.86695-0.45352 0.22641-0.30234 0.33961-0.73617 0.33961-1.3015 0-0.57094-0.11672-0.99352-0.35016-1.2677-0.23343-0.27422-0.52172-0.41133-0.86484-0.41133-0.3825 0-0.69258 0.14625-0.93024 0.43875-0.23765 0.2925-0.35648 0.72281-0.35648 1.2909 0 0.48375 0.10266 0.88875 0.30797 1.215zm1.7044-3.3877c0.135 0.08438 0.28829 0.23203 0.45985 0.44297v-2.2823h0.72984v6.2184h-0.68344v-0.62859c-0.17718 0.27844-0.38671 0.47953-0.62859 0.60328-0.24187 0.12375-0.51891 0.18562-0.83109 0.18562-0.50344 0-0.93938-0.21164-1.3078-0.63492-0.36843-0.42328-0.55265-0.98648-0.55265-1.6896 0-0.65812 0.16804-1.2284 0.50414-1.7107 0.33609-0.48234 0.81633-0.72352 1.4407-0.72352 0.34594 0 0.63563 0.07312 0.86906 0.21938zm5.1244-0.01477c0.30094 0.15047 0.53016 0.34524 0.68766 0.5843 0.15187 0.22781 0.25312 0.49359 0.30375 0.79734 0.045 0.20812 0.0675 0.54 0.0675 0.99562h-3.3117c0.0141 0.45844 0.12234 0.82617 0.32484 1.1032s0.51609 0.41555 0.94078 0.41555c0.39656 0 0.71297-0.13078 0.94922-0.39234 0.135-0.15188 0.23063-0.32766 0.28688-0.52734h0.74671c-0.0197 0.16594-0.0851 0.35086-0.19617 0.55477-0.11109 0.20391-0.23554 0.37055-0.37336 0.49992-0.23062 0.225-0.51609 0.37688-0.8564 0.45562-0.18282 0.045-0.38953 0.0675-0.62016 0.0675-0.5625 0-1.0392-0.20461-1.4302-0.61383-0.39093-0.40922-0.5864-0.98227-0.5864-1.7191 0-0.72562 0.19687-1.3148 0.59062-1.7677 0.39375-0.45281 0.90844-0.67922 1.5441-0.67922 0.32062 0 0.6314 0.07523 0.93234 0.2257zm0.27844 1.774c-0.0309-0.32906-0.10266-0.59203-0.21516-0.78891-0.20812-0.36562-0.55547-0.54844-1.042-0.54844-0.34875 0-0.64125 0.12586-0.8775 0.37758s-0.36141 0.57164-0.37547 0.95977h2.5102zm2.0826-1.8984 1.2066 3.6788 1.2614-3.6788h0.83109l-1.7044 4.5183h-0.81l-1.6664-4.5183h0.88172zm6.7627 0.12445c0.30094 0.15047 0.53015 0.34524 0.68765 0.5843 0.15188 0.22781 0.25313 0.49359 0.30375 0.79734 0.045 0.20812 0.0675 0.54 0.0675 0.99562h-3.3117c0.0141 0.45844 0.12234 0.82617 0.32484 1.1032s0.51609 0.41555 0.94078 0.41555c0.39656 0 0.71297-0.13078 0.94922-0.39234 0.135-0.15188 0.23062-0.32766 0.28687-0.52734h0.74672c-0.0197 0.16594-0.0851 0.35086-0.19617 0.55477-0.11109 0.20391-0.23554 0.37055-0.37336 0.49992-0.23062 0.225-0.51609 0.37688-0.8564 0.45562-0.18282 0.045-0.38954 0.0675-0.62016 0.0675-0.5625 0-1.0392-0.20461-1.4302-0.61383-0.39093-0.40922-0.5864-0.98227-0.5864-1.7191 0-0.72562 0.19687-1.3148 0.59062-1.7677 0.39375-0.45281 0.90844-0.67922 1.5441-0.67922 0.32063 0 0.63141 0.07523 0.93235 0.2257zm0.27844 1.774c-0.0309-0.32906-0.10266-0.59203-0.21516-0.78891-0.20813-0.36562-0.55547-0.54844-1.042-0.54844-0.34875 0-0.64125 0.12586-0.8775 0.37758s-0.36141 0.57164-0.37547 0.95977h2.5102zm1.7325-3.5775h0.75937v6.1973h-0.75937v-6.1973zm4.7201 5.1363c0.18704-0.38109 0.28055-0.80508 0.28055-1.272 0-0.42188-0.0675-0.765-0.2025-1.0294-0.21375-0.41625-0.58219-0.62438-1.1053-0.62438-0.46406 0-0.80156 0.17719-1.0125 0.53156-0.21094 0.35438-0.31641 0.78188-0.31641 1.2825 0 0.48094 0.10547 0.88172 0.31641 1.2023 0.21094 0.32062 0.54562 0.48094 1.0041 0.48094 0.50344 0 0.84867-0.19055 1.0357-0.57164zm0.47039-3.0059c0.40219 0.38812 0.60329 0.95906 0.60329 1.7128 0 0.72844-0.17719 1.3303-0.53157 1.8056-0.35437 0.47531-0.90421 0.71297-1.6495 0.71297-0.62156 0-1.1152-0.21024-1.4808-0.6307-0.36562-0.42047-0.54844-0.98508-0.54844-1.6938 0-0.75938 0.19266-1.3641 0.57797-1.8141s0.90281-0.675 1.5525-0.675c0.58219 0 1.0744 0.19406 1.4766 0.58219zm4.2954 3.1113c0.23485-0.29672 0.35227-0.74039 0.35227-1.331 0-0.36-0.052-0.66938-0.15609-0.92812-0.19688-0.49781-0.55688-0.74672-1.08-0.74672-0.52594 0-0.88594 0.26297-1.08 0.78891-0.10406 0.28125-0.1561 0.63844-0.1561 1.0716 0 0.34875 0.052 0.64547 0.1561 0.89016 0.19687 0.46688 0.55687 0.70031 1.08 0.70031 0.35437 0 0.64898-0.14836 0.88382-0.44508zm-2.8498-3.5416h0.73828v0.59906c0.15188-0.20531 0.31781-0.36422 0.49781-0.47672 0.25594-0.16875 0.55688-0.25312 0.90282-0.25312 0.51187 0 0.9464 0.19617 1.3036 0.58852 0.35719 0.39234 0.53578 0.95273 0.53578 1.6812 0 0.98438-0.25734 1.6875-0.77203 2.1094-0.32625 0.26719-0.70594 0.40078-1.1391 0.40078-0.34031 0-0.62578-0.07453-0.85641-0.22359-0.135-0.08437-0.28547-0.22922-0.4514-0.43453v2.3077h-0.75938v-6.2986z"/>
      </g>
      <g id="g15050" transform="matrix(0.72 0 0 0.72 325 54)"></g>
     </g>
    </g>
   </g>
  </g>
  <g id="g15056" transform="matrix(1.25 0 0 1.25 -508.96 106.53)"></g>
  <g id="g15060" transform="matrix(1.25 0 0 1.25 -508.96 106.53)">
   <g id="g15062" clip-path="url(#clipPath15064)"></g>
  </g>
  <g id="g15070" transform="matrix(1.25 0 0 1.25 -508.96 106.53)">
   <g id="g15072" clip-path="url(#clipPath15074)">
    <g id="g15078" clip-path="url(#clipPath15080)"></g>
   </g>
  </g>
  <g id="g15088" transform="matrix(1.25 0 0 1.25 -508.96 106.53)"></g>
  <g id="g15092" transform="matrix(1.25 0 0 1.25 -508.96 106.53)">
   <g id="g15094" clip-path="url(#clipPath15096)"></g>
  </g>
  <g id="g15104" transform="matrix(1.25 0 0 1.25 -508.96 106.53)">
   <g id="g15106" clip-path="url(#clipPath15108)">
    <g id="g15112" clip-path="url(#clipPath15114)"></g>
   </g>
  </g>
  <g id="g15120" transform="matrix(1.25 0 0 1.25 -508.96 106.53)">
   <g id="g15122" clip-path="url(#clipPath15124)">
    <g id="g15128" clip-path="url(#clipPath15130)">
     <g id="g15134" clip-path="url(#clipPath15136)"></g>
    </g>
   </g>
  </g>
  <g id="g15142" transform="matrix(1.25 0 0 1.25 -508.96 106.53)"></g>
  <g id="g15146" transform="matrix(1.25 0 0 1.25 -508.96 106.53)">
   <g id="g15148" clip-path="url(#clipPath15150)"></g>
  </g>
  <g id="g15156" transform="matrix(1.25 0 0 1.25 -508.96 106.53)">
   <g id="g15158" clip-path="url(#clipPath15160)">
    <g id="g15164" clip-path="url(#clipPath15166)"></g>
   </g>
  </g>
  <g id="g15174" transform="matrix(1.25 0 0 1.25 -508.96 106.53)"></g>
  <g id="g15178" transform="matrix(1.25 0 0 1.25 -508.96 106.53)">
   <g id="g15180" clip-path="url(#clipPath15182)"></g>
  </g>
  <g id="g15190" transform="matrix(1.25 0 0 1.25 -508.96 106.53)"></g>
 </g>
</svg>
