<?xml version="1.0" encoding="UTF-8" standalone="no"?>
<svg id="svg10777" xmlns:rdf="http://www.w3.org/1999/02/22-rdf-syntax-ns#" xmlns="http://www.w3.org/2000/svg" height="37.945mm" width="185.77mm" version="1.1" xmlns:cc="http://creativecommons.org/ns#" xmlns:dc="http://purl.org/dc/elements/1.1/" viewBox="0 0 658.24996 134.45002">
 <defs id="defs10779">
  <clipPath id="clipPath10829" clipPathUnits="userSpaceOnUse">
   <path id="path10831" d="m0 0h843v596h-843v-596z" clip-rule="evenodd"/>
  </clipPath>
  <clipPath id="clipPath10835" clipPathUnits="userSpaceOnUse">
   <path id="path10837" d="m0 0h842v595h-842v-595z" clip-rule="evenodd"/>
  </clipPath>
  <clipPath id="clipPath10849" clipPathUnits="userSpaceOnUse">
   <path id="path10851" d="m0 0h843v596h-843v-596z" clip-rule="evenodd"/>
  </clipPath>
  <clipPath id="clipPath10861" clipPathUnits="userSpaceOnUse">
   <path id="path10863" d="m0 0h843v596h-843v-596z" clip-rule="evenodd"/>
  </clipPath>
  <clipPath id="clipPath10867" clipPathUnits="userSpaceOnUse">
   <path id="path10869" d="m0 0h842v595h-842v-595z" clip-rule="evenodd"/>
  </clipPath>
  <clipPath id="clipPath10881" clipPathUnits="userSpaceOnUse">
   <path id="path10883" d="m0 0h843v596h-843v-596z" clip-rule="evenodd"/>
  </clipPath>
  <clipPath id="clipPath10893" clipPathUnits="userSpaceOnUse">
   <path id="path10895" d="m0 0h843v596h-843v-596z" clip-rule="evenodd"/>
  </clipPath>
  <clipPath id="clipPath10899" clipPathUnits="userSpaceOnUse">
   <path id="path10901" d="m0 0h842v595h-842v-595z" clip-rule="evenodd"/>
  </clipPath>
  <clipPath id="clipPath10913" clipPathUnits="userSpaceOnUse">
   <path id="path10915" d="m0 0h843v596h-843v-596z" clip-rule="evenodd"/>
  </clipPath>
  <clipPath id="clipPath10925" clipPathUnits="userSpaceOnUse">
   <path id="path10927" d="m0 0h843v596h-843v-596z" clip-rule="evenodd"/>
  </clipPath>
  <clipPath id="clipPath10931" clipPathUnits="userSpaceOnUse">
   <path id="path10933" d="m0 0h842v595h-842v-595z" clip-rule="evenodd"/>
  </clipPath>
  <clipPath id="clipPath10945" clipPathUnits="userSpaceOnUse">
   <path id="path10947" d="m0 0h843v596h-843v-596z" clip-rule="evenodd"/>
  </clipPath>
  <clipPath id="clipPath10957" clipPathUnits="userSpaceOnUse">
   <path id="path10959" d="m0 0h843v596h-843v-596z" clip-rule="evenodd"/>
  </clipPath>
  <clipPath id="clipPath10963" clipPathUnits="userSpaceOnUse">
   <path id="path10965" d="m0 0h842v595h-842v-595z" clip-rule="evenodd"/>
  </clipPath>
  <clipPath id="clipPath10977" clipPathUnits="userSpaceOnUse">
   <path id="path10979" d="m0 0h843v596h-843v-596z" clip-rule="evenodd"/>
  </clipPath>
  <clipPath id="clipPath10989" clipPathUnits="userSpaceOnUse">
   <path id="path10991" d="m0 0h843v596h-843v-596z" clip-rule="evenodd"/>
  </clipPath>
  <clipPath id="clipPath10995" clipPathUnits="userSpaceOnUse">
   <path id="path10997" d="m0 0h842v595h-842v-595z" clip-rule="evenodd"/>
  </clipPath>
  <clipPath id="clipPath11009" clipPathUnits="userSpaceOnUse">
   <path id="path11011" d="m0 0h843v596h-843v-596z" clip-rule="evenodd"/>
  </clipPath>
  <clipPath id="clipPath11021" clipPathUnits="userSpaceOnUse">
   <path id="path11023" d="m0 0h843v596h-843v-596z" clip-rule="evenodd"/>
  </clipPath>
  <clipPath id="clipPath11027" clipPathUnits="userSpaceOnUse">
   <path id="path11029" d="m0 0h842v595h-842v-595z" clip-rule="evenodd"/>
  </clipPath>
  <clipPath id="clipPath11041" clipPathUnits="userSpaceOnUse">
   <path id="path11043" d="m0 0h843v596h-843v-596z" clip-rule="evenodd"/>
  </clipPath>
  <clipPath id="clipPath11053" clipPathUnits="userSpaceOnUse">
   <path id="path11055" d="m0 0h843v596h-843v-596z" clip-rule="evenodd"/>
  </clipPath>
  <clipPath id="clipPath11059" clipPathUnits="userSpaceOnUse">
   <path id="path11061" d="m0 0h842v595h-842v-595z" clip-rule="evenodd"/>
  </clipPath>
  <clipPath id="clipPath11073" clipPathUnits="userSpaceOnUse">
   <path id="path11075" d="m0 0h843v596h-843v-596z" clip-rule="evenodd"/>
  </clipPath>
  <clipPath id="clipPath11085" clipPathUnits="userSpaceOnUse">
   <path id="path11087" d="m0 0h843v596h-843v-596z" clip-rule="evenodd"/>
  </clipPath>
  <clipPath id="clipPath11091" clipPathUnits="userSpaceOnUse">
   <path id="path11093" d="m0 0h842v595h-842v-595z" clip-rule="evenodd"/>
  </clipPath>
  <clipPath id="clipPath11101" clipPathUnits="userSpaceOnUse">
   <path id="path11103" d="m0 0h843v596h-843v-596z" clip-rule="evenodd"/>
  </clipPath>
  <clipPath id="clipPath11107" clipPathUnits="userSpaceOnUse">
   <path id="path11109" d="m0 0h842v595h-842v-595z" clip-rule="evenodd"/>
  </clipPath>
  <clipPath id="clipPath11113" clipPathUnits="userSpaceOnUse">
   <path id="path11115" d="m0 0h842v595h-842v-595z" clip-rule="evenodd"/>
  </clipPath>
  <clipPath id="clipPath11449" clipPathUnits="userSpaceOnUse">
   <path id="path11451" d="m0 0h843v596h-843v-596z" clip-rule="evenodd"/>
  </clipPath>
  <clipPath id="clipPath11459" clipPathUnits="userSpaceOnUse">
   <path id="path11461" d="m0 0h843v596h-843v-596z" clip-rule="evenodd"/>
  </clipPath>
  <clipPath id="clipPath11465" clipPathUnits="userSpaceOnUse">
   <path id="path11467" d="m0 0h842v595h-842v-595z" clip-rule="evenodd"/>
  </clipPath>
  <clipPath id="clipPath11481" clipPathUnits="userSpaceOnUse">
   <path id="path11483" d="m0 0h843v596h-843v-596z" clip-rule="evenodd"/>
  </clipPath>
  <clipPath id="clipPath11493" clipPathUnits="userSpaceOnUse">
   <path id="path11495" d="m0 0h843v596h-843v-596z" clip-rule="evenodd"/>
  </clipPath>
  <clipPath id="clipPath11499" clipPathUnits="userSpaceOnUse">
   <path id="path11501" d="m0 0h842v595h-842v-595z" clip-rule="evenodd"/>
  </clipPath>
  <clipPath id="clipPath11509" clipPathUnits="userSpaceOnUse">
   <path id="path11511" d="m0 0h843v596h-843v-596z" clip-rule="evenodd"/>
  </clipPath>
  <clipPath id="clipPath11515" clipPathUnits="userSpaceOnUse">
   <path id="path11517" d="m0 0h842v595h-842v-595z" clip-rule="evenodd"/>
  </clipPath>
  <clipPath id="clipPath11521" clipPathUnits="userSpaceOnUse">
   <path id="path11523" d="m0 0h842v595h-842v-595z" clip-rule="evenodd"/>
  </clipPath>
  <clipPath id="clipPath11535" clipPathUnits="userSpaceOnUse">
   <path id="path11537" d="m0 0h843v596h-843v-596z" clip-rule="evenodd"/>
  </clipPath>
  <clipPath id="clipPath11545" clipPathUnits="userSpaceOnUse">
   <path id="path11547" d="m0 0h843v596h-843v-596z" clip-rule="evenodd"/>
  </clipPath>
  <clipPath id="clipPath11551" clipPathUnits="userSpaceOnUse">
   <path id="path11553" d="m0 0h842v595h-842v-595z" clip-rule="evenodd"/>
  </clipPath>
  <clipPath id="clipPath11567" clipPathUnits="userSpaceOnUse">
   <path id="path11569" d="m0 0h843v596h-843v-596z" clip-rule="evenodd"/>
  </clipPath>
 </defs>
 <g id="layer1" transform="translate(607.59 -167.06)">
  <g id="g10797" transform="matrix(1.25 0 0 1.25 -652.59 149.06)"></g>
  <g id="g10801" transform="matrix(1.25 0 0 1.25 -652.59 149.06)"></g>
  <g id="g10825" transform="matrix(1.25 0 0 1.25 -652.59 149.06)">
   <g id="g10827" clip-path="url(#clipPath10829)">
    <g id="g10833" clip-path="url(#clipPath10835)"></g>
   </g>
  </g>
  <g id="g10841" transform="matrix(1.25 0 0 1.25 -652.59 149.06)"></g>
  <g id="g10845" transform="matrix(1.25 0 0 1.25 -652.59 149.06)">
   <g id="g10847" clip-path="url(#clipPath10849)"></g>
  </g>
  <g id="g10857" transform="matrix(1.25 0 0 1.25 -652.59 149.06)">
   <g id="g10859" clip-path="url(#clipPath10861)">
    <g id="g10865" clip-path="url(#clipPath10867)"></g>
   </g>
  </g>
  <g id="g10873" transform="matrix(1.25 0 0 1.25 -652.59 149.06)"></g>
  <g id="g10877" transform="matrix(1.25 0 0 1.25 -652.59 149.06)">
   <g id="g10879" clip-path="url(#clipPath10881)"></g>
  </g>
  <g id="g10889" transform="matrix(1.25 0 0 1.25 -652.59 149.06)">
   <g id="g10891" clip-path="url(#clipPath10893)">
    <g id="g10897" clip-path="url(#clipPath10899)"></g>
   </g>
  </g>
  <g id="g10905" transform="matrix(1.25 0 0 1.25 -652.59 149.06)"></g>
  <g id="g10909" transform="matrix(1.25 0 0 1.25 -652.59 149.06)">
   <g id="g10911" clip-path="url(#clipPath10913)"></g>
  </g>
  <g id="g10921" transform="matrix(1.25 0 0 1.25 -652.59 149.06)">
   <g id="g10923" clip-path="url(#clipPath10925)">
    <g id="g10929" clip-path="url(#clipPath10931)"></g>
   </g>
  </g>
  <g id="g10937" transform="matrix(1.25 0 0 1.25 -652.59 149.06)"></g>
  <g id="g10941" transform="matrix(1.25 0 0 1.25 -652.59 149.06)">
   <g id="g10943" clip-path="url(#clipPath10945)"></g>
  </g>
  <g id="g10953" transform="matrix(1.25 0 0 1.25 -652.59 149.06)">
   <g id="g10955" clip-path="url(#clipPath10957)">
    <g id="g10961" clip-path="url(#clipPath10963)"></g>
   </g>
  </g>
  <g id="g10969" transform="matrix(1.25 0 0 1.25 -652.59 149.06)"></g>
  <g id="g10973" transform="matrix(1.25 0 0 1.25 -652.59 149.06)">
   <g id="g10975" clip-path="url(#clipPath10977)"></g>
  </g>
  <g id="g10985" transform="matrix(1.25 0 0 1.25 -652.59 149.06)">
   <g id="g10987" clip-path="url(#clipPath10989)">
    <g id="g10993" clip-path="url(#clipPath10995)"></g>
   </g>
  </g>
  <g id="g11001" transform="matrix(1.25 0 0 1.25 -652.59 149.06)"></g>
  <g id="g11005" transform="matrix(1.25 0 0 1.25 -652.59 149.06)">
   <g id="g11007" clip-path="url(#clipPath11009)"></g>
  </g>
  <g id="g11017" transform="matrix(1.25 0 0 1.25 -652.59 149.06)">
   <g id="g11019" clip-path="url(#clipPath11021)">
    <g id="g11025" clip-path="url(#clipPath11027)"></g>
   </g>
  </g>
  <g id="g11033" transform="matrix(1.25 0 0 1.25 -652.59 149.06)"></g>
  <g id="g11037" transform="matrix(1.25 0 0 1.25 -652.59 149.06)">
   <g id="g11039" clip-path="url(#clipPath11041)"></g>
  </g>
  <g id="g11049" transform="matrix(1.25 0 0 1.25 -652.59 149.06)">
   <g id="g11051" clip-path="url(#clipPath11053)">
    <g id="g11057" clip-path="url(#clipPath11059)"></g>
   </g>
  </g>
  <g id="g11065" transform="matrix(1.25 0 0 1.25 -652.59 149.06)"></g>
  <g id="g11069" transform="matrix(1.25 0 0 1.25 -652.59 149.06)">
   <g id="g11071" clip-path="url(#clipPath11073)"></g>
  </g>
  <g id="g11081" transform="matrix(1.25 0 0 1.25 -652.59 149.06)">
   <g id="g11083" clip-path="url(#clipPath11085)">
    <g id="g11089" clip-path="url(#clipPath11091)"></g>
   </g>
  </g>
  <g id="g11097" transform="matrix(1.25 0 0 1.25 -652.59 149.06)">
   <g id="g11099" clip-path="url(#clipPath11101)">
    <g id="g11105" clip-path="url(#clipPath11107)">
     <g id="g11111" clip-path="url(#clipPath11113)">
      <g id="g11119" transform="translate(.5 .5)">
       <path id="path11121" d="m345.6 106.56h-38.62" stroke="#000" stroke-miterlimit="10" fill="none"/>
      </g>
      <g id="g11123">
       <path id="path11125" d="m303.7 107.06 5.04-2.52-1.26 2.52 1.26 2.52-5.04-2.52z"/>
      </g>
      <g id="g11127" transform="translate(.5 .5)">
       <path id="path11129" d="m303.2 106.56 5.04-2.52-1.26 2.52 1.26 2.52-5.04-2.52z" stroke="#000" stroke-miterlimit="10" fill="none"/>
      </g>
      <g id="g11135">
       <path id="path11137" d="m350.42 92.66h56.16c2.3859 0 4.32 1.9341 4.32 4.32v20.16c0 2.3859-1.9341 4.32-4.32 4.32h-56.16c-2.3859 0-4.32-1.9341-4.32-4.32v-20.16c0-2.3859 1.9341-4.32 4.32-4.32z" fill="#fff"/>
      </g>
      <g id="g11139" transform="translate(.5 .5)">
       <path id="path11141" d="m349.92 92.16h56.16c2.3859 0 4.32 1.9341 4.32 4.32v20.16c0 2.3859-1.9341 4.32-4.32 4.32h-56.16c-2.3859 0-4.32-1.9341-4.32-4.32v-20.16c0-2.3859 1.9341-4.32 4.32-4.32z" stroke="#000" stroke-miterlimit="10" fill="none"/>
      </g>
      <g id="g11145" transform="matrix(0.72 0 0 0.72 356 100)"></g>
      <g id="g11149">
       <path id="path11151" d="m356.86 108.83c-0.40254-0.49043-0.60381-1.0872-0.60381-1.7903h0.9914c0.0422 0.48867 0.1336 0.84375 0.27422 1.0652 0.2461 0.39727 0.69082 0.5959 1.3342 0.5959 0.49922 0 0.9-0.13359 1.2024-0.40078 0.30234-0.26719 0.45351-0.61172 0.45351-1.0336 0-0.52031-0.15908-0.88417-0.47724-1.0916-0.31817-0.20742-0.76026-0.31113-1.3263-0.31113-0.0633 0-0.12745 0.00088-0.19248 0.003-0.065 0.002-0.13096 0.004-0.19776 0.008v-0.83848c0.0984 0.0105 0.18106 0.0176 0.24785 0.0211 0.0668 0.004 0.13887 0.005 0.21621 0.005 0.35508 0 0.64688-0.0563 0.8754-0.16875 0.40078-0.19688 0.60117-0.54844 0.60117-1.0547 0-0.37617-0.1336-0.66621-0.40078-0.87012-0.26719-0.2039-0.57833-0.30586-0.9334-0.30586-0.63282 0-1.0705 0.21094-1.3131 0.63282-0.13359 0.23203-0.20918 0.5625-0.22676 0.9914h-0.93867c0-0.5625 0.1125-1.0406 0.3375-1.4344 0.38672-0.70313 1.067-1.0547 2.0408-1.0547 0.76992 0 1.3658 0.17139 1.7877 0.51416 0.42187 0.34277 0.63281 0.83936 0.63281 1.4898 0 0.46406-0.1248 0.84023-0.37441 1.1285-0.15469 0.1793-0.35508 0.31992-0.60118 0.42188 0.39727 0.10898 0.70752 0.31904 0.93076 0.63017 0.22325 0.31114 0.33487 0.6917 0.33487 1.1417 0 0.72071-0.23731 1.3078-0.71192 1.7613-0.4746 0.45351-1.1478 0.68027-2.0197 0.68027-0.89297 0-1.5407-0.24521-1.9433-0.73564zm9.0522-4.2082c0.23555-0.23379 0.35332-0.51241 0.35332-0.83584 0-0.28125-0.1125-0.53965-0.3375-0.7752s-0.56777-0.35332-1.0283-0.35332c-0.45703 0-0.7875 0.11777-0.9914 0.35332-0.20391 0.23555-0.30586 0.51152-0.30586 0.82793 0 0.35508 0.13183 0.63281 0.3955 0.8332 0.26368 0.20039 0.57481 0.30059 0.9334 0.30059 0.41836 0 0.74532-0.1169 0.98086-0.35068zm0.17139 3.7336c0.29004-0.2373 0.43506-0.5915 0.43506-1.0626 0-0.48867-0.14942-0.85957-0.44824-1.1127-0.29883-0.25313-0.68204-0.37969-1.1496-0.37969-0.45352 0-0.82354 0.1292-1.1101 0.3876-0.28653 0.2584-0.42979 0.61611-0.42979 1.0731 0 0.39375 0.13096 0.73389 0.39287 1.0204 0.26192 0.28653 0.66709 0.42979 1.2155 0.42979 0.43945 0 0.8042-0.11866 1.0942-0.35596zm-3.0612-3.4146c-0.27774-0.28125-0.4166-0.64688-0.4166-1.0969 0-0.5625 0.2039-1.0459 0.61172-1.4502 0.40781-0.4043 0.98613-0.60645 1.735-0.60645 0.72422 0 1.292 0.19073 1.7033 0.57217 0.41133 0.38145 0.61699 0.82705 0.61699 1.3368 0 0.47109-0.11953 0.85254-0.35859 1.1443-0.1336 0.16524-0.34102 0.32696-0.62227 0.48516 0.31289 0.14414 0.55899 0.30937 0.73828 0.4957 0.33399 0.35156 0.50098 0.8086 0.50098 1.3711 0 0.66445-0.22324 1.2278-0.66973 1.6901-0.44648 0.46231-1.0775 0.69346-1.8932 0.69346-0.73477 0-1.3562-0.19951-1.8642-0.59853-0.50801-0.39903-0.76201-0.97823-0.76201-1.7376 0-0.44649 0.10898-0.83233 0.32695-1.1575 0.21797-0.3252 0.5414-0.57393 0.97031-0.74619-0.26367-0.1125-0.46933-0.24434-0.61699-0.39551zm6.107-2.9531c0.22149-0.32343 0.64863-0.48515 1.2814-0.48515 0.0598 0 0.12129 0.002 0.18457 0.005 0.0633 0.004 0.13535 0.009 0.21621 0.0158v0.86484c-0.0984-0.007-0.16963-0.0114-0.21358-0.0132-0.0439-0.002-0.0853-0.003-0.12392-0.003-0.28828 0-0.46055 0.0747-0.5168 0.22413-0.0563 0.14941-0.0844 0.52998-0.0844 1.1417h0.93867v0.74882h-0.94922v4.8727h-0.93867v-4.8727h-0.78575v-0.74882h0.78575v-0.88594c0.0141-0.39375 0.0826-0.68203 0.20566-0.86485zm2.887 2.025v-0.72773c0.68555-0.0668 1.1637-0.17842 1.4344-0.33486 0.2707-0.15645 0.47285-0.52647 0.60644-1.1101h0.74883v7.5199h-1.0125v-5.3473h-1.7772zm8.5328 2.6736v-3.4225l-2.4205 3.4225h2.4205zm0.0158 2.6736v-1.8457h-3.3117v-0.92813l3.4594-4.7988h0.80156v4.899h1.1127v0.82793h-1.1127v1.8457h-0.94921zm7.3331-6.9267c0.33223 0.43769 0.49834 0.88857 0.49834 1.3526h-0.93867c-0.0563-0.29883-0.1459-0.53262-0.26895-0.70137-0.22851-0.31641-0.5748-0.47461-1.0389-0.47461-0.53086 0-0.95274 0.24521-1.2656 0.73564-0.31289 0.49043-0.48691 1.1927-0.52207 2.1067 0.21797-0.31992 0.49219-0.55898 0.82266-0.71718 0.30234-0.14063 0.63984-0.21094 1.0125-0.21094 0.63281 0 1.1848 0.20215 1.6559 0.60644 0.47109 0.4043 0.70664 1.0072 0.70664 1.8088 0 0.68555-0.22324 1.2929-0.66973 1.822-0.44648 0.52911-1.0828 0.79366-1.909 0.79366-0.70664 0-1.3166-0.26807-1.8299-0.8042-0.51329-0.53614-0.76993-1.4388-0.76993-2.7079 0-0.93868 0.11426-1.735 0.34278-2.3889 0.43945-1.2516 1.2428-1.8773 2.41-1.8773 0.84375 0 1.4317 0.21884 1.764 0.65654zm-0.71191 5.7744c0.24785-0.33574 0.37177-0.73213 0.37177-1.1892 0-0.38672-0.11074-0.75498-0.33222-1.1048-0.22149-0.34981-0.62402-0.52471-1.2076-0.52471-0.40781 0-0.76553 0.13535-1.0731 0.40606-0.30762 0.2707-0.46143 0.67851-0.46143 1.2234 0 0.47813 0.13975 0.87979 0.41924 1.205 0.27949 0.3252 0.66709 0.4878 1.1628 0.4878 0.49922 0 0.87276-0.16787 1.1206-0.50362zm6.7082-5.7744c0.33223 0.43769 0.49834 0.88857 0.49834 1.3526h-0.93867c-0.0562-0.29883-0.1459-0.53262-0.26895-0.70137-0.22851-0.31641-0.5748-0.47461-1.0389-0.47461-0.53086 0-0.95274 0.24521-1.2656 0.73564-0.31289 0.49043-0.48691 1.1927-0.52207 2.1067 0.21797-0.31992 0.49219-0.55898 0.82266-0.71718 0.30234-0.14063 0.63984-0.21094 1.0125-0.21094 0.63281 0 1.1848 0.20215 1.6559 0.60644 0.47109 0.4043 0.70664 1.0072 0.70664 1.8088 0 0.68555-0.22324 1.2929-0.66973 1.822-0.44648 0.52911-1.0828 0.79366-1.909 0.79366-0.70664 0-1.3166-0.26807-1.8299-0.8042-0.51329-0.53614-0.76993-1.4388-0.76993-2.7079 0-0.93868 0.11426-1.735 0.34278-2.3889 0.43945-1.2516 1.2428-1.8773 2.41-1.8773 0.84375 0 1.4317 0.21884 1.764 0.65654zm-0.71191 5.7744c0.24785-0.33574 0.37177-0.73213 0.37177-1.1892 0-0.38672-0.11074-0.75498-0.33222-1.1048-0.22149-0.34981-0.62403-0.52471-1.2076-0.52471-0.40781 0-0.76553 0.13535-1.0731 0.40606-0.30762 0.2707-0.46143 0.67851-0.46143 1.2234 0 0.47813 0.13975 0.87979 0.41924 1.205 0.27949 0.3252 0.66709 0.4878 1.1628 0.4878 0.49922 0 0.87276-0.16787 1.1206-0.50362zm2.9245-6.22c0.22148-0.32343 0.64863-0.48515 1.2814-0.48515 0.0598 0 0.12128 0.002 0.18457 0.005 0.0633 0.004 0.13535 0.009 0.21621 0.0158v0.86484c-0.0984-0.007-0.16963-0.0114-0.21358-0.0132-0.0439-0.002-0.0853-0.003-0.12392-0.003-0.28828 0-0.46055 0.0747-0.5168 0.22413-0.0562 0.14941-0.0844 0.52998-0.0844 1.1417h0.93867v0.74882h-0.94922v4.8727h-0.93867v-4.8727h-0.78575v-0.74882h0.78575v-0.88594c0.0141-0.39375 0.0826-0.68203 0.20566-0.86485z"/>
      </g>
      <g id="g11153" transform="matrix(0.72 0 0 0.72 356 100)"></g>
      <g id="g11161">
       <path id="path11163" d="m242.42 92.66h56.16c2.3859 0 4.32 1.9341 4.32 4.32v20.16c0 2.3859-1.9341 4.32-4.32 4.32h-56.16c-2.3859 0-4.32-1.9341-4.32-4.32v-20.16c0-2.3859 1.9341-4.32 4.32-4.32z" fill="#fff"/>
      </g>
      <g id="g11165" transform="translate(.5 .5)">
       <path id="path11167" d="m241.92 92.16h56.16c2.3859 0 4.32 1.9341 4.32 4.32v20.16c0 2.3859-1.9341 4.32-4.32 4.32h-56.16c-2.3859 0-4.32-1.9341-4.32-4.32v-20.16c0-2.3859 1.9341-4.32 4.32-4.32z" stroke="#000" stroke-miterlimit="10" fill="none"/>
      </g>
      <g id="g11171" transform="matrix(0.72 0 0 0.72 248 100)"></g>
      <g id="g11175">
       <path id="path11177" d="m250.4 108.12c0.25664 0.40781 0.66796 0.61172 1.234 0.61172 0.43945 0 0.80068-0.18896 1.0837-0.56689 0.28301-0.37793 0.42451-0.92022 0.42451-1.6269 0-0.71367-0.1459-1.2419-0.43769-1.5847-0.2918-0.34277-0.65215-0.51416-1.0811-0.51416-0.47812 0-0.86572 0.18281-1.1628 0.54844-0.29707 0.36562-0.44561 0.90352-0.44561 1.6137 0 0.60469 0.12832 1.1109 0.38497 1.5188zm2.1305-4.2346c0.16875 0.10547 0.36036 0.29004 0.57481 0.55371v-2.8529h0.9123v7.773h-0.85429v-0.78574c-0.22149 0.34804-0.4834 0.59941-0.78575 0.7541-0.30234 0.15469-0.64863 0.23203-1.0389 0.23203-0.6293 0-1.1742-0.26455-1.6348-0.79365-0.46055-0.5291-0.69082-1.2331-0.69082-2.112 0-0.82266 0.21006-1.5354 0.63018-2.1384 0.42011-0.60293 1.0204-0.9044 1.8009-0.9044 0.43242 0 0.79453 0.0914 1.0863 0.27422zm3.6179 3.6492c0.0281 0.52383 0.23028 0.88594 0.60645 1.0863 0.19336 0.10547 0.41133 0.1582 0.65391 0.1582 0.45351 0 0.84023-0.18896 1.1602-0.56689 0.31992-0.37793 0.54668-1.1452 0.68027-2.3019-0.21093 0.33399-0.47197 0.56865-0.7831 0.704-0.31113 0.13536-0.646 0.20303-1.0046 0.20303-0.72773 0-1.3034-0.22675-1.727-0.68027-0.42363-0.45352-0.63545-1.0371-0.63545-1.7508 0-0.68555 0.20918-1.2885 0.62754-1.8088 0.41836-0.52031 1.0354-0.78047 1.851-0.78047 1.1004 0 1.8598 0.4957 2.2781 1.4871 0.23203 0.54492 0.34805 1.227 0.34805 2.0461 0 0.92461-0.13887 1.7438-0.4166 2.4574-0.46055 1.1883-1.241 1.7824-2.3414 1.7824-0.73828 0-1.299-0.19336-1.6822-0.58008s-0.5748-0.87188-0.5748-1.4555h0.95976zm2.4706-1.9222c0.31113-0.24785 0.4667-0.68115 0.4667-1.2999 0-0.55547-0.13975-0.96943-0.41924-1.2419s-0.63545-0.4087-1.0679-0.4087c-0.46406 0-0.83233 0.15557-1.1048 0.4667-0.27246 0.31114-0.40869 0.72686-0.40869 1.2472 0 0.49219 0.11953 0.8833 0.3586 1.1733 0.23906 0.29004 0.6205 0.43506 1.1443 0.43506 0.37617 0 0.71983-0.12393 1.031-0.37178zm2.7135-4.0263h0.92286v2.8108c0.20742-0.27071 0.45527-0.47725 0.74355-0.61963 0.28828-0.14239 0.60117-0.21358 0.93867-0.21358 0.70313 0 1.2735 0.2417 1.7112 0.7251s0.65655 1.1962 0.65655 2.1384c0 0.89297-0.21622 1.6348-0.64864 2.2254-0.43242 0.59062-1.0318 0.88594-1.7982 0.88594-0.42891 0-0.79102-0.10371-1.0863-0.31114-0.17578-0.12304-0.36386-0.31992-0.56426-0.59062v0.72246h-0.87539v-7.773zm3.6202 6.5022c0.25488-0.40781 0.38232-0.9457 0.38232-1.6137 0-0.59414-0.12744-1.0863-0.38232-1.4766-0.25488-0.39024-0.63018-0.58535-1.1259-0.58535-0.43242 0-0.81123 0.15996-1.1364 0.47988-0.32519 0.31992-0.48779 0.84726-0.48779 1.582 0 0.53086 0.0668 0.96152 0.20039 1.292 0.24961 0.62227 0.71543 0.9334 1.3975 0.9334 0.51328 0 0.89737-0.20391 1.1522-0.61172zm3.088-0.65391c0.0633 0.54141 0.31465 0.91583 0.7541 1.1232 0.225 0.10547 0.48516 0.1582 0.78047 0.1582 0.5625 0 0.9791-0.1793 1.2498-0.53789 0.27071-0.35859 0.40606-0.75586 0.40606-1.1918 0-0.52734-0.16084-0.93515-0.48252-1.2234-0.32168-0.28829-0.70752-0.43243-1.1575-0.43243-0.32695 0-0.60733 0.0633-0.84111 0.18985-0.23379 0.12656-0.43331 0.30234-0.59854 0.52734l-0.82266-0.0475 0.57481-4.0658h3.9234v0.91758h-3.2115l-0.32168 2.0988c0.17578-0.1336 0.34278-0.23379 0.50098-0.30059 0.28125-0.11602 0.60644-0.17402 0.97559-0.17402 0.69257 0 1.2797 0.22324 1.7613 0.66972 0.48164 0.44649 0.72246 1.0125 0.72246 1.698 0 0.71367-0.2206 1.343-0.66181 1.8879-0.44121 0.54492-1.1452 0.81738-2.112 0.81738-0.61524 0-1.1593-0.17314-1.6321-0.51943-0.47285-0.34629-0.7374-0.87803-0.79365-1.5952h0.98613zm10.31-5.5002v0.82793c-0.24258 0.23555-0.56514 0.64512-0.96768 1.2287-0.40254 0.58359-0.75849 1.2129-1.0679 1.8879-0.30586 0.65742-0.53789 1.2568-0.69609 1.7982-0.10195 0.34805-0.23379 0.90879-0.39551 1.6822h-1.0494c0.23906-1.4414 0.7664-2.8758 1.582-4.3031 0.48164-0.83671 0.98789-1.5592 1.5188-2.1674h-4.1766v-0.95449h5.2523zm5.2712 0.49834c0.33223 0.43769 0.49834 0.88857 0.49834 1.3526h-0.93867c-0.0563-0.29883-0.1459-0.53262-0.26895-0.70137-0.22851-0.31641-0.5748-0.47461-1.0389-0.47461-0.53086 0-0.95274 0.24521-1.2656 0.73564-0.31289 0.49043-0.48691 1.1927-0.52207 2.1067 0.21797-0.31992 0.49219-0.55898 0.82266-0.71718 0.30234-0.14063 0.63984-0.21094 1.0125-0.21094 0.63281 0 1.1848 0.20215 1.6559 0.60644 0.47109 0.4043 0.70664 1.0072 0.70664 1.8088 0 0.68555-0.22324 1.2929-0.66973 1.822-0.44648 0.52911-1.0828 0.79366-1.909 0.79366-0.70664 0-1.3166-0.26807-1.8299-0.8042-0.51328-0.53614-0.76992-1.4388-0.76992-2.7079 0-0.93868 0.11426-1.735 0.34278-2.3889 0.43945-1.2516 1.2428-1.8773 2.41-1.8773 0.84375 0 1.4317 0.21884 1.764 0.65654zm-0.71191 5.7744c0.24785-0.33574 0.37177-0.73213 0.37177-1.1892 0-0.38672-0.11074-0.75498-0.33222-1.1048-0.22149-0.34981-0.62403-0.52471-1.2076-0.52471-0.40781 0-0.76553 0.13535-1.0731 0.40606-0.30762 0.2707-0.46143 0.67851-0.46143 1.2234 0 0.47813 0.13975 0.87979 0.41924 1.205 0.27949 0.3252 0.66709 0.4878 1.1628 0.4878 0.49922 0 0.87276-0.16787 1.1206-0.50362zm2.9245-6.22c0.22148-0.32343 0.64863-0.48515 1.2814-0.48515 0.0598 0 0.12128 0.002 0.18457 0.005 0.0633 0.004 0.13535 0.009 0.21621 0.0158v0.86484c-0.0984-0.007-0.16963-0.0114-0.21358-0.0132-0.0439-0.002-0.0852-0.003-0.12392-0.003-0.28828 0-0.46055 0.0747-0.5168 0.22413-0.0562 0.14941-0.0844 0.52998-0.0844 1.1417h0.93868v0.74882h-0.94922v4.8727h-0.93867v-4.8727h-0.78575v-0.74882h0.78575v-0.88594c0.0141-0.39375 0.0826-0.68203 0.20566-0.86485zm6.2805 2.025c0.39902 0.30938 0.63896 0.842 0.71982 1.5979h-0.92285c-0.0562-0.34805-0.18457-0.63721-0.38496-0.86748-0.20039-0.23028-0.52207-0.34541-0.96504-0.34541-0.60469 0-1.0371 0.29531-1.2973 0.88593-0.16875 0.3832-0.25313 0.85606-0.25313 1.4186 0 0.56601 0.11953 1.0424 0.35859 1.4291 0.23907 0.38672 0.61524 0.58008 1.1285 0.58008 0.39375 0 0.70576-0.12041 0.93603-0.36123 0.23028-0.24082 0.38936-0.57041 0.47725-0.98877h0.92285c-0.10547 0.74882-0.36914 1.2964-0.79101 1.6427-0.42188 0.34629-0.96153 0.51944-1.619 0.51944-0.73828 0-1.3272-0.26983-1.7666-0.80948-0.43945-0.53965-0.65918-1.2138-0.65918-2.0224 0-0.99141 0.24082-1.7631 0.72246-2.315 0.48164-0.55195 1.0951-0.82793 1.8404-0.82793 0.63633 0 1.154 0.15469 1.553 0.46406z"/>
      </g>
      <g id="g11179" transform="matrix(0.72 0 0 0.72 248 100)"></g>
      <g id="g11185" transform="translate(.5 .5)">
       <path id="path11187" d="m133.2 106.56h-27.82" stroke="#000" stroke-miterlimit="10" fill="none"/>
      </g>
      <g id="g11189">
       <path id="path11191" d="m102.1 107.06 5.04-2.52-1.26 2.52 1.26 2.52-5.04-2.52z"/>
      </g>
      <g id="g11193" transform="translate(.5 .5)">
       <path id="path11195" d="m101.6 106.56 5.04-2.52-1.26 2.52 1.26 2.52-5.04-2.52z" stroke="#000" stroke-miterlimit="10" fill="none"/>
      </g>
      <g id="g11201">
       <path id="path11203" d="m138.02 92.66h56.16c2.3859 0 4.32 1.9341 4.32 4.32v20.16c0 2.3859-1.9341 4.32-4.32 4.32h-56.16c-2.3859 0-4.32-1.9341-4.32-4.32v-20.16c0-2.3859 1.9341-4.32 4.32-4.32z" fill="#fff"/>
      </g>
      <g id="g11205" transform="translate(.5 .5)">
       <path id="path11207" d="m137.52 92.16h56.16c2.3859 0 4.32 1.9341 4.32 4.32v20.16c0 2.3859-1.9341 4.32-4.32 4.32h-56.16c-2.3859 0-4.32-1.9341-4.32-4.32v-20.16c0-2.3859 1.9341-4.32 4.32-4.32z" stroke="#000" stroke-miterlimit="10" fill="none"/>
      </g>
      <g id="g11211" transform="matrix(0.72 0 0 0.72 145 100)"></g>
      <g id="g11215">
       <path id="path11217" d="m145.62 101.59h0.92286v2.8108c0.20742-0.27071 0.45527-0.47725 0.74355-0.61963 0.28828-0.14239 0.60117-0.21358 0.93867-0.21358 0.70313 0 1.2735 0.2417 1.7112 0.7251s0.65655 1.1962 0.65655 2.1384c0 0.89297-0.21621 1.6348-0.64864 2.2254-0.43242 0.59062-1.0318 0.88594-1.7982 0.88594-0.42891 0-0.79101-0.10371-1.0863-0.31114-0.17578-0.12304-0.36386-0.31992-0.56425-0.59062v0.72246h-0.8754v-7.773zm3.6202 6.5022c0.25488-0.40781 0.38232-0.9457 0.38232-1.6137 0-0.59414-0.12744-1.0863-0.38232-1.4766-0.25488-0.39024-0.63018-0.58535-1.1259-0.58535-0.43242 0-0.81123 0.15996-1.1364 0.47988-0.32519 0.31992-0.48779 0.84726-0.48779 1.582 0 0.53086 0.0668 0.96152 0.20039 1.292 0.24961 0.62227 0.71543 0.9334 1.3975 0.9334 0.51328 0 0.89737-0.20391 1.1522-0.61172zm3.088-0.65391c0.0633 0.54141 0.31465 0.91583 0.7541 1.1232 0.225 0.10547 0.48516 0.1582 0.78047 0.1582 0.5625 0 0.9791-0.1793 1.2498-0.53789 0.27071-0.35859 0.40606-0.75586 0.40606-1.1918 0-0.52734-0.16084-0.93515-0.48252-1.2234-0.32168-0.28829-0.70752-0.43243-1.1575-0.43243-0.32695 0-0.60733 0.0633-0.84111 0.18985-0.23379 0.12656-0.43331 0.30234-0.59854 0.52734l-0.82266-0.0475 0.57481-4.0658h3.9234v0.91758h-3.2115l-0.32168 2.0988c0.17578-0.1336 0.34278-0.23379 0.50098-0.30059 0.28125-0.11602 0.60645-0.17402 0.97559-0.17402 0.69257 0 1.2797 0.22324 1.7613 0.66972 0.48164 0.44649 0.72246 1.0125 0.72246 1.698 0 0.71367-0.2206 1.343-0.66181 1.8879-0.44121 0.54492-1.1452 0.81738-2.112 0.81738-0.61524 0-1.1593-0.17314-1.6321-0.51943-0.47285-0.34629-0.7374-0.87803-0.79365-1.5952h0.98613zm8.5802-2.8134c0.23555-0.23379 0.35332-0.51241 0.35332-0.83584 0-0.28125-0.1125-0.53965-0.3375-0.7752s-0.56777-0.35332-1.0283-0.35332c-0.45703 0-0.7875 0.11777-0.9914 0.35332-0.20391 0.23555-0.30586 0.51152-0.30586 0.82793 0 0.35508 0.13183 0.63281 0.3955 0.8332 0.26368 0.20039 0.57481 0.30059 0.9334 0.30059 0.41836 0 0.74532-0.1169 0.98086-0.35068zm0.17139 3.7336c0.29004-0.2373 0.43506-0.5915 0.43506-1.0626 0-0.48867-0.14942-0.85957-0.44824-1.1127-0.29883-0.25313-0.68203-0.37969-1.1496-0.37969-0.45352 0-0.82354 0.1292-1.1101 0.3876-0.28653 0.2584-0.42979 0.61611-0.42979 1.0731 0 0.39375 0.13096 0.73389 0.39287 1.0204 0.26192 0.28653 0.66709 0.42979 1.2155 0.42979 0.43945 0 0.8042-0.11866 1.0942-0.35596zm-3.0612-3.4146c-0.27774-0.28125-0.4166-0.64688-0.4166-1.0969 0-0.5625 0.2039-1.0459 0.61172-1.4502 0.40781-0.4043 0.98613-0.60645 1.735-0.60645 0.72422 0 1.292 0.19073 1.7033 0.57217 0.41133 0.38145 0.61699 0.82705 0.61699 1.3368 0 0.47109-0.11953 0.85254-0.35859 1.1443-0.1336 0.16524-0.34102 0.32696-0.62227 0.48516 0.31289 0.14414 0.55898 0.30937 0.73828 0.4957 0.33399 0.35156 0.50098 0.8086 0.50098 1.3711 0 0.66445-0.22324 1.2278-0.66973 1.6901-0.44648 0.46231-1.0775 0.69346-1.8932 0.69346-0.73477 0-1.3562-0.19951-1.8642-0.59853-0.50801-0.39903-0.76201-0.97823-0.76201-1.7376 0-0.44649 0.10898-0.83233 0.32695-1.1575 0.21797-0.3252 0.5414-0.57393 0.97031-0.74619-0.26367-0.1125-0.46934-0.24434-0.61699-0.39551zm8.8861-0.31904c0.23555-0.23379 0.35332-0.51241 0.35332-0.83584 0-0.28125-0.1125-0.53965-0.3375-0.7752s-0.56777-0.35332-1.0283-0.35332c-0.45703 0-0.7875 0.11777-0.9914 0.35332-0.20391 0.23555-0.30586 0.51152-0.30586 0.82793 0 0.35508 0.13183 0.63281 0.3955 0.8332 0.26368 0.20039 0.57481 0.30059 0.9334 0.30059 0.41836 0 0.74532-0.1169 0.98086-0.35068zm0.17139 3.7336c0.29004-0.2373 0.43506-0.5915 0.43506-1.0626 0-0.48867-0.14942-0.85957-0.44824-1.1127-0.29883-0.25313-0.68204-0.37969-1.1496-0.37969-0.45352 0-0.82354 0.1292-1.1101 0.3876-0.28653 0.2584-0.42979 0.61611-0.42979 1.0731 0 0.39375 0.13096 0.73389 0.39287 1.0204 0.26192 0.28653 0.66709 0.42979 1.2155 0.42979 0.43945 0 0.8042-0.11866 1.0942-0.35596zm-3.0612-3.4146c-0.27774-0.28125-0.4166-0.64688-0.4166-1.0969 0-0.5625 0.2039-1.0459 0.61172-1.4502 0.40781-0.4043 0.98613-0.60645 1.735-0.60645 0.72422 0 1.292 0.19073 1.7033 0.57217 0.41132 0.38145 0.61699 0.82705 0.61699 1.3368 0 0.47109-0.11953 0.85254-0.35859 1.1443-0.1336 0.16524-0.34102 0.32696-0.62227 0.48516 0.31289 0.14414 0.55898 0.30937 0.73828 0.4957 0.33399 0.35156 0.50098 0.8086 0.50098 1.3711 0 0.66445-0.22324 1.2278-0.66973 1.6901-0.44648 0.46231-1.0775 0.69346-1.8932 0.69346-0.73477 0-1.3562-0.19951-1.8642-0.59853-0.50801-0.39903-0.76201-0.97823-0.76201-1.7376 0-0.44649 0.10898-0.83233 0.32695-1.1575 0.21797-0.3252 0.5414-0.57393 0.97031-0.74619-0.26367-0.1125-0.46934-0.24434-0.61699-0.39551zm6.107-2.9531c0.22148-0.32343 0.64863-0.48515 1.2814-0.48515 0.0598 0 0.12128 0.002 0.18457 0.005 0.0633 0.004 0.13535 0.009 0.21621 0.0158v0.86484c-0.0984-0.007-0.16963-0.0114-0.21358-0.0132-0.0439-0.002-0.0853-0.003-0.12392-0.003-0.28828 0-0.46055 0.0747-0.5168 0.22413-0.0563 0.14941-0.0844 0.52998-0.0844 1.1417h0.93867v0.74882h-0.94922v4.8727h-0.93867v-4.8727h-0.78575v-0.74882h0.78575v-0.88594c0.0141-0.39375 0.0826-0.68203 0.20566-0.86485zm2.9925 0c0.22149-0.32343 0.64863-0.48515 1.2814-0.48515 0.0598 0 0.12128 0.002 0.18457 0.005 0.0633 0.004 0.13535 0.009 0.21621 0.0158v0.86484c-0.0984-0.007-0.16963-0.0114-0.21358-0.0132-0.0439-0.002-0.0853-0.003-0.12392-0.003-0.28828 0-0.46055 0.0747-0.5168 0.22413-0.0563 0.14941-0.0844 0.52998-0.0844 1.1417h0.93868v0.74882h-0.94922v4.8727h-0.93867v-4.8727h-0.78575v-0.74882h0.78575v-0.88594c0.0141-0.39375 0.0826-0.68203 0.20566-0.86485zm6.7762 0.44561c0.33223 0.43769 0.49834 0.88857 0.49834 1.3526h-0.93867c-0.0562-0.29883-0.1459-0.53262-0.26895-0.70137-0.22851-0.31641-0.5748-0.47461-1.0389-0.47461-0.53086 0-0.95274 0.24521-1.2656 0.73564-0.31289 0.49043-0.48691 1.1927-0.52207 2.1067 0.21797-0.31992 0.49219-0.55898 0.82266-0.71718 0.30234-0.14063 0.63984-0.21094 1.0125-0.21094 0.63281 0 1.1848 0.20215 1.6559 0.60644 0.47109 0.4043 0.70664 1.0072 0.70664 1.8088 0 0.68555-0.22324 1.2929-0.66973 1.822-0.44648 0.52911-1.0828 0.79366-1.909 0.79366-0.70664 0-1.3166-0.26807-1.8299-0.8042-0.51328-0.53614-0.76992-1.4388-0.76992-2.7079 0-0.93868 0.11426-1.735 0.34278-2.3889 0.43945-1.2516 1.2428-1.8773 2.41-1.8773 0.84375 0 1.4317 0.21884 1.764 0.65654zm-0.71191 5.7744c0.24785-0.33574 0.37177-0.73213 0.37177-1.1892 0-0.38672-0.11074-0.75498-0.33222-1.1048-0.22149-0.34981-0.62403-0.52471-1.2076-0.52471-0.40781 0-0.76553 0.13535-1.0731 0.40606-0.30762 0.2707-0.46143 0.67851-0.46143 1.2234 0 0.47813 0.13975 0.87979 0.41924 1.205 0.27949 0.3252 0.66709 0.4878 1.1628 0.4878 0.49922 0 0.87276-0.16787 1.1206-0.50362zm2.9245-6.22c0.22148-0.32343 0.64863-0.48515 1.2814-0.48515 0.0598 0 0.12128 0.002 0.18457 0.005 0.0633 0.004 0.13535 0.009 0.21621 0.0158v0.86484c-0.0984-0.007-0.16963-0.0114-0.21358-0.0132-0.0439-0.002-0.0853-0.003-0.12392-0.003-0.28828 0-0.46055 0.0747-0.5168 0.22413-0.0563 0.14941-0.0844 0.52998-0.0844 1.1417h0.93868v0.74882h-0.94922v4.8727h-0.93867v-4.8727h-0.78575v-0.74882h0.78575v-0.88594c0.0141-0.39375 0.0826-0.68203 0.20566-0.86485z"/>
      </g>
      <g id="g11219" transform="matrix(0.72 0 0 0.72 145 100)"></g>
      <g id="g11225" transform="translate(.5 .5)">
       <path id="path11227" d="m529 74.16v14.84-11 9.58" stroke="#000" stroke-miterlimit="10" fill="none"/>
      </g>
      <g id="g11229">
       <path id="path11231" d="m529.5 91.86-2.52-5.04 2.52 1.26 2.52-1.26-2.52 5.04z"/>
      </g>
      <g id="g11233" transform="translate(.5 .5)">
       <path id="path11235" d="m529 91.36-2.52-5.04 2.52 1.26 2.52-1.26-2.52 5.04z" stroke="#000" stroke-miterlimit="10" fill="none"/>
      </g>
      <g id="g11241">
       <path id="path11243" d="m511.34 53.06h36.72c1.7894 0 3.24 1.4506 3.24 3.24v15.12c0 1.7894-1.4506 3.24-3.24 3.24h-36.72c-1.7894 0-3.24-1.4506-3.24-3.24v-15.12c0-1.7894 1.4506-3.24 3.24-3.24z" fill="#fff"/>
      </g>
      <g id="g11245" transform="translate(.5 .5)">
       <path id="path11247" d="m510.84 52.56h36.72c1.7894 0 3.24 1.4506 3.24 3.24v15.12c0 1.7894-1.4506 3.24-3.24 3.24h-36.72c-1.7894 0-3.24-1.4506-3.24-3.24v-15.12c0-1.7894 1.4506-3.24 3.24-3.24z" stroke="#000" stroke-miterlimit="10" fill="none"/>
      </g>
      <g id="g11251" transform="matrix(0.72 0 0 0.72 513 56)"></g>
      <g id="g11255">
       <path id="path11257" d="m514.35 65.809c0.20531 0.32625 0.53438 0.48938 0.98719 0.48938 0.35156 0 0.64055-0.15117 0.86695-0.45352 0.22641-0.30234 0.33961-0.73617 0.33961-1.3015 0-0.57094-0.11672-0.99352-0.35016-1.2677-0.23343-0.27422-0.52171-0.41133-0.86484-0.41133-0.3825 0-0.69258 0.14625-0.93023 0.43875-0.23766 0.2925-0.35649 0.72281-0.35649 1.2909 0 0.48375 0.10266 0.88875 0.30797 1.215zm1.7044-3.3877c0.135 0.08438 0.28828 0.23203 0.45984 0.44297v-2.2823h0.72984v6.2184h-0.68343v-0.62859c-0.17719 0.27844-0.38672 0.47953-0.6286 0.60328-0.24187 0.12375-0.5189 0.18562-0.83109 0.18562-0.50344 0-0.93938-0.21164-1.3078-0.63492-0.36844-0.42328-0.55266-0.98648-0.55266-1.6896 0-0.65812 0.16805-1.2284 0.50414-1.7107 0.33609-0.48234 0.81633-0.72352 1.4407-0.72352 0.34594 0 0.63563 0.07312 0.86907 0.21938zm5.1244-0.01477c0.30094 0.15047 0.53016 0.34524 0.68766 0.5843 0.15187 0.22781 0.25312 0.49359 0.30375 0.79734 0.045 0.20812 0.0675 0.54 0.0675 0.99562h-3.3117c0.0141 0.45844 0.12234 0.82617 0.32484 1.1032s0.51609 0.41555 0.94078 0.41555c0.39657 0 0.71297-0.13078 0.94922-0.39234 0.135-0.15188 0.23063-0.32766 0.28688-0.52734h0.74672c-0.0197 0.16594-0.0851 0.35086-0.19618 0.55477-0.11109 0.20391-0.23554 0.37055-0.37336 0.49992-0.23062 0.225-0.51609 0.37688-0.8564 0.45562-0.18282 0.045-0.38953 0.0675-0.62016 0.0675-0.5625 0-1.0392-0.20461-1.4302-0.61383-0.39094-0.40922-0.58641-0.98227-0.58641-1.7191 0-0.72562 0.19687-1.3148 0.59062-1.7677 0.39375-0.45281 0.90844-0.67922 1.5441-0.67922 0.32062 0 0.6314 0.07523 0.93234 0.2257zm0.27844 1.774c-0.0309-0.32906-0.10266-0.59203-0.21516-0.78891-0.20812-0.36562-0.55547-0.54844-1.042-0.54844-0.34875 0-0.64125 0.12586-0.8775 0.37758s-0.36141 0.57164-0.37547 0.95977h2.5102zm2.0826-1.8984 1.2066 3.6788 1.2614-3.6788h0.8311l-1.7044 4.5183h-0.81l-1.6664-4.5183h0.88172zm6.7627 0.12445c0.30094 0.15047 0.53016 0.34524 0.68766 0.5843 0.15187 0.22781 0.25312 0.49359 0.30375 0.79734 0.045 0.20812 0.0675 0.54 0.0675 0.99562h-3.3117c0.0141 0.45844 0.12234 0.82617 0.32484 1.1032s0.51609 0.41555 0.94078 0.41555c0.39656 0 0.71297-0.13078 0.94922-0.39234 0.135-0.15188 0.23063-0.32766 0.28688-0.52734h0.74672c-0.0197 0.16594-0.0851 0.35086-0.19618 0.55477-0.11109 0.20391-0.23554 0.37055-0.37336 0.49992-0.23062 0.225-0.51609 0.37688-0.8564 0.45562-0.18282 0.045-0.38953 0.0675-0.62016 0.0675-0.5625 0-1.0392-0.20461-1.4302-0.61383-0.39093-0.40922-0.5864-0.98227-0.5864-1.7191 0-0.72562 0.19687-1.3148 0.59062-1.7677 0.39375-0.45281 0.90844-0.67922 1.5441-0.67922 0.32062 0 0.6314 0.07523 0.93234 0.2257zm0.27844 1.774c-0.0309-0.32906-0.10266-0.59203-0.21516-0.78891-0.20812-0.36562-0.55547-0.54844-1.042-0.54844-0.34875 0-0.64125 0.12586-0.8775 0.37758s-0.36141 0.57164-0.37547 0.95977h2.5102zm1.7325-3.5775h0.75937v6.1973h-0.75937v-6.1973zm4.7201 5.1363c0.18704-0.38109 0.28055-0.80508 0.28055-1.272 0-0.42188-0.0675-0.765-0.2025-1.0294-0.21375-0.41625-0.58219-0.62438-1.1053-0.62438-0.46406 0-0.80156 0.17719-1.0125 0.53156-0.21094 0.35438-0.31641 0.78188-0.31641 1.2825 0 0.48094 0.10547 0.88172 0.31641 1.2023 0.21094 0.32062 0.54562 0.48094 1.0041 0.48094 0.50344 0 0.84867-0.19055 1.0357-0.57164zm0.4704-3.0059c0.40218 0.38812 0.60328 0.95906 0.60328 1.7128 0 0.72844-0.17719 1.3303-0.53156 1.8056-0.35438 0.47531-0.90422 0.71297-1.6495 0.71297-0.62156 0-1.1152-0.21024-1.4808-0.6307-0.36562-0.42047-0.54844-0.98508-0.54844-1.6938 0-0.75938 0.19266-1.3641 0.57797-1.8141 0.38532-0.45 0.90282-0.675 1.5525-0.675 0.58219 0 1.0744 0.19406 1.4766 0.58219zm4.2954 3.1113c0.23484-0.29672 0.35226-0.74039 0.35226-1.331 0-0.36-0.052-0.66938-0.15609-0.92812-0.19688-0.49781-0.55688-0.74672-1.08-0.74672-0.52594 0-0.88594 0.26297-1.08 0.78891-0.10406 0.28125-0.15609 0.63844-0.15609 1.0716 0 0.34875 0.052 0.64547 0.15609 0.89016 0.19687 0.46688 0.55687 0.70031 1.08 0.70031 0.35437 0 0.64898-0.14836 0.88383-0.44508zm-2.8498-3.5416h0.73828v0.59906c0.15188-0.20531 0.31781-0.36422 0.49782-0.47672 0.25593-0.16875 0.55687-0.25312 0.90281-0.25312 0.51187 0 0.9464 0.19617 1.3036 0.58852 0.35719 0.39234 0.53578 0.95273 0.53578 1.6812 0 0.98438-0.25734 1.6875-0.77203 2.1094-0.32625 0.26719-0.70594 0.40078-1.1391 0.40078-0.34031 0-0.62578-0.07453-0.85641-0.22359-0.135-0.08437-0.28547-0.22922-0.4514-0.43453v2.3077h-0.75938v-6.2986z"/>
      </g>
      <g id="g11259" transform="matrix(0.72 0 0 0.72 513 56)"></g>
      <g id="g11265" transform="translate(.5 .5)">
       <path id="path11267" d="m529 36v14-12 9.98" stroke="#000" stroke-miterlimit="10" fill="none"/>
      </g>
      <g id="g11269">
       <path id="path11271" d="m529.5 52.26-2.52-5.04 2.52 1.26 2.52-1.26-2.52 5.04z"/>
      </g>
      <g id="g11273" transform="translate(.5 .5)">
       <path id="path11275" d="m529 51.76-2.52-5.04 2.52 1.26 2.52-1.26-2.52 5.04z" stroke="#000" stroke-miterlimit="10" fill="none"/>
      </g>
      <g id="g11281">
       <path id="path11283" d="m548.06 36.5h-36.72c-1.7894 0-3.24-1.4506-3.24-3.24v-15.12c0-1.7894 1.4506-3.24 3.24-3.24h36.72c1.7894 0 3.24 1.4506 3.24 3.24v15.12c0 1.7894-1.4506 3.24-3.24 3.24z" fill="#fff"/>
      </g>
      <g id="g11285" transform="matrix(-1 0 0 -1 1058.9 50.9)">
       <path id="path11287" d="m510.84 14.4h36.72c1.7894 0 3.24 1.4506 3.24 3.24v15.12c0 1.789-1.45 3.24-3.24 3.24h-36.72c-1.7894 0-3.24-1.4506-3.24-3.24v-15.12c0-1.789 1.45-3.24 3.24-3.24z" stroke="#000" stroke-miterlimit="10" fill="none"/>
      </g>
      <g id="g11293" transform="matrix(0.72 0 0 0.72 517 18)"></g>
      <g id="g11297">
       <path id="path11299" d="m518.4 22.603h0.84797v2.5608h3.2231v-2.5608h0.84797v6.1973h-0.84797v-2.8983h-3.2231v2.8983h-0.84797v-6.1973zm6.2916 0h4.5183v0.75938h-3.6998v1.8816h3.4214v0.71719h-3.4214v2.1009h3.7631v0.73828h-4.5816v-6.1973zm8.8608 3.6577-0.94078-2.738-0.99984 2.738h1.9406zm-1.3795-3.6577h0.94922l2.2486 6.1973h-0.91969l-0.62859-1.8562h-2.4511l-0.67078 1.8562h-0.86063l2.333-6.1973zm6.338 5.4802c0.28406 0 0.5175-0.02953 0.70031-0.08859 0.32625-0.10969 0.59344-0.32062 0.80156-0.63281 0.16594-0.25031 0.28547-0.57094 0.3586-0.96188 0.0422-0.23344 0.0633-0.45 0.0633-0.64969 0-0.76781-0.15258-1.3641-0.45774-1.7888-0.30515-0.42469-0.79664-0.63703-1.4744-0.63703h-1.4892v4.7588h1.4977zm-2.3414-5.4802h2.5102c0.85219 0 1.5131 0.30234 1.9828 0.90703 0.41906 0.54562 0.6286 1.2445 0.6286 2.0967 0 0.65812-0.12376 1.253-0.37126 1.7845-0.43593 0.93938-1.1855 1.4091-2.2486 1.4091h-2.5017v-6.1973z"/>
      </g>
      <g id="g11301" transform="matrix(0.72 0 0 0.72 517 18)"></g>
      <g id="g11307" transform="translate(.5 .5)">
       <path id="path11309" d="m238 107-35.42-0.22" stroke="#000" stroke-miterlimit="10" fill="none"/>
      </g>
      <g id="g11311">
       <path id="path11313" d="m199.3 107.26 5.06-2.49-1.28 2.51 1.25 2.53-5.03-2.55z"/>
      </g>
      <g id="g11315" transform="translate(.5 .5)">
       <path id="path11317" d="m198.8 106.76 5.06-2.49-1.28 2.51 1.25 2.53-5.03-2.55z" stroke="#000" stroke-miterlimit="10" fill="none"/>
      </g>
      <g id="g11323">
       <path id="path11325" d="m40.82 92.66h56.16c2.3859 0 4.32 1.9341 4.32 4.32v20.16c0 2.3859-1.9341 4.32-4.32 4.32h-56.16c-2.3859 0-4.32-1.9341-4.32-4.32v-20.16c0-2.3859 1.9341-4.32 4.32-4.32z" fill="#fff"/>
      </g>
      <g id="g11327" transform="translate(.5 .5)">
       <path id="path11329" d="m40.32 92.16h56.16c2.3859 0 4.32 1.9341 4.32 4.32v20.16c0 2.3859-1.9341 4.32-4.32 4.32h-56.16c-2.3859 0-4.32-1.9341-4.32-4.32v-20.16c0-2.3859 1.9341-4.32 4.32-4.32z" stroke="#000" stroke-miterlimit="10" fill="none"/>
      </g>
      <g id="g11333" transform="matrix(0.72 0 0 0.72 62 100)"></g>
      <g id="g11337">
       <path id="path11339" d="m62.923 108.21h1.1021v1.1496h-1.1021v-1.1496zm2.9925 0h1.1021v1.1496h-1.1021v-1.1496zm2.9925 0h1.1021v1.1496h-1.1021v-1.1496zm2.9925 0h1.1021v1.1496h-1.1021v-1.1496z"/>
      </g>
      <g id="g11341" transform="matrix(0.72 0 0 0.72 62 100)"></g>
      <g id="g11347" transform="translate(.5 .5)">
       <path id="path11349" d="m378 60h-212v27.58" stroke="#000" stroke-miterlimit="10" fill="none"/>
      </g>
      <g id="g11351">
       <path id="path11353" d="m166.5 91.86-2.52-5.04 2.52 1.26 2.52-1.26-2.52 5.04z"/>
      </g>
      <g id="g11355" transform="translate(.5 .5)">
       <path id="path11357" d="m166 91.36-2.52-5.04 2.52 1.26 2.52-1.26-2.52 5.04z" stroke="#000" stroke-miterlimit="10" fill="none"/>
      </g>
      <g id="g11363">
       <path id="path11365" d="m382.82 45.86h56.16c2.3859 0 4.32 1.9341 4.32 4.32v20.16c0 2.3859-1.9342 4.32-4.32 4.32h-56.16c-2.3859 0-4.32-1.9341-4.32-4.32v-20.16c0-2.3859 1.9341-4.32 4.32-4.32z" fill="#fff"/>
      </g>
      <g id="g11367" transform="translate(.5 .5)">
       <path id="path11369" d="m382.32 45.36h56.16c2.3859 0 4.32 1.9341 4.32 4.32v20.16c0 2.3859-1.9342 4.32-4.32 4.32h-56.16c-2.3859 0-4.32-1.9341-4.32-4.32v-20.16c0-2.3859 1.9341-4.32 4.32-4.32z" stroke="#000" stroke-miterlimit="10" fill="none"/>
      </g>
      <g id="g11373" transform="matrix(0.72 0 0 0.72 387 54)"></g>
      <g id="g11377">
       <path id="path11379" d="m391.21 57.868c0.37617 0.18809 0.66269 0.43154 0.85957 0.73037 0.18984 0.28476 0.3164 0.61699 0.37968 0.99668 0.0563 0.26016 0.0844 0.675 0.0844 1.2445h-4.1396c0.0176 0.57305 0.15293 1.0327 0.40605 1.379 0.25313 0.34629 0.64512 0.51943 1.176 0.51943 0.4957 0 0.89121-0.16348 1.1865-0.49043 0.16875-0.18984 0.28829-0.40957 0.3586-0.65918h0.9334c-0.0246 0.20742-0.10635 0.43857-0.24522 0.69346-0.13887 0.25488-0.29443 0.46318-0.4667 0.6249-0.28828 0.28125-0.64511 0.47109-1.0705 0.56953-0.22851 0.05625-0.48691 0.08438-0.77519 0.08438-0.70312 0-1.299-0.25576-1.7877-0.76728-0.48868-0.51152-0.73301-1.2278-0.73301-2.1489 0-0.90703 0.24609-1.6436 0.73828-2.2096 0.49219-0.56602 1.1355-0.84902 1.9301-0.84902 0.40078 0 0.78925 0.09404 1.1654 0.28213zm0.34804 2.2175c-0.0387-0.41133-0.12832-0.74004-0.26894-0.98613-0.26016-0.45703-0.69434-0.68555-1.3025-0.68555-0.43594 0-0.80156 0.15732-1.0969 0.47197-0.29531 0.31465-0.45175 0.71455-0.46933 1.1997h3.1377zm2.7689 1.35c0.0633 0.54141 0.31465 0.91582 0.7541 1.1232 0.225 0.10547 0.48516 0.1582 0.78047 0.1582 0.5625 0 0.9791-0.1793 1.2498-0.53789 0.27071-0.35859 0.40606-0.75586 0.40606-1.1918 0-0.52734-0.16084-0.93516-0.48252-1.2234-0.32168-0.28828-0.70752-0.43242-1.1575-0.43242-0.32695 0-0.60733 0.06328-0.84111 0.18984-0.23379 0.12656-0.43331 0.30234-0.59854 0.52734l-0.82266-0.04746 0.57481-4.0658h3.9234v0.91758h-3.2115l-0.32168 2.0988c0.17578-0.13359 0.34278-0.23379 0.50098-0.30059 0.28125-0.11602 0.60645-0.17402 0.97559-0.17402 0.69257 0 1.2797 0.22324 1.7613 0.66973 0.48164 0.44648 0.72246 1.0125 0.72246 1.698 0 0.71367-0.2206 1.343-0.66181 1.8879-0.44121 0.54492-1.1452 0.81738-2.112 0.81738-0.61524 0-1.1593-0.17314-1.6321-0.51943-0.47285-0.34629-0.7374-0.87803-0.79365-1.5952h0.98613zm5.403 0.22676c0.23379-0.48164 0.68994-0.91934 1.3684-1.3131l1.0125-0.58535c0.45352-0.26367 0.77168-0.48867 0.9545-0.675 0.28828-0.2918 0.43242-0.62578 0.43242-1.002 0-0.43945-0.13184-0.78838-0.39551-1.0468-0.26367-0.2584-0.61523-0.3876-1.0547-0.3876-0.65039 0-1.1004 0.24609-1.35 0.73828-0.13359 0.26367-0.20742 0.6293-0.22148 1.0969h-0.96504c0.0106-0.65742 0.13184-1.1936 0.36387-1.6084 0.41132-0.73125 1.1373-1.0969 2.1779-1.0969 0.86484 0 1.4968 0.23379 1.8958 0.70137 0.39902 0.46758 0.59853 0.98789 0.59853 1.5609 0 0.60469-0.21269 1.1215-0.63808 1.5504-0.2461 0.24961-0.68731 0.55195-1.3236 0.90703l-0.72246 0.40078c-0.34453 0.18984-0.61523 0.3709-0.81211 0.54316-0.35156 0.30586-0.57304 0.64512-0.66445 1.0178h4.1238v0.89648h-5.1838c0.0352-0.65039 0.16963-1.2164 0.40342-1.698zm8.8254-0.97559v-3.4225l-2.4205 3.4225h2.4205zm0.0158 2.6736v-1.8457h-3.3117v-0.92812l3.4594-4.7988h0.80156v4.899h1.1127v0.82793h-1.1127v1.8457h-0.94921zm7.4517-6.3439c0.3375 0.62227 0.50625 1.4748 0.50625 2.5576 0 1.0266-0.15293 1.8756-0.45879 2.5471-0.44296 0.96328-1.1672 1.4449-2.1726 1.4449-0.90703 0-1.582-0.39375-2.025-1.1812-0.36914-0.65742-0.55371-1.5398-0.55371-2.6473 0-0.85781 0.11074-1.5943 0.33223-2.2096 0.41484-1.1461 1.1654-1.7191 2.2518-1.7191 0.97735 0 1.684 0.40254 2.1199 1.2076zm-0.95449 5.0309c0.2918-0.43594 0.4377-1.248 0.4377-2.4363 0-0.85781-0.10547-1.5636-0.31641-2.1173-0.21094-0.55371-0.62051-0.83057-1.2287-0.83057-0.55898 0-0.96768 0.26279-1.2261 0.78838-0.2584 0.52559-0.3876 1.2999-0.3876 2.3229 0 0.76992 0.0826 1.3887 0.24785 1.8562 0.25312 0.71367 0.68555 1.0705 1.2973 1.0705 0.49218 0 0.88417-0.21797 1.176-0.65391zm5.4794-1.3605v-3.4225l-2.4205 3.4225h2.4205zm0.0158 2.6736v-1.8457h-3.3117v-0.92812l3.4594-4.7988h0.80156v4.899h1.1127v0.82793h-1.1127v1.8457h-0.94921zm3.7445-1.9248c0.0633 0.54141 0.31465 0.91582 0.7541 1.1232 0.225 0.10547 0.48515 0.1582 0.78047 0.1582 0.5625 0 0.9791-0.1793 1.2498-0.53789 0.27071-0.35859 0.40606-0.75586 0.40606-1.1918 0-0.52734-0.16084-0.93516-0.48252-1.2234-0.32168-0.28828-0.70752-0.43242-1.1575-0.43242-0.32696 0-0.60733 0.06328-0.84112 0.18984-0.23378 0.12656-0.4333 0.30234-0.59853 0.52734l-0.82266-0.04746 0.57481-4.0658h3.9234v0.91758h-3.2115l-0.32168 2.0988c0.17578-0.13359 0.34278-0.23379 0.50098-0.30059 0.28125-0.11602 0.60644-0.17402 0.97558-0.17402 0.69258 0 1.2797 0.22324 1.7613 0.66973 0.48164 0.44648 0.72246 1.0125 0.72246 1.698 0 0.71367-0.2206 1.343-0.66181 1.8879-0.44121 0.54492-1.1452 0.81738-2.112 0.81738-0.61524 0-1.1593-0.17314-1.6321-0.51943-0.47285-0.34629-0.73741-0.87803-0.79366-1.5952h0.98614zm5.8011-5.4475c0.22148-0.32344 0.64863-0.48516 1.2814-0.48516 0.0598 0 0.12129 0.0018 0.18458 0.0053 0.0633 0.0035 0.13535 0.0088 0.21621 0.01582v0.86484c-0.0984-0.007-0.16963-0.01143-0.21358-0.01318-0.0439-0.0018-0.0852-0.0026-0.12392-0.0026-0.28828 0-0.46055 0.07471-0.5168 0.22412-0.0562 0.14941-0.0844 0.52998-0.0844 1.1417h0.93868v0.74883h-0.94922v4.8727h-0.93867v-4.8727h-0.78575v-0.74883h0.78575v-0.88594c0.0141-0.39375 0.0826-0.68203 0.20566-0.86484z"/>
      </g>
      <g id="g11381" transform="matrix(0.72 0 0 0.72 387 54)"></g>
      <g id="g11387" transform="translate(.5 .5)">
       <path id="path11389" d="m496.8 106.56h-81.82" stroke="#000" stroke-miterlimit="10" fill="none"/>
      </g>
      <g id="g11391">
       <path id="path11393" d="m411.7 107.06 5.04-2.52-1.26 2.52 1.26 2.52-5.04-2.52z"/>
      </g>
      <g id="g11395" transform="translate(.5 .5)">
       <path id="path11397" d="m411.2 106.56 5.04-2.52-1.26 2.52 1.26 2.52-5.04-2.52z" stroke="#000" stroke-miterlimit="10" fill="none"/>
      </g>
      <g id="g11403">
       <path id="path11405" d="m501.62 92.66h56.16c2.3859 0 4.32 1.9341 4.32 4.32v20.16c0 2.3859-1.9342 4.32-4.32 4.32h-56.16c-2.3859 0-4.32-1.9341-4.32-4.32v-20.16c0-2.3859 1.9341-4.32 4.32-4.32z" fill="#fff"/>
      </g>
      <g id="g11407" transform="translate(.5 .5)">
       <path id="path11409" d="m501.12 92.16h56.16c2.3859 0 4.32 1.9341 4.32 4.32v20.16c0 2.3859-1.9342 4.32-4.32 4.32h-56.16c-2.3859 0-4.32-1.9341-4.32-4.32v-20.16c0-2.3859 1.9341-4.32 4.32-4.32z" stroke="#000" stroke-miterlimit="10" fill="none"/>
      </g>
      <g id="g11413" transform="matrix(0.72 0 0 0.72 505 100)"></g>
      <g id="g11417">
       <path id="path11419" d="m510.15 104.01c0.39902 0.30938 0.63896 0.842 0.71982 1.5979h-0.92285c-0.0563-0.34805-0.18457-0.63721-0.38496-0.86748-0.20039-0.23028-0.52207-0.34541-0.96504-0.34541-0.60469 0-1.0371 0.29531-1.2973 0.88593-0.16875 0.3832-0.25313 0.85606-0.25313 1.4186 0 0.56601 0.11953 1.0424 0.3586 1.4291 0.23906 0.38672 0.61523 0.58008 1.1285 0.58008 0.39375 0 0.70576-0.12041 0.93604-0.36123 0.23027-0.24082 0.38935-0.57041 0.47724-0.98877h0.92285c-0.10546 0.74882-0.36914 1.2964-0.79101 1.6427-0.42188 0.34629-0.96153 0.51944-1.619 0.51944-0.73828 0-1.3271-0.26983-1.7666-0.80948-0.43945-0.53965-0.65918-1.2138-0.65918-2.0224 0-0.99141 0.24082-1.7631 0.72246-2.315 0.48164-0.55195 1.0951-0.82793 1.8404-0.82793 0.63633 0 1.154 0.15469 1.553 0.46406zm6.0144-0.99668c0.33751 0.62227 0.50625 1.4748 0.50625 2.5576 0 1.0266-0.15292 1.8756-0.45878 2.5471-0.44297 0.96328-1.1672 1.4449-2.1727 1.4449-0.90703 0-1.582-0.39375-2.025-1.1812-0.36914-0.65742-0.55371-1.5398-0.55371-2.6473 0-0.85782 0.11074-1.5943 0.33223-2.2096 0.41484-1.1461 1.1654-1.7191 2.2518-1.7191 0.97735 0 1.684 0.40254 2.1199 1.2076zm-0.95449 5.0309c0.2918-0.43593 0.4377-1.248 0.4377-2.4363 0-0.85782-0.10547-1.5636-0.31641-2.1173-0.21094-0.55371-0.62051-0.83057-1.2287-0.83057-0.55898 0-0.96767 0.2628-1.2261 0.78838-0.2584 0.52559-0.3876 1.2999-0.3876 2.323 0 0.76992 0.0826 1.3887 0.24785 1.8562 0.25313 0.71367 0.68555 1.0705 1.2973 1.0705 0.49218 0 0.88418-0.21797 1.176-0.65391zm3.2435-0.61172c0.0633 0.54141 0.31465 0.91583 0.7541 1.1232 0.225 0.10547 0.48516 0.1582 0.78047 0.1582 0.5625 0 0.9791-0.1793 1.2498-0.53789 0.27071-0.35859 0.40606-0.75586 0.40606-1.1918 0-0.52734-0.16084-0.93515-0.48252-1.2234-0.32168-0.28829-0.70752-0.43243-1.1575-0.43243-0.32695 0-0.60732 0.0633-0.84111 0.18985-0.23379 0.12656-0.43331 0.30234-0.59854 0.52734l-0.82266-0.0475 0.57481-4.0658h3.9234v0.91758h-3.2115l-0.32168 2.0988c0.17579-0.1336 0.34278-0.23379 0.50098-0.30059 0.28125-0.11602 0.60644-0.17402 0.97559-0.17402 0.69257 0 1.2797 0.22324 1.7613 0.66972 0.48165 0.44649 0.72246 1.0125 0.72246 1.698 0 0.71367-0.2206 1.343-0.66181 1.8879-0.44121 0.54492-1.1452 0.81738-2.112 0.81738-0.61524 0-1.1593-0.17314-1.6321-0.51943-0.47285-0.34629-0.7374-0.87803-0.79365-1.5952h0.98613zm6.0964 0.1002c0.0281 0.52383 0.23028 0.88594 0.60645 1.0863 0.19336 0.10547 0.41133 0.1582 0.6539 0.1582 0.45352 0 0.84024-0.18896 1.1602-0.56689 0.31992-0.37793 0.54668-1.1452 0.68027-2.3019-0.21093 0.33399-0.47197 0.56865-0.7831 0.704-0.31113 0.13536-0.646 0.20303-1.0046 0.20303-0.72774 0-1.3034-0.22675-1.727-0.68027-0.42363-0.45352-0.63545-1.0371-0.63545-1.7508 0-0.68555 0.20918-1.2885 0.62754-1.8088 0.41836-0.52031 1.0354-0.78047 1.851-0.78047 1.1004 0 1.8598 0.4957 2.2781 1.4871 0.23203 0.54492 0.34805 1.227 0.34805 2.0461 0 0.92461-0.13887 1.7438-0.4166 2.4574-0.46055 1.1883-1.241 1.7824-2.3414 1.7824-0.73828 0-1.299-0.19336-1.6822-0.58008s-0.5748-0.87188-0.5748-1.4555h0.95976zm2.4706-1.9222c0.31113-0.24785 0.4667-0.68115 0.4667-1.2999 0-0.55547-0.13975-0.96943-0.41924-1.2419s-0.63545-0.4087-1.0679-0.4087c-0.46406 0-0.83232 0.15557-1.1048 0.4667-0.27246 0.31114-0.40869 0.72686-0.40869 1.2472 0 0.49219 0.11953 0.8833 0.3586 1.1733 0.23906 0.29004 0.6205 0.43506 1.1443 0.43506 0.37617 0 0.71983-0.12393 1.031-0.37178zm2.9535 3.2168c-0.40253-0.49043-0.6038-1.0872-0.6038-1.7903h0.9914c0.0422 0.48867 0.1336 0.84375 0.27422 1.0652 0.2461 0.39727 0.69082 0.5959 1.3342 0.5959 0.49922 0 0.9-0.13359 1.2023-0.40078 0.30235-0.26719 0.45352-0.61172 0.45352-1.0336 0-0.52031-0.15908-0.88417-0.47725-1.0916-0.31816-0.20742-0.76025-0.31113-1.3263-0.31113-0.0633 0-0.12744 0.00088-0.19248 0.003-0.065 0.002-0.13095 0.004-0.19775 0.008v-0.83848c0.0984 0.0105 0.18106 0.0176 0.24785 0.0211 0.0668 0.004 0.13887 0.005 0.21621 0.005 0.35508 0 0.64688-0.0563 0.87539-0.16875 0.40078-0.19688 0.60118-0.54844 0.60118-1.0547 0-0.37617-0.1336-0.66621-0.40079-0.87012-0.26718-0.2039-0.57832-0.30586-0.93339-0.30586-0.63282 0-1.0705 0.21094-1.3131 0.63282-0.13359 0.23203-0.20918 0.5625-0.22676 0.9914h-0.93867c0-0.5625 0.1125-1.0406 0.3375-1.4344 0.38672-0.70313 1.067-1.0547 2.0408-1.0547 0.76992 0 1.3658 0.17139 1.7877 0.51416 0.42187 0.34277 0.63281 0.83936 0.63281 1.4898 0 0.46406-0.12481 0.84023-0.37442 1.1285-0.15468 0.1793-0.35507 0.31992-0.60117 0.42188 0.39727 0.10898 0.70752 0.31904 0.93076 0.63017 0.22325 0.31114 0.33487 0.6917 0.33487 1.1417 0 0.72071-0.23731 1.3078-0.71192 1.7613-0.47461 0.45351-1.1478 0.68027-2.0197 0.68027-0.89297 0-1.5407-0.24521-1.9433-0.73564zm6.8163-0.70928c0.25664 0.40781 0.66797 0.61172 1.234 0.61172 0.43945 0 0.80068-0.18896 1.0837-0.56689 0.28301-0.37793 0.42451-0.92022 0.42451-1.6269 0-0.71367-0.1459-1.2419-0.43769-1.5847-0.2918-0.34277-0.65215-0.51416-1.0811-0.51416-0.47812 0-0.86572 0.18281-1.1628 0.54844-0.29707 0.36562-0.44561 0.90352-0.44561 1.6137 0 0.60469 0.12832 1.1109 0.38496 1.5188zm2.1305-4.2346c0.16875 0.10547 0.36036 0.29004 0.57481 0.55371v-2.8529h0.9123v7.773h-0.85429v-0.78574c-0.22149 0.34804-0.4834 0.59941-0.78575 0.7541-0.30234 0.15469-0.64863 0.23203-1.0389 0.23203-0.6293 0-1.1742-0.26455-1.6348-0.79365-0.46055-0.5291-0.69082-1.2331-0.69082-2.112 0-0.82266 0.21006-1.5354 0.63018-2.1384 0.42011-0.60293 1.0204-0.9044 1.8009-0.9044 0.43243 0 0.79454 0.0914 1.0863 0.27422zm7.8314-1.9512v0.82793c-0.24258 0.23555-0.56514 0.64512-0.96768 1.2287-0.40254 0.58359-0.75849 1.2129-1.0679 1.8879-0.30586 0.65742-0.53789 1.2568-0.69609 1.7982-0.10195 0.34805-0.23379 0.90879-0.39551 1.6822h-1.0494c0.23906-1.4414 0.7664-2.8758 1.582-4.3031 0.48164-0.83671 0.98789-1.5592 1.5188-2.1674h-4.1766v-0.95449h5.2523zm3.9185 4.7514v-3.4225l-2.4205 3.4225h2.4205zm0.0158 2.6736v-1.8457h-3.3117v-0.92813l3.4594-4.7988h0.80156v4.899h1.1127v0.82793h-1.1127v1.8457h-0.94921z"/>
      </g>
      <g id="g11421" transform="matrix(0.72 0 0 0.72 505 100)"></g>
      <g id="g11427" transform="translate(.5 .5)">
       <path id="path11429" d="m497 107-50.54-43.99" stroke="#000" stroke-miterlimit="10" fill="none"/>
      </g>
      <g id="g11431">
       <path id="path11433" d="m444.11 61.03 5.45 1.41-2.6 1.07-0.70999 2.73-2.14-5.21z"/>
      </g>
      <g id="g11435" transform="translate(.5 .5)">
       <path id="path11437" d="m443.61 60.53 5.45 1.41-2.6 1.07-0.70999 2.73-2.14-5.21z" stroke="#000" stroke-miterlimit="10" fill="none"/>
      </g>
     </g>
    </g>
   </g>
  </g>
  <g id="g11441" transform="matrix(1.25 0 0 1.25 -652.59 149.06)"></g>
  <g id="g11445" transform="matrix(1.25 0 0 1.25 -652.59 149.06)">
   <g id="g11447" clip-path="url(#clipPath11449)"></g>
  </g>
  <g id="g11455" transform="matrix(1.25 0 0 1.25 -652.59 149.06)">
   <g id="g11457" clip-path="url(#clipPath11459)">
    <g id="g11463" clip-path="url(#clipPath11465)"></g>
   </g>
  </g>
  <g id="g11473" transform="matrix(1.25 0 0 1.25 -652.59 149.06)"></g>
  <g id="g11477" transform="matrix(1.25 0 0 1.25 -652.59 149.06)">
   <g id="g11479" clip-path="url(#clipPath11481)"></g>
  </g>
  <g id="g11489" transform="matrix(1.25 0 0 1.25 -652.59 149.06)">
   <g id="g11491" clip-path="url(#clipPath11493)">
    <g id="g11497" clip-path="url(#clipPath11499)"></g>
   </g>
  </g>
  <g id="g11505" transform="matrix(1.25 0 0 1.25 -652.59 149.06)">
   <g id="g11507" clip-path="url(#clipPath11509)">
    <g id="g11513" clip-path="url(#clipPath11515)">
     <g id="g11519" clip-path="url(#clipPath11521)"></g>
    </g>
   </g>
  </g>
  <g id="g11527" transform="matrix(1.25 0 0 1.25 -652.59 149.06)"></g>
  <g id="g11531" transform="matrix(1.25 0 0 1.25 -652.59 149.06)">
   <g id="g11533" clip-path="url(#clipPath11535)"></g>
  </g>
  <g id="g11541" transform="matrix(1.25 0 0 1.25 -652.59 149.06)">
   <g id="g11543" clip-path="url(#clipPath11545)">
    <g id="g11549" clip-path="url(#clipPath11551)"></g>
   </g>
  </g>
  <g id="g11559" transform="matrix(1.25 0 0 1.25 -652.59 149.06)"></g>
  <g id="g11563" transform="matrix(1.25 0 0 1.25 -652.59 149.06)">
   <g id="g11565" clip-path="url(#clipPath11567)"></g>
  </g>
  <g id="g11575" transform="matrix(1.25 0 0 1.25 -652.59 149.06)"></g>
 </g>
</svg>
