<?xml version="1.0" encoding="UTF-8" standalone="no"?>
<!-- Created with Inkscape (http://www.inkscape.org/) -->

<svg
   xmlns:dc="http://purl.org/dc/elements/1.1/"
   xmlns:cc="http://creativecommons.org/ns#"
   xmlns:rdf="http://www.w3.org/1999/02/22-rdf-syntax-ns#"
   xmlns:svg="http://www.w3.org/2000/svg"
   xmlns="http://www.w3.org/2000/svg"
   xmlns:sodipodi="http://sodipodi.sourceforge.net/DTD/sodipodi-0.dtd"
   xmlns:inkscape="http://www.inkscape.org/namespaces/inkscape"
   width="170.53279mm"
   height="40.992779mm"
   viewBox="0 0 604.25005 145.25"
   id="svg12583"
   version="1.1"
   inkscape:version="0.91 r13725"
   sodipodi:docname="recursive-before.svg">
  <defs
     id="defs12585">
    <clipPath
       id="clipPath12617"
       clipPathUnits="userSpaceOnUse">
      <path
         style="clip-rule:evenodd"
         inkscape:connector-curvature="0"
         id="path12619"
         d="M 0,0 843,0 843,596 0,596 0,0 Z" />
    </clipPath>
    <clipPath
       id="clipPath12635"
       clipPathUnits="userSpaceOnUse">
      <path
         style="clip-rule:evenodd"
         inkscape:connector-curvature="0"
         id="path12637"
         d="M 0,0 843,0 843,596 0,596 0,0 Z" />
    </clipPath>
    <clipPath
       id="clipPath12641"
       clipPathUnits="userSpaceOnUse">
      <path
         style="clip-rule:evenodd"
         inkscape:connector-curvature="0"
         id="path12643"
         d="M 0,0 842,0 842,595 0,595 0,0 Z" />
    </clipPath>
    <clipPath
       id="clipPath12655"
       clipPathUnits="userSpaceOnUse">
      <path
         style="clip-rule:evenodd"
         inkscape:connector-curvature="0"
         id="path12657"
         d="M 0,0 843,0 843,596 0,596 0,0 Z" />
    </clipPath>
    <clipPath
       id="clipPath12667"
       clipPathUnits="userSpaceOnUse">
      <path
         style="clip-rule:evenodd"
         inkscape:connector-curvature="0"
         id="path12669"
         d="M 0,0 843,0 843,596 0,596 0,0 Z" />
    </clipPath>
    <clipPath
       id="clipPath12673"
       clipPathUnits="userSpaceOnUse">
      <path
         style="clip-rule:evenodd"
         inkscape:connector-curvature="0"
         id="path12675"
         d="M 0,0 842,0 842,595 0,595 0,0 Z" />
    </clipPath>
    <clipPath
       id="clipPath12687"
       clipPathUnits="userSpaceOnUse">
      <path
         style="clip-rule:evenodd"
         inkscape:connector-curvature="0"
         id="path12689"
         d="M 0,0 843,0 843,596 0,596 0,0 Z" />
    </clipPath>
    <clipPath
       id="clipPath12699"
       clipPathUnits="userSpaceOnUse">
      <path
         style="clip-rule:evenodd"
         inkscape:connector-curvature="0"
         id="path12701"
         d="M 0,0 843,0 843,596 0,596 0,0 Z" />
    </clipPath>
    <clipPath
       id="clipPath12705"
       clipPathUnits="userSpaceOnUse">
      <path
         style="clip-rule:evenodd"
         inkscape:connector-curvature="0"
         id="path12707"
         d="M 0,0 842,0 842,595 0,595 0,0 Z" />
    </clipPath>
    <clipPath
       id="clipPath12719"
       clipPathUnits="userSpaceOnUse">
      <path
         style="clip-rule:evenodd"
         inkscape:connector-curvature="0"
         id="path12721"
         d="M 0,0 843,0 843,596 0,596 0,0 Z" />
    </clipPath>
    <clipPath
       id="clipPath12731"
       clipPathUnits="userSpaceOnUse">
      <path
         style="clip-rule:evenodd"
         inkscape:connector-curvature="0"
         id="path12733"
         d="M 0,0 843,0 843,596 0,596 0,0 Z" />
    </clipPath>
    <clipPath
       id="clipPath12737"
       clipPathUnits="userSpaceOnUse">
      <path
         style="clip-rule:evenodd"
         inkscape:connector-curvature="0"
         id="path12739"
         d="M 0,0 842,0 842,595 0,595 0,0 Z" />
    </clipPath>
    <clipPath
       id="clipPath12751"
       clipPathUnits="userSpaceOnUse">
      <path
         style="clip-rule:evenodd"
         inkscape:connector-curvature="0"
         id="path12753"
         d="M 0,0 843,0 843,596 0,596 0,0 Z" />
    </clipPath>
    <clipPath
       id="clipPath12763"
       clipPathUnits="userSpaceOnUse">
      <path
         style="clip-rule:evenodd"
         inkscape:connector-curvature="0"
         id="path12765"
         d="M 0,0 843,0 843,596 0,596 0,0 Z" />
    </clipPath>
    <clipPath
       id="clipPath12769"
       clipPathUnits="userSpaceOnUse">
      <path
         style="clip-rule:evenodd"
         inkscape:connector-curvature="0"
         id="path12771"
         d="M 0,0 842,0 842,595 0,595 0,0 Z" />
    </clipPath>
    <clipPath
       id="clipPath12783"
       clipPathUnits="userSpaceOnUse">
      <path
         style="clip-rule:evenodd"
         inkscape:connector-curvature="0"
         id="path12785"
         d="M 0,0 843,0 843,596 0,596 0,0 Z" />
    </clipPath>
    <clipPath
       id="clipPath12795"
       clipPathUnits="userSpaceOnUse">
      <path
         style="clip-rule:evenodd"
         inkscape:connector-curvature="0"
         id="path12797"
         d="M 0,0 843,0 843,596 0,596 0,0 Z" />
    </clipPath>
    <clipPath
       id="clipPath12801"
       clipPathUnits="userSpaceOnUse">
      <path
         style="clip-rule:evenodd"
         inkscape:connector-curvature="0"
         id="path12803"
         d="M 0,0 842,0 842,595 0,595 0,0 Z" />
    </clipPath>
    <clipPath
       id="clipPath12815"
       clipPathUnits="userSpaceOnUse">
      <path
         style="clip-rule:evenodd"
         inkscape:connector-curvature="0"
         id="path12817"
         d="M 0,0 843,0 843,596 0,596 0,0 Z" />
    </clipPath>
    <clipPath
       id="clipPath12827"
       clipPathUnits="userSpaceOnUse">
      <path
         style="clip-rule:evenodd"
         inkscape:connector-curvature="0"
         id="path12829"
         d="M 0,0 843,0 843,596 0,596 0,0 Z" />
    </clipPath>
    <clipPath
       id="clipPath12833"
       clipPathUnits="userSpaceOnUse">
      <path
         style="clip-rule:evenodd"
         inkscape:connector-curvature="0"
         id="path12835"
         d="M 0,0 842,0 842,595 0,595 0,0 Z" />
    </clipPath>
    <clipPath
       id="clipPath12847"
       clipPathUnits="userSpaceOnUse">
      <path
         style="clip-rule:evenodd"
         inkscape:connector-curvature="0"
         id="path12849"
         d="M 0,0 843,0 843,596 0,596 0,0 Z" />
    </clipPath>
    <clipPath
       id="clipPath12859"
       clipPathUnits="userSpaceOnUse">
      <path
         style="clip-rule:evenodd"
         inkscape:connector-curvature="0"
         id="path12861"
         d="M 0,0 843,0 843,596 0,596 0,0 Z" />
    </clipPath>
    <clipPath
       id="clipPath12865"
       clipPathUnits="userSpaceOnUse">
      <path
         style="clip-rule:evenodd"
         inkscape:connector-curvature="0"
         id="path12867"
         d="M 0,0 842,0 842,595 0,595 0,0 Z" />
    </clipPath>
    <clipPath
       id="clipPath12879"
       clipPathUnits="userSpaceOnUse">
      <path
         style="clip-rule:evenodd"
         inkscape:connector-curvature="0"
         id="path12881"
         d="M 0,0 843,0 843,596 0,596 0,0 Z" />
    </clipPath>
    <clipPath
       id="clipPath12891"
       clipPathUnits="userSpaceOnUse">
      <path
         style="clip-rule:evenodd"
         inkscape:connector-curvature="0"
         id="path12893"
         d="M 0,0 843,0 843,596 0,596 0,0 Z" />
    </clipPath>
    <clipPath
       id="clipPath12897"
       clipPathUnits="userSpaceOnUse">
      <path
         style="clip-rule:evenodd"
         inkscape:connector-curvature="0"
         id="path12899"
         d="M 0,0 842,0 842,595 0,595 0,0 Z" />
    </clipPath>
    <clipPath
       id="clipPath12907"
       clipPathUnits="userSpaceOnUse">
      <path
         style="clip-rule:evenodd"
         inkscape:connector-curvature="0"
         id="path12909"
         d="M 0,0 843,0 843,596 0,596 0,0 Z" />
    </clipPath>
    <clipPath
       id="clipPath12913"
       clipPathUnits="userSpaceOnUse">
      <path
         style="clip-rule:evenodd"
         inkscape:connector-curvature="0"
         id="path12915"
         d="M 0,0 842,0 842,595 0,595 0,0 Z" />
    </clipPath>
    <clipPath
       id="clipPath12919"
       clipPathUnits="userSpaceOnUse">
      <path
         style="clip-rule:evenodd"
         inkscape:connector-curvature="0"
         id="path12921"
         d="M 0,0 842,0 842,595 0,595 0,0 Z" />
    </clipPath>
    <clipPath
       id="clipPath13241"
       clipPathUnits="userSpaceOnUse">
      <path
         style="clip-rule:evenodd"
         inkscape:connector-curvature="0"
         id="path13243"
         d="M 0,0 843,0 843,596 0,596 0,0 Z" />
    </clipPath>
    <clipPath
       id="clipPath13251"
       clipPathUnits="userSpaceOnUse">
      <path
         style="clip-rule:evenodd"
         inkscape:connector-curvature="0"
         id="path13253"
         d="M 0,0 843,0 843,596 0,596 0,0 Z" />
    </clipPath>
    <clipPath
       id="clipPath13257"
       clipPathUnits="userSpaceOnUse">
      <path
         style="clip-rule:evenodd"
         inkscape:connector-curvature="0"
         id="path13259"
         d="M 0,0 842,0 842,595 0,595 0,0 Z" />
    </clipPath>
    <clipPath
       id="clipPath13273"
       clipPathUnits="userSpaceOnUse">
      <path
         style="clip-rule:evenodd"
         inkscape:connector-curvature="0"
         id="path13275"
         d="M 0,0 843,0 843,596 0,596 0,0 Z" />
    </clipPath>
    <clipPath
       id="clipPath13285"
       clipPathUnits="userSpaceOnUse">
      <path
         style="clip-rule:evenodd"
         inkscape:connector-curvature="0"
         id="path13287"
         d="M 0,0 843,0 843,596 0,596 0,0 Z" />
    </clipPath>
    <clipPath
       id="clipPath13291"
       clipPathUnits="userSpaceOnUse">
      <path
         style="clip-rule:evenodd"
         inkscape:connector-curvature="0"
         id="path13293"
         d="M 0,0 842,0 842,595 0,595 0,0 Z" />
    </clipPath>
    <clipPath
       id="clipPath13301"
       clipPathUnits="userSpaceOnUse">
      <path
         style="clip-rule:evenodd"
         inkscape:connector-curvature="0"
         id="path13303"
         d="M 0,0 843,0 843,596 0,596 0,0 Z" />
    </clipPath>
    <clipPath
       id="clipPath13307"
       clipPathUnits="userSpaceOnUse">
      <path
         style="clip-rule:evenodd"
         inkscape:connector-curvature="0"
         id="path13309"
         d="M 0,0 842,0 842,595 0,595 0,0 Z" />
    </clipPath>
    <clipPath
       id="clipPath13313"
       clipPathUnits="userSpaceOnUse">
      <path
         style="clip-rule:evenodd"
         inkscape:connector-curvature="0"
         id="path13315"
         d="M 0,0 842,0 842,595 0,595 0,0 Z" />
    </clipPath>
    <clipPath
       id="clipPath13327"
       clipPathUnits="userSpaceOnUse">
      <path
         style="clip-rule:evenodd"
         inkscape:connector-curvature="0"
         id="path13329"
         d="M 0,0 843,0 843,596 0,596 0,0 Z" />
    </clipPath>
    <clipPath
       id="clipPath13337"
       clipPathUnits="userSpaceOnUse">
      <path
         style="clip-rule:evenodd"
         inkscape:connector-curvature="0"
         id="path13339"
         d="M 0,0 843,0 843,596 0,596 0,0 Z" />
    </clipPath>
    <clipPath
       id="clipPath13343"
       clipPathUnits="userSpaceOnUse">
      <path
         style="clip-rule:evenodd"
         inkscape:connector-curvature="0"
         id="path13345"
         d="M 0,0 842,0 842,595 0,595 0,0 Z" />
    </clipPath>
    <clipPath
       id="clipPath13359"
       clipPathUnits="userSpaceOnUse">
      <path
         style="clip-rule:evenodd"
         inkscape:connector-curvature="0"
         id="path13361"
         d="M 0,0 843,0 843,596 0,596 0,0 Z" />
    </clipPath>
  </defs>
  <sodipodi:namedview
     id="base"
     pagecolor="#ffffff"
     bordercolor="#666666"
     borderopacity="1.0"
     inkscape:pageopacity="0.0"
     inkscape:pageshadow="2"
     inkscape:zoom="0.98994949"
     inkscape:cx="514.51002"
     inkscape:cy="10.938895"
     inkscape:document-units="px"
     inkscape:current-layer="layer1"
     showgrid="false"
     fit-margin-top="0"
     fit-margin-left="0"
     fit-margin-right="0"
     fit-margin-bottom="0"
     inkscape:window-width="1401"
     inkscape:window-height="732"
     inkscape:window-x="-8"
     inkscape:window-y="-8"
     inkscape:window-maximized="1" />
  <metadata
     id="metadata12588">
    <rdf:RDF>
      <cc:Work
         rdf:about="">
        <dc:format>image/svg+xml</dc:format>
        <dc:type
           rdf:resource="http://purl.org/dc/dcmitype/StillImage" />
        <dc:title></dc:title>
      </cc:Work>
    </rdf:RDF>
  </metadata>
  <g
     inkscape:label="Layer 1"
     inkscape:groupmode="layer"
     id="layer1"
     transform="translate(444.73215,-286.6872)">
    <g
       id="g12603"
       transform="matrix(1.25,0,0,1.25,-489.73215,180.4872)">
      <g
         id="g12605" />
    </g>
    <g
       id="g12607"
       transform="matrix(1.25,0,0,1.25,-489.73215,180.4872)">
      <g
         id="g12609" />
      <g
         id="g12611" />
    </g>
    <g
       id="g12631"
       transform="matrix(1.25,0,0,1.25,-489.73215,180.4872)">
      <g
         clip-path="url(#clipPath12635)"
         id="g12633">
        <g
           clip-path="url(#clipPath12641)"
           id="g12639">
          <g
             id="g12645" />
        </g>
      </g>
    </g>
    <g
       id="g12647"
       transform="matrix(1.25,0,0,1.25,-489.73215,180.4872)">
      <g
         id="g12649" />
    </g>
    <g
       id="g12651"
       transform="matrix(1.25,0,0,1.25,-489.73215,180.4872)">
      <g
         clip-path="url(#clipPath12655)"
         id="g12653">
        <g
           id="g12659" />
        <g
           id="g12661" />
      </g>
    </g>
    <g
       id="g12663"
       transform="matrix(1.25,0,0,1.25,-489.73215,180.4872)">
      <g
         clip-path="url(#clipPath12667)"
         id="g12665">
        <g
           clip-path="url(#clipPath12673)"
           id="g12671">
          <g
             id="g12677" />
        </g>
      </g>
    </g>
    <g
       id="g12679"
       transform="matrix(1.25,0,0,1.25,-489.73215,180.4872)">
      <g
         id="g12681" />
    </g>
    <g
       id="g12683"
       transform="matrix(1.25,0,0,1.25,-489.73215,180.4872)">
      <g
         clip-path="url(#clipPath12687)"
         id="g12685">
        <g
           id="g12691" />
        <g
           id="g12693" />
      </g>
    </g>
    <g
       id="g12695"
       transform="matrix(1.25,0,0,1.25,-489.73215,180.4872)">
      <g
         clip-path="url(#clipPath12699)"
         id="g12697">
        <g
           clip-path="url(#clipPath12705)"
           id="g12703">
          <g
             id="g12709" />
        </g>
      </g>
    </g>
    <g
       id="g12711"
       transform="matrix(1.25,0,0,1.25,-489.73215,180.4872)">
      <g
         id="g12713" />
    </g>
    <g
       id="g12715"
       transform="matrix(1.25,0,0,1.25,-489.73215,180.4872)">
      <g
         clip-path="url(#clipPath12719)"
         id="g12717">
        <g
           id="g12723" />
        <g
           id="g12725" />
      </g>
    </g>
    <g
       id="g12727"
       transform="matrix(1.25,0,0,1.25,-489.73215,180.4872)">
      <g
         clip-path="url(#clipPath12731)"
         id="g12729">
        <g
           clip-path="url(#clipPath12737)"
           id="g12735">
          <g
             id="g12741" />
        </g>
      </g>
    </g>
    <g
       id="g12743"
       transform="matrix(1.25,0,0,1.25,-489.73215,180.4872)">
      <g
         id="g12745" />
    </g>
    <g
       id="g12747"
       transform="matrix(1.25,0,0,1.25,-489.73215,180.4872)">
      <g
         clip-path="url(#clipPath12751)"
         id="g12749">
        <g
           id="g12755" />
        <g
           id="g12757" />
      </g>
    </g>
    <g
       id="g12759"
       transform="matrix(1.25,0,0,1.25,-489.73215,180.4872)">
      <g
         clip-path="url(#clipPath12763)"
         id="g12761">
        <g
           clip-path="url(#clipPath12769)"
           id="g12767">
          <g
             id="g12773" />
        </g>
      </g>
    </g>
    <g
       id="g12775"
       transform="matrix(1.25,0,0,1.25,-489.73215,180.4872)">
      <g
         id="g12777" />
    </g>
    <g
       id="g12779"
       transform="matrix(1.25,0,0,1.25,-489.73215,180.4872)">
      <g
         clip-path="url(#clipPath12783)"
         id="g12781">
        <g
           id="g12787" />
        <g
           id="g12789" />
      </g>
    </g>
    <g
       id="g12791"
       transform="matrix(1.25,0,0,1.25,-489.73215,180.4872)">
      <g
         clip-path="url(#clipPath12795)"
         id="g12793">
        <g
           clip-path="url(#clipPath12801)"
           id="g12799">
          <g
             id="g12805" />
        </g>
      </g>
    </g>
    <g
       id="g12807"
       transform="matrix(1.25,0,0,1.25,-489.73215,180.4872)">
      <g
         id="g12809" />
    </g>
    <g
       id="g12811"
       transform="matrix(1.25,0,0,1.25,-489.73215,180.4872)">
      <g
         clip-path="url(#clipPath12815)"
         id="g12813">
        <g
           id="g12819" />
        <g
           id="g12821" />
      </g>
    </g>
    <g
       id="g12823"
       transform="matrix(1.25,0,0,1.25,-489.73215,180.4872)">
      <g
         clip-path="url(#clipPath12827)"
         id="g12825">
        <g
           clip-path="url(#clipPath12833)"
           id="g12831">
          <g
             id="g12837" />
        </g>
      </g>
    </g>
    <g
       id="g12839"
       transform="matrix(1.25,0,0,1.25,-489.73215,180.4872)">
      <g
         id="g12841" />
    </g>
    <g
       id="g12843"
       transform="matrix(1.25,0,0,1.25,-489.73215,180.4872)">
      <g
         clip-path="url(#clipPath12847)"
         id="g12845">
        <g
           id="g12851" />
        <g
           id="g12853" />
      </g>
    </g>
    <g
       id="g12855"
       transform="matrix(1.25,0,0,1.25,-489.73215,180.4872)">
      <g
         clip-path="url(#clipPath12859)"
         id="g12857">
        <g
           clip-path="url(#clipPath12865)"
           id="g12863">
          <g
             id="g12869" />
        </g>
      </g>
    </g>
    <g
       id="g12871"
       transform="matrix(1.25,0,0,1.25,-489.73215,180.4872)">
      <g
         id="g12873" />
    </g>
    <g
       id="g12875"
       transform="matrix(1.25,0,0,1.25,-489.73215,180.4872)">
      <g
         clip-path="url(#clipPath12879)"
         id="g12877">
        <g
           id="g12883" />
        <g
           id="g12885" />
      </g>
    </g>
    <g
       id="g12887"
       transform="matrix(1.25,0,0,1.25,-489.73215,180.4872)">
      <g
         clip-path="url(#clipPath12891)"
         id="g12889">
        <g
           clip-path="url(#clipPath12897)"
           id="g12895">
          <g
             id="g12901" />
        </g>
      </g>
    </g>
    <g
       id="g12903"
       transform="matrix(1.25,0,0,1.25,-489.73215,180.4872)">
      <g
         clip-path="url(#clipPath12907)"
         id="g12905">
        <g
           clip-path="url(#clipPath12913)"
           id="g12911">
          <g
             clip-path="url(#clipPath12919)"
             id="g12917">
            <g
               id="g12923" />
            <g
               transform="translate(0.5,0.5)"
               id="g12925">
              <path
                 inkscape:connector-curvature="0"
                 id="path12927"
                 style="fill:none;stroke:#000000;stroke-width:1;stroke-linecap:butt;stroke-linejoin:miter;stroke-miterlimit:10;stroke-dasharray:none;stroke-opacity:1"
                 d="m 345.60001,146.16 -38.62,0" />
            </g>
            <g
               id="g12929">
              <path
                 inkscape:connector-curvature="0"
                 id="path12931"
                 style="fill:#000000;fill-opacity:1;fill-rule:nonzero;stroke:none"
                 d="m 303.70001,146.66 5.03998,-2.52 -1.25998,2.52 1.25998,2.51999 -5.03998,-2.51999 z" />
            </g>
            <g
               transform="translate(0.5,0.5)"
               id="g12933">
              <path
                 inkscape:connector-curvature="0"
                 id="path12935"
                 style="fill:none;stroke:#000000;stroke-width:1;stroke-linecap:butt;stroke-linejoin:miter;stroke-miterlimit:10;stroke-dasharray:none;stroke-opacity:1"
                 d="m 303.20001,146.16 5.03998,-2.52 -1.25998,2.52 1.25998,2.51999 -5.03998,-2.51999 z" />
            </g>
            <g
               id="g12937" />
            <g
               transform="translate(0.5,0.5)"
               id="g12939" />
            <g
               id="g12941">
              <path
                 inkscape:connector-curvature="0"
                 id="path12943"
                 style="fill:#ffffff;fill-opacity:1;fill-rule:nonzero;stroke:none"
                 d="m 350.42001,132.25999 56.16001,0 c 2.38586,0 4.32,1.93413 4.32,4.32001 l 0,20.15999 c 0,2.38588 -1.93414,4.32001 -4.32,4.32001 l -56.16001,0 c -2.38586,0 -4.32,-1.93413 -4.32,-4.32001 l 0,-20.15999 c 0,-2.38588 1.93414,-4.32001 4.32,-4.32001 z" />
            </g>
            <g
               transform="translate(0.5,0.5)"
               id="g12945">
              <path
                 inkscape:connector-curvature="0"
                 id="path12947"
                 style="fill:none;stroke:#000000;stroke-width:1;stroke-linecap:butt;stroke-linejoin:miter;stroke-miterlimit:10;stroke-dasharray:none;stroke-opacity:1"
                 d="m 349.92001,131.75999 56.16001,0 c 2.38586,0 4.32,1.93413 4.32,4.32001 l 0,20.15999 c 0,2.38588 -1.93414,4.32001 -4.32,4.32001 l -56.16001,0 c -2.38586,0 -4.32,-1.93413 -4.32,-4.32001 l 0,-20.15999 c 0,-2.38588 1.93414,-4.32001 4.32,-4.32001 z" />
            </g>
            <g
               id="g12949" />
            <g
               transform="matrix(0.71999997,0,0,0.71999997,356,140)"
               id="g12951">
              <g
                 id="g12953" />
            </g>
            <g
               id="g12955">
              <path
                 inkscape:connector-curvature="0"
                 id="path12957"
                 style="fill:#000000;fill-opacity:1;fill-rule:nonzero;stroke:none"
                 d="m 356.86221,148.83002 c -0.40254,-0.49043 -0.60381,-1.08721 -0.60381,-1.79033 l 0.9914,0 c 0.0422,0.48867 0.1336,0.84375 0.27422,1.06523 0.2461,0.39727 0.69082,0.5959 1.33418,0.5959 0.49922,0 0.9,-0.13359 1.20235,-0.40078 0.30234,-0.26719 0.45351,-0.61172 0.45351,-1.0336 0,-0.52031 -0.15908,-0.88417 -0.47724,-1.0916 -0.31817,-0.20742 -0.76026,-0.31113 -1.32627,-0.31113 -0.0633,0 -0.12745,8.8e-4 -0.19248,0.003 -0.065,0.002 -0.13096,0.004 -0.19776,0.008 l 0,-0.83848 c 0.0984,0.0106 0.18106,0.0176 0.24785,0.0211 0.0668,0.004 0.13887,0.005 0.21621,0.005 0.35508,0 0.64688,-0.0563 0.8754,-0.16875 0.40078,-0.19688 0.60117,-0.54844 0.60117,-1.05469 0,-0.37617 -0.1336,-0.66621 -0.40078,-0.87012 -0.26719,-0.2039 -0.57833,-0.30586 -0.9334,-0.30586 -0.63282,0 -1.07051,0.21094 -1.31309,0.63282 -0.13359,0.23203 -0.20918,0.5625 -0.22676,0.9914 l -0.93867,0 c 0,-0.5625 0.1125,-1.04062 0.3375,-1.43437 0.38672,-0.70313 1.06699,-1.05469 2.04082,-1.05469 0.76992,0 1.36582,0.17139 1.7877,0.51416 0.42187,0.34277 0.63281,0.83936 0.63281,1.48975 0,0.46406 -0.1248,0.84023 -0.37441,1.12851 -0.15469,0.1793 -0.35508,0.31992 -0.60118,0.42188 0.39727,0.10898 0.70752,0.31904 0.93076,0.63017 0.22325,0.31113 0.33487,0.6917 0.33487,1.1417 0,0.7207 -0.23731,1.30781 -0.71192,1.76133 -0.4746,0.45351 -1.14785,0.68027 -2.01972,0.68027 -0.89297,0 -1.54072,-0.24521 -1.94326,-0.73564 z m 9.0522,-4.2082 c 0.23555,-0.23379 0.35332,-0.51241 0.35332,-0.83584 0,-0.28125 -0.1125,-0.53965 -0.3375,-0.7752 -0.225,-0.23555 -0.56777,-0.35332 -1.02832,-0.35332 -0.45703,0 -0.7875,0.11777 -0.9914,0.35332 -0.20391,0.23555 -0.30586,0.51152 -0.30586,0.82793 0,0.35508 0.13183,0.63281 0.3955,0.8332 0.26368,0.20039 0.57481,0.30059 0.9334,0.30059 0.41836,0 0.74532,-0.1169 0.98086,-0.35068 z m 0.17139,3.73359 c 0.29004,-0.23731 0.43506,-0.59151 0.43506,-1.0626 0,-0.48867 -0.14942,-0.85957 -0.44824,-1.11269 -0.29883,-0.25313 -0.68204,-0.37969 -1.14961,-0.37969 -0.45352,0 -0.82354,0.1292 -1.11006,0.3876 -0.28653,0.25839 -0.42979,0.61611 -0.42979,1.07314 0,0.39375 0.13096,0.73389 0.39287,1.02041 0.26192,0.28652 0.66709,0.42979 1.21553,0.42979 0.43945,0 0.8042,-0.11866 1.09424,-0.35596 z m -3.06123,-3.41455 c -0.27774,-0.28125 -0.4166,-0.64688 -0.4166,-1.09688 0,-0.5625 0.2039,-1.0459 0.61172,-1.45019 0.40781,-0.4043 0.98613,-0.60645 1.73496,-0.60645 0.72422,0 1.29199,0.19073 1.70332,0.57217 0.41133,0.38145 0.61699,0.82705 0.61699,1.33682 0,0.47109 -0.11953,0.85254 -0.35859,1.14433 -0.1336,0.16524 -0.34102,0.32696 -0.62227,0.48516 0.31289,0.14414 0.55899,0.30937 0.73828,0.4957 0.33399,0.35156 0.50098,0.8086 0.50098,1.3711 0,0.66445 -0.22324,1.22783 -0.66973,1.69013 -0.44648,0.46231 -1.07754,0.69346 -1.89316,0.69346 -0.73477,0 -1.35615,-0.19951 -1.86416,-0.59854 -0.50801,-0.39902 -0.76201,-0.97822 -0.76201,-1.73759 0,-0.44649 0.10898,-0.83233 0.32695,-1.15752 0.21797,-0.3252 0.5414,-0.57393 0.97031,-0.74619 -0.26367,-0.1125 -0.46933,-0.24434 -0.61699,-0.39551 z m 6.10699,-2.95313 c 0.22149,-0.32343 0.64863,-0.48515 1.28145,-0.48515 0.0598,0 0.12129,0.002 0.18457,0.005 0.0633,0.004 0.13535,0.009 0.21621,0.0158 l 0,0.86484 c -0.0984,-0.007 -0.16963,-0.0114 -0.21358,-0.0132 -0.0439,-0.002 -0.0853,-0.003 -0.12392,-0.003 -0.28828,0 -0.46055,0.0747 -0.5168,0.22413 -0.0563,0.14941 -0.0844,0.52998 -0.0844,1.14169 l 0.93867,0 0,0.74883 -0.94922,0 0,4.87266 -0.93867,0 0,-4.87266 -0.78575,0 0,-0.74883 0.78575,0 0,-0.88593 c 0.0141,-0.39375 0.0826,-0.68203 0.20566,-0.86485 z m 2.88703,2.025 0,-0.72773 c 0.68555,-0.0668 1.16367,-0.17842 1.43438,-0.33486 0.2707,-0.15645 0.47285,-0.52647 0.60644,-1.11006 l 0.74883,0 0,7.51992 -1.0125,0 0,-5.34727 -1.77715,0 z m 8.53278,2.67364 0,-3.42246 -2.42051,3.42246 2.42051,0 z m 0.0158,2.67363 0,-1.8457 -3.31172,0 0,-0.92813 3.45937,-4.79883 0.80156,0 0,4.89903 1.1127,0 0,0.82793 -1.1127,0 0,1.8457 -0.94921,0 z m 7.33306,-6.92666 c 0.33223,0.43769 0.49834,0.88857 0.49834,1.35264 l -0.93867,0 c -0.0563,-0.29883 -0.1459,-0.53262 -0.26895,-0.70137 -0.22851,-0.31641 -0.5748,-0.47461 -1.03886,-0.47461 -0.53086,0 -0.95274,0.24521 -1.26563,0.73564 -0.31289,0.49043 -0.48691,1.19268 -0.52207,2.10674 0.21797,-0.31992 0.49219,-0.55898 0.82266,-0.71719 0.30234,-0.14062 0.63984,-0.21093 1.0125,-0.21093 0.63281,0 1.18476,0.20215 1.65586,0.60644 0.47109,0.4043 0.70664,1.00723 0.70664,1.80879 0,0.68555 -0.22324,1.29287 -0.66973,1.82197 -0.44648,0.52911 -1.08281,0.79366 -1.90898,0.79366 -0.70664,0 -1.3166,-0.26807 -1.82988,-0.8042 -0.51329,-0.53614 -0.76993,-1.43877 -0.76993,-2.70791 0,-0.93868 0.11426,-1.73496 0.34278,-2.38887 0.43945,-1.25156 1.24277,-1.87734 2.40996,-1.87734 0.84375,0 1.43173,0.21884 1.76396,0.65654 z m -0.71191,5.77441 c 0.24785,-0.33574 0.37177,-0.73213 0.37177,-1.18916 0,-0.38672 -0.11074,-0.75498 -0.33222,-1.10478 -0.22149,-0.34981 -0.62402,-0.52471 -1.20762,-0.52471 -0.40781,0 -0.76553,0.13535 -1.07314,0.40606 -0.30762,0.2707 -0.46143,0.67851 -0.46143,1.22343 0,0.47813 0.13975,0.87979 0.41924,1.20498 0.27949,0.3252 0.66709,0.4878 1.16279,0.4878 0.49922,0 0.87276,-0.16788 1.12061,-0.50362 z m 6.70816,-5.77441 c 0.33223,0.43769 0.49834,0.88857 0.49834,1.35264 l -0.93867,0 c -0.0562,-0.29883 -0.1459,-0.53262 -0.26895,-0.70137 -0.22851,-0.31641 -0.5748,-0.47461 -1.03886,-0.47461 -0.53086,0 -0.95274,0.24521 -1.26563,0.73564 -0.31289,0.49043 -0.48691,1.19268 -0.52207,2.10674 0.21797,-0.31992 0.49219,-0.55898 0.82266,-0.71719 0.30234,-0.14062 0.63984,-0.21093 1.0125,-0.21093 0.63281,0 1.18476,0.20215 1.65586,0.60644 0.47109,0.4043 0.70664,1.00723 0.70664,1.80879 0,0.68555 -0.22324,1.29287 -0.66973,1.82197 -0.44648,0.52911 -1.08281,0.79366 -1.90898,0.79366 -0.70664,0 -1.3166,-0.26807 -1.82988,-0.8042 -0.51329,-0.53614 -0.76993,-1.43877 -0.76993,-2.70791 0,-0.93868 0.11426,-1.73496 0.34278,-2.38887 0.43945,-1.25156 1.24277,-1.87734 2.40996,-1.87734 0.84375,0 1.43173,0.21884 1.76396,0.65654 z m -0.71191,5.77441 c 0.24785,-0.33574 0.37177,-0.73213 0.37177,-1.18916 0,-0.38672 -0.11074,-0.75498 -0.33222,-1.10478 -0.22149,-0.34981 -0.62403,-0.52471 -1.20762,-0.52471 -0.40781,0 -0.76553,0.13535 -1.07314,0.40606 -0.30762,0.2707 -0.46143,0.67851 -0.46143,1.22343 0,0.47813 0.13975,0.87979 0.41924,1.20498 0.27949,0.3252 0.66709,0.4878 1.16279,0.4878 0.49922,0 0.87276,-0.16788 1.12061,-0.50362 z m 2.92447,-6.22002 c 0.22148,-0.32343 0.64863,-0.48515 1.28145,-0.48515 0.0598,0 0.12128,0.002 0.18457,0.005 0.0633,0.004 0.13535,0.009 0.21621,0.0158 l 0,0.86484 c -0.0984,-0.007 -0.16963,-0.0114 -0.21358,-0.0132 -0.0439,-0.002 -0.0853,-0.003 -0.12392,-0.003 -0.28828,0 -0.46055,0.0747 -0.5168,0.22413 -0.0562,0.14941 -0.0844,0.52998 -0.0844,1.14169 l 0.93867,0 0,0.74883 -0.94922,0 0,4.87266 -0.93867,0 0,-4.87266 -0.78575,0 0,-0.74883 0.78575,0 0,-0.88593 c 0.0141,-0.39375 0.0826,-0.68203 0.20566,-0.86485 z" />
            </g>
            <g
               transform="matrix(0.71999997,0,0,0.71999997,356,140)"
               id="g12959">
              <g
                 id="g12961" />
            </g>
            <g
               id="g12963" />
            <g
               transform="translate(0.5,0.5)"
               id="g12965" />
            <g
               id="g12967">
              <path
                 inkscape:connector-curvature="0"
                 id="path12969"
                 style="fill:#ffffff;fill-opacity:1;fill-rule:nonzero;stroke:none"
                 d="m 242.42001,132.25999 56.16001,0 c 2.38586,0 4.32,1.93413 4.32,4.32001 l 0,20.15999 c 0,2.38588 -1.93414,4.32001 -4.32,4.32001 l -56.16001,0 c -2.38588,0 -4.32,-1.93413 -4.32,-4.32001 l 0,-20.15999 c 0,-2.38588 1.93412,-4.32001 4.32,-4.32001 z" />
            </g>
            <g
               transform="translate(0.5,0.5)"
               id="g12971">
              <path
                 inkscape:connector-curvature="0"
                 id="path12973"
                 style="fill:none;stroke:#000000;stroke-width:1;stroke-linecap:butt;stroke-linejoin:miter;stroke-miterlimit:10;stroke-dasharray:none;stroke-opacity:1"
                 d="m 241.92001,131.75999 56.16001,0 c 2.38586,0 4.32,1.93413 4.32,4.32001 l 0,20.15999 c 0,2.38588 -1.93414,4.32001 -4.32,4.32001 l -56.16001,0 c -2.38588,0 -4.32,-1.93413 -4.32,-4.32001 l 0,-20.15999 c 0,-2.38588 1.93412,-4.32001 4.32,-4.32001 z" />
            </g>
            <g
               id="g12975" />
            <g
               transform="matrix(0.71999997,0,0,0.71999997,248,140)"
               id="g12977">
              <g
                 id="g12979" />
            </g>
            <g
               id="g12981">
              <path
                 inkscape:connector-curvature="0"
                 id="path12983"
                 style="fill:#000000;fill-opacity:1;fill-rule:nonzero;stroke:none"
                 d="m 250.40223,148.12074 c 0.25664,0.40781 0.66796,0.61172 1.23398,0.61172 0.43945,0 0.80068,-0.18897 1.08369,-0.56689 0.28301,-0.37793 0.42451,-0.92022 0.42451,-1.62686 0,-0.71367 -0.1459,-1.24189 -0.43769,-1.58467 -0.2918,-0.34277 -0.65215,-0.51416 -1.08106,-0.51416 -0.47812,0 -0.86572,0.18281 -1.16279,0.54844 -0.29707,0.36562 -0.44561,0.90352 -0.44561,1.61367 0,0.60469 0.12832,1.11094 0.38497,1.51875 z m 2.13046,-4.23457 c 0.16875,0.10547 0.36036,0.29004 0.57481,0.55371 l 0,-2.85293 0.9123,0 0,7.77305 -0.85429,0 0,-0.78574 c -0.22149,0.34804 -0.4834,0.59941 -0.78575,0.7541 -0.30234,0.15469 -0.64863,0.23203 -1.03886,0.23203 -0.6293,0 -1.17422,-0.26455 -1.63477,-0.79365 -0.46055,-0.5291 -0.69082,-1.23311 -0.69082,-2.11201 0,-0.82266 0.21006,-1.53545 0.63018,-2.13838 0.42011,-0.60293 1.02041,-0.9044 1.80088,-0.9044 0.43242,0 0.79453,0.0914 1.08632,0.27422 z m 3.61793,3.64922 c 0.0281,0.52383 0.23028,0.88594 0.60645,1.08633 0.19336,0.10547 0.41133,0.1582 0.65391,0.1582 0.45351,0 0.84023,-0.18896 1.16015,-0.56689 0.31992,-0.37793 0.54668,-1.14522 0.68027,-2.30186 -0.21093,0.33398 -0.47197,0.56865 -0.7831,0.704 -0.31113,0.13536 -0.646,0.20303 -1.00459,0.20303 -0.72773,0 -1.30342,-0.22675 -1.72705,-0.68027 -0.42363,-0.45352 -0.63545,-1.03711 -0.63545,-1.75078 0,-0.68555 0.20918,-1.28848 0.62754,-1.80879 0.41836,-0.52031 1.03535,-0.78047 1.85098,-0.78047 1.10039,0 1.85976,0.4957 2.27812,1.48711 0.23203,0.54492 0.34805,1.22695 0.34805,2.04609 0,0.92461 -0.13887,1.74375 -0.4166,2.45742 -0.46055,1.18829 -1.24102,1.78243 -2.34141,1.78243 -0.73828,0 -1.29902,-0.19336 -1.68223,-0.58008 -0.3832,-0.38672 -0.5748,-0.87188 -0.5748,-1.45547 l 0.95976,0 z m 2.47061,-1.92217 c 0.31113,-0.24785 0.4667,-0.68115 0.4667,-1.2999 0,-0.55547 -0.13975,-0.96943 -0.41924,-1.2419 -0.27949,-0.27246 -0.63545,-0.40869 -1.06787,-0.40869 -0.46406,0 -0.83233,0.15557 -1.10479,0.4667 -0.27246,0.31114 -0.40869,0.72686 -0.40869,1.24717 0,0.49219 0.11953,0.8833 0.3586,1.17334 0.23906,0.29004 0.6205,0.43506 1.14433,0.43506 0.37617,0 0.71983,-0.12393 1.03096,-0.37178 z m 2.71353,-4.02627 0.92286,0 0,2.81074 c 0.20742,-0.2707 0.45527,-0.47724 0.74355,-0.61962 0.28828,-0.14239 0.60117,-0.21358 0.93867,-0.21358 0.70313,0 1.27354,0.2417 1.71123,0.7251 0.4377,0.4834 0.65655,1.19619 0.65655,2.13838 0,0.89297 -0.21622,1.63476 -0.64864,2.22539 -0.43242,0.59062 -1.03183,0.88594 -1.79824,0.88594 -0.42891,0 -0.79102,-0.10372 -1.08633,-0.31114 -0.17578,-0.12304 -0.36386,-0.31992 -0.56426,-0.59062 l 0,0.72246 -0.87539,0 0,-7.77305 z m 3.62022,6.50215 c 0.25488,-0.40781 0.38232,-0.9457 0.38232,-1.61367 0,-0.59414 -0.12744,-1.08633 -0.38232,-1.47656 -0.25488,-0.39024 -0.63018,-0.58536 -1.12588,-0.58536 -0.43242,0 -0.81123,0.15997 -1.13643,0.47989 -0.32519,0.31992 -0.48779,0.84726 -0.48779,1.58203 0,0.53086 0.0668,0.96152 0.20039,1.29199 0.24961,0.62227 0.71543,0.9334 1.39746,0.9334 0.51328,0 0.89737,-0.20391 1.15225,-0.61172 z m 3.08795,-0.65391 c 0.0633,0.54141 0.31465,0.91583 0.7541,1.12325 0.225,0.10546 0.48516,0.1582 0.78047,0.1582 0.5625,0 0.9791,-0.1793 1.2498,-0.53789 0.27071,-0.3586 0.40606,-0.75586 0.40606,-1.1918 0,-0.52734 -0.16084,-0.93515 -0.48252,-1.22344 -0.32168,-0.28828 -0.70752,-0.43242 -1.15752,-0.43242 -0.32695,0 -0.60733,0.0633 -0.84111,0.18985 -0.23379,0.12656 -0.43331,0.30234 -0.59854,0.52734 l -0.82266,-0.0475 0.57481,-4.06582 3.92344,0 0,0.91758 -3.21153,0 -0.32168,2.09883 c 0.17578,-0.1336 0.34278,-0.23379 0.50098,-0.30059 0.28125,-0.11602 0.60644,-0.17402 0.97559,-0.17402 0.69257,0 1.27968,0.22324 1.76132,0.66972 0.48164,0.44649 0.72246,1.0125 0.72246,1.69805 0,0.71367 -0.2206,1.34297 -0.66181,1.88789 -0.44121,0.54492 -1.14522,0.81738 -2.11201,0.81738 -0.61524,0 -1.15928,-0.17314 -1.63213,-0.51943 -0.47285,-0.34629 -0.7374,-0.87803 -0.79365,-1.59522 l 0.98613,0 z m 10.30992,-5.50019 0,0.82793 c -0.24258,0.23555 -0.56514,0.64512 -0.96768,1.22871 -0.40254,0.58359 -0.75849,1.21289 -1.06787,1.88789 -0.30586,0.65742 -0.53789,1.25684 -0.69609,1.79824 -0.10195,0.34805 -0.23379,0.90879 -0.39551,1.68223 l -1.04941,0 c 0.23906,-1.44141 0.7664,-2.87578 1.58203,-4.30313 0.48164,-0.83671 0.98789,-1.55918 1.51875,-2.16738 l -4.17656,0 0,-0.95449 5.25234,0 z m 5.27115,0.49834 c 0.33223,0.43769 0.49834,0.88857 0.49834,1.35264 l -0.93867,0 c -0.0563,-0.29883 -0.1459,-0.53262 -0.26895,-0.70137 -0.22851,-0.31641 -0.5748,-0.47461 -1.03886,-0.47461 -0.53086,0 -0.95274,0.24521 -1.26563,0.73564 -0.31289,0.49043 -0.48691,1.19268 -0.52207,2.10674 0.21797,-0.31992 0.49219,-0.55898 0.82266,-0.71719 0.30234,-0.14062 0.63984,-0.21093 1.0125,-0.21093 0.63281,0 1.18476,0.20215 1.65586,0.60644 0.47109,0.4043 0.70664,1.00723 0.70664,1.80879 0,0.68555 -0.22324,1.29287 -0.66973,1.82197 -0.44648,0.52911 -1.08281,0.79366 -1.90898,0.79366 -0.70664,0 -1.3166,-0.26807 -1.82989,-0.8042 -0.51328,-0.53614 -0.76992,-1.43877 -0.76992,-2.70791 0,-0.93868 0.11426,-1.73496 0.34278,-2.38887 0.43945,-1.25156 1.24277,-1.87734 2.40996,-1.87734 0.84375,0 1.43173,0.21884 1.76396,0.65654 z m -0.71191,5.77441 c 0.24785,-0.33574 0.37177,-0.73213 0.37177,-1.18916 0,-0.38672 -0.11074,-0.75498 -0.33222,-1.10478 -0.22149,-0.34981 -0.62403,-0.52471 -1.20762,-0.52471 -0.40781,0 -0.76553,0.13535 -1.07314,0.40606 -0.30762,0.2707 -0.46143,0.67851 -0.46143,1.22343 0,0.47813 0.13975,0.87979 0.41924,1.20498 0.27949,0.3252 0.66709,0.4878 1.16279,0.4878 0.49922,0 0.87276,-0.16788 1.12061,-0.50362 z m 2.92447,-6.22002 c 0.22148,-0.32343 0.64863,-0.48515 1.28145,-0.48515 0.0598,0 0.12128,0.002 0.18457,0.005 0.0633,0.004 0.13535,0.009 0.21621,0.0158 l 0,0.86484 c -0.0984,-0.007 -0.16963,-0.0114 -0.21358,-0.0132 -0.0439,-0.002 -0.0852,-0.003 -0.12392,-0.003 -0.28828,0 -0.46055,0.0747 -0.5168,0.22413 -0.0562,0.14941 -0.0844,0.52998 -0.0844,1.14169 l 0.93868,0 0,0.74883 -0.94922,0 0,4.87266 -0.93867,0 0,-4.87266 -0.78575,0 0,-0.74883 0.78575,0 0,-0.88593 c 0.0141,-0.39375 0.0826,-0.68203 0.20566,-0.86485 z m 6.28049,2.025 c 0.39902,0.30938 0.63896,0.842 0.71982,1.59785 l -0.92285,0 c -0.0562,-0.34804 -0.18457,-0.6372 -0.38496,-0.86748 -0.20039,-0.23027 -0.52207,-0.34541 -0.96504,-0.34541 -0.60469,0 -1.03711,0.29532 -1.29726,0.88594 -0.16875,0.3832 -0.25313,0.85606 -0.25313,1.41856 0,0.56601 0.11953,1.04238 0.35859,1.4291 0.23907,0.38672 0.61524,0.58008 1.12852,0.58008 0.39375,0 0.70576,-0.12041 0.93603,-0.36123 0.23028,-0.24082 0.38936,-0.57041 0.47725,-0.98877 l 0.92285,0 c -0.10547,0.74882 -0.36914,1.29638 -0.79101,1.64267 -0.42188,0.34629 -0.96153,0.51944 -1.61895,0.51944 -0.73828,0 -1.32715,-0.26983 -1.7666,-0.80948 -0.43945,-0.53965 -0.65918,-1.21377 -0.65918,-2.02236 0,-0.99141 0.24082,-1.76309 0.72246,-2.31504 0.48164,-0.55195 1.09512,-0.82793 1.84043,-0.82793 0.63633,0 1.154,0.15469 1.55303,0.46406 z" />
            </g>
            <g
               transform="matrix(0.71999997,0,0,0.71999997,248,140)"
               id="g12985">
              <g
                 id="g12987" />
            </g>
            <g
               id="g12989" />
            <g
               transform="translate(0.5,0.5)"
               id="g12991">
              <path
                 inkscape:connector-curvature="0"
                 id="path12993"
                 style="fill:none;stroke:#000000;stroke-width:1;stroke-linecap:butt;stroke-linejoin:miter;stroke-miterlimit:10;stroke-dasharray:none;stroke-opacity:1"
                 d="m 133.2,146.16 -27.82,0" />
            </g>
            <g
               id="g12995">
              <path
                 inkscape:connector-curvature="0"
                 id="path12997"
                 style="fill:#000000;fill-opacity:1;fill-rule:nonzero;stroke:none"
                 d="m 102.1,146.66 5.04,-2.52 -1.26,2.52 1.26,2.51999 -5.04,-2.51999 z" />
            </g>
            <g
               transform="translate(0.5,0.5)"
               id="g12999">
              <path
                 inkscape:connector-curvature="0"
                 id="path13001"
                 style="fill:none;stroke:#000000;stroke-width:1;stroke-linecap:butt;stroke-linejoin:miter;stroke-miterlimit:10;stroke-dasharray:none;stroke-opacity:1"
                 d="m 101.6,146.16 5.04,-2.52 -1.26,2.52 1.26,2.51999 -5.04,-2.51999 z" />
            </g>
            <g
               id="g13003" />
            <g
               transform="translate(0.5,0.5)"
               id="g13005" />
            <g
               id="g13007">
              <path
                 inkscape:connector-curvature="0"
                 id="path13009"
                 style="fill:#ffffff;fill-opacity:1;fill-rule:nonzero;stroke:none"
                 d="m 138.02,132.25999 56.15999,0 c 2.38588,0 4.32001,1.93413 4.32001,4.32001 l 0,20.15999 c 0,2.38588 -1.93413,4.32001 -4.32001,4.32001 l -56.15999,0 c -2.38588,0 -4.32,-1.93413 -4.32,-4.32001 l 0,-20.15999 c 0,-2.38588 1.93412,-4.32001 4.32,-4.32001 z" />
            </g>
            <g
               transform="translate(0.5,0.5)"
               id="g13011">
              <path
                 inkscape:connector-curvature="0"
                 id="path13013"
                 style="fill:none;stroke:#000000;stroke-width:1;stroke-linecap:butt;stroke-linejoin:miter;stroke-miterlimit:10;stroke-dasharray:none;stroke-opacity:1"
                 d="m 137.52,131.75999 56.15999,0 c 2.38588,0 4.32001,1.93413 4.32001,4.32001 l 0,20.15999 c 0,2.38588 -1.93413,4.32001 -4.32001,4.32001 l -56.15999,0 c -2.38588,0 -4.32,-1.93413 -4.32,-4.32001 l 0,-20.15999 c 0,-2.38588 1.93412,-4.32001 4.32,-4.32001 z" />
            </g>
            <g
               id="g13015" />
            <g
               transform="matrix(0.71999997,0,0,0.71999997,145,140)"
               id="g13017">
              <g
                 id="g13019" />
            </g>
            <g
               id="g13021">
              <path
                 inkscape:connector-curvature="0"
                 id="path13023"
                 style="fill:#000000;fill-opacity:1;fill-rule:nonzero;stroke:none"
                 d="m 145.62226,141.58695 0.92286,0 0,2.81074 c 0.20742,-0.2707 0.45527,-0.47724 0.74355,-0.61962 0.28828,-0.14239 0.60117,-0.21358 0.93867,-0.21358 0.70313,0 1.27354,0.2417 1.71123,0.7251 0.4377,0.4834 0.65655,1.19619 0.65655,2.13838 0,0.89297 -0.21621,1.63476 -0.64864,2.22539 -0.43242,0.59062 -1.03183,0.88594 -1.79824,0.88594 -0.42891,0 -0.79101,-0.10372 -1.08633,-0.31114 -0.17578,-0.12304 -0.36386,-0.31992 -0.56425,-0.59062 l 0,0.72246 -0.8754,0 0,-7.77305 z m 3.62022,6.50215 c 0.25488,-0.40781 0.38232,-0.9457 0.38232,-1.61367 0,-0.59414 -0.12744,-1.08633 -0.38232,-1.47656 -0.25488,-0.39024 -0.63018,-0.58536 -1.12588,-0.58536 -0.43242,0 -0.81123,0.15997 -1.13643,0.47989 -0.32519,0.31992 -0.48779,0.84726 -0.48779,1.58203 0,0.53086 0.0668,0.96152 0.20039,1.29199 0.24961,0.62227 0.71543,0.9334 1.39746,0.9334 0.51328,0 0.89737,-0.20391 1.15225,-0.61172 z m 3.08795,-0.65391 c 0.0633,0.54141 0.31465,0.91583 0.7541,1.12325 0.225,0.10546 0.48516,0.1582 0.78047,0.1582 0.5625,0 0.9791,-0.1793 1.2498,-0.53789 0.27071,-0.3586 0.40606,-0.75586 0.40606,-1.1918 0,-0.52734 -0.16084,-0.93515 -0.48252,-1.22344 -0.32168,-0.28828 -0.70752,-0.43242 -1.15752,-0.43242 -0.32695,0 -0.60733,0.0633 -0.84111,0.18985 -0.23379,0.12656 -0.43331,0.30234 -0.59854,0.52734 l -0.82266,-0.0475 0.57481,-4.06582 3.92344,0 0,0.91758 -3.21153,0 -0.32168,2.09883 c 0.17578,-0.1336 0.34278,-0.23379 0.50098,-0.30059 0.28125,-0.11602 0.60645,-0.17402 0.97559,-0.17402 0.69257,0 1.27968,0.22324 1.76132,0.66972 0.48164,0.44649 0.72246,1.0125 0.72246,1.69805 0,0.71367 -0.2206,1.34297 -0.66181,1.88789 -0.44121,0.54492 -1.14522,0.81738 -2.11201,0.81738 -0.61524,0 -1.15928,-0.17314 -1.63213,-0.51943 -0.47285,-0.34629 -0.7374,-0.87803 -0.79365,-1.59522 l 0.98613,0 z m 8.58023,-2.81337 c 0.23555,-0.23379 0.35332,-0.51241 0.35332,-0.83584 0,-0.28125 -0.1125,-0.53965 -0.3375,-0.7752 -0.225,-0.23555 -0.56777,-0.35332 -1.02832,-0.35332 -0.45703,0 -0.7875,0.11777 -0.9914,0.35332 -0.20391,0.23555 -0.30586,0.51152 -0.30586,0.82793 0,0.35508 0.13183,0.63281 0.3955,0.8332 0.26368,0.20039 0.57481,0.30059 0.9334,0.30059 0.41836,0 0.74532,-0.1169 0.98086,-0.35068 z m 0.17139,3.73359 c 0.29004,-0.23731 0.43506,-0.59151 0.43506,-1.0626 0,-0.48867 -0.14942,-0.85957 -0.44824,-1.11269 -0.29883,-0.25313 -0.68203,-0.37969 -1.14961,-0.37969 -0.45352,0 -0.82354,0.1292 -1.11006,0.3876 -0.28653,0.25839 -0.42979,0.61611 -0.42979,1.07314 0,0.39375 0.13096,0.73389 0.39287,1.02041 0.26192,0.28652 0.66709,0.42979 1.21553,0.42979 0.43945,0 0.8042,-0.11866 1.09424,-0.35596 z m -3.06123,-3.41455 c -0.27774,-0.28125 -0.4166,-0.64688 -0.4166,-1.09688 0,-0.5625 0.2039,-1.0459 0.61172,-1.45019 0.40781,-0.4043 0.98613,-0.60645 1.73496,-0.60645 0.72422,0 1.29199,0.19073 1.70332,0.57217 0.41133,0.38145 0.61699,0.82705 0.61699,1.33682 0,0.47109 -0.11953,0.85254 -0.35859,1.14433 -0.1336,0.16524 -0.34102,0.32696 -0.62227,0.48516 0.31289,0.14414 0.55898,0.30937 0.73828,0.4957 0.33399,0.35156 0.50098,0.8086 0.50098,1.3711 0,0.66445 -0.22324,1.22783 -0.66973,1.69013 -0.44648,0.46231 -1.07754,0.69346 -1.89316,0.69346 -0.73477,0 -1.35616,-0.19951 -1.86416,-0.59854 -0.50801,-0.39902 -0.76201,-0.97822 -0.76201,-1.73759 0,-0.44649 0.10898,-0.83233 0.32695,-1.15752 0.21797,-0.3252 0.5414,-0.57393 0.97031,-0.74619 -0.26367,-0.1125 -0.46934,-0.24434 -0.61699,-0.39551 z m 8.88609,-0.31904 c 0.23555,-0.23379 0.35332,-0.51241 0.35332,-0.83584 0,-0.28125 -0.1125,-0.53965 -0.3375,-0.7752 -0.225,-0.23555 -0.56777,-0.35332 -1.02832,-0.35332 -0.45703,0 -0.7875,0.11777 -0.9914,0.35332 -0.20391,0.23555 -0.30586,0.51152 -0.30586,0.82793 0,0.35508 0.13183,0.63281 0.3955,0.8332 0.26368,0.20039 0.57481,0.30059 0.9334,0.30059 0.41836,0 0.74532,-0.1169 0.98086,-0.35068 z m 0.17139,3.73359 c 0.29004,-0.23731 0.43506,-0.59151 0.43506,-1.0626 0,-0.48867 -0.14942,-0.85957 -0.44824,-1.11269 -0.29883,-0.25313 -0.68204,-0.37969 -1.14961,-0.37969 -0.45352,0 -0.82354,0.1292 -1.11006,0.3876 -0.28653,0.25839 -0.42979,0.61611 -0.42979,1.07314 0,0.39375 0.13096,0.73389 0.39287,1.02041 0.26192,0.28652 0.66709,0.42979 1.21553,0.42979 0.43945,0 0.8042,-0.11866 1.09424,-0.35596 z m -3.06123,-3.41455 c -0.27774,-0.28125 -0.4166,-0.64688 -0.4166,-1.09688 0,-0.5625 0.2039,-1.0459 0.61172,-1.45019 0.40781,-0.4043 0.98613,-0.60645 1.73496,-0.60645 0.72422,0 1.29199,0.19073 1.70332,0.57217 0.41132,0.38145 0.61699,0.82705 0.61699,1.33682 0,0.47109 -0.11953,0.85254 -0.35859,1.14433 -0.1336,0.16524 -0.34102,0.32696 -0.62227,0.48516 0.31289,0.14414 0.55898,0.30937 0.73828,0.4957 0.33399,0.35156 0.50098,0.8086 0.50098,1.3711 0,0.66445 -0.22324,1.22783 -0.66973,1.69013 -0.44648,0.46231 -1.07754,0.69346 -1.89316,0.69346 -0.73477,0 -1.35616,-0.19951 -1.86416,-0.59854 -0.50801,-0.39902 -0.76201,-0.97822 -0.76201,-1.73759 0,-0.44649 0.10898,-0.83233 0.32695,-1.15752 0.21797,-0.3252 0.5414,-0.57393 0.97031,-0.74619 -0.26367,-0.1125 -0.46934,-0.24434 -0.61699,-0.39551 z m 6.10699,-2.95313 c 0.22148,-0.32343 0.64863,-0.48515 1.28145,-0.48515 0.0598,0 0.12128,0.002 0.18457,0.005 0.0633,0.004 0.13535,0.009 0.21621,0.0158 l 0,0.86484 c -0.0984,-0.007 -0.16963,-0.0114 -0.21358,-0.0132 -0.0439,-0.002 -0.0853,-0.003 -0.12392,-0.003 -0.28828,0 -0.46055,0.0747 -0.5168,0.22413 -0.0563,0.14941 -0.0844,0.52998 -0.0844,1.14169 l 0.93867,0 0,0.74883 -0.94922,0 0,4.87266 -0.93867,0 0,-4.87266 -0.78575,0 0,-0.74883 0.78575,0 0,-0.88593 c 0.0141,-0.39375 0.0826,-0.68203 0.20566,-0.86485 z m 2.9925,0 c 0.22149,-0.32343 0.64863,-0.48515 1.28145,-0.48515 0.0598,0 0.12128,0.002 0.18457,0.005 0.0633,0.004 0.13535,0.009 0.21621,0.0158 l 0,0.86484 c -0.0984,-0.007 -0.16963,-0.0114 -0.21358,-0.0132 -0.0439,-0.002 -0.0853,-0.003 -0.12392,-0.003 -0.28828,0 -0.46055,0.0747 -0.5168,0.22413 -0.0563,0.14941 -0.0844,0.52998 -0.0844,1.14169 l 0.93868,0 0,0.74883 -0.94922,0 0,4.87266 -0.93867,0 0,-4.87266 -0.78575,0 0,-0.74883 0.78575,0 0,-0.88593 c 0.0141,-0.39375 0.0826,-0.68203 0.20566,-0.86485 z m 6.77619,0.44561 c 0.33223,0.43769 0.49834,0.88857 0.49834,1.35264 l -0.93867,0 c -0.0562,-0.29883 -0.1459,-0.53262 -0.26895,-0.70137 -0.22851,-0.31641 -0.5748,-0.47461 -1.03886,-0.47461 -0.53086,0 -0.95274,0.24521 -1.26563,0.73564 -0.31289,0.49043 -0.48691,1.19268 -0.52207,2.10674 0.21797,-0.31992 0.49219,-0.55898 0.82266,-0.71719 0.30234,-0.14062 0.63984,-0.21093 1.0125,-0.21093 0.63281,0 1.18476,0.20215 1.65586,0.60644 0.47109,0.4043 0.70664,1.00723 0.70664,1.80879 0,0.68555 -0.22324,1.29287 -0.66973,1.82197 -0.44648,0.52911 -1.08281,0.79366 -1.90898,0.79366 -0.70664,0 -1.3166,-0.26807 -1.82989,-0.8042 -0.51328,-0.53614 -0.76992,-1.43877 -0.76992,-2.70791 0,-0.93868 0.11426,-1.73496 0.34278,-2.38887 0.43945,-1.25156 1.24277,-1.87734 2.40996,-1.87734 0.84375,0 1.43173,0.21884 1.76396,0.65654 z m -0.71191,5.77441 c 0.24785,-0.33574 0.37177,-0.73213 0.37177,-1.18916 0,-0.38672 -0.11074,-0.75498 -0.33222,-1.10478 -0.22149,-0.34981 -0.62403,-0.52471 -1.20762,-0.52471 -0.40781,0 -0.76553,0.13535 -1.07314,0.40606 -0.30762,0.2707 -0.46143,0.67851 -0.46143,1.22343 0,0.47813 0.13975,0.87979 0.41924,1.20498 0.27949,0.3252 0.66709,0.4878 1.16279,0.4878 0.49922,0 0.87276,-0.16788 1.12061,-0.50362 z m 2.92447,-6.22002 c 0.22148,-0.32343 0.64863,-0.48515 1.28145,-0.48515 0.0598,0 0.12128,0.002 0.18457,0.005 0.0633,0.004 0.13535,0.009 0.21621,0.0158 l 0,0.86484 c -0.0984,-0.007 -0.16963,-0.0114 -0.21358,-0.0132 -0.0439,-0.002 -0.0853,-0.003 -0.12392,-0.003 -0.28828,0 -0.46055,0.0747 -0.5168,0.22413 -0.0563,0.14941 -0.0844,0.52998 -0.0844,1.14169 l 0.93868,0 0,0.74883 -0.94922,0 0,4.87266 -0.93867,0 0,-4.87266 -0.78575,0 0,-0.74883 0.78575,0 0,-0.88593 c 0.0141,-0.39375 0.0826,-0.68203 0.20566,-0.86485 z" />
            </g>
            <g
               transform="matrix(0.71999997,0,0,0.71999997,145,140)"
               id="g13025">
              <g
                 id="g13027" />
            </g>
            <g
               id="g13029" />
            <g
               transform="translate(0.5,0.5)"
               id="g13031">
              <path
                 inkscape:connector-curvature="0"
                 id="path13033"
                 style="fill:none;stroke:#000000;stroke-width:1;stroke-linecap:butt;stroke-linejoin:miter;stroke-miterlimit:10;stroke-dasharray:none;stroke-opacity:1"
                 d="m 378,178.56 0,-14.56 0,11 0,-9.86" />
            </g>
            <g
               id="g13035">
              <path
                 inkscape:connector-curvature="0"
                 id="path13037"
                 style="fill:#000000;fill-opacity:1;fill-rule:nonzero;stroke:none"
                 d="m 378.5,161.86 2.51999,5.03999 L 378.5,165.64 375.98001,166.89999 378.5,161.86 Z" />
            </g>
            <g
               transform="translate(0.5,0.5)"
               id="g13039">
              <path
                 inkscape:connector-curvature="0"
                 id="path13041"
                 style="fill:none;stroke:#000000;stroke-width:1;stroke-linecap:butt;stroke-linejoin:miter;stroke-miterlimit:10;stroke-dasharray:none;stroke-opacity:1"
                 d="m 378,161.36 2.51999,5.03999 L 378,165.14 375.48001,166.39999 378,161.36 Z" />
            </g>
            <g
               id="g13043" />
            <g
               transform="translate(0.5,0.5)"
               id="g13045" />
            <g
               id="g13047">
              <path
                 inkscape:connector-curvature="0"
                 id="path13049"
                 style="fill:#ffffff;fill-opacity:1;fill-rule:nonzero;stroke:none"
                 d="m 360.13998,179.06 36.72003,0 c 1.7894,0 3.24,1.45059 3.24,3.24 l 0,15.12 c 0,1.78941 -1.4506,3.24 -3.24,3.24 l -36.72003,0 c -1.78939,0 -3.23999,-1.45059 -3.23999,-3.24 l 0,-15.12 c 0,-1.78941 1.4506,-3.24 3.23999,-3.24 z" />
            </g>
            <g
               transform="translate(0.5,0.5)"
               id="g13051">
              <path
                 inkscape:connector-curvature="0"
                 id="path13053"
                 style="fill:none;stroke:#000000;stroke-width:1;stroke-linecap:butt;stroke-linejoin:miter;stroke-miterlimit:10;stroke-dasharray:none;stroke-opacity:1"
                 d="m 359.63998,178.56 36.72003,0 c 1.7894,0 3.24,1.45059 3.24,3.24 l 0,15.12 c 0,1.78941 -1.4506,3.24 -3.24,3.24 l -36.72003,0 c -1.78939,0 -3.23999,-1.45059 -3.23999,-3.24 l 0,-15.12 c 0,-1.78941 1.4506,-3.24 3.23999,-3.24 z" />
            </g>
            <g
               id="g13055" />
            <g
               transform="matrix(0.71999997,0,0,0.71999997,362,182)"
               id="g13057">
              <g
                 id="g13059" />
            </g>
            <g
               id="g13061">
              <path
                 inkscape:connector-curvature="0"
                 id="path13063"
                 style="fill:#000000;fill-opacity:1;fill-rule:nonzero;stroke:none"
                 d="m 363.34578,191.80859 c 0.20531,0.32625 0.53438,0.48938 0.98719,0.48938 0.35156,0 0.64054,-0.15117 0.86695,-0.45352 0.22641,-0.30234 0.33961,-0.73617 0.33961,-1.30148 0,-0.57094 -0.11672,-0.99352 -0.35016,-1.26774 -0.23343,-0.27422 -0.52171,-0.41133 -0.86484,-0.41133 -0.3825,0 -0.69258,0.14625 -0.93023,0.43875 -0.23766,0.2925 -0.35649,0.72282 -0.35649,1.29094 0,0.48375 0.10266,0.88875 0.30797,1.215 z m 1.70438,-3.38765 c 0.135,0.0844 0.28828,0.23203 0.45984,0.44296 l 0,-2.28234 0.72984,0 0,6.21844 -0.68343,0 0,-0.6286 c -0.17719,0.27844 -0.38672,0.47954 -0.6286,0.60329 -0.24187,0.12375 -0.5189,0.18562 -0.83109,0.18562 -0.50344,0 -0.93938,-0.21164 -1.30781,-0.63492 -0.36844,-0.42328 -0.55266,-0.98649 -0.55266,-1.68961 0,-0.65813 0.16805,-1.22836 0.50414,-1.7107 0.33609,-0.48235 0.81633,-0.72352 1.4407,-0.72352 0.34594,0 0.63563,0.0731 0.86907,0.21938 z m 5.12437,-0.0148 c 0.30094,0.15047 0.53016,0.34523 0.68766,0.5843 0.15187,0.22781 0.25312,0.49359 0.30375,0.79734 0.045,0.20813 0.0675,0.54 0.0675,0.99563 l -3.31172,0 c 0.0141,0.45843 0.12234,0.82617 0.32484,1.1032 0.2025,0.27703 0.51609,0.41555 0.94078,0.41555 0.39656,0 0.71297,-0.13079 0.94922,-0.39235 0.135,-0.15187 0.23063,-0.32765 0.28688,-0.52734 l 0.74671,0 c -0.0197,0.16594 -0.0851,0.35086 -0.19617,0.55476 -0.11109,0.20391 -0.23554,0.37055 -0.37336,0.49993 -0.23062,0.225 -0.51609,0.37687 -0.8564,0.45562 -0.18282,0.045 -0.38953,0.0675 -0.62016,0.0675 -0.5625,0 -1.03922,-0.20461 -1.43015,-0.61383 -0.39094,-0.40922 -0.58641,-0.98226 -0.58641,-1.71914 0,-0.72562 0.19687,-1.31484 0.59062,-1.76765 0.39375,-0.45282 0.90844,-0.67922 1.54407,-0.67922 0.32062,0 0.6314,0.0752 0.93234,0.2257 z m 0.27844,1.77398 c -0.0309,-0.32906 -0.10266,-0.59203 -0.21516,-0.7889 -0.20812,-0.36563 -0.55547,-0.54844 -1.04203,-0.54844 -0.34875,0 -0.64125,0.12586 -0.8775,0.37758 -0.23625,0.25172 -0.36141,0.57164 -0.37547,0.95976 l 2.51016,0 z m 2.08265,-1.89843 1.20657,3.67875 1.2614,-3.67875 0.8311,0 -1.70438,4.51828 -0.81,0 -1.66641,-4.51828 0.88172,0 z m 6.76266,0.12445 c 0.30094,0.15047 0.53016,0.34523 0.68766,0.5843 0.15187,0.22781 0.25312,0.49359 0.30375,0.79734 0.045,0.20813 0.0675,0.54 0.0675,0.99563 l -3.31172,0 c 0.0141,0.45843 0.12234,0.82617 0.32484,1.1032 0.2025,0.27703 0.51609,0.41555 0.94078,0.41555 0.39656,0 0.71297,-0.13079 0.94922,-0.39235 0.135,-0.15187 0.23063,-0.32765 0.28688,-0.52734 l 0.74671,0 c -0.0197,0.16594 -0.0851,0.35086 -0.19617,0.55476 -0.11109,0.20391 -0.23554,0.37055 -0.37336,0.49993 -0.23062,0.225 -0.51609,0.37687 -0.8564,0.45562 -0.18282,0.045 -0.38953,0.0675 -0.62016,0.0675 -0.5625,0 -1.03922,-0.20461 -1.43016,-0.61383 -0.39093,-0.40922 -0.5864,-0.98226 -0.5864,-1.71914 0,-0.72562 0.19687,-1.31484 0.59062,-1.76765 0.39375,-0.45282 0.90844,-0.67922 1.54407,-0.67922 0.32062,0 0.6314,0.0752 0.93234,0.2257 z m 0.27844,1.77398 c -0.0309,-0.32906 -0.10266,-0.59203 -0.21516,-0.7889 -0.20812,-0.36563 -0.55547,-0.54844 -1.04203,-0.54844 -0.34875,0 -0.64125,0.12586 -0.8775,0.37758 -0.23625,0.25172 -0.36141,0.57164 -0.37547,0.95976 l 2.51016,0 z m 1.7325,-3.57749 0.75937,0 0,6.19734 -0.75937,0 0,-6.19734 z m 4.72007,5.13632 c 0.18704,-0.38109 0.28055,-0.80508 0.28055,-1.27195 0,-0.42188 -0.0675,-0.765 -0.2025,-1.02938 -0.21375,-0.41624 -0.58219,-0.62437 -1.10531,-0.62437 -0.46406,0 -0.80156,0.17719 -1.0125,0.53156 -0.21094,0.35438 -0.31641,0.78188 -0.31641,1.2825 0,0.48094 0.10547,0.88172 0.31641,1.20235 0.21094,0.32062 0.54562,0.48093 1.00406,0.48093 0.50344,0 0.84867,-0.19054 1.0357,-0.57164 z m 0.4704,-3.00586 c 0.40218,0.38813 0.60328,0.95907 0.60328,1.71282 0,0.72843 -0.17719,1.33031 -0.53157,1.80562 -0.35437,0.47531 -0.90421,0.71297 -1.64953,0.71297 -0.62156,0 -1.11515,-0.21023 -1.48078,-0.6307 -0.36562,-0.42047 -0.54844,-0.98508 -0.54844,-1.69383 0,-0.75938 0.19266,-1.36406 0.57797,-1.81406 0.38532,-0.45 0.90282,-0.675 1.5525,-0.675 0.58219,0 1.07438,0.19406 1.47657,0.58218 z m 4.29539,3.11133 c 0.23484,-0.29672 0.35226,-0.74039 0.35226,-1.33101 0,-0.36 -0.052,-0.66938 -0.15609,-0.92813 -0.19688,-0.49781 -0.55688,-0.74672 -1.08,-0.74672 -0.52594,0 -0.88594,0.26297 -1.08,0.78891 -0.10406,0.28125 -0.1561,0.63844 -0.1561,1.07156 0,0.34875 0.052,0.64547 0.1561,0.89016 0.19687,0.46687 0.55687,0.70031 1.08,0.70031 0.35437,0 0.64898,-0.14836 0.88383,-0.44508 z m -2.84977,-3.54164 0.73828,0 0,0.59906 c 0.15188,-0.20531 0.31781,-0.36422 0.49781,-0.47672 0.25594,-0.16875 0.55688,-0.25312 0.90282,-0.25312 0.51187,0 0.9464,0.19617 1.30359,0.58852 0.35719,0.39234 0.53578,0.95273 0.53578,1.68117 0,0.98437 -0.25734,1.6875 -0.77203,2.10937 -0.32625,0.26719 -0.70594,0.40078 -1.13906,0.40078 -0.34031,0 -0.62578,-0.0745 -0.85641,-0.22359 -0.135,-0.0844 -0.28547,-0.22922 -0.4514,-0.43453 l 0,2.30765 -0.75938,0 0,-6.29859 z" />
            </g>
            <g
               transform="matrix(0.71999997,0,0,0.71999997,362,182)"
               id="g13065">
              <g
                 id="g13067" />
            </g>
            <g
               id="g13069" />
            <g
               transform="translate(0.5,0.5)"
               id="g13071">
              <path
                 inkscape:connector-curvature="0"
                 id="path13073"
                 style="fill:none;stroke:#000000;stroke-width:1;stroke-linecap:butt;stroke-linejoin:miter;stroke-miterlimit:10;stroke-dasharray:none;stroke-opacity:1"
                 d="M 475,167.75999 475,153 l 0,4.94" />
            </g>
            <g
               id="g13075">
              <path
                 inkscape:connector-curvature="0"
                 id="path13077"
                 style="fill:#000000;fill-opacity:1;fill-rule:nonzero;stroke:none"
                 d="m 475.5,154.66 2.51999,5.04 -2.51999,-1.26 -2.51999,1.26 2.51999,-5.04 z" />
            </g>
            <g
               transform="translate(0.5,0.5)"
               id="g13079">
              <path
                 inkscape:connector-curvature="0"
                 id="path13081"
                 style="fill:none;stroke:#000000;stroke-width:1;stroke-linecap:butt;stroke-linejoin:miter;stroke-miterlimit:10;stroke-dasharray:none;stroke-opacity:1"
                 d="m 475,154.16 2.51999,5.04 L 475,157.94 472.48001,159.2 475,154.16 Z" />
            </g>
            <g
               id="g13083" />
            <g
               transform="translate(0.5,0.5)"
               id="g13085" />
            <g
               id="g13087">
              <path
                 inkscape:connector-curvature="0"
                 id="path13089"
                 style="fill:#ffffff;fill-opacity:1;fill-rule:nonzero;stroke:none"
                 d="m 494.06003,189.86 -36.72003,0 c -1.7894,0 -3.23999,-1.45059 -3.23999,-3.24001 l 0,-15.11999 c 0,-1.78941 1.45059,-3.24001 3.23999,-3.24001 l 36.72003,0 c 1.7894,0 3.23999,1.4506 3.23999,3.24001 l 0,15.11999 c 0,1.78942 -1.45059,3.24001 -3.23999,3.24001 z" />
            </g>
            <g
               transform="matrix(-1,0,0,-1,950.90002,357.62)"
               id="g13091">
              <path
                 inkscape:connector-curvature="0"
                 id="path13093"
                 style="fill:none;stroke:#000000;stroke-width:1;stroke-linecap:butt;stroke-linejoin:miter;stroke-miterlimit:10;stroke-dasharray:none;stroke-opacity:1"
                 d="m 456.84,167.75999 36.72003,0 c 1.7894,0 3.23999,1.4506 3.23999,3.24001 l 0,15.11999 c 0,1.78942 -1.45059,3.24001 -3.23999,3.24001 l -36.72003,0 c -1.7894,0 -3.23999,-1.45059 -3.23999,-3.24001 l 0,-15.11999 c 0,-1.78941 1.45059,-3.24001 3.23999,-3.24001 z" />
            </g>
            <g
               transform="translate(0.5,0.5)"
               id="g13095" />
            <g
               id="g13097" />
            <g
               transform="matrix(0.71999997,0,0,0.71999997,463,171)"
               id="g13099">
              <g
                 id="g13101" />
            </g>
            <g
               id="g13103">
              <path
                 inkscape:connector-curvature="0"
                 id="path13105"
                 style="fill:#000000;fill-opacity:1;fill-rule:nonzero;stroke:none"
                 d="m 464.39922,175.60266 0.84797,0 0,2.56078 3.22312,0 0,-2.56078 0.84797,0 0,6.19734 -0.84797,0 0,-2.89828 -3.22312,0 0,2.89828 -0.84797,0 0,-6.19734 z m 6.29156,0 4.51828,0 0,0.75937 -3.69984,0 0,1.88156 3.4214,0 0,0.71719 -3.4214,0 0,2.10094 3.76312,0 0,0.73828 -4.58156,0 0,-6.19734 z m 8.86078,3.65765 -0.94078,-2.73797 -0.99984,2.73797 1.94062,0 z m -1.37953,-3.65765 0.94922,0 2.24859,6.19734 -0.91969,0 -0.62859,-1.85625 -2.45109,0 -0.67078,1.85625 -0.86063,0 2.33297,-6.19734 z m 6.33797,5.48015 c 0.28406,0 0.5175,-0.0295 0.70031,-0.0886 0.32625,-0.10969 0.59344,-0.32063 0.80156,-0.63281 0.16594,-0.25032 0.28547,-0.57094 0.3586,-0.96188 0.0422,-0.23344 0.0633,-0.45 0.0633,-0.64969 0,-0.76781 -0.15258,-1.36406 -0.45774,-1.78875 -0.30515,-0.42468 -0.79664,-0.63703 -1.47445,-0.63703 l -1.48922,0 0,4.75875 1.49766,0 z m -2.34141,-5.48015 2.51016,0 c 0.85219,0 1.51312,0.30234 1.98281,0.90703 0.41906,0.54562 0.62859,1.24453 0.62859,2.09671 0,0.65813 -0.12375,1.25297 -0.37125,1.78454 -0.43593,0.93937 -1.18546,1.40906 -2.24859,1.40906 l -2.50172,0 0,-6.19734 z" />
            </g>
            <g
               transform="matrix(0.71999997,0,0,0.71999997,463,171)"
               id="g13107">
              <g
                 id="g13109" />
            </g>
            <g
               id="g13111" />
            <g
               transform="translate(0.5,0.5)"
               id="g13113">
              <path
                 inkscape:connector-curvature="0"
                 id="path13115"
                 style="fill:none;stroke:#000000;stroke-width:1;stroke-linecap:butt;stroke-linejoin:miter;stroke-miterlimit:10;stroke-dasharray:none;stroke-opacity:1"
                 d="m 238,146 -35.42,0.08" />
            </g>
            <g
               id="g13117">
              <path
                 inkscape:connector-curvature="0"
                 id="path13119"
                 style="fill:#000000;fill-opacity:1;fill-rule:nonzero;stroke:none"
                 d="m 199.3,146.59 5.04,-2.53 -1.26,2.52 1.27001,2.52001 L 199.3,146.59 Z" />
            </g>
            <g
               transform="translate(0.5,0.5)"
               id="g13121">
              <path
                 inkscape:connector-curvature="0"
                 id="path13123"
                 style="fill:none;stroke:#000000;stroke-width:1;stroke-linecap:butt;stroke-linejoin:miter;stroke-miterlimit:10;stroke-dasharray:none;stroke-opacity:1"
                 d="m 198.8,146.09 5.04,-2.53 -1.26,2.52 1.27001,2.52001 L 198.8,146.09 Z" />
            </g>
            <g
               id="g13125" />
            <g
               transform="translate(0.5,0.5)"
               id="g13127" />
            <g
               id="g13129">
              <path
                 inkscape:connector-curvature="0"
                 id="path13131"
                 style="fill:#ffffff;fill-opacity:1;fill-rule:nonzero;stroke:none"
                 d="m 40.82,132.25999 56.160003,0 c 2.385872,0 4.319997,1.93413 4.319997,4.32001 l 0,20.15999 c 0,2.38588 -1.934125,4.32001 -4.319997,4.32001 l -56.160003,0 c -2.385872,0 -4.32,-1.93413 -4.32,-4.32001 l 0,-20.15999 c 0,-2.38588 1.934128,-4.32001 4.32,-4.32001 z" />
            </g>
            <g
               transform="translate(0.5,0.5)"
               id="g13133">
              <path
                 inkscape:connector-curvature="0"
                 id="path13135"
                 style="fill:none;stroke:#000000;stroke-width:1;stroke-linecap:butt;stroke-linejoin:miter;stroke-miterlimit:10;stroke-dasharray:none;stroke-opacity:1"
                 d="m 40.32,131.75999 56.160003,0 c 2.385872,0 4.319997,1.93413 4.319997,4.32001 l 0,20.15999 c 0,2.38588 -1.934125,4.32001 -4.319997,4.32001 l -56.160003,0 c -2.385872,0 -4.32,-1.93413 -4.32,-4.32001 L 36,136.08 c 0,-2.38588 1.934128,-4.32001 4.32,-4.32001 z" />
            </g>
            <g
               id="g13137" />
            <g
               transform="matrix(0.71999997,0,0,0.71999997,62,140)"
               id="g13139">
              <g
                 id="g13141" />
            </g>
            <g
               id="g13143">
              <path
                 inkscape:connector-curvature="0"
                 id="path13145"
                 style="fill:#000000;fill-opacity:1;fill-rule:nonzero;stroke:none"
                 d="m 62.922851,148.21039 1.102149,0 0,1.14961 -1.102149,0 0,-1.14961 z m 2.9925,0 1.102149,0 0,1.14961 -1.102149,0 0,-1.14961 z m 2.9925,0 1.102149,0 0,1.14961 -1.102149,0 0,-1.14961 z m 2.9925,0 1.102148,0 0,1.14961 -1.102148,0 0,-1.14961 z" />
            </g>
            <g
               transform="matrix(0.71999997,0,0,0.71999997,62,140)"
               id="g13147">
              <g
                 id="g13149" />
            </g>
            <g
               id="g13151" />
            <g
               transform="translate(0.5,0.5)"
               id="g13153">
              <path
                 inkscape:connector-curvature="0"
                 id="path13155"
                 style="fill:none;stroke:#000000;stroke-width:1;stroke-linecap:butt;stroke-linejoin:miter;stroke-miterlimit:10;stroke-dasharray:none;stroke-opacity:1"
                 d="M 442.79999,99 166,99 l 0,28.18" />
            </g>
            <g
               id="g13157">
              <path
                 inkscape:connector-curvature="0"
                 id="path13159"
                 style="fill:#000000;fill-opacity:1;fill-rule:nonzero;stroke:none"
                 d="m 166.5,131.46001 -2.52001,-5.04001 2.52001,1.26 2.52,-1.26 -2.52,5.04001 z" />
            </g>
            <g
               transform="translate(0.5,0.5)"
               id="g13161">
              <path
                 inkscape:connector-curvature="0"
                 id="path13163"
                 style="fill:none;stroke:#000000;stroke-width:1;stroke-linecap:butt;stroke-linejoin:miter;stroke-miterlimit:10;stroke-dasharray:none;stroke-opacity:1"
                 d="M 166,130.96001 163.47999,125.92 166,127.18 l 2.52,-1.26 -2.52,5.04001 z" />
            </g>
            <g
               id="g13165" />
            <g
               transform="translate(0.5,0.5)"
               id="g13167" />
            <g
               id="g13169">
              <path
                 inkscape:connector-curvature="0"
                 id="path13171"
                 style="fill:#ffffff;fill-opacity:1;fill-rule:nonzero;stroke:none"
                 d="m 447.62,85.459999 56.15997,0 c 2.38586,0 4.32,1.934128 4.32,4.32 l 0,20.159991 c 0,2.38588 -1.93414,4.32 -4.32,4.32 l -56.15997,0 c -2.38587,0 -4.32001,-1.93412 -4.32001,-4.32 l 0,-20.159991 c 0,-2.385872 1.93414,-4.32 4.32001,-4.32 z" />
            </g>
            <g
               transform="translate(0.5,0.5)"
               id="g13173">
              <path
                 inkscape:connector-curvature="0"
                 id="path13175"
                 style="fill:none;stroke:#000000;stroke-width:1;stroke-linecap:butt;stroke-linejoin:miter;stroke-miterlimit:10;stroke-dasharray:none;stroke-opacity:1"
                 d="m 447.12,84.959999 56.15997,0 c 2.38586,0 4.32,1.934128 4.32,4.32 l 0,20.159991 c 0,2.38588 -1.93414,4.32 -4.32,4.32 l -56.15997,0 c -2.38587,0 -4.32001,-1.93412 -4.32001,-4.32 l 0,-20.159991 c 0,-2.385872 1.93414,-4.32 4.32001,-4.32 z" />
            </g>
            <g
               id="g13177" />
            <g
               transform="matrix(0.71999997,0,0,0.71999997,452,93)"
               id="g13179">
              <g
                 id="g13181" />
            </g>
            <g
               id="g13183">
              <path
                 inkscape:connector-curvature="0"
                 id="path13185"
                 style="fill:#000000;fill-opacity:1;fill-rule:nonzero;stroke:none"
                 d="m 456.21348,96.867715 c 0.37617,0.188086 0.66269,0.431543 0.85957,0.730371 0.18984,0.284765 0.3164,0.616992 0.37968,0.996679 0.0563,0.260157 0.0844,0.675 0.0844,1.244532 l -4.13965,0 c 0.0176,0.573043 0.15293,1.032713 0.40605,1.379003 0.25313,0.34629 0.64512,0.51943 1.17598,0.51943 0.4957,0 0.89121,-0.16347 1.18652,-0.49043 0.16875,-0.18984 0.28829,-0.40957 0.3586,-0.65918 l 0.9334,0 c -0.0246,0.20743 -0.10635,0.43858 -0.24522,0.69346 -0.13887,0.25488 -0.29443,0.46319 -0.4667,0.6249 -0.28828,0.28125 -0.64511,0.4711 -1.07051,0.56954 -0.22851,0.0562 -0.48691,0.0844 -0.77519,0.0844 -0.70312,0 -1.29902,-0.25576 -1.78769,-0.76728 -0.48868,-0.51153 -0.73301,-1.22784 -0.73301,-2.148931 0,-0.907031 0.24609,-1.643554 0.73828,-2.20957 0.49219,-0.566015 1.13554,-0.849023 1.93008,-0.849023 0.40078,0 0.78925,0.09404 1.16543,0.282129 z m 0.34804,2.21748 c -0.0387,-0.411328 -0.12832,-0.740039 -0.26894,-0.986133 -0.26016,-0.457031 -0.69434,-0.685547 -1.30254,-0.685547 -0.43594,0 -0.80156,0.157325 -1.09688,0.471973 -0.29531,0.314648 -0.45175,0.714551 -0.46933,1.199707 l 3.13769,0 z m 2.76891,1.349995 c 0.0633,0.54141 0.31465,0.91583 0.7541,1.12325 0.225,0.10547 0.48516,0.1582 0.78047,0.1582 0.5625,0 0.9791,-0.1793 1.2498,-0.53789 0.27071,-0.35859 0.40606,-0.75586 0.40606,-1.191797 0,-0.527344 -0.16084,-0.935156 -0.48252,-1.223438 -0.32168,-0.288281 -0.70752,-0.432421 -1.15752,-0.432421 -0.32695,0 -0.60733,0.06328 -0.84111,0.189843 -0.23379,0.126563 -0.43331,0.302344 -0.59854,0.527344 l -0.82266,-0.04746 0.57481,-4.06582 3.92344,0 0,0.917578 -3.21153,0 -0.32168,2.098828 c 0.17578,-0.133594 0.34278,-0.233789 0.50098,-0.300586 0.28125,-0.116016 0.60645,-0.174023 0.97559,-0.174023 0.69257,0 1.27968,0.223242 1.76132,0.669726 0.48164,0.446484 0.72246,1.0125 0.72246,1.698047 0,0.713669 -0.2206,1.342969 -0.66181,1.887889 -0.44121,0.54492 -1.14522,0.81738 -2.11201,0.81738 -0.61524,0 -1.15928,-0.17314 -1.63213,-0.51943 -0.47285,-0.34629 -0.7374,-0.87803 -0.79365,-1.59522 l 0.98613,0 z m 5.40299,0.22676 c 0.23379,-0.48164 0.68994,-0.919333 1.36845,-1.313083 l 1.0125,-0.585352 c 0.45352,-0.263671 0.77168,-0.488671 0.9545,-0.675 0.28828,-0.291797 0.43242,-0.625781 0.43242,-1.001953 0,-0.439453 -0.13184,-0.788379 -0.39551,-1.046777 -0.26367,-0.258399 -0.61523,-0.387598 -1.05469,-0.387598 -0.65039,0 -1.10039,0.246094 -1.35,0.738282 -0.13359,0.263671 -0.20742,0.629296 -0.22148,1.096875 l -0.96504,0 c 0.0106,-0.657422 0.13184,-1.193555 0.36387,-1.608399 0.41132,-0.73125 1.1373,-1.096875 2.17793,-1.096875 0.86484,0 1.49677,0.233789 1.8958,0.701367 0.39902,0.467578 0.59853,0.987891 0.59853,1.560938 0,0.604687 -0.21269,1.121484 -0.63808,1.55039 -0.2461,0.24961 -0.68731,0.551953 -1.32364,0.907031 l -0.72246,0.400782 c -0.34453,0.189842 -0.61523,0.370902 -0.81211,0.543162 -0.35156,0.30586 -0.57304,0.64512 -0.66445,1.01778 l 4.12383,0 0,0.89648 -5.18379,0 c 0.0352,-0.65039 0.16963,-1.21641 0.40342,-1.69805 z m 8.82545,-0.975583 0,-3.422461 -2.42051,3.422461 2.42051,0 z m 0.0158,2.673633 0,-1.8457 -3.31172,0 0,-0.928129 3.45937,-4.798827 0.80156,0 0,4.899023 1.1127,0 0,0.827933 -1.1127,0 0,1.8457 -0.94921,0 z m 7.45171,-6.343945 c 0.3375,0.622265 0.50625,1.474804 0.50625,2.557617 0,1.026562 -0.15293,1.875588 -0.45879,2.547068 -0.44296,0.96328 -1.16718,1.44492 -2.17265,1.44492 -0.90703,0 -1.58203,-0.39375 -2.025,-1.18125 -0.36914,-0.65742 -0.55371,-1.53984 -0.55371,-2.647262 0,-0.857812 0.11074,-1.594336 0.33223,-2.20957 0.41484,-1.146094 1.16542,-1.719141 2.25175,-1.719141 0.97735,0 1.68399,0.402539 2.11992,1.207618 z m -0.95449,5.030855 c 0.2918,-0.43593 0.4377,-1.248043 0.4377,-2.436324 0,-0.857813 -0.10547,-1.563574 -0.31641,-2.117285 -0.21094,-0.553711 -0.62051,-0.830567 -1.22871,-0.830567 -0.55898,0 -0.96768,0.262793 -1.22607,0.788379 -0.2584,0.525586 -0.3876,1.299902 -0.3876,2.322949 0,0.769922 0.0826,1.388668 0.24785,1.856248 0.25312,0.71367 0.68555,1.07051 1.29727,1.07051 0.49218,0 0.88417,-0.21797 1.17597,-0.65391 z m 5.47945,-1.360543 0,-3.422461 -2.4205,3.422461 2.4205,0 z m 0.0158,2.673633 0,-1.8457 -3.31172,0 0,-0.928129 3.45937,-4.798827 0.80156,0 0,4.899023 1.1127,0 0,0.827933 -1.1127,0 0,1.8457 -0.94921,0 z m 3.74449,-1.92481 c 0.0633,0.54141 0.31465,0.91583 0.7541,1.12325 0.225,0.10547 0.48515,0.1582 0.78047,0.1582 0.5625,0 0.9791,-0.1793 1.2498,-0.53789 0.27071,-0.35859 0.40606,-0.75586 0.40606,-1.191797 0,-0.527344 -0.16084,-0.935156 -0.48252,-1.223438 -0.32168,-0.288281 -0.70752,-0.432421 -1.15752,-0.432421 -0.32696,0 -0.60733,0.06328 -0.84112,0.189843 -0.23378,0.126563 -0.4333,0.302344 -0.59853,0.527344 l -0.82266,-0.04746 0.57481,-4.06582 3.92344,0 0,0.917578 -3.21153,0 -0.32168,2.098828 c 0.17578,-0.133594 0.34278,-0.233789 0.50098,-0.300586 0.28125,-0.116016 0.60644,-0.174023 0.97558,-0.174023 0.69258,0 1.27969,0.223242 1.76133,0.669726 0.48164,0.446484 0.72246,1.0125 0.72246,1.698047 0,0.713669 -0.2206,1.342969 -0.66181,1.887889 -0.44121,0.54492 -1.14522,0.81738 -2.11201,0.81738 -0.61524,0 -1.15928,-0.17314 -1.63213,-0.51943 -0.47285,-0.34629 -0.73741,-0.87803 -0.79366,-1.59522 l 0.98614,0 z m 5.80113,-5.447456 c 0.22148,-0.323437 0.64863,-0.485156 1.28144,-0.485156 0.0598,0 0.12129,0.0018 0.18458,0.0053 0.0633,0.0035 0.13535,0.0088 0.21621,0.01582 l 0,0.864843 c -0.0984,-0.007 -0.16963,-0.01143 -0.21358,-0.01318 -0.0439,-0.0018 -0.0852,-0.0026 -0.12392,-0.0026 -0.28828,0 -0.46055,0.07471 -0.5168,0.224121 -0.0562,0.149414 -0.0844,0.529981 -0.0844,1.141699 l 0.93868,0 0,0.748829 -0.94922,0 0,4.87266 -0.93867,0 0,-4.87266 -0.78575,0 0,-0.748829 0.78575,0 0,-0.885937 c 0.0141,-0.39375 0.0826,-0.682031 0.20566,-0.864844 z" />
            </g>
            <g
               transform="matrix(0.71999997,0,0,0.71999997,452,93)"
               id="g13187">
              <g
                 id="g13189" />
            </g>
            <g
               id="g13191" />
            <g
               transform="translate(0.5,0.5)"
               id="g13193">
              <path
                 inkscape:connector-curvature="0"
                 id="path13195"
                 style="fill:none;stroke:#000000;stroke-width:1;stroke-linecap:butt;stroke-linejoin:miter;stroke-miterlimit:10;stroke-dasharray:none;stroke-opacity:1"
                 d="M 475,131.75999 475,117 l 0,11 0,-9.66" />
            </g>
            <g
               id="g13197">
              <path
                 inkscape:connector-curvature="0"
                 id="path13199"
                 style="fill:#000000;fill-opacity:1;fill-rule:nonzero;stroke:none"
                 d="m 475.5,115.06 2.51999,5.04 -2.51999,-1.26 -2.51999,1.26 2.51999,-5.04 z" />
            </g>
            <g
               transform="translate(0.5,0.5)"
               id="g13201">
              <path
                 inkscape:connector-curvature="0"
                 id="path13203"
                 style="fill:none;stroke:#000000;stroke-width:1;stroke-linecap:butt;stroke-linejoin:miter;stroke-miterlimit:10;stroke-dasharray:none;stroke-opacity:1"
                 d="m 475,114.56 2.51999,5.04 L 475,118.34 472.48001,119.6 475,114.56 Z" />
            </g>
            <g
               id="g13205" />
            <g
               transform="translate(0.5,0.5)"
               id="g13207" />
            <g
               id="g13209">
              <path
                 inkscape:connector-curvature="0"
                 id="path13211"
                 style="fill:#ffffff;fill-opacity:1;fill-rule:nonzero;stroke:none"
                 d="m 435.73999,132.25999 79.92004,0 c 1.78937,0 3.23999,1.4506 3.23999,3.24001 l 0,15.11999 c 0,1.78942 -1.45062,3.24001 -3.23999,3.24001 l -79.92004,0 c -1.7894,0 -3.23999,-1.45059 -3.23999,-3.24001 l 0,-15.11999 c 0,-1.78941 1.45059,-3.24001 3.23999,-3.24001 z" />
            </g>
            <g
               transform="translate(0.5,0.5)"
               id="g13213">
              <path
                 inkscape:connector-curvature="0"
                 id="path13215"
                 style="fill:none;stroke:#000000;stroke-width:1;stroke-linecap:butt;stroke-linejoin:miter;stroke-miterlimit:10;stroke-dasharray:none;stroke-opacity:1"
                 d="m 435.23999,131.75999 79.92004,0 c 1.78937,0 3.23999,1.4506 3.23999,3.24001 l 0,15.11999 c 0,1.78942 -1.45062,3.24001 -3.23999,3.24001 l -79.92004,0 C 433.45059,153.36 432,151.90941 432,150.11999 L 432,135 c 0,-1.78941 1.45059,-3.24001 3.23999,-3.24001 z" />
            </g>
            <g
               id="g13217" />
            <g
               transform="matrix(0.71999997,0,0,0.71999997,438,135)"
               id="g13219">
              <g
                 id="g13221" />
            </g>
            <g
               id="g13223">
              <path
                 inkscape:connector-curvature="0"
                 id="path13225"
                 style="fill:#000000;fill-opacity:1;fill-rule:nonzero;stroke:none"
                 d="m 438.91125,139.90219 c 0.17719,-0.25875 0.51891,-0.38813 1.02516,-0.38813 0.0478,0 0.097,0.001 0.14765,0.004 0.0506,0.003 0.10828,0.007 0.17297,0.0127 l 0,0.69187 c -0.0788,-0.006 -0.1357,-0.009 -0.17086,-0.0106 -0.0352,-0.001 -0.0682,-0.002 -0.0991,-0.002 -0.23062,0 -0.36844,0.0598 -0.41344,0.17929 -0.045,0.11953 -0.0675,0.42399 -0.0675,0.91336 l 0.75094,0 0,0.59906 -0.75937,0 0,3.89813 -0.75094,0 0,-3.89813 -0.6286,0 0,-0.59906 0.6286,0 0,-0.70875 c 0.0113,-0.315 0.0661,-0.54562 0.16453,-0.69187 z m 4.85578,1.50398 c 0.30094,0.15047 0.53016,0.34523 0.68766,0.5843 0.15187,0.22781 0.25312,0.49359 0.30375,0.79734 0.045,0.20813 0.0675,0.54 0.0675,0.99563 l -3.31172,0 c 0.0141,0.45843 0.12234,0.82617 0.32484,1.1032 0.2025,0.27703 0.5161,0.41555 0.94078,0.41555 0.39657,0 0.71297,-0.13079 0.94922,-0.39235 0.135,-0.15187 0.23063,-0.32765 0.28688,-0.52734 l 0.74671,0 c -0.0197,0.16594 -0.0851,0.35086 -0.19617,0.55476 -0.11109,0.20391 -0.23554,0.37055 -0.37336,0.49993 -0.23062,0.225 -0.51609,0.37687 -0.8564,0.45562 -0.18281,0.045 -0.38953,0.0675 -0.62016,0.0675 -0.5625,0 -1.03922,-0.20461 -1.43015,-0.61383 -0.39094,-0.40922 -0.58641,-0.98226 -0.58641,-1.71914 0,-0.72562 0.19687,-1.31484 0.59062,-1.76765 0.39375,-0.45282 0.90844,-0.67922 1.54407,-0.67922 0.32062,0 0.6314,0.0752 0.93234,0.2257 z m 0.27844,1.77398 c -0.0309,-0.32906 -0.10266,-0.59203 -0.21516,-0.7889 -0.20812,-0.36563 -0.55547,-0.54844 -1.04203,-0.54844 -0.34875,0 -0.64125,0.12586 -0.8775,0.37758 -0.23625,0.25172 -0.36141,0.57164 -0.37547,0.95976 l 2.51016,0 z m 2.53406,1.93641 c 0.16031,0.12656 0.35016,0.18984 0.56953,0.18984 0.26719,0 0.52594,-0.0619 0.77625,-0.18562 0.42188,-0.20531 0.63281,-0.54141 0.63281,-1.00828 l 0,-0.61172 c -0.0928,0.0591 -0.21234,0.10828 -0.35859,0.14766 -0.14625,0.0394 -0.28969,0.0675 -0.43031,0.0844 l -0.45985,0.0591 c -0.27562,0.0366 -0.48234,0.0942 -0.62015,0.17297 -0.23344,0.13219 -0.35016,0.34313 -0.35016,0.63281 0,0.21938 0.0802,0.39235 0.24047,0.51891 z m 1.59891,-2.05453 c 0.17437,-0.0225 0.29109,-0.0956 0.35015,-0.21938 0.0337,-0.0675 0.0506,-0.16453 0.0506,-0.29109 0,-0.25875 -0.0921,-0.44648 -0.27633,-0.5632 -0.18422,-0.11672 -0.44789,-0.17508 -0.79102,-0.17508 -0.39656,0 -0.67781,0.10687 -0.84375,0.32062 -0.0928,0.11813 -0.15328,0.29391 -0.1814,0.52735 l -0.70875,0 c 0.0141,-0.55688 0.19476,-0.9443 0.54211,-1.16227 0.34734,-0.21797 0.75023,-0.32695 1.20867,-0.32695 0.53156,0 0.96328,0.10125 1.29515,0.30375 0.32907,0.2025 0.4936,0.5175 0.4936,0.945 l 0,2.60297 c 0,0.0787 0.0162,0.14203 0.0485,0.18984 0.0324,0.0478 0.10055,0.0717 0.20461,0.0717 0.0337,0 0.0717,-0.002 0.11391,-0.006 0.0422,-0.004 0.0872,-0.0105 0.135,-0.019 l 0,0.56109 c -0.11813,0.0337 -0.20813,0.0549 -0.27,0.0633 -0.0619,0.008 -0.14625,0.0127 -0.25313,0.0127 -0.26156,0 -0.4514,-0.0928 -0.56953,-0.27844 -0.0619,-0.0984 -0.10547,-0.23765 -0.13078,-0.41765 -0.15469,0.2025 -0.37687,0.37828 -0.66656,0.52734 -0.28969,0.14906 -0.60891,0.22359 -0.95766,0.22359 -0.41906,0 -0.76148,-0.12726 -1.02726,-0.38179 -0.26578,-0.25453 -0.39867,-0.57305 -0.39867,-0.95555 0,-0.41906 0.13078,-0.74391 0.39234,-0.97453 0.26156,-0.23063 0.60469,-0.37266 1.02937,-0.4261 l 1.21079,-0.15187 z m 2.53406,-3.04172 0.76781,0 0,1.26141 0.72141,0 0,0.62015 -0.72141,0 0,2.94891 c 0,0.1575 0.0534,0.26297 0.16031,0.31641 0.0591,0.0309 0.1575,0.0464 0.29532,0.0464 0.0366,0 0.0759,-7e-4 0.11812,-0.002 0.0422,-0.001 0.0914,-0.005 0.14766,-0.0105 l 0,0.59906 c -0.0872,0.0253 -0.17789,0.0436 -0.27211,0.0548 -0.0942,0.0113 -0.19617,0.0169 -0.30586,0.0169 -0.35438,0 -0.59485,-0.0907 -0.72141,-0.27211 -0.12656,-0.18141 -0.18984,-0.41696 -0.18984,-0.70664 l 0,-2.9911 -0.61172,0 0,-0.62015 0.61172,0 0,-1.26141 z m 3.00375,1.26141 0,2.99953 c 0,0.23062 0.0366,0.41906 0.10969,0.56531 0.135,0.27 0.38671,0.405 0.75515,0.405 0.52875,0 0.88875,-0.23625 1.08,-0.70875 0.10406,-0.25312 0.1561,-0.60047 0.1561,-1.04203 l 0,-2.21906 0.75937,0 0,4.51828 -0.71719,0 0.008,-0.66656 c -0.0984,0.17156 -0.22078,0.3164 -0.36703,0.43453 -0.28969,0.23625 -0.64125,0.35437 -1.05469,0.35437 -0.64406,0 -1.08281,-0.21515 -1.31625,-0.64547 -0.12656,-0.23062 -0.18984,-0.53859 -0.18984,-0.9239 l 0,-3.07125 0.77625,0 z m 4.06547,0 0.7214,0 0,0.78047 c 0.0591,-0.15188 0.20391,-0.3368 0.43453,-0.55477 0.23063,-0.21797 0.49641,-0.32695 0.79735,-0.32695 0.0141,0 0.038,10e-4 0.0717,0.004 0.0337,0.003 0.0914,0.008 0.17297,0.0169 l 0,0.80156 c -0.045,-0.008 -0.0865,-0.0141 -0.12446,-0.0169 -0.038,-0.003 -0.0795,-0.004 -0.12445,-0.004 -0.3825,0 -0.67641,0.12305 -0.88172,0.36914 -0.20531,0.24609 -0.30797,0.52945 -0.30797,0.85008 l 0,2.59875 -0.75937,0 0,-4.51828 z m 5.66156,0.12445 c 0.30094,0.15047 0.53016,0.34523 0.68766,0.5843 0.15187,0.22781 0.25312,0.49359 0.30375,0.79734 0.045,0.20813 0.0675,0.54 0.0675,0.99563 l -3.31172,0 c 0.0141,0.45843 0.12234,0.82617 0.32484,1.1032 0.2025,0.27703 0.51609,0.41555 0.94078,0.41555 0.39657,0 0.71297,-0.13079 0.94922,-0.39235 0.135,-0.15187 0.23063,-0.32765 0.28688,-0.52734 l 0.74671,0 c -0.0197,0.16594 -0.0851,0.35086 -0.19617,0.55476 -0.11109,0.20391 -0.23554,0.37055 -0.37336,0.49993 -0.23062,0.225 -0.51609,0.37687 -0.8564,0.45562 -0.18282,0.045 -0.38953,0.0675 -0.62016,0.0675 -0.5625,0 -1.03922,-0.20461 -1.43016,-0.61383 -0.39093,-0.40922 -0.5864,-0.98226 -0.5864,-1.71914 0,-0.72562 0.19687,-1.31484 0.59062,-1.76765 0.39375,-0.45282 0.90844,-0.67922 1.54407,-0.67922 0.32062,0 0.6314,0.0752 0.93234,0.2257 z m 0.27844,1.77398 c -0.0309,-0.32906 -0.10266,-0.59203 -0.21516,-0.7889 -0.20812,-0.36563 -0.55547,-0.54844 -1.04203,-0.54844 -0.34875,0 -0.64125,0.12586 -0.8775,0.37758 -0.23625,0.25172 -0.36141,0.57164 -0.37547,0.95976 l 2.51016,0 z m 3.12047,-3.57749 0.64125,0 -1.96594,6.19734 -0.64125,0 1.96594,-6.19734 z m 1.43859,4.77984 c 0.0225,0.25312 0.0858,0.44719 0.18984,0.58219 0.19125,0.24468 0.52313,0.36703 0.99563,0.36703 0.28125,0 0.52875,-0.0612 0.7425,-0.18352 0.21375,-0.12234 0.32062,-0.31148 0.32062,-0.56742 0,-0.19406 -0.0858,-0.34172 -0.25734,-0.44297 -0.10969,-0.0619 -0.32625,-0.13359 -0.64969,-0.21516 l -0.60328,-0.15187 c -0.38531,-0.0956 -0.66937,-0.2025 -0.85219,-0.32063 -0.32625,-0.20531 -0.48937,-0.48937 -0.48937,-0.85218 0,-0.4275 0.15398,-0.77344 0.46195,-1.03782 0.30797,-0.26437 0.72211,-0.39656 1.24242,-0.39656 0.68063,0 1.17141,0.19969 1.47235,0.59906 0.18843,0.25313 0.27984,0.52594 0.27422,0.81844 l -0.71719,0 c -0.0141,-0.17156 -0.0745,-0.32765 -0.18141,-0.46828 -0.17437,-0.19969 -0.47672,-0.29953 -0.90703,-0.29953 -0.28687,0 -0.50414,0.0548 -0.6518,0.16453 -0.14765,0.10969 -0.22148,0.25453 -0.22148,0.43453 0,0.19688 0.097,0.35438 0.29109,0.4725 0.1125,0.0703 0.27844,0.13219 0.49782,0.18563 l 0.50203,0.12234 c 0.54562,0.13219 0.91125,0.26016 1.09687,0.38391 0.29531,0.19406 0.44297,0.49922 0.44297,0.91547 0,0.40218 -0.15258,0.74953 -0.45773,1.04203 -0.30516,0.2925 -0.76993,0.43875 -1.3943,0.43875 -0.67219,0 -1.1482,-0.15258 -1.42805,-0.45774 -0.27984,-0.30515 -0.42961,-0.68273 -0.44929,-1.13273 l 0.72984,0 z m 3.86859,-3.10078 0.72141,0 0,0.64125 c 0.21375,-0.26438 0.44015,-0.45422 0.67922,-0.56953 0.23906,-0.11532 0.50484,-0.17297 0.79734,-0.17297 0.64125,0 1.07438,0.22359 1.29938,0.67078 0.12375,0.24469 0.18562,0.59484 0.18562,1.05047 l 0,2.89828 -0.77203,0 0,-2.84766 c 0,-0.27562 -0.0408,-0.49781 -0.12234,-0.66656 -0.135,-0.28125 -0.37969,-0.42188 -0.73407,-0.42188 -0.18,0 -0.32765,0.0183 -0.44297,0.0548 -0.20812,0.0619 -0.39093,0.18562 -0.54843,0.37125 -0.12657,0.14906 -0.20883,0.30305 -0.2468,0.46195 -0.038,0.15891 -0.057,0.38602 -0.057,0.68133 l 0,2.36672 -0.75938,0 0,-4.51828 z m 5.62641,3.83484 c 0.16031,0.12656 0.35015,0.18984 0.56953,0.18984 0.26719,0 0.52594,-0.0619 0.77625,-0.18562 0.42187,-0.20531 0.63281,-0.54141 0.63281,-1.00828 l 0,-0.61172 c -0.0928,0.0591 -0.21234,0.10828 -0.35859,0.14766 -0.14625,0.0394 -0.28969,0.0675 -0.43031,0.0844 l -0.45985,0.0591 c -0.27562,0.0366 -0.48234,0.0942 -0.62015,0.17297 -0.23344,0.13219 -0.35016,0.34313 -0.35016,0.63281 0,0.21938 0.0802,0.39235 0.24047,0.51891 z m 1.59891,-2.05453 c 0.17437,-0.0225 0.29109,-0.0956 0.35015,-0.21938 0.0338,-0.0675 0.0506,-0.16453 0.0506,-0.29109 0,-0.25875 -0.0921,-0.44648 -0.27633,-0.5632 -0.18422,-0.11672 -0.44789,-0.17508 -0.79102,-0.17508 -0.39656,0 -0.67781,0.10687 -0.84375,0.32062 -0.0928,0.11813 -0.15328,0.29391 -0.1814,0.52735 l -0.70875,0 c 0.0141,-0.55688 0.19476,-0.9443 0.54211,-1.16227 0.34734,-0.21797 0.75023,-0.32695 1.20867,-0.32695 0.53156,0 0.96328,0.10125 1.29515,0.30375 0.32907,0.2025 0.4936,0.5175 0.4936,0.945 l 0,2.60297 c 0,0.0787 0.0162,0.14203 0.0485,0.18984 0.0324,0.0478 0.10055,0.0717 0.20461,0.0717 0.0337,0 0.0717,-0.002 0.11391,-0.006 0.0422,-0.004 0.0872,-0.0105 0.135,-0.019 l 0,0.56109 c -0.11813,0.0337 -0.20813,0.0549 -0.27,0.0633 -0.0619,0.008 -0.14625,0.0127 -0.25313,0.0127 -0.26156,0 -0.4514,-0.0928 -0.56953,-0.27844 -0.0619,-0.0984 -0.10547,-0.23765 -0.13078,-0.41765 -0.15469,0.2025 -0.37687,0.37828 -0.66656,0.52734 -0.28969,0.14906 -0.60891,0.22359 -0.95766,0.22359 -0.41906,0 -0.76148,-0.12726 -1.02726,-0.38179 -0.26578,-0.25453 -0.39868,-0.57305 -0.39868,-0.95555 0,-0.41906 0.13079,-0.74391 0.39235,-0.97453 0.26156,-0.23063 0.60469,-0.37266 1.02937,-0.4261 l 1.21079,-0.15187 z m 2.36531,-3.45937 0.72984,0 0,3.59859 1.94906,-1.91953 0.97032,0 -1.72969,1.69172 1.82672,2.82656 -0.97032,0 -1.40906,-2.27813 -0.63703,0.58219 0,1.69594 -0.72984,0 0,-6.19734 z m 7.15078,1.80351 c 0.30094,0.15047 0.53015,0.34523 0.68765,0.5843 0.15188,0.22781 0.25313,0.49359 0.30375,0.79734 0.045,0.20813 0.0675,0.54 0.0675,0.99563 l -3.31172,0 c 0.0141,0.45843 0.12234,0.82617 0.32484,1.1032 0.2025,0.27703 0.51609,0.41555 0.94078,0.41555 0.39656,0 0.71297,-0.13079 0.94922,-0.39235 0.135,-0.15187 0.23062,-0.32765 0.28688,-0.52734 l 0.74671,0 c -0.0197,0.16594 -0.0851,0.35086 -0.19617,0.55476 -0.11109,0.20391 -0.23554,0.37055 -0.37336,0.49993 -0.23062,0.225 -0.51609,0.37687 -0.8564,0.45562 -0.18282,0.045 -0.38954,0.0675 -0.62016,0.0675 -0.5625,0 -1.03922,-0.20461 -1.43016,-0.61383 -0.39093,-0.40922 -0.5864,-0.98226 -0.5864,-1.71914 0,-0.72562 0.19687,-1.31484 0.59062,-1.76765 0.39375,-0.45282 0.90844,-0.67922 1.54406,-0.67922 0.32063,0 0.63141,0.0752 0.93235,0.2257 z m 0.27844,1.77398 c -0.0309,-0.32906 -0.10266,-0.59203 -0.21516,-0.7889 -0.20813,-0.36563 -0.55547,-0.54844 -1.04203,-0.54844 -0.34875,0 -0.64125,0.12586 -0.8775,0.37758 -0.23625,0.25172 -0.36141,0.57164 -0.37547,0.95976 l 2.51016,0 z m 1.51312,-0.17718 2.11781,0 0,0.78047 -2.11781,0 0,-0.78047 z m 5.58984,-1.53985 c 0.14344,0.0984 0.28969,0.24188 0.43875,0.43032 l 0,-0.56954 0.70032,0 0,4.10907 c 0,0.57375 -0.0844,1.02656 -0.25313,1.35843 -0.315,0.61313 -0.90984,0.91969 -1.78453,0.91969 -0.48656,0 -0.89578,-0.10898 -1.22766,-0.32695 -0.33187,-0.21797 -0.5175,-0.55899 -0.55687,-1.02305 l 0.77203,0 c 0.0366,0.2025 0.10969,0.3586 0.21938,0.46828 0.17156,0.16875 0.44156,0.25313 0.81,0.25313 0.58218,0 0.96328,-0.20531 1.14328,-0.61594 0.10687,-0.24187 0.15609,-0.67359 0.14765,-1.29516 -0.15187,0.23063 -0.33468,0.40219 -0.54843,0.51469 -0.21375,0.1125 -0.49641,0.16875 -0.84797,0.16875 -0.48938,0 -0.91758,-0.17367 -1.28461,-0.52101 -0.36703,-0.34735 -0.55055,-0.9218 -0.55055,-1.72336 0,-0.75657 0.18492,-1.34719 0.55477,-1.77188 0.36984,-0.42469 0.81632,-0.63703 1.33945,-0.63703 0.35437,0 0.66375,0.0872 0.92812,0.26156 z m 0.0928,0.81422 c -0.23063,-0.27 -0.52453,-0.405 -0.88172,-0.405 -0.53438,0 -0.9,0.25031 -1.09688,0.75094 -0.10406,0.26719 -0.15609,0.61734 -0.15609,1.05047 0,0.50906 0.10336,0.89648 0.31008,1.16226 0.20672,0.26579 0.48445,0.39868 0.8332,0.39868 0.54563,0 0.92953,-0.2461 1.15172,-0.73829 0.12375,-0.27843 0.18562,-0.60328 0.18562,-0.97453 0,-0.55968 -0.11531,-0.97453 -0.34593,-1.24453 z m 2.20922,-0.99562 0.7214,0 0,0.78047 c 0.0591,-0.15188 0.20391,-0.3368 0.43453,-0.55477 0.23063,-0.21797 0.49641,-0.32695 0.79735,-0.32695 0.0141,0 0.038,10e-4 0.0717,0.004 0.0337,0.003 0.0914,0.008 0.17296,0.0169 l 0,0.80156 c -0.045,-0.008 -0.0865,-0.0141 -0.12445,-0.0169 -0.038,-0.003 -0.0795,-0.004 -0.12445,-0.004 -0.3825,0 -0.67641,0.12305 -0.88172,0.36914 -0.20531,0.24609 -0.30797,0.52945 -0.30797,0.85008 l 0,2.59875 -0.75937,0 0,-4.51828 z m 5.67632,3.45726 c 0.18703,-0.38109 0.28055,-0.80508 0.28055,-1.27195 0,-0.42188 -0.0675,-0.765 -0.2025,-1.02938 -0.21375,-0.41624 -0.58219,-0.62437 -1.10531,-0.62437 -0.46407,0 -0.80157,0.17719 -1.0125,0.53156 -0.21094,0.35438 -0.31641,0.78188 -0.31641,1.2825 0,0.48094 0.10547,0.88172 0.31641,1.20235 0.21093,0.32062 0.54562,0.48093 1.00406,0.48093 0.50344,0 0.84867,-0.19054 1.0357,-0.57164 z m 0.47039,-3.00586 c 0.40219,0.38813 0.60328,0.95907 0.60328,1.71282 0,0.72843 -0.17718,1.33031 -0.53156,1.80562 -0.35437,0.47531 -0.90422,0.71297 -1.64953,0.71297 -0.62156,0 -1.11516,-0.21023 -1.48078,-0.6307 -0.36562,-0.42047 -0.54844,-0.98508 -0.54844,-1.69383 0,-0.75938 0.19266,-1.36406 0.57797,-1.81406 0.38531,-0.45 0.90281,-0.675 1.5525,-0.675 0.58219,0 1.07438,0.19406 1.47656,0.58218 z m 1.85485,-0.4514 0.86906,3.56062 0.88172,-3.56062 0.85219,0 0.88593,3.53953 0.92391,-3.53953 0.75938,0 -1.31204,4.51828 -0.7889,0 -0.91969,-3.49735 -0.89016,3.49735 -0.7889,0 -1.3036,-4.51828 0.8311,0 z" />
            </g>
            <g
               transform="matrix(0.71999997,0,0,0.71999997,438,135)"
               id="g13227">
              <g
                 id="g13229" />
            </g>
            <g
               id="g13231" />
          </g>
        </g>
      </g>
    </g>
    <g
       id="g13233"
       transform="matrix(1.25,0,0,1.25,-489.73215,180.4872)">
      <g
         id="g13235" />
    </g>
    <g
       id="g13237"
       transform="matrix(1.25,0,0,1.25,-489.73215,180.4872)">
      <g
         clip-path="url(#clipPath13241)"
         id="g13239">
        <g
           id="g13245" />
      </g>
    </g>
    <g
       id="g13247"
       transform="matrix(1.25,0,0,1.25,-489.73215,180.4872)">
      <g
         clip-path="url(#clipPath13251)"
         id="g13249">
        <g
           clip-path="url(#clipPath13257)"
           id="g13255">
          <g
             id="g13261" />
          <g
             id="g13263" />
        </g>
      </g>
    </g>
    <g
       id="g13265"
       transform="matrix(1.25,0,0,1.25,-489.73215,180.4872)">
      <g
         id="g13267" />
    </g>
    <g
       id="g13269"
       transform="matrix(1.25,0,0,1.25,-489.73215,180.4872)">
      <g
         clip-path="url(#clipPath13273)"
         id="g13271">
        <g
           id="g13277" />
        <g
           id="g13279" />
      </g>
    </g>
    <g
       id="g13281"
       transform="matrix(1.25,0,0,1.25,-489.73215,180.4872)">
      <g
         clip-path="url(#clipPath13285)"
         id="g13283">
        <g
           clip-path="url(#clipPath13291)"
           id="g13289">
          <g
             id="g13295" />
        </g>
      </g>
    </g>
    <g
       id="g13297"
       transform="matrix(1.25,0,0,1.25,-489.73215,180.4872)">
      <g
         clip-path="url(#clipPath13301)"
         id="g13299">
        <g
           clip-path="url(#clipPath13307)"
           id="g13305">
          <g
             clip-path="url(#clipPath13313)"
             id="g13311">
            <g
               id="g13317" />
          </g>
        </g>
      </g>
    </g>
    <g
       id="g13319"
       transform="matrix(1.25,0,0,1.25,-489.73215,180.4872)">
      <g
         id="g13321" />
    </g>
    <g
       id="g13323"
       transform="matrix(1.25,0,0,1.25,-489.73215,180.4872)">
      <g
         clip-path="url(#clipPath13327)"
         id="g13325">
        <g
           id="g13331" />
      </g>
    </g>
    <g
       id="g13333"
       transform="matrix(1.25,0,0,1.25,-489.73215,180.4872)">
      <g
         clip-path="url(#clipPath13337)"
         id="g13335">
        <g
           clip-path="url(#clipPath13343)"
           id="g13341">
          <g
             id="g13347" />
          <g
             id="g13349" />
        </g>
      </g>
    </g>
    <g
       id="g13351"
       transform="matrix(1.25,0,0,1.25,-489.73215,180.4872)">
      <g
         id="g13353" />
    </g>
    <g
       id="g13355"
       transform="matrix(1.25,0,0,1.25,-489.73215,180.4872)">
      <g
         clip-path="url(#clipPath13359)"
         id="g13357">
        <g
           id="g13363" />
        <g
           id="g13365" />
      </g>
    </g>
    <g
       id="g13367"
       transform="matrix(1.25,0,0,1.25,-489.73215,180.4872)">
      <g
         id="g13369" />
    </g>
  </g>
</svg>
