<?xml version="1.0" encoding="UTF-8" standalone="no"?>
<svg id="svg2" xmlns:rdf="http://www.w3.org/1999/02/22-rdf-syntax-ns#" xmlns="http://www.w3.org/2000/svg" height="55.752mm" viewBox="0 0 487.12627 197.54642" width="137.48mm" version="1.1" xmlns:cc="http://creativecommons.org/ns#" xmlns:xlink="http://www.w3.org/1999/xlink" xmlns:dc="http://purl.org/dc/elements/1.1/">
<defs id="defs4">
<linearGradient id="linearGradient6045">
<stop id="stop6029" stop-color="#fff" offset="0"/>
<stop id="stop6065" stop-color="#fff" offset=".52857"/>
<stop id="stop6063" stop-color="#ccc" offset=".52857"/>
<stop id="stop6031" stop-color="#b3b3b3" offset=".52857"/>
<stop id="stop6033" stop-color="#b3b3b3" offset="1"/>
</linearGradient>
<linearGradient id="linearGradient5203" x1="412.52" xlink:href="#linearGradient6045" gradientUnits="userSpaceOnUse" x2="412.52" gradientTransform="matrix(1.25,0,0,1.25,-486,-216)" y1="214.06" y2="245.17"/>
<linearGradient id="linearGradient6073" x1="518.46" xlink:href="#linearGradient6045" gradientUnits="userSpaceOnUse" x2="518.46" gradientTransform="matrix(1.25,0,0,1.25,-486,-216)" y1="210.7" y2="248.68"/>
<linearGradient id="linearGradient6109" x1="643.43" xlink:href="#linearGradient6045" gradientUnits="userSpaceOnUse" x2="643.43" gradientTransform="matrix(1.25,0,0,1.25,-486,-216)" y1="201.81" y2="257.16"/>
</defs>
<path id="path3672" d="m310.87 27.63v18.25 3.025" stroke="#000000" stroke-miterlimit="10" stroke-width="1.25" fill="none"/>
<path id="path3676" d="m310.88 53.625-3.15-6.3 3.15 1.575 3.15-1.575-3.15 6.3z"/>
<path id="path3680" d="m310.87 53.63-3.15-6.3 3.15 1.575 3.15-1.575-3.15 6.3z" stroke="#000000" stroke-miterlimit="10" stroke-width="1.25" fill="none"/>
<path id="path3688" fill="#ffffff" d="m288.18 0.625h45.9c2.2368 0 4.05 1.8132 4.05 4.05v18.9c0 2.2368-1.8132 4.05-4.05 4.05h-45.9c-2.2368 0-4.05-1.8132-4.05-4.05v-18.9c0-2.2368 1.8132-4.05 4.05-4.05z"/>
<path id="path3692" d="m288.17 0.63h45.9c2.2368 0 4.05 1.8132 4.05 4.05v18.9c0 2.2368-1.8132 4.05-4.05 4.05h-45.9c-2.2368 0-4.05-1.8132-4.05-4.05v-18.9c0-2.2368 1.8132-4.05 4.05-4.05z" stroke="#000000" stroke-miterlimit="10" stroke-width="1.25" fill="none"/>
<path id="path3702" stroke-width="0.2" stroke="#ffffff" d="m293.45 11.85h0.93867v0.80156c0.225-0.27774 0.42892-0.47989 0.61173-0.60645 0.31289-0.21445 0.66796-0.32168 1.0652-0.32168 0.45 0 0.81212 0.11075 1.0863 0.33222 0.15469 0.12656 0.29531 0.31289 0.42188 0.55899 0.21093-0.30235 0.45878-0.52648 0.74355-0.67236 0.28476-0.1459 0.60468-0.21885 0.95976-0.21885 0.75937 0 1.2761 0.27421 1.5504 0.82265 0.14767 0.29531 0.22149 0.69257 0.22149 1.1918v3.76h-0.98612v-3.9235c0-0.37618-0.094-0.63458-0.28214-0.7752-0.18809-0.14062-0.41748-0.21094-0.68818-0.21094-0.37266 0-0.69346 0.12488-0.96241 0.37441-0.26894 0.24961-0.40341 0.66621-0.40341 1.2498v3.2854h-0.96504v-3.6861c0-0.3832-0.0457-0.66269-0.13711-0.83848-0.14414-0.26368-0.41309-0.39551-0.80684-0.39551-0.35859 0-0.68466 0.13888-0.97822 0.41661-0.29355 0.27772-0.44033 0.78046-0.44033 1.5082v2.9952h-0.94922v-5.6479zm10.014 4.7935c0.20039 0.1582 0.4377 0.2373 0.71191 0.2373 0.33399 0 0.65743-0.07737 0.97031-0.23202 0.52735-0.25664 0.79102-0.67676 0.79102-1.2604v-0.76465c-0.116 0.07388-0.26543 0.13535-0.44824 0.18458-0.18281 0.04925-0.36211 0.08437-0.53789 0.1055l-0.57481 0.07388c-0.34453 0.04575-0.60293 0.11775-0.77519 0.21621-0.2918 0.16524-0.4377 0.42891-0.4377 0.79101 0 0.27422 0.10025 0.49044 0.30059 0.64864zm1.9986-2.5681c0.21797-0.02812 0.36387-0.1195 0.43769-0.27422 0.0423-0.08437 0.0633-0.20566 0.0633-0.36386 0-0.32344-0.11512-0.5581-0.34541-0.704-0.23028-0.1459-0.55986-0.21885-0.98878-0.21885-0.4957 0-0.84726 0.13359-1.0547 0.40078-0.116 0.14766-0.1916 0.36739-0.22675 0.65919h-0.88594c0.0176-0.6961 0.24345-1.1804 0.67764-1.4529 0.43417-0.27246 0.93778-0.40869 1.5109-0.40869 0.66445 0 1.2041 0.12656 1.619 0.37969 0.41134 0.25312 0.617 0.64688 0.617 1.1812v3.2538c0 0.09838 0.0203 0.17754 0.0606 0.2373 0.0404 0.05975 0.12568 0.08963 0.25576 0.08963 0.0423 0 0.0896-0.0025 0.14239-0.0075 0.0527-0.005 0.109-0.01312 0.16875-0.02375v0.70136c-0.14767 0.04212-0.26017 0.06863-0.3375 0.07912-0.0774 0.01-0.18282 0.01588-0.3164 0.01588-0.32697 0-0.56427-0.116-0.71193-0.34805-0.0774-0.123-0.13184-0.29706-0.16347-0.52206-0.19336 0.25312-0.47109 0.47285-0.8332 0.65918-0.36211 0.18632-0.76114 0.27949-1.1971 0.27949-0.52382 0-0.95185-0.15908-1.2841-0.47724-0.33223-0.31816-0.49834-0.71631-0.49834-1.1944 0-0.52382 0.16347-0.92989 0.49042-1.2182 0.32695-0.28829 0.75587-0.46582 1.2868-0.53262l1.5135-0.18984zm3.542 1.6506c0.0281 0.3164 0.10725 0.55899 0.2373 0.72774 0.23907 0.30585 0.65392 0.45879 1.2445 0.45879 0.35156 0 0.66094-0.0765 0.92813-0.2294 0.26718-0.15292 0.40077-0.38935 0.40077-0.70928 0-0.24258-0.10725-0.42715-0.32167-0.55371-0.13712-0.07737-0.40782-0.16699-0.81212-0.26895l-0.7541-0.18984c-0.48163-0.1195-0.83671-0.25312-1.0652-0.40079-0.40782-0.25664-0.61172-0.61171-0.61172-1.0652 0-0.53438 0.19248-0.9668 0.57744-1.2972 0.38496-0.33046 0.90264-0.4957 1.553-0.4957 0.85079 0 1.4642 0.24961 1.8405 0.74882 0.23554 0.31641 0.3498 0.65742 0.34278 1.023h-0.89649c-0.0176-0.21445-0.0931-0.40956-0.22676-0.58535-0.21797-0.24961-0.5959-0.37441-1.1338-0.37441-0.35859 0-0.63018 0.0685-0.81475 0.20566-0.18456 0.13711-0.27685 0.31816-0.27685 0.54316 0 0.2461 0.12125 0.44298 0.36386 0.59062 0.14063 0.08788 0.34805 0.16524 0.62228 0.23204l0.62753 0.15292c0.68203 0.16524 1.1391 0.3252 1.3711 0.47989 0.36914 0.24258 0.55371 0.62402 0.55371 1.1443 0 0.50272-0.19072 0.93691-0.57216 1.3025-0.38145 0.36562-0.96241 0.54844-1.7429 0.54844-0.84023 0-1.4352-0.19072-1.785-0.57218-0.3498-0.38144-0.53701-0.85341-0.56161-1.4159h0.9123zm5.0256-5.4528h0.95976v1.5768h0.90176v0.77519h-0.90176v3.6861c0 0.19688 0.0668 0.32871 0.20039 0.39551 0.0739 0.03863 0.19687 0.058 0.36915 0.058 0.0457 0 0.0949-0.000875 0.14765-0.0025 0.0528-0.0012 0.11425-0.0063 0.18457-0.01313v0.74882c-0.109 0.03163-0.22236 0.0545-0.34013 0.0685-0.11775 0.01412-0.24522 0.02113-0.38233 0.02113-0.44297 0-0.74356-0.11338-0.90176-0.34014s-0.2373-0.5212-0.2373-0.8833v-3.7389h-0.76465v-0.77519h0.76465v-1.5768zm6.3229 1.7324c0.37618 0.18809 0.6627 0.43154 0.85958 0.73038 0.18984 0.28476 0.3164 0.61699 0.37969 0.99668 0.0562 0.26016 0.0844 0.675 0.0844 1.2445h-4.1396c0.0176 0.57304 0.15292 1.0327 0.40605 1.379 0.25312 0.34629 0.64511 0.51944 1.176 0.51944 0.49572 0 0.89122-0.16349 1.1865-0.49044 0.16875-0.18984 0.28829-0.40956 0.3586-0.65918h0.93339c-0.0246 0.20742-0.10638 0.43858-0.24522 0.69345-0.13886 0.25489-0.29442 0.46319-0.4667 0.62491-0.28827 0.28125-0.64511 0.47109-1.0705 0.56952-0.22852 0.05625-0.48691 0.08438-0.7752 0.08438-0.70312 0-1.299-0.25576-1.7878-0.76729-0.48867-0.51152-0.73301-1.2278-0.73301-2.1489 0-0.90702 0.24609-1.6435 0.73827-2.2095 0.49219-0.56602 1.1356-0.84902 1.9301-0.84902 0.40077 0 0.78925 0.094 1.1654 0.28212zm0.34805 2.2175c-0.04-0.412-0.13-0.741-0.27-0.987-0.26015-0.45704-0.69433-0.68555-1.3025-0.68555-0.43593 0-0.80156 0.15732-1.0969 0.47198-0.29531 0.31465-0.45176 0.71455-0.46934 1.1997h3.1378zm2.1656-2.373h0.90175v0.97559c0.0739-0.18985 0.25489-0.421 0.54316-0.69346 0.28829-0.27246 0.62051-0.40869 0.99669-0.40869 0.0176 0 0.0475 0.0012 0.0896 0.005 0.0422 0.0037 0.11425 0.01 0.21622 0.02112v1.002c-0.0562-0.01-0.10813-0.01763-0.15558-0.02113-0.0475-0.0037-0.0994-0.005-0.15556-0.005-0.47813 0-0.84551 0.15381-1.1022 0.46142-0.25664 0.30761-0.38496 0.66181-0.38496 1.0626v3.2485h-0.94922v-5.6479z"/>
<path id="path3712" d="m270.62 72.63h-48.275" stroke="#000000" stroke-miterlimit="10" stroke-width="1.25" fill="none"/>
<path id="path3716" d="m217.62 72.625 6.3-3.15-1.575 3.15 1.575 3.15-6.3-3.15z"/>
<path id="path3720" d="m217.62 72.63 6.3-3.15-1.575 3.15 1.575 3.15-6.3-3.15z" stroke="#000000" stroke-miterlimit="10" stroke-width="1.25" fill="none"/>
<path id="path3728" fill="url(#linearGradient6109)" d="m276.02 54.625h70.2c2.9824 0 5.4 2.4176 5.4 5.4v25.2c0 2.9824-2.4178 5.4-5.4 5.4h-70.2c-2.9824 0-5.4-2.4176-5.4-5.4v-25.2c0-2.9824 2.4176-5.4 5.4-5.4z"/>
<path id="path3732" d="m276.02 54.63h70.2c2.9824 0 5.4 2.4176 5.4 5.4v25.2c0 2.9824-2.4178 5.4-5.4 5.4h-70.2c-2.9824 0-5.4-2.4176-5.4-5.4v-25.2c0-2.9824 2.4176-5.4 5.4-5.4z" stroke="#000000" stroke-miterlimit="10" stroke-width="1.25" fill="none"/>
<path id="path3742" stroke-width="0.2" stroke="#ffffff" d="m282.22 75.038c-0.50318-0.61304-0.75476-1.359-0.75476-2.2379h1.2392c0.0528 0.61084 0.167 1.0547 0.34277 1.3315 0.30763 0.49659 0.86353 0.74488 1.6678 0.74488 0.62403 0 1.125-0.16699 1.503-0.50098 0.37793-0.33399 0.56689-0.76465 0.56689-1.292 0-0.65039-0.19885-1.1052-0.59655-1.3645-0.39771-0.25928-0.95032-0.38891-1.6579-0.38891-0.0791 0-0.15932 0.0011-0.2406 0.0038-0.0812 0.0025-0.1637 0.005-0.2472 0.01v-1.0481c0.123 0.01325 0.22632 0.022 0.30981 0.02637 0.0835 0.005 0.17359 0.0063 0.27026 0.0063 0.44385 0 0.8086-0.07037 1.0942-0.21094 0.50098-0.2461 0.75146-0.68555 0.75146-1.3184 0-0.47021-0.167-0.83276-0.50097-1.0876-0.33399-0.25488-0.7229-0.38232-1.1668-0.38232-0.79101 0-1.3381 0.26368-1.6414 0.79102-0.16698 0.29004-0.26147 0.70312-0.28345 1.2392h-1.1733c0-0.70312 0.14062-1.3008 0.42187-1.793 0.4834-0.87891 1.3338-1.3184 2.551-1.3184 0.9624 0 1.7072 0.21424 2.2346 0.6427 0.52733 0.42846 0.79101 1.0492 0.79101 1.8622 0 0.58008-0.15602 1.0503-0.46802 1.4106-0.19336 0.22412-0.44385 0.3999-0.75147 0.52735 0.49659 0.13622 0.8844 0.3988 1.1634 0.78771 0.27906 0.38891 0.41859 0.86462 0.41859 1.4271 0 0.90088-0.29664 1.6347-0.8899 2.2016-0.59325 0.56689-1.4348 0.85034-2.5246 0.85034-1.1162 0-1.9259-0.30651-2.4291-0.91955zm7.4952 0c-0.50317-0.61304-0.75476-1.359-0.75476-2.2379h1.2392c0.0528 0.61084 0.167 1.0547 0.34277 1.3315 0.30763 0.49659 0.86353 0.74488 1.6678 0.74488 0.62403 0 1.125-0.16699 1.503-0.50098 0.37793-0.33399 0.56689-0.76465 0.56689-1.292 0-0.65039-0.19885-1.1052-0.59656-1.3645-0.3977-0.25928-0.95031-0.38891-1.6579-0.38891-0.0791 0-0.1593 0.0011-0.2406 0.0038-0.0813 0.0025-0.1637 0.005-0.2472 0.01v-1.0481c0.123 0.01325 0.22633 0.022 0.30982 0.02637 0.0835 0.005 0.17358 0.0063 0.27026 0.0063 0.44385 0 0.8086-0.07037 1.0942-0.21094 0.50098-0.2461 0.75147-0.68555 0.75147-1.3184 0-0.47021-0.167-0.83276-0.50097-1.0876-0.33399-0.25488-0.7229-0.38232-1.1668-0.38232-0.79103 0-1.3381 0.26368-1.6414 0.79102-0.16699 0.29004-0.26147 0.70312-0.28345 1.2392h-1.1733c0-0.70312 0.14063-1.3008 0.42188-1.793 0.4834-0.87891 1.3338-1.3184 2.551-1.3184 0.9624 0 1.7072 0.21424 2.2346 0.6427 0.52734 0.42846 0.79102 1.0492 0.79102 1.8622 0 0.58008-0.15602 1.0503-0.46802 1.4106-0.19336 0.22412-0.44385 0.3999-0.75147 0.52735 0.49659 0.13622 0.8844 0.3988 1.1634 0.78771 0.27906 0.38891 0.41859 0.86462 0.41859 1.4271 0 0.90088-0.29664 1.6347-0.8899 2.2016-0.59327 0.56689-1.4348 0.85034-2.5246 0.85034-1.1162 0-1.9259-0.30651-2.4291-0.91955zm12.72-7.268c0.42186 0.77784 0.6328 1.8435 0.6328 3.197 0 1.2832-0.19116 2.3445-0.57347 3.1839-0.55372 1.2041-1.459 1.8061-2.7159 1.8061-1.1338 0-1.9775-0.49219-2.5312-1.4765-0.46142-0.82178-0.69214-1.9248-0.69214-3.3091 0-1.0723 0.13843-1.9929 0.41528-2.762 0.51856-1.4326 1.4568-2.1489 2.8148-2.1489 1.2217 0 2.105 0.50318 2.6499 1.5095zm-1.1931 6.2886c0.36475-0.54491 0.54713-1.56 0.54713-3.0454 0-1.0723-0.13184-1.9545-0.39551-2.6466-0.26368-0.69214-0.77564-1.0382-1.5359-1.0382-0.69872 0-1.2096 0.3285-1.5326 0.98548-0.323 0.65699-0.4845 1.6249-0.4845 2.9038 0 0.9624 0.10325 1.7359 0.30981 2.3202 0.31641 0.89209 0.85694 1.3381 1.6216 1.3381 0.61523 0 1.1052-0.27246 1.47-0.81739zm3.6786-5.0428v-0.90966c0.85694-0.0835 1.4546-0.22302 1.793-0.41858 0.33838-0.19556 0.59106-0.65809 0.75805-1.3876h0.93604v9.3999h-1.2656v-6.6841h-2.2215zm7.1295 4.5615c0.29224-0.60205 0.86242-1.1492 1.7105-1.6414l1.2656-0.7317c0.5669-0.32959 0.9646-0.61084 1.1931-0.84375 0.36035-0.36474 0.54053-0.78222 0.54053-1.2525 0-0.54931-0.1648-0.98548-0.49439-1.3085-0.32959-0.32299-0.76904-0.48449-1.3184-0.48449-0.81298 0-1.3755 0.30761-1.6875 0.92285-0.16698 0.32959-0.25927 0.78661-0.27685 1.3711h-1.2063c0.0131-0.82178 0.16479-1.492 0.45484-2.0105 0.51415-0.91408 1.4216-1.3711 2.7224-1.3711 1.0811 0 1.871 0.29224 2.3698 0.87671 0.49877 0.58446 0.74816 1.2349 0.74816 1.9511 0 0.75586-0.26586 1.4019-0.79762 1.938-0.30761 0.31201-0.85912 0.68995-1.6545 1.1338l-0.90307 0.50098c-0.43066 0.2373-0.76904 0.46362-1.0151 0.67895-0.43945 0.38232-0.7163 0.8064-0.83056 1.2722h5.1548v1.1206h-6.4798c0.0439-0.81299 0.21204-1.5205 0.50427-2.1225zm12.103-4.5615c0.49878 0.38672 0.7987 1.0525 0.89978 1.9972h-1.1536c-0.0702-0.43505-0.23071-0.7965-0.4812-1.0844-0.25048-0.28784-0.65258-0.43176-1.2063-0.43176-0.75586 0-1.2964 0.36915-1.6216 1.1074-0.21094 0.479-0.31641 1.0701-0.31641 1.7732 0 0.70751 0.14941 1.303 0.44825 1.7864 0.29882 0.4834 0.76903 0.7251 1.4106 0.7251 0.49219 0 0.8822-0.15051 1.17-0.45154 0.28785-0.30102 0.4867-0.71301 0.59656-1.236h1.1536c-0.13183 0.93602-0.46142 1.6205-0.98876 2.0534-0.52735 0.43286-1.2019 0.6493-2.0238 0.6493-0.92285 0-1.659-0.33729-2.2082-1.0118-0.54931-0.67456-0.82398-1.5172-0.82398-2.528 0-1.2393 0.30103-2.2039 0.90308-2.8938 0.60205-0.68994 1.3689-1.0349 2.3005-1.0349 0.79541 0 1.4425 0.19336 1.9412 0.58008zm6.1139 0.76136c0.29443-0.29224 0.44165-0.64051 0.44165-1.0448 0-0.35156-0.14063-0.67456-0.42188-0.969s-0.70971-0.44165-1.2854-0.44165c-0.57129 0-0.98438 0.14721-1.2392 0.44165-0.25489 0.29444-0.38233 0.6394-0.38233 1.0349 0 0.44385 0.16479 0.79101 0.49438 1.0415 0.3296 0.25049 0.71851 0.37574 1.1668 0.37574 0.52295 0 0.93165-0.14612 1.2261-0.43835zm0.21423 4.667c0.36255-0.29664 0.54383-0.73939 0.54383-1.3282 0-0.61084-0.18678-1.0745-0.56031-1.3909-0.37353-0.31641-0.85254-0.47461-1.437-0.47461-0.5669 0-1.0294 0.1615-1.3876 0.4845-0.35816 0.32299-0.53724 0.77014-0.53724 1.3414 0 0.49219 0.1637 0.91736 0.49109 1.2755 0.3274 0.35815 0.83386 0.53724 1.5194 0.53724 0.54931 0 1.0052-0.14832 1.3678-0.44495zm-3.8265-4.2682c-0.34717-0.35156-0.52075-0.8086-0.52075-1.3711 0-0.70312 0.25488-1.3074 0.76464-1.8128 0.50978-0.50538 1.2327-0.75806 2.1688-0.75806 0.90528 0 1.615 0.23841 2.1291 0.71521 0.51416 0.47681 0.77123 1.0338 0.77123 1.671 0 0.58886-0.14941 1.0657-0.44825 1.4304-0.16698 0.20655-0.42626 0.4087-0.77782 0.60645 0.39111 0.18018 0.69872 0.38671 0.92285 0.61962 0.41747 0.43945 0.62622 1.0108 0.62622 1.7139 0 0.83056-0.27906 1.5348-0.83716 2.1126-0.5581 0.57789-1.3469 0.86682-2.3665 0.86682-0.91846 0-1.6952-0.24939-2.3302-0.74818-0.63501-0.49878-0.95252-1.2228-0.95252-2.172 0-0.55811 0.13623-1.0404 0.4087-1.4469 0.27246-0.4065 0.67675-0.71741 1.2129-0.93274-0.32958-0.14062-0.58667-0.30542-0.77123-0.49439zm7.136 3.4014c0.29223-0.60205 0.86243-1.1492 1.7105-1.6414l1.2656-0.7317c0.5669-0.32959 0.9646-0.61084 1.1931-0.84375 0.36035-0.36474 0.54053-0.78222 0.54053-1.2525 0-0.54931-0.1648-0.98548-0.49439-1.3085-0.32959-0.32299-0.76905-0.48449-1.3184-0.48449-0.81299 0-1.3755 0.30761-1.6875 0.92285-0.16699 0.32959-0.25928 0.78661-0.27685 1.3711h-1.2063c0.0131-0.82178 0.16478-1.492 0.45483-2.0105 0.51415-0.91408 1.4216-1.3711 2.7224-1.3711 1.0811 0 1.871 0.29224 2.3698 0.87671 0.49879 0.58446 0.74817 1.2349 0.74817 1.9511 0 0.75586-0.26587 1.4019-0.79761 1.938-0.30761 0.31201-0.85913 0.68995-1.6545 1.1338l-0.90307 0.50098c-0.43067 0.2373-0.76904 0.46362-1.0151 0.67895-0.43945 0.38232-0.71631 0.8064-0.83056 1.2722h5.1548v1.1206h-6.4798c0.044-0.81299 0.21203-1.5205 0.50427-2.1225z"/>
<path id="path3752" d="m135.62 72.63h-48.275" stroke="#000000" stroke-miterlimit="10" stroke-width="1.25" fill="none"/>
<path id="path3756" d="m82.625 72.625 6.3-3.15-1.575 3.15 1.575 3.15-6.3-3.15z"/>
<path id="path3760" d="m82.62 72.63 6.3-3.15-1.575 3.15 1.575 3.15-6.3-3.15z" stroke="#000000" stroke-miterlimit="10" stroke-width="1.25" fill="none"/>
<path id="path3768" fill="url(#linearGradient6073)" d="m141.02 54.625h70.2c2.9824 0 5.4 2.4176 5.4 5.4v25.2c0 2.9824-2.4178 5.4-5.4 5.4h-70.2c-2.9824 0-5.4-2.4176-5.4-5.4v-25.2c0-2.9824 2.4176-5.4 5.4-5.4z"/>
<path id="path3772" d="m141.02 54.63h70.2c2.9824 0 5.4 2.4176 5.4 5.4v25.2c0 2.9824-2.4178 5.4-5.4 5.4h-70.2c-2.9824 0-5.4-2.4176-5.4-5.4v-25.2c0-2.9824 2.4176-5.4 5.4-5.4z" stroke="#000000" stroke-miterlimit="10" stroke-width="1.25" fill="none"/>
<path id="path3782" stroke-width="0.2" stroke="#ffffff" d="m154.19 69.012c0.49877 0.38672 0.79871 1.0525 0.89977 1.9972h-1.1536c-0.0704-0.43505-0.23071-0.7965-0.4812-1.0844-0.25048-0.28784-0.65258-0.43176-1.2063-0.43176-0.75586 0-1.2964 0.36915-1.6216 1.1074-0.21094 0.479-0.31641 1.0701-0.31641 1.7732 0 0.70751 0.14941 1.303 0.44825 1.7864 0.29882 0.4834 0.76903 0.7251 1.4106 0.7251 0.49219 0 0.8822-0.15051 1.17-0.45154 0.28784-0.30102 0.48669-0.71301 0.59655-1.236h1.1536c-0.13182 0.93602-0.46142 1.6205-0.98876 2.0534-0.52735 0.43286-1.2019 0.6493-2.0238 0.6493-0.92285 0-1.6589-0.33729-2.2082-1.0118-0.54931-0.67456-0.82398-1.5172-0.82398-2.528 0-1.2393 0.30103-2.2039 0.90308-2.8938 0.60205-0.68994 1.3689-1.0349 2.3005-1.0349 0.79541 0 1.4425 0.19336 1.9412 0.58008zm6.75 0c0.49877 0.38672 0.7987 1.0525 0.89977 1.9972h-1.1536c-0.0702-0.43505-0.23071-0.7965-0.4812-1.0844-0.25049-0.28784-0.65259-0.43176-1.2063-0.43176-0.75585 0-1.2964 0.36915-1.6216 1.1074-0.21094 0.479-0.31642 1.0701-0.31642 1.7732 0 0.70751 0.14942 1.303 0.44825 1.7864s0.76904 0.7251 1.4106 0.7251c0.49219 0 0.8822-0.15051 1.17-0.45154 0.28784-0.30102 0.48669-0.71301 0.59655-1.236h1.1536c-0.13183 0.93602-0.46142 1.6205-0.98876 2.0534-0.52735 0.43286-1.2019 0.6493-2.0238 0.6493-0.92285 0-1.659-0.33729-2.2082-1.0118-0.54931-0.67456-0.82397-1.5172-0.82397-2.528 0-1.2393 0.30102-2.2039 0.90307-2.8938 0.60205-0.68994 1.3689-1.0349 2.3005-1.0349 0.79541 0 1.4425 0.19336 1.9412 0.58008zm2.64-2.5312c0.27686-0.40429 0.81079-0.60644 1.6018-0.60644 0.0747 0 0.15161 0.0025 0.23071 0.0062 0.0791 0.005 0.16919 0.01125 0.27026 0.01975v1.081c-0.123-0.0088-0.21203-0.01425-0.26697-0.0165-0.0549-0.0025-0.1065-0.0037-0.1549-0.0037-0.36035 0-0.57569 0.09337-0.646 0.28016-0.0702 0.18676-0.1055 0.66248-0.1055 1.4271h1.1733v0.93604h-1.1865v6.0909h-1.1733v-6.0909h-0.98219v-0.93604h0.98219v-1.1074c0.0176-0.49219 0.10324-0.85254 0.25707-1.0811zm3.9845 6.8094c0.0791 0.67676 0.39331 1.1448 0.94262 1.404 0.28125 0.13182 0.60645 0.19775 0.97559 0.19775 0.70313 0 1.2239-0.22412 1.5622-0.67236 0.33839-0.44825 0.50758-0.94482 0.50758-1.4898 0-0.65918-0.20105-1.1689-0.60315-1.5292-0.4021-0.36035-0.8844-0.54052-1.4469-0.54052-0.40869 0-0.75915 0.07912-1.0514 0.23731-0.29223 0.1582-0.54163 0.37792-0.74817 0.65918l-1.0283-0.05937 0.71852-5.0822h4.9042v1.147h-4.0144l-0.4021 2.6235c0.21974-0.167 0.42848-0.29224 0.62623-0.37574 0.35156-0.14502 0.75805-0.21752 1.2195-0.21752 0.86572 0 1.5996 0.27905 2.2016 0.83715 0.60206 0.55811 0.90307 1.2656 0.90307 2.1225 0 0.89209-0.27575 1.6788-0.82726 2.3599-0.55151 0.68115-1.4315 1.0217-2.64 1.0217-0.76905 0-1.4491-0.21642-2.0401-0.64929-0.59107-0.43286-0.92175-1.0975-0.99206-1.994h1.2327zm12.888-6.8752v1.0349c-0.30323 0.29444-0.70643 0.8064-1.2096 1.5359-0.50316 0.72949-0.94811 1.5161-1.3349 2.3599-0.38232 0.82178-0.67236 1.571-0.87011 2.2478-0.12744 0.43506-0.29224 1.136-0.49439 2.1028h-1.3118c0.29883-1.8017 0.958-3.5948 1.9775-5.3789 0.60205-1.0459 1.2349-1.949 1.8985-2.7092h-5.2208v-1.1931h6.5654zm2.591 8.2134c0.25049 0.19775 0.54712 0.29664 0.8899 0.29664 0.41747 0 0.82177-0.09663 1.2129-0.29004 0.65917-0.32081 0.98876-0.84595 0.98876-1.5755v-0.9558c-0.14501 0.09225-0.33179 0.16919-0.5603 0.23071-0.22851 0.0615-0.45264 0.1055-0.67236 0.13182l-0.7185 0.09225c-0.43067 0.05712-0.75367 0.14722-0.969 0.27026-0.36474 0.20655-0.54712 0.53614-0.54712 0.98878 0 0.34278 0.12524 0.61304 0.37573 0.81079zm2.4982-3.2102c0.27245-0.03512 0.45482-0.14941 0.54711-0.34278 0.0528-0.1055 0.0791-0.25708 0.0791-0.45484 0-0.4043-0.14392-0.69762-0.43177-0.88-0.28783-0.18238-0.69982-0.27356-1.236-0.27356-0.61962 0-1.0591 0.16699-1.3184 0.50098-0.14502 0.18458-0.2395 0.45922-0.28344 0.82398h-1.1074c0.022-0.87011 0.30433-1.4755 0.84705-1.816 0.54273-0.34058 1.1722-0.51086 1.8885-0.51086 0.83057 0 1.5051 0.1582 2.0236 0.47461 0.51416 0.3164 0.77124 0.80859 0.77124 1.4765v4.0671c0 0.123 0.0252 0.22192 0.0759 0.29662 0.0505 0.07475 0.1571 0.11212 0.3197 0.11212 0.0528 0 0.11213-0.0037 0.17798-0.01 0.0659-0.0063 0.13623-0.0165 0.21093-0.02963v0.87671c-0.18456 0.05275-0.32518 0.08562-0.42187 0.09887-0.0966 0.01313-0.22851 0.01975-0.3955 0.01975-0.4087 0-0.70533-0.14502-0.8899-0.43506-0.0966-0.15381-0.16479-0.37134-0.20435-0.65259-0.24169 0.31641-0.58886 0.59106-1.0415 0.82398-0.45264 0.23291-0.95141 0.34936-1.4964 0.34936-0.65478 0-1.1898-0.19885-1.6051-0.59655-0.41529-0.39771-0.62293-0.89539-0.62293-1.493 0-0.65478 0.20435-1.1624 0.61304-1.5228 0.40869-0.36035 0.94483-0.58228 1.6084-0.66578l1.8919-0.2373zm8.3752-2.406c0.49877 0.38672 0.7987 1.0525 0.89977 1.9972h-1.1536c-0.0703-0.43505-0.23071-0.7965-0.4812-1.0844-0.25049-0.28784-0.65259-0.43176-1.2063-0.43176-0.75586 0-1.2964 0.36915-1.6216 1.1074-0.21094 0.479-0.31642 1.0701-0.31642 1.7732 0 0.70751 0.14942 1.303 0.44825 1.7864s0.76904 0.7251 1.4106 0.7251c0.49219 0 0.8822-0.15051 1.17-0.45154 0.28785-0.30102 0.4867-0.71301 0.59656-1.236h1.1536c-0.13184 0.93602-0.46142 1.6205-0.98876 2.0534-0.52735 0.43286-1.2019 0.6493-2.0238 0.6493-0.92285 0-1.659-0.33729-2.2082-1.0118-0.54931-0.67456-0.82398-1.5172-0.82398-2.528 0-1.2393 0.30103-2.2039 0.90308-2.8938 0.60205-0.68994 1.3689-1.0349 2.3005-1.0349 0.79541 0 1.4425 0.19336 1.9412 0.58008zm2.8839 4.2781c0.0791 0.67676 0.39332 1.1448 0.94263 1.404 0.28125 0.13182 0.60645 0.19775 0.97559 0.19775 0.70312 0 1.2239-0.22412 1.5622-0.67236 0.33838-0.44825 0.50757-0.94482 0.50757-1.4898 0-0.65918-0.20105-1.1689-0.60315-1.5292-0.4021-0.36035-0.8844-0.54052-1.4469-0.54052-0.4087 0-0.75917 0.07912-1.0514 0.23731-0.29223 0.1582-0.54163 0.37792-0.74817 0.65918l-1.0283-0.05937 0.71851-5.0822h4.9042v1.147h-4.0144l-0.4021 2.6235c0.21972-0.167 0.42847-0.29224 0.62622-0.37574 0.35156-0.14502 0.75805-0.21752 1.2195-0.21752 0.86572 0 1.5996 0.27905 2.2016 0.83715 0.60205 0.55811 0.90308 1.2656 0.90308 2.1225 0 0.89209-0.27575 1.6788-0.82727 2.3599-0.55151 0.68115-1.4315 1.0217-2.64 1.0217-0.76905 0-1.4491-0.21642-2.0401-0.64929-0.59106-0.43286-0.92176-1.0975-0.99208-1.994h1.2327z"/>
<path id="path3794" fill="url(#linearGradient5203)" d="m6.025 54.625h70.2c2.9824 0 5.4 2.4176 5.4 5.4v25.2c0 2.9824-2.4176 5.4-5.4 5.4h-70.2c-2.9824 0-5.4-2.4176-5.4-5.4v-25.2c0-2.9824 2.4176-5.4 5.4-5.4z"/>
<path id="path3798" d="m6.02 54.63h70.2c2.9824 0 5.4 2.4176 5.4 5.4v25.2c0 2.9824-2.4176 5.4-5.4 5.4h-70.2c-2.9824 0-5.4-2.4176-5.4-5.4v-25.2c0-2.9824 2.4176-5.4 5.4-5.4z" stroke="#000000" stroke-miterlimit="10" stroke-width="1.25" fill="none"/>
<path id="path3808" stroke-width="0.2" stroke="#ffffff" d="m14.85 74.15c0.3208 0.50976 0.83495 0.76465 1.5425 0.76465 0.54931 0 1.0008-0.23621 1.3546-0.70861 0.35376-0.47241 0.53064-1.1503 0.53064-2.0336 0-0.89209-0.18238-1.5524-0.54711-1.9809-0.36475-0.42846-0.81519-0.6427-1.3514-0.6427-0.59765 0-1.0822 0.22851-1.4535 0.68555-0.37134 0.45702-0.55701 1.1294-0.55701 2.0171 0 0.75586 0.1604 1.3886 0.48121 1.8985zm2.6631-5.2932c0.21092 0.13184 0.45044 0.36255 0.7185 0.69214v-3.5661h1.1404v9.7162h-1.0679v-0.98218c-0.27686 0.43505-0.60425 0.74926-0.98217 0.94262-0.37794 0.19336-0.8108 0.29004-1.2986 0.29004-0.78662 0-1.4678-0.33069-2.0435-0.99206-0.57569-0.66138-0.86352-1.5414-0.86352-2.64 0-1.0283 0.26258-1.9192 0.78772-2.673 0.52515-0.75366 1.2755-1.1305 2.2511-1.1305 0.54052 0 0.99316 0.11425 1.3579 0.34278zm3.8072 6.1798c-0.503-0.614-0.754-1.359-0.754-2.238h1.2392c0.05275 0.61084 0.167 1.0547 0.34278 1.3315 0.30762 0.49659 0.86352 0.74488 1.6678 0.74488 0.62402 0 1.125-0.16699 1.503-0.50098 0.37793-0.33399 0.56689-0.76465 0.56689-1.292 0-0.65039-0.19885-1.1052-0.59656-1.3645-0.3977-0.25928-0.95031-0.38891-1.6579-0.38891-0.07913 0-0.15931 0.0011-0.2406 0.0037-0.08125 0.0025-0.1637 0.005-0.2472 0.01v-1.0481c0.123 0.01325 0.22632 0.022 0.30981 0.02638 0.0835 0.005 0.17359 0.0062 0.27026 0.0062 0.44385 0 0.8086-0.07037 1.0942-0.21094 0.50099-0.2461 0.75148-0.68555 0.75148-1.3184 0-0.47021-0.167-0.83276-0.50099-1.0876-0.334-0.256-0.723-0.383-1.167-0.383-0.79102 0-1.3381 0.26368-1.6414 0.79102-0.16699 0.29004-0.26148 0.70312-0.28345 1.2392h-1.1733c0-0.70312 0.14062-1.3008 0.42188-1.793 0.4834-0.87891 1.3338-1.3184 2.551-1.3184 0.9624 0 1.7072 0.21424 2.2346 0.6427 0.52734 0.42846 0.79101 1.0492 0.79101 1.8622 0 0.58008-0.15601 1.0503-0.46802 1.4106-0.19335 0.22412-0.44384 0.3999-0.75146 0.52735 0.49659 0.13622 0.8844 0.3988 1.1634 0.78771 0.27906 0.38891 0.41859 0.86462 0.41859 1.4271 0 0.90088-0.29664 1.6348-0.8899 2.2016-0.59326 0.56689-1.4348 0.85034-2.5246 0.85034-1.1162 0-1.9259-0.30651-2.4291-0.91955zm7.7095-6.0216v-0.90966c0.85694-0.0835 1.4546-0.22302 1.793-0.41858 0.33838-0.19556 0.59106-0.65809 0.75805-1.3876h0.93604v9.3999h-1.2656v-6.6841h-2.2215zm13.264-2.5971v1.0349c-0.30322 0.29444-0.70642 0.8064-1.2096 1.5359-0.50318 0.72949-0.94811 1.5161-1.3349 2.3599-0.38232 0.82178-0.67236 1.571-0.87011 2.2478-0.12744 0.43506-0.29224 1.136-0.49439 2.1028h-1.3118c0.29882-1.8018 0.958-3.5948 1.9775-5.3789 0.60205-1.0459 1.2349-1.949 1.8985-2.7092h-5.2208v-1.1931h6.5654zm1.5132 8.6188c-0.503-0.614-0.755-1.359-0.755-2.238h1.2392c0.05275 0.61084 0.167 1.0547 0.34278 1.3315 0.30762 0.49659 0.86352 0.74488 1.6678 0.74488 0.62402 0 1.125-0.16699 1.5029-0.50098 0.37794-0.33399 0.5669-0.76465 0.5669-1.292 0-0.65039-0.19885-1.1052-0.59656-1.3645-0.3977-0.25928-0.95031-0.38891-1.6579-0.38891-0.07912 0-0.1593 0.0011-0.2406 0.0037-0.08125 0.0025-0.16369 0.005-0.24719 0.01v-1.0481c0.123 0.01325 0.22632 0.022 0.30981 0.02638 0.0835 0.005 0.17359 0.0062 0.27026 0.0062 0.44385 0 0.8086-0.07037 1.0942-0.21094 0.50098-0.2461 0.75148-0.68555 0.75148-1.3184 0-0.47021-0.167-0.83276-0.50099-1.0876-0.33397-0.25478-0.7229-0.38223-1.1667-0.38223-0.79102 0-1.3381 0.26368-1.6414 0.79102-0.16699 0.29004-0.26148 0.70312-0.28345 1.2392h-1.1733c0-0.70312 0.14063-1.3008 0.42188-1.793 0.4834-0.87891 1.3338-1.3184 2.551-1.3184 0.9624 0 1.7072 0.21424 2.2346 0.6427 0.52734 0.42846 0.79101 1.0492 0.79101 1.8622 0 0.58008-0.15601 1.0503-0.46801 1.4106-0.19336 0.22412-0.44385 0.3999-0.75148 0.52735 0.49659 0.13622 0.8844 0.3988 1.1634 0.78771 0.27906 0.38891 0.41859 0.86462 0.41859 1.4271 0 0.90088-0.29664 1.6348-0.8899 2.2016-0.59326 0.56689-1.4348 0.85034-2.5246 0.85034-1.1162 0-1.9259-0.30651-2.4291-0.91955zm8.573-0.4054c0.25049 0.19775 0.54712 0.29664 0.8899 0.29664 0.41748 0 0.82178-0.09663 1.2129-0.29004 0.65918-0.32081 0.98876-0.84595 0.98876-1.5755v-0.9558c-0.14501 0.09225-0.33179 0.16919-0.5603 0.23071-0.22851 0.0615-0.45264 0.1055-0.67236 0.13182l-0.7185 0.09225c-0.43066 0.05712-0.75366 0.14722-0.969 0.27026-0.36475 0.20655-0.54711 0.53614-0.54711 0.98878 0 0.34278 0.12524 0.61304 0.37572 0.81079zm2.4982-3.2102c0.27246-0.03513 0.45484-0.14941 0.54712-0.34278 0.05275-0.1055 0.07913-0.25708 0.07913-0.45484 0-0.4043-0.14392-0.69762-0.43176-0.88s-0.69983-0.27356-1.236-0.27356c-0.61962 0-1.0591 0.16699-1.3184 0.50098-0.14501 0.18458-0.2395 0.45922-0.28344 0.82398h-1.1074c0.022-0.87011 0.30432-1.4755 0.84705-1.816 0.54271-0.34058 1.1722-0.51086 1.8885-0.51086 0.83056 0 1.5051 0.1582 2.0236 0.47461 0.51416 0.3164 0.77124 0.80859 0.77124 1.4765v4.0671c0 0.123 0.02525 0.22192 0.07575 0.29662 0.0505 0.07475 0.1571 0.11212 0.3197 0.11212 0.05275 0 0.11212-0.0037 0.17798-0.01 0.06587-0.0062 0.13624-0.0165 0.21094-0.02962v0.87671c-0.18456 0.05275-0.32519 0.08563-0.42188 0.09888-0.09663 0.01313-0.22851 0.01975-0.3955 0.01975-0.4087 0-0.70532-0.14502-0.8899-0.43506-0.09662-0.15381-0.16479-0.37134-0.20435-0.65259-0.24169 0.31641-0.58886 0.59106-1.0415 0.82398-0.45264 0.23291-0.95141 0.34936-1.4964 0.34936-0.65479 0-1.1898-0.19885-1.6051-0.59655-0.41529-0.39771-0.62292-0.89539-0.62292-1.493 0-0.65478 0.20435-1.1624 0.61304-1.5228 0.40869-0.36035 0.94482-0.58228 1.6084-0.66578l1.8919-0.2373zm4.6345 1.9972c0.03513 0.65479 0.28785 1.1074 0.75806 1.3579 0.2417 0.13184 0.51416 0.19775 0.81738 0.19775 0.5669 0 1.0503-0.2362 1.4502-0.70861s0.68335-1.4315 0.85034-2.8774c-0.26366 0.41748-0.58996 0.71081-0.97888 0.88-0.38891 0.1692-0.8075 0.25379-1.2558 0.25379-0.90968 0-1.6292-0.28344-2.1588-0.85034-0.52955-0.5669-0.79431-1.2964-0.79431-2.1885 0-0.85694 0.26148-1.6106 0.78442-2.261 0.52295-0.65039 1.2942-0.97559 2.3138-0.97559 1.3755 0 2.3248 0.61962 2.8476 1.8589 0.29004 0.68115 0.43506 1.5338 0.43506 2.5576 0 1.1558-0.17359 2.1798-0.52076 3.0718-0.57568 1.4854-1.5512 2.228-2.9268 2.228-0.92285 0-1.6238-0.2417-2.1028-0.7251s-0.7185-1.0898-0.7185-1.8194h1.1997zm3.0882-2.4028c0.38891-0.30981 0.58338-0.85144 0.58338-1.6249 0-0.69434-0.17469-1.2118-0.52405-1.5524-0.34936-0.34058-0.79431-0.51086-1.3349-0.51086-0.58008 0-1.0404 0.19446-1.381 0.58338-0.34058 0.38892-0.51086 0.90858-0.51086 1.559 0 0.61524 0.14941 1.1041 0.44824 1.4666 0.29884 0.36255 0.77564 0.54382 1.4304 0.54382 0.47021 0 0.89978-0.15491 1.2888-0.46472z"/>
<path id="path8997" d="m445.75 117.73v-18-3.275" stroke="#000000" stroke-miterlimit="10" stroke-width="1.25" fill="none"/>
<path id="path9001" d="m445.76 91.725 3.15 6.3-3.15-1.575-3.15 1.575 3.15-6.3z"/>
<path id="path9005" d="m445.75 91.73 3.15 6.3-3.15-1.575-3.15 1.575 3.15-6.3z" stroke="#000000" stroke-miterlimit="10" stroke-width="1.25" fill="none"/>
<path id="path9013" fill="#ffffff" d="m423.06 117.72h45.9c2.2368 0 4.05 1.8132 4.05 4.05v18.9c0 2.2368-1.8132 4.05-4.05 4.05h-45.9c-2.2368 0-4.05-1.8132-4.05-4.05v-18.9c0-2.2368 1.8132-4.05 4.05-4.05z"/>
<path id="path9017" d="m423.05 117.73h45.9c2.2368 0 4.05 1.8132 4.05 4.05v18.9c0 2.2368-1.8132 4.05-4.05 4.05h-45.9c-2.2368 0-4.05-1.8132-4.05-4.05v-18.9c0-2.2368 1.8132-4.05 4.05-4.05z" stroke="#000000" stroke-miterlimit="10" stroke-width="1.25" fill="#b3b3b3"/>
<path id="path9027" stroke-width="0.2" stroke="#ffffff" d="m426.82 133.86c0.25664 0.40781 0.66798 0.61172 1.234 0.61172 0.43945 0 0.80069-0.18896 1.0837-0.5669 0.28301-0.37792 0.42451-0.92021 0.42451-1.6269 0-0.71368-0.1459-1.2419-0.4377-1.5846-0.29179-0.34277-0.65214-0.51416-1.081-0.51416-0.47813 0-0.86573 0.18281-1.1628 0.54845-0.29707 0.36561-0.44561 0.90351-0.44561 1.6136 0 0.60468 0.12832 1.1109 0.38496 1.5188zm2.1305-4.2345c0.16875 0.1055 0.36035 0.29004 0.5748 0.5537v-2.8529h0.9123v7.773h-0.85429v-0.78575c-0.22149 0.34805-0.4834 0.59943-0.78575 0.75412-0.30234 0.15468-0.64862 0.23202-1.0389 0.23202-0.6293 0-1.1742-0.26455-1.6348-0.79365-0.46055-0.5291-0.69083-1.2331-0.69083-2.112 0-0.82266 0.21007-1.5355 0.63018-2.1384 0.42011-0.60294 1.0204-0.9044 1.8009-0.9044 0.43243 0 0.79454 0.0914 1.0863 0.27422zm6.4055-0.0185c0.37617 0.18809 0.6627 0.43154 0.85958 0.73037 0.18983 0.28477 0.3164 0.61699 0.37968 0.99668 0.0562 0.26016 0.0844 0.675 0.0844 1.2445h-4.1396c0.0176 0.57304 0.15293 1.0327 0.40605 1.379 0.25313 0.34629 0.64512 0.51944 1.176 0.51944 0.49571 0 0.89121-0.16349 1.1865-0.49044 0.16875-0.18984 0.28829-0.40957 0.3586-0.65918h0.9334c-0.0246 0.20743-0.10637 0.43858-0.24522 0.69345-0.13886 0.25489-0.29443 0.46319-0.4667 0.62491-0.28828 0.28126-0.64511 0.47109-1.0705 0.56953-0.22853 0.0562-0.48692 0.0844-0.7752 0.0844-0.70313 0-1.299-0.25577-1.7878-0.76729-0.48868-0.51153-0.73302-1.2278-0.73302-2.1489 0-0.90702 0.24609-1.6435 0.73828-2.2095 0.49219-0.56602 1.1356-0.84902 1.9301-0.84902 0.40078 0 0.78925 0.094 1.1654 0.28212zm0.34805 2.2175c-0.0386-0.41133-0.12832-0.74004-0.26895-0.98613-0.26015-0.45703-0.69434-0.68555-1.3025-0.68555-0.43594 0-0.80156 0.15733-1.0969 0.47198-0.29532 0.31465-0.45177 0.71455-0.46934 1.1997h3.1378zm2.6032-2.373 1.5082 4.5985 1.5768-4.5985h1.0389l-2.1305 5.6479h-1.0125l-2.083-5.6479h1.1022zm8.4534 0.15556c0.37617 0.18809 0.6627 0.43154 0.85957 0.73038 0.18984 0.28476 0.3164 0.61698 0.37969 0.99667 0.0563 0.26017 0.0844 0.675 0.0844 1.2445h-4.1396c0.0176 0.57304 0.15292 1.0327 0.40605 1.379 0.25312 0.34629 0.64511 0.51944 1.176 0.51944 0.4957 0 0.89122-0.16349 1.1865-0.49044 0.16875-0.18984 0.28829-0.40956 0.3586-0.65917h0.9334c-0.0246 0.20742-0.10638 0.43857-0.24523 0.69345-0.13886 0.25488-0.29442 0.46318-0.4667 0.62491-0.28827 0.28125-0.64511 0.47109-1.0705 0.56952-0.22852 0.0563-0.48691 0.0844-0.7752 0.0844-0.70312 0-1.299-0.25576-1.7878-0.76729-0.48866-0.51152-0.733-1.2278-0.733-2.1489 0-0.90703 0.24609-1.6435 0.73828-2.2095 0.49218-0.56603 1.1356-0.84903 1.9301-0.84903 0.40078 0 0.78925 0.094 1.1654 0.28213zm0.34805 2.2175c-0.0386-0.41132-0.12833-0.74003-0.26895-0.98612-0.26015-0.45704-0.69434-0.68555-1.3025-0.68555-0.43594 0-0.80157 0.15732-1.0969 0.47197-0.29531 0.31465-0.45176 0.71455-0.46934 1.1997h3.1378zm2.1656-4.4719h0.94921v7.7466h-0.94921v-7.7466zm5.9001 6.4204c0.2338-0.47636 0.35068-1.0064 0.35068-1.59 0-0.52735-0.0844-0.95625-0.25312-1.2868-0.26719-0.52031-0.72774-0.78046-1.3816-0.78046-0.58007 0-1.002 0.22149-1.2656 0.66445-0.26368 0.44298-0.39552 0.97735-0.39552 1.6031 0 0.60117 0.13184 1.1022 0.39552 1.503 0.26367 0.40077 0.68202 0.60116 1.2551 0.60116 0.6293 0 1.0608-0.23818 1.2946-0.71455zm0.588-3.7574c0.50272 0.48516 0.7541 1.1988 0.7541 2.141 0 0.91054-0.22149 1.6629-0.66445 2.257-0.44298 0.59414-1.1303 0.89121-2.0619 0.89121-0.77695 0-1.394-0.26279-1.851-0.78837-0.45702-0.52559-0.68555-1.2314-0.68555-2.1172 0-0.94923 0.24083-1.7051 0.72246-2.2676 0.48165-0.5625 1.1285-0.84375 1.9406-0.84375 0.72774 0 1.343 0.24258 1.8458 0.72773zm5.3692 3.8891c0.29354-0.3709 0.44032-0.92548 0.44032-1.6638 0-0.45-0.065-0.83672-0.19511-1.1602-0.2461-0.62226-0.6961-0.9334-1.35-0.9334-0.65743 0-1.1074 0.32871-1.35 0.98614-0.13008 0.35156-0.19511 0.79805-0.19511 1.3395 0 0.43593 0.065 0.80683 0.19511 1.1127 0.24608 0.58358 0.69609 0.87538 1.35 0.87538 0.44296 0 0.81122-0.18545 1.1048-0.55635zm-3.5622-4.427h0.92285v0.74883c0.18985-0.25664 0.39726-0.45528 0.62227-0.5959 0.31991-0.21094 0.69609-0.3164 1.1285-0.3164 0.63984 0 1.183 0.24521 1.6295 0.73565 0.44649 0.49042 0.66973 1.1909 0.66973 2.1015 0 1.2305-0.32168 2.1094-0.96504 2.6368-0.40781 0.33399-0.88242 0.50097-1.4239 0.50097-0.42539 0-0.78223-0.0931-1.0705-0.27949-0.16875-0.1055-0.35683-0.28652-0.56425-0.54316v2.8845h-0.94922v-7.8732z"/>
<path id="path9037" d="m445.75 169.93v-17.7 10-11.775" stroke="#000000" stroke-miterlimit="10" stroke-width="1.25" fill="none"/>
<path id="path9041" d="m445.76 145.72 3.15 6.3-3.15-1.575-3.15 1.575 3.15-6.3z"/>
<path id="path9045" d="m445.75 145.73 3.15 6.3-3.15-1.575-3.15 1.575 3.15-6.3z" stroke="#000000" stroke-miterlimit="10" stroke-width="1.25" fill="none"/>
<path id="path9053" fill="#ffffff" d="m423.06 169.92h45.9c2.2368 0 4.05 1.8132 4.05 4.05v18.9c0 2.2368-1.8132 4.05-4.05 4.05h-45.9c-2.2368 0-4.05-1.8132-4.05-4.05v-18.9c0-2.2368 1.8132-4.05 4.05-4.05z"/>
<path id="path9057" d="m423.05 169.93h45.9c2.2368 0 4.05 1.8132 4.05 4.05v18.9c0 2.2368-1.8132 4.05-4.05 4.05h-45.9c-2.2368 0-4.05-1.8132-4.05-4.05v-18.9c0-2.2368 1.8132-4.05 4.05-4.05z" stroke="#000000" stroke-miterlimit="10" stroke-width="1.25" fill="#b3b3b3"/>
<path id="path9067" stroke-width="0.2" stroke="#ffffff" d="m431.88 179.85h1.06v3.201h4.0289v-3.201h1.06v7.7466h-1.06v-3.6229h-4.0289v3.6229h-1.06v-7.7466zm7.8645 0h5.6479v0.94921h-4.6248v2.352h4.2768v0.89649h-4.2768v2.6261h4.7039v0.92284h-5.727v-7.7466zm11.076 4.572-1.176-3.4225-1.2498 3.4225h2.4258zm-1.7244-4.572h1.1865l2.8108 7.7466h-1.1496l-0.78574-2.3203h-3.0639l-0.83848 2.3203h-1.0758l2.9162-7.7466zm7.9225 6.8502c0.35508 0 0.64688-0.0369 0.87539-0.11075 0.40781-0.13711 0.7418-0.40079 1.002-0.79102 0.20743-0.31289 0.35684-0.71367 0.44825-1.2023 0.0528-0.2918 0.0791-0.5625 0.0791-0.81211 0-0.95977-0.19073-1.7051-0.57218-2.236-0.38143-0.53085-0.9958-0.79629-1.843-0.79629h-1.8615v5.9485h1.8721zm-2.9268-6.8502h3.1378c1.0652 0 1.8914 0.37793 2.4785 1.1338 0.52383 0.68202 0.78575 1.5556 0.78575 2.6209 0 0.82267-0.15469 1.5662-0.46407 2.2306-0.54491 1.1742-1.4819 1.7614-2.8108 1.7614h-3.1271v-7.7466z"/>
<path id="path9077" d="m405.5 72.73h-48.275" stroke="#000000" stroke-miterlimit="10" stroke-width="1.25" fill="none"/>
<path id="path9081" d="m352.5 72.725 6.3-3.15-1.575 3.15 1.575 3.15-6.3-3.15z"/>
<path id="path9085" d="m352.5 72.73 6.3-3.15-1.575 3.15 1.575 3.15-6.3-3.15z" stroke="#000000" stroke-miterlimit="10" stroke-width="1.25" fill="none"/>
<path id="path9093" fill="#b3b3b3" d="m410.9 54.725h70.2c2.9824 0 5.4 2.4176 5.4 5.4v25.2c0 2.9824-2.4178 5.4-5.4 5.4h-70.2c-2.9824 0-5.4-2.4176-5.4-5.4v-25.2c0-2.9824 2.4176-5.4 5.4-5.4z"/>
<path id="path9097" d="m410.9 54.73h70.2c2.9824 0 5.4 2.4176 5.4 5.4v25.2c0 2.9824-2.4178 5.4-5.4 5.4h-70.2c-2.9824 0-5.4-2.4176-5.4-5.4v-25.2c0-2.9824 2.4176-5.4 5.4-5.4z" stroke="#000000" stroke-miterlimit="10" stroke-width="1.25" fill="none"/>
<path id="path4912" d="m418.58 74.53c0.3208 0.50976 0.83495 0.76465 1.5425 0.76465 0.54931 0 1.0008-0.23621 1.3546-0.70861 0.35376-0.47241 0.53064-1.1503 0.53064-2.0336 0-0.89209-0.18238-1.5524-0.54712-1.9808-0.36475-0.42846-0.81518-0.6427-1.3513-0.6427-0.59765 0-1.0822 0.22851-1.4535 0.68555-0.37133 0.45702-0.55701 1.1294-0.55701 2.0171 0 0.75586 0.1604 1.3887 0.48121 1.8984zm2.6631-5.2932c0.21095 0.13184 0.45045 0.36255 0.71851 0.69214v-3.5662h1.1404v9.7163h-1.0679v-0.98218c-0.27686 0.43505-0.60425 0.74926-0.98217 0.94262-0.37794 0.19336-0.8108 0.29004-1.2986 0.29004-0.78662 0-1.4678-0.33069-2.0435-0.99206-0.57569-0.66137-0.86353-1.5414-0.86353-2.64 0-1.0283 0.26258-1.9193 0.78773-2.673 0.52514-0.75366 1.2755-1.1305 2.2511-1.1305 0.54052 0 0.99316 0.11425 1.3579 0.34278zm4.8322 5.2932c0.3208 0.50976 0.83495 0.76465 1.5425 0.76465 0.54931 0 1.0008-0.23621 1.3546-0.70861 0.35376-0.47241 0.53064-1.1503 0.53064-2.0336 0-0.89209-0.18236-1.5524-0.54711-1.9808-0.36475-0.42846-0.81519-0.6427-1.3513-0.6427-0.59765 0-1.0822 0.22851-1.4535 0.68555-0.37133 0.45702-0.55701 1.1294-0.55701 2.0171 0 0.75586 0.16041 1.3887 0.48121 1.8984zm2.6631-5.2932c0.21094 0.13184 0.45045 0.36255 0.71851 0.69214v-3.5662h1.1404v9.7163h-1.0679v-0.98218c-0.27686 0.43505-0.60425 0.74926-0.98218 0.94262s-0.81079 0.29004-1.2986 0.29004c-0.78662 0-1.4678-0.33069-2.0435-0.99206-0.57568-0.66137-0.86353-1.5414-0.86353-2.64 0-1.0283 0.26258-1.9193 0.78773-2.673 0.52514-0.75366 1.2755-1.1305 2.2511-1.1305 0.54052 0 0.99316 0.11425 1.3579 0.34278zm7.9963-0.02312c0.47023 0.23511 0.82838 0.53944 1.0745 0.91296 0.2373 0.35596 0.3955 0.77125 0.4746 1.2458 0.0704 0.3252 0.1055 0.84375 0.1055 1.5557h-5.1746c0.022 0.7163 0.19116 1.2909 0.50756 1.7238 0.31641 0.43286 0.8064 0.64929 1.47 0.64929 0.61962 0 1.114-0.20434 1.4831-0.61304 0.21094-0.2373 0.36037-0.51196 0.44825-0.82398h1.1668c-0.0308 0.25929-0.13293 0.54822-0.30652 0.86682s-0.36804 0.57897-0.58338 0.78112c-0.36035 0.35156-0.80638 0.58888-1.3381 0.71191-0.28565 0.07037-0.60865 0.1055-0.969 0.1055-0.87891 0-1.6238-0.3197-2.2346-0.95911-0.61084-0.6394-0.91625-1.5348-0.91625-2.6861 0-1.1338 0.30761-2.0544 0.92285-2.762 0.61522-0.70752 1.4194-1.0613 2.4126-1.0613 0.50097 0 0.98656 0.11762 1.4568 0.35266zm0.43507 2.7718c-0.0484-0.51415-0.1604-0.92504-0.33618-1.2327-0.3252-0.57129-0.86792-0.85694-1.6282-0.85694-0.54493 0-1.002 0.19666-1.3711 0.58998-0.36914 0.39331-0.5647 0.89319-0.58666 1.4996h3.9221zm7.9468-4.5648c0.41528 0.54711 0.62292 1.1107 0.62292 1.6908h-1.1733c-0.0704-0.37354-0.18237-0.66577-0.33618-0.87671-0.28564-0.39551-0.7185-0.59326-1.2986-0.59326-0.66357 0-1.1909 0.30651-1.582 0.91955-0.39111 0.61304-0.60863 1.4908-0.65258 2.6334 0.27246-0.3999 0.61523-0.69872 1.0283-0.89649 0.37793-0.17578 0.7998-0.26366 1.2656-0.26366 0.79101 0 1.481 0.25269 2.0698 0.75805 0.58886 0.50538 0.8833 1.259 0.8833 2.261 0 0.85694-0.27905 1.6161-0.83716 2.2775-0.5581 0.66139-1.3535 0.99208-2.3862 0.99208-0.8833 0-1.6458-0.33509-2.2874-1.0052-0.6416-0.67017-0.9624-1.7985-0.9624-3.3849 0-1.1733 0.14283-2.1687 0.42848-2.9861 0.54931-1.5644 1.5535-2.3467 3.0124-2.3467 1.0547 0 1.7897 0.27355 2.205 0.82068zm-0.88989 7.218c0.30981-0.41968 0.46472-0.91516 0.46472-1.4864 0-0.4834-0.13843-0.94372-0.41528-1.381-0.27687-0.43726-0.78003-0.65589-1.5095-0.65589-0.50976 0-0.95691 0.16919-1.3414 0.50758-0.38453 0.33838-0.57679 0.84814-0.57679 1.5293 0 0.59766 0.17469 1.0997 0.52405 1.5062s0.83386 0.60975 1.4535 0.60975c0.62402 0 1.091-0.20985 1.4008-0.62952zm3.8995-0.9657c0.0791 0.67676 0.39331 1.1448 0.94262 1.4041 0.28125 0.13182 0.60645 0.19775 0.97559 0.19775 0.70312 0 1.2239-0.22412 1.5622-0.67236 0.33838-0.44825 0.50757-0.94482 0.50757-1.4898 0-0.65918-0.20105-1.1689-0.60315-1.5293-0.4021-0.36035-0.8844-0.54052-1.4469-0.54052-0.40868 0-0.75916 0.07913-1.0514 0.23731-0.29224 0.1582-0.54164 0.37792-0.74818 0.65918l-1.0283-0.05938 0.71851-5.0823h4.9043v1.147h-4.0144l-0.4021 2.6235c0.21972-0.167 0.42847-0.29224 0.62622-0.37574 0.35156-0.14502 0.75805-0.21752 1.2195-0.21752 0.86572 0 1.5996 0.27905 2.2017 0.83715 0.60205 0.55811 0.90307 1.2656 0.90307 2.1226 0 0.89209-0.27575 1.6787-0.82726 2.3599-0.55151 0.68115-1.4315 1.0217-2.64 1.0217-0.76905 0-1.4491-0.21642-2.0402-0.64929-0.59107-0.43286-0.92177-1.0975-0.99208-1.994h1.2327zm11.981-6.2523c0.41529 0.54711 0.62292 1.1107 0.62292 1.6908h-1.1733c-0.0703-0.37354-0.18238-0.66577-0.33619-0.87671-0.28564-0.39551-0.7185-0.59326-1.2986-0.59326-0.66357 0-1.1909 0.30651-1.582 0.91955-0.39112 0.61304-0.60864 1.4908-0.65259 2.6334 0.27246-0.3999 0.61524-0.69872 1.0283-0.89649 0.37793-0.17578 0.7998-0.26366 1.2656-0.26366 0.79101 0 1.481 0.25269 2.0698 0.75805 0.58887 0.50538 0.8833 1.259 0.8833 2.261 0 0.85694-0.27905 1.6161-0.83716 2.2775-0.5581 0.66139-1.3535 0.99208-2.3862 0.99208-0.8833 0-1.6458-0.33509-2.2874-1.0052-0.6416-0.67017-0.9624-1.7985-0.9624-3.3849 0-1.1733 0.14283-2.1687 0.42848-2.9861 0.54931-1.5644 1.5535-2.3467 3.0124-2.3467 1.0547 0 1.7897 0.27355 2.205 0.82068zm-0.88989 7.218c0.30981-0.41968 0.46473-0.91516 0.46473-1.4864 0-0.4834-0.13844-0.94372-0.41529-1.381-0.27686-0.43726-0.78004-0.65589-1.5095-0.65589-0.50976 0-0.95691 0.16919-1.3414 0.50758-0.38453 0.33838-0.57679 0.84814-0.57679 1.5293 0 0.59766 0.17469 1.0997 0.52405 1.5062s0.83386 0.60975 1.4535 0.60975c0.62402 0 1.091-0.20985 1.4008-0.62952zm7.1295-4.4824c0.29444-0.29224 0.44165-0.64051 0.44165-1.0448 0-0.35156-0.14062-0.67456-0.42187-0.969s-0.70971-0.44165-1.2854-0.44165c-0.57129 0-0.98438 0.14721-1.2392 0.44165-0.25489 0.29444-0.38233 0.6394-0.38233 1.0349 0 0.44385 0.16479 0.79101 0.49438 1.0415 0.3296 0.25049 0.71851 0.37574 1.1668 0.37574 0.52295 0 0.93164-0.14612 1.2261-0.43835zm0.21424 4.667c0.36255-0.29664 0.54383-0.73939 0.54383-1.3282 0-0.61084-0.18678-1.0745-0.5603-1.3909-0.37354-0.31641-0.85255-0.47461-1.437-0.47461-0.5669 0-1.0294 0.1615-1.3876 0.4845-0.35816 0.32299-0.53724 0.77014-0.53724 1.3414 0 0.49219 0.1637 0.91736 0.49109 1.2755 0.3274 0.35815 0.83386 0.53724 1.5194 0.53724 0.54931 0 1.0052-0.14832 1.3678-0.44495zm-3.8265-4.2682c-0.34717-0.35156-0.52075-0.8086-0.52075-1.3711 0-0.70312 0.25488-1.3074 0.76464-1.8127 0.50978-0.50538 1.2327-0.75806 2.1687-0.75806 0.90527 0 1.615 0.23841 2.1292 0.71521 0.51416 0.47681 0.77124 1.0338 0.77124 1.671 0 0.58886-0.14941 1.0657-0.44825 1.4304-0.16699 0.20655-0.42626 0.4087-0.77782 0.60645 0.39111 0.18018 0.69872 0.38671 0.92284 0.61962 0.41748 0.43945 0.62623 1.0108 0.62623 1.7139 0 0.83056-0.27906 1.5348-0.83716 2.1127-0.5581 0.57789-1.3469 0.86682-2.3664 0.86682-0.91846 0-1.6952-0.24939-2.3302-0.74818-0.63501-0.49878-0.95253-1.2228-0.95253-2.172 0-0.55811 0.13624-1.0404 0.4087-1.4469 0.27247-0.4065 0.67675-0.71741 1.2129-0.93274-0.32959-0.14062-0.58667-0.30542-0.77124-0.49439zm11.744-1.1602c0.49877 0.38672 0.7987 1.0525 0.89977 1.9973h-1.1536c-0.0703-0.43505-0.23071-0.7965-0.4812-1.0844-0.25049-0.28784-0.65259-0.43176-1.2063-0.43176-0.75586 0-1.2964 0.36915-1.6216 1.1074-0.21093 0.479-0.31641 1.0701-0.31641 1.7732 0 0.70751 0.14941 1.303 0.44824 1.7864 0.29884 0.4834 0.76905 0.7251 1.4106 0.7251 0.49219 0 0.8822-0.15051 1.17-0.45154 0.28785-0.30102 0.4867-0.71301 0.59656-1.236h1.1536c-0.13184 0.93602-0.46142 1.6205-0.98876 2.0533-0.52735 0.43286-1.2019 0.6493-2.0237 0.6493-0.92285 0-1.6589-0.33729-2.2082-1.0118-0.54931-0.67456-0.82397-1.5172-0.82397-2.5279 0-1.2393 0.30102-2.2039 0.90307-2.8938 0.60205-0.68994 1.3689-1.0349 2.3005-1.0349 0.79541 0 1.4425 0.19336 1.9413 0.58008z" stroke="#ffffff" stroke-width="0.2" fill="#000000"/>
</svg>
