<?xml version="1.0" encoding="UTF-8" standalone="no"?>
<svg id="svg2" xmlns:rdf="http://www.w3.org/1999/02/22-rdf-syntax-ns#" xmlns="http://www.w3.org/2000/svg" height="56.241mm" width="99.413mm" version="1.1" xmlns:cc="http://creativecommons.org/ns#" xmlns:xlink="http://www.w3.org/1999/xlink" viewBox="0 0 352.24998 199.27911" xmlns:dc="http://purl.org/dc/elements/1.1/">
 <defs id="defs4">
  <linearGradient id="linearGradient6045">
   <stop id="stop6029" stop-color="#fff" offset="0"/>
   <stop id="stop6065" stop-color="#fff" offset=".52857"/>
   <stop id="stop6063" stop-color="#ccc" offset=".52857"/>
   <stop id="stop6031" stop-color="#b3b3b3" offset=".52857"/>
   <stop id="stop6033" stop-color="#b3b3b3" offset="1"/>
  </linearGradient>
  <clipPath id="clipPath3380" clipPathUnits="userSpaceOnUse">
   <path id="path3382" d="m0 0h843v596h-843v-596z" clip-rule="evenodd"/>
  </clipPath>
  <clipPath id="clipPath3386" clipPathUnits="userSpaceOnUse">
   <path id="path3388" d="m0 0h842v595h-842v-595z" clip-rule="evenodd"/>
  </clipPath>
  <clipPath id="clipPath3400" clipPathUnits="userSpaceOnUse">
   <path id="path3402" d="m0 0h843v596h-843v-596z" clip-rule="evenodd"/>
  </clipPath>
  <clipPath id="clipPath3412" clipPathUnits="userSpaceOnUse">
   <path id="path3414" d="m0 0h843v596h-843v-596z" clip-rule="evenodd"/>
  </clipPath>
  <clipPath id="clipPath3418" clipPathUnits="userSpaceOnUse">
   <path id="path3420" d="m0 0h842v595h-842v-595z" clip-rule="evenodd"/>
  </clipPath>
  <clipPath id="clipPath3432" clipPathUnits="userSpaceOnUse">
   <path id="path3434" d="m0 0h843v596h-843v-596z" clip-rule="evenodd"/>
  </clipPath>
  <clipPath id="clipPath3444" clipPathUnits="userSpaceOnUse">
   <path id="path3446" d="m0 0h843v596h-843v-596z" clip-rule="evenodd"/>
  </clipPath>
  <clipPath id="clipPath3450" clipPathUnits="userSpaceOnUse">
   <path id="path3452" d="m0 0h842v595h-842v-595z" clip-rule="evenodd"/>
  </clipPath>
  <clipPath id="clipPath3464" clipPathUnits="userSpaceOnUse">
   <path id="path3466" d="m0 0h843v596h-843v-596z" clip-rule="evenodd"/>
  </clipPath>
  <clipPath id="clipPath3476" clipPathUnits="userSpaceOnUse">
   <path id="path3478" d="m0 0h843v596h-843v-596z" clip-rule="evenodd"/>
  </clipPath>
  <clipPath id="clipPath3482" clipPathUnits="userSpaceOnUse">
   <path id="path3484" d="m0 0h842v595h-842v-595z" clip-rule="evenodd"/>
  </clipPath>
  <clipPath id="clipPath3496" clipPathUnits="userSpaceOnUse">
   <path id="path3498" d="m0 0h843v596h-843v-596z" clip-rule="evenodd"/>
  </clipPath>
  <clipPath id="clipPath3508" clipPathUnits="userSpaceOnUse">
   <path id="path3510" d="m0 0h843v596h-843v-596z" clip-rule="evenodd"/>
  </clipPath>
  <clipPath id="clipPath3514" clipPathUnits="userSpaceOnUse">
   <path id="path3516" d="m0 0h842v595h-842v-595z" clip-rule="evenodd"/>
  </clipPath>
  <clipPath id="clipPath3528" clipPathUnits="userSpaceOnUse">
   <path id="path3530" d="m0 0h843v596h-843v-596z" clip-rule="evenodd"/>
  </clipPath>
  <clipPath id="clipPath3540" clipPathUnits="userSpaceOnUse">
   <path id="path3542" d="m0 0h843v596h-843v-596z" clip-rule="evenodd"/>
  </clipPath>
  <clipPath id="clipPath3546" clipPathUnits="userSpaceOnUse">
   <path id="path3548" d="m0 0h842v595h-842v-595z" clip-rule="evenodd"/>
  </clipPath>
  <clipPath id="clipPath3560" clipPathUnits="userSpaceOnUse">
   <path id="path3562" d="m0 0h843v596h-843v-596z" clip-rule="evenodd"/>
  </clipPath>
  <clipPath id="clipPath3572" clipPathUnits="userSpaceOnUse">
   <path id="path3574" d="m0 0h843v596h-843v-596z" clip-rule="evenodd"/>
  </clipPath>
  <clipPath id="clipPath3578" clipPathUnits="userSpaceOnUse">
   <path id="path3580" d="m0 0h842v595h-842v-595z" clip-rule="evenodd"/>
  </clipPath>
  <clipPath id="clipPath3592" clipPathUnits="userSpaceOnUse">
   <path id="path3594" d="m0 0h843v596h-843v-596z" clip-rule="evenodd"/>
  </clipPath>
  <clipPath id="clipPath3604" clipPathUnits="userSpaceOnUse">
   <path id="path3606" d="m0 0h843v596h-843v-596z" clip-rule="evenodd"/>
  </clipPath>
  <clipPath id="clipPath3610" clipPathUnits="userSpaceOnUse">
   <path id="path3612" d="m0 0h842v595h-842v-595z" clip-rule="evenodd"/>
  </clipPath>
  <clipPath id="clipPath3624" clipPathUnits="userSpaceOnUse">
   <path id="path3626" d="m0 0h843v596h-843v-596z" clip-rule="evenodd"/>
  </clipPath>
  <clipPath id="clipPath3636" clipPathUnits="userSpaceOnUse">
   <path id="path3638" d="m0 0h843v596h-843v-596z" clip-rule="evenodd"/>
  </clipPath>
  <clipPath id="clipPath3642" clipPathUnits="userSpaceOnUse">
   <path id="path3644" d="m0 0h842v595h-842v-595z" clip-rule="evenodd"/>
  </clipPath>
  <clipPath id="clipPath3864" clipPathUnits="userSpaceOnUse">
   <path id="path3866" d="m0 0h843v596h-843v-596z" clip-rule="evenodd"/>
  </clipPath>
  <clipPath id="clipPath3874" clipPathUnits="userSpaceOnUse">
   <path id="path3876" d="m0 0h843v596h-843v-596z" clip-rule="evenodd"/>
  </clipPath>
  <clipPath id="clipPath3880" clipPathUnits="userSpaceOnUse">
   <path id="path3882" d="m0 0h842v595h-842v-595z" clip-rule="evenodd"/>
  </clipPath>
  <clipPath id="clipPath3896" clipPathUnits="userSpaceOnUse">
   <path id="path3898" d="m0 0h843v596h-843v-596z" clip-rule="evenodd"/>
  </clipPath>
  <clipPath id="clipPath3908" clipPathUnits="userSpaceOnUse">
   <path id="path3910" d="m0 0h843v596h-843v-596z" clip-rule="evenodd"/>
  </clipPath>
  <clipPath id="clipPath3914" clipPathUnits="userSpaceOnUse">
   <path id="path3916" d="m0 0h842v595h-842v-595z" clip-rule="evenodd"/>
  </clipPath>
  <clipPath id="clipPath3924" clipPathUnits="userSpaceOnUse">
   <path id="path3926" d="m0 0h843v596h-843v-596z" clip-rule="evenodd"/>
  </clipPath>
  <clipPath id="clipPath3930" clipPathUnits="userSpaceOnUse">
   <path id="path3932" d="m0 0h842v595h-842v-595z" clip-rule="evenodd"/>
  </clipPath>
  <clipPath id="clipPath3936" clipPathUnits="userSpaceOnUse">
   <path id="path3938" d="m0 0h842v595h-842v-595z" clip-rule="evenodd"/>
  </clipPath>
  <clipPath id="clipPath3950" clipPathUnits="userSpaceOnUse">
   <path id="path3952" d="m0 0h843v596h-843v-596z" clip-rule="evenodd"/>
  </clipPath>
  <clipPath id="clipPath3960" clipPathUnits="userSpaceOnUse">
   <path id="path3962" d="m0 0h843v596h-843v-596z" clip-rule="evenodd"/>
  </clipPath>
  <clipPath id="clipPath3966" clipPathUnits="userSpaceOnUse">
   <path id="path3968" d="m0 0h842v595h-842v-595z" clip-rule="evenodd"/>
  </clipPath>
  <clipPath id="clipPath3982" clipPathUnits="userSpaceOnUse">
   <path id="path3984" d="m0 0h843v596h-843v-596z" clip-rule="evenodd"/>
  </clipPath>
  <linearGradient id="linearGradient5203" y2="245.17" xlink:href="#linearGradient6045" gradientUnits="userSpaceOnUse" x2="412.52" y1="214.06" x1="412.52"/>
  <linearGradient id="linearGradient6073" y2="248.68" xlink:href="#linearGradient6045" gradientUnits="userSpaceOnUse" x2="518.46" y1="210.7" x1="518.46"/>
  <linearGradient id="linearGradient6109" y2="257.16" xlink:href="#linearGradient6045" gradientUnits="userSpaceOnUse" x2="643.43" y1="201.81" x1="643.43"/>
 </defs>
 <g id="layer1" transform="translate(-265.31 -475.53)">
  <g id="g3348" transform="matrix(1.25 0 0 1.25 187.41 434.77)"></g>
  <g id="g3352" transform="matrix(1.25 0 0 1.25 187.41 434.77)"></g>
  <g id="g3376" transform="matrix(1.25 0 0 1.25 187.41 434.77)">
   <g id="g3378" clip-path="url(#clipPath3380)">
    <g id="g3384" clip-path="url(#clipPath3386)"></g>
   </g>
  </g>
  <g id="g3392" transform="matrix(1.25 0 0 1.25 187.41 434.77)"></g>
  <g id="g3396" transform="matrix(1.25 0 0 1.25 187.41 434.77)">
   <g id="g3398" clip-path="url(#clipPath3400)"></g>
  </g>
  <g id="g3408" transform="matrix(1.25 0 0 1.25 187.41 434.77)">
   <g id="g3410" clip-path="url(#clipPath3412)">
    <g id="g3416" clip-path="url(#clipPath3418)"></g>
   </g>
  </g>
  <g id="g3424" transform="matrix(1.25 0 0 1.25 187.41 434.77)"></g>
  <g id="g3428" transform="matrix(1.25 0 0 1.25 187.41 434.77)">
   <g id="g3430" clip-path="url(#clipPath3432)"></g>
  </g>
  <g id="g3440" transform="matrix(1.25 0 0 1.25 187.41 434.77)">
   <g id="g3442" clip-path="url(#clipPath3444)">
    <g id="g3448" clip-path="url(#clipPath3450)"></g>
   </g>
  </g>
  <g id="g3456" transform="matrix(1.25 0 0 1.25 187.41 434.77)"></g>
  <g id="g3460" transform="matrix(1.25 0 0 1.25 187.41 434.77)">
   <g id="g3462" clip-path="url(#clipPath3464)"></g>
  </g>
  <g id="g3472" transform="matrix(1.25 0 0 1.25 187.41 434.77)">
   <g id="g3474" clip-path="url(#clipPath3476)">
    <g id="g3480" clip-path="url(#clipPath3482)"></g>
   </g>
  </g>
  <g id="g3488" transform="matrix(1.25 0 0 1.25 187.41 434.77)"></g>
  <g id="g3492" transform="matrix(1.25 0 0 1.25 187.41 434.77)">
   <g id="g3494" clip-path="url(#clipPath3496)"></g>
  </g>
  <g id="g3504" transform="matrix(1.25 0 0 1.25 187.41 434.77)">
   <g id="g3506" clip-path="url(#clipPath3508)">
    <g id="g3512" clip-path="url(#clipPath3514)"></g>
   </g>
  </g>
  <g id="g3520" transform="matrix(1.25 0 0 1.25 187.41 434.77)"></g>
  <g id="g3524" transform="matrix(1.25 0 0 1.25 187.41 434.77)">
   <g id="g3526" clip-path="url(#clipPath3528)"></g>
  </g>
  <g id="g3536" transform="matrix(1.25 0 0 1.25 187.41 434.77)">
   <g id="g3538" clip-path="url(#clipPath3540)">
    <g id="g3544" clip-path="url(#clipPath3546)"></g>
   </g>
  </g>
  <g id="g3552" transform="matrix(1.25 0 0 1.25 187.41 434.77)"></g>
  <g id="g3556" transform="matrix(1.25 0 0 1.25 187.41 434.77)">
   <g id="g3558" clip-path="url(#clipPath3560)"></g>
  </g>
  <g id="g3568" transform="matrix(1.25 0 0 1.25 187.41 434.77)">
   <g id="g3570" clip-path="url(#clipPath3572)">
    <g id="g3576" clip-path="url(#clipPath3578)"></g>
   </g>
  </g>
  <g id="g3584" transform="matrix(1.25 0 0 1.25 187.41 434.77)"></g>
  <g id="g3588" transform="matrix(1.25 0 0 1.25 187.41 434.77)">
   <g id="g3590" clip-path="url(#clipPath3592)"></g>
  </g>
  <g id="g3600" transform="matrix(1.25 0 0 1.25 187.41 434.77)">
   <g id="g3602" clip-path="url(#clipPath3604)">
    <g id="g3608" clip-path="url(#clipPath3610)"></g>
   </g>
  </g>
  <g id="g3616" transform="matrix(1.25 0 0 1.25 187.41 434.77)"></g>
  <g id="g3620" transform="matrix(1.25 0 0 1.25 187.41 434.77)">
   <g id="g3622" clip-path="url(#clipPath3624)"></g>
  </g>
  <g id="g3632" transform="matrix(1.25 0 0 1.25 187.41 434.77)">
   <g id="g3634" clip-path="url(#clipPath3636)">
    <g id="g3640" clip-path="url(#clipPath3642)"></g>
   </g>
  </g>
  <g id="g3670" transform="matrix(1.25 0 0 1.25 -220.07 314.18)">
   <path id="path3672" d="m637 194.4v14.6 2.42" stroke="#000" stroke-miterlimit="10" fill="none"/>
  </g>
  <g id="g3674" transform="matrix(1.25 0 0 1.25 -220.69 313.55)">
   <path id="path3676" d="m637.5 215.7-2.52-5.04 2.52 1.26 2.52-1.26-2.52 5.04z"/>
  </g>
  <g id="g3678" transform="matrix(1.25 0 0 1.25 -220.07 314.18)">
   <path id="path3680" d="m637 215.2-2.52-5.04 2.52 1.26 2.52-1.26l-2.52 5.04z" stroke="#000" stroke-miterlimit="10" fill="none"/>
  </g>
  <g id="g3686" transform="matrix(1.25 0 0 1.25 -220.69 313.55)">
   <path id="path3688" d="m619.34 173.3h36.72c1.7894 0 3.24 1.4506 3.24 3.24v15.12c0 1.7894-1.4506 3.24-3.24 3.24h-36.72c-1.7894 0-3.24-1.4506-3.24-3.24v-15.12c0-1.7894 1.4506-3.24 3.24-3.24z" fill="#fff"/>
  </g>
  <g id="g3690" transform="matrix(1.25 0 0 1.25 -220.07 314.18)">
   <path id="path3692" d="m618.84 172.8h36.72c1.7894 0 3.24 1.4506 3.24 3.24v15.12c0 1.7894-1.4506 3.24-3.24 3.24h-36.72c-1.7894 0-3.24-1.4506-3.24-3.24v-15.12c0-1.7894 1.4506-3.24 3.24-3.24z" stroke="#000" stroke-miterlimit="10" fill="none"/>
  </g>
  <g id="g3696" transform="matrix(0.9 0 0 0.9 558.06 533.55)"></g>
  <g id="g3700" transform="matrix(1.25 0 0 1.25 -220.69 313.55)" stroke="#fff" stroke-width=".16">
   <path id="path3702" d="m623.56 182.28h0.75094v0.64125c0.18-0.22219 0.34313-0.38391 0.48938-0.48516 0.25031-0.17156 0.53437-0.25734 0.85218-0.25734 0.36 0 0.64969 0.0886 0.86907 0.26578 0.12375 0.10125 0.23625 0.25031 0.3375 0.44719 0.16875-0.24188 0.36703-0.42118 0.59484-0.53789 0.22781-0.11672 0.48375-0.17508 0.76781-0.17508 0.6075 0 1.0209 0.21937 1.2403 0.65812 0.11813 0.23625 0.17719 0.55406 0.17719 0.95344v3.008h-0.7889v-3.1388c0-0.30094-0.0752-0.50766-0.22571-0.62016-0.15047-0.1125-0.33398-0.16875-0.55054-0.16875-0.29813 0-0.55477 0.0999-0.76993 0.29953-0.21515 0.19969-0.32273 0.53297-0.32273 0.99985v2.6283h-0.77203v-2.9489c0-0.30656-0.0366-0.53015-0.10969-0.67078-0.11531-0.21094-0.33047-0.31641-0.64547-0.31641-0.28687 0-0.54773 0.1111-0.78258 0.33329-0.23484 0.22218-0.35226 0.62437-0.35226 1.2066v2.3962h-0.75938v-4.5183zm8.0114 3.8348c0.16031 0.12656 0.35016 0.18984 0.56953 0.18984 0.26719 0 0.52594-0.0619 0.77625-0.18562 0.42188-0.20531 0.63281-0.54141 0.63281-1.0083v-0.61172c-0.0928 0.0591-0.21234 0.10828-0.35859 0.14766-0.14625 0.0394-0.28969 0.0675-0.43031 0.0844l-0.45985 0.0591c-0.27562 0.0366-0.48234 0.0942-0.62015 0.17297-0.23344 0.13219-0.35016 0.34313-0.35016 0.63281 0 0.21938 0.0802 0.39235 0.24047 0.51891zm1.5989-2.0545c0.17437-0.0225 0.29109-0.0956 0.35015-0.21938 0.0338-0.0675 0.0506-0.16453 0.0506-0.29109 0-0.25875-0.0921-0.44648-0.27633-0.5632-0.18422-0.11672-0.44789-0.17508-0.79102-0.17508-0.39656 0-0.67781 0.10687-0.84375 0.32062-0.0928 0.11813-0.15328 0.29391-0.1814 0.52735h-0.70875c0.0141-0.55688 0.19476-0.9443 0.54211-1.1623 0.34734-0.21797 0.75023-0.32695 1.2087-0.32695 0.53156 0 0.96328 0.10125 1.2952 0.30375 0.32907 0.2025 0.4936 0.5175 0.4936 0.945v2.603c0 0.0787 0.0162 0.14203 0.0485 0.18984 0.0323 0.0478 0.10055 0.0717 0.20461 0.0717 0.0338 0 0.0717-0.002 0.11391-0.006 0.0422-0.004 0.0872-0.0105 0.135-0.019v0.56109c-0.11813 0.0337-0.20813 0.0549-0.27 0.0633-0.0619 0.008-0.14625 0.0127-0.25312 0.0127-0.26157 0-0.45141-0.0928-0.56954-0.27844-0.0619-0.0984-0.10547-0.23765-0.13078-0.41765-0.15469 0.2025-0.37687 0.37828-0.66656 0.52734s-0.60891 0.22359-0.95766 0.22359c-0.41906 0-0.76148-0.12726-1.0273-0.38179-0.26578-0.25453-0.39867-0.57305-0.39867-0.95555 0-0.41906 0.13078-0.74391 0.39234-0.97453 0.26156-0.23063 0.60469-0.37266 1.0294-0.4261l1.2108-0.15187zm2.8336 1.3205c0.0225 0.25312 0.0858 0.44719 0.18984 0.58219 0.19125 0.24468 0.52313 0.36703 0.99563 0.36703 0.28125 0 0.52875-0.0612 0.7425-0.18352 0.21375-0.12234 0.32062-0.31148 0.32062-0.56742 0-0.19406-0.0858-0.34172-0.25734-0.44297-0.10969-0.0619-0.32625-0.13359-0.64969-0.21516l-0.60328-0.15187c-0.38531-0.0956-0.66937-0.2025-0.85219-0.32063-0.32625-0.20531-0.48937-0.48937-0.48937-0.85218 0-0.4275 0.15398-0.77344 0.46195-1.0378 0.30797-0.26437 0.72211-0.39656 1.2424-0.39656 0.68063 0 1.1714 0.19969 1.4724 0.59906 0.18843 0.25313 0.27984 0.52594 0.27422 0.81844h-0.71719c-0.0141-0.17156-0.0745-0.32765-0.18141-0.46828-0.17437-0.19969-0.47672-0.29953-0.90703-0.29953-0.28687 0-0.50414 0.0548-0.6518 0.16453-0.14765 0.10969-0.22148 0.25453-0.22148 0.43453 0 0.19688 0.097 0.35438 0.29109 0.4725 0.1125 0.0703 0.27844 0.13219 0.49782 0.18563l0.50203 0.12234c0.54562 0.13219 0.91125 0.26016 1.0969 0.38391 0.29531 0.19406 0.44297 0.49922 0.44297 0.91547 0 0.40218-0.15258 0.74953-0.45773 1.042-0.30516 0.2925-0.76993 0.43875-1.3943 0.43875-0.67219 0-1.1482-0.15258-1.428-0.45774-0.27984-0.30515-0.42961-0.68273-0.44929-1.1327h0.72984zm4.0205-4.3622h0.76781v1.2614h0.72141v0.62015h-0.72141v2.9489c0 0.1575 0.0534 0.26297 0.16031 0.31641 0.0591 0.0309 0.1575 0.0464 0.29532 0.0464 0.0366 0 0.0759-0.0007 0.11812-0.002 0.0422-0.001 0.0914-0.005 0.14766-0.0105v0.59906c-0.0872 0.0253-0.17789 0.0436-0.27211 0.0548-0.0942 0.0113-0.19617 0.0169-0.30586 0.0169-0.35438 0-0.59485-0.0907-0.72141-0.27211s-0.18984-0.41696-0.18984-0.70664v-2.9911h-0.61172v-0.62015h0.61172v-1.2614zm5.0583 1.3859c0.30094 0.15047 0.53016 0.34523 0.68766 0.5843 0.15187 0.22781 0.25312 0.49359 0.30375 0.79734 0.045 0.20813 0.0675 0.54 0.0675 0.99563h-3.3117c0.0141 0.45843 0.12234 0.82617 0.32484 1.1032s0.51609 0.41555 0.94078 0.41555c0.39657 0 0.71297-0.13079 0.94922-0.39235 0.135-0.15187 0.23063-0.32765 0.28688-0.52734h0.74671c-0.0197 0.16594-0.0851 0.35086-0.19617 0.55476-0.11109 0.20391-0.23554 0.37055-0.37336 0.49993-0.23062 0.225-0.51609 0.37687-0.8564 0.45562-0.18282 0.045-0.38953 0.0675-0.62016 0.0675-0.5625 0-1.0392-0.20461-1.4302-0.61383-0.39094-0.40922-0.58641-0.98226-0.58641-1.7191 0-0.72562 0.19687-1.3148 0.59062-1.7676 0.39375-0.45282 0.90844-0.67922 1.5441-0.67922 0.32062 0 0.6314 0.0752 0.93234 0.2257zm0.27844 1.774c-0.0309-0.32906-0.10266-0.59203-0.21516-0.7889-0.20812-0.36563-0.55547-0.54844-1.042-0.54844-0.34875 0-0.64125 0.12586-0.8775 0.37758s-0.36141 0.57164-0.37547 0.95976h2.5102zm1.7325-1.8984h0.7214v0.78047c0.0591-0.15188 0.20391-0.3368 0.43453-0.55477 0.23063-0.21797 0.49641-0.32695 0.79735-0.32695 0.0141 0 0.038 0.001 0.0717 0.004 0.0338 0.003 0.0914 0.008 0.17297 0.0169v0.80156c-0.045-0.008-0.0865-0.0141-0.12446-0.0169-0.038-0.003-0.0795-0.004-0.12445-0.004-0.3825 0-0.67641 0.12305-0.88172 0.36914s-0.30797 0.52945-0.30797 0.85008v2.5988h-0.75937v-4.5183z" stroke="#fff" stroke-width=".16"/>
  </g>
  <g id="g3704" transform="matrix(0.9 0 0 0.9 558.06 533.55)"></g>
  <g id="g3710" transform="matrix(1.25 0 0 1.25 -220.07 314.18)">
   <path id="path3712" d="m604.8 230.4h-38.62" stroke="#000" stroke-miterlimit="10" fill="none"/>
  </g>
  <g id="g3714" transform="matrix(1.25 0 0 1.25 -220.69 313.55)">
   <path id="path3716" d="m562.9 230.9 5.04-2.52l-1.26 2.52 1.26 2.52-5.04-2.52z"/>
  </g>
  <g id="g3718" transform="matrix(1.25 0 0 1.25 -220.07 314.18)">
   <path id="path3720" d="m562.4 230.4 5.04-2.52l-1.26 2.52 1.26 2.52-5.04-2.52z" stroke="#000" stroke-miterlimit="10" fill="none"/>
  </g>
  <g id="g3726" transform="matrix(1.25 0 0 1.25 -220.69 313.55)">
   <path id="path3728" d="m609.62 216.5h56.16c2.3859 0 4.32 1.9341 4.32 4.32v20.16c0 2.3859-1.9342 4.32-4.32 4.32h-56.16c-2.3859 0-4.32-1.9341-4.32-4.32v-20.16c0-2.3859 1.9341-4.32 4.32-4.32z" fill="url(#linearGradient6109)"/>
  </g>
  <g id="g3730" transform="matrix(1.25 0 0 1.25 -220.07 314.18)">
   <path id="path3732" d="m609.12 216h56.16c2.3859 0 4.32 1.9341 4.32 4.32v20.16c0 2.3859-1.9342 4.32-4.32 4.32h-56.16c-2.3859 0-4.32-1.9341-4.32-4.32v-20.16c0-2.3859 1.9341-4.32 4.32-4.32z" stroke="#000" stroke-miterlimit="10" fill="none"/>
  </g>
  <g id="g3736" transform="matrix(0.9 0 0 0.9 545.56 593.55)"></g>
  <g id="g3740" transform="matrix(1.25 0 0 1.25 -220.69 313.55)" stroke="#fff" stroke-width=".16">
   <path id="path3742" d="m614.58 232.83c-0.40254-0.49043-0.60381-1.0872-0.60381-1.7903h0.9914c0.0422 0.48867 0.1336 0.84375 0.27422 1.0652 0.2461 0.39727 0.69082 0.5959 1.3342 0.5959 0.49922 0 0.9-0.13359 1.2024-0.40078 0.30234-0.26719 0.45351-0.61172 0.45351-1.0336 0-0.52031-0.15908-0.88417-0.47724-1.0916-0.31817-0.20742-0.76026-0.31113-1.3263-0.31113-0.0633 0-0.12745 0.00088-0.19248 0.003-0.065 0.002-0.13096 0.004-0.19776 0.008v-0.83848c0.0984 0.0106 0.18106 0.0176 0.24785 0.0211 0.0668 0.004 0.13887 0.005 0.21621 0.005 0.35508 0 0.64688-0.0563 0.8754-0.16875 0.40078-0.19688 0.60117-0.54844 0.60117-1.0547 0-0.37617-0.1336-0.66621-0.40078-0.87012-0.26719-0.2039-0.57832-0.30586-0.9334-0.30586-0.63281 0-1.0705 0.21094-1.3131 0.63282-0.13359 0.23203-0.20918 0.5625-0.22676 0.9914h-0.93867c0-0.5625 0.1125-1.0406 0.3375-1.4344 0.38672-0.70313 1.067-1.0547 2.0408-1.0547 0.76992 0 1.3658 0.17139 1.7877 0.51416 0.42187 0.34277 0.63281 0.83936 0.63281 1.4898 0 0.46406-0.12481 0.84023-0.37441 1.1285-0.15469 0.1793-0.35508 0.31992-0.60118 0.42188 0.39727 0.10898 0.70752 0.31904 0.93076 0.63017 0.22325 0.31113 0.33487 0.6917 0.33487 1.1417 0 0.7207-0.23731 1.3078-0.71192 1.7613-0.4746 0.45351-1.1478 0.68027-2.0197 0.68027-0.89297 0-1.5407-0.24521-1.9433-0.73564zm5.9962 0c-0.40254-0.49043-0.60381-1.0872-0.60381-1.7903h0.9914c0.0422 0.48867 0.1336 0.84375 0.27422 1.0652 0.2461 0.39727 0.69082 0.5959 1.3342 0.5959 0.49922 0 0.9-0.13359 1.2024-0.40078 0.30234-0.26719 0.45351-0.61172 0.45351-1.0336 0-0.52031-0.15908-0.88417-0.47725-1.0916-0.31816-0.20742-0.76025-0.31113-1.3263-0.31113-0.0633 0-0.12744 0.00088-0.19248 0.003-0.065 0.002-0.13096 0.004-0.19776 0.008v-0.83848c0.0984 0.0106 0.18106 0.0176 0.24785 0.0211 0.0668 0.004 0.13887 0.005 0.21621 0.005 0.35508 0 0.64688-0.0563 0.87539-0.16875 0.40079-0.19688 0.60118-0.54844 0.60118-1.0547 0-0.37617-0.1336-0.66621-0.40078-0.87012-0.26719-0.2039-0.57832-0.30586-0.9334-0.30586-0.63282 0-1.0705 0.21094-1.3131 0.63282-0.13359 0.23203-0.20918 0.5625-0.22676 0.9914h-0.93867c0-0.5625 0.1125-1.0406 0.3375-1.4344 0.38672-0.70313 1.067-1.0547 2.0408-1.0547 0.76992 0 1.3658 0.17139 1.7877 0.51416 0.42187 0.34277 0.63281 0.83936 0.63281 1.4898 0 0.46406-0.12481 0.84023-0.37441 1.1285-0.15469 0.1793-0.35508 0.31992-0.60118 0.42188 0.39727 0.10898 0.70752 0.31904 0.93076 0.63017 0.22325 0.31113 0.33487 0.6917 0.33487 1.1417 0 0.7207-0.23731 1.3078-0.71192 1.7613-0.47461 0.45351-1.1478 0.68027-2.0197 0.68027-0.89297 0-1.5407-0.24521-1.9433-0.73564zm10.175-5.814c0.33749 0.62227 0.50624 1.4748 0.50624 2.5576 0 1.0266-0.15293 1.8756-0.45878 2.5471-0.44297 0.96328-1.1672 1.4449-2.1727 1.4449-0.90703 0-1.582-0.39375-2.025-1.1812-0.36914-0.65742-0.55371-1.5398-0.55371-2.6473 0-0.85782 0.11074-1.5943 0.33222-2.2096 0.41485-1.1461 1.1654-1.7191 2.2518-1.7191 0.97735 0 1.684 0.40254 2.1199 1.2076zm-0.9545 5.0309c0.2918-0.43593 0.4377-1.248 0.4377-2.4363 0-0.85781-0.10547-1.5636-0.31641-2.1173-0.21094-0.55371-0.62051-0.83057-1.2287-0.83057-0.55898 0-0.96767 0.2628-1.2261 0.78838-0.2584 0.52559-0.3876 1.2999-0.3876 2.323 0 0.76992 0.0826 1.3887 0.24785 1.8562 0.25313 0.71367 0.68555 1.0705 1.2973 1.0705 0.49218 0 0.88418-0.21797 1.176-0.65391zm2.9429-4.0342v-0.72773c0.68555-0.0668 1.1637-0.17842 1.4344-0.33486 0.2707-0.15645 0.47285-0.52647 0.60644-1.1101h0.74883v7.5199h-1.0125v-5.3473h-1.7772zm5.7036 3.6492c0.23379-0.48164 0.68994-0.91933 1.3684-1.3131l1.0125-0.58536c0.45352-0.26367 0.77168-0.48867 0.9545-0.675 0.28828-0.29179 0.43242-0.62578 0.43242-1.002 0-0.43945-0.13184-0.78838-0.39551-1.0468-0.26367-0.25839-0.61523-0.38759-1.0547-0.38759-0.65039 0-1.1004 0.24609-1.35 0.73828-0.13359 0.26367-0.20742 0.62929-0.22148 1.0969h-0.96504c0.0105-0.65742 0.13183-1.1936 0.36387-1.6084 0.41132-0.73126 1.1373-1.0969 2.1779-1.0969 0.86485 0 1.4968 0.23379 1.8958 0.70137 0.39902 0.46757 0.59853 0.98789 0.59853 1.5609 0 0.60469-0.21269 1.1215-0.63809 1.5504-0.24609 0.24961-0.6873 0.55196-1.3236 0.90704l-0.72246 0.40078c-0.34453 0.18984-0.61523 0.3709-0.81211 0.54316-0.35156 0.30586-0.57304 0.64512-0.66445 1.0178h4.1238v0.89649h-5.1838c0.0351-0.65039 0.16963-1.2164 0.40342-1.698zm9.6824-3.6492c0.39902 0.30938 0.63896 0.842 0.71982 1.5978h-0.92285c-0.0562-0.34804-0.18457-0.6372-0.38496-0.86748-0.20039-0.23027-0.52207-0.34541-0.96504-0.34541-0.60469 0-1.0371 0.29532-1.2973 0.88594-0.16875 0.3832-0.25313 0.85606-0.25313 1.4186 0 0.56601 0.11953 1.0424 0.3586 1.4291 0.23906 0.38672 0.61523 0.58008 1.1285 0.58008 0.39375 0 0.70576-0.12041 0.93603-0.36123 0.23028-0.24082 0.38936-0.57041 0.47725-0.98877h0.92285c-0.10547 0.74882-0.36914 1.2964-0.79101 1.6427-0.42188 0.34629-0.96153 0.51944-1.619 0.51944-0.73828 0-1.3272-0.26983-1.7666-0.80948-0.43945-0.53965-0.65918-1.2138-0.65918-2.0224 0-0.99141 0.24082-1.7631 0.72246-2.315 0.48164-0.55195 1.0951-0.82793 1.8404-0.82793 0.63633 0 1.154 0.15469 1.553 0.46406zm4.8911 0.60909c0.23555-0.23379 0.35332-0.51241 0.35332-0.83584 0-0.28125-0.1125-0.53965-0.3375-0.7752s-0.56777-0.35332-1.0283-0.35332c-0.45703 0-0.7875 0.11777-0.9914 0.35332-0.20391 0.23555-0.30586 0.51152-0.30586 0.82793 0 0.35508 0.13183 0.63281 0.3955 0.8332 0.26368 0.20039 0.57481 0.30059 0.9334 0.30059 0.41836 0 0.74532-0.1169 0.98086-0.35068zm0.17139 3.7336c0.29004-0.23731 0.43506-0.59151 0.43506-1.0626 0-0.48867-0.14942-0.85957-0.44825-1.1127-0.29882-0.25313-0.68203-0.37969-1.1496-0.37969-0.45352 0-0.82354 0.1292-1.1101 0.3876-0.28653 0.25839-0.42979 0.61611-0.42979 1.0731 0 0.39375 0.13096 0.73389 0.39287 1.0204 0.26192 0.28652 0.66709 0.42979 1.2155 0.42979 0.43945 0 0.8042-0.11866 1.0942-0.35596zm-3.0612-3.4146c-0.27774-0.28125-0.4166-0.64688-0.4166-1.0969 0-0.5625 0.2039-1.0459 0.61171-1.4502 0.40782-0.4043 0.98614-0.60645 1.735-0.60645 0.72422 0 1.292 0.19073 1.7033 0.57217 0.41133 0.38145 0.61699 0.82705 0.61699 1.3368 0 0.47109-0.11953 0.85254-0.3586 1.1443-0.13359 0.16524-0.34101 0.32696-0.62226 0.48516 0.31289 0.14414 0.55898 0.30937 0.73828 0.4957 0.33398 0.35156 0.50098 0.8086 0.50098 1.3711 0 0.66445-0.22325 1.2278-0.66973 1.6901-0.44648 0.46231-1.0775 0.69346-1.8932 0.69346-0.73477 0-1.3562-0.19951-1.8642-0.59854-0.50801-0.39902-0.76202-0.97822-0.76202-1.7376 0-0.44649 0.10899-0.83233 0.32696-1.1575 0.21797-0.3252 0.5414-0.57393 0.97031-0.74619-0.26367-0.1125-0.46934-0.24434-0.61699-0.39551zm5.7088 2.7211c0.23378-0.48164 0.68994-0.91933 1.3684-1.3131l1.0125-0.58536c0.45352-0.26367 0.77168-0.48867 0.9545-0.675 0.28828-0.29179 0.43242-0.62578 0.43242-1.002 0-0.43945-0.13184-0.78838-0.39551-1.0468-0.26367-0.25839-0.61524-0.38759-1.0547-0.38759-0.65039 0-1.1004 0.24609-1.35 0.73828-0.13359 0.26367-0.20742 0.62929-0.22148 1.0969h-0.96504c0.0105-0.65742 0.13183-1.1936 0.36387-1.6084 0.41132-0.73126 1.1373-1.0969 2.1779-1.0969 0.86485 0 1.4968 0.23379 1.8958 0.70137 0.39903 0.46757 0.59854 0.98789 0.59854 1.5609 0 0.60469-0.2127 1.1215-0.63809 1.5504-0.24609 0.24961-0.6873 0.55196-1.3236 0.90704l-0.72246 0.40078c-0.34453 0.18984-0.61523 0.3709-0.81211 0.54316-0.35156 0.30586-0.57305 0.64512-0.66445 1.0178h4.1238v0.89649h-5.1838c0.0352-0.65039 0.16963-1.2164 0.40342-1.698z" stroke="#fff" stroke-width=".16"/>
  </g>
  <g id="g3744" transform="matrix(0.9 0 0 0.9 545.56 593.55)"></g>
  <g id="g3750" transform="matrix(1.25 0 0 1.25 -220.07 314.18)">
   <path id="path3752" d="m496.8 230.4h-38.62" stroke="#000" stroke-miterlimit="10" fill="none"/>
  </g>
  <g id="g3754" transform="matrix(1.25 0 0 1.25 -220.69 313.55)">
   <path id="path3756" d="m454.9 230.9 5.04-2.52l-1.26 2.52 1.26 2.52-5.04-2.52z"/>
  </g>
  <g id="g3758" transform="matrix(1.25 0 0 1.25 -220.07 314.18)">
   <path id="path3760" d="m454.4 230.4 5.04-2.52l-1.26 2.52 1.26 2.52-5.04-2.52z" stroke="#000" stroke-miterlimit="10" fill="none"/>
  </g>
  <g id="g3766" transform="matrix(1.25 0 0 1.25 -220.69 313.55)">
   <path id="path3768" d="m501.62 216.5h56.16c2.3859 0 4.32 1.9341 4.32 4.32v20.16c0 2.3859-1.9342 4.32-4.32 4.32h-56.16c-2.3859 0-4.32-1.9341-4.32-4.32v-20.16c0-2.3859 1.9341-4.32 4.32-4.32z" fill="url(#linearGradient6073)"/>
  </g>
  <g id="g3770" transform="matrix(1.25 0 0 1.25 -220.07 314.18)">
   <path id="path3772" d="m501.12 216h56.16c2.3859 0 4.32 1.9341 4.32 4.32v20.16c0 2.3859-1.9342 4.32-4.32 4.32h-56.16c-2.3859 0-4.32-1.9341-4.32-4.32v-20.16c0-2.3859 1.9341-4.32 4.32-4.32z" stroke="#000" stroke-miterlimit="10" fill="none"/>
  </g>
  <g id="g3776" transform="matrix(0.9 0 0 0.9 413.06 593.55)"></g>
  <g id="g3780" transform="matrix(1.25 0 0 1.25 -220.69 313.55)" stroke="#fff" stroke-width=".16">
   <path id="path3782" d="m512.15 228.01c0.39902 0.30938 0.63897 0.842 0.71982 1.5978h-0.92285c-0.0563-0.34804-0.18457-0.6372-0.38496-0.86748-0.20039-0.23027-0.52207-0.34541-0.96504-0.34541-0.60469 0-1.0371 0.29532-1.2973 0.88594-0.16875 0.3832-0.25313 0.85606-0.25313 1.4186 0 0.56601 0.11953 1.0424 0.3586 1.4291 0.23906 0.38672 0.61523 0.58008 1.1285 0.58008 0.39375 0 0.70576-0.12041 0.93604-0.36123 0.23027-0.24082 0.38935-0.57041 0.47724-0.98877h0.92285c-0.10546 0.74882-0.36914 1.2964-0.79101 1.6427-0.42188 0.34629-0.96153 0.51944-1.619 0.51944-0.73828 0-1.3271-0.26983-1.7666-0.80948-0.43945-0.53965-0.65918-1.2138-0.65918-2.0224 0-0.99141 0.24082-1.7631 0.72246-2.315 0.48164-0.55195 1.0951-0.82793 1.8404-0.82793 0.63633 0 1.154 0.15469 1.553 0.46406zm5.4 0c0.39902 0.30938 0.63896 0.842 0.71982 1.5978h-0.92285c-0.0562-0.34804-0.18457-0.6372-0.38496-0.86748-0.20039-0.23027-0.52207-0.34541-0.96504-0.34541-0.60468 0-1.0371 0.29532-1.2973 0.88594-0.16875 0.3832-0.25313 0.85606-0.25313 1.4186 0 0.56601 0.11953 1.0424 0.3586 1.4291 0.23906 0.38672 0.61523 0.58008 1.1285 0.58008 0.39375 0 0.70576-0.12041 0.93604-0.36123 0.23027-0.24082 0.38935-0.57041 0.47724-0.98877h0.92285c-0.10547 0.74882-0.36914 1.2964-0.79101 1.6427-0.42188 0.34629-0.96152 0.51944-1.619 0.51944-0.73828 0-1.3272-0.26983-1.7666-0.80948-0.43945-0.53965-0.65918-1.2138-0.65918-2.0224 0-0.99141 0.24082-1.7631 0.72246-2.315 0.48164-0.55195 1.0951-0.82793 1.8404-0.82793 0.63633 0 1.154 0.15469 1.553 0.46406zm2.112-2.025c0.22149-0.32343 0.64863-0.48515 1.2814-0.48515 0.0598 0 0.12129 0.002 0.18457 0.005 0.0633 0.004 0.13535 0.009 0.21621 0.0158v0.86484c-0.0984-0.007-0.16963-0.0114-0.21358-0.0132-0.0439-0.002-0.0852-0.003-0.12392-0.003-0.28828 0-0.46055 0.0747-0.5168 0.22413-0.0562 0.14941-0.0844 0.52998-0.0844 1.1417h0.93867v0.74883h-0.94922v4.8727h-0.93867v-4.8727h-0.78575v-0.74883h0.78575v-0.88593c0.0141-0.39375 0.0826-0.68203 0.20566-0.86485zm3.1876 5.4475c0.0633 0.54141 0.31465 0.91583 0.7541 1.1232 0.225 0.10546 0.48516 0.1582 0.78047 0.1582 0.5625 0 0.9791-0.1793 1.2498-0.53789 0.27071-0.3586 0.40606-0.75586 0.40606-1.1918 0-0.52734-0.16084-0.93515-0.48252-1.2234-0.32168-0.28828-0.70752-0.43242-1.1575-0.43242-0.32695 0-0.60732 0.0633-0.84111 0.18985-0.23379 0.12656-0.43331 0.30234-0.59854 0.52734l-0.82266-0.0475 0.57481-4.0658h3.9234v0.91758h-3.2115l-0.32168 2.0988c0.17579-0.1336 0.34278-0.23379 0.50098-0.30059 0.28125-0.11602 0.60644-0.17402 0.97559-0.17402 0.69257 0 1.2797 0.22324 1.7613 0.66972 0.48165 0.44649 0.72246 1.0125 0.72246 1.698 0 0.71367-0.2206 1.343-0.66181 1.8879-0.44121 0.54492-1.1452 0.81738-2.112 0.81738-0.61524 0-1.1593-0.17314-1.6321-0.51943-0.47285-0.34629-0.7374-0.87803-0.79365-1.5952h0.98613zm10.31-5.5002v0.82793c-0.24258 0.23555-0.56514 0.64512-0.96768 1.2287-0.40253 0.58359-0.75849 1.2129-1.0679 1.8879-0.30586 0.65742-0.53789 1.2568-0.69609 1.7982-0.10195 0.34805-0.23379 0.90879-0.39551 1.6822h-1.0494c0.23906-1.4414 0.7664-2.8758 1.582-4.3031 0.48164-0.83671 0.98789-1.5592 1.5188-2.1674h-4.1766v-0.95449h5.2523zm2.0728 6.5707c0.20039 0.1582 0.4377 0.23731 0.71192 0.23731 0.33398 0 0.65742-0.0773 0.97031-0.23203 0.52734-0.25665 0.79101-0.67676 0.79101-1.2604v-0.76464c-0.11601 0.0738-0.26543 0.13535-0.44824 0.18457-0.18281 0.0492-0.36211 0.0844-0.53789 0.10546l-0.5748 0.0738c-0.34453 0.0457-0.60293 0.11778-0.7752 0.21621-0.29179 0.16524-0.43769 0.42891-0.43769 0.79102 0 0.27422 0.10019 0.49043 0.30058 0.64863zm1.9986-2.5682c0.21796-0.0281 0.36386-0.11953 0.43769-0.27422 0.0422-0.0844 0.0633-0.20566 0.0633-0.36387 0-0.32344-0.11513-0.5581-0.34541-0.704-0.23027-0.1459-0.55986-0.21885-0.98877-0.21885-0.4957 0-0.84726 0.13359-1.0547 0.40078-0.11601 0.14766-0.1916 0.36738-0.22675 0.65918h-0.88594c0.0176-0.69609 0.24346-1.1804 0.67764-1.4528 0.43418-0.27246 0.93779-0.40869 1.5108-0.40869 0.66445 0 1.2041 0.12656 1.6189 0.37969 0.41133 0.25312 0.61699 0.64687 0.61699 1.1812v3.2537c0 0.0984 0.0202 0.17754 0.0607 0.2373 0.0404 0.0598 0.12568 0.0897 0.25576 0.0897 0.0422 0 0.0897-0.003 0.14238-0.008 0.0527-0.005 0.10899-0.0132 0.16875-0.0237v0.70137c-0.14765 0.0422-0.26015 0.0685-0.3375 0.0791-0.0773 0.0105-0.18281 0.0158-0.3164 0.0158-0.32696 0-0.56426-0.11602-0.71192-0.34805-0.0773-0.12305-0.13183-0.29707-0.16348-0.52207-0.19335 0.25313-0.47109 0.47285-0.8332 0.65918s-0.76113 0.27949-1.1971 0.27949c-0.52383 0-0.95185-0.15908-1.2841-0.47724-0.33223-0.31817-0.49834-0.71631-0.49834-1.1944 0-0.52382 0.16348-0.92988 0.49043-1.2182 0.32695-0.28828 0.75586-0.46582 1.2867-0.53262l1.5135-0.18984zm6.7002-1.9248c0.39902 0.30938 0.63896 0.842 0.71982 1.5978h-0.92285c-0.0562-0.34804-0.18457-0.6372-0.38496-0.86748-0.20039-0.23027-0.52207-0.34541-0.96504-0.34541-0.60469 0-1.0371 0.29532-1.2973 0.88594-0.16875 0.3832-0.25313 0.85606-0.25313 1.4186 0 0.56601 0.11953 1.0424 0.3586 1.4291 0.23906 0.38672 0.61523 0.58008 1.1285 0.58008 0.39375 0 0.70576-0.12041 0.93603-0.36123 0.23028-0.24082 0.38936-0.57041 0.47725-0.98877h0.92285c-0.10547 0.74882-0.36914 1.2964-0.79101 1.6427-0.42188 0.34629-0.96153 0.51944-1.619 0.51944-0.73828 0-1.3272-0.26983-1.7666-0.80948-0.43945-0.53965-0.65918-1.2138-0.65918-2.0224 0-0.99141 0.24082-1.7631 0.72246-2.315 0.48164-0.55195 1.0951-0.82793 1.8404-0.82793 0.63633 0 1.154 0.15469 1.553 0.46406zm2.3071 3.4225c0.0633 0.54141 0.31465 0.91583 0.7541 1.1232 0.225 0.10546 0.48516 0.1582 0.78047 0.1582 0.5625 0 0.9791-0.1793 1.2498-0.53789 0.27071-0.3586 0.40606-0.75586 0.40606-1.1918 0-0.52734-0.16084-0.93515-0.48252-1.2234-0.32168-0.28828-0.70752-0.43242-1.1575-0.43242-0.32696 0-0.60733 0.0633-0.84112 0.18985-0.23378 0.12656-0.4333 0.30234-0.59853 0.52734l-0.82266-0.0475 0.57481-4.0658h3.9234v0.91758h-3.2115l-0.32168 2.0988c0.17578-0.1336 0.34278-0.23379 0.50098-0.30059 0.28125-0.11602 0.60644-0.17402 0.97558-0.17402 0.69258 0 1.2797 0.22324 1.7613 0.66972 0.48164 0.44649 0.72246 1.0125 0.72246 1.698 0 0.71367-0.2206 1.343-0.66181 1.8879-0.44121 0.54492-1.1452 0.81738-2.112 0.81738-0.61524 0-1.1593-0.17314-1.6321-0.51943-0.47285-0.34629-0.73741-0.87803-0.79366-1.5952h0.98614z" stroke="#fff" stroke-width=".16"/>
  </g>
  <g id="g3784" transform="matrix(0.9 0 0 0.9 413.06 593.55)"></g>
  <g id="g3792" transform="matrix(1.25 0 0 1.25 -220.69 313.55)">
   <path id="path3794" d="m393.62 216.5h56.16c2.3859 0 4.32 1.9341 4.32 4.32v20.16c0 2.3859-1.9341 4.32-4.32 4.32h-56.16c-2.3859 0-4.32-1.9341-4.32-4.32v-20.16c0-2.3859 1.9341-4.32 4.32-4.32z" fill="url(#linearGradient5203)"/>
  </g>
  <g id="g3796" transform="matrix(1.25 0 0 1.25 -220.07 314.18)">
   <path id="path3798" d="m393.12 216h56.16c2.3859 0 4.32 1.9341 4.32 4.32v20.16c0 2.3859-1.9341 4.32-4.32 4.32h-56.16c-2.3859 0-4.32-1.9341-4.32-4.32v-20.16c0-2.3859 1.9341-4.32 4.32-4.32z" stroke="#000" stroke-miterlimit="10" fill="none"/>
  </g>
  <g id="g3802" transform="matrix(0.9 0 0 0.9 278.06 593.55)"></g>
  <g id="g3806" transform="matrix(1.25 0 0 1.25 -220.69 313.55)" stroke="#fff" stroke-width=".16">
   <path id="path3808" d="m400.68 232.12c0.25664 0.40781 0.66796 0.61172 1.234 0.61172 0.43945 0 0.80068-0.18897 1.0837-0.56689 0.28301-0.37793 0.42451-0.92022 0.42451-1.6269 0-0.71367-0.1459-1.2419-0.43769-1.5847-0.2918-0.34277-0.65215-0.51416-1.0811-0.51416-0.47812 0-0.86572 0.18281-1.1628 0.54844-0.29707 0.36562-0.44561 0.90352-0.44561 1.6137 0 0.60469 0.12832 1.1109 0.38497 1.5188zm2.1305-4.2346c0.16874 0.10547 0.36035 0.29004 0.5748 0.55371v-2.8529h0.9123v7.773h-0.85429v-0.78574c-0.22149 0.34804-0.4834 0.59941-0.78574 0.7541-0.30235 0.15469-0.64864 0.23203-1.0389 0.23203-0.6293 0-1.1742-0.26455-1.6348-0.79365-0.46055-0.5291-0.69082-1.2331-0.69082-2.112 0-0.82266 0.21006-1.5354 0.63018-2.1384 0.42012-0.60293 1.0204-0.9044 1.8009-0.9044 0.43242 0 0.79453 0.0914 1.0863 0.27422zm3.0458 4.9438c-0.40254-0.49043-0.60381-1.0872-0.60381-1.7903h0.9914c0.0422 0.48867 0.1336 0.84375 0.27422 1.0652 0.2461 0.39727 0.69082 0.5959 1.3342 0.5959 0.49922 0 0.9-0.13359 1.2024-0.40078 0.30234-0.26719 0.45351-0.61172 0.45351-1.0336 0-0.52031-0.15908-0.88417-0.47725-1.0916-0.31816-0.20742-0.76025-0.31113-1.3263-0.31113-0.0633 0-0.12745 0.00088-0.19248 0.003-0.065 0.002-0.13096 0.004-0.19776 0.008v-0.83848c0.0984 0.0106 0.18106 0.0176 0.24785 0.0211 0.0668 0.004 0.13887 0.005 0.21621 0.005 0.35508 0 0.64688-0.0563 0.87539-0.16875 0.40079-0.19688 0.60118-0.54844 0.60118-1.0547 0-0.37617-0.1336-0.66621-0.40079-0.87012-0.26718-0.2039-0.57832-0.30586-0.93339-0.30586-0.63282 0-1.0705 0.21094-1.3131 0.63282-0.13359 0.23203-0.20918 0.5625-0.22676 0.9914h-0.93867c0-0.5625 0.1125-1.0406 0.3375-1.4344 0.38672-0.70313 1.067-1.0547 2.0408-1.0547 0.76992 0 1.3658 0.17139 1.7877 0.51416 0.42187 0.34277 0.63281 0.83936 0.63281 1.4898 0 0.46406-0.12481 0.84023-0.37442 1.1285-0.15468 0.1793-0.35507 0.31992-0.60117 0.42188 0.39727 0.10898 0.70752 0.31904 0.93076 0.63017 0.22325 0.31113 0.33487 0.6917 0.33487 1.1417 0 0.7207-0.23731 1.3078-0.71192 1.7613-0.47461 0.45351-1.1478 0.68027-2.0197 0.68027-0.89297 0-1.5407-0.24521-1.9433-0.73564zm6.1676-4.8173v-0.72773c0.68555-0.0668 1.1637-0.17842 1.4344-0.33486 0.2707-0.15645 0.47285-0.52647 0.60644-1.1101h0.74883v7.5199h-1.0125v-5.3473h-1.7772zm10.611-2.0777v0.82793c-0.24258 0.23555-0.56514 0.64512-0.96768 1.2287-0.40254 0.58359-0.75849 1.2129-1.0679 1.8879-0.30586 0.65742-0.53789 1.2568-0.69609 1.7982-0.10195 0.34805-0.23379 0.90879-0.39551 1.6822h-1.0494c0.23906-1.4414 0.7664-2.8758 1.582-4.3031 0.48164-0.83671 0.98789-1.5592 1.5188-2.1674h-4.1766v-0.95449h5.2523zm1.2106 6.895c-0.40254-0.49043-0.60381-1.0872-0.60381-1.7903h0.9914c0.0422 0.48867 0.1336 0.84375 0.27422 1.0652 0.2461 0.39727 0.69082 0.5959 1.3342 0.5959 0.49922 0 0.9-0.13359 1.2023-0.40078 0.30235-0.26719 0.45352-0.61172 0.45352-1.0336 0-0.52031-0.15908-0.88417-0.47725-1.0916-0.31816-0.20742-0.76025-0.31113-1.3263-0.31113-0.0633 0-0.12744 0.00088-0.19248 0.003-0.065 0.002-0.13095 0.004-0.19775 0.008v-0.83848c0.0984 0.0106 0.18106 0.0176 0.24785 0.0211 0.0668 0.004 0.13887 0.005 0.21621 0.005 0.35508 0 0.64688-0.0563 0.87539-0.16875 0.40078-0.19688 0.60118-0.54844 0.60118-1.0547 0-0.37617-0.1336-0.66621-0.40079-0.87012-0.26718-0.2039-0.57832-0.30586-0.93339-0.30586-0.63282 0-1.0705 0.21094-1.3131 0.63282-0.13359 0.23203-0.20918 0.5625-0.22676 0.9914h-0.93867c0-0.5625 0.1125-1.0406 0.3375-1.4344 0.38672-0.70313 1.067-1.0547 2.0408-1.0547 0.76992 0 1.3658 0.17139 1.7877 0.51416 0.42187 0.34277 0.63281 0.83936 0.63281 1.4898 0 0.46406-0.12481 0.84023-0.37441 1.1285-0.15469 0.1793-0.35508 0.31992-0.60118 0.42188 0.39727 0.10898 0.70752 0.31904 0.93076 0.63017 0.22325 0.31113 0.33487 0.6917 0.33487 1.1417 0 0.7207-0.23731 1.3078-0.71192 1.7613-0.47461 0.45351-1.1478 0.68027-2.0197 0.68027-0.89297 0-1.5407-0.24521-1.9433-0.73564zm6.8584-0.32432c0.20039 0.1582 0.4377 0.23731 0.71192 0.23731 0.33398 0 0.65742-0.0773 0.97031-0.23203 0.52734-0.25665 0.79101-0.67676 0.79101-1.2604v-0.76464c-0.11601 0.0738-0.26543 0.13535-0.44824 0.18457-0.18281 0.0492-0.36211 0.0844-0.53789 0.10546l-0.5748 0.0738c-0.34453 0.0457-0.60293 0.11778-0.7752 0.21621-0.2918 0.16524-0.43769 0.42891-0.43769 0.79102 0 0.27422 0.10019 0.49043 0.30058 0.64863zm1.9986-2.5682c0.21797-0.0281 0.36387-0.11953 0.4377-0.27422 0.0422-0.0844 0.0633-0.20566 0.0633-0.36387 0-0.32344-0.11514-0.5581-0.34541-0.704s-0.55986-0.21885-0.98877-0.21885c-0.4957 0-0.84726 0.13359-1.0547 0.40078-0.11601 0.14766-0.1916 0.36738-0.22675 0.65918h-0.88594c0.0176-0.69609 0.24346-1.1804 0.67764-1.4528 0.43417-0.27246 0.93779-0.40869 1.5108-0.40869 0.66445 0 1.2041 0.12656 1.6189 0.37969 0.41133 0.25312 0.61699 0.64687 0.61699 1.1812v3.2537c0 0.0984 0.0202 0.17754 0.0606 0.2373 0.0404 0.0598 0.12568 0.0897 0.25576 0.0897 0.0422 0 0.0897-0.003 0.14238-0.008 0.0527-0.005 0.10899-0.0132 0.16875-0.0237v0.70137c-0.14765 0.0422-0.26015 0.0685-0.3375 0.0791-0.0773 0.0105-0.18281 0.0158-0.3164 0.0158-0.32696 0-0.56426-0.11602-0.71192-0.34805-0.0773-0.12305-0.13183-0.29707-0.16348-0.52207-0.19335 0.25313-0.47109 0.47285-0.8332 0.65918s-0.76113 0.27949-1.1971 0.27949c-0.52383 0-0.95185-0.15908-1.2841-0.47724-0.33223-0.31817-0.49834-0.71631-0.49834-1.1944 0-0.52382 0.16348-0.92988 0.49043-1.2182 0.32695-0.28828 0.75586-0.46582 1.2867-0.53262l1.5135-0.18984zm3.7076 1.5978c0.0281 0.52383 0.23028 0.88594 0.60645 1.0863 0.19336 0.10547 0.41133 0.1582 0.6539 0.1582 0.45352 0 0.84024-0.18896 1.1602-0.56689 0.31992-0.37793 0.54668-1.1452 0.68027-2.3019-0.21093 0.33398-0.47197 0.56865-0.7831 0.704-0.31113 0.13536-0.646 0.20303-1.0046 0.20303-0.72774 0-1.3034-0.22675-1.727-0.68027-0.42364-0.45352-0.63545-1.0371-0.63545-1.7508 0-0.68555 0.20918-1.2885 0.62754-1.8088 0.41836-0.52031 1.0354-0.78047 1.851-0.78047 1.1004 0 1.8598 0.4957 2.2781 1.4871 0.23203 0.54492 0.34805 1.227 0.34805 2.0461 0 0.92461-0.13887 1.7438-0.41661 2.4574-0.46054 1.1883-1.241 1.7824-2.3414 1.7824-0.73828 0-1.299-0.19336-1.6822-0.58008s-0.5748-0.87188-0.5748-1.4555h0.95976zm2.4706-1.9222c0.31113-0.24785 0.4667-0.68115 0.4667-1.2999 0-0.55547-0.13975-0.96943-0.41924-1.2419-0.27949-0.27246-0.63545-0.40869-1.0679-0.40869-0.46406 0-0.83233 0.15557-1.1048 0.4667-0.27246 0.31114-0.40869 0.72686-0.40869 1.2472 0 0.49219 0.11953 0.8833 0.35859 1.1733 0.23907 0.29004 0.62051 0.43506 1.1443 0.43506 0.37617 0 0.71982-0.12393 1.031-0.37178z" stroke="#fff" stroke-width=".16"/>
  </g>
  <g id="g3810" transform="matrix(0.9 0 0 0.9 278.06 593.55)"></g>
  <g id="g3816" transform="matrix(1.25 0 0 1.25 -220.07 314.18)">
   <path id="path3818" d="m637 266.4v-14.4-2.62" stroke="#000" stroke-miterlimit="10" fill="none"/>
  </g>
  <g id="g3820" transform="matrix(1.25 0 0 1.25 -220.69 313.55)">
   <path id="path3822" d="m637.5 246.1 2.52 5.04-2.52-1.26-2.52 1.26 2.52-5.04z"/>
  </g>
  <g id="g3824" transform="matrix(1.25 0 0 1.25 -220.07 314.18)">
   <path id="path3826" d="m637 245.6 2.52 5.04-2.52-1.26-2.52 1.26 2.52-5.04z" stroke="#000" stroke-miterlimit="10" fill="none"/>
  </g>
  <g id="g3832" fill="#b3b3b3" transform="matrix(1.25 0 0 1.25 -220.69 313.55)">
   <path id="path3834" d="m619.34 266.9h36.72c1.7894 0 3.24 1.4506 3.24 3.24v15.12c0 1.7894-1.4506 3.24-3.24 3.24h-36.72c-1.7894 0-3.24-1.4506-3.24-3.24v-15.12c0-1.7894 1.4506-3.24 3.24-3.24z" fill="#b3b3b3"/>
  </g>
  <g id="g3836" transform="matrix(1.25 0 0 1.25 -220.07 314.18)">
   <path id="path3838" d="m618.84 266.4h36.72c1.7894 0 3.24 1.4506 3.24 3.24v15.12c0 1.7894-1.4506 3.24-3.24 3.24h-36.72c-1.7894 0-3.24-1.4506-3.24-3.24v-15.12c0-1.7894 1.4506-3.24 3.24-3.24z" stroke="#000" stroke-miterlimit="10" fill="none"/>
  </g>
  <g id="g3842" transform="matrix(0.9 0 0 0.9 555.56 651.05)"></g>
  <g id="g3846" transform="matrix(1.25 0 0 1.25 -220.69 313.55)" stroke="#fff" stroke-width=".16">
   <path id="path3848" d="m622.35 279.81c0.20531 0.32625 0.53438 0.48938 0.98719 0.48938 0.35156 0 0.64055-0.15117 0.86695-0.45352 0.22641-0.30234 0.33961-0.73617 0.33961-1.3015 0-0.57094-0.11672-0.99352-0.35016-1.2677-0.23343-0.27422-0.52171-0.41133-0.86484-0.41133-0.3825 0-0.69258 0.14625-0.93023 0.43876-0.23766 0.29249-0.35649 0.72281-0.35649 1.2909 0 0.48375 0.10266 0.88875 0.30797 1.215zm1.7044-3.3876c0.135 0.0844 0.28828 0.23203 0.45984 0.44296v-2.2823h0.72984v6.2184h-0.68343v-0.6286c-0.17719 0.27844-0.38672 0.47954-0.6286 0.60329-0.24187 0.12375-0.5189 0.18562-0.83109 0.18562-0.50344 0-0.93938-0.21164-1.3078-0.63492-0.36844-0.42328-0.55266-0.98649-0.55266-1.6896 0-0.65813 0.16805-1.2284 0.50414-1.7107 0.33609-0.48235 0.81633-0.72352 1.4407-0.72352 0.34594 0 0.63563 0.0731 0.86907 0.21938zm5.1244-0.0148c0.30094 0.15047 0.53016 0.34523 0.68766 0.5843 0.15187 0.22781 0.25312 0.49359 0.30375 0.79734 0.045 0.20813 0.0675 0.54 0.0675 0.99563h-3.3117c0.0141 0.45843 0.12234 0.82617 0.32484 1.1032s0.51609 0.41555 0.94078 0.41555c0.39657 0 0.71297-0.13079 0.94922-0.39235 0.135-0.15187 0.23063-0.32765 0.28688-0.52734h0.74672c-0.0197 0.16594-0.0851 0.35086-0.19618 0.55476-0.11109 0.20391-0.23554 0.37055-0.37336 0.49993-0.23062 0.225-0.51609 0.37687-0.8564 0.45562-0.18282 0.045-0.38953 0.0675-0.62016 0.0675-0.5625 0-1.0392-0.20461-1.4302-0.61383-0.39094-0.40922-0.58641-0.98226-0.58641-1.7191 0-0.72562 0.19687-1.3148 0.59062-1.7676 0.39375-0.45282 0.90844-0.67922 1.5441-0.67922 0.32062 0 0.6314 0.0752 0.93234 0.2257zm0.27844 1.774c-0.0309-0.32906-0.10266-0.59203-0.21516-0.7889-0.20812-0.36563-0.55547-0.54844-1.042-0.54844-0.34875 0-0.64125 0.12586-0.8775 0.37758s-0.36141 0.57164-0.37547 0.95976h2.5102zm2.0826-1.8984 1.2066 3.6788 1.2614-3.6788h0.8311l-1.7044 4.5183h-0.81l-1.6664-4.5183h0.88172zm6.7627 0.12445c0.30094 0.15047 0.53016 0.34523 0.68766 0.5843 0.15187 0.22781 0.25312 0.49359 0.30375 0.79734 0.045 0.20813 0.0675 0.54 0.0675 0.99563h-3.3117c0.0141 0.45843 0.12234 0.82617 0.32484 1.1032s0.51609 0.41555 0.94078 0.41555c0.39656 0 0.71297-0.13079 0.94922-0.39235 0.135-0.15187 0.23063-0.32765 0.28688-0.52734h0.74672c-0.0197 0.16594-0.0851 0.35086-0.19618 0.55476-0.11109 0.20391-0.23554 0.37055-0.37336 0.49993-0.23062 0.225-0.51609 0.37687-0.8564 0.45562-0.18282 0.045-0.38953 0.0675-0.62016 0.0675-0.5625 0-1.0392-0.20461-1.4302-0.61383-0.39093-0.40922-0.5864-0.98226-0.5864-1.7191 0-0.72562 0.19687-1.3148 0.59062-1.7676 0.39375-0.45282 0.90844-0.67922 1.5441-0.67922 0.32062 0 0.6314 0.0752 0.93234 0.2257zm0.27844 1.774c-0.0309-0.32906-0.10266-0.59203-0.21516-0.7889-0.20812-0.36563-0.55547-0.54844-1.042-0.54844-0.34875 0-0.64125 0.12586-0.8775 0.37758s-0.36141 0.57164-0.37547 0.95976h2.5102zm1.7325-3.5775h0.75937v6.1973h-0.75937v-6.1973zm4.7201 5.1363c0.18704-0.38109 0.28055-0.80508 0.28055-1.272 0-0.42188-0.0675-0.765-0.2025-1.0294-0.21375-0.41625-0.58219-0.62437-1.1053-0.62437-0.46406 0-0.80156 0.17719-1.0125 0.53156-0.21094 0.35438-0.31641 0.78188-0.31641 1.2825 0 0.48094 0.10547 0.88172 0.31641 1.2024 0.21094 0.32062 0.54562 0.48093 1.0041 0.48093 0.50344 0 0.84867-0.19054 1.0357-0.57164zm0.4704-3.0059c0.40218 0.38813 0.60328 0.95907 0.60328 1.7128 0 0.72843-0.17719 1.3303-0.53156 1.8056-0.35438 0.47531-0.90422 0.71297-1.6495 0.71297-0.62156 0-1.1152-0.21023-1.4808-0.6307-0.36562-0.42047-0.54844-0.98508-0.54844-1.6938 0-0.75938 0.19266-1.3641 0.57797-1.8141 0.38532-0.45 0.90282-0.675 1.5525-0.675 0.58219 0 1.0744 0.19406 1.4766 0.58218zm4.2954 3.1113c0.23484-0.29672 0.35226-0.74039 0.35226-1.331 0-0.36-0.052-0.66938-0.15609-0.92813-0.19688-0.49781-0.55688-0.74672-1.08-0.74672-0.52594 0-0.88594 0.26297-1.08 0.78891-0.10406 0.28125-0.15609 0.63844-0.15609 1.0716 0 0.34875 0.052 0.64547 0.15609 0.89016 0.19687 0.46687 0.55687 0.70031 1.08 0.70031 0.35437 0 0.64898-0.14836 0.88383-0.44508zm-2.8498-3.5416h0.73828v0.59906c0.15188-0.20531 0.31781-0.36422 0.49782-0.47672 0.25593-0.16875 0.55687-0.25312 0.90281-0.25312 0.51187 0 0.9464 0.19617 1.3036 0.58852 0.35719 0.39234 0.53578 0.95273 0.53578 1.6812 0 0.98437-0.25734 1.6875-0.77203 2.1094-0.32625 0.26719-0.70594 0.40078-1.1391 0.40078-0.34031 0-0.62578-0.0745-0.85641-0.22359-0.135-0.0844-0.28547-0.22922-0.4514-0.43453v2.3076h-0.75938v-6.2986z" stroke="#fff" stroke-width=".16"/>
  </g>
  <g id="g3850" transform="matrix(0.9 0 0 0.9 555.56 651.05)"></g>
  <g id="g3856" transform="matrix(1.25 0 0 1.25 187.41 434.77)"></g>
  <g id="g3860" transform="matrix(1.25 0 0 1.25 187.41 434.77)">
   <g id="g3862" clip-path="url(#clipPath3864)"></g>
  </g>
  <g id="g3870" transform="matrix(1.25 0 0 1.25 187.41 434.77)">
   <g id="g3872" clip-path="url(#clipPath3874)">
    <g id="g3878" clip-path="url(#clipPath3880)"></g>
   </g>
  </g>
  <g id="g3888" transform="matrix(1.25 0 0 1.25 187.41 434.77)"></g>
  <g id="g3892" transform="matrix(1.25 0 0 1.25 187.41 434.77)">
   <g id="g3894" clip-path="url(#clipPath3896)"></g>
  </g>
  <g id="g3904" transform="matrix(1.25 0 0 1.25 187.41 434.77)">
   <g id="g3906" clip-path="url(#clipPath3908)">
    <g id="g3912" clip-path="url(#clipPath3914)"></g>
   </g>
  </g>
  <g id="g3920" transform="matrix(1.25 0 0 1.25 187.41 434.77)">
   <g id="g3922" clip-path="url(#clipPath3924)">
    <g id="g3928" clip-path="url(#clipPath3930)">
     <g id="g3934" clip-path="url(#clipPath3936)"></g>
    </g>
   </g>
  </g>
  <g id="g3942" transform="matrix(1.25 0 0 1.25 187.41 434.77)"></g>
  <g id="g3946" transform="matrix(1.25 0 0 1.25 187.41 434.77)">
   <g id="g3948" clip-path="url(#clipPath3950)"></g>
  </g>
  <g id="g3956" transform="matrix(1.25 0 0 1.25 187.41 434.77)">
   <g id="g3958" clip-path="url(#clipPath3960)">
    <g id="g3964" clip-path="url(#clipPath3966)"></g>
   </g>
  </g>
  <g id="g3974" transform="matrix(1.25 0 0 1.25 187.41 434.77)"></g>
  <g id="g3978" transform="matrix(1.25 0 0 1.25 187.41 434.77)">
   <g id="g3980" clip-path="url(#clipPath3982)"></g>
  </g>
  <g id="g3990" transform="matrix(1.25 0 0 1.25 187.41 434.77)"></g>
  <g id="g6639" transform="matrix(1.25 0 0 1.25 -220.16 314.15)">
   <path id="path6641" d="m637 151.2v14.8 2.42" stroke="#000" stroke-miterlimit="10" fill="none"/>
  </g>
  <g id="g6643" transform="matrix(1.25 0 0 1.25 -220.78 313.53)">
   <path id="path6645" d="m637.5 172.7-2.52-5.04 2.52 1.26 2.52-1.26-2.52 5.04z"/>
  </g>
  <g id="g6647" transform="matrix(1.25 0 0 1.25 -220.16 314.15)">
   <path id="path6649" d="m637 172.2-2.52-5.04 2.52 1.26 2.52-1.26l-2.52 5.04z" stroke="#000" stroke-miterlimit="10" fill="none"/>
  </g>
  <g id="g6655" transform="matrix(1.25 0 0 1.25 -220.78 313.53)">
   <path id="path6657" d="m619.34 130.1h36.72c1.7894 0 3.24 1.4506 3.24 3.24v15.12c0 1.7894-1.4506 3.24-3.24 3.24h-36.72c-1.7894 0-3.24-1.4506-3.24-3.24v-15.12c0-1.7894 1.4506-3.24 3.24-3.24z" fill="#fff"/>
  </g>
  <g id="g6659" transform="matrix(1.25 0 0 1.25 -220.16 314.15)">
   <path id="path6661" d="m618.84 129.6h36.72c1.7894 0 3.24 1.4506 3.24 3.24v15.12c0 1.7894-1.4506 3.24-3.24 3.24h-36.72c-1.7894 0-3.24-1.4506-3.24-3.24v-15.12c0-1.7894 1.4506-3.24 3.24-3.24z" stroke="#000" stroke-miterlimit="10" fill="none"/>
  </g>
  <g id="g6669" transform="matrix(1.25 0 0 1.25 -220.78 313.53)">
   <path id="path6671" d="m626.4 137.6h0.84797v2.5608h3.2231v-2.5608h0.84797v6.1973h-0.84797v-2.8983h-3.2231v2.8983h-0.84797v-6.1973zm6.2916 0h4.5183v0.75937h-3.6998v1.8816h3.4214v0.71719h-3.4214v2.1009h3.7631v0.73828h-4.5816v-6.1973zm8.8608 3.6576-0.94078-2.738-0.99984 2.738h1.9406zm-1.3795-3.6576h0.94922l2.2486 6.1973h-0.91969l-0.62859-1.8562h-2.4511l-0.67078 1.8562h-0.86063l2.333-6.1973zm6.338 5.4802c0.28406 0 0.5175-0.0295 0.70031-0.0886 0.32625-0.10969 0.59344-0.32063 0.80156-0.63281 0.16594-0.25032 0.28547-0.57094 0.3586-0.96188 0.0422-0.23344 0.0633-0.45 0.0633-0.64969 0-0.76781-0.15258-1.3641-0.45774-1.7888-0.30515-0.42468-0.79664-0.63703-1.4744-0.63703h-1.4892v4.7588h1.4977zm-2.3414-5.4802h2.5102c0.85219 0 1.5131 0.30234 1.9828 0.90703 0.41906 0.54562 0.6286 1.2445 0.6286 2.0967 0 0.65813-0.12376 1.253-0.37126 1.7845-0.43593 0.93937-1.1855 1.4091-2.2486 1.4091h-2.5017v-6.1973z"/>
  </g>
 </g>
</svg>
